<?xml version="1.0" encoding="UTF-8"?><svg xmlns="http://www.w3.org/2000/svg" xmlns:xlink="http://www.w3.org/1999/xlink" contentScriptType="text/ecmascript" fill="#000000" width="1856.3" zoomAndPan="magnify" contentStyleType="text/css" viewBox="142.6 185.4 1856.3 1935.9" height="1935.9" preserveAspectRatio="xMidYMid meet" version="1"><g><g id="change1_1"><path fill="#f8a18f" d="M 1136.460938 858.210938 L 949.4375 858.210938 L 949.4375 1034.148438 L 1136.460938 1034.148438 L 1136.460938 858.210938"/></g><g id="change2_1"><path fill="#f68373" d="M 949.4375 965.75 L 949.4375 858.210938 L 1136.460938 858.210938 L 1136.460938 965.75 C 1136.460938 965.75 1051.328125 1045.558594 949.4375 965.75"/></g><g id="change1_2"><path fill="#f8a18f" d="M 1223.667969 685.863281 C 1230.21875 728.257812 1230.125 768.230469 1210.953125 808.664062 C 1181.445312 870.890625 1130.628906 944.800781 1055.078125 914.195312 C 1021.917969 900.765625 984.292969 895.042969 954.640625 874.851562 C 921.335938 852.171875 902.554688 833.101562 898.648438 786.054688 C 892.296875 709.960938 869.097656 599.082031 900.464844 528.292969 C 927.175781 468.003906 988.507812 446.261719 1050.226562 446.878906 C 1097.269531 447.339844 1172.871094 458.148438 1200.570312 502.363281 C 1228.019531 546.21875 1215.679688 634.078125 1223.667969 685.863281"/></g><g id="change1_3"><path fill="#f8a18f" d="M 772.585938 1843.699219 L 752.683594 2121.320312 L 1333.191406 2121.320312 L 1313.300781 1843.699219 L 1448.570312 1272.75 C 1467.511719 1169.929688 1380.929688 1123.300781 1380.929688 1123.300781 L 1110.480469 1005.328125 L 975.386719 1005.328125 L 704.945312 1123.300781 C 704.945312 1123.300781 618.371094 1169.929688 637.308594 1272.75 L 772.585938 1843.699219"/></g><g id="change1_4"><path fill="#f8a18f" d="M 829.121094 711.929688 C 832.175781 739.660156 851.613281 760.25 872.546875 757.960938 C 893.46875 755.660156 907.988281 731.328125 904.972656 703.621094 C 901.925781 675.898438 882.472656 655.300781 861.527344 657.601562 C 840.609375 659.878906 826.089844 684.21875 829.121094 711.929688"/></g><g id="change3_1"><path fill="#f57c6e" d="M 864.085938 737.539062 C 865.679688 737.539062 867.277344 736.828125 868.347656 735.488281 C 870.203125 733.128906 869.804688 729.710938 867.453125 727.851562 C 861.308594 722.988281 857.316406 710.019531 858.589844 698.949219 C 859.335938 692.441406 861.8125 687.71875 865.414062 686.019531 C 868.128906 684.75 869.28125 681.5 867.992188 678.800781 C 866.699219 676.078125 863.476562 674.941406 860.769531 676.210938 C 853.605469 679.601562 849.011719 687.238281 847.808594 697.71875 C 846.355469 710.371094 850.40625 728.210938 860.722656 736.371094 C 861.726562 737.148438 862.902344 737.539062 864.085938 737.539062"/></g><g id="change3_2"><path fill="#f57c6e" d="M 853.832031 710.839844 C 855.226562 710.839844 856.609375 710.308594 857.675781 709.261719 C 860.394531 706.539062 867.640625 706.191406 873.375 707.199219 C 876.234375 707.738281 879.144531 705.789062 879.675781 702.839844 C 880.207031 699.878906 878.261719 697.050781 875.3125 696.519531 C 871.269531 695.789062 857.597656 693.988281 850 701.570312 C 847.894531 703.691406 847.878906 707.128906 850 709.25 C 851.058594 710.308594 852.4375 710.839844 853.832031 710.839844"/></g><g id="change1_5"><path fill="#f8a18f" d="M 1485.101562 1275.96875 C 1526.421875 1407.570312 1556.558594 1504.519531 1606.878906 1766.359375 C 1606.878906 1766.359375 1478.53125 1912.078125 1451.28125 1857.679688 C 1341.070312 1637.648438 1328.570312 1539.550781 1264.199219 1369.808594 C 1264.199219 1369.808594 1243.640625 1160.089844 1361.488281 1124.289062 C 1361.488281 1124.289062 1451.28125 1140.261719 1485.101562 1275.96875"/></g><g id="change4_1"><path fill="#930e2e" d="M 1305.050781 1091.371094 C 1324.710938 1092.769531 1400 1132.820312 1400 1132.820312 C 1400 1132.820312 1456.808594 1162.570312 1481.691406 1249.378906 L 1596.910156 1581.269531 C 1596.910156 1581.269531 1533.238281 1718.308594 1313.480469 1716.710938 L 1201.429688 1332.351562 C 1201.429688 1332.351562 1107.011719 1077.378906 1305.050781 1091.371094"/></g><g id="change5_1"><path fill="#173665" d="M 917.644531 657.421875 L 920.757812 720.550781 L 903.472656 726.125 L 893.46875 673.582031 C 893.46875 673.582031 879.796875 647.390625 843.90625 663.871094 C 843.90625 663.871094 810.589844 518.890625 909.351562 435.914062 C 909.351562 435.914062 1017.691406 322.722656 1167.6875 425.988281 C 1167.6875 425.988281 1206.496094 460.738281 1185.414062 481.003906 C 1170.136719 495.675781 1169.773438 503.503906 1148.796875 511.40625 C 1096.640625 531.042969 1002.320312 486.546875 966.792969 545.460938 C 966.792969 545.492188 961.492188 574.800781 963.644531 600.484375 C 963.644531 600.484375 923.050781 612.59375 917.644531 657.421875"/></g><g id="change5_2"><path fill="#173665" d="M 1221.003906 655.375 C 1224.839844 583.6875 1191.691406 509.59375 1191.691406 509.59375 C 1169.65625 474.425781 1148.808594 478.9375 1148.808594 478.9375 C 1155.199219 422.886719 1209.476562 471.976562 1209.476562 471.976562 C 1209.476562 471.976562 1271.820312 529.109375 1221.003906 655.375"/></g><g id="change6_1"><path fill="#172345" d="M 1343.101562 1725.421875 C 1410.558594 1725.421875 1463.261719 1701.148438 1540.558594 1654.101562 C 1543.109375 1652.539062 1543.921875 1649.210938 1542.359375 1646.660156 C 1540.808594 1644.109375 1537.46875 1643.300781 1534.929688 1644.851562 C 1450.820312 1696.050781 1396.660156 1719.640625 1320.171875 1713.679688 C 1310.5 1682.210938 1285.980469 1601.878906 1277.648438 1574.488281 C 1276.789062 1571.628906 1273.808594 1570.011719 1270.898438 1570.878906 C 1268.050781 1571.75 1266.429688 1574.769531 1267.300781 1577.628906 C 1275.941406 1606.109375 1302.121094 1691.820312 1310.921875 1720.359375 C 1311.558594 1722.460938 1313.410156 1723.960938 1315.609375 1724.148438 C 1325.089844 1724.988281 1334.21875 1725.421875 1343.101562 1725.421875"/></g><g id="change7_1"><path fill="#d93b4c" d="M 699.308594 1822.949219 L 699.308594 2121.320312 L 1392.730469 2121.320312 L 1387.929688 1860.371094 L 1448.570312 1272.75 C 1467.511719 1169.929688 1380.929688 1123.300781 1380.929688 1123.300781 L 1178.941406 1035.199219 C 1178.941406 1035.199219 1172.410156 1129.441406 1040.179688 1130.328125 C 1040.179688 1130.328125 912.515625 1132.761719 909.351562 1034.148438 L 696.890625 1105.730469 C 696.890625 1105.730469 596.980469 1173.371094 637.308594 1272.75 L 699.308594 1822.949219"/></g><g id="change4_2"><path fill="#930e2e" d="M 1379.148438 1152.039062 C 1341.539062 1131.5 1298.46875 1106.609375 1255.921875 1098.941406 C 1219.679688 1092.410156 1190.230469 1115.371094 1164.929688 1137.851562 C 1118.820312 1178.820312 1056.640625 1194.480469 997.105469 1173.351562 C 953.773438 1157.960938 930.195312 1114.679688 888.832031 1096.46875 C 861.726562 1084.539062 826.339844 1091.609375 799.015625 1098.921875 C 758.339844 1109.820312 719.445312 1125.929688 680.660156 1142.179688 C 670.570312 1146.398438 660.117188 1151.171875 649.421875 1155.878906 C 669.714844 1124.160156 696.886719 1105.730469 696.886719 1105.730469 L 909.351562 1034.148438 C 912.515625 1132.761719 1040.179688 1130.328125 1040.179688 1130.328125 C 1172.410156 1129.441406 1178.941406 1035.199219 1178.941406 1035.199219 L 1380.929688 1123.300781 C 1380.929688 1123.300781 1421.140625 1144.988281 1440.75 1191.351562 C 1421.230469 1176.679688 1400.441406 1163.648438 1379.148438 1152.039062"/></g><g id="change5_3"><path fill="#173665" d="M 1060.789062 622.140625 C 1050.621094 622.230469 1042.230469 618.398438 1031.941406 619.238281 C 1021.691406 620.058594 1005.230469 625.480469 994.507812 624.609375 C 996.296875 612.21875 997.203125 609.359375 1018.859375 604.109375 C 1032.730469 600.71875 1051.328125 598.691406 1065.710938 602.75 C 1083.53125 607.78125 1076.339844 622.011719 1060.789062 622.140625"/></g><g id="change6_2"><path fill="#172345" d="M 1181.089844 655.378906 C 1181.089844 664 1185.75 670.980469 1191.480469 670.980469 C 1197.230469 670.980469 1201.871094 664 1201.871094 655.378906 C 1201.871094 646.75 1197.230469 639.78125 1191.480469 639.78125 C 1185.75 639.78125 1181.089844 646.75 1181.089844 655.378906"/></g><g id="change6_3"><path fill="#172345" d="M 1039.011719 655.378906 C 1039.011719 664 1043.671875 670.980469 1049.398438 670.980469 C 1055.140625 670.980469 1059.789062 664 1059.789062 655.378906 C 1059.789062 646.75 1055.140625 639.78125 1049.398438 639.78125 C 1043.671875 639.78125 1039.011719 646.75 1039.011719 655.378906"/></g><g id="change6_4"><path fill="#172345" d="M 1042.058594 1140.539062 C 1101.921875 1140.539062 1152.21875 1108.96875 1176.351562 1079.671875 C 1178.25 1077.359375 1177.929688 1073.960938 1175.621094 1072.058594 C 1173.328125 1070.171875 1169.910156 1070.46875 1168 1072.789062 C 1134.75 1113.128906 1048.441406 1158.011719 958.414062 1106.691406 C 955.824219 1105.230469 952.53125 1106.121094 951.023438 1108.71875 C 949.558594 1111.320312 950.464844 1114.621094 953.050781 1116.109375 C 983.6875 1133.570312 1013.941406 1140.539062 1042.058594 1140.539062"/></g><g id="change6_5"><path fill="#172345" d="M 1405.121094 1720.828125 C 1405.691406 1720.828125 1406.289062 1720.730469 1406.871094 1720.53125 C 1409.699219 1719.558594 1411.199219 1716.480469 1410.230469 1713.648438 C 1388.800781 1651.371094 1376.96875 1616.570312 1370.101562 1596.398438 C 1360.550781 1568.308594 1360.550781 1568.308594 1357.808594 1562.058594 C 1356.429688 1558.878906 1354.320312 1554.050781 1349.710938 1542.601562 C 1348.589844 1539.828125 1345.390625 1538.5 1342.671875 1539.609375 C 1339.878906 1540.71875 1338.539062 1543.878906 1339.660156 1546.660156 C 1344.339844 1558.261719 1346.488281 1563.171875 1347.898438 1566.378906 C 1350.441406 1572.21875 1350.441406 1572.21875 1359.871094 1599.878906 C 1366.738281 1620.070312 1378.570312 1654.878906 1400 1717.171875 C 1400.769531 1719.421875 1402.859375 1720.828125 1405.121094 1720.828125"/></g><g id="change3_3"><path fill="#f57c6e" d="M 1090.019531 808.371094 C 1097.898438 808.371094 1105.980469 806.46875 1113.070312 801.558594 C 1115.519531 799.871094 1116.148438 796.480469 1114.441406 794.019531 C 1112.738281 791.539062 1109.359375 790.929688 1106.890625 792.640625 C 1096.128906 800.089844 1081.691406 797.960938 1071.800781 793.5 C 1063.121094 789.578125 1059.488281 784.808594 1059.25 782.730469 C 1058.890625 779.738281 1056.179688 777.628906 1053.21875 777.96875 C 1050.230469 778.328125 1048.109375 781.03125 1048.46875 784.011719 C 1049.320312 791.210938 1056.390625 798.449219 1067.351562 803.390625 C 1073.78125 806.300781 1081.808594 808.371094 1090.019531 808.371094"/></g><g id="change1_6"><path fill="#f8a18f" d="M 838.496094 1814.511719 C 838.496094 1814.511719 1293.609375 1892.339844 1477.558594 1889.980469 C 1477.558594 1889.980469 1579.148438 1890.019531 1606.878906 1766.359375 C 1606.878906 1766.359375 1565.261719 1715.648438 1425.640625 1702.011719 C 1425.640625 1702.011719 938.5625 1757.640625 838.496094 1735.699219 L 838.496094 1814.511719"/></g><g id="change1_7"><path fill="#f8a18f" d="M 575.949219 1336.480469 C 593.71875 1478.550781 661.65625 1799.941406 803.214844 1762.261719 C 803.214844 1762.261719 848.238281 1681.230469 841.640625 1618.441406 C 831.875 1525.480469 843.621094 1505.019531 803.941406 1353.089844 C 803.941406 1353.089844 805.332031 1244.710938 681.550781 1129.070312 C 681.550781 1129.070312 549.523438 1193.53125 575.949219 1336.480469"/></g><g id="change4_3"><path fill="#930e2e" d="M 710.558594 1101.121094 C 710.558594 1101.121094 588.921875 1135.210938 557.902344 1259.570312 L 561.761719 1603.109375 C 561.761719 1603.109375 734.179688 1618.53125 840.839844 1564.949219 C 840.839844 1564.949219 855.425781 1179.601562 710.558594 1101.121094"/></g><g id="change3_4"><path fill="#f57c6e" d="M 1113.96875 747.460938 C 1125.21875 747.460938 1139.449219 742.859375 1146.070312 734.808594 C 1156.480469 722.140625 1150.289062 712.851562 1145.328125 705.378906 C 1143.578125 702.761719 1141.789062 700.039062 1140.371094 697 C 1131.300781 677.679688 1132.550781 632.890625 1150.988281 618.261719 C 1153.339844 616.398438 1153.730469 612.980469 1151.871094 610.628906 C 1150.019531 608.28125 1146.578125 607.898438 1144.25 609.75 C 1121.410156 627.851562 1119.621094 678.269531 1130.539062 701.601562 C 1132.300781 705.378906 1134.421875 708.558594 1136.300781 711.378906 C 1141.160156 718.71875 1142.988281 721.460938 1137.679688 727.921875 C 1131.929688 734.898438 1115.378906 738.039062 1108.628906 735.96875 C 1105.738281 735.078125 1102.71875 736.730469 1101.839844 739.578125 C 1100.96875 742.441406 1102.589844 745.480469 1105.449219 746.351562 C 1107.910156 747.101562 1110.820312 747.460938 1113.96875 747.460938"/></g><g id="change5_4"><path fill="#173665" d="M 1160.789062 622.140625 C 1170.960938 622.230469 1179.351562 618.398438 1189.640625 619.238281 C 1199.890625 620.058594 1216.371094 625.480469 1227.070312 624.609375 C 1225.261719 612.21875 1224.371094 609.359375 1202.730469 604.109375 C 1188.839844 600.71875 1170.25 598.691406 1155.871094 602.75 C 1138.019531 607.78125 1145.230469 622.011719 1160.789062 622.140625"/></g><g id="change3_5"><path fill="#f57c6e" d="M 1009.199219 690.28125 C 1009.148438 697.390625 1022.128906 703.21875 1038.199219 703.320312 C 1054.269531 703.410156 1067.308594 697.730469 1067.359375 690.621094 C 1067.410156 683.550781 1054.429688 677.710938 1038.359375 677.621094 C 1022.300781 677.519531 1009.238281 683.191406 1009.199219 690.28125"/></g><g id="change3_6"><path fill="#f57c6e" d="M 1152.589844 691.148438 C 1152.550781 698.230469 1165.519531 704.070312 1181.589844 704.160156 C 1197.660156 704.261719 1210.71875 698.578125 1210.761719 691.488281 C 1210.808594 684.390625 1197.808594 678.550781 1181.761719 678.460938 C 1165.691406 678.371094 1152.601562 684.039062 1152.589844 691.148438"/></g><g id="change5_5"><path fill="#173665" d="M 1174.675781 401.621094 C 1139.734375 372.589844 1087.898438 357.019531 1044.894531 371.855469 C 1002.324219 386.546875 948.878906 417.234375 967.710938 462.484375 C 974.632812 480.535156 993.949219 500.003906 1009.203125 512.089844 C 1058.683594 551.320312 1141.152344 532.804688 1198.109375 524.25 C 1198.109375 524.25 1260.800781 516.605469 1272.527344 470.59375 C 1272.527344 470.59375 1243.976562 476.019531 1227.582031 474.210938 C 1227.582031 474.210938 1264.40625 448.0625 1257.207031 416.488281 C 1257.207031 416.488281 1240.078125 448.960938 1174.675781 401.621094"/></g><g id="change5_6"><path fill="#173665" d="M 971.199219 573.839844 C 965.171875 585 966.371094 612.816406 952.335938 596.503906 C 942.773438 585.382812 942.996094 559.664062 944.421875 544.257812 C 946.460938 521.949219 957.019531 498.785156 974.324219 489.179688 C 995.621094 477.363281 1020.289062 496.371094 1014.136719 529.566406 C 1008.3125 560.894531 984.164062 549.859375 971.199219 573.839844"/></g><g id="change1_8"><path fill="#f8a18f" d="M 1031.71875 525.339844 C 1013.121094 515.019531 1015.648438 517.289062 1003.441406 508.128906 C 1003.441406 508.128906 1020.011719 521.121094 1015.089844 543.578125 L 1031.71875 525.339844"/></g><g id="change1_9"><path fill="#f8a18f" d="M 862.160156 1754.28125 C 868.027344 1762.441406 871.425781 1773.808594 867.539062 1783.371094 C 858.773438 1805.019531 829.667969 1817.621094 810.039062 1826.269531 C 785.019531 1837.25 753.035156 1856.921875 725.550781 1842.21875 C 721.351562 1839.96875 718.136719 1835.191406 714.371094 1832.160156 C 706.488281 1825.828125 699.808594 1829.449219 697.523438 1818.949219 C 696.238281 1812.980469 685.625 1801.660156 686.160156 1796.148438 C 686.699219 1790.71875 675.328125 1777.398438 675.394531 1772.320312 C 675.972656 1741.488281 678.386719 1722.339844 692.160156 1716.828125 C 700.421875 1713.578125 737.175781 1704.628906 746.246094 1690.328125 C 746.246094 1690.328125 757.914062 1677.96875 792.535156 1698.75 L 862.160156 1754.28125"/></g><g id="change8_1"><path fill="#f69575" d="M 930.496094 1614.03125 C 1056.351562 1259.699219 1063.960938 1043.160156 1063.960938 1043.160156 L 1017.171875 1035.890625 C 1017.171875 1035.890625 879.71875 1236.050781 701.769531 1531.941406 C 701.769531 1531.941406 661.699219 1616.921875 721.414062 1703.238281 C 721.414062 1703.238281 750.601562 1771.171875 771.972656 1763.53125 C 771.972656 1763.53125 896.199219 1747.738281 930.496094 1614.03125"/></g><g id="change8_2"><path fill="#f69575" d="M 1129.148438 913.679688 C 1109.648438 911.011719 1111.328125 899.839844 1094.300781 914.289062 C 1079.078125 927.191406 1052.199219 941.261719 1041.039062 954.390625 C 1021.609375 977.359375 965.601562 1079.480469 1064.800781 1066.148438 C 1087.878906 1063.058594 1172.25 1070.53125 1180.71875 1030.980469 C 1193.21875 972.53125 1189.578125 992.980469 1159.121094 930.261719 L 1129.148438 913.679688"/></g><g id="change8_3"><path fill="#f69575" d="M 1096.980469 911.640625 L 1186.308594 836.679688 C 1186.308594 836.679688 1217.230469 855.230469 1109.800781 946.28125 L 1096.980469 911.640625"/></g><g id="change8_4"><path fill="#f69575" d="M 1020.578125 1003.96875 C 1024 957.070312 1003.308594 895.441406 1003.308594 895.441406 C 1003.308594 895.441406 1020.410156 879.070312 1046.53125 916.519531 C 1046.53125 916.519531 1067.28125 938.441406 1069.441406 980.210938 C 1069.441406 980.210938 1057.308594 1010.429688 1020.578125 1003.96875"/></g><g id="change6_6"><path fill="#172345" d="M 1008.300781 1048.691406 C 1010.820312 1048.691406 1013.089844 1046.910156 1013.589844 1044.339844 C 1014.761719 1038.441406 1016.371094 1032.019531 1018.050781 1025.300781 C 1022.789062 1006.359375 1028.171875 984.898438 1026.328125 965.21875 C 1025.039062 951.269531 1019.910156 938.078125 1014.949219 925.320312 C 1010.71875 914.460938 1006.699219 904.128906 1005.378906 894.179688 C 1024.871094 890.390625 1046.871094 916.261719 1054.121094 933.269531 C 1054.859375 934.988281 1056.441406 936.21875 1058.308594 936.488281 C 1069.789062 938.109375 1088.289062 921.949219 1120.058594 893.121094 C 1142.621094 872.671875 1176.640625 841.738281 1187.101562 844.410156 C 1187.511719 844.511719 1188.28125 844.710938 1188.949219 846.660156 C 1189.941406 849.480469 1193 850.96875 1195.851562 850 C 1198.671875 849.011719 1200.160156 845.921875 1199.160156 843.089844 C 1197.011719 836.941406 1192.859375 834.710938 1189.75 833.921875 C 1174.808594 830.089844 1150.71875 850.71875 1112.789062 885.101562 C 1096.230469 900.128906 1071.988281 922.109375 1062.390625 925.390625 C 1051.921875 904.351562 1024.769531 874.328125 997.566406 885.261719 C 995.40625 886.121094 994.046875 888.261719 994.179688 890.570312 C 994.851562 903.519531 999.945312 916.601562 1004.871094 929.238281 C 1009.539062 941.300781 1014.398438 953.769531 1015.550781 966.230469 C 1017.21875 984.058594 1012.089844 1004.570312 1007.550781 1022.671875 C 1005.828125 1029.570312 1004.171875 1036.160156 1002.980469 1042.230469 C 1002.390625 1045.160156 1004.300781 1048.011719 1007.238281 1048.589844 L 1008.300781 1048.691406"/></g><g id="change9_1"><path fill="#d82930" d="M 1308.753906 280.867188 C 1352.960938 222.058594 1476.808594 241.496094 1486.335938 319.957031 C 1490.492188 354.195312 1468.976562 382.675781 1437.398438 392.773438 C 1417.710938 399.070312 1396.824219 408.433594 1385.433594 426.8125 C 1360.53125 466.875 1381.535156 511.34375 1378.066406 554.53125 C 1375.902344 581.417969 1417.722656 581.203125 1419.875 554.53125 C 1422.023438 527.609375 1414.609375 500.902344 1414.339844 473.980469 C 1413.945312 435.070312 1453.234375 435.019531 1479.695312 420.085938 C 1532.742188 390.160156 1540.023438 315.324219 1510.859375 267.441406 C 1460.898438 185.429688 1327.90625 186.261719 1272.648438 259.78125 C 1256.441406 281.34375 1292.773438 302.148438 1308.753906 280.867188"/></g><g id="change9_2"><path fill="#d82930" d="M 1382.578125 626.699219 C 1382.578125 632.039062 1382.578125 637.371094 1382.578125 642.71875 C 1382.578125 654.109375 1392.078125 663.609375 1403.480469 663.609375 C 1414.871094 663.609375 1424.378906 654.109375 1424.378906 642.71875 C 1424.378906 641.890625 1424.378906 641.070312 1424.378906 640.238281 C 1424.378906 628.839844 1414.871094 619.339844 1403.480469 619.339844 C 1392.078125 619.339844 1382.578125 628.839844 1382.578125 640.238281 C 1382.578125 641.070312 1382.578125 641.890625 1382.578125 642.71875 C 1382.578125 654.109375 1392.078125 663.609375 1403.480469 663.609375 C 1414.871094 663.609375 1424.378906 654.109375 1424.378906 642.71875 C 1424.378906 637.371094 1424.378906 632.039062 1424.378906 626.699219 C 1424.378906 615.308594 1414.871094 605.800781 1403.480469 605.800781 C 1392.078125 605.800781 1382.578125 615.308594 1382.578125 626.699219"/></g><g id="change10_1"><path fill="#3bbec5" d="M 190.949219 1263.988281 C 214.101562 1189.289062 336.460938 1169.410156 373.289062 1242.421875 C 386.433594 1268.46875 376.769531 1301.929688 355.484375 1320.160156 C 339.257812 1334.058594 322.9375 1345.160156 315.328125 1366.300781 C 298.21875 1413.871094 336.886719 1451.691406 348.664062 1494.789062 C 355.769531 1520.769531 396.097656 1509.730469 388.972656 1483.679688 C 381.441406 1456.128906 364.242188 1432.640625 355.207031 1405.640625 C 344.269531 1372.941406 375.351562 1360 394.617188 1340.878906 C 438.097656 1297.730469 423.675781 1222.089844 381.347656 1184.851562 C 308.738281 1120.960938 178.417969 1163.269531 150.640625 1252.871094 C 142.632812 1278.679688 182.992188 1289.640625 190.949219 1263.988281"/></g><g id="change10_2"><path fill="#3bbec5" d="M 377.328125 1561.179688 C 379.136719 1566.210938 380.945312 1571.238281 382.757812 1576.261719 C 384.65625 1581.539062 387.394531 1585.839844 392.359375 1588.75 C 397.179688 1591.578125 403.066406 1592.339844 408.460938 1590.859375 C 418.851562 1588 426.851562 1575.898438 423.058594 1565.148438 C 422.785156 1564.371094 422.5 1563.589844 422.21875 1562.808594 C 420.320312 1557.53125 417.585938 1553.21875 412.617188 1550.320312 C 407.785156 1547.488281 401.902344 1546.730469 396.507812 1548.199219 C 386.160156 1551.058594 378.054688 1563.199219 381.917969 1573.921875 C 382.199219 1574.699219 382.472656 1575.480469 382.757812 1576.261719 C 396.1875 1572.550781 409.628906 1568.859375 423.058594 1565.148438 C 421.253906 1560.128906 419.441406 1555.089844 417.636719 1550.070312 C 415.738281 1544.789062 412.996094 1540.488281 408.027344 1537.589844 C 403.203125 1534.75 397.320312 1534 391.925781 1535.46875 C 381.582031 1538.320312 373.46875 1550.460938 377.328125 1561.179688"/></g><g id="change10_3"><path fill="#3bbec5" d="M 1790.367188 1215.519531 C 1874.503906 1185.679688 1989.089844 1313.488281 1895.535156 1371.960938 C 1870.039062 1387.878906 1847.304688 1378.300781 1820.65625 1373.597656 C 1802.703125 1370.429688 1783.730469 1374.359375 1768.109375 1383.488281 C 1733.390625 1403.769531 1727.945312 1448.199219 1704.890625 1477.640625 C 1688.484375 1498.597656 1717.855469 1528.410156 1734.445312 1507.199219 C 1748.132812 1489.710938 1756.765625 1469.910156 1766.84375 1450.25 C 1782.308594 1420.078125 1798.078125 1409.710938 1831.914062 1419.191406 C 1891.808594 1435.949219 1948.363281 1399.398438 1966.574219 1341.980469 C 1998.902344 1240.007812 1872.222656 1142.25 1779.253906 1175.207031 C 1754.042969 1184.148438 1764.90625 1224.550781 1790.367188 1215.519531"/></g><g id="change10_4"><path fill="#3bbec5" d="M 1665.847656 1544.722656 C 1662.925781 1549.203125 1660 1553.660156 1657.078125 1558.132812 C 1669.105469 1565.164062 1681.148438 1572.191406 1693.179688 1579.222656 C 1693.617188 1578.53125 1694.078125 1577.839844 1694.519531 1577.152344 C 1700.785156 1567.601562 1696.480469 1554.089844 1687.039062 1548.550781 C 1676.820312 1542.570312 1664.664062 1546.53125 1658.4375 1556.050781 C 1657.988281 1556.742188 1657.515625 1557.429688 1657.078125 1558.132812 C 1650.894531 1567.710938 1655.074219 1581.160156 1664.578125 1586.722656 C 1674.785156 1592.703125 1686.933594 1588.730469 1693.179688 1579.222656 C 1696.09375 1574.753906 1699.015625 1570.292969 1701.949219 1565.8125 C 1708.175781 1556.269531 1703.898438 1542.761719 1694.445312 1537.222656 C 1684.25 1531.25 1672.0625 1535.203125 1665.847656 1544.722656"/></g></g></svg>