<svg width="344.3" height="263.9" viewBox="40.5 38.1 344.3 263.9" xmlns="http://www.w3.org/2000/svg" xmlns:xlink="http://www.w3.org/1999/xlink" overflow="hidden"><style>
.MsftOfcThm_Background1_lumMod_85_Stroke_v2 {
 stroke:#D9D9D9; 
}
</style>
<g><g id="change1_1"><path d="M188.504 251.219C186.09 264.957 183.68 278.695 181.266 292.438L243.934 292.438C241.52 278.695 239.105 264.957 236.691 251.219L188.504 251.219" class="MsftOfcThm_Background1_lumMod_85_Stroke_v2" stroke="#D9D9D9" fill="#C8C7C7"/></g><g id="change2_1"><path d="M188.504 251.219 187.52 251.047C185.105 264.785 182.695 278.523 180.281 292.262 180.23 292.555 180.309 292.852 180.5 293.078 180.691 293.309 180.969 293.438 181.266 293.438L243.934 293.438C244.23 293.438 244.508 293.309 244.699 293.078 244.891 292.852 244.969 292.555 244.918 292.262 242.504 278.523 240.094 264.785 237.68 251.047 237.594 250.566 237.18 250.219 236.691 250.219L188.504 250.219C188.02 250.219 187.605 250.566 187.52 251.047L188.504 251.219 188.504 252.219 236.691 252.219 236.691 251.219 235.707 251.391C238.121 265.129 240.531 278.871 242.949 292.609L243.934 292.438 243.934 291.438 181.266 291.438 181.266 292.438 182.25 292.609C184.664 278.871 187.074 265.129 189.488 251.391L188.504 251.219 188.504 252.219 188.504 251.219" class="MsftOfcThm_Background1_lumMod_85_Stroke_v2" stroke="#D9D9D9" fill="#393536"/></g><g id="change3_1"><path d="M383.742 241.871C383.742 250.59 376.551 257.66 367.676 257.66L57.5234 257.66C48.6484 257.66 41.457 250.59 41.457 241.871L41.457 54.9023C41.457 46.1836 48.6484 39.1133 57.5234 39.1133L367.676 39.1133C376.551 39.1133 383.742 46.1836 383.742 54.9023L383.742 241.871" class="MsftOfcThm_Background1_lumMod_85_Stroke_v2" stroke="#D9D9D9" fill="#FFFFFF"/></g><g id="change2_2"><path d="M383.742 241.871 382.742 241.871C382.742 245.949 381.062 249.641 378.336 252.32 375.609 255 371.844 256.66 367.676 256.66L57.5234 256.66C53.3516 256.66 49.5898 255 46.8633 252.32 44.1367 249.641 42.457 245.953 42.457 241.871L42.457 54.9023C42.457 50.8203 44.1367 47.1328 46.8633 44.4492 49.5898 41.7734 53.3516 40.1133 57.5234 40.1133L367.676 40.1133C371.844 40.1133 375.609 41.7734 378.336 44.4492 381.062 47.1328 382.742 50.8203 382.742 54.9023L382.742 241.871 384.742 241.871 384.742 54.9023C384.742 50.2656 382.824 46.0586 379.738 43.0234 376.648 39.9883 372.383 38.1133 367.676 38.1133L57.5234 38.1133C52.8164 38.1133 48.5469 39.9883 45.4609 43.0234 42.3711 46.0586 40.457 50.2656 40.457 54.9023L40.457 241.871C40.457 246.508 42.3711 250.715 45.4609 253.746 48.5469 256.781 52.8164 258.66 57.5234 258.66L367.676 258.66C372.383 258.66 376.648 256.781 379.738 253.746 382.824 250.715 384.742 246.508 384.742 241.871L383.742 241.871" class="MsftOfcThm_Background1_lumMod_85_Stroke_v2" stroke="#D9D9D9" fill="#393536"/></g><g id="change4_1"><path d="M372.438 232.16 52.7617 232.16 52.7617 50.5586 372.438 50.5586 372.438 232.16" class="MsftOfcThm_Background1_lumMod_85_Stroke_v2" stroke="#D9D9D9" fill="#302D2E"/></g><g id="change5_1"><path d="M225.852 247.324C225.715 243.051 219.836 239.609 212.602 239.609 205.359 239.609 199.488 243.051 199.352 247.324L225.852 247.324" class="MsftOfcThm_Background1_lumMod_85_Stroke_v2" stroke="#D9D9D9" fill="#3B3838"/></g><g id="change3_2"><path d="M260.316 301.051 164.883 301.051 164.883 292.438 260.316 292.438 260.316 301.051" class="MsftOfcThm_Background1_lumMod_85_Stroke_v2" stroke="#D9D9D9" fill="#FFFFFF"/></g><g id="change2_3"><path d="M260.316 301.051 260.316 300.051 165.883 300.051 165.883 293.438 259.316 293.438 259.316 301.051 260.316 301.051 260.316 300.051 260.316 301.051 261.316 301.051 261.316 292.438C261.316 292.172 261.211 291.914 261.023 291.73 260.836 291.543 260.578 291.438 260.316 291.438L164.883 291.438C164.617 291.438 164.359 291.543 164.176 291.73 163.988 291.914 163.883 292.172 163.883 292.438L163.883 301.051C163.883 301.312 163.988 301.57 164.176 301.758 164.359 301.941 164.617 302.051 164.883 302.051L260.316 302.051C260.578 302.051 260.836 301.941 261.023 301.758 261.211 301.57 261.316 301.312 261.316 301.051L260.316 301.051" class="MsftOfcThm_Background1_lumMod_85_Stroke_v2" stroke="#D9D9D9" fill="#393536"/></g></g></svg>