<svg width="157.9" height="117.8" viewBox="-0.3 -0.1 157.9 117.8" xmlns="http://www.w3.org/2000/svg" xmlns:xlink="http://www.w3.org/1999/xlink" overflow="hidden"><g><g id="change1_1"><path d="M136.28 3.67C122.35 14.53 108.68 25.72 95.28 37.24 81.7 48.9 68.41 60.88 55.39 73.16 48.24 79.9 41.19 86.8 33.4 92.83 34.24 92.18 35.09 91.53 35.93 90.88 34.54 91.94 33.16 93.11 31.54 93.82 32.54 93.4 33.53 92.98 34.53 92.56 34.13 92.7 33.77 92.79 33.35 92.86 34.46 92.71 35.57 92.56 36.67 92.41 36.3 92.43 35.98 92.42 35.61 92.37 36.72 92.52 37.83 92.67 38.93 92.82 38.57 92.74 38.25 92.65 37.9 92.52 38.9 92.94 39.89 93.36 40.89 93.78 40.3 93.51 39.78 93.19 39.26 92.8 40.1 93.45 40.95 94.1 41.79 94.75 38.72 92.29 36.36 88.76 33.97 85.66 34.62 86.5 35.27 87.35 35.92 88.19 31.43 82.36 27.21 76.34 23.25 70.14 21.51 67.42 18.94 65.26 15.78 64.4 12.79 63.58 8.8 63.95 6.15 65.66 3.48 67.38 1.13 69.94 0.41 73.13-0.32 76.34-0.15 79.91 1.67 82.76 4.93 87.85 8.35 92.82 11.96 97.66 14.3 100.8 16.7 103.9 19.15 106.96 21.52 109.9 23.79 112.46 26.97 114.61 29.58 116.39 32.53 117.06 35.62 117.36 38.84 117.67 42.13 116.54 44.92 115.04 46.09 114.41 47.14 113.54 48.19 112.74 50.14 111.26 52.07 109.76 53.97 108.22 58.62 104.42 63.03 100.34 67.4 96.21 85.27 79.34 103.44 62.84 122.25 47.03 132.66 38.28 143.24 29.72 153.97 21.35 156.31 19.52 157.63 15.32 157.63 12.51 157.63 9.44 156.27 5.78 153.97 3.67 151.59 1.48 148.46-0.14 145.13 0.01 144.02 0.16 142.91 0.31 141.81 0.46 139.67 1.05 137.84 2.12 136.28 3.67L136.28 3.67Z" fill="#00B050"/></g></g></svg>