<svg viewBox="0 0 96 96" xmlns="http://www.w3.org/2000/svg" xmlns:xlink="http://www.w3.org/1999/xlink" id="Icons_LineCurveCounterclockwise" overflow="hidden"><path d="M40.8 10.1 54 10.2C55.7 10.2 57 8.9 57 7.2 57 5.5 55.7 4.2 54 4.2L34 4C33.3 4 32.7 4.2 32.1 4.7 32 4.7 32 4.8 31.9 4.9 31.8 5 31.7 5 31.6 5.2 31.6 5.2 31.5 5.3 31.5 5.4 31.5 5.4 31.4 5.5 31.4 5.6 31.1 6 31 6.5 31 7L30.8 27C30.8 28.7 32.1 30 33.8 30 35.5 30 36.8 28.7 36.8 27L36.9 14.6C52.6 25.5 60.1 40.8 59.1 60.1 58.5 69.6 56.2 78.9 52.2 87.6 51.5 89.1 52.1 90.8 53.6 91.5 55 92.2 56.8 91.7 57.6 90.2 61.9 80.9 64.5 70.8 65.1 60.5 65.9 45.8 62.3 25.2 40.8 10.1Z" stroke="#FF0000" fill="#FF0000"/></svg>