<?xml version="1.0" encoding="UTF-8" standalone="no"?><svg xmlns="http://www.w3.org/2000/svg" xmlns:xlink="http://www.w3.org/1999/xlink" contentScriptType="text/ecmascript" fill="#000000" width="336.6" zoomAndPan="magnify" contentStyleType="text/css" viewBox="91.2 -0.4 336.6 513.4" height="513.4" preserveAspectRatio="xMidYMid meet" version="1"><g><g id="change1_4"><path fill="#ffa33e" d="M404.791,174.093c-8.376,13.644-20.472,25.103-34.135,34.307c-24.545,16.525-53.443,26.532-81.928,35.559 c-28.412,9.019-52.658,24.027-64.727,50.563c-3.318,7.313-4.861,18.633-3.354,28.604l-38.79-2.831 c-11.699-22.19-6.189-51.742,12.156-68.969c27.549-25.672,77.005-30.055,94.541-66.993c13.773-28.801,7.512-61.983-27.55-68.869 c-32.671-6.41-76.757,30.103-68.429,64.5l-86.78,19.019c-1.114-3.081-2.178-6.146-3.28-9.153 c-4.736-13.01-7.514-26.545-7.838-40.282c-1.064-45.307,22.4-96.082,61.193-124.468c16.966-12.409,37.191-19.318,58.415-22.413 c12.132-1.764,24.428-2.405,36.703-2.59c28.71-0.466,52.729,0.898,79.297,12.058c23.629,9.929,44.591,25.308,60.046,44.629 C416.963,90.057,427.817,136.59,404.791,174.093z"/></g><g><g><g id="change1_2"><path fill="#ffa33e" d="M293.559,406.278c0,36.482-38.958,66.052-87.022,66.052C91.22,469.083,91.24,343.467,206.537,340.227 C254.599,340.227,293.559,369.802,293.559,406.278z"/></g><g><g id="change2_10"><path fill="#002c54" d="M237.324,443.593c3.32-11.714,21.541-18.419,27.191-5.049c0.211,0.502,0.58-0.01,0.519-0.354 c-2.859-17.027-27.349-9.243-28.384,4.993C236.624,443.59,237.131,444.263,237.324,443.593L237.324,443.593z"/></g><g><g id="change3_1"><path fill="#ffffff" d="M156.446,390.943l39.652,16.9c0,0-4.241,20.821-23.371,17.534 C146.014,420.785,156.446,390.943,156.446,390.943z"/></g><g id="change2_5"><path fill="#002c54" d="M163.57,400.741c-0.165,11.585-8.563,11.589-8.726,0C155.009,389.146,163.404,389.152,163.57,400.741z"/></g></g><g><g id="change3_2"><path fill="#ffffff" d="M243.388,399.966c3.944,15.35-2.837,30.355-15.148,33.522c-12.308,3.162-25.487-6.713-29.434-22.068 c-3.944-15.345,2.837-30.354,15.145-33.514C226.26,374.739,239.44,384.616,243.388,399.966z"/></g><g id="change2_6"><path fill="#002c54" d="M206.471,399.715c-0.163,11.592-8.564,11.593-8.723,0C197.908,388.13,206.308,388.131,206.471,399.715z"/></g></g><g id="change2_11"><path fill="#002c54" d="M182.472,398.348c-17.78,0-29.355-12.127-33.57-20.145l11.066-5.86 c1.081,2.005,11.223,19.331,33.456,11.448l4.184,11.801C192.157,397.522,187.099,398.348,182.472,398.348z"/></g><g id="change2_12"><path fill="#002c54" d="M201.609,378.744l-12.187-2.862c0.162-0.702,4.203-17.255,18.518-23.549 c9.757-4.294,21.377-2.722,34.527,4.659l-6.129,10.92c-9.538-5.354-17.392-6.738-23.355-4.118 C204.458,367.542,201.632,378.635,201.609,378.744z"/></g></g></g><g><g id="change1_3"><path fill="#ffa33e" d="M177.571,469.575c0,0-19.741-4.217-18.287-8.219c1.447-3.999,12.756-3.972,19.377,5.22 c0,0,28.441-8.538,31.955-3.872c3.511,4.671-18.142,5.715-18.142,5.715s17.216,28.651-10.418,17.493 c0,0-4.61,17.931,3.047,21.479c7.66,3.55,21.434-36.936,21.434-36.936h3.339c0,0-9.264,40.479-24.773,41.525 C169.595,513.031,177.571,469.575,177.571,469.575z"/></g><g id="change2_1"><path fill="#002c54" d="M192.276,489.354c-2.664,0-6.162-0.884-10.54-2.654l0.64-1.575c7.126,2.881,11.839,3.297,13.622,1.207 c3.006-3.521-2.049-13.806-4.253-17.473l-0.733-1.218l1.421-0.068c6.769-0.324,16.731-1.696,17.676-3.709 c0.04-0.086,0.119-0.253-0.171-0.644c-2.299-3.055-20.253,0.939-31.031,4.171l-0.581,0.175l-0.352-0.489 c-4.208-5.832-10.509-7.876-14.591-7.313c-1.726,0.237-2.956,0.943-3.301,1.883c-0.036,0.094-0.048,0.221,0.074,0.446 c1.323,2.39,11.496,5.353,17.592,6.654l-0.352,1.661c-1.695-0.359-16.595-3.646-18.73-7.49c-0.336-0.608-0.4-1.248-0.181-1.851 c0.571-1.567,2.266-2.66,4.663-2.99c4.61-0.628,11.216,1.452,15.845,7.517c5.932-1.758,28.751-8.122,32.302-3.395 c0.75,0.993,0.609,1.845,0.357,2.384c-1.528,3.255-13.134,4.313-17.749,4.61c2.037,3.669,7.126,13.868,3.392,18.248 C196.205,488.712,194.539,489.354,192.276,489.354z"/></g><g id="change2_7"><path fill="#002c54" d="M177.894 477.189H197.207V478.891H177.894z" transform="scale(-1) rotate(-85.101 -520.793 204.323)"/></g><g id="change2_8"><path fill="#002c54" d="M187.877 473.702H195.525V475.404H187.877z" transform="rotate(178.597 191.69 474.562)"/></g><g id="change2_9"><path fill="#002c54" d="M191.728 476.535H193.429V487.533H191.728z" transform="scale(-1) rotate(-70.396 -683.409 273.02)"/></g></g><g><g id="change1_1"><path fill="#ffa33e" d="M283.333,431.918c0,0,26.701,12.025,29.374,17.51c2.671,5.485-38.538-1.221-38.538-1.221 s-10.366,5.471-6.755,18.157c3.602,12.688,25.98,11.053,25.98,11.053l3.08-10.673l-14.42-1.446c0,0,5.846-0.95,2.141-8.179 c0,0,27.935,2.394,33.359-3.501c7.936-8.624-32.133-23.939-32.133-23.939L283.333,431.918z"/></g><g id="change2_2"><path fill="#002c54" d="M293.605,476.305l-18.648-7.982l1.909-0.781c6.278-2.567,7.879-4.965,8.112-6.525 c0.282-1.886-1.313-3.217-1.326-3.229l1.093-1.335c0.095,0.08,2.368,1.976,1.942,4.821c-0.391,2.578-2.85,4.947-7.322,7.059 l14.919,6.388L293.605,476.305z"/></g><g id="change2_3"><path fill="#002c54" d="M287.541 462.542H289.268V476.796H287.541z" transform="rotate(117.956 288.407 469.667)"/></g><g id="change2_4"><path fill="#002c54" d="M291.257 463.93H292.982V471.708H291.257z" transform="rotate(112.749 292.127 467.808)"/></g></g></g></g></svg>