<?xml version="1.0" encoding="UTF-8"?><svg xmlns="http://www.w3.org/2000/svg" xmlns:xlink="http://www.w3.org/1999/xlink" contentScriptType="text/ecmascript" fill="#000000" width="500" zoomAndPan="magnify" contentStyleType="text/css" viewBox="0.0 0.0 500.0 115.4" height="115.4" preserveAspectRatio="xMidYMid meet" version="1"><defs><clipPath id="a"><path d="M 0 0 L 500 0 L 500 115.429688 L 0 115.429688 Z M 0 0"/></clipPath></defs><g><g id="change1_1" clip-path="url(#a)"><path fill="#8cc63f" d="M 0 115.429688 C 2.488281 111.6875 5.332031 108.269531 8.582031 105.222656 C 8.835938 104.980469 9.085938 104.730469 9.359375 104.507812 C 9.8125 104.132812 9.863281 103.699219 9.703125 103.136719 C 9.449219 102.25 9.261719 101.34375 9.082031 100.4375 C 9.011719 100.089844 9.015625 99.722656 9.019531 99.363281 C 9.019531 99.222656 9.113281 99.085938 9.214844 98.816406 C 10.449219 99.703125 10.855469 101.253906 11.921875 102.15625 C 13.09375 101.65625 13.121094 101.601562 13.019531 100.503906 C 12.84375 98.710938 12.683594 96.917969 12.523438 95.125 C 12.5 94.835938 12.519531 94.542969 12.519531 93.984375 C 13.296875 94.859375 13.273438 95.894531 13.8125 96.53125 C 14.289062 96.5 14.164062 96 14.441406 95.867188 C 15.0625 96.0625 15.03125 96.953125 15.671875 97.101562 C 15.984375 97.019531 16.027344 96.753906 16.023438 96.5 C 16.011719 95.78125 15.980469 95.058594 15.941406 94.339844 C 15.777344 91.253906 15.65625 88.164062 15.789062 85.074219 C 15.824219 84.21875 15.945312 83.378906 16.226562 82.460938 C 16.722656 82.875 16.746094 83.34375 16.863281 83.769531 C 17.5 86.109375 18.34375 88.355469 19.605469 90.414062 C 20.027344 91.097656 20.457031 91.78125 21.230469 92.453125 C 21.332031 91.210938 21.042969 90.179688 21.078125 89.144531 C 21.113281 88.070312 21.132812 86.996094 21.167969 85.652344 C 21.765625 86.242188 21.816406 86.800781 21.972656 87.300781 C 22.160156 87.886719 22.332031 88.480469 22.558594 89.050781 C 22.761719 89.558594 22.855469 90.140625 23.46875 90.613281 C 23.660156 89.507812 23.792969 88.507812 24.015625 87.53125 C 24.347656 86.089844 24.582031 85.648438 25.328125 84.734375 C 26.007812 86.40625 25.621094 88.480469 27.132812 89.78125 C 27.359375 89.480469 27.292969 89.226562 27.246094 88.972656 C 26.832031 86.644531 26.296875 84.34375 25.554688 82.097656 C 25.398438 81.625 25.136719 81.160156 25.386719 80.429688 C 26.296875 81.738281 27.03125 83.003906 27.808594 84.234375 C 28.59375 85.46875 29.328125 86.738281 30.054688 87.949219 C 30.570312 87.875 30.582031 87.535156 30.589844 87.238281 C 30.613281 86.363281 30.609375 85.488281 30.617188 84.613281 C 30.621094 84.269531 30.542969 83.910156 30.828125 83.480469 C 31.773438 84.351562 31.785156 85.769531 32.75 86.652344 C 33.558594 84.976562 33.476562 83.039062 34.617188 81.59375 C 35.1875 82.332031 35.179688 82.332031 35.273438 83.722656 C 35.320312 84.433594 35.3125 85.15625 35.683594 85.960938 C 36.410156 84.96875 36.703125 83.875 37.277344 82.953125 C 37.835938 82.050781 38.328125 81.097656 39.128906 80.300781 C 39.59375 80.6875 39.386719 81.183594 39.441406 81.601562 C 39.507812 82.132812 39.378906 82.726562 40.015625 83.28125 C 40.097656 81.136719 39.800781 79.207031 39.492188 77.292969 C 39.183594 75.382812 38.71875 73.503906 38.324219 71.617188 C 38.871094 71.453125 38.949219 71.835938 39.054688 72.070312 C 39.59375 73.226562 40.117188 74.394531 40.613281 75.574219 C 41.304688 77.226562 41.96875 78.890625 42.648438 80.546875 C 42.78125 80.875 42.859375 81.238281 43.238281 81.507812 C 43.671875 80.839844 43.421875 80.121094 43.429688 79.4375 C 43.4375 78.773438 43.429688 78.109375 43.429688 77.449219 C 43.890625 77.328125 43.9375 77.730469 44.046875 77.964844 C 44.5 78.9375 44.910156 79.929688 45.359375 80.90625 C 45.5 81.210938 45.546875 81.609375 46.039062 81.757812 C 46.75 80.503906 46.445312 78.964844 47.007812 77.5625 C 47.839844 77.925781 47.933594 78.75 48.273438 79.375 C 48.605469 79.992188 48.746094 80.71875 49.316406 81.382812 C 50.476562 79.832031 50.726562 77.738281 52.269531 76.484375 C 53.003906 77.261719 52.457031 78.035156 52.492188 78.753906 C 52.527344 79.511719 52.371094 80.285156 52.671875 81.066406 C 53.234375 80.996094 53.246094 80.496094 53.382812 80.171875 C 54.394531 77.722656 55.863281 75.605469 57.671875 73.738281 C 57.898438 73.507812 58.070312 73.128906 58.601562 73.253906 C 58.515625 73.972656 58.078125 74.554688 57.882812 75.21875 C 57.6875 75.890625 57.394531 76.550781 57.515625 77.617188 C 58.902344 75.234375 60.199219 73.144531 62.0625 71.5 C 61.792969 72.855469 61.113281 74.085938 61.140625 75.492188 C 61.140625 75.5625 61.238281 75.636719 61.347656 75.789062 C 62.074219 74.5 62.429688 73.136719 62.660156 71.71875 C 63.0625 69.214844 63.007812 66.6875 62.984375 64.164062 C 62.964844 62 62.898438 59.839844 62.871094 57.675781 C 62.859375 57.066406 62.90625 56.457031 62.921875 55.875 C 63.375 55.777344 63.433594 56.0625 63.515625 56.289062 C 63.6875 56.773438 63.886719 57.25 63.992188 57.75 C 64.503906 60.164062 65.046875 62.566406 65.304688 65.03125 C 65.484375 66.730469 65.476562 68.421875 65.382812 70.121094 C 65.355469 70.621094 65.378906 71.121094 65.378906 71.855469 C 66.199219 70.636719 65.957031 69.292969 66.519531 68.039062 C 67.539062 69.699219 67.589844 71.550781 68.335938 73.359375 C 69.277344 71.265625 69.132812 69.171875 69.523438 67.226562 C 69.949219 67.074219 70.121094 67.351562 70.292969 67.59375 C 70.800781 68.296875 71.132812 69.105469 71.519531 69.882812 C 71.761719 70.371094 71.882812 70.953125 72.332031 71.296875 C 72.707031 71.269531 72.707031 70.980469 72.746094 70.738281 C 72.9375 69.621094 73.214844 68.523438 73.707031 67.503906 C 73.871094 67.160156 74 66.714844 74.605469 66.71875 C 74.867188 67.558594 74.515625 68.421875 74.632812 69.261719 C 74.75 70.101562 74.792969 70.949219 75.4375 71.910156 C 75.847656 70.417969 75.863281 69.121094 76.359375 67.957031 C 76.863281 66.78125 77.355469 65.597656 78.015625 64.503906 C 78.664062 63.425781 79.304688 62.332031 80.296875 61.472656 C 80.730469 61.914062 80.4375 62.308594 80.335938 62.648438 C 79.917969 63.980469 79.644531 65.332031 79.671875 66.738281 C 79.679688 67.25 79.660156 67.761719 79.933594 68.484375 C 80.484375 67.054688 80.925781 65.796875 81.449219 64.582031 C 81.972656 63.355469 82.636719 62.199219 83.398438 61.121094 C 84.160156 60.042969 84.675781 58.742188 86.070312 57.71875 C 85.414062 60.0625 84.886719 62.097656 85.824219 64.128906 C 86.289062 64.144531 86.324219 63.808594 86.410156 63.523438 C 86.988281 61.660156 87.5625 59.796875 88.140625 57.9375 C 88.214844 57.699219 88.234375 57.429688 88.527344 57.226562 C 89.265625 58.855469 89.421875 60.796875 90.824219 62.042969 C 91.203125 61.882812 91.09375 61.609375 91.082031 61.375 C 91.070312 61.125 90.9375 60.875 91.09375 60.601562 C 91.328125 60.277344 91.628906 60.695312 91.984375 60.523438 C 92.261719 59.722656 91.78125 59 91.582031 58.242188 C 91.390625 57.515625 91.007812 56.84375 90.839844 55.925781 C 92.21875 56.09375 93.195312 56.941406 94.359375 57.375 C 94.160156 56.046875 94.058594 55.917969 90.570312 52.554688 C 90.898438 52.269531 91.203125 52.421875 91.5 52.5625 C 92.355469 52.976562 93.054688 53.648438 93.785156 54.207031 C 94.359375 53.980469 93.757812 53.386719 94.25 53.113281 C 95.160156 53.261719 95.832031 54.160156 96.839844 54.40625 C 96.414062 53.21875 95.203125 51.691406 93.539062 50.078125 C 92.277344 48.855469 90.761719 48.007812 89.363281 46.972656 C 90.933594 47.300781 92.277344 48.152344 93.621094 48.964844 C 94.960938 49.769531 96.242188 50.6875 97.613281 51.476562 C 96.996094 49.75 95.609375 48.621094 94.46875 47.007812 C 95.394531 47.039062 95.863281 47.5 96.386719 47.820312 C 96.9375 48.160156 97.476562 48.53125 98.042969 48.847656 C 98.585938 49.152344 99.078125 49.613281 99.765625 49.675781 C 99.5 48.167969 98.984375 47.464844 95.746094 44.125 C 96.050781 43.867188 96.296875 44.09375 96.523438 44.25 C 97.753906 45.109375 99.023438 45.914062 100.042969 47.066406 C 100.257812 47.3125 100.441406 47.675781 100.875 47.617188 C 101.117188 47.121094 100.84375 46.714844 100.660156 46.3125 C 100.011719 44.902344 99.132812 43.65625 98.019531 42.613281 C 96.664062 41.335938 95.261719 40.113281 93.882812 38.859375 C 93.507812 38.523438 93.144531 38.175781 92.792969 37.816406 C 92.617188 37.632812 92.480469 37.410156 92.644531 37.136719 C 92.820312 36.96875 93.003906 37.039062 93.191406 37.113281 C 94.121094 37.484375 94.984375 37.988281 95.792969 38.578125 C 98.664062 40.667969 101.117188 43.175781 102.914062 46.335938 C 103.261719 46.945312 103.515625 47.632812 104.074219 48.078125 C 104.667969 48.066406 104.976562 47.613281 105.347656 47.300781 C 107.585938 45.425781 109.925781 43.703125 112.378906 42.144531 C 115.992188 39.855469 119.828125 38.125 123.921875 36.984375 C 128.027344 35.835938 132.152344 34.769531 136.320312 33.886719 C 137.472656 33.640625 138.644531 33.4375 139.796875 32.84375 C 139.628906 31.878906 139.398438 30.941406 139.3125 29.988281 C 139.230469 29.074219 139.292969 28.144531 139.292969 27.214844 C 139.714844 27.210938 139.640625 27.539062 139.683594 27.753906 C 139.957031 29.1875 140.519531 30.5 141.253906 31.734375 C 141.632812 32.371094 142.234375 32.457031 142.761719 32.039062 C 143.078125 31.785156 143.082031 31.421875 143.121094 31.066406 C 143.316406 29.324219 143.609375 27.601562 143.984375 25.894531 C 144.34375 24.257812 144.757812 22.632812 145.367188 21.066406 C 145.242188 23.210938 145.148438 25.339844 145.371094 27.464844 C 145.839844 27.472656 145.757812 27.050781 146.105469 26.917969 C 146.421875 27.066406 146.328125 27.632812 146.792969 27.882812 C 147.128906 25.753906 147.257812 23.660156 147.433594 21.550781 C 148.425781 23.386719 148.566406 25.441406 148.996094 27.59375 C 149.574219 26.992188 149.375 26.25 149.730469 25.671875 C 150.472656 25.933594 150.273438 26.933594 150.886719 27.304688 C 151.011719 27.164062 151.140625 27.019531 151.277344 26.863281 C 151.828125 26.863281 151.667969 27.660156 152.15625 27.730469 C 152.644531 26.765625 152.765625 25.460938 152.683594 23.390625 C 152.621094 21.914062 152.273438 20.488281 152.132812 19.015625 C 153.320312 21.230469 154.007812 23.613281 154.382812 26.199219 C 154.917969 25.894531 154.652344 25.230469 155.0625 24.871094 C 155.652344 25.398438 155.253906 26.386719 155.96875 26.933594 C 156.453125 25.707031 156.511719 24.339844 157.296875 23.089844 C 157.734375 23.980469 157.359375 24.894531 157.664062 25.691406 C 158.335938 25.535156 158.101562 24.78125 158.488281 24.476562 C 158.476562 25.320312 157.90625 26.105469 158.199219 27.027344 C 158.769531 27.121094 159.195312 26.945312 159.648438 26.507812 C 159.6875 25.28125 159.757812 23.984375 159.621094 22.648438 C 159.007812 22.792969 159.058594 23.402344 158.734375 23.679688 C 159.105469 22.28125 159.242188 21.988281 160.007812 21.097656 C 160.261719 21.5625 160.109375 22.007812 160.03125 22.433594 C 159.820312 23.558594 159.878906 24.6875 159.921875 25.820312 C 159.929688 26.085938 160.03125 26.339844 160.320312 26.382812 C 160.578125 26.421875 160.828125 26.308594 160.964844 26.082031 C 161.144531 25.777344 161.28125 25.445312 161.410156 25.113281 C 162.609375 22.019531 164.402344 19.320312 166.476562 16.808594 C 166.632812 16.621094 166.78125 16.398438 167.171875 16.414062 C 167.324219 17.273438 166.710938 17.902344 166.515625 18.644531 C 166.320312 19.375 165.9375 20.054688 165.949219 20.839844 C 166.40625 20.980469 166.472656 20.378906 166.851562 20.402344 C 167.269531 20.632812 166.8125 21.195312 167.214844 21.472656 C 167.703125 21.304688 167.800781 20.496094 168.503906 20.597656 C 168.765625 20.636719 168.828125 20.269531 168.910156 20.027344 C 169.277344 18.90625 169.632812 17.78125 170.023438 16.671875 C 170.554688 15.167969 171.292969 13.769531 172.113281 12.417969 C 172.238281 12.210938 172.316406 11.945312 172.722656 11.890625 C 172.59375 13.339844 172.007812 14.644531 171.785156 16.027344 C 171.570312 17.382812 171.183594 18.714844 171.253906 20.226562 C 172.078125 19.789062 172 18.675781 172.871094 18.3125 C 173.144531 19.257812 172.78125 20.191406 172.976562 21.042969 C 173.441406 21.195312 173.539062 20.835938 173.675781 20.601562 C 174.269531 19.589844 174.832031 18.5625 175.417969 17.546875 C 176.152344 16.265625 176.878906 14.980469 177.652344 13.722656 C 178.398438 12.507812 179.167969 11.3125 179.660156 9.949219 C 179.761719 9.675781 179.839844 9.351562 180.199219 9.207031 C 180.375 9.351562 180.5625 9.503906 180.753906 9.660156 C 180.699219 9.910156 180.613281 10.15625 180.601562 10.410156 C 180.480469 12.574219 180.171875 14.703125 179.535156 16.777344 C 179.511719 16.863281 179.566406 16.972656 179.582031 17.070312 C 179.753906 17.289062 179.980469 17.347656 180.238281 17.304688 C 180.273438 17.269531 180.328125 17.242188 180.34375 17.199219 C 181.292969 14.839844 181.25 12.394531 180.894531 9.929688 C 180.882812 9.839844 180.785156 9.761719 180.726562 9.679688 C 180.859375 8.914062 180.699219 8.15625 180.605469 7.390625 C 181.097656 7.273438 181.113281 7.699219 181.207031 7.90625 C 181.722656 9.03125 181.898438 10.261719 182.121094 11.46875 C 182.28125 12.324219 182.441406 13.136719 182.929688 13.902344 C 183.296875 14.476562 183.375 15.25 183.574219 15.9375 C 183.683594 16.316406 183.644531 16.765625 184.132812 17.101562 C 184.421875 16.601562 184.316406 16.042969 184.414062 15.539062 C 184.515625 15.003906 184.632812 14.46875 184.777344 13.78125 C 185.394531 14.320312 185.316406 14.914062 185.445312 15.421875 C 185.566406 15.898438 185.605469 16.421875 185.976562 16.796875 C 186.546875 16.640625 186.492188 16.152344 186.558594 15.792969 C 186.824219 14.382812 187.007812 12.953125 187.296875 11.550781 C 187.816406 9.035156 188.4375 6.550781 189.644531 4.273438 C 189.742188 4.097656 189.789062 3.886719 190.105469 3.839844 C 189.402344 6.9375 188.847656 10.035156 188.929688 13.320312 C 189.730469 12.996094 189.519531 12.058594 190.207031 11.734375 C 190.527344 12.332031 190.140625 12.921875 190.179688 13.496094 C 190.21875 14.050781 190.1875 14.609375 190.1875 15.121094 C 190.605469 15.28125 190.730469 15.078125 190.878906 14.859375 C 191.1875 14.402344 191.269531 13.800781 191.703125 13.421875 C 191.761719 13.980469 191.195312 14.402344 191.375 14.992188 C 192.769531 14.929688 192.925781 14.597656 192.34375 12.992188 C 191.972656 12.921875 191.9375 13.375 191.671875 13.464844 C 191.789062 12.757812 192.011719 12.097656 192.429688 11.417969 C 193.039062 12.1875 192.574219 13.199219 193.191406 14.050781 C 194.042969 12.109375 193.605469 10.085938 194.191406 8.257812 C 194.550781 8.226562 194.539062 8.523438 194.574219 8.75 C 194.632812 9.160156 194.636719 9.558594 195.199219 9.613281 C 195.480469 9.640625 195.476562 9.988281 195.496094 10.242188 C 195.515625 10.464844 195.460938 10.65625 195.246094 10.738281 C 195.042969 10.8125 194.863281 10.773438 194.738281 10.566406 C 194.613281 10.363281 194.574219 10.058594 194.238281 10.105469 C 193.910156 11.371094 193.761719 13.457031 193.941406 14.253906 C 195.082031 14.171875 199.027344 13.105469 200.214844 12.546875 C 200.601562 11.488281 199.90625 10.46875 199.996094 9.40625 L 199.976562 9.425781 C 200.453125 9.996094 200.246094 10.820312 200.644531 11.429688 C 201.238281 10.847656 201.238281 10.847656 201.691406 9.5625 C 202.144531 9.4375 201.902344 10.125 202.339844 10.089844 C 202.535156 9.738281 202.75 9.347656 202.96875 8.949219 C 203.636719 9.105469 203.332031 9.90625 203.886719 10.175781 C 204.34375 9.921875 204.40625 9.394531 204.496094 8.914062 C 204.808594 7.300781 205.105469 5.683594 205.386719 4.0625 C 205.601562 2.796875 205.78125 1.523438 205.652344 -0.00390625 C 206.117188 0.753906 206.105469 1.378906 206.117188 1.992188 C 206.132812 2.660156 206.144531 3.332031 206.140625 4 C 206.132812 4.671875 206.113281 5.339844 206.074219 6.007812 C 206.035156 6.667969 205.960938 7.328125 205.894531 8.09375 C 206.480469 7.960938 206.542969 7.523438 206.71875 7.207031 C 208.046875 4.789062 209.980469 3.101562 212.445312 2.066406 C 212.9375 1.859375 213.4375 1.574219 214.015625 1.765625 C 213.964844 2.148438 213.632812 2.171875 213.394531 2.300781 C 212.382812 2.84375 211.410156 3.453125 210.519531 4.199219 C 209.328125 5.199219 208.550781 6.492188 208.0625 7.984375 C 208.019531 8.117188 208.0625 8.285156 208.074219 8.433594 C 208.078125 8.46875 208.128906 8.503906 208.242188 8.628906 C 209.203125 7.351562 210.203125 6.105469 211.851562 5.679688 C 211.527344 6.109375 211.1875 6.523438 210.882812 6.96875 C 210.570312 7.417969 210.257812 7.875 210.117188 8.582031 C 210.6875 8.570312 210.941406 8.144531 211.289062 7.933594 C 211.660156 7.710938 211.988281 7.394531 212.46875 7.386719 C 212.652344 8.027344 211.863281 8.472656 212.21875 9.21875 C 213.203125 8.472656 213.515625 7.285156 214.234375 6.25 C 214.746094 6.925781 214.125 7.628906 214.519531 8.257812 C 215.21875 7.789062 215.308594 6.851562 215.886719 6.328125 C 216.261719 6.445312 216.15625 6.722656 216.113281 6.964844 C 216.050781 7.304688 215.929688 7.648438 216.207031 8.015625 C 216.785156 7.664062 216.960938 7.050781 217.222656 6.515625 C 217.515625 5.921875 217.761719 5.300781 218.042969 4.699219 C 218.292969 4.171875 218.414062 3.566406 219.066406 2.835938 C 218.976562 4.101562 218.921875 5.011719 218.851562 5.914062 C 218.785156 6.761719 218.511719 7.609375 218.765625 8.4375 C 219.21875 8.554688 219.398438 8.265625 219.574219 8.039062 C 220.191406 7.234375 220.804688 6.425781 221.386719 5.59375 C 222.414062 4.128906 223.722656 3 225.207031 2.03125 C 224.035156 4.046875 222.78125 6.003906 222.230469 8.316406 C 222.195312 8.457031 222.179688 8.628906 222.425781 8.808594 C 223.308594 8.210938 223.804688 7.042969 224.867188 6.570312 C 225.210938 7.027344 224.617188 7.457031 224.941406 7.949219 C 225.652344 7.777344 225.933594 6.859375 226.773438 6.714844 C 227.164062 7.152344 226.695312 7.789062 226.96875 8.246094 C 227.421875 8.425781 227.496094 8.023438 227.605469 7.792969 C 228.273438 6.394531 228.539062 4.871094 228.820312 3.355469 C 228.988281 2.453125 229.101562 1.542969 229.289062 0.308594 C 229.757812 1.816406 229.363281 3.015625 229.378906 4.199219 C 229.390625 5.429688 228.886719 6.605469 229.042969 8.023438 C 230.191406 7.28125 230.371094 5.871094 231.378906 5.160156 C 231.886719 5.863281 231.09375 6.628906 231.613281 7.253906 C 232.285156 7.0625 232.296875 6.117188 233.078125 5.933594 C 233.378906 6.734375 232.992188 7.625 233.226562 8.421875 C 233.75 8.324219 233.875 7.953125 234.070312 7.679688 C 234.832031 6.621094 235.804688 5.855469 236.96875 5.34375 C 238.984375 4.453125 241.085938 3.980469 243.261719 3.871094 C 243.394531 4.398438 243.039062 4.484375 242.804688 4.613281 C 241.632812 5.277344 240.4375 5.894531 239.273438 6.570312 C 238.757812 6.871094 238.289062 7.257812 237.8125 7.625 C 237.664062 7.738281 237.472656 7.855469 237.507812 8.21875 C 238.609375 8.101562 239.613281 7.367188 240.859375 7.574219 C 240.636719 8.390625 239.726562 8.585938 239.484375 9.445312 C 240.570312 9.414062 241.503906 8.464844 242.648438 8.949219 C 242.535156 9.699219 241.851562 10.125 241.699219 10.820312 C 242.015625 11.273438 242.332031 11.019531 242.59375 10.820312 C 243.675781 10.003906 244.714844 9.132812 245.660156 8.140625 C 245.933594 7.855469 246.222656 7.582031 246.519531 7.285156 C 246.871094 7.570312 246.550781 7.855469 246.46875 8.066406 C 246.09375 9.023438 245.523438 9.867188 244.960938 10.71875 C 244.746094 11.039062 244.378906 11.296875 244.433594 11.832031 C 244.945312 12.167969 245.355469 11.863281 245.742188 11.5625 C 246.859375 10.699219 247.855469 9.699219 248.734375 8.578125 C 248.917969 8.34375 249.003906 8.015625 249.449219 7.855469 C 249.246094 9.125 248.46875 10.082031 248.058594 11.394531 C 249.589844 10.941406 250.710938 9.828125 252.328125 9.570312 C 251.398438 10.738281 250.246094 11.425781 249.625 12.605469 C 249.957031 12.910156 250.21875 12.671875 250.480469 12.574219 C 251.601562 12.160156 252.710938 11.734375 253.828125 11.324219 C 254.257812 11.167969 254.597656 11.257812 254.773438 11.914062 C 256.300781 11.066406 257.800781 10.234375 259.300781 9.402344 C 257.816406 11.539062 255.710938 12.96875 253.96875 14.820312 C 255.488281 14.757812 256.507812 13.617188 257.910156 12.925781 C 257.851562 14.328125 256.671875 14.839844 256.214844 15.816406 C 256.570312 16.300781 257.019531 16.421875 257.566406 16.457031 C 258.417969 15.40625 258.550781 13.867188 259.816406 12.863281 C 259.769531 14.289062 258.886719 15.390625 259.175781 16.765625 C 260.285156 16.355469 260.75 15.351562 261.34375 14.515625 C 261.917969 13.703125 262.417969 12.832031 263.140625 11.679688 C 262.75 13.519531 261.839844 14.804688 261.722656 16.339844 C 262.199219 16.453125 262.304688 15.863281 262.710938 15.933594 C 263.125 16.550781 262.355469 17.191406 262.71875 17.820312 C 263.402344 17.78125 263.453125 16.871094 264.070312 16.753906 C 264.390625 16.90625 264.28125 17.1875 264.253906 17.421875 C 264.203125 17.828125 264.109375 18.230469 264.066406 18.640625 C 264.039062 18.855469 264.160156 19.035156 264.347656 19.140625 C 264.585938 19.273438 264.832031 19.253906 265.027344 19.0625 C 265.207031 18.886719 265.371094 18.691406 265.511719 18.480469 C 266.160156 17.503906 266.730469 16.480469 267.117188 15.355469 C 267.644531 13.808594 268.230469 12.277344 268.085938 10.566406 C 268.570312 10.589844 268.453125 10.921875 268.460938 11.117188 C 268.558594 13.453125 268.15625 15.734375 267.707031 18.003906 C 267.605469 18.507812 267.476562 19.007812 267.382812 19.511719 C 267.332031 19.785156 267.425781 20.019531 267.679688 20.144531 C 267.925781 20.265625 268.164062 20.238281 268.371094 20.054688 C 268.832031 19.640625 269.082031 19.074219 269.355469 18.527344 C 269.597656 18.035156 269.683594 17.445312 270.097656 17.089844 C 270.503906 17.117188 270.519531 17.398438 270.523438 17.640625 C 270.535156 18.664062 270.527344 19.6875 270.527344 20.679688 C 270.875 20.90625 271.039062 20.6875 271.183594 20.488281 C 271.625 19.882812 272.054688 19.261719 272.472656 18.671875 C 272.894531 18.808594 272.8125 19.089844 272.777344 19.335938 C 272.6875 19.992188 272.582031 20.644531 272.488281 21.257812 C 273.621094 21.925781 273.789062 21.917969 274.316406 20.957031 C 275.460938 18.875 276.222656 16.660156 276.363281 14.246094 C 276.390625 13.839844 276.433594 13.433594 276.472656 13.027344 C 276.476562 12.996094 276.539062 12.96875 276.703125 12.832031 C 277.070312 15.96875 276.605469 18.976562 276.265625 21.953125 C 276.648438 22.117188 276.789062 21.894531 276.945312 21.703125 C 277.429688 21.121094 277.882812 20.5 278.40625 19.960938 C 279.429688 18.90625 280.828125 18.3125 282.371094 18.265625 C 281.648438 19.253906 280.535156 19.785156 280.105469 20.957031 C 280.929688 21.152344 281.609375 20.25 282.441406 20.796875 C 282.351562 21.75 281.296875 22.074219 281.117188 23.101562 C 282.363281 22.867188 283.40625 22.253906 284.585938 21.734375 C 284.585938 22.519531 283.894531 22.984375 283.929688 23.703125 C 284.199219 24.140625 284.523438 23.96875 284.789062 23.726562 C 285.570312 23.011719 286.332031 22.277344 287.089844 21.535156 C 288.167969 20.480469 289.285156 19.457031 290.039062 18.09375 C 290.074219 18.023438 290.207031 18.011719 290.398438 17.925781 C 290.363281 18.976562 289.730469 19.730469 289.40625 20.589844 C 289.066406 21.484375 288.617188 22.335938 288.136719 23.378906 C 289.007812 23.214844 289.253906 22.355469 289.960938 22.152344 C 290.332031 23.078125 289.378906 23.691406 289.570312 24.601562 C 290.101562 24.699219 290.410156 24.210938 290.820312 24.007812 C 291.21875 23.8125 291.558594 23.488281 292.007812 23.429688 C 292.363281 23.566406 292.421875 23.824219 292.351562 24.175781 C 292.273438 24.566406 291.964844 24.90625 292.089844 25.34375 C 292.363281 25.683594 292.714844 25.65625 293.035156 25.511719 C 293.351562 25.367188 293.636719 25.15625 293.921875 24.953125 C 296.492188 23.144531 299.390625 22.105469 302.304688 21.105469 C 302.496094 21.039062 302.679688 21.011719 302.871094 21.292969 C 302.636719 21.90625 302.027344 22.203125 301.585938 22.65625 C 301.128906 23.125 300.652344 23.578125 300.238281 24.089844 C 299.839844 24.585938 299.375 25.0625 299.191406 25.863281 C 299.949219 25.820312 300.425781 25.3125 301.003906 25.097656 C 301.558594 24.894531 302.09375 24.628906 302.785156 24.324219 C 302.730469 25.367188 301.871094 25.953125 301.730469 26.96875 C 302.542969 26.785156 303.058594 26.296875 303.632812 25.953125 C 304.230469 25.601562 304.796875 25.191406 305.488281 24.730469 C 305.597656 25.691406 304.730469 26.394531 305.109375 27.339844 C 306.519531 26.960938 307.609375 25.972656 308.90625 25.1875 C 309.148438 26.195312 308.128906 26.921875 308.671875 27.800781 C 309.042969 28.109375 309.507812 28.035156 309.941406 28.070312 C 313.441406 28.351562 316.953125 28.472656 320.4375 28.9375 C 325.988281 29.679688 331.578125 29.78125 337.15625 30.074219 C 337.5 30.089844 337.847656 30.125 338.320312 29.890625 C 338.710938 28.753906 339.117188 27.496094 339.578125 26.257812 C 340.019531 25.089844 340.253906 23.839844 340.878906 22.726562 C 341.191406 23.890625 340.65625 25.042969 340.945312 26.164062 C 341.292969 26.53125 341.355469 25.722656 341.769531 26.078125 C 341.585938 27.125 342.402344 27.898438 342.703125 29.121094 C 343.617188 27.824219 344.148438 26.523438 344.832031 25.328125 C 345.539062 24.082031 346.398438 22.953125 347.191406 21.769531 C 347.96875 20.617188 348.480469 19.238281 349.703125 18.425781 C 350.0625 18.882812 349.746094 19.164062 349.597656 19.449219 C 348.738281 21.074219 347.855469 22.683594 347.007812 24.3125 C 346.492188 25.300781 346.042969 26.324219 345.722656 27.558594 C 346.75 27.214844 346.976562 26.0625 347.804688 25.660156 C 348.171875 26.242188 347.777344 26.621094 347.640625 27.023438 C 347.515625 27.40625 347.289062 27.757812 347.359375 28.273438 C 348.09375 28.269531 348.074219 27.148438 348.804688 27.207031 C 349.046875 27.667969 348.84375 28.097656 348.71875 28.535156 C 348.605469 28.925781 348.515625 29.316406 348.664062 29.898438 C 349.324219 29.269531 349.535156 28.40625 350.289062 27.898438 C 350.691406 28.683594 350.207031 29.582031 350.710938 30.347656 C 351.605469 29.980469 351.671875 28.789062 352.511719 28.414062 C 353.289062 29.039062 352.734375 30.269531 353.535156 30.855469 C 354.320312 30.613281 354.363281 29.667969 354.992188 29.347656 C 355.417969 29.414062 355.363281 29.777344 355.394531 30.054688 C 355.453125 30.621094 355.484375 31.1875 355.910156 31.628906 C 356.5 31.691406 356.640625 31.183594 356.820312 30.792969 C 357.691406 28.886719 358.554688 26.976562 359.386719 25.054688 C 359.855469 23.976562 360.246094 22.863281 360.703125 21.78125 C 360.832031 21.480469 360.886719 21.054688 361.367188 21.042969 C 361.789062 21.449219 361.640625 21.996094 361.625 22.484375 C 361.5625 24.34375 361.257812 26.171875 360.921875 27.992188 C 360.730469 29.042969 360.523438 30.089844 360.265625 31.4375 C 361.386719 30.453125 361.824219 29.277344 362.648438 28.4375 C 363.460938 27.605469 364.289062 26.800781 365.191406 26.070312 C 366.113281 25.328125 367.050781 24.609375 368.308594 24.34375 C 367.609375 25.375 366.890625 26.386719 366.21875 27.433594 C 365.535156 28.492188 364.824219 29.535156 364.265625 30.902344 C 365.023438 30.800781 365.433594 30.328125 365.929688 30.085938 C 366.511719 29.796875 367.078125 29.484375 367.660156 29.207031 C 368.1875 28.960938 368.710938 28.699219 369.59375 28.640625 C 368.351562 29.984375 366.953125 30.8125 366.066406 32.488281 C 367.457031 32.0625 368.492188 31.328125 369.777344 31.136719 C 370.011719 32.046875 369.089844 32.621094 369.226562 33.53125 C 370.070312 33.34375 370.621094 32.484375 371.527344 32.535156 C 371.996094 33.128906 371.355469 33.738281 371.585938 34.328125 C 371.953125 34.535156 372.097656 34.183594 372.257812 33.972656 C 373.609375 32.199219 375.015625 30.464844 375.96875 28.402344 C 376.261719 27.773438 376.519531 27.082031 377.226562 26.625 C 377.617188 27.203125 377.398438 27.738281 377.242188 28.238281 C 376.761719 29.808594 376.242188 31.363281 375.75 32.929688 C 375.597656 33.40625 375.367188 33.867188 375.390625 34.503906 C 376.207031 34.371094 376.398438 33.464844 377.078125 33.265625 C 377.496094 33.542969 377.160156 33.902344 377.148438 34.214844 C 377.132812 34.515625 376.992188 34.824219 377.28125 35.117188 C 377.886719 34.996094 378.273438 34.277344 378.933594 34.3125 C 379.226562 34.640625 379.070312 34.941406 379.007812 35.230469 C 378.9375 35.535156 378.914062 35.832031 379.058594 36.210938 C 379.933594 36.167969 380.363281 35.339844 381.058594 35.035156 C 381.726562 34.746094 382.332031 34.28125 383.046875 34.230469 C 383.414062 34.644531 383.023438 34.84375 382.921875 35.089844 C 382.824219 35.320312 382.664062 35.523438 382.726562 35.851562 C 383.140625 36.054688 383.445312 35.722656 383.769531 35.550781 C 385.445312 34.660156 387.160156 33.882812 389.007812 33.4375 C 391.089844 32.929688 393.214844 32.859375 395.332031 32.722656 C 395.53125 32.710938 395.730469 32.746094 395.84375 32.972656 C 395.792969 33.359375 395.46875 33.355469 395.199219 33.429688 C 393.574219 33.890625 392.003906 34.5 390.539062 35.382812 C 390.089844 35.65625 389.589844 35.894531 389.261719 36.566406 C 390.535156 36.429688 391.640625 35.8125 393.035156 36.160156 C 392.367188 36.664062 391.8125 37.046875 391.304688 37.484375 C 390.78125 37.9375 390.230469 38.390625 390.019531 39.257812 C 391.6875 39.316406 393.238281 38.582031 394.871094 38.855469 C 394.992188 39.410156 394.511719 39.53125 394.285156 39.816406 C 394.070312 40.085938 393.738281 40.269531 393.710938 40.808594 C 394.625 41.222656 395.605469 40.429688 396.515625 40.851562 C 396.839844 41.195312 396.179688 41.476562 396.53125 41.910156 C 398.175781 41.375 399.53125 40.152344 401.3125 39.242188 C 400.84375 40.730469 400.074219 41.738281 399.464844 42.957031 C 400.191406 43.039062 400.640625 42.5625 401.164062 42.371094 C 401.769531 42.148438 402.355469 41.851562 402.972656 41.671875 C 403.53125 41.507812 404.074219 41.210938 404.839844 41.308594 C 403.945312 42.269531 403.011719 43.0625 402.175781 44.058594 C 402.738281 44.550781 403.347656 44.128906 403.855469 44.480469 C 403.957031 45.136719 403.105469 45.375 403.144531 46.113281 C 404.015625 46.359375 404.835938 45.886719 405.683594 45.816406 C 406.554688 45.746094 407.414062 45.554688 408.464844 45.382812 C 408.011719 46.542969 406.828125 46.824219 406.539062 47.9375 C 407.511719 48.140625 408.417969 47.757812 409.335938 47.804688 C 410.273438 47.851562 411.210938 47.871094 412.144531 48.015625 C 413.054688 48.15625 414.011719 47.976562 414.871094 48.34375 C 414.917969 48.777344 414.671875 48.847656 414.445312 48.933594 C 413.609375 49.25 412.765625 49.546875 411.9375 49.886719 C 411.398438 50.113281 410.8125 50.269531 410.394531 50.710938 C 410.351562 51.105469 410.617188 51.140625 410.84375 51.222656 C 411.6875 51.527344 412.503906 51.894531 413.222656 52.457031 C 413.5 52.671875 413.882812 52.875 413.980469 53.167969 C 414.285156 54.0625 415.039062 54.347656 415.710938 54.757812 C 423.695312 59.613281 431.769531 64.308594 439.632812 69.386719 C 442.066406 70.960938 444.449219 72.625 446.785156 74.363281 C 453.589844 79.417969 460.390625 84.472656 466.992188 89.816406 C 470.117188 92.347656 473.386719 94.671875 476.738281 96.863281 C 478.875 98.257812 480.996094 99.679688 483.019531 101.246094 C 484.957031 102.742188 486.628906 104.464844 487.496094 106.878906 C 487.6875 107.410156 488.0625 107.6875 488.546875 107.882812 C 489.421875 108.238281 490.289062 108.613281 491.152344 108.992188 C 491.558594 109.167969 491.953125 109.375 492.640625 109.707031 C 491.933594 109.757812 491.503906 109.371094 491.105469 109.695312 C 491.371094 110.226562 491.882812 110.351562 492.300781 110.597656 C 494.492188 111.894531 496.699219 113.167969 498.886719 114.472656 C 499.304688 114.71875 499.816406 114.875 500 115.429688 C 333.332031 115.429688 166.667969 115.429688 0 115.429688"/></g><g id="change1_2"><path fill="#8cc63f" d="M 199.996094 9.40625 C 199.597656 8.742188 199.5625 7.949219 199.308594 7.234375 C 199.054688 6.523438 198.9375 5.746094 198.492188 5.140625 C 198.15625 5.136719 198.203125 5.398438 198.128906 5.566406 C 198.09375 5.582031 198.027344 5.609375 198.023438 5.605469 C 197.914062 5.367188 198.074219 4.683594 198.382812 4.085938 C 199.191406 5.433594 199.890625 7.773438 199.976562 9.425781 L 199.996094 9.40625"/></g></g></svg>