<?xml version="1.0" encoding="UTF-8"?><svg xmlns="http://www.w3.org/2000/svg" xmlns:xlink="http://www.w3.org/1999/xlink" contentScriptType="text/ecmascript" fill="#000000" width="221.3" zoomAndPan="magnify" contentStyleType="text/css" viewBox="102.0 99.2 221.3 226.8" height="226.8" preserveAspectRatio="xMidYMid meet" version="1.1">
 <g id="surface1">
  <g id="change1_1"><path fill="#bc66b9" d="m234.41 156c0 31.36-20.78 56.79-20.78 56.79s-20.78-25.43-20.78-56.79 20.78-56.785 20.78-56.785 20.78 25.425 20.78 56.785"/></g>
  <g id="change1_2"><path fill="#bc66b9" d="m263.27 178.25c-18.03 25.67-49.64 34.54-49.64 34.54s-2.4-32.75 15.62-58.42 49.63-34.54 49.63-34.54 2.4 32.75-15.61 58.42"/></g>
  <g id="change1_3"><path fill="#bc66b9" d="m274.1 213.04c-29.5 10.65-60.47-0.25-60.47-0.25s16.85-28.18 46.35-38.84c29.49-10.66 60.47 0.25 60.47 0.25s-16.86 28.18-46.35 38.84"/></g>
  <g id="change1_4"><path fill="#bc66b9" d="m262.98 247.73c-30.27-8.22-49.35-34.94-49.35-34.94s29.98-13.39 60.25-5.16c30.26 8.23 49.35 34.94 49.35 34.94s-29.99 13.39-60.25 5.16"/></g>
  <g id="change1_5"><path fill="#bc66b9" d="m233.94 269.75c-20.05-24.13-20.31-56.96-20.31-56.96s32.23 6.27 52.28 30.39c20.04 24.12 20.3 56.96 20.3 56.96s-32.23-6.27-52.27-30.39"/></g>
  <g id="change1_6"><path fill="#bc66b9" d="m192.92 271.07c-2.55-31.26 16.1-58.28 16.1-58.28s22.78 23.65 25.32 54.91c2.55 31.26-16.1 58.28-16.1 58.28s-22.78-23.65-25.32-54.91"/></g>
  <g id="change1_7"><path fill="#bc66b9" d="m166.96 245.95c15.88-27.06 46.67-38.46 46.67-38.46s5.05 32.44-10.83 59.49c-15.87 27.05-46.66 38.46-46.66 38.46s-5.05-32.45 10.82-59.49"/></g>
  <g id="change1_8"><path fill="#bc66b9" d="m153.34 208.77c28.54-13.01 60.29-4.66 60.29-4.66s-14.51 29.46-43.04 42.48c-28.54 13.02-60.29 4.66-60.29 4.66s14.5-29.46 43.04-42.48"/></g>
  <g id="change1_9"><path fill="#bc66b9" d="m161.6 173.06c30.84 5.75 52.03 30.83 52.03 30.83s-28.8 15.78-59.63 10.03c-30.84-5.74-52.03-30.82-52.03-30.82s28.8-15.78 59.63-10.04"/></g>
  <g id="change1_10"><path fill="#bc66b9" d="m188.76 151.77c21.94 22.42 24.87 55.12 24.87 55.12s-32.64-3.63-54.58-26.04c-21.93-22.42-24.86-55.12-24.86-55.12s32.63 3.63 54.57 26.04"/></g>
  <g id="change2_1"><path fill="#f1ef24" d="m234.41 211.27c0 11.47-9.3 20.78-20.78 20.78s-20.78-9.31-20.78-20.78c0-11.48 9.3-20.79 20.78-20.79s20.78 9.31 20.78 20.79"/></g>
 </g>
</svg>