<?xml version="1.0" encoding="UTF-8"?><svg xmlns="http://www.w3.org/2000/svg" xmlns:xlink="http://www.w3.org/1999/xlink" contentScriptType="text/ecmascript" fill="#000000" width="389.1" zoomAndPan="magnify" contentStyleType="text/css" viewBox="-0.4 -8.6 389.1 512.8" height="512.8" preserveAspectRatio="xMidYMid meet" version="1"><g id="Layer_8"><g id="change1_5"><path fill="#ffffff" d="M254.7 352.8L253.8 364.4 267.2 464.2 288.2 464.2 294.2 352.8z"/></g><g id="change1_6"><path fill="#ffffff" d="M131 352.8L131.8 364.4 118.5 464.2 97.5 464.2 91.5 352.8z"/></g><g><g id="change1_3"><path fill="#ffffff" d="M264.6,451.6c0,0,14.2,14.9,23.7,5.2c0,0,10.5,6.2,8.1,22c0,0-48.3,25.4-64,19.1s-14.1-20.2,0.6-25.8 C247.7,466.5,264.6,451.6,264.6,451.6z"/></g></g><g><g id="change1_7"><path fill="#ffffff" d="M120.9,451.6c0,0-14.2,14.9-23.7,5.2c0,0-10.5,6.2-8.1,22c0,0,48.3,25.4,64,19.1s14.1-20.2-0.6-25.8 S120.9,451.6,120.9,451.6z"/></g></g></g><g id="Layer_5"><g><g><g id="change2_79"><path fill="#38455d" d="M289.2,456.8c2-32.7,3.9-65.3,5.9-98c0-0.5-0.4-0.8-0.8-0.8c-14.1-0.3-28.3-0.7-42.4-1 c-0.6,0-0.9,0.5-0.8,1.1c4.4,31.3,8.9,62.6,13.3,93.9c0.2,1.1,1.8,0.6,1.6-0.4c-2.1-14.8-4.2-29.5-6.3-44.3 c-1.5-10.6-3-21.2-4.5-31.8c-0.8-5.6-2.4-11.7-2.5-17.4c0-0.7-1.4,0.6-0.2,0.7c1.3,0.1,2.7,0.1,4.1,0.1 c4.8,0.1,9.6,0.2,14.5,0.3c5.3,0.1,10.7,0.2,16,0.4c1.6,0,3.4,0.3,5,0.1c1.9-0.3,1.8,0.8,1.3-0.8c0.4,1.1-0.2,3.2-0.3,4.3 c-0.2,3.5-0.4,7-0.6,10.5c-0.6,10.3-1.2,20.6-1.8,30.8c-1,17.4-2.1,34.9-3.1,52.3C287.4,457.9,289.1,457.9,289.2,456.8 L289.2,456.8z"/></g></g></g><g><g><g><g id="change2_35"><path fill="#38455d" d="M264,452.2c2.9,3,6.5,5.7,10.4,7.3c2.3,1,4.8,1.6,7.3,1.4c2.5-0.2,3.8-1.8,6-2.4c2.3-0.6-1-1,1.1-0.4 c0.7,0.2,1.5,1.4,2,1.9c2.9,3.1,4.4,7.1,4.9,11.3c0.8,6.2,0.6,6.7-4.3,9.1c-11.4,5.6-23.2,10.8-35.4,14.4 c-6.1,1.8-12.7,3.7-19.1,3.1c-9.4-0.9-19.8-10.8-11.8-19.8c3.5-4,8.9-5.4,13.5-7.7c4.3-2.1,8.5-4.7,12.5-7.5 c4.9-3.3,9.7-7,14.1-10.9c0.8-0.7-0.4-1.9-1.2-1.2c-4.6,4-9.5,7.7-14.6,11.1c-3.8,2.5-7.6,4.9-11.7,6.9 c-3.9,1.9-8.1,3.1-11.5,5.8c-10.4,8.2-4.7,20.7,6.7,24.1c11.1,3.4,25.3-2.7,35.5-6.6c5.9-2.2,11.6-4.7,17.3-7.4 c3-1.4,8.2-2.8,10.6-5.2c3-2.9,0.9-11.2-0.5-14.8c-1.4-3.4-3.9-6.9-7.1-8.9c-0.3-0.2-0.7-0.1-1,0.1c-7.3,6.5-16.8,0.7-22.5-5.2 C264.4,450.3,263.3,451.5,264,452.2z"/></g></g></g></g><g><g><g id="change2_30"><path fill="#38455d" d="M220.8,484.6c9.8,12.2,25.2,11.1,38.4,6.6c13-4.4,25.7-10.2,38-16.4c1-0.5,0.1-1.9-0.8-1.5 c-10.8,5.5-22,10.5-33.4,14.7c-13.8,5.1-30.3,8.6-41-4.7C221.3,482.6,220.1,483.8,220.8,484.6L220.8,484.6z"/></g></g></g><g><g><g id="change2_44"><path fill="#38455d" d="M266.9,377.3c3,3,7.4,5.8,11.8,4.9c1-0.2,0.6-1.7-0.4-1.5c-3.8,0.8-7.7-1.9-10.2-4.5 C267.3,375.5,266.2,376.6,266.9,377.3L266.9,377.3z"/></g></g></g><g><g><g id="change2_54"><path fill="#38455d" d="M290.3,425.2c1.1,0,1.1-1.7,0-1.7C289.2,423.5,289.2,425.2,290.3,425.2L290.3,425.2z"/></g></g></g><g><g><g id="change2_72"><path fill="#38455d" d="M261.2,425.2c1.1,0,1.1-1.7,0-1.7C260.1,423.5,260.1,425.2,261.2,425.2L261.2,425.2z"/></g></g></g><g><g><g id="change2_57"><path fill="#38455d" d="M98,456.8c-0.9-14.6-1.7-29.1-2.6-43.7c-0.7-10.9-1.3-21.7-2-32.6c-0.4-6.3,0.4-14.2-1.2-20.2 c-0.1-0.3-0.2-1.1-0.1-1.4c-0.5,1.5-0.8,0.4,1,0.7c3.7,0.7,8.4-0.2,12.2-0.3c8.9-0.2,18.7,0.7,27.5-0.6c1.4-0.2,0-0.9,0-0.8 c0,0.6-0.2,1.4-0.3,2c-0.7,2.9-0.9,6-1.3,9c-1.4,9.9-2.8,19.8-4.2,29.6c-2.5,17.6-5,35.3-7.5,52.9c-0.2,1.1,1.5,1.5,1.6,0.4 c4.4-31.3,8.9-62.6,13.3-93.9c0.1-0.5-0.2-1.1-0.8-1.1c-14.1,0.3-28.3,0.7-42.4,1c-0.4,0-0.9,0.4-0.8,0.8 c2,32.7,3.9,65.3,5.9,98C96.4,457.9,98.1,457.9,98,456.8L98,456.8z"/></g></g></g><g><g><g><g id="change2_61"><path fill="#38455d" d="M120.3,451c-5.7,5.8-15.3,11.7-22.5,5.2c-0.3-0.2-0.7-0.3-1-0.1c-2.8,1.7-5,4.6-6.5,7.5 c-1.8,3.5-4.4,12.5-1.7,15.9c1.3,1.6,5.4,2.7,7.2,3.6c5.2,2.5,10.5,4.9,15.8,7.1c11.3,4.7,25.5,11,38,9.4 c10-1.3,20.1-11.7,13-21.4c-5.2-7.2-16-9.4-23.3-14c-6.2-3.9-12.2-8.4-17.8-13.2c-0.8-0.7-2,0.5-1.2,1.2 c9.6,8.4,20.3,15.5,32,20.7c5,2.2,10.7,5.7,11.1,11.8c0.4,5.9-5.2,10.2-10.1,12.1c-5.8,2.3-12.4,0.9-18.3-0.5 c-13-3.1-25.5-8.6-37.5-14.3c-1.7-0.8-6.9-2.3-8-4c-0.5-0.7,0-4.3,0.1-5.2c0.1-2.6,0.7-5,1.7-7.3c0.9-2.2,2.8-6.1,5.2-7.2 c1.9-0.8,1.9,0.9,4.4,1.8c2.6,1,5.4,0.8,8,0c4.7-1.4,9.2-4.6,12.6-8.1C122.3,451.5,121.1,450.3,120.3,451z"/></g></g></g></g><g><g><g id="change2_40"><path fill="#38455d" d="M163.5,483.5c-10.7,13.3-27.2,9.8-41,4.7c-11.4-4.2-22.5-9.3-33.4-14.7c-1-0.5-1.8,1-0.8,1.5 c12.3,6.2,25,12,38,16.4c13.2,4.5,28.6,5.6,38.4-6.6C165.4,483.8,164.2,482.6,163.5,483.5L163.5,483.5z"/></g></g></g><g><g><g id="change2_21"><path fill="#38455d" d="M117.5,376.2c-2.5,2.6-6.5,5.3-10.2,4.5c-1-0.2-1.4,1.3-0.4,1.5c4.4,0.9,8.8-1.9,11.8-4.9 C119.3,376.6,118.2,375.5,117.5,376.2L117.5,376.2z"/></g></g></g><g><g><g id="change2_6"><path fill="#38455d" d="M95.2,425.2c1.1,0,1.1-1.7,0-1.7C94.2,423.5,94.2,425.2,95.2,425.2L95.2,425.2z"/></g></g></g><g><g><g id="change2_14"><path fill="#38455d" d="M124.3,425.2c1.1,0,1.1-1.7,0-1.7C123.2,423.5,123.2,425.2,124.3,425.2L124.3,425.2z"/></g></g></g><g><g><g id="change2_1"><path fill="#38455d" d="M95.2,422.8c9.5,0,19.1,0,28.6,0c1.1,0,1.1-1.7,0-1.7c-9.5,0-19.1,0-28.6,0 C94.2,421.1,94.2,422.8,95.2,422.8L95.2,422.8z"/></g></g></g></g><g id="Layer_7"><g><g id="change1_4"><path fill="#ffffff" d="M327.6,451.6c0,0,14.2,14.9,23.7,5.2c0,0,10.5,6.2,8.1,22c0,0-48.3,25.4-64,19.1 c-15.7-6.3-14.1-20.2,0.6-25.8C310.7,466.5,327.6,451.6,327.6,451.6z"/></g></g><g><g id="change1_1"><path fill="#ffffff" d="M57.9,451.6c0,0-14.2,14.9-23.7,5.2c0,0-10.5,6.2-8.1,22c0,0,48.3,25.4,64,19.1s14.1-20.2-0.6-25.8 S57.9,451.6,57.9,451.6z"/></g></g><g id="change1_8"><path fill="#ffffff" d="M317.1 352.8L316.2 364.4 329.6 464.2 350.6 464.2 356.6 352.8z"/></g><g id="change1_9"><path fill="#ffffff" d="M67.9 352.8L68.7 364.4 55.4 464.2 34.4 464.2 28.4 352.8z"/></g><g id="change1_10"><path fill="#ffffff" d="M272.7,30l-31.5,19.9l1.3,5c0,0,3.1,15.8,2.4,24.6c-0.7,8.8,2.8,24.4,3.8,29c1,4.6,11.7,20.6,27.1,21.2 c15.4,0.7,18.9-0.9,18.9-0.9l-0.4,4.3l-52.3,67.2l-16.6-32c0,0-8.2-21.9-8.4-22.2s-3.1-5.3-4.9-4.5s-1.9,5.9-1.9,5.9 s-5.1-17.1-6.8-17.8c-1.7-0.7-2.7,2.3-2.7,2.3s-3.3-1-4.3-0.8s-1.9,5.4-1.9,5.4s-1.9,0-2.9,1.2c-1,1.2,0,6.7,0,6.7 s-4.1,1.3-3.2,4.4c0.9,3.1,28.2,59.5,28.2,59.5l41,28.2l-3,33.2l101.4,2.4c0,0-4,36.4-0.4,36.3c3.6-0.1,3.9-1.2,3.9-1.2 s-1.8,15.3-0.2,15.8c1.6,0.5,3.9,0.3,6.7-1.3c2.8-1.6,3-2.5,3-2.5s5.2,1.1,7-1.7s1.4-3.6,1.4-3.6s3,0.7,5-4.7 c2-5.4,1.8-21.8,1.8-21.8l-2.4-31.8L359.1,146l-27.8-12.6l0.4-40.2c0,0,13.5,3.3,16.2-7.3s4-20.3,4-20.3l-46.5-41.8L272.7,30z"/></g><g id="change1_11"><path fill="#ffffff" d="M53.8,47.5L39.7,65.8c0,0-3.5,6.1-4.2,11.8s1.8,15.3,8.6,16s8.5,0,8.5,0l1.3,40c0,0-11.2-0.2-22.3,7.9 s-18.6,12.8-25.1,29.4s-4,30.6-4,30.6l2.9,1.1l-2.5,34.2l-2.5,64.5c0,0,2.2,11,4.7,12.7s2.6,1.8,2.6,1.8s3.3,5.9,5.7,5 c2.4-0.9,2.4-0.9,2.4-0.9s5.5,4.5,7.5,3.7s2-0.8,2-0.8l8-7l101.4-4.2l2,8.5c0,0,6.9-2.4,7.6-25.3s0-90.4,0-90.4s4.1-1.9,3.5-6.1 s-1.9-11.7-2.8-17.1s-6.8-17.6-11.4-24.1c-4.6-6.6-14.9-14-14.9-14l-9.3-5l-13.8-4.2l-5.9-1.2v-2.7c0,0,24.8,2.7,35.4-7.1 s13.6-20.8,13.8-27.6s1.9-39.5,1.9-39.5s-23.8-29.5-24.5-29.5s-53.9-2.4-53.9-2.4L53.8,47.5z"/></g></g><g id="Layer_6"><g><g><g id="change2_33"><path fill="#38455d" d="M352.1,456.8c2-32.7,3.9-65.3,5.9-98c0-0.5-0.4-0.8-0.8-0.8c-14.1-0.3-28.3-0.7-42.4-1 c-0.6,0-0.9,0.5-0.8,1.1c4.4,31.3,8.9,62.6,13.3,93.9c0.2,1.1,1.8,0.6,1.6-0.4c-2.1-14.8-4.2-29.5-6.3-44.3 c-1.5-10.6-3-21.2-4.5-31.8c-0.8-5.6-2.4-11.7-2.5-17.4c0-0.7-1.4,0.6-0.2,0.7c1.3,0.1,2.7,0.1,4.1,0.1 c4.8,0.1,9.6,0.2,14.5,0.3c5.3,0.1,10.7,0.2,16,0.4c1.6,0,3.4,0.3,5,0.1c1.9-0.3,1.8,0.8,1.3-0.8c0.4,1.1-0.2,3.2-0.3,4.3 c-0.2,3.5-0.4,7-0.6,10.5c-0.6,10.3-1.2,20.6-1.8,30.8c-1,17.4-2.1,34.9-3.1,52.3C350.4,457.9,352.1,457.9,352.1,456.8 L352.1,456.8z"/></g></g></g><g><g><g><g id="change2_2"><path fill="#38455d" d="M327,452.2c2.9,3,6.5,5.7,10.4,7.3c2.3,1,4.8,1.6,7.3,1.4c2.5-0.2,3.8-1.8,6-2.4c2.3-0.6-1-1,1.1-0.4 c0.7,0.2,1.5,1.4,2,1.9c2.9,3.1,4.4,7.1,4.9,11.3c0.8,6.2,0.6,6.7-4.3,9.1c-11.4,5.6-23.2,10.8-35.4,14.4 c-6.1,1.8-12.7,3.7-19.1,3.1c-9.4-0.9-19.8-10.8-11.8-19.8c3.5-4,8.9-5.4,13.5-7.7c4.3-2.1,8.5-4.7,12.5-7.5 c4.9-3.3,9.7-7,14.1-10.9c0.8-0.7-0.4-1.9-1.2-1.2c-4.6,4-9.5,7.7-14.6,11.1c-3.8,2.5-7.6,4.9-11.7,6.9 c-3.9,1.9-8.1,3.1-11.5,5.8c-10.4,8.2-4.7,20.7,6.7,24.1c11.1,3.4,25.3-2.7,35.5-6.6c5.9-2.2,11.6-4.7,17.3-7.4 c3-1.4,8.2-2.8,10.6-5.2c3-2.9,0.9-11.2-0.5-14.8c-1.4-3.4-3.9-6.9-7.1-8.9c-0.3-0.2-0.7-0.1-1,0.1c-7.3,6.5-16.8,0.7-22.5-5.2 C327.4,450.3,326.2,451.5,327,452.2z"/></g></g></g></g><g><g><g id="change2_47"><path fill="#38455d" d="M283.7,484.6c9.8,12.2,25.2,11.1,38.4,6.6c13-4.4,25.7-10.2,38-16.4c1-0.5,0.1-1.9-0.8-1.5 c-10.8,5.5-22,10.5-33.4,14.7c-13.8,5.1-30.3,8.6-41-4.7C284.3,482.6,283.1,483.8,283.7,484.6L283.7,484.6z"/></g></g></g><g><g><g id="change2_51"><path fill="#38455d" d="M328,377.3c3,3,7.4,5.8,11.8,4.9c1-0.2,0.6-1.7-0.4-1.5c-3.8,0.8-7.7-1.9-10.2-4.5 C328.5,375.5,327.3,376.6,328,377.3L328,377.3z"/></g></g></g><g><g><g id="change2_31"><path fill="#38455d" d="M35,456.8c-0.9-14.6-1.7-29.1-2.6-43.7c-0.7-10.9-1.3-21.7-2-32.6c-0.4-6.3,0.4-14.2-1.2-20.2 c-0.1-0.3-0.2-1.1-0.1-1.4c-0.5,1.5-0.8,0.4,1,0.7c3.7,0.7,8.4-0.2,12.2-0.3c8.9-0.2,18.7,0.7,27.5-0.6c1.4-0.2,0-0.9,0-0.8 c0,0.6-0.2,1.4-0.3,2c-0.7,2.9-0.9,6-1.3,9c-1.4,9.9-2.8,19.8-4.2,29.6c-2.5,17.6-5,35.3-7.5,52.9c-0.2,1.1,1.5,1.5,1.6,0.4 c4.4-31.3,8.9-62.6,13.3-93.9c0.1-0.5-0.2-1.1-0.8-1.1c-14.1,0.3-28.3,0.7-42.4,1c-0.4,0-0.9,0.4-0.8,0.8 c2,32.7,3.9,65.3,5.9,98C33.4,457.9,35.1,457.9,35,456.8L35,456.8z"/></g></g></g><g><g><g><g id="change2_69"><path fill="#38455d" d="M57.3,451c-5.7,5.8-15.3,11.7-22.5,5.2c-0.3-0.2-0.7-0.3-1-0.1c-2.8,1.7-5,4.6-6.5,7.5 c-1.8,3.5-4.4,12.5-1.7,15.9c1.3,1.6,5.4,2.7,7.2,3.6c5.2,2.5,10.5,4.9,15.8,7.1c11.3,4.7,25.5,11,38,9.4 c10-1.3,20.1-11.7,13-21.4c-5.2-7.2-16-9.4-23.3-14c-6.2-3.9-12.2-8.4-17.8-13.2c-0.8-0.7-2,0.5-1.2,1.2 c9.6,8.4,20.3,15.5,32,20.7c5,2.2,10.7,5.7,11.1,11.8c0.4,5.9-5.2,10.2-10.1,12.1c-5.8,2.3-12.4,0.9-18.3-0.5 c-13-3.1-25.5-8.6-37.5-14.3c-1.7-0.8-6.9-2.3-8-4c-0.5-0.7,0-4.3,0.1-5.2c0.1-2.6,0.7-5,1.7-7.3c0.9-2.2,2.8-6.1,5.2-7.2 c1.9-0.8,1.9,0.9,4.4,1.8c2.6,1,5.4,0.8,8,0c4.7-1.4,9.2-4.6,12.6-8.1C59.3,451.5,58.1,450.3,57.3,451z"/></g></g></g></g><g><g><g id="change2_17"><path fill="#38455d" d="M100.6,483.5c-10.7,13.3-27.2,9.8-41,4.7c-11.4-4.2-22.5-9.3-33.4-14.7c-1-0.5-1.8,1-0.8,1.5 c12.3,6.2,25,12,38,16.4c13.2,4.5,28.6,5.6,38.4-6.6C102.4,483.8,101.2,482.6,100.6,483.5L100.6,483.5z"/></g></g></g><g><g><g id="change2_55"><path fill="#38455d" d="M56.3,376.2c-2.5,2.6-6.5,5.3-10.2,4.5c-1-0.2-1.4,1.3-0.4,1.5c4.4,0.9,8.8-1.9,11.8-4.9 C58.2,376.6,57.1,375.5,56.3,376.2L56.3,376.2z"/></g></g></g><g><g><g id="change2_19"><path fill="#38455d" d="M32.7,422.8c9.5,0,19.1,0,28.6,0c1.1,0,1.1-1.7,0-1.7c-9.5,0-19.1,0-28.6,0 C31.6,421.1,31.6,422.8,32.7,422.8L32.7,422.8z"/></g></g></g></g><g id="Layer_4"><g><g id="change1_2"><path fill="#ffffff" d="M356.7,272.2L356.7,272.2c-4.6,1.4-12.2,3.6-19.5,5.1c-11.4,2.4-37.4,5.2-55.4,2.7 c-18-2.6-28.1-10.6-28.1-10.6l-10.8,93.5c0,0,36.3,10.8,56.7,0l2.4-45.9c0,0,3.2-1.1,3.9,3.2c0.7,4.3,2.7,43.4,2.7,43.4 s27.6,7.4,52.5-0.7l-1.6-39c0,0-0.4-2.7-0.7-5.3c-0.2-2.2,1.6-11.9,1.6-11.9s-3.5,3.3-4.8,1.9s-1.8-4.6-1.5-5.8 s1.3-11.6,1.3-11.6s0.7-11.5,1.1-13.2L356.7,272.2z"/></g></g></g><g id="Layer_3"><g id="change3_1"><path fill="#79a5fc" d="M294.8,130.5c0,0,1.3,3-3,3.5c-4.3,0.5-14.4,1.6-20.9,7s-12.1,9.9-15.1,14.1c-3.1,4.2-11.5,20.4-12.7,25.1 c-1.2,4.7-3,16.2-3.9,15.6c-0.9-0.6-8.4-15.9-8.4-15.9s-22.7,13.1-21.4,15s15.9,30.9,15.9,30.9s10.5,13.1,20.2,12.5 c9.7-0.5,11.8-1.6,11.5,0.9s-4.1,30.3-3.3,30.7c0.8,0.4,15.8,11.3,41.3,10.8c25.5-0.5,61-5.8,61.7-8.7c0.7-2.9-0.3-11.4-0.3-11.4 s28.1,2.3,30-3.5c1.9-5.8-2.2-37.7-2.2-37.7l-3.6-39.7c0,0-3.3-15.1-9.9-22.6s-19.6-18.7-26.2-20.6c-6.6-1.9-13.4-4.6-14.4-2.4 s-6.2,8.8-11.7,11.2c-5.5,2.4-15,4.3-19.1-0.2c-4.1-4.5-5-7.3-4.7-10.5C294.8,131.7,294.8,130.5,294.8,130.5z"/></g><g id="change3_3"><path fill="#79a5fc" d="M119.6,179.2c0,0,1.6-0.9,1.9,2.1s2.8,27.6,2.8,29.9c0,2-4,0-9.3,0.8c-5.6,0.8-13.2,1.1-22.2,1.7 c-15.7,1-33.7,0-46.3-0.8c-9.1-0.6-15.5-0.7-15.2-2.4c0.1-0.5,2.3-30.7,4.2-31c1.9-0.4,30.1,1,30.1,1L119.6,179.2z"/></g><g><g id="change3_2"><path fill="#79a5fc" d="M27.6,272.2L27.6,272.2c4.6,1.4,12.2,3.6,19.5,5.1c11.4,2.4,37.4,5.2,55.4,2.7s28.1-10.6,28.1-10.6 l10.8,93.5c0,0-36.3,10.8-56.7,0l-2.4-45.9c0,0-3.2-1.1-3.9,3.2c-0.7,4.3-2.7,43.4-2.7,43.4s-27.6,7.4-52.5-0.7l1.6-39 c0,0,0.4-2.7,0.7-5.3c0.2-2.2-1.6-11.9-1.6-11.9s3.5,3.3,4.8,1.9s1.8-4.6,1.5-5.8c-0.3-1.3-1.3-11.6-1.3-11.6s-0.7-11.5-1.1-13.2 L27.6,272.2z"/></g></g></g><g id="Layer_1"><g><g id="change2_42"><path fill="#38455d" d="M293.1,281.1c-19.6,0-32.9-6.6-39.2-10.6c-0.2-0.1-0.3-0.2-0.4-0.2c-0.5-0.2-0.2-4.8,2.7-27 c0.3-2,0.4-3.4,0.5-3.9c0.1-0.5,0-0.8-0.2-1c-0.5-0.5-2-0.4-5.1-0.1c-1.6,0.1-3.6,0.3-6.1,0.4c-5.1,0.3-10.3-3.2-13.9-6.1 c-3.8-3.2-6.5-6.5-6.5-6.5c-0.2-0.3-14.7-29-15.9-30.9c-0.1-0.1-0.1-0.3-0.1-0.4c0.7-2.7,20.7-14.3,21.5-14.8l0.2-0.1l0.1,0.2 c3,6.1,7.7,15.4,8.3,15.8c0.5-0.2,1.4-5.2,2.2-8.8c0.5-2.5,1-5.1,1.5-6.8c1.2-4.7,9.7-20.9,12.8-25.1c3.2-4.3,9-9.1,15.2-14.1 c6.5-5.4,16.6-6.6,20.9-7.1l0.2,0c1.4-0.2,2.3-0.6,2.7-1.3c0.1-1.4,0.1-2,0.1-2v-0.8l0.3,0.7c0,0,0.5,1.2-0.1,2.2 c0,0.6-0.1,1.3-0.1,2.2c-0.2,3,0.5,5.7,4.7,10.3c4.3,4.7,14.2,2.2,18.9,0.2c5.4-2.3,10.6-8.8,11.6-11.1c0.9-1.9,5.1-0.6,10.5,1 c1.3,0.4,2.7,0.8,4.1,1.2c3,0.9,7.7,3.8,13.2,8.2c4.8,3.9,9.7,8.5,13.2,12.4c6.6,7.5,9.9,22.5,10,22.7l3.6,39.7 c0.2,1.3,4.1,32,2.2,37.7c-1.9,5.7-27.2,3.8-30,3.6c0.1,1.3,0.9,8.6,0.2,11.3c-0.8,3.1-37.2,8.3-61.9,8.8 C294.3,281.1,293.7,281.1,293.1,281.1z M253.7,269.9c0.1,0,0.2,0.1,0.4,0.2c6.4,4.1,20.3,10.9,40.8,10.5 c25.8-0.5,60.9-5.9,61.6-8.6c0.7-2.9-0.3-11.3-0.3-11.3l0-0.2l0.2,0c0.1,0,7.1,0.6,14.3,0.4c9.4-0.2,14.8-1.5,15.6-3.8 c1.9-5.7-2.2-37.3-2.2-37.6l-3.6-39.7c0-0.1-3.3-15.1-9.9-22.5c-6.5-7.3-19.5-18.6-26.2-20.5c-1.4-0.4-2.8-0.8-4.1-1.2 c-4.8-1.5-9.4-2.9-10.1-1.2c-1,2.3-6.3,8.9-11.8,11.3c-4.7,2-14.9,4.6-19.3-0.2c-4.3-4.7-5-7.5-4.8-10.6c0-0.7,0.1-1.2,0.1-1.7 c-0.5,0.6-1.4,0.9-2.7,1.1l-0.2,0c-4.3,0.5-14.2,1.7-20.7,7c-6.1,5-12,9.8-15.1,14.1c-3.1,4.2-11.5,20.4-12.7,25 c-0.4,1.7-1,4.2-1.5,6.8c-1.2,5.9-1.8,8.7-2.4,9c-0.1,0-0.2,0-0.3,0c-0.9-0.6-7.3-13.6-8.4-15.8c-7.2,4.2-20.7,12.4-21.2,14.5 c0,0.1,0,0.1,0,0.2c1.2,1.9,15.3,29.7,15.9,30.9c0,0,2.6,3.3,6.4,6.4c3.5,2.9,8.6,6.3,13.6,6c2.5-0.1,4.5-0.3,6.1-0.4 c3.3-0.3,4.8-0.4,5.4,0.2c0.3,0.3,0.4,0.7,0.3,1.3c-0.1,0.5-0.2,1.9-0.5,3.9C255.7,250.3,253.3,268.9,253.7,269.9z"/></g></g><g><g id="change2_65"><path fill="#38455d" d="M78.1,214.2c-11.5,0-23-0.7-31.6-1.3c-1.5-0.1-3-0.2-4.3-0.3c-6-0.4-10-0.6-10.8-1.7 c-0.2-0.2-0.2-0.4-0.2-0.7c0-0.1,0.1-0.8,0.2-1.8c2.2-26,3.4-29.2,4.2-29.4c1.9-0.3,29,1,30.1,1l53.9-1.2c0.1-0.1,0.6-0.2,1,0 c0.6,0.3,0.9,1,1,2.3c0.4,3.4,2.8,27.6,2.8,29.9c0,0.3-0.1,0.6-0.3,0.8c-0.5,0.5-1.6,0.4-3.1,0.2c-1.6-0.2-3.7-0.4-6,0 c-4.3,0.6-9.9,1-16.3,1.3c-1.9,0.1-3.9,0.2-5.9,0.4C88,214.1,83,214.2,78.1,214.2z M37.2,179.5c-0.8,0-1.3,0-1.5,0.1 c-0.6,0.1-1.8,4-3.9,29.1c-0.1,1.3-0.1,1.7-0.2,1.8c0,0.1,0,0.3,0.1,0.4c0.7,1,4.9,1.2,10.6,1.6c1.4,0.1,2.8,0.2,4.3,0.3 c12.2,0.9,30.3,1.9,46.2,0.8c2-0.1,4-0.3,5.9-0.4c6.4-0.4,12-0.7,16.3-1.3c2.4-0.3,4.5-0.1,6.1,0c1.4,0.1,2.5,0.3,2.9-0.1 c0.1-0.1,0.2-0.3,0.2-0.5c0-2.2-2.5-26.5-2.8-29.8c-0.1-1.1-0.4-1.8-0.9-2c-0.4-0.2-0.8,0-0.8,0l0,0l0,0l-53.9,1.2 C65.4,180.5,43.4,179.5,37.2,179.5z"/></g></g><g><g><g><g id="change2_15"><path fill="#38455d" d="M356.5,271.4c-18.3,5.5-36.8,8.4-55.9,8.7c-15.6,0.2-33.6-1.4-46.3-11.4c-0.6-0.5-1.3-0.2-1.4,0.6 c-3.6,31.2-7.2,62.3-10.8,93.5c0,0.4,0.3,0.7,0.6,0.8c17.7,5.2,40.2,8.4,57.3-0.1c0.3-0.1,0.4-0.4,0.4-0.7 c0.4-6.8,0.7-13.5,1.1-20.3c0.3-5.1,0.5-10.2,0.8-15.2c0.1-2.8-0.4-6.9,0.5-9.6c0.1-0.2-0.1-0.6,0-0.7c-1.3,1.7,1.7,2.3,2.3,4 c0.4,1.3,0.3,3.2,0.4,4.6c0.4,5,0.7,10.1,1,15.1c0.4,7.6,0.9,15.2,1.3,22.9c0,0.4,0.2,0.7,0.6,0.8c17,4.5,36.1,4.5,52.9-0.7 c0.3-0.1,0.6-0.4,0.6-0.8c-0.4-9.5-0.8-19-1.2-28.5c-0.4-9.4-1.3-18.1,0.4-27.5c0.1-0.8-0.8-1.4-1.4-0.8 c-5.6,5-4.6-5.4-4.3-8.2c0.3-2.5,0.6-5,0.7-7.4c0.5-6.1,1-12.1,1.4-18.2c0.1-1.1-1.6-1.1-1.7,0c-0.5,7.9-1.1,15.7-1.9,23.6 c-0.5,5.2-1.8,19.2,6.9,11.5c-0.5-0.3-0.9-0.5-1.4-0.8c-1.6,8.6-1,16.4-0.6,25.1c0.3,6.1,0.5,12.3,0.8,18.4 c0.1,2.5,1.8,10.3,0.5,12.5c-0.8,1.4-8.5,2-10.8,2.4c-6,0.9-12.1,1.2-18.2,1c-7-0.2-14.5-0.8-21.3-2.7 c-1.8-0.5-0.2,1.1-0.6-0.4c-0.4-1.6-0.2-3.6-0.3-5.3c-0.3-6.3-0.7-12.5-1.1-18.8c-0.2-3.5,1.3-24.5-6.3-22.4 c-0.4,0.1-0.6,0.4-0.6,0.8c-0.7,12.6-1.3,25.1-2,37.7c-0.1,1.8,0.4,5.3-0.4,7c-1.2,2.6-7.2,3.4-10.4,4.1 c-11.2,2.2-23.1,1-34.2-1.1c-3-0.6-6-1.7-9-2c-0.3,0-1.6-0.3-1.9-0.5c0.4,0.3,0.7,1.2,0.6,0.2c-0.4-3.6,0.9-8.2,1.4-11.8 c1.8-15.6,3.6-31.3,5.4-46.9c1.3-11.4,2.6-22.8,4-34.2c-0.5,0.2-1,0.4-1.4,0.6c12,9.3,28.6,11.7,43.4,11.9 c20.6,0.2,40.8-2.9,60.5-8.8C357.9,272.7,357.5,271,356.5,271.4z"/></g></g></g></g><g><g><g id="change2_48"><path fill="#38455d" d="M293.9,129.7c0,4.5-1.2,9.5,1.7,13.3c5.7,7.4,15,7.1,22.9,3.5c6.7-3,13.1-7.9,13.5-15.6 c0.4-7.2,0.2-14.5,0.4-21.7c0.1-3.7,0.1-7.4,0.2-11.1c0-1,0.3-2.7,0.1-3.7c-0.5-1.8,0.9-0.6-0.9-0.5c4.6-0.1,8.5,1.7,12.8-1.4 c5.8-4.1,6.6-14.7,3.6-20.7c-2.5-5.1-6.1-4.3-10.8-4.2c-9.7,0.2-17.9-12-22.5-19.2c-3.9-6.2-7.4-12.7-10.2-19.5 c-0.1-0.3-0.4-0.6-0.8-0.6c-21,0.6-48.6,4.7-64.2,20.7c-0.3,0.3-0.3,0.7-0.1,1c8.5,20-0.1,43.8,10.2,63.1 c12.3,23.2,47,21.1,65.9,8.5c0.9-0.6,0.1-2.1-0.8-1.5c-15.1,10.1-34.5,12.4-51.1,4.1c-11.3-5.6-15.6-16.6-16.9-28.5 c-1.2-10.7-0.5-21.4-1.9-32.1c-0.6-4.3-2.9-8.9-3.2-13c-0.1-0.8-0.6-0.2-0.5-0.8c0.1-0.4,1.3-1.1,1.6-1.4 c5-5.1,13.1-8.5,19.6-11c5.2-2,10.6-3.6,16.1-4.7c3.9-0.8,7.8-1.5,11.7-1.9c1.8-0.2,3.7-0.4,5.5-0.5c1.1-0.1,7-1.3,7.5-1 c0.8,0.5,1.7,3.8,2,4.6c1.8,4,3.9,7.8,6.1,11.6c4.5,7.7,10,16,17.7,20.8c2.4,1.5,5.6,3.1,8.5,3c3.8-0.1,6.6-1.4,9.1,2.8 c3.8,6.4,1.7,18.5-6.2,20.5c-2.6,0.7-5.7,0.4-8.2-0.4c-0.5-0.2-1.1,0.3-1.1,0.8c-0.2,12.4,0.3,25-0.6,37.3 c-0.8,11.3-17.4,20.3-27.8,15.9c-8.3-3.5-6.9-9-6.9-16.5C295.6,128.6,293.9,128.6,293.9,129.7L293.9,129.7z"/></g></g></g><g><g><g id="change2_77"><path fill="#38455d" d="M264.1,166c-3.8,34.4-7.5,68.9-11.3,103.3c-0.1,1.1,1.6,1.1,1.7,0c3.8-34.4,7.5-68.9,11.3-103.3 C265.9,164.9,264.2,164.9,264.1,166L264.1,166z"/></g></g></g><g><g><g id="change2_23"><path fill="#38455d" d="M331.1,134.2c23,3.3,44.1,22.2,48.6,45.1c2.1,11,2.3,22.5,3.2,33.6c1,13.2,2,26.4,2.6,39.6 c0.1,3.6,1.3,4.8-2,6c-8.4,3.1-18.3,2.1-27,1.4c-1.1-0.1-1.1,1.6,0,1.7c8.4,0.7,17.5,1.5,25.8-0.9c1.5-0.4,4.2-1,5-2.6 c1.4-2.6-0.3-9.8-0.4-12.6c-0.4-7.7-1-15.3-1.5-23c-1-13.9-1.7-27.9-3.7-41.7c-2-14.2-10.7-27.3-22-35.9 c-8-6.1-18-10.9-28.1-12.4C330.5,132.4,330,134,331.1,134.2L331.1,134.2z"/></g></g></g><g><g><g id="change2_27"><path fill="#38455d" d="M260.8,205.8c1.1,0,1.1-1.7,0-1.7C259.7,204.1,259.7,205.8,260.8,205.8L260.8,205.8z"/></g></g></g><g><g><g id="change2_4"><path fill="#38455d" d="M294,132.5c-32.8,2.6-51.4,35.1-55.2,64.5c-0.1,1.1,1.5,1.1,1.7,0c3.6-28.4,21.8-60.3,53.5-62.8 C295.1,134.1,295.1,132.4,294,132.5L294,132.5z"/></g></g></g><g><g><g id="change2_5"><path fill="#38455d" d="M347.9,157.6c-1.3,4.5-1.3,9.5-0.6,14c0.2,1.1,1.8,0.6,1.6-0.4c-0.7-4.3-0.7-8.9,0.6-13.1 C349.8,157,348.2,156.5,347.9,157.6L347.9,157.6z"/></g></g></g><g><g><g id="change2_75"><path fill="#38455d" d="M348.7,183.4c3.8,29.4,6.9,59.2,6.9,88.8c0,1,1.6,1,1.6,0c0-29.6-3.2-59.4-6.9-88.8 C350.1,182.4,348.5,182.4,348.7,183.4L348.7,183.4z"/></g></g></g><g><g><g id="change2_11"><path fill="#38455d" d="M341.2,74.9c0.5,0.6,1.4,2.3,1.6,3.5c0.9,3.5-0.8,6-3.7,7.8c-0.9,0.6-0.1,2,0.8,1.5 c5.2-3.3,6.2-9.1,2.4-13.9C341.7,72.8,340.5,74,341.2,74.9L341.2,74.9z"/></g></g></g><g><g><g id="change2_74"><path fill="#38455d" d="M361.9,323.7c3.9,0.1,7.4-2.9,9-6.2c1.4-2.8,2.4-6.1,3-9.1c0.1-0.6,0.3-1.3,0.1-1.9 c-0.4-0.9-1.8-0.1-1.4,0.8c-0.2-0.5-0.3,1-0.4,1.4c-0.6,2.6-1.4,5.5-2.6,8c-1.4,2.8-4.3,5.5-7.7,5.4 C360.9,322.1,360.9,323.6,361.9,323.7L361.9,323.7z"/></g></g></g><g><g><g id="change2_66"><path fill="#38455d" d="M369,320.5c3.1,1.8,6.1-0.5,7.5-3.3c1.5-2.8,2.4-6.2,3.1-9.3c0.2-0.7,0.4-1.6,0.3-2.3 c-0.2-1-1.7-0.6-1.5,0.4c0-0.2-0.2,1-0.2,1.3c-0.4,2-1.1,3.9-1.7,5.8c-0.8,2.4-3,8.1-6.6,6C368.9,318.6,368.1,320,369,320.5 L369,320.5z"/></g></g></g><g><g><g id="change2_37"><path fill="#38455d" d="M359.9,323.6c2.5,0,3.5-1.7,4.4-3.8c1.7-3.9,2.6-8.1,3.7-12.2c0.3-1-1.3-1.4-1.5-0.4 c-0.9,3.4-1.8,6.8-2.9,10.1c-0.6,1.8-1.3,4.7-3.7,4.8C358.8,322.1,358.8,323.6,359.9,323.6L359.9,323.6z"/></g></g></g><g><g><g id="change2_62"><path fill="#38455d" d="M380.7,260.2c1.3,8.1,7,53.5-4,53.7c-1.1,0-1.1,1.7,0,1.7c8.8-0.2,7.8-18.5,7.9-23.8 c0.2-10.7-0.5-21.5-2.2-32.1C382.2,258.7,380.5,259.2,380.7,260.2L380.7,260.2z"/></g></g></g><g><g><g><g id="change2_28"><path fill="#38455d" d="M212.8,151.6c-0.6-1.4-2.3-7.7-0.6-9.1c2.2-1.8,6.3,11.3,6.8,12.8c1.7,5.4,4.1,10.1,6.6,15.2 c6.2,12.5,12.4,25,18.6,37.5c0.5,1,1.9,0.1,1.5-0.8c-7.6-15.4-15.9-30.6-22.9-46.2c-1.4-3.2-4.4-20.7-10-20.6 c-4.6,0.1-2.3,10-1.4,12.2C211.8,153.5,213.2,152.6,212.8,151.6L212.8,151.6z"/></g></g></g><g><g><g id="change2_7"><path fill="#38455d" d="M199.9,149.6c-1.3-2.4-2.4-7.8-3.1-10.9c-0.4-1.6-0.9-3.6-0.4-5.3c0.4-1.5,1.9-2.1,3.4,0.1 c0.6,0.9,2,0.1,1.5-0.8c-1.3-2-3.4-4.1-5.4-1.6c-0.9,1.1-0.9,1.2-1.2,2.6c-0.7,3.8,1.3,8.4,2.4,11.9c0.5,1.6,0.8,3.4,1.5,4.9 C198.9,151.4,200.4,150.6,199.9,149.6L199.9,149.6z"/></g></g></g><g><g><g id="change2_73"><path fill="#38455d" d="M195,152.2c-1.1-1.2-1.8-6-2.2-7.9c-0.3-1.2-1.6-5.8,0-6.8c0.5-0.3,1.3,0,2,0.1c1.1,0.2,1.5-1.5,0.4-1.6 c-3.1-0.4-4.7,0.3-4.7,3.8c-0.1,3.6,1.1,7.5,2.2,10.9c0.3,0.8,0.5,2,1.1,2.6C194.6,154.2,195.7,153,195,152.2L195,152.2z"/></g></g></g><g><g><g id="change2_32"><path fill="#38455d" d="M212.6,151.1c-1.2-3.4-2.4-6.7-3.6-10.1c-1.2-3.5-2.1-7.6-3.9-10.8c-1.2-2.1-3.7-2.1-4.7,0.2 c-0.7,1.6-0.2,3.7,0,5.3c0.5,3.9,1.2,7.7,1.8,11.6c0.2,1.1,1.8,0.6,1.6-0.4c-0.5-3.2-1-6.3-1.5-9.4c-0.2-1.3-1.1-4.3-0.5-5.8 c1.3-3.5,2.8,2.2,3.2,3.4c2,5.5,4,11,5.9,16.5C211.3,152.6,212.9,152.2,212.6,151.1L212.6,151.1z"/></g></g></g><g><g><g id="change2_26"><path fill="#38455d" d="M256.5,236.8c-1.9,1-6.4,0.7-8.7,0.8c-7.5,0.2-14.3-3.1-19.3-8.7c-3.5-3.9-5.4-9-7.7-13.7 c-2.4-4.8-4.8-9.6-7.3-14.3c-5-9.5-10-19-14.8-28.6c-1.4-2.8-13.3-25-7.9-26.1c1.1-0.2,0.6-1.8-0.4-1.6c-7,1.4,0,14.2,1.6,17.6 c5.9,12.9,12.7,25.3,19.3,37.8c3.1,6,6.3,12.1,9.2,18.2c3,6.2,5.6,11.7,11.3,15.9c5.2,3.9,10.8,5.4,17.3,5.1 c2.4-0.1,6.1,0.2,8.4-0.9C258.3,237.8,257.4,236.3,256.5,236.8L256.5,236.8z"/></g></g></g></g><g><g><g id="change2_9"><path fill="#38455d" d="M312.3,219.7c-6.1,11.2-12.5,22.4-17.6,34.1c-0.4,1,1,1.8,1.5,0.8c5.2-11.7,11.5-22.9,17.6-34.1 C314.3,219.6,312.8,218.7,312.3,219.7L312.3,219.7z"/></g></g></g><g><g id="change2_64"><ellipse rx="4" ry="4.7" fill="#38455d" cx="260" cy="78.7"/></g></g><g><g id="change2_76"><ellipse rx="4" ry="4.7" fill="#38455d" cx="292.8" cy="78.7"/></g></g><g><g><g id="change2_13"><path fill="#38455d" d="M272.7,75.6c-1.8,6.6-6.4,23.5,6.4,20.6c1-0.2,0.6-1.8-0.4-1.5c-2.4,0.5-5.7,0.1-6.6-2.7 c-0.7-2.1,0-4.9,0.3-7c0.5-3,1.1-6,1.9-8.9C274.5,75.1,273,74.7,272.7,75.6L272.7,75.6z"/></g></g></g><g><g><g id="change2_68"><path fill="#38455d" d="M289.1,98.9c-3.9,4.6-10,7.4-16,5.4c-1.1-0.4-1.5,1.3-0.5,1.7c6.5,2.2,13.5-0.8,17.7-5.8 C291.1,99.3,289.9,98,289.1,98.9L289.1,98.9z"/></g></g></g><g><g><g id="change2_50"><path fill="#38455d" d="M254.2,67.6c3.1-2.5,7.3-3.8,11.3-3.9c1.1,0,1.1-1.8,0-1.8c-4.4,0.1-9,1.6-12.5,4.4 C252,67,253.3,68.3,254.2,67.6L254.2,67.6z"/></g></g></g><g><g><g id="change2_52"><path fill="#38455d" d="M301.6,66.3c-3.5-2.8-8.1-4.3-12.5-4.4c-1.1,0-1.1,1.7,0,1.8c3.9,0.1,8.2,1.4,11.3,3.9 C301.2,68.3,302.4,67,301.6,66.3L301.6,66.3z"/></g></g></g><g><g><g id="change2_38"><path fill="#38455d" d="M296.7,300.2c1.1,6.4,3.1,13.2,6.9,18.6c0.6,0.9,2.1,0,1.5-0.8c-3.7-5.3-5.6-11.9-6.7-18.2 C298.1,298.7,296.5,299.2,296.7,300.2L296.7,300.2z"/></g></g></g><g><g><g id="change2_24"><path fill="#38455d" d="M361,306.6c0.2-2.8,0.5-5.7,0.7-8.5c0.1-1.1-1.6-1.1-1.7,0c-0.2,2.8-0.5,5.7-0.7,8.5 C359.3,307.7,361,307.7,361,306.6L361,306.6z"/></g></g></g><g><g><g id="change2_60"><path fill="#38455d" d="M230.7,179.1c-7.4,4.8-14.8,9.5-22.1,14.3c-0.9,0.6-0.1,2,0.8,1.5c7.4-4.8,14.8-9.5,22.1-14.3 C232.5,180,231.6,178.5,230.7,179.1L230.7,179.1z"/></g></g></g><g><g><g id="change2_36"><path fill="#38455d" d="M34.1,179.2c-3.7,30.8-6.9,61.9-6.9,92.9c0,1,1.6,1,1.6,0c0-31,3.3-62.2,6.9-92.9 C35.8,178.2,34.2,178.2,34.1,179.2L34.1,179.2z"/></g></g></g><g><g><g id="change2_25"><path fill="#38455d" d="M4.4,202.1c-1.5,19.2-2.8,38.4-3.6,57.6c-0.5,12.5-1.1,25-0.6,37.5c0.2,5.2-0.1,18.3,7.5,18.4 c1.1,0,1.1-1.7,0-1.7c-7.5-0.2-5.9-22.6-5.9-27.5c0-12,0.6-24,1.2-35.9c0.8-16.1,1.9-32.3,3.2-48.4 C6.2,201.1,4.5,201.1,4.4,202.1L4.4,202.1z"/></g></g></g><g><g><g id="change2_29"><path fill="#38455d" d="M49.7,220.5c6.1,11.2,12.5,22.4,17.6,34.1c0.4,1,1.9,0.1,1.5-0.8c-5.2-11.7-11.5-22.9-17.6-34.1 C50.6,218.7,49.2,219.6,49.7,220.5L49.7,220.5z"/></g></g></g><g><g><g><g id="change2_45"><path fill="#38455d" d="M27.4,273c19.7,5.9,39.9,9,60.5,8.8c14.7-0.2,31.4-2.5,43.4-11.9c-0.5-0.2-1-0.4-1.4-0.6 c2.9,25.4,5.9,50.7,8.8,76.1c0.6,4.9,0.7,10.2,1.7,15.1c0.1,0.5,0.4,1.9,0.3,2.4c0.4-1.2,0.5-0.6-0.8-0.4 c-1.3,0.2-2.6,0.7-3.8,1c-9.7,2.3-19.8,3.7-29.8,3.4c-5.6-0.2-11.4-0.9-16.7-2.8c-4.3-1.6-3.8-0.8-4.1-4.8 c-0.7-14.1-1.5-28.2-2.2-42.3c0-0.4-0.2-0.7-0.6-0.8c-7-1.9-5.7,13.6-5.9,17c-0.4,6.6-0.8,13.1-1.1,19.7 c-0.1,2.4,0.7,8.5-0.6,10.6c0.9-1.5-1.6-0.2-2.8,0c-3.8,0.8-7.6,1.3-11.5,1.7c-11.1,1.1-21.7,0.3-32.6-1.9 c-3.4-0.7-3.4,0.2-3.9-2.5c-0.3-1.9,0.2-4.3,0.3-6.2c0.3-6.2,0.5-12.3,0.8-18.5c0.4-10.2,1.4-19.7-0.4-29.8 c-0.5,0.3-0.9,0.5-1.4,0.8c8.7,7.8,7.5-6.3,6.9-11.5c-0.8-7.8-1.5-15.7-1.9-23.6c-0.1-1.1-1.7-1.1-1.7,0 c0.4,6.1,0.9,12.1,1.4,18.2c0.2,2.3,0.4,4.5,0.7,6.8c0.3,2.9,1.4,13.8-4.2,8.9c-0.6-0.6-1.6,0-1.4,0.8 c1.7,9.3,0.8,18.1,0.4,27.5c-0.4,9.5-0.8,19-1.2,28.5c0,0.4,0.3,0.7,0.6,0.8c16.8,5.1,35.9,5.1,52.9,0.7 c0.4-0.1,0.6-0.4,0.6-0.8c0.4-7.6,0.8-15.2,1.3-22.9c0.3-5,0.6-10.1,1-15.1c0.1-1.4-0.1-3.2,0.4-4.6c0.3-0.9,3.6-3.3,2.3-4 c0,0,0,0.7,0,0.7c1,2.5,0.4,6.9,0.5,9.6c0.3,5.1,0.5,10.2,0.8,15.2c0.4,6.8,0.7,13.5,1.1,20.3c0,0.3,0.1,0.6,0.4,0.7 c17.1,8.4,39.6,5.3,57.3,0.1c0.3-0.1,0.7-0.4,0.6-0.8c-3.6-31.2-7.2-62.3-10.8-93.5c-0.1-0.8-0.8-1.1-1.4-0.6 c-12.8,9.9-30.8,11.6-46.3,11.4c-19.1-0.3-37.6-3.2-55.9-8.7C26.8,271,26.4,272.7,27.4,273z"/></g></g></g></g><g><g><g id="change2_53"><path fill="#38455d" d="M88.7,129.7c0,7.1,1.4,12-5.6,16c-10.4,5.9-28.3-3.7-29.1-15.3c-0.8-12.4-0.4-24.9-0.6-37.3 c0-0.5-0.5-1-1.1-0.8c-9.7,3.1-16.1-3.4-15.9-13.3c0.1-6,2.4-10.4,8.7-10c2.3,0.1,3.3,0.6,5.8-0.3c8-2.7,13.9-10.3,18.4-17 c2.6-3.8,4.9-7.8,7.1-11.9c1.2-2.4,2.4-7.1,4.3-9c0.3-0.3,0.3-1.1,0.6-1.3c0.6-0.4,9.6,1.1,10.8,1.2c7.6,0.8,15.2,2.2,22.5,4.4 c8.5,2.5,16.9,6.2,24.2,11.3c1,0.7,3.9,2.2,4.3,3.4c0.4,1.1-2,5.9-2.4,7.9c-2.3,10-1.9,20.4-2.4,30.7 c-0.6,12.4-2.5,25.9-13.4,33.6c-16.4,11.5-39.3,8.9-55.1-1.7c-0.9-0.6-1.7,0.9-0.8,1.5c18.8,12.7,53.6,14.7,65.9-8.5 c10.2-19.3,1.7-43.1,10.2-63.1c0.2-0.4,0.2-0.7-0.1-1C129,32.9,101.4,28.8,80.4,28.2c-0.4,0-0.7,0.3-0.8,0.6 C74.2,42.1,64.8,62,50.4,67c-4.1,1.4-8.2-1.3-12,1.7c-5.4,4.3-4.8,15.4-1.5,20.7c2.7,4.3,8.5,6.3,13.4,4.9 c0.6-0.2,1.5-0.4,2.1-0.5c-0.4,0-0.8-1.5-0.8,0c0,3,0.1,6,0.2,9c0.1,8.1,0.3,16.3,0.4,24.4c0.1,6.5,1.1,10.7,6.8,15.1 c7.4,5.8,19.3,9.9,27.4,3c5.3-4.5,4-9.2,4-15.7C90.4,128.6,88.7,128.6,88.7,129.7L88.7,129.7z"/></g></g></g><g><g><g id="change2_34"><path fill="#38455d" d="M131.5,269.3c-3.1-30-6.3-60-9.4-90.1c0-0.4-0.3-0.9-0.8-0.8c-12.2,0.4-24.5,0.8-36.7,1 c-16.2,0.3-33.4,1.6-49.5-0.9c-1.1-0.2-1.5,1.5-0.4,1.6c13.4,2.1,27.5,1.3,41,1.1c14.1-0.2,28.2-0.5,42.2-1 c0.9,0,2.4-0.4,3.3-0.1c-1.4-0.4-0.3-1.1-0.5,0.8c-0.5,4,1,9.2,1.4,13.2c1.5,14.7,3.1,29.4,4.6,44c1.1,10.4,2.2,20.8,3.3,31.2 C129.9,270.3,131.6,270.4,131.5,269.3L131.5,269.3z"/></g></g></g><g><g><g id="change2_63"><path fill="#38455d" d="M52.8,132.5c-10.7,1.5-21.4,6.9-29.7,13.6c-7.9,6.4-13.9,14.8-17.6,24.3c-2.2,5.8-3.6,12-4.2,18.2 c-0.3,3.2-1.7,9.4,0.1,12.2c1.2,1.9,4.4,2.8,6.4,3.4c7.4,2.3,15.6,1.8,23.2,1.2c1.1-0.1,1.1-1.8,0-1.7 c-7.8,0.7-16.6,1.3-24.1-1.5c-4.8-1.8-4.4-3.1-4.3-8c0.5-14.7,4.9-29.3,14.8-40.4c8.9-10,22.3-17.7,35.7-19.6 C54.3,134,53.9,132.4,52.8,132.5L52.8,132.5z"/></g></g></g><g><g><g id="change2_16"><path fill="#38455d" d="M90.7,134.2c13.7,0.4,27.9,7.8,37.2,17.5c10.7,11.1,17.5,27.5,18.5,42.9c0.2,2.8,0.8,6.3-0.9,7.7 c-4.8,4-15.8,2.2-21.2,1.7c-1.1-0.1-1.1,1.6,0,1.7c4.7,0.4,20.1,2.7,23.5-3.2c1-1.7,0.3-6,0.2-7.9c-0.5-7.4-2.6-15-5.2-21.9 c-6.9-18.1-21-32.3-39.7-37.9c-4-1.2-8.3-2.2-12.5-2.3C89.6,132.5,89.6,134.2,90.7,134.2L90.7,134.2z"/></g></g></g><g><g><g id="change2_46"><path fill="#38455d" d="M34.8,158c1.2,4.2,1.2,8.9,0.6,13.1c-0.2,1.1,1.5,1.5,1.6,0.4c0.7-4.6,0.8-9.5-0.6-14 C36.1,156.5,34.5,157,34.8,158L34.8,158z"/></g></g></g><g><g><g id="change2_58"><path fill="#38455d" d="M115.1,155.5c2,3.9,2.9,8.5,3.1,12.8c0,1.1,1.7,1.1,1.7,0c-0.2-4.6-1.1-9.5-3.3-13.6 C116.1,153.7,114.6,154.6,115.1,155.5L115.1,155.5z"/></g></g></g><g><g><g id="change2_49"><path fill="#38455d" d="M42,73.7c-3.8,4.9-2.8,10.7,2.4,13.9c0.9,0.6,1.8-0.9,0.8-1.5c-2.9-1.8-4.6-4.4-3.7-7.8 c0.3-1.1,1.2-2.9,1.6-3.5C43.8,74,42.6,72.8,42,73.7L42,73.7z"/></g></g></g><g><g><g id="change2_10"><path fill="#38455d" d="M143.4,205.1c0.3,17.8,0.4,35.6,0.4,53.4c0,10.7,0.1,21.5-0.3,32.2c-0.3,8.4-0.4,22.4-7.3,28.7 c-0.8,0.7,0.4,1.8,1.1,1.1c5.9-5.4,6.9-16.5,7.5-23.8c0.9-11.1,0.6-22.4,0.6-33.5c0-19.4-0.2-38.7-0.5-58.1 C145,204.1,143.4,204.1,143.4,205.1L143.4,205.1z"/></g></g></g><g><g id="change2_41"><path fill="#38455d" d="M139.5,72.1c0,0,21-32.3,4.5-52.1S84-8.6,66,12c0,0-48.6-4.8-31.2,63.2l1.4-1.5c0,0,1.5-5.2,5.6-5 c4.1,0.2,6,0.3,9.3-1.2c3.2-1.5,11.5-8.5,15.2-13.3s10-17.5,11-19.3c1-1.8,3.1-5.9,3.1-5.9c1.2-2.3,18.1,3.2,20.4,3.7 c8.8,2.1,18,5.3,25,11.4C133.2,50.5,140,62.1,139.5,72.1z"/></g></g><g><g><g id="change2_70"><path fill="#38455d" d="M22.4,322.1c-3.4,0.1-6.3-2.6-7.7-5.4c-1.2-2.4-1.9-5.1-2.6-7.7c-0.1-0.5-0.3-2.2-0.5-1.7 c0.4-0.9-0.9-1.7-1.4-0.8c-0.3,0.6,0,1.3,0.1,1.9c0.6,3,1.6,6.4,3,9.1c1.7,3.3,5.1,6.3,9,6.2C23.4,323.6,23.4,322.1,22.4,322.1 L22.4,322.1z"/></g></g></g><g><g><g id="change2_43"><path fill="#38455d" d="M14.6,319.1c-3.7,2.2-5.8-3.5-6.6-6c-0.6-1.9-1.3-3.8-1.7-5.8c-0.1-0.3-0.2-1.5-0.2-1.3 c0.2-1-1.3-1.4-1.5-0.4c-0.1,0.7,0.1,1.5,0.2,2.1c0.7,3.2,1.6,6.6,3.1,9.5c1.4,2.7,4.5,5.1,7.5,3.3 C16.2,320,15.4,318.6,14.6,319.1L14.6,319.1z"/></g></g></g><g><g><g id="change2_22"><path fill="#38455d" d="M24.5,322c-2.4,0-3.1-3-3.7-4.8c-1.1-3.3-2-6.7-2.9-10.1c-0.3-1-1.8-0.6-1.5,0.4c1.1,4.1,2,8.3,3.7,12.2 c0.9,2.1,1.9,3.8,4.4,3.8C25.5,323.6,25.5,322.1,24.5,322L24.5,322z"/></g></g></g><g><g><g id="change2_8"><path fill="#38455d" d="M136.6,300c-0.2,3.5-0.7,7.1-2,10.4c-0.4,1,1.2,1.5,1.6,0.4c1.3-3.4,1.8-7.2,2-10.9 C138.4,298.9,136.7,298.9,136.6,300L136.6,300z"/></g></g></g><g><g><g id="change2_78"><ellipse rx="4" ry="4.7" fill="#38455d" cx="124.3" cy="78.7"/></g></g><g><g id="change2_3"><ellipse rx="4" ry="4.7" fill="#38455d" cx="91.5" cy="78.7"/></g></g><g><g><g id="change2_80"><path fill="#38455d" d="M110.1,76.1c0.8,2.9,1.4,5.9,1.9,8.9c0.3,2.1,0.9,4.9,0.3,7c-0.9,2.8-4.1,3.2-6.6,2.7 c-1-0.2-1.4,1.3-0.4,1.5c12.8,2.9,8.2-14,6.4-20.6C111.4,74.7,109.8,75.1,110.1,76.1L110.1,76.1z"/></g></g></g><g><g><g id="change2_59"><path fill="#38455d" d="M131.4,66.3c-3.5-2.8-8.1-4.3-12.5-4.4c-1.1,0-1.1,1.7,0,1.8c3.9,0.1,8.2,1.4,11.3,3.9 C131,68.3,132.3,67,131.4,66.3L131.4,66.3z"/></g></g></g><g><g><g id="change2_20"><path fill="#38455d" d="M84,67.6c3.1-2.5,7.3-3.8,11.3-3.9c1.1,0,1.1-1.8,0-1.8c-4.4,0.1-9,1.6-12.5,4.4 C81.9,67,83.1,68.3,84,67.6L84,67.6z"/></g></g></g></g><g><g><g id="change2_71"><path fill="#38455d" d="M86,299.8c-1.1,6.3-3,12.9-6.7,18.2c-0.6,0.9,0.8,1.7,1.5,0.8c3.8-5.4,5.7-12.2,6.9-18.6 C87.8,299.2,86.2,298.7,86,299.8L86,299.8z"/></g></g></g><g><g><g id="change2_56"><path fill="#38455d" d="M24.9,306.6c-0.2-2.8-0.5-5.7-0.7-8.5c-0.1-1.1-1.8-1.1-1.7,0c0.2,2.8,0.5,5.7,0.7,8.5 C23.4,307.7,25,307.7,24.9,306.6L24.9,306.6z"/></g></g></g><g><g><g id="change2_12"><path fill="#38455d" d="M124.3,210.3c-30.1,2.8-61.7,4.7-91.7,0c-1.1-0.2-1.5,1.5-0.4,1.6c30.1,4.7,61.9,2.9,92.1,0 C125.4,211.9,125.4,210.2,124.3,210.3L124.3,210.3z"/></g></g></g><g><g><g id="change2_67"><path fill="#38455d" d="M109.4,102.1c-4.9,0.3-10.2-1.7-14.6-3.4c-0.4-0.2-0.9,0.2-1,0.6c-1.1,3.7-0.6,8.6,3.5,10.1 c5,1.9,10.2-2,12.7-6.1c0.5-0.9-0.8-1.7-1.4-0.8c-2.1,3.3-6.1,6.7-10.3,5.6c-3.7-1-3.9-5.3-3.1-8.4c-0.3,0.2-0.6,0.4-1,0.6 c4.6,1.7,10,3.8,15,3.4C110.4,103.6,110.4,102,109.4,102.1z"/></g></g></g><g><g id="change2_39"><path fill="#38455d" d="M80.4,29.1c0,0,10.5,21.8,37.1,21.2l-6.1-25.6L80.4,29.1z"/></g></g><g><g id="change2_18"><path fill="#38455d" d="M349.5,21.3c-18-18.4-37.9-18.1-37.9-18.1s-7.9-3.6-19.1-3c0,0-27.4-3.4-41.3,14.6c-0.3,0.4-0.7,0.8-1,1.2 c-0.7,0.8-1.4,1.5-2.1,2.3c-9,9.3-20.4,12.4-25.8,11.8c-1.8-0.2-2.9,1.8-1.9,3.2c2.8,3.9,7.4,9.9,12.6,14.7 c2.6,2.3,12.3,9.9,26.4,6.9c19.4-5.9,44.5-26,44.5-26c1.6,10.9,18.7,32.1,23.5,35.2c4.8,3.1,9.7,4.3,12.1,3.7 c2.4-0.6,6.4,1.7,6.4,1.7l2.8,9C360.1,74.9,367.5,39.7,349.5,21.3z"/></g></g></g></svg>