<?xml version="1.0" encoding="UTF-8"?><svg xmlns="http://www.w3.org/2000/svg" xmlns:xlink="http://www.w3.org/1999/xlink" contentScriptType="text/ecmascript" fill="#000000" width="44" zoomAndPan="magnify" contentStyleType="text/css" viewBox="0.0 0.0 44.0 42.1" height="42.1" preserveAspectRatio="xMidYMid meet" version="1"><defs><clipPath id="a"><path d="M 0 0 L 44 0 L 44 42.058594 L 0 42.058594 Z M 0 0"/></clipPath></defs><g><g id="change1_1" clip-path="url(#a)"><path fill="#38455d" d="M 34.511719 10.679688 C 35.460938 9.730469 36.40625 8.789062 37.351562 7.839844 C 37.488281 7.703125 37.617188 7.574219 37.757812 7.4375 C 38.070312 7.121094 38.09375 6.546875 37.757812 6.242188 C 37.414062 5.933594 36.894531 5.90625 36.558594 6.242188 C 35.609375 7.191406 34.667969 8.132812 33.71875 9.082031 C 33.582031 9.21875 33.453125 9.347656 33.316406 9.484375 C 33.003906 9.800781 32.976562 10.375 33.316406 10.679688 C 33.652344 10.996094 34.175781 11.019531 34.511719 10.679688 Z M 10.683594 9.484375 C 9.734375 8.535156 8.789062 7.59375 7.84375 6.644531 C 7.707031 6.507812 7.574219 6.378906 7.441406 6.242188 C 7.125 5.925781 6.550781 5.902344 6.246094 6.242188 C 5.933594 6.582031 5.910156 7.101562 6.246094 7.4375 C 7.195312 8.386719 8.136719 9.328125 9.085938 10.277344 C 9.222656 10.414062 9.351562 10.542969 9.488281 10.679688 C 9.800781 10.996094 10.378906 11.019531 10.683594 10.679688 C 10.996094 10.347656 11.023438 9.820312 10.683594 9.484375 Z M 22.847656 5.351562 C 22.847656 4.039062 22.847656 2.722656 22.847656 1.410156 C 22.847656 1.222656 22.847656 1.035156 22.847656 0.84375 C 22.847656 0.398438 22.460938 -0.0234375 22 -0.00390625 C 21.539062 0.015625 21.152344 0.371094 21.152344 0.84375 C 21.152344 2.15625 21.152344 3.472656 21.152344 4.785156 C 21.152344 4.972656 21.152344 5.164062 21.152344 5.351562 C 21.152344 5.796875 21.539062 6.21875 22 6.199219 C 22.460938 6.175781 22.847656 5.824219 22.847656 5.351562 Z M 0.847656 22.84375 C 2.160156 22.84375 3.476562 22.84375 4.789062 22.84375 C 4.976562 22.84375 5.164062 22.84375 5.355469 22.84375 C 5.800781 22.84375 6.21875 22.457031 6.199219 21.996094 C 6.179688 21.539062 5.828125 21.148438 5.355469 21.148438 C 4.042969 21.148438 2.726562 21.148438 1.414062 21.148438 C 1.226562 21.148438 1.035156 21.148438 0.847656 21.148438 C 0.402344 21.148438 -0.0195312 21.539062 0 21.996094 C 0.0195312 22.457031 0.375 22.84375 0.847656 22.84375 Z M 38.648438 22.84375 C 39.957031 22.84375 41.273438 22.84375 42.585938 22.84375 C 42.777344 22.84375 42.964844 22.84375 43.152344 22.84375 C 43.597656 22.84375 44.019531 22.457031 44 21.996094 C 43.980469 21.539062 43.628906 21.148438 43.152344 21.148438 C 41.839844 21.148438 40.523438 21.148438 39.214844 21.148438 C 39.023438 21.148438 38.835938 21.148438 38.648438 21.148438 C 38.203125 21.148438 37.78125 21.539062 37.796875 21.996094 C 37.824219 22.457031 38.171875 22.84375 38.648438 22.84375 Z M 19.308594 42.058594 C 20.886719 42.058594 22.46875 42.058594 24.046875 42.058594 C 24.269531 42.058594 24.496094 42.058594 24.71875 42.058594 C 25.164062 42.058594 25.585938 41.671875 25.566406 41.214844 C 25.546875 40.753906 25.195312 40.367188 24.71875 40.367188 C 23.144531 40.367188 21.558594 40.367188 19.980469 40.367188 C 19.757812 40.367188 19.53125 40.367188 19.308594 40.367188 C 18.863281 40.367188 18.441406 40.753906 18.460938 41.214844 C 18.480469 41.671875 18.835938 42.058594 19.308594 42.058594 Z M 17.277344 38.707031 C 18.339844 38.707031 19.40625 38.707031 20.464844 38.707031 C 22.167969 38.707031 23.871094 38.707031 25.582031 38.707031 C 25.96875 38.707031 26.359375 38.707031 26.746094 38.707031 C 27.195312 38.707031 27.613281 38.320312 27.59375 37.859375 C 27.578125 37.398438 27.222656 37.011719 26.746094 37.011719 C 25.683594 37.011719 24.617188 37.011719 23.558594 37.011719 C 21.855469 37.011719 20.152344 37.011719 18.441406 37.011719 C 18.054688 37.011719 17.664062 37.011719 17.277344 37.011719 C 16.832031 37.011719 16.410156 37.398438 16.429688 37.859375 C 16.453125 38.320312 16.800781 38.707031 17.277344 38.707031 Z M 17.925781 34.566406 C 17.925781 34.273438 17.925781 33.972656 17.925781 33.675781 C 17.925781 33.40625 17.769531 33.058594 17.503906 32.945312 C 16.980469 32.722656 16.46875 32.460938 15.976562 32.171875 C 15.746094 32.03125 15.515625 31.886719 15.292969 31.730469 C 15.179688 31.652344 15.070312 31.574219 14.957031 31.492188 C 14.90625 31.453125 14.851562 31.410156 14.792969 31.371094 C 14.960938 31.5 14.726562 31.320312 14.695312 31.296875 C 14.253906 30.941406 13.839844 30.554688 13.453125 30.148438 C 13.261719 29.949219 13.085938 29.746094 12.910156 29.539062 C 12.824219 29.433594 12.738281 29.332031 12.652344 29.222656 C 12.78125 29.382812 12.640625 29.203125 12.621094 29.179688 C 12.566406 29.109375 12.511719 29.035156 12.460938 28.960938 C 12.128906 28.503906 11.832031 28.011719 11.566406 27.515625 C 11.4375 27.273438 11.316406 27.027344 11.207031 26.773438 C 11.175781 26.710938 11.152344 26.648438 11.125 26.585938 C 11.207031 26.773438 11.113281 26.5625 11.105469 26.53125 C 11.046875 26.382812 10.988281 26.230469 10.933594 26.082031 C 10.746094 25.554688 10.597656 25.015625 10.480469 24.476562 C 10.421875 24.199219 10.375 23.917969 10.332031 23.636719 C 10.363281 23.851562 10.324219 23.613281 10.324219 23.578125 C 10.316406 23.507812 10.308594 23.4375 10.300781 23.367188 C 10.28125 23.203125 10.273438 23.03125 10.257812 22.863281 C 10.222656 22.28125 10.222656 21.695312 10.265625 21.117188 C 10.277344 20.980469 10.289062 20.851562 10.300781 20.714844 C 10.304688 20.648438 10.316406 20.582031 10.324219 20.515625 C 10.347656 20.289062 10.296875 20.699219 10.332031 20.476562 C 10.375 20.195312 10.421875 19.910156 10.480469 19.628906 C 10.589844 19.097656 10.742188 18.574219 10.925781 18.066406 C 10.96875 17.945312 11.011719 17.824219 11.0625 17.703125 C 11.085938 17.644531 11.109375 17.582031 11.132812 17.523438 C 11.214844 17.320312 11.0625 17.6875 11.148438 17.492188 C 11.257812 17.234375 11.375 16.980469 11.5 16.734375 C 11.742188 16.261719 12.015625 15.804688 12.316406 15.371094 C 12.386719 15.265625 12.460938 15.164062 12.53125 15.0625 C 12.570312 15.007812 12.609375 14.960938 12.644531 14.90625 C 12.769531 14.730469 12.53125 15.046875 12.667969 14.875 C 12.828125 14.679688 12.988281 14.484375 13.15625 14.292969 C 13.503906 13.894531 13.882812 13.523438 14.28125 13.171875 C 14.46875 13.003906 14.667969 12.84375 14.863281 12.6875 C 14.695312 12.820312 14.863281 12.6875 14.894531 12.667969 C 14.949219 12.632812 14.996094 12.59375 15.050781 12.558594 C 15.171875 12.472656 15.292969 12.390625 15.410156 12.304688 C 15.851562 12.011719 16.3125 11.746094 16.785156 11.503906 C 17.015625 11.386719 17.25 11.28125 17.484375 11.179688 C 17.28125 11.265625 17.484375 11.179688 17.519531 11.164062 C 17.574219 11.140625 17.640625 11.117188 17.695312 11.089844 C 17.835938 11.039062 17.976562 10.984375 18.121094 10.9375 C 18.636719 10.761719 19.164062 10.617188 19.695312 10.511719 C 19.957031 10.457031 20.214844 10.414062 20.480469 10.375 C 20.257812 10.410156 20.480469 10.375 20.519531 10.371094 C 20.585938 10.359375 20.648438 10.355469 20.71875 10.351562 C 20.871094 10.335938 21.027344 10.320312 21.1875 10.3125 C 21.730469 10.277344 22.269531 10.277344 22.8125 10.3125 C 23.082031 10.332031 23.34375 10.355469 23.609375 10.390625 C 23.386719 10.359375 23.609375 10.390625 23.652344 10.394531 C 23.71875 10.40625 23.78125 10.414062 23.847656 10.421875 C 24 10.449219 24.15625 10.476562 24.304688 10.507812 C 24.835938 10.613281 25.363281 10.757812 25.878906 10.933594 C 26.117188 11.015625 26.359375 11.109375 26.601562 11.207031 C 26.402344 11.125 26.601562 11.207031 26.636719 11.222656 C 26.695312 11.246094 26.753906 11.277344 26.8125 11.300781 C 26.949219 11.363281 27.082031 11.425781 27.21875 11.492188 C 27.691406 11.730469 28.152344 11.996094 28.59375 12.296875 C 28.804688 12.4375 29.007812 12.585938 29.210938 12.738281 C 29.039062 12.605469 29.210938 12.738281 29.242188 12.761719 C 29.289062 12.800781 29.339844 12.839844 29.390625 12.882812 C 29.507812 12.972656 29.617188 13.070312 29.730469 13.167969 C 30.128906 13.515625 30.5 13.890625 30.851562 14.285156 C 31.007812 14.460938 31.15625 14.640625 31.300781 14.820312 C 31.328125 14.847656 31.457031 15.023438 31.328125 14.847656 C 31.367188 14.894531 31.40625 14.949219 31.445312 14.996094 C 31.53125 15.117188 31.617188 15.238281 31.699219 15.359375 C 32 15.796875 32.273438 16.257812 32.515625 16.726562 C 32.628906 16.953125 32.738281 17.1875 32.84375 17.417969 C 32.855469 17.453125 32.941406 17.65625 32.855469 17.453125 C 32.882812 17.511719 32.90625 17.574219 32.929688 17.632812 C 32.980469 17.769531 33.035156 17.910156 33.089844 18.050781 C 33.269531 18.566406 33.417969 19.089844 33.535156 19.617188 C 33.589844 19.871094 33.636719 20.132812 33.675781 20.394531 C 33.679688 20.433594 33.710938 20.65625 33.679688 20.433594 C 33.691406 20.5 33.695312 20.5625 33.703125 20.632812 C 33.722656 20.785156 33.738281 20.941406 33.746094 21.097656 C 33.789062 21.675781 33.796875 22.261719 33.757812 22.84375 C 33.738281 23.128906 33.714844 23.414062 33.675781 23.699219 C 33.703125 23.488281 33.667969 23.726562 33.664062 23.757812 C 33.65625 23.828125 33.640625 23.898438 33.632812 23.96875 C 33.601562 24.132812 33.574219 24.292969 33.539062 24.449219 C 33.421875 24.996094 33.273438 25.535156 33.085938 26.0625 C 33.035156 26.195312 32.988281 26.324219 32.941406 26.449219 C 32.914062 26.511719 32.886719 26.574219 32.859375 26.644531 C 32.941406 26.449219 32.851562 26.667969 32.839844 26.695312 C 32.71875 26.96875 32.585938 27.238281 32.449219 27.5 C 32.183594 28.003906 31.882812 28.488281 31.554688 28.953125 C 31.476562 29.0625 31.394531 29.171875 31.3125 29.28125 C 31.4375 29.117188 31.296875 29.300781 31.28125 29.324219 C 31.234375 29.378906 31.191406 29.433594 31.148438 29.484375 C 30.960938 29.710938 30.765625 29.929688 30.5625 30.144531 C 30.167969 30.554688 29.753906 30.9375 29.316406 31.289062 C 29.261719 31.335938 29.207031 31.378906 29.15625 31.417969 C 29.316406 31.289062 29.136719 31.429688 29.109375 31.449219 C 29 31.53125 28.894531 31.609375 28.777344 31.6875 C 28.535156 31.855469 28.285156 32.015625 28.03125 32.167969 C 27.5625 32.449219 27.070312 32.695312 26.566406 32.910156 C 26.296875 33.027344 26.144531 33.371094 26.144531 33.644531 C 26.144531 33.949219 26.144531 34.246094 26.144531 34.554688 C 26.144531 35 26.53125 35.417969 26.988281 35.398438 C 27.449219 35.378906 27.839844 35.027344 27.839844 34.554688 C 27.839844 34.246094 27.839844 33.949219 27.839844 33.644531 C 27.699219 33.886719 27.554688 34.132812 27.414062 34.375 C 29.671875 33.394531 31.605469 31.78125 33.03125 29.777344 C 34.484375 27.726562 35.308594 25.269531 35.457031 22.769531 C 35.59375 20.386719 35.066406 17.984375 33.972656 15.863281 C 32.929688 13.820312 31.332031 12.078125 29.425781 10.804688 C 27.464844 9.5 25.164062 8.753906 22.824219 8.605469 C 20.453125 8.453125 18.066406 8.957031 15.945312 10.023438 C 13.894531 11.046875 12.136719 12.625 10.84375 14.523438 C 9.515625 16.46875 8.75 18.757812 8.582031 21.097656 C 8.394531 23.609375 8.949219 26.15625 10.125 28.375 C 11.265625 30.527344 13.011719 32.351562 15.09375 33.597656 C 15.589844 33.898438 16.109375 34.160156 16.648438 34.394531 C 16.507812 34.152344 16.367188 33.902344 16.226562 33.664062 C 16.226562 33.957031 16.226562 34.257812 16.226562 34.554688 C 16.226562 35 16.613281 35.417969 17.074219 35.398438 C 17.535156 35.394531 17.925781 35.046875 17.925781 34.566406"/></g><g id="change1_2"><path fill="#38455d" d="M 23.84375 17.566406 C 23.84375 17.636719 23.867188 17.863281 23.824219 17.917969 C 23.859375 17.878906 23.851562 17.753906 23.832031 17.867188 C 23.824219 17.898438 23.820312 17.925781 23.816406 17.960938 C 23.800781 18.03125 23.785156 18.101562 23.765625 18.171875 C 23.738281 18.292969 23.699219 18.421875 23.660156 18.535156 C 23.636719 18.609375 23.605469 18.675781 23.582031 18.75 C 23.546875 18.839844 23.601562 18.699219 23.605469 18.695312 C 23.589844 18.734375 23.574219 18.773438 23.554688 18.8125 C 23.433594 19.070312 23.277344 19.300781 23.121094 19.535156 C 23.199219 19.414062 23.152344 19.5 23.097656 19.5625 C 23.058594 19.609375 23.015625 19.660156 22.972656 19.703125 C 22.894531 19.785156 22.769531 19.960938 22.65625 19.992188 C 22.65625 19.992188 22.792969 19.902344 22.710938 19.949219 C 22.6875 19.964844 22.664062 19.984375 22.640625 20.003906 C 22.589844 20.035156 22.542969 20.066406 22.488281 20.09375 C 22.472656 20.105469 22.347656 20.183594 22.335938 20.171875 C 22.328125 20.171875 22.535156 20.097656 22.378906 20.152344 C 22.34375 20.164062 22.304688 20.175781 22.269531 20.1875 C 22.21875 20.203125 22.164062 20.214844 22.105469 20.230469 C 21.957031 20.269531 22.265625 20.230469 22.109375 20.230469 C 22.054688 20.230469 22 20.234375 21.941406 20.234375 C 21.914062 20.234375 21.882812 20.230469 21.859375 20.230469 C 21.757812 20.234375 22.039062 20.273438 21.894531 20.234375 C 21.835938 20.21875 21.601562 20.195312 21.574219 20.136719 C 21.570312 20.128906 21.730469 20.21875 21.648438 20.167969 C 21.621094 20.152344 21.59375 20.144531 21.570312 20.128906 C 21.5 20.089844 21.433594 20.050781 21.371094 20.007812 C 21.347656 19.992188 21.324219 19.96875 21.296875 19.953125 C 21.210938 19.90625 21.351562 19.996094 21.351562 19.996094 C 21.308594 19.984375 21.25 19.910156 21.214844 19.875 C 21.117188 19.785156 21.023438 19.6875 20.933594 19.585938 C 20.882812 19.523438 20.800781 19.398438 20.890625 19.535156 C 20.859375 19.480469 20.8125 19.425781 20.78125 19.375 C 20.703125 19.257812 20.628906 19.136719 20.5625 19.011719 C 20.527344 18.941406 20.488281 18.875 20.460938 18.808594 C 20.425781 18.734375 20.386719 18.632812 20.441406 18.773438 C 20.394531 18.644531 20.339844 18.511719 20.300781 18.382812 C 20.261719 18.25 20.226562 18.121094 20.199219 17.988281 C 20.191406 17.941406 20.15625 17.855469 20.171875 17.808594 C 20.171875 17.804688 20.183594 17.988281 20.179688 17.886719 C 20.179688 17.847656 20.171875 17.808594 20.171875 17.769531 C 20.160156 17.636719 20.164062 17.503906 20.171875 17.371094 C 20.175781 17.199219 20.140625 17.496094 20.171875 17.335938 C 20.183594 17.261719 20.199219 17.1875 20.21875 17.113281 C 20.234375 17.050781 20.257812 16.992188 20.273438 16.929688 C 20.28125 16.898438 20.296875 16.871094 20.304688 16.835938 C 20.261719 17 20.273438 16.910156 20.296875 16.867188 C 20.359375 16.746094 20.421875 16.625 20.496094 16.507812 C 20.507812 16.484375 20.53125 16.460938 20.546875 16.429688 C 20.542969 16.433594 20.445312 16.546875 20.507812 16.480469 C 20.558594 16.425781 20.601562 16.367188 20.65625 16.3125 C 20.699219 16.269531 20.742188 16.226562 20.789062 16.183594 C 20.8125 16.164062 20.839844 16.140625 20.863281 16.121094 C 20.882812 16.105469 20.992188 16.027344 20.902344 16.089844 C 20.808594 16.15625 20.96875 16.046875 20.996094 16.035156 C 21.050781 16 21.105469 15.964844 21.164062 15.9375 C 21.226562 15.902344 21.292969 15.867188 21.359375 15.839844 C 21.207031 15.914062 21.355469 15.851562 21.429688 15.824219 C 21.554688 15.785156 21.679688 15.761719 21.804688 15.738281 C 21.902344 15.71875 21.75 15.75 21.742188 15.75 C 21.785156 15.75 21.832031 15.738281 21.875 15.738281 C 21.953125 15.734375 22.027344 15.734375 22.109375 15.738281 C 22.1875 15.742188 22.359375 15.761719 22.183594 15.734375 C 22.261719 15.75 22.335938 15.757812 22.40625 15.777344 C 22.488281 15.796875 22.570312 15.824219 22.652344 15.851562 C 22.683594 15.859375 22.710938 15.875 22.746094 15.882812 C 22.6875 15.867188 22.625 15.824219 22.71875 15.875 C 22.851562 15.941406 22.972656 16.015625 23.097656 16.089844 C 23.132812 16.109375 23.222656 16.1875 23.082031 16.074219 C 23.113281 16.097656 23.144531 16.125 23.175781 16.15625 C 23.230469 16.203125 23.28125 16.25 23.335938 16.304688 C 23.390625 16.359375 23.433594 16.410156 23.480469 16.46875 C 23.496094 16.488281 23.546875 16.570312 23.488281 16.484375 C 23.425781 16.386719 23.507812 16.507812 23.515625 16.527344 C 23.597656 16.664062 23.675781 16.796875 23.742188 16.945312 C 23.667969 16.789062 23.730469 16.9375 23.757812 17.011719 C 23.78125 17.085938 23.800781 17.15625 23.816406 17.230469 C 23.824219 17.273438 23.832031 17.316406 23.839844 17.355469 C 23.859375 17.460938 23.835938 17.390625 23.835938 17.324219 C 23.835938 17.390625 23.84375 17.480469 23.84375 17.566406 C 23.847656 18.007812 24.230469 18.433594 24.691406 18.414062 C 25.148438 18.394531 25.542969 18.042969 25.539062 17.566406 C 25.519531 15.972656 24.417969 14.503906 22.847656 14.132812 C 21.296875 13.761719 19.605469 14.484375 18.871094 15.917969 C 18.167969 17.308594 18.472656 18.96875 19.3125 20.230469 C 19.730469 20.851562 20.273438 21.410156 20.96875 21.707031 C 21.703125 22.015625 22.46875 21.984375 23.183594 21.640625 C 23.902344 21.296875 24.472656 20.632812 24.859375 19.953125 C 25.273438 19.234375 25.53125 18.402344 25.539062 17.566406 C 25.542969 17.121094 25.148438 16.703125 24.691406 16.722656 C 24.230469 16.742188 23.847656 17.09375 23.84375 17.566406"/></g><g id="change1_3"><path fill="#38455d" d="M 26.550781 25.269531 C 26.550781 25.984375 26.550781 26.703125 26.550781 27.417969 C 26.832031 27.136719 27.117188 26.851562 27.398438 26.570312 C 26.175781 26.570312 24.957031 26.570312 23.738281 26.570312 C 21.804688 26.570312 19.875 26.570312 17.9375 26.570312 C 17.492188 26.570312 17.054688 26.570312 16.609375 26.570312 C 16.890625 26.851562 17.175781 27.136719 17.457031 27.417969 C 17.457031 26.742188 17.457031 26.0625 17.457031 25.386719 C 17.457031 25.234375 17.460938 25.082031 17.472656 24.929688 C 17.457031 25.105469 17.480469 24.933594 17.492188 24.863281 C 17.511719 24.789062 17.53125 24.71875 17.554688 24.644531 C 17.566406 24.609375 17.652344 24.402344 17.605469 24.503906 C 17.554688 24.605469 17.605469 24.503906 17.613281 24.488281 C 17.640625 24.441406 17.664062 24.394531 17.6875 24.347656 C 17.722656 24.285156 17.761719 24.222656 17.804688 24.160156 C 17.824219 24.136719 17.84375 24.105469 17.855469 24.082031 C 17.914062 23.980469 17.761719 24.183594 17.84375 24.101562 C 17.953125 23.992188 18.058594 23.871094 18.175781 23.765625 C 18.191406 23.75 18.273438 23.679688 18.191406 23.75 C 18.097656 23.820312 18.210938 23.734375 18.234375 23.71875 C 18.296875 23.679688 18.359375 23.636719 18.421875 23.597656 C 18.476562 23.566406 18.535156 23.542969 18.59375 23.507812 C 18.726562 23.433594 18.59375 23.503906 18.570312 23.515625 C 18.605469 23.503906 18.652344 23.488281 18.691406 23.472656 C 18.773438 23.445312 18.855469 23.421875 18.9375 23.402344 C 18.980469 23.390625 19.023438 23.382812 19.0625 23.371094 C 19.222656 23.328125 18.960938 23.375 19.066406 23.367188 C 19.1875 23.355469 19.304688 23.351562 19.425781 23.351562 C 19.625 23.351562 19.820312 23.351562 20.015625 23.351562 C 19.816406 23.269531 19.617188 23.1875 19.414062 23.105469 C 20.078125 23.933594 20.742188 24.761719 21.410156 25.59375 C 21.675781 25.921875 22.34375 25.921875 22.605469 25.59375 C 23.265625 24.765625 23.921875 23.9375 24.582031 23.105469 C 24.382812 23.1875 24.183594 23.269531 23.980469 23.351562 C 24.195312 23.351562 24.410156 23.351562 24.621094 23.351562 C 24.734375 23.351562 24.84375 23.363281 24.957031 23.371094 C 24.738281 23.347656 25.054688 23.402344 25.121094 23.414062 C 25.226562 23.445312 25.324219 23.476562 25.425781 23.515625 C 25.226562 23.445312 25.421875 23.523438 25.457031 23.535156 C 25.503906 23.558594 25.546875 23.585938 25.59375 23.613281 C 25.640625 23.644531 25.6875 23.667969 25.730469 23.695312 C 25.753906 23.710938 25.898438 23.816406 25.800781 23.738281 C 25.703125 23.660156 25.855469 23.792969 25.863281 23.792969 C 25.902344 23.828125 25.941406 23.867188 25.976562 23.898438 C 26.019531 23.9375 26.050781 23.976562 26.085938 24.015625 C 26.097656 24.035156 26.214844 24.175781 26.140625 24.078125 C 26.058594 23.980469 26.179688 24.140625 26.179688 24.144531 C 26.210938 24.191406 26.238281 24.234375 26.265625 24.28125 C 26.292969 24.324219 26.316406 24.375 26.34375 24.421875 C 26.351562 24.445312 26.433594 24.609375 26.382812 24.496094 C 26.328125 24.382812 26.402344 24.546875 26.410156 24.570312 C 26.429688 24.625 26.445312 24.671875 26.457031 24.726562 C 26.472656 24.78125 26.484375 24.832031 26.496094 24.886719 C 26.503906 24.910156 26.542969 25.09375 26.515625 24.96875 C 26.484375 24.84375 26.523438 25.027344 26.527344 25.054688 C 26.542969 25.132812 26.550781 25.203125 26.550781 25.269531 C 26.554688 25.710938 26.9375 26.136719 27.398438 26.117188 C 27.851562 26.097656 28.25 25.742188 28.242188 25.269531 C 28.21875 23.269531 26.59375 21.667969 24.59375 21.65625 C 24.265625 21.65625 23.851562 21.605469 23.558594 21.773438 C 23.40625 21.863281 23.320312 21.988281 23.214844 22.121094 C 22.875 22.542969 22.542969 22.96875 22.203125 23.390625 C 21.9375 23.726562 21.675781 24.058594 21.410156 24.394531 C 21.804688 24.394531 22.207031 24.394531 22.605469 24.394531 C 22.257812 23.960938 21.914062 23.527344 21.566406 23.097656 C 21.335938 22.808594 21.105469 22.523438 20.878906 22.234375 C 20.636719 21.929688 20.46875 21.6875 20.015625 21.65625 C 18.949219 21.589844 17.929688 21.8125 17.078125 22.484375 C 16.191406 23.183594 15.761719 24.277344 15.761719 25.386719 C 15.761719 26.0625 15.761719 26.742188 15.761719 27.417969 C 15.761719 27.878906 16.148438 28.265625 16.609375 28.265625 C 17.828125 28.265625 19.046875 28.265625 20.265625 28.265625 C 22.199219 28.265625 24.128906 28.265625 26.066406 28.265625 C 26.511719 28.265625 26.953125 28.265625 27.398438 28.265625 C 27.855469 28.265625 28.242188 27.878906 28.242188 27.417969 C 28.242188 26.703125 28.242188 25.984375 28.242188 25.269531 C 28.242188 24.824219 27.855469 24.402344 27.398438 24.421875 C 26.9375 24.445312 26.550781 24.792969 26.550781 25.269531"/></g></g></svg>