<?xml version="1.0" encoding="UTF-8"?><svg xmlns="http://www.w3.org/2000/svg" xmlns:xlink="http://www.w3.org/1999/xlink" contentScriptType="text/ecmascript" fill="#000000" width="476.5" zoomAndPan="magnify" contentStyleType="text/css" viewBox="3.6 -4.3 476.5 510.7" height="510.7" preserveAspectRatio="xMidYMid meet" version="1"><g id="Layer_7"><g><g id="change1_2"><path fill="#ffffff" d="M213.1,448c0,0,14.3,14.9,23.8,5.2c0,0,10.5,6.2,8.1,22.1c0,0-48.4,25.5-64.2,19.1s-14.2-20.3,0.6-25.9 C196.1,462.9,213.1,448,213.1,448z"/></g></g><g id="change1_12"><path fill="#ffffff" d="M200.8 360.2L202 362.7 215.3 462.6 236.3 458.7 243.1 354.6z"/></g><g><g id="change1_10"><path fill="#ffffff" d="M56.6,448.5c0,0,12.1,16.7,22.9,8.4c0,0,9.5,7.6,5.1,23c0,0-51.4,18.7-66.2,10.2c-14.8-8.4-11.3-22,4.1-25.6 S56.6,448.5,56.6,448.5z"/></g></g><g id="change1_13"><path fill="#ffffff" d="M55.8 355.8L56.7 358.5 56.7 459.3 79.4 458 99.3 355.4z"/></g><g><g id="change1_16"><path fill="#ffffff" d="M452.4,446.3l-16.2-97.1l-41.7,8.6l34.1,88.8l-1.8,4.6c0,0-11.9,13.7-25,22.5s-11.6,22.7,5.2,25.4 c16.8,2.7,52.7-30.1,52.7-30.1C458.4,452.9,452.4,446.3,452.4,446.3"/></g></g></g><g id="Layer_4"><g><g><g><g id="change2_26"><path fill="#38455d" d="M237.7,453.2c2-32.8,3.9-65.5,5.9-98.3c0-0.5-0.4-0.8-0.8-0.8c-14.2-0.3-28.4-0.7-42.5-1 c-0.6,0-0.9,0.5-0.8,1.1c4.5,31.4,8.9,62.8,13.4,94.2c0.2,1.1,1.8,0.6,1.6-0.4c-2.1-14.8-4.2-29.6-6.3-44.4 c-1.5-10.6-3-21.3-4.5-31.9c-0.8-5.6-2.4-11.7-2.5-17.4c0-0.7-1.4,0.6-0.2,0.7c1.3,0.1,2.8,0.1,4.1,0.1 c4.8,0.1,9.7,0.2,14.5,0.3c5.4,0.1,10.7,0.2,16.1,0.4c1.6,0,3.4,0.3,5,0.1c1.9-0.3,1.8,0.8,1.3-0.8c0.4,1.1-0.2,3.2-0.3,4.3 c-0.2,3.5-0.4,7-0.6,10.5c-0.6,10.3-1.2,20.6-1.9,30.9c-1,17.5-2.1,35-3.1,52.5C236,454.3,237.7,454.3,237.7,453.2L237.7,453.2 z"/></g></g></g><g><g><g><g id="change2_45"><path fill="#38455d" d="M212.5,448.6c2.9,3,6.6,5.7,10.4,7.3c2.3,1,4.8,1.6,7.3,1.4c2.5-0.2,3.8-1.8,6-2.4c2.3-0.6-1-1,1.1-0.4 c0.7,0.2,1.5,1.4,2,1.9c2.9,3.1,4.4,7.1,5,11.3c0.8,6.3,0.6,6.7-4.3,9.2c-11.4,5.6-23.3,10.8-35.5,14.5 c-6.1,1.8-12.8,3.7-19.2,3.1c-9.4-0.9-19.9-10.9-11.8-19.9c3.6-4,8.9-5.4,13.5-7.7c4.4-2.2,8.5-4.7,12.5-7.5 c4.9-3.4,9.7-7,14.2-10.9c0.8-0.7-0.4-1.9-1.2-1.2c-4.6,4-9.5,7.7-14.6,11.2c-3.8,2.5-7.7,4.9-11.7,7 c-3.9,1.9-8.1,3.1-11.5,5.8c-10.5,8.2-4.7,20.7,6.8,24.2c11.1,3.4,25.4-2.7,35.6-6.7c5.9-2.3,11.7-4.8,17.4-7.4 c3-1.4,8.2-2.8,10.6-5.2c3-3,1-11.3-0.5-14.9c-1.4-3.5-3.9-6.9-7.1-9c-0.3-0.2-0.7-0.1-1,0.1c-7.3,6.5-16.9,0.7-22.6-5.2 C212.9,446.7,211.7,447.8,212.5,448.6z"/></g></g></g></g><g><g><g id="change2_62"><path fill="#38455d" d="M169.1,481.1c9.8,12.2,25.3,11.1,38.5,6.6c13.1-4.4,25.8-10.2,38.1-16.4c1-0.5,0.1-1.9-0.9-1.5 c-10.9,5.5-22.1,10.5-33.5,14.8c-13.8,5.1-30.4,8.7-41.1-4.7C169.6,479.1,168.4,480.3,169.1,481.1L169.1,481.1z"/></g></g></g><g><g><g id="change2_13"><path fill="#38455d" d="M215.4,373.4c3,3,7.4,5.9,11.8,4.9c1-0.2,0.6-1.7-0.4-1.5c-3.8,0.8-7.7-1.9-10.3-4.5 C215.8,371.6,214.7,372.7,215.4,373.4L215.4,373.4z"/></g></g></g></g><g><g><g><g id="change2_17"><path fill="#38455d" d="M80.3,457.1c6.8-34.1,13.5-68.2,20.3-102.3c0.1-0.5-0.2-1.1-0.8-1.1c-14.4-0.3-28.8-0.7-43.2-1 c-0.5,0-0.8,0.4-0.8,0.8c0.2,31.7,0.3,63.4,0.5,95.1c0,1.1,1.7,1.1,1.7,0c-0.1-15.6-0.2-31.3-0.2-46.9 c-0.1-10.8-0.1-21.6-0.2-32.3c0-3.7,0-7.4-0.1-11c0-1.2-0.5-3.7,0-4.8c-0.6,1.5-0.7,0.4,1,0.8c1.6,0.4,3.7,0.1,5.4,0.1 c5.4,0.1,10.9,0.3,16.3,0.4c5,0.1,10.1,0.2,15.1,0.4c1.3,0,2.6,0.1,3.9,0.1c0.8,0-0.2-1.7-0.4-0.5c-2.9,16.5-6.5,32.9-9.8,49.3 c-3.5,17.5-6.9,35-10.4,52.5C78.5,457.7,80.1,458.2,80.3,457.1L80.3,457.1z"/></g></g></g><g><g><g id="change1_4"><path fill="#ffffff" d="M289.9,448c0,0-14.3,14.9-23.8,5.2c0,0-10.5,6.2-8.1,22.1c0,0,48.4,25.5,64.2,19.1s14.2-20.3-0.6-25.9 C306.8,462.9,289.9,448,289.9,448z"/></g></g><g id="change1_11"><path fill="#ffffff" d="M302.6 360.2L301.4 362.7 288.1 462.6 267.1 458.7 260.4 354.6z"/></g><g><g><g id="change2_77"><path fill="#38455d" d="M55.9,449c2.3,3.1,5.1,5.9,8.3,8c2,1.4,4.3,2.5,6.8,2.9c3.1,0.5,4.8-0.9,7.6-1.3c1-0.2-0.2-1,0.9-0.6 c0.7,0.2,1.6,1.8,1.9,2.3c2.4,3.4,3.5,7.6,3.6,11.7c0,2.3,0.2,6.2-1.4,7.4c-0.9,0.7-2.9,1-4.1,1.4 c-11.7,3.9-23.7,7.3-35.9,9.4c-6.4,1.1-13.7,2.2-20.2,0.8c-9-1.8-18.6-12.4-10.4-20.7c4-4.1,9.9-4.7,15.1-6.4 c4.4-1.5,8.6-3.3,12.8-5.4c5.6-2.7,11-5.8,16.2-9.2c0.9-0.6,0.1-2.1-0.9-1.5c-4.4,2.9-9,5.5-13.7,7.9 c-4.5,2.3-9.1,4.5-13.9,6.2c-3.9,1.4-8.2,2-11.9,3.9c-12.7,6.3-9.4,20.5,2.5,25.7c10,4.4,23.7,0.8,33.8-1.4 c6.6-1.5,13.2-3.3,19.6-5.3c3.4-1,8.7-1.8,11.7-3.8c3.1-2.2,2.7-9,2.2-12.6c-0.7-4.4-2.7-9.2-6.2-12.1c-0.3-0.2-0.7-0.4-1-0.1 c-8.1,5.5-16.8-1.4-21.7-8.1C56.7,447.2,55.2,448.1,55.9,449z"/></g></g></g></g><g><g><g id="change2_70"><path fill="#38455d" d="M8.5,475.3c7.8,12.9,22.6,14.6,36,12.1c14-2.5,27.8-6.7,41.2-11.3c1-0.4,0.6-2-0.4-1.6 c-11.1,3.8-22.5,7.2-33.9,9.8c-14.7,3.4-32.3,5.4-41.4-9.8C9.4,473.5,7.9,474.4,8.5,475.3L8.5,475.3z"/></g></g></g><g><g><g id="change2_35"><path fill="#38455d" d="M69,374.9c2.5,3.4,6.5,6.9,11,6.6c1-0.1,1-1.7,0-1.6c-3.9,0.3-7.5-2.9-9.6-5.8 C69.7,373.3,68.3,374,69,374.9L69,374.9z"/></g></g></g></g><g><g><g><g id="change2_3"><path fill="#38455d" d="M266.9,453.2c-0.9-14.6-1.7-29.2-2.6-43.8c-0.7-10.9-1.3-21.8-2-32.7c-0.4-6.3,0.4-14.2-1.2-20.3 c-0.1-0.3-0.2-1.2-0.1-1.4c-0.5,1.5-0.8,0.4,1,0.7c3.7,0.7,8.5-0.2,12.3-0.3c8.9-0.2,18.8,0.7,27.6-0.6c1.4-0.2,0-0.9,0-0.8 c0,0.6-0.2,1.4-0.3,2c-0.7,2.9-0.9,6.1-1.3,9c-1.4,9.9-2.8,19.8-4.2,29.7c-2.5,17.7-5,35.4-7.5,53.1c-0.2,1.1,1.5,1.5,1.6,0.4 c4.5-31.4,8.9-62.8,13.4-94.2c0.1-0.5-0.2-1.1-0.8-1.1c-14.2,0.3-28.4,0.7-42.5,1c-0.4,0-0.9,0.4-0.8,0.8 c2,32.8,3.9,65.5,5.9,98.3C265.3,454.3,267,454.3,266.9,453.2L266.9,453.2z"/></g></g></g><g><g><g><g id="change2_55"><path fill="#38455d" d="M289.3,447.4c-5.7,5.9-15.3,11.7-22.6,5.2c-0.3-0.2-0.7-0.3-1-0.1c-2.8,1.7-5,4.6-6.5,7.5 c-1.8,3.5-4.4,12.6-1.7,16c1.3,1.6,5.4,2.8,7.2,3.6c5.2,2.5,10.5,4.9,15.8,7.1c11.3,4.7,25.6,11.1,38.2,9.4 c10-1.3,20.2-11.7,13-21.5c-5.3-7.2-16.1-9.4-23.4-14c-6.3-4-12.3-8.4-17.8-13.3c-0.8-0.7-2,0.5-1.2,1.2 c9.7,8.4,20.4,15.6,32.1,20.7c5,2.2,10.7,5.8,11.1,11.9c0.4,5.9-5.2,10.2-10.1,12.2c-5.8,2.3-12.5,0.9-18.4-0.5 c-13-3.1-25.5-8.6-37.6-14.3c-1.7-0.8-6.9-2.3-8-4c-0.5-0.7,0-4.3,0.1-5.3c0.1-2.6,0.7-5,1.7-7.3c0.9-2.2,2.8-6.2,5.2-7.2 c1.9-0.8,1.9,0.9,4.5,1.9c2.6,1,5.4,0.8,8.1,0c4.8-1.4,9.2-4.6,12.6-8.1C291.3,447.8,290.1,446.7,289.3,447.4z"/></g></g></g></g><g><g><g id="change2_89"><path fill="#38455d" d="M332.7,479.9c-10.7,13.4-27.3,9.8-41.1,4.7c-11.4-4.2-22.6-9.3-33.5-14.8c-1-0.5-1.8,1-0.9,1.5 c12.3,6.2,25.1,12,38.1,16.4c13.3,4.5,28.7,5.6,38.5-6.6C334.5,480.3,333.4,479.1,332.7,479.9L332.7,479.9z"/></g></g></g><g><g><g id="change2_79"><path fill="#38455d" d="M288.3,372.3c-2.5,2.6-6.5,5.3-10.3,4.5c-1-0.2-1.4,1.3-0.4,1.5c4.4,0.9,8.8-1.9,11.8-4.9 C290.1,372.7,289,371.6,288.3,372.3L288.3,372.3z"/></g></g></g></g><g><g><g><g><g id="change2_60"><path fill="#38455d" d="M453.3,446.1c-5.4-32.4-10.8-64.8-16.2-97.1c-0.1-0.5-0.6-0.7-1-0.6c-13.9,2.9-27.8,5.7-41.7,8.6 c-0.4,0.1-0.7,0.6-0.6,1c5,13.1,10.1,26.3,15.1,39.4c3.7,9.7,7.4,19.3,11.1,29c2.3,6,5.7,12.4,7.2,18.6 c1.3,5.5-4.6,9.8-8.5,13.6c-5.9,5.8-12.5,10.5-18.9,15.6c-3.6,2.9-6.9,6.7-7.4,11.5c-1.1,9.5,9.5,14.7,17.7,14.4 c9.9-0.4,19.8-7.2,27.6-12.6c5.1-3.5,9.9-7.2,14.7-11.1c2.1-1.7,6.3-4.1,7.7-6.6c1.9-3.5-1-11.5-2.2-15.1 c-1.1-3.1-2.5-6.5-4.7-9c-0.7-0.8-1.9,0.4-1.2,1.2c1.7,1.9,2.8,4.5,3.7,6.8c1.3,3.3,4.7,12.3,3.1,15c-0.8,1.4-3,2.7-4.3,3.7 c-3.4,2.9-6.8,5.6-10.4,8.3c-7.1,5.4-14.6,10.6-22.7,14.3c-8.4,3.8-25.8,6-27.3-7.1c-0.8-6.9,5.2-11.2,10-14.8 c5.1-3.8,9.9-7.8,14.5-12.2c3.6-3.4,9.5-7.7,10.4-13c0.4-2.5-0.3-3.7-1.3-6.2c-2-5.3-4.1-10.6-6.1-15.9 c-5.6-14.7-11.3-29.3-16.9-44c-2.2-5.8-4.5-11.7-6.7-17.5c-0.6-1.6-1.1-3.3-1.8-4.8c-0.9-1.7-0.1-2-1.3-1 c0.9-0.7,3.5-0.7,4.6-0.9c3.5-0.7,6.9-1.4,10.4-2.1c7.3-1.5,14.6-3,22-4.5c1.1-0.2,3.4-1.2,4.5-0.9c-1.7-0.4-0.5-0.5-0.6,1.2 c-0.2,4.1,1.5,9.3,2.2,13.3c4.6,27.3,9.1,54.6,13.7,81.9C451.8,447.6,453.4,447.1,453.3,446.1L453.3,446.1z"/></g></g></g></g><g><g><g id="change2_76"><path fill="#38455d" d="M392.5,488.5c22.8,17.9,50.9-9.5,67.2-24.1c0.8-0.7-0.4-1.9-1.2-1.2c-15.4,13.9-43.1,41.2-64.8,24.1 C392.8,486.7,391.6,487.9,392.5,488.5L392.5,488.5z"/></g></g></g><g><g><g id="change2_110"><path fill="#38455d" d="M411.9,373.7c3.6,2.3,8.5,4,12.6,2.1c0.9-0.4,0.1-1.8-0.8-1.4c-3.5,1.6-8-0.2-11-2.1 C411.8,371.8,411,373.2,411.9,373.7L411.9,373.7z"/></g></g></g><g><g><g id="change2_106"><path fill="#38455d" d="M404,471.4c0,11.2,14.4,8.9,20.5,4.7c10.7-7.3,24.8-16.5,28.8-29.6c0.3-1-1.3-1.5-1.6-0.4 c-3.2,10.5-13.7,18.2-22.2,24.4c-4.2,3.1-8.5,6.8-13.8,7.5c-4.5,0.5-9.9-1.3-9.9-6.5C405.7,470.3,404,470.3,404,471.4 L404,471.4z"/></g></g></g></g></g><g id="Layer_6"><g><g id="change1_6"><path fill="#ffffff" d="M150.6,448c0,0-14.3,14.9-23.8,5.2c0,0-10.5,6.2-8.1,22.1c0,0,48.4,25.5,64.2,19.1s14.2-20.3-0.6-25.9 C167.5,462.9,150.6,448,150.6,448z"/></g></g><g><g id="change1_15"><path fill="#ffffff" d="M390.8,453.9l5.9-98.3l-42.5-1l13.4,94.2l-2.8,4.1c0,0-14.7,10.7-29.4,16.3s-16.4,19.6-0.6,25.9 c15.8,6.3,58.1-17.6,58.1-17.6C395.1,461.6,390.8,453.9,390.8,453.9"/></g></g><g id="change1_1"><path fill="#ffffff" d="M120.9,354.1c-0.8,0.8,6.3,101.9,6.3,101.9l17.7,1.7c0,0,4.7-5.3,5.7-9.7c1-4.4,12.6-97,12.6-97L120.9,354.1z"/></g></g><g id="Layer_5"><g><g><g><g id="change2_67"><path fill="#38455d" d="M127.6,453.2c-0.9-14.6-1.7-29.2-2.6-43.8c-0.7-10.9-1.3-21.8-2-32.7c-0.4-6.3,0.4-14.2-1.2-20.3 c-0.1-0.3-0.2-1.2-0.1-1.4c-0.5,1.5-0.8,0.4,1,0.7c3.7,0.7,8.5-0.2,12.3-0.3c8.9-0.2,18.8,0.7,27.6-0.6c1.4-0.2,0-0.9,0-0.8 c0,0.6-0.2,1.4-0.3,2c-0.7,2.9-0.9,6.1-1.3,9c-1.4,9.9-2.8,19.8-4.2,29.7c-2.5,17.7-5,35.4-7.5,53.1c-0.2,1.1,1.5,1.5,1.6,0.4 c4.5-31.4,8.9-62.8,13.4-94.2c0.1-0.5-0.2-1.1-0.8-1.1c-14.2,0.3-28.4,0.7-42.5,1c-0.4,0-0.9,0.4-0.8,0.8 c2,32.8,3.9,65.5,5.9,98.3C126,454.3,127.7,454.3,127.6,453.2L127.6,453.2z"/></g></g></g><g><g><g><g id="change2_98"><path fill="#38455d" d="M150,447.4c-5.7,5.9-15.3,11.7-22.6,5.2c-0.3-0.2-0.7-0.3-1-0.1c-2.8,1.7-5,4.6-6.5,7.5 c-1.8,3.5-4.4,12.6-1.7,16c1.3,1.6,5.4,2.8,7.2,3.6c5.2,2.5,10.5,4.9,15.8,7.1c11.3,4.7,25.6,11.1,38.2,9.4 c10-1.3,20.2-11.7,13-21.5c-5.3-7.2-16.1-9.4-23.4-14c-6.3-4-12.3-8.4-17.8-13.3c-0.8-0.7-2,0.5-1.2,1.2 c9.7,8.4,20.4,15.6,32.1,20.7c5,2.2,10.7,5.8,11.1,11.9c0.4,5.9-5.2,10.2-10.1,12.2c-5.8,2.3-12.5,0.9-18.4-0.5 c-13-3.1-25.5-8.6-37.6-14.3c-1.7-0.8-6.9-2.3-8-4c-0.5-0.7,0-4.3,0.1-5.3c0.1-2.6,0.7-5,1.7-7.3c0.9-2.2,2.8-6.2,5.2-7.2 c1.9-0.8,1.9,0.9,4.5,1.9c2.6,1,5.4,0.8,8.1,0c4.8-1.4,9.2-4.6,12.6-8.1C151.9,447.8,150.7,446.7,150,447.4z"/></g></g></g></g><g><g><g id="change2_23"><path fill="#38455d" d="M193.3,479.9c-10.7,13.4-27.3,9.8-41.1,4.7c-11.4-4.2-22.6-9.3-33.5-14.8c-1-0.5-1.8,1-0.9,1.5 c12.3,6.2,25.1,12,38.1,16.4c13.3,4.5,28.7,5.6,38.5-6.6C195.2,480.3,194,479.1,193.3,479.9L193.3,479.9z"/></g></g></g><g><g><g id="change2_105"><path fill="#38455d" d="M149,372.3c-2.5,2.6-6.5,5.3-10.3,4.5c-1-0.2-1.4,1.3-0.4,1.5c4.4,0.9,8.8-1.9,11.8-4.9 C150.8,372.7,149.7,371.6,149,372.3L149,372.3z"/></g></g></g></g><g><g><g><g><g id="change2_51"><path fill="#38455d" d="M391.6,453.9c2-32.8,3.9-65.5,5.9-98.3c0-0.5-0.4-0.8-0.8-0.8c-14.2-0.3-28.4-0.7-42.5-1 c-0.6,0-0.9,0.5-0.8,1.1c1.9,13.5,3.8,27,5.7,40.4c2.4,16.9,6.2,34.3,7.3,51.4c0.2,2.6,0.6,1.7-1,3.8c-2.5,3.3-6,5.1-9.5,7.3 c-7.4,4.6-15.1,7.7-22.8,11.5c-4.3,2.1-8.5,5.2-9.9,10c-2.8,9.2,7.1,16.6,15.2,17.7c10,1.3,21-3.1,30.1-6.8 c5.2-2.1,10.3-4.4,15.4-6.9c2.5-1.2,7.2-2.7,9.2-4.8c2.6-2.9,1.4-11.4,1-15.1c-0.4-3.3-0.9-6.8-2.5-9.8c-0.5-1-2-0.1-1.5,0.9 c1,1.9,1.5,4.2,1.9,6.3c0.7,3.6,2.2,13.4,0.1,16.4c-0.7,1-3.3,1.8-4.4,2.4c-3.4,1.8-6.9,3.5-10.5,5.1 c-8.4,3.9-17.2,7.5-26.3,9.6c-9,2.1-25.6,1.8-26.4-11c-0.5-7.8,7.2-11.3,13.2-13.8c6.1-2.6,11.9-5.6,17.5-9 c3.8-2.3,11.4-5.6,12.9-10.6c0.5-1.8-0.1-3.9-0.4-5.8c-0.8-5.6-1.6-11.3-2.4-16.9c-2.2-15.6-4.4-31.1-6.6-46.7 c-0.9-6.2-1.8-12.4-2.6-18.6c-0.2-1.7-0.3-3.5-0.7-5.1c-0.6-2.4,0.4-1.5-1.1-1.1c4.2-1.2,11,0.3,15.3,0.4 c7.5,0.2,14.9,0.3,22.4,0.5c1.1,0,3.6-0.4,4.6,0.1c-1.5-0.7-0.3-0.7-0.8,1c-1.1,4-0.6,9.4-0.8,13.5c-1.7,27.6-3.3,55.3-5,82.9 C389.9,455,391.6,454.9,391.6,453.9L391.6,453.9z"/></g></g></g></g><g><g><g id="change2_50"><path fill="#38455d" d="M323,481.8c18,22.4,51.8,1.9,70.7-8.6c0.9-0.5,0.1-2-0.9-1.5c-18.3,10.2-51.3,30.5-68.7,8.9 C323.5,479.7,322.3,480.9,323,481.8L323,481.8z"/></g></g></g><g><g><g id="change2_24"><path fill="#38455d" d="M367.4,374.1c3,3,7.4,5.9,11.8,4.9c1-0.2,0.6-1.7-0.4-1.5c-3.8,0.8-7.7-1.9-10.3-4.5 C367.9,372.2,366.7,373.3,367.4,374.1L367.4,374.1z"/></g></g></g><g><g><g id="change2_103"><path fill="#38455d" d="M338,467.5c-2.7,11.7,13,11.6,19.9,8.8c11.8-4.7,27-10.4,33.6-22c0.5-0.9-0.9-1.8-1.5-0.9 c-5.1,8.9-15.7,13.7-24.6,17.8c-4.3,1.9-8.9,4.5-13.6,5.2c-5.2,0.8-13.8-1.5-12.2-8.4C339.9,466.9,338.2,466.4,338,467.5 L338,467.5z"/></g></g></g></g></g><g id="Layer_3"><g id="change1_7"><path fill="#ffffff" d="M155.4,120.8l81,7.9l0.8-7.1c0,0-17.2-8.5-18.6-13.5s-5.1-7.2-6-12.6s-1.9-9.4-1.9-9.4s-10.1,0.7-14.3-3.9 s-6.1-12.2-3.6-16.6c2.5-4.3,11.8-8.1,11.8-8.1l73-40.6l19.2,41.2l-0.9,6.4l6.9-5.2l8.9,4.4l1.7,10.7c0,0-2.3,8.5-7.6,10.6 s-11.2,1-11.2,1s-1.7,13.8-6.9,21.3s-11.9,12.3-19.6,14.4l-0.3,6.9l80.7-7.8l-8.6-10.3L327,90.4l3.4-47.7c0,0,31.1-25.2,31.6-24.9 s52.5,10.8,53.5,11.9s20.1,25.8,20.1,25.8l13.2,19.7l-14,20.4l-13.9,12.5v29.3l-10.5,2.9c0,0-10.7,5.6-18.1,3s-8.5-7.9-8.5-7.9 v-5.9c0,0-11.9,1.6-18.5,4.7c-6.6,3.1-54.8,27.2-54.8,27.2l14.2,18.9l9.5,8.2l-35.1,14.4l2.7,57.1l-27.4,4.8c0,0-19.6,4.4-43.5,0.1 c-24-4.3-27.6-4.9-27.6-4.9l2-51.7l-38.4-21.6l22.1-20.8l5.8-3.9l-50.4-25.2c0,0-9.1-4.6-14-5.6c-4.9-0.9-9.2-1.8-9.2-1.8 s1.9,10.6-6.8,13.3c-8.7,2.7-19.9-1.9-19.9-1.9l-11.5-22.2c0,0-0.4-1.3,0.6-3.2s0-26.3,0-26.3s-12.4,0.9-13.5-1.9 c-1.1-2.8-5.8-8.2-5.8-8.2l1.3-21L117,24.5l61.8,11.8l-5.3,23.2l-1.3,27.2c0,0-1.8,20.4-6.3,24.2 C161.3,114.8,159.2,119.4,155.4,120.8z"/></g><g id="change1_8"><path fill="#ffffff" d="M439.6,191.3l4.7,73.5l-1.3,26.3c0,0-1.9,14.6,0.9,13.6c2.8-1,4.3-2.3,4.3-2.3s-3.3,17-0.4,17s7.7-0.6,9.2-2.6 c0,0,3.5,2.2,7.7-6.2c0,0,4.3,1.3,5.5-2.6c1.2-3.9,1.2-39.5,1.2-39.5l-4.2-74.9L439.6,191.3z"/></g><g id="change1_9"><path fill="#ffffff" d="M36.8,195.3l-3.5,85.4c0,0,1.6,29.4,4.6,30.2c3.1,0.8,5.7,4.8,5.7,4.8l5.3,1.4c0,0,6.2,4.7,8.2,2.3 s0.5-16.3,0.5-16.3s2.5,3.5,4.5,0s6.1-111.8,6.1-111.8L36.8,195.3z"/></g><g><g id="change1_14"><path fill="#ffffff" d="M115.2,358.9c23.5-0.1,49.2-0.8,58.9-2.3l-15.8-106c0,0-50.9,12.1-96.4,0c0,0-2.1,16-1,26.7 s2.4,27.6,0.7,27.9s-4.8-2.8-4.8-2.8s2.5,17,0.4,17l-3.7-0.2l-2.9,39.1c0,0,25.3,0.5,54.6,0.5c0,0,4.8-49.6,7.1-49.2 S115.2,358.9,115.2,358.9z"/></g></g></g><g id="Layer_8"><g><g id="change3_3"><path fill="#79a5fc" d="M60.9,135.3c-0.3,0.2-9.2,6.8-13,11.4s-10.5,13.8-15.4,25.9s-6.9,21.5,0,22.9s32-0.7,32-0.7l-2.3,49.3 c0,0-2,6.2,2.3,7.2s23.2,5.4,41.9,4.7c18.7-0.7,52.2-2.7,51.8-6.6s-6-58.8-6-58.8s1.2-0.3,2.9-0.1s6.6,1.9,12.4-0.2 c5.7-2.1,15.1-13,15.1-13l12.7-15.5L149,138.4c0,0-17.9-9.7-26.9-9c0,0-1.1-0.6-1.1,3c0,3.6-3.3,10.3-9.3,11.2 c-6,0.9-17-2.5-17-2.5l-5.1-14.6C89.6,126.6,68.3,130.9,60.9,135.3z"/></g></g><g><g id="change3_2"><path fill="#79a5fc" d="M301.8,260l0.2,1.7l5.5,52.7c0.2,2.6,0.7,5.3,0.7,5.3l1.6,39.2c-25,8.1-52.7,0.7-52.7,0.7s-2-39.2-2.7-43.5 c-0.7-4.4-3.9-3.2-3.9-3.2l-2.4,46.1c-20.5,10.8-56.8,0-56.8,0l12-98.9l26.8,4.8c14.6,2.6,29.6,2.6,44.3,0L301.8,260z"/></g></g><g id="change3_4"><path fill="#79a5fc" d="M475.4,181.2c-3.1-18.1-19.7-35.9-24.3-40.4c-4.7-4.4-4.1-3.5-7.1-1.1c-3,2.4-5.4,0.8-8.2,3.2 c-2.8,2.4-8.1,3.2-8.6,1.7c-0.6-1.5-7.8,1-11.8,0c-3.9-1-2.7-5.4-2.7-5.4s-5.7,2.8-16.1,5.1S384,133.6,384,130.7s-8.8,0.3-17,2.8 c-8.1,2.5-57.4,28.2-57.4,28.2s3.1,4.2,9.8,12.3c6.6,8.1,16.2,17,20.7,17.4c4.5,0.4,12.2-1.7,12.7-1.5s-6.5,62.4-6.5,62.4 l-3.3,22.4l-12.2,81.9c23.4,3.6,123.5,1.8,123.5,1.8l-2.9-39.1l-3.7,0.2c-2,0,0.4-17,0.4-17s-3.1,3-4.8,2.8s-0.4-17.1,0.7-27.9 c0.1-0.7,0.1-1.4,0.2-2.1c0.1-0.8,0.1-1.7,0.1-2.7c0-1.9,0-3.8,0-5.7v0h0c-0.2-6.1-0.8-12-1.1-14.7c-0.2-2.1-0.3-3.4-0.3-3.4 s-2.8-49.7-2.3-52.1c0.4-2.4,7.7-1.1,8.1-1.1c0.4,0,19.7,1.2,25.5-1C480.1,192.3,475.4,181.2,475.4,181.2z"/></g><g><g id="change3_1"><path fill="#79a5fc" d="M435.3,31.9l-4.3-8.6c-0.8-1.6-3.1-1.7-4.1-0.2l-6.7,7.5c-0.5,0.8-1.4,1.2-2.3,1.1l-10.4,0.7 c-1.8-0.2-3.2,1.6-2.4,3.3l4,8.7c0.7,1.6,2.9,1.8,3.9,0.5l7.7-8.1c0.4-0.6,1.1-0.9,1.9-0.9l10.5-0.7 C435,35.2,436.1,33.4,435.3,31.9z"/></g></g></g><g id="Layer_1"><g><g><g id="change2_107"><path fill="#38455d" d="M296.6,61.4c0.4-10.8-1.6-21.8-3.4-32.4c-0.1-0.4-0.5-0.6-0.8-0.6c-26.9,0-53.8,0-80.7,0 c-0.5,0-0.8,0.4-0.9,0.9c-1.4,13.3-1.9,26.5-1.9,39.9c0,16.5,2.2,36.1,16,47.2c7.3,5.9,16.4,7.7,25.6,7.8 c7.9,0.1,15.8-0.2,23.1-3.5c11.2-5.1,17.7-15.8,20.6-27.4C296.8,82.5,296.1,72.1,296.6,61.4c0-1.1-1.7-1.1-1.7,0 c-0.7,16.2,0.7,33.4-9.5,47.3c-8.4,11.6-21.5,13.7-34.9,13.6c-19.9-0.1-33.3-11.4-37.7-30.8c-2.7-11.7-2.4-24.2-2.1-36.1 c0.2-6.7,0.7-13.5,1.3-20.2c0.2-1.6,0-3.8,0.5-5.4c-0.1,0.2-1.2-0.1,0.9,0.2c4,0.7,8.9,0,13,0c5.3,0,10.7,0,16,0 c5.4,0,10.7,0,16.1,0c10.7,0,21.7,0.8,32.3,0c2.2-0.2,0.7-0.6,0.9,0.2c0.7,2.2,0.8,4.9,1.1,7.2c1.1,7.9,2.4,15.9,2.1,23.9 C294.8,62.5,296.6,62.5,296.6,61.4z"/></g></g></g><g><g><g id="change2_114"><path fill="#38455d" d="M296.6,64.6c3.3-1.7,9.2-4,12.7-1.6c2.6,1.7,3,5.7,2.9,8.6c-0.1,10-7.4,15-17,13.7c-1.1-0.1-1.1,1.6,0,1.7 c11.1,1.5,19.3-5.4,18.7-16.8c-0.2-3.3-1-7.2-4.2-8.9c-4.2-2.2-10-0.2-14,1.8C294.8,63.6,295.7,65.1,296.6,64.6L296.6,64.6z"/></g></g></g><g><g><g id="change2_83"><path fill="#38455d" d="M209.3,63.1c-3.8-2-9.4-3.9-13.5-2.1c-3.5,1.6-4.4,5.6-4.6,9.1c-0.7,11.4,7.6,18.3,18.7,16.8 c1.1-0.1,1.1-1.9,0-1.7c-9.5,1.3-16.9-3.8-17-13.7c0-2.7,0.3-6.3,2.5-8.2c3.4-2.9,9.6-0.6,13.1,1.2 C209.4,65.1,210.3,63.6,209.3,63.1L209.3,63.1z"/></g></g></g><g><g id="change2_18"><ellipse rx="4" ry="4.7" fill="#38455d" cx="234.1" cy="70.4"/></g></g><g><g id="change2_42"><ellipse rx="4" ry="4.7" fill="#38455d" cx="267.1" cy="70.4"/></g></g><g><g><g id="change2_80"><path fill="#38455d" d="M248.7,68.7c-1.8,6.6-6.5,23.5,6.4,20.7c1-0.2,0.6-1.8-0.4-1.5c-2.5,0.5-5.7,0.1-6.6-2.7 c-0.7-2.1,0-5,0.3-7c0.5-3,1.1-6,1.9-9C250.5,68.1,249,67.7,248.7,68.7L248.7,68.7z"/></g></g></g><g><g><g id="change2_87"><path fill="#38455d" d="M225.2,62.7c3.5-2.1,7.8-2.9,11.9-2.6c1.1,0.1,1.1-1.7,0-1.8c-4.3-0.4-9,0.5-12.8,2.8 C223.3,61.8,224.2,63.3,225.2,62.7L225.2,62.7z"/></g></g></g><g><g><g id="change2_36"><path fill="#38455d" d="M278.5,61.4c-3.7-2.4-8.4-3.4-12.7-3.1c-1.1,0.1-1.1,1.8,0,1.8c4-0.2,8.4,0.6,11.8,2.9 C278.6,63.5,279.5,62,278.5,61.4L278.5,61.4z"/></g></g></g><g><g><g id="change2_49"><path fill="#38455d" d="M305.2,68c0.5,0.6,1.4,2.3,1.7,3.5c0.9,3.5-0.8,6.1-3.8,7.9c-0.9,0.6-0.1,2,0.9,1.5c5.3-3.3,6.2-9.1,2.4-14 C305.7,66,304.5,67.2,305.2,68L305.2,68z"/></g></g></g><g><g><g id="change2_1"><path fill="#38455d" d="M198.6,66.8c-3.8,4.9-2.8,10.7,2.4,14c0.9,0.6,1.8-0.9,0.9-1.5c-2.9-1.8-4.7-4.4-3.8-7.9 c0.3-1.1,1.2-2.9,1.7-3.5C200.5,67.2,199.3,66,198.6,66.8L198.6,66.8z"/></g></g></g><g><g><g id="change2_53"><path fill="#38455d" d="M260.8,95.7c-5,3.4-11.7,4.5-16.9,0.9c-0.9-0.6-1.8,0.9-0.9,1.5c5.8,3.9,13.2,2.8,18.7-0.9 C262.6,96.6,261.7,95.1,260.8,95.7L260.8,95.7z"/></g></g></g><g><g id="change2_21"><path fill="#38455d" d="M206.2,62.7c0,0,28.5-5.6,57-33.5c0,0,32.6,34.5,35.8,33.5c3.3-1,10.4,5,11.7,0.2c1.2-4.9,7.5-52.1-37-54.4 c0,0-14.4-12.8-46-5.1S179.3,62.4,206.2,62.7z"/></g></g><g><g><g id="change2_56"><path fill="#38455d" d="M243.9,68.9c-1,17.7-27.7,17.9-27.7,0C216.2,51,243,51.2,243.9,68.9c0.1,1.1,1.8,1.1,1.8,0 c-0.5-8.5-6.8-15.6-15.6-15.6c-8.5,0-15.7,7.1-15.6,15.6c0,8.2,6.6,15.2,14.8,15.6c9.2,0.5,15.9-6.8,16.4-15.6 C245.8,67.8,244,67.8,243.9,68.9z"/></g></g></g><g><g><g id="change2_37"><path fill="#38455d" d="M285.8,68.9c-1,17.7-27.7,17.9-27.7,0C258.1,51,284.8,51.2,285.8,68.9c0.1,1.1,1.8,1.1,1.8,0 c-0.5-8.5-6.8-15.6-15.6-15.6c-8.5,0-15.7,7.1-15.6,15.6c0,8.2,6.6,15.2,14.8,15.6c9.2,0.5,15.9-6.8,16.4-15.6 C287.6,67.8,285.8,67.8,285.8,68.9z"/></g></g></g><g><g><g id="change2_96"><path fill="#38455d" d="M257.6,72.8c-4.1-2-9.4-1.2-13.5-0.1c-1.1,0.3-0.6,2,0.5,1.7c3.6-0.9,8.6-1.8,12.2-0.1 C257.7,74.8,258.6,73.3,257.6,72.8L257.6,72.8z"/></g></g></g><g><g><g><g id="change2_65"><path fill="#38455d" d="M300.9,260c2.3,22,5.7,44.2,6.6,66.4c0.3,7.9,0.7,15.8,1,23.7c0.1,1.8,1.1,6.1,0.3,7.9 c-1.1,2.5-14.6,3.3-17.3,3.5c-11.2,0.9-21.5-1.1-32.4-2.3c-2.4-0.3-1.1,0.7-1.3-1c-0.2-3.1-0.3-6.2-0.5-9.3 c-0.5-9.1-1-18.3-1.6-27.4c-0.2-3.3-0.1-10.9-5.4-9.4c-0.4,0.1-0.6,0.4-0.6,0.8c-0.4,8.3-0.9,16.7-1.3,25 c-0.3,5.2-0.5,10.5-0.8,15.7c-0.1,1,0.3,3.4-0.2,4.3c-1,1.9-4.6,2.4-7.1,3.1c-14.3,3.8-30.3,1.6-44.4-1.8 c-1-0.2-3.3-0.4-4.1-1.1c0.1,0.1,0.5,1.3,0.5-0.1c-0.1-2.3,0.6-4.9,0.9-7.3c2.7-21.9,5.3-43.8,8-65.8 c0.9-7.3,3.3-15.9,2.8-23.2c0-0.4,0-1.3,0.2-1.7c-0.6,1.3-1.1,0.4,1.2,1.1c4.9,1.5,10.6,1.9,15.6,2.8c18,3.2,35.5,4.7,53.7,1.6 c9.1-1.5,18.3-3.2,27.4-4.8c1.1-0.2,0.6-1.8-0.4-1.6c-16.3,2.9-32.8,6.7-49.3,6.7c-16.4,0-32.7-3.9-48.8-6.7 c-0.6-0.1-1,0.2-1.1,0.8c-4,33-8,65.9-12,98.9c0,0.4,0.3,0.7,0.6,0.8c17.8,5.2,40.4,8.4,57.5-0.1c0.3-0.1,0.4-0.4,0.4-0.7 c0.4-6.8,0.7-13.6,1.1-20.4c0.3-5.1,0.5-10.2,0.8-15.3c0.1-2.8-0.4-6.9,0.5-9.6c0.1-0.2-0.1-0.6,0-0.7c-1.3,1.7,1.7,2.3,2.3,4 c0.4,1.3,0.3,3.2,0.4,4.6c0.4,5.1,0.7,10.1,1,15.2c0.4,7.6,0.9,15.3,1.3,22.9c0,0.4,0.2,0.7,0.6,0.8 c17.1,4.5,36.2,4.5,53.1-0.7c0.3-0.1,0.6-0.4,0.6-0.8c-0.6-15.4-0.9-30.9-2.5-46.2c-1.8-17.6-3.6-35.1-5.4-52.7 C302.5,258.9,300.8,258.9,300.9,260z"/></g></g></g></g><g><g><g id="change2_95"><path fill="#38455d" d="M245.2,296.1c1.1,6.4,3.1,13.3,6.9,18.7c0.6,0.9,2.1,0,1.5-0.9c-3.7-5.3-5.6-12-6.7-18.3 C246.7,294.6,245.1,295.1,245.2,296.1L245.2,296.1z"/></g></g></g><g><g><g id="change2_38"><path fill="#38455d" d="M236.2,121.6c0,5.1-0.6,10.5,0.1,15.5c1,7.4,7.7,12.6,15,12.7c7,0.1,14.7-4.6,16.5-11.6 c1.3-5,0.5-10.9,0.5-16c0-1.1-1.6-1.1-1.6,0c0,3.6,0.1,7.3,0,10.9c-0.3,8.4-6.6,15.2-15.4,15c-8.5-0.2-13.3-6.8-13.4-14.7 c-0.1-4,0-7.9,0-11.9C237.9,120.6,236.2,120.6,236.2,121.6L236.2,121.6z"/></g></g></g><g><g><g id="change2_102"><path fill="#38455d" d="M302.6,260c-0.1-34.5-3.5-69.1-7.1-103.4c-0.1-1-1.7-1-1.6,0c3.5,34.3,7,68.9,7.1,103.4 C301,261,302.6,261,302.6,260L302.6,260z"/></g></g></g><g><g><g id="change2_22"><path fill="#38455d" d="M209.5,156.6c-3.5,34.3-7,68.9-7.1,103.4c0,1,1.6,1,1.6,0c0.1-34.5,3.5-69.1,7.1-103.4 C211.2,155.5,209.6,155.5,209.5,156.6L209.5,156.6z"/></g></g></g><g><g><g id="change2_104"><path fill="#38455d" d="M261.7,195.6c-6.1,11.3-12.5,22.5-17.7,34.2c-0.4,1,1,1.8,1.5,0.9c5.2-11.7,11.6-23,17.7-34.2 C263.7,195.5,262.2,194.6,261.7,195.6L261.7,195.6z"/></g></g></g><g><g><g id="change2_10"><path fill="#38455d" d="M286.8,137.9c2.3,2.1,3,6.1,3.4,9c0.1,1,1.7,0.6,1.5-0.4c-0.5-3.2-1.3-7.4-3.8-9.7 C287.2,136.1,286,137.2,286.8,137.9L286.8,137.9z"/></g></g></g><g><g><g id="change2_74"><path fill="#38455d" d="M213.7,136.8c-2.5,2.3-3.4,6.5-3.8,9.7c-0.1,1,1.4,1.4,1.5,0.4c0.4-2.9,1.1-6.8,3.4-9 C215.6,137.2,214.5,136.1,213.7,136.8L213.7,136.8z"/></g></g></g><g><g><g id="change2_31"><path fill="#38455d" d="M267.5,128.8c17.5-1.6,35.1-3.2,52.6-4.7c4.3-0.4,8.5-0.8,12.8-1.2c1.8-0.2,5.3,0.4,4.3-1.2 c1.6,2.4,0.9,9.6,1.1,12.5c0.4,4.2,0.7,8.4,1.1,12.5c0.1,1,1.7,1,1.6,0c-0.7-8.4-1.5-16.7-2.2-25.1c0-0.4-0.3-0.8-0.8-0.8 c-23.5,2.1-47,4.2-70.5,6.4C266.5,127.3,266.5,128.9,267.5,128.8L267.5,128.8z"/></g></g></g><g><g><g id="change2_19"><path fill="#38455d" d="M338,122.5c3.2-0.3,6.3-0.6,9.5-1c1.1-0.1,1.1-1.8,0-1.7c-3.2,0.3-6.3,0.6-9.5,1 C336.9,120.9,336.9,122.6,338,122.5L338,122.5z"/></g></g></g><g><g><g id="change2_72"><path fill="#38455d" d="M456,317.1c3.1,1.8,6.1-0.6,7.6-3.3c1.5-2.8,2.4-6.2,3.1-9.3c0.2-0.7,0.4-1.6,0.3-2.3 c-0.2-1-1.7-0.6-1.5,0.4c0-0.2-0.2,1-0.2,1.3c-0.4,2-1.1,3.9-1.7,5.8c-0.8,2.4-3,8.2-6.7,6C456,315.2,455.2,316.6,456,317.1 L456,317.1z"/></g></g></g><g><g><g id="change2_113"><path fill="#38455d" d="M416.8,197.9c-6.1,11.3-12.5,22.5-17.7,34.2c-0.4,1,1,1.8,1.5,0.9c5.2-11.7,11.6-23,17.7-34.2 C418.7,197.8,417.3,196.9,416.8,197.9L416.8,197.9z"/></g></g></g><g><g><g><g id="change2_5"><path fill="#38455d" d="M442.3,250.6c1.7,13.8,0.7,27-0.1,40.9c-0.4,5.8-2.5,20.2,6.7,11.5c-0.5-0.3-0.9-0.5-1.4-0.8 c-0.6,4.5-1.3,9.1-1.3,13.6c0.1,4,0.4,4.3,4.1,4.4c1.3,0.1,0.6-0.5,0.5-0.7c0.2,0.3,0.1,1.5,0.1,1.7c0,2.2,0.3,4.6,0.5,6.8 c0.5,6.4,1,12.8,1.4,19.2c0.2,2.8,1.8,8.4,0.8,11.1c0.5-1.3,1.2-0.6-0.3-0.8c-1.2-0.1-2.6,0-3.8,0.1 c-10.5,0.2-20.9,0.3-31.4,0.3c-26.9,0.2-54.2,0.8-81.1-1.5c-0.8-0.1-6.1-0.8-5.3,0.4c-0.2-0.2,0.2-1.2,0.2-1.5 c-0.1-2.9,0.9-6.2,1.4-9.1c1.6-11.1,3.3-22.1,4.9-33.2c3.1-20.7,6.2-41.5,9.3-62.2c0.2-1.1-1.5-1.5-1.6-0.4 c-5.3,35.3-10.5,70.7-15.8,106c-0.1,0.4,0.1,1,0.6,1c22.9,3.4,46.9,2.3,70,2.3c17.9,0,35.8-0.1,53.7-0.5c0.4,0,0.9-0.4,0.8-0.8 c-1-13-2-26.1-2.9-39.1c0-0.4-0.4-0.9-0.8-0.8c-1.1,0.1-2.9,0.5-3.5-0.2c-0.8-0.9-0.1-4.9,0-6c0.2-3.2,0.6-6.4,1.1-9.5 c0.1-0.8-0.7-1.4-1.4-0.8c-5.5,5.1-4.1-4.3-4-7.5c0.3-5.7,0.9-11.3,1.3-17c0.7-8.9,0.1-17.9-1-26.7 C443.8,249.6,442.1,249.5,442.3,250.6L442.3,250.6z"/></g></g></g></g><g><g><g id="change2_99"><path fill="#38455d" d="M383.2,125.6c0,4.9-1.2,9.8,2,13.7c6.3,7.6,16.4,6.5,24.4,2.3c6.1-3.2,11.6-7.8,11.8-15 c0.2-7.4,0.3-14.8,0.4-22.2c0.1-3.8,0.1-7.6,0.2-11.4c0-1.1,0.1-2.2,0.1-3.3c0-1.6-0.9,0-0.6,0c5-0.2,9.3,1.7,13.9-1.7 c5.8-4.3,6.7-15.1,3.3-21c-2.6-4.7-6.2-3.8-10.6-3.7c-10.3,0.2-19.6-13.1-24.8-20.5c-4-5.9-7.7-12.1-10.8-18.5 c-0.1-0.3-0.5-0.4-0.7-0.4c-21.1,0.6-48.8,4.7-64.5,20.8c-0.3,0.3-0.3,0.7-0.1,1c8.5,20-0.1,43.9,10.2,63.3 c12.3,23.3,47.2,21.2,66.1,8.5c0.9-0.6,0.1-2.1-0.9-1.5c-15.1,10.2-34.6,12.5-51.2,4.1c-11.3-5.7-15.6-16.6-17-28.6 c-1.2-10.7-0.5-21.5-1.9-32.2c-0.6-4.3-2.9-8.9-3.2-13.1c-0.1-0.8-0.6-0.2-0.5-0.8c0.1-0.4,1.3-1.1,1.6-1.4 c5-5.1,13.2-8.5,19.7-11c5.2-2,10.6-3.6,16.1-4.8c3.9-0.8,7.8-1.5,11.8-1.9c1.8-0.2,3.7-0.4,5.5-0.5c1.2-0.1,6.8-1.3,7.6-0.8 c1,0.7,2.1,4.2,2.7,5.2c2.2,4.1,4.6,8.1,7.3,12c5.1,7.6,11.2,15.8,19.5,20.3c2.4,1.3,5.1,2.4,7.8,2.3c4.7-0.2,7.9-0.7,9.8,5 c3.9,12-4.9,21.5-16.6,18c-0.5-0.2-1.1,0.3-1.1,0.8c-0.2,12.4,0.3,25.1-0.6,37.5c-0.8,11.4-17.5,20.4-27.9,15.9 c-8.3-3.6-6.9-9-6.9-16.6C384.8,124.5,383.2,124.5,383.2,125.6L383.2,125.6z"/></g></g></g><g><g><g id="change2_68"><path fill="#38455d" d="M352,189.5c-3.6,0.3-8.6,1.8-12.2,1.1c-6.3-1.2-13.2-10-17.3-14.5c-4-4.4-7.3-9.4-11.3-13.8 c-1.2-1.3-1.2,0.4-0.5-0.2c0.9-0.7,2.1-1.1,3.1-1.6c15.4-7.8,30.8-15.5,46.3-23.3c-0.4-0.3-0.8-0.6-1.2-1 c-5.8,38-9.4,76-13,114.3c-0.1,1.1,1.6,1.1,1.7,0c3.6-38.1,7.1-75.9,13-113.8c0.1-0.7-0.5-1.3-1.2-1 c-16.7,8.4-33.3,16.8-50,25.2c-0.4,0.2-0.6,0.8-0.3,1.2c5.8,8.1,12.3,15.9,19.7,22.5c3,2.6,7.2,6.8,11.1,7.6 c3.6,0.7,8.5-0.7,12.2-1.1C353.1,191.1,353.1,189.4,352,189.5L352,189.5z"/></g></g></g><g><g><g id="change2_43"><path fill="#38455d" d="M431.3,70.7c0.5,0.6,1.4,2.3,1.7,3.5c0.9,3.5-0.8,6.1-3.8,7.9c-0.9,0.6-0.1,2,0.9,1.5 c5.3-3.3,6.2-9.1,2.4-14C431.8,68.6,430.6,69.8,431.3,70.7L431.3,70.7z"/></g></g></g><g><g><g id="change2_33"><path fill="#38455d" d="M449.9,320.3c3.9,0.1,7.4-2.9,9.1-6.2c1.4-2.8,2.4-6.1,3-9.2c0.1-0.6,0.3-1.3,0.1-1.9 c-0.5-0.9-1.8-0.1-1.4,0.8c-0.2-0.5-0.3,1-0.4,1.4c-0.6,2.6-1.4,5.6-2.6,8c-1.4,2.9-4.3,5.5-7.7,5.5 C448.8,318.6,448.8,320.2,449.9,320.3L449.9,320.3z"/></g></g></g><g><g><g id="change2_44"><path fill="#38455d" d="M454.4,303.7c-0.9,3.4-1.7,6.8-2.8,10.2c-0.5,1.5-1,3.8-2.4,4.7c-0.9,0.5-0.1,1.9,0.8,1.4 c1.4-0.9,2-2.5,2.6-4c1.4-3.8,2.3-7.9,3.4-11.9C456.2,303.1,454.7,302.7,454.4,303.7L454.4,303.7z"/></g></g></g><g><g><g id="change2_54"><path fill="#38455d" d="M439,167.8c0.7,27.6,1.4,55.2,3.3,82.8c0.1,1,1.7,1,1.6,0c-1.9-27.5-2.6-55.2-3.3-82.8 C440.6,166.8,439,166.8,439,167.8L439,167.8z"/></g></g></g><g><g><g id="change2_75"><path fill="#38455d" d="M464.7,312.2c7.7-0.2,7.3-13.9,7.4-19.1c0.4-12.8-0.1-25.7-0.6-38.6c-0.8-19.7-2.1-39.4-3.6-59 c-0.1-1-1.7-1-1.6,0c1.3,16.6,2.3,33.3,3.2,49.9c0.6,12.3,1.1,24.7,1.2,37c0,4.9,1.7,28-6,28.2 C463.7,310.6,463.7,312.2,464.7,312.2L464.7,312.2z"/></g></g></g><g><g><g id="change2_15"><path fill="#38455d" d="M406.6,304.3c-6.1,11.3-12.5,22.5-17.7,34.2c-0.4,1,1,1.8,1.5,0.9c5.2-11.7,11.6-23,17.7-34.2 C408.6,304.2,407.1,303.4,406.6,304.3L406.6,304.3z"/></g></g></g><g><g><g id="change2_85"><path fill="#38455d" d="M380,315.7c-3.4,5.8-6.5,11.8-9.2,17.9c-0.4,1,1,1.8,1.5,0.9c2.7-6.1,5.9-12.1,9.2-17.9 C382,315.6,380.6,314.8,380,315.7L380,315.7z"/></g></g></g><g><g id="change2_9"><ellipse rx="4" ry="4.7" fill="#38455d" cx="354.1" cy="74.4"/></g></g><g><g id="change2_16"><ellipse rx="4" ry="4.7" fill="#38455d" cx="387.1" cy="74.4"/></g></g><g><g><g id="change2_52"><path fill="#38455d" d="M366.9,71.4c-1.8,6.6-6.5,23.5,6.4,20.7c1-0.2,0.6-1.8-0.4-1.5c-2.5,0.5-5.7,0.1-6.6-2.7 c-0.7-2.1,0-5,0.3-7c0.5-3,1.1-6,1.9-9C368.7,70.9,367.2,70.4,366.9,71.4L366.9,71.4z"/></g></g></g><g><g><g id="change2_84"><path fill="#38455d" d="M347.9,62.7c3.5-2.1,7.8-2.9,11.9-2.6c1.1,0.1,1.1-1.7,0-1.8c-4.3-0.4-9,0.5-12.8,2.8 C346.1,61.8,346.9,63.3,347.9,62.7L347.9,62.7z"/></g></g></g><g><g><g id="change2_94"><path fill="#38455d" d="M395.8,61.4c-3.7-2.4-8.4-3.4-12.7-3.1c-1.1,0.1-1.1,1.8,0,1.8c4-0.2,8.4,0.6,11.8,2.9 C395.9,63.5,396.8,62,395.8,61.4L395.8,61.4z"/></g></g></g><g><g><g id="change2_100"><path fill="#38455d" d="M448.9,303.6c0.5-2.9,1-5.9,1.5-8.8c0.2-1.1-1.4-1.5-1.6-0.4c-0.5,2.9-1,5.9-1.5,8.8 C447.1,304.2,448.7,304.7,448.9,303.6L448.9,303.6z"/></g></g></g><g><g><g id="change2_28"><path fill="#38455d" d="M367.6,99.6c5,0.3,10.5-1.7,15.1-3.4c-0.3-0.2-0.7-0.4-1-0.6c0.9,3.1,0.7,7.4-3.1,8.4 c-4.2,1.1-8.2-2.3-10.3-5.6c-0.5-0.9-1.9-0.1-1.4,0.8c2.6,4.1,7.7,8,12.8,6.1c4.1-1.5,4.6-6.4,3.5-10.1c-0.1-0.4-0.6-0.7-1-0.6 c-4.5,1.7-9.8,3.7-14.6,3.4C366.5,97.9,366.5,99.5,367.6,99.6z"/></g></g></g><g><g id="change2_57"><path fill="#38455d" d="M445.7,49L445.7,49c0-0.2-0.1-0.4-0.1-0.7c0-0.1,0-0.1,0-0.2C440.7,16,416.9,9.7,411,8.7 c-0.8-0.3-1.3-0.4-1.3-0.2c0.4-4.2-12.2-5.9-14.9-6.4c-17.1-3.2-37.7-3.5-53.4,5c-7.9,4.3-13.8,11.2-15.8,20.1 c-1.2,5.5-1,11.2-0.1,16.7c0.6,3.5,1.4,6.9,2.5,10.3c1,3.3,4,7.8,4.2,11.1c-0.1-0.8-3.1-45.8,64.9-30.6c0,0,16.4,24.8,23.5,27.2 c7.1,2.4,13.8,1.3,15.5,3.4c1.7,2.1,4.9,2.2,3.2,12.9l-1.9,6.3c0,0,1.3,0.1,2-0.6C439.4,83.8,449.9,74.3,445.7,49z"/></g></g><g><g id="change2_91"><path fill="#38455d" d="M326.2,24.7c0,0-11.8,42.8-5.5,66.8c6.3,24.1,18.9,19.9,18.9,19.9s-4.5-6.3-5.6-16 c-1.1-9.7-1.7-26.7-1.8-27.2c0-0.5-0.8-20.3-0.8-20.3L326.2,24.7z"/></g></g><g><g id="change2_20"><path fill="#38455d" d="M420.8,108.1c0,0,21.1,12.2,29.6-18.2S438.6,28,438.6,28l-2.5,32.5l3.6,14.4c0,0,1.8,4-1,7.7 c-2.8,3.7-4.9,6.5-9.1,6.7s-8.4-0.6-8.4-0.6L420.8,108.1z"/></g></g><g><g><g id="change2_64"><path fill="#38455d" d="M440.7,196.3c9.1,0,18.3,0,27.4,0c2.6,0,6.6,0.2,8.5-1.9c2.2-2.3,1.5-6.2,0.8-9 c-6-23.3-19.3-46.5-42.9-55.3c-4.4-1.6-9.2-3-14-3c-1,0-1,1.6,0,1.6c18.1-0.1,34.7,14.3,43.6,28.7c5.2,8.4,8.9,17.7,11.4,27.3 c0.8,2.9,1.6,6.8-0.5,8.6c-1.1,1-3.1,1.2-4.5,1.4c-9.7,1.2-20.2,0-30,0C439.6,194.7,439.6,196.3,440.7,196.3L440.7,196.3z"/></g></g></g><g><g><g id="change2_97"><path fill="#38455d" d="M434.8,141c2.4,2.8,2.3,10.1,2.4,13.7c0,1,1.6,1,1.6,0c-0.1-4-0.3-8.1-1.5-11.9c-0.3-1-0.7-2.1-1.4-2.9 C435.3,139.1,434.2,140.3,434.8,141L434.8,141z"/></g></g></g><g><g><g id="change2_12"><path fill="#38455d" d="M360.1,137.3c7.5-3.8,15.9-6,24.1-7.2c1-0.1,0.6-1.7-0.4-1.5c-8.4,1.2-16.9,3.5-24.5,7.3 C358.4,136.4,359.2,137.7,360.1,137.3L360.1,137.3z"/></g></g></g><g><g><g id="change2_111"><path fill="#38455d" d="M313.9,167.1c-5.9,2.9-11.8,5.8-17.7,8.7c-0.9,0.5-0.1,1.8,0.8,1.4c5.9-2.9,11.8-5.8,17.7-8.7 C315.6,168.1,314.8,166.7,313.9,167.1L313.9,167.1z"/></g></g></g><g><g><g id="change2_78"><path fill="#38455d" d="M333.3,188c-11.6,4.7-23.1,9.5-34.7,14.2c-0.9,0.4-0.5,1.9,0.4,1.5c11.6-4.7,23.1-9.5,34.7-14.2 C334.7,189.1,334.3,187.6,333.3,188L333.3,188z"/></g></g></g><g><g><g id="change2_69"><path fill="#38455d" d="M236.3,127c-23.1-2.1-46.2-4.2-69.3-6.3c-0.5,0-0.8,0.4-0.8,0.8c-0.7,7.9-1.4,15.8-2.1,23.7 c-0.1,1.1,1.6,1.1,1.7,0c0.3-3.7,0.7-7.5,1-11.2c0.3-2.9-0.5-9.9,1.1-12.4c-0.9,1.4-0.8,0.5,0.5,0.9c1.1,0.3,2.6,0.2,3.8,0.3 c4.3,0.4,8.6,0.8,12.8,1.2c17.1,1.5,34.2,3.1,51.4,4.6C237.4,128.8,237.4,127.1,236.3,127L236.3,127z"/></g></g></g><g><g><g id="change2_66"><path fill="#38455d" d="M167,120.8c-4-0.4-8-0.8-11.9-1.2c-1.1-0.1-1.1,1.6,0,1.7c4,0.4,8,0.8,11.9,1.2 C168.1,122.6,168.1,120.9,167,120.8L167,120.8z"/></g></g></g><g><g><g id="change2_6"><path fill="#38455d" d="M48.1,315.7c-3.7,2.2-5.8-3.5-6.7-6c-0.6-1.9-1.3-3.8-1.7-5.8c-0.1-0.3-0.2-1.5-0.2-1.3 c0.2-1-1.3-1.4-1.5-0.4c-0.1,0.7,0.1,1.5,0.2,2.1c0.7,3.2,1.6,6.6,3.1,9.5c1.4,2.7,4.5,5.1,7.6,3.3 C49.8,316.6,49,315.2,48.1,315.7L48.1,315.7z"/></g></g></g><g><g><g id="change2_47"><path fill="#38455d" d="M86.8,198.8c6.1,11.3,12.5,22.5,17.7,34.2c0.4,1,1.9,0.1,1.5-0.9c-5.2-11.7-11.6-23-17.7-34.2 C87.7,196.9,86.2,197.8,86.8,198.8L86.8,198.8z"/></g></g></g><g><g><g><g id="change2_29"><path fill="#38455d" d="M115.2,359.8c19.5-0.1,39.7,0.4,59.1-2.3c0.5-0.1,0.6-0.6,0.6-1c-5.3-35.3-10.5-70.7-15.8-106 c-0.1-0.5-0.6-0.7-1-0.6c-30.8,7.3-65.3,7.9-96,0c-0.6-0.2-1,0.3-1.1,0.8c-1.1,8.8-1.7,17.8-1,26.7c0.4,5.3,1,10.7,1.3,16 c0.2,3.2,1.7,13.7-3.9,8.5c-0.7-0.6-1.5,0-1.4,0.8c0.5,3.2,0.8,6.4,1.1,9.5c0.1,1.4,0.7,4,0.1,5.3c-0.8,1.6-1.6,1-3.6,0.9 c-0.5,0-0.8,0.4-0.8,0.8c-1,13-2,26.1-2.9,39.1c0,0.5,0.4,0.8,0.8,0.8c18.2,0.4,36.4,0.5,54.6,0.5c0.5,0,0.8-0.4,0.8-0.8 c0.5-5.4,5-48.6,6.2-48.5c0.9,0.1,1.5,23.5,1.6,26.1c0.2,7.5,0.4,15,0.5,22.5c0,1.1,1.7,1.1,1.7,0c-0.2-14.9,0-30.1-1.8-44.8 c-0.2-1.7-0.3-6.6-2.9-4.7c-1.1,0.8-1.4,4.6-1.6,5.7c-0.7,3.9-1.3,7.9-1.8,11.8c-1.2,9-2.2,17.9-3.1,26.9 c-0.1,0.8,0,2.7-0.3,3.4c-1.1,2,0.8,0.4-1.1,1.1c-0.7,0.3-5.1-0.4-6.1-0.4c-2.5,0-5.1,0-7.6,0c-4.6,0-9.3-0.1-13.9-0.1 c-6.3-0.1-12.6-0.1-18.9-0.2c-1.4,0-3.3-0.4-4.7-0.1c-1.9,0.4-1.1-0.5-0.8,0.6c-0.6-2,0.4-5.9,0.6-8c0.4-5.1,0.8-10.2,1.1-15.3 c0.3-4.3,0.9-8.6,1-12.9c0-0.4-0.1-2.3,0.2-2.6c-1.3,1.3,2.5,1.3,3.2,0.9c3.8-2.1,0.6-14.4,0.1-18c-0.5,0.3-0.9,0.5-1.4,0.8 c8.9,8.3,7.1-4.6,6.8-10.6c-0.5-7.9-1.6-15.9-1.5-23.8c0-1.9-0.5-17,1.3-17.9c-0.4,0.2,5.4,2.2,5.9,2.3c2.3,0.5,4.7,0.9,7,1.3 c4.3,0.7,8.7,1.2,13,1.6c9.2,0.8,18.4,1,27.6,0.6c12.5-0.5,25-1.9,37.3-4.2c1.3-0.2,2.6-0.4,3.9-0.8c1.5-0.5,0.4,0,0-0.7 c0.6,1.2,0.5,3.2,0.7,4.4c1.2,7.8,2.3,15.7,3.5,23.5c3.1,20.6,6.1,41.2,9.2,61.8c0.6,3.7,1.1,7.5,1.7,11.2 c0.1,0.6,1.1,4.4,0.7,4.8c0.5-0.5-3.8-0.4-4.1-0.4c-1.8,0.1-3.7,0.3-5.6,0.4c-4.6,0.3-9.2,0.5-13.8,0.7 c-11.5,0.4-23.1,0.6-34.6,0.6C114.1,358.1,114.1,359.8,115.2,359.8z"/></g></g></g></g><g><g><g id="change2_27"><path fill="#38455d" d="M120.1,125.6c0,7.1,1.4,12-5.6,16c-10.4,5.9-28.4-3.7-29.2-15.4c-0.9-12.4-0.4-25-0.6-37.5 c0-0.5-0.5-1-1.1-0.8c-8.8,2.6-16.7-1.5-17.2-11.3c-0.3-5.3,1-12.5,7.7-12.3c2.4,0.1,3.3,0.8,5.7,0.2 c8.3-2.1,14.8-9.7,19.8-16.1c3-3.9,5.7-7.9,8.2-12.1c1.8-2.9,3.1-7.1,5.4-9.7c0.3-0.3,0.4-1.4,0.8-1.6c1.1-0.7,9.4,0.9,10.9,1 c7.6,0.8,15.2,2.2,22.6,4.4c8.5,2.6,16.9,6.2,24.2,11.4c1,0.7,3.9,2.2,4.3,3.5c0.4,1.1-2,6-2.5,7.9c-2.3,10.1-1.9,20.5-2.4,30.8 c-0.6,12.4-2.5,26-13.4,33.7c-16.4,11.6-39.4,9-55.3-1.7c-0.9-0.6-1.7,0.9-0.9,1.5c18.9,12.7,53.7,14.8,66.1-8.5 c10.3-19.4,1.7-43.3,10.2-63.3c0.2-0.4,0.2-0.7-0.1-1c-15.7-16.1-43.4-20.2-64.5-20.8c-0.3,0-0.6,0.2-0.7,0.4 c-2.6,5.3-5.6,10.5-8.8,15.5c-5.6,8.6-13.1,19.6-23.3,23c-4,1.4-8.2-1.2-11.9,1.7c-5.3,4.1-4.9,14.9-1.9,20.1 c3,5.2,9,6.5,14.5,5.7c0.7-0.1,1.6-0.4,2.3-0.4c1.2,0-0.7-1.6-0.5-0.4c0.4,2.8,0.1,6,0.2,8.8c0.1,8.2,0.3,16.4,0.4,24.6 c0.1,6,0.5,10,5.4,14.4c7.4,6.6,20.4,11.4,28.9,4.2c5.3-4.5,4-9.2,4-15.8C121.8,124.5,120.1,124.5,120.1,125.6L120.1,125.6z"/></g></g></g><g><g><g id="change2_7"><path fill="#38455d" d="M159.1,250.6c-3.6-38.3-7.2-76.2-13-114.3c-0.4,0.3-0.8,0.6-1.2,1c15.4,7.8,30.8,15.5,46.3,23.3 c1,0.5,2.2,0.9,3.1,1.6c0.9,0.7,0.6-1.4-0.3-0.1c-3.2,4.7-7.1,9.2-10.9,13.4c-4.3,4.7-11,13.2-17.4,14.8 c-3.7,1-8.8-0.5-12.7-0.8c-1.1-0.1-1.1,1.6,0,1.7c3.7,0.3,8.3,1.5,11.9,1c4-0.5,8.4-4.9,11.4-7.5c7.4-6.6,14-14.4,19.7-22.5 c0.3-0.4,0.1-1-0.3-1.2c-16.7-8.4-33.3-16.8-50-25.2c-0.7-0.4-1.4,0.2-1.2,1c5.8,37.9,9.4,75.7,13,113.8 C157.5,251.7,159.2,251.7,159.1,250.6L159.1,250.6z"/></g></g></g><g><g><g id="change2_25"><path fill="#38455d" d="M72.5,69.5c-3.8,4.9-2.8,10.7,2.4,14c0.9,0.6,1.8-0.9,0.9-1.5c-2.9-1.8-4.7-4.4-3.8-7.9 c0.3-1.1,1.2-2.9,1.7-3.5C74.4,69.8,73.2,68.6,72.5,69.5L72.5,69.5z"/></g></g></g><g><g><g id="change2_58"><path fill="#38455d" d="M55.1,318.7c-3.4,0.1-6.3-2.6-7.7-5.5c-1.2-2.4-1.9-5.2-2.6-7.7c-0.1-0.5-0.3-2.2-0.5-1.7 c0.4-0.9-0.9-1.7-1.4-0.8c-0.3,0.6,0,1.3,0.1,1.9c0.6,3.1,1.6,6.4,3,9.2c1.7,3.4,5.1,6.3,9.1,6.2 C56.1,320.2,56.1,318.6,55.1,318.7L55.1,318.7z"/></g></g></g><g><g><g id="change2_34"><path fill="#38455d" d="M49,304.1c1,4,1.9,8.1,3.4,11.9c0.6,1.5,1.2,3.1,2.6,4c0.9,0.5,1.7-0.8,0.8-1.4c-1.4-0.9-1.9-3.2-2.4-4.7 c-1.1-3.4-1.9-6.8-2.8-10.2C50.3,302.7,48.8,303.1,49,304.1L49,304.1z"/></g></g></g><g><g><g id="change2_30"><path fill="#38455d" d="M64.4,167.8c-0.7,27.6-1.4,55.2-3.3,82.8c-0.1,1,1.5,1,1.6,0c1.9-27.5,2.6-55.2,3.3-82.8 C66,166.8,64.4,166.8,64.4,167.8L64.4,167.8z"/></g></g></g><g><g><g id="change2_4"><path fill="#38455d" d="M40.3,310.6c-7.5-0.2-6.1-22.8-6.1-27.7c-0.1-12.4,0.4-24.8,0.9-37.2c0.7-16.6,1.6-33.1,2.7-49.7 c0.1-1-1.5-1-1.6,0c-1.3,19.6-2.4,39.2-3,58.8c-0.4,12.7-0.8,25.4-0.3,38.1c0.2,5.2-0.3,19,7.5,19.2 C41.3,312.2,41.3,310.6,40.3,310.6L40.3,310.6z"/></g></g></g><g><g id="change2_11"><ellipse rx="4" ry="4.7" fill="#38455d" cx="150.8" cy="74.4"/></g></g><g><g id="change2_14"><ellipse rx="4" ry="4.7" fill="#38455d" cx="117.9" cy="74.4"/></g></g><g><g><g id="change2_59"><path fill="#38455d" d="M136.5,71.8c0.8,2.9,1.5,5.9,1.9,9c0.3,2.1,0.9,5,0.3,7c-0.9,2.8-4.1,3.2-6.6,2.7c-1-0.2-1.4,1.3-0.4,1.5 c12.9,2.9,8.2-14,6.4-20.7C137.8,70.4,136.3,70.8,136.5,71.8L136.5,71.8z"/></g></g></g><g><g><g id="change2_63"><path fill="#38455d" d="M157.9,61.2c-3.7-2.3-8.4-3.2-12.8-2.8c-1.1,0.1-1.1,1.9,0,1.8c4-0.4,8.4,0.4,11.9,2.6 C158,63.3,158.9,61.8,157.9,61.2L157.9,61.2z"/></g></g></g><g><g><g id="change2_101"><path fill="#38455d" d="M110,62.9c3.4-2.2,7.8-3.1,11.8-2.9c1.1,0.1,1.1-1.7,0-1.8c-4.3-0.3-9,0.7-12.7,3.1 C108.2,62,109.1,63.5,110,62.9L110,62.9z"/></g></g></g><g><g><g id="change2_90"><path fill="#38455d" d="M57.7,303.2c-0.5-2.9-1-5.9-1.5-8.8c-0.2-1.1-1.8-0.6-1.6,0.4c0.5,2.9,1,5.9,1.5,8.8 C56.2,304.7,57.9,304.2,57.7,303.2L57.7,303.2z"/></g></g></g><g><g><g id="change2_109"><path fill="#38455d" d="M137.4,98c-4.9,0.3-10.2-1.7-14.6-3.4c-0.4-0.2-0.9,0.2-1,0.6c-1.1,3.7-0.6,8.6,3.5,10.1 c5.1,1.9,10.2-2,12.8-6.1c0.5-0.9-0.8-1.7-1.4-0.8c-2.1,3.3-6.2,6.7-10.3,5.6c-3.7-1-4-5.3-3.1-8.4c-0.3,0.2-0.7,0.4-1,0.6 c4.6,1.7,10,3.8,15.1,3.4C138.4,99.5,138.4,97.9,137.4,98z"/></g></g></g><g><g><g id="change2_8"><path fill="#38455d" d="M125.6,130.3c2,12.5-9.9,18.5-20.8,17.7c-11.1-0.8-21.5-8.4-25.4-18.9c-0.4-1-1.9-0.5-1.5,0.4 c4.7,12.6,17.5,20.8,30.8,20.1c11-0.5,20.3-8,18.5-19.8C127,128.9,125.4,129.3,125.6,130.3L125.6,130.3z"/></g></g></g><g><g><g id="change2_39"><path fill="#38455d" d="M84.5,127.2c-12.4,0-25.1,7.2-33.8,15.5c-10.1,9.6-16.8,22.4-21,35.6c-2.5,7.7-6.2,16.8,4.4,18 c9.8,1.2,20.3,0,30.2,0c1,0,1-1.6,0-1.6c-9.8,0-20.3,1.2-30,0c-1.4-0.2-3.3-0.4-4.5-1.4c-2-1.8-1.2-5.5-0.5-8.6 c2.5-9.5,6.2-18.9,11.4-27.3c9-14.5,25.5-28.8,43.6-28.7C85.5,128.8,85.5,127.2,84.5,127.2L84.5,127.2z"/></g></g></g><g><g><g id="change2_40"><path fill="#38455d" d="M69,139.9c-0.7,0.8-1.1,1.9-1.4,2.9c-1.2,3.8-1.4,8-1.5,11.9c0,1,1.6,1,1.6,0c0.1-3.7,0-11,2.4-13.7 C70.8,140.3,69.7,139.1,69,139.9L69,139.9z"/></g></g></g><g><g><g id="change2_41"><path fill="#38455d" d="M145.7,135.9c-7.6-3.8-16.1-6.2-24.5-7.3c-1-0.1-1.4,1.4-0.4,1.5c8.3,1.1,16.7,3.4,24.1,7.2 C145.8,137.7,146.6,136.4,145.7,135.9L145.7,135.9z"/></g></g></g><g><g><g id="change2_73"><path fill="#38455d" d="M190.3,168.5c5.8,4.1,11.6,8.2,17.4,12.3c0.8,0.6,1.6-0.8,0.8-1.4c-5.8-4.1-11.6-8.2-17.4-12.3 C190.2,166.6,189.4,167.9,190.3,168.5L190.3,168.5z"/></g></g></g><g><g><g id="change2_92"><path fill="#38455d" d="M171,189.4c11,6.5,22,13,33,19.5c0.9,0.5,1.7-0.9,0.8-1.4c-11-6.5-22-13-33-19.5 C170.9,187.5,170.1,188.9,171,189.4L171,189.4z"/></g></g></g><g><g><g id="change2_88"><path fill="#38455d" d="M230.1,127.4c-0.6,11.1,3.7,24.7,15.8,27.4c8,1.7,18.1-0.3,23.5-6.8c4.5-5.5,5.2-13.1,4.8-19.9 c-0.1-1-1.7-1-1.6,0c0.4,6.1,0,12.9-3.7,18c-5.2,7.3-17,9.6-25.2,6.5c-9.6-3.7-12.6-15.7-12-25.1 C231.8,126.4,230.2,126.4,230.1,127.4L230.1,127.4z"/></g></g></g><g><g><g id="change2_61"><path fill="#38455d" d="M366.4,133.9c3.5,8.2,11.3,18.1,21.3,16.8c3.4-0.4,6.3-2.2,9-4.2c2.3-1.7,0.3-1.5,2.2-0.5 c0.9,0.4,1.6,1.5,2.5,2.1c7.3,5.1,15.4,2.1,21.9-2.9c0.8-0.6,0-2-0.8-1.4c-7.5,5.7-17.1,7.9-23.6-0.3c-0.3-0.4-0.8-0.3-1.1,0 c-7.8,7-16.4,7.3-23.6-0.6c-2.6-2.9-4.8-6.3-6.4-9.9C367.3,132.2,366,133,366.4,133.9L366.4,133.9z"/></g></g></g><g><g><g id="change2_112"><path fill="#38455d" d="M315.5,158.6c0.3,1.6,2.6,3.4,3.6,4.5c3.3,3.8,6.6,7.6,9.9,11.4c5.1,5.8,10.2,11.5,15.4,17.3 c0.7,0.7,1.8-0.4,1.1-1.1c-4.6-5.1-9.1-10.2-13.6-15.3c-3.3-3.7-6.5-7.4-9.7-11.1c-1.2-1.3-4.7-4.2-5.1-6.1 C316.7,157.2,315.3,157.6,315.5,158.6L315.5,158.6z"/></g></g></g><g><g><g id="change2_81"><path fill="#38455d" d="M440.4,189.5c12.3,0,24.7,0,37,0c1,0,1-1.6,0-1.6c-12.3,0-24.7,0-37,0C439.4,187.9,439.4,189.5,440.4,189.5 L440.4,189.5z"/></g></g></g><g><g><g><g id="change2_93"><path fill="#38455d" d="M436.1,31.4c-1.3-2.6-2.8-8.5-5.7-9.9c-3.5-1.8-6.7,4-8.5,6c-3.7,4.1-7.6,3.5-12.9,4 c-3.3,0.3-5.2,1.1-4.5,4.7c0.5,2.4,3,8.7,5.3,10c3.4,1.9,6.8-3.6,8.6-5.6c3.8-4,6.3-3.9,11.7-4.3c3.2-0.2,6.9-0.4,6-4.6 c-0.2-1.1-1.8-0.6-1.6,0.4c0.7,3.5-8.9,2.7-10.6,2.9c-2,0.2-2.8,0.5-4.4,1.9c-1.9,1.7-4.5,6.4-6.9,7.2c-3.1,1.1-3.6-2-4.5-4 c-0.4-0.9-2.3-3.7-2.2-4.7c0.4-3.6,8.5-2.6,11-2.9c2.3-0.2,3.2-0.7,4.8-2.4c1.7-1.8,5.3-8.3,8.6-6.3c1.7,1.1,3.3,6.5,4.2,8.4 C435.1,33.3,436.5,32.4,436.1,31.4z"/></g></g></g></g><g><g><g id="change2_86"><path fill="#38455d" d="M106.7,294.8c1.1,6.4,3.1,13.3,6.9,18.7c0.6,0.9,2.1,0,1.5-0.9c-3.7-5.3-5.6-12-6.7-18.3 C108.2,293.3,106.5,293.7,106.7,294.8L106.7,294.8z"/></g></g></g><g><g id="change2_2"><path fill="#38455d" d="M179.4,27.2c-2-8.9-7.9-15.8-15.8-20.1c-15.7-8.5-36.3-8.2-53.4-5C108,2.5,99.5,3.7,96.4,6.3 c-11.9,1-36.9,8.1-38,49.9c-1.3,20,7.1,27.6,7.1,27.6c0.7,0.7,2,0.6,2,0.6l-1.9-6.3c-1.7-10.7,1.5-10.8,3.2-12.9 c1.7-2.1,8.4-0.9,15.5-3.4c7.1-2.4,23.5-27.2,23.5-27.2s43.5,27.4,54.4,13.5c1.8-2.3,1.9-4.8,0.8-7.2c10.8,9.8,9.8,23.9,9.8,24.3 c0.3-3.4,3.2-7.8,4.2-11.1c1.1-3.4,1.9-6.8,2.5-10.3C180.5,38.3,180.7,32.6,179.4,27.2z"/></g></g></g><g id="Layer_10"><g><g id="change1_3"><path fill="#ffffff" d="M434.2,113.6c0,0-5.8-2.1-10.1,2.2C419.9,120,415,133,415,133s-5,10.3-1.9,11.3c3.1,0.9,4,2,6.1,1.4 s7.1-2.3,7.1-2.3s1.5,2.7,4.6,2c3.1-0.7,7.6-4.8,7.6-4.8s4.6,0.7,7.7-3.3c3.1-4,3.4-8.5,1-12.8S439.7,113.9,434.2,113.6z"/></g></g><g><g id="change1_5"><path fill="#ffffff" d="M73.2,113.6c0,0,5.8-2.1,10.1,2.2c4.3,4.2,9.1,17.1,9.1,17.1s5,10.3,1.9,11.3s-4,2-6.1,1.4s-7.1-2.3-7.1-2.3 s-1.5,2.7-4.6,2c-3.1-0.7-7.6-4.8-7.6-4.8s-4.6,0.7-7.7-3.3c-3.1-4-3.4-8.5-1-12.8C62.7,120.1,67.7,113.9,73.2,113.6z"/></g></g></g><g id="Layer_9"><g><g><g><g><g id="change2_46"><path fill="#38455d" d="M415.1,145.7c5.6,1.5,11.5-1.2,15.3-5.2c2.3-2.4,4.9-5.3,6.6-8.2c0.3-0.6,0.8-1.1,0.7-1.8 c-0.2-1-1.7-0.6-1.5,0.4c-0.1-0.6-0.8,0.9-1.1,1.4c-1.7,2.5-3.7,4.9-5.8,7.1c-3.4,3.6-8.7,6.2-13.7,4.8 C414.5,143.9,414.1,145.5,415.1,145.7L415.1,145.7z"/></g></g></g><g><g><g id="change2_48"><path fill="#38455d" d="M425.7,144.5c3.3,3.1,8,1.2,10.9-1.4c2.9-2.6,5.5-6,7.7-9.2c0.4-0.6,1.1-1.4,1.2-2.2 c0.1-1-1.4-1.4-1.5-0.4c-0.3,2.3-3.6,5.2-5,6.9c-2.5,3-7.9,9.2-12.2,5.2C426.1,142.7,424.9,143.8,425.7,144.5L425.7,144.5z"/></g></g></g><g><g><g id="change2_82"><path fill="#38455d" d="M437.6,141.5c4.2,1,8.2-2.3,10.5-5.5c1.9-2.7,1.6-5.1,0.9-8.3c-2.2-10.6-16.2-20.5-26.1-12 c-3.3,2.9-4.6,7.8-6.2,11.8c-1.6,4-5.5,10-5.7,14.3c-0.2,3,2,4.1,4.8,3.1c5.7-1.9,10.3-10.8,13.6-15.2 c0.6-0.8-0.8-1.6-1.4-0.8c-3.2,4.3-6.5,10.2-11,13.4c-3.5,2.5-4.5,0.8-3.5-2.5c1.8-6,4.5-12.8,7.4-18.4 c6.3-12.4,22.7-6.3,26.1,4.9c0.6,1.9,1.4,4.6,0.9,6.6c-0.8,3.4-6,7.9-9.9,7C437.1,139.7,436.6,141.3,437.6,141.5L437.6,141.5z"/></g></g></g></g></g><g><g><g><g><g id="change2_108"><path fill="#38455d" d="M91.9,144.2c-5,1.3-10.3-1.2-13.7-4.8c-2.1-2.2-4.1-4.6-5.8-7.1c-0.3-0.4-1-2-1.1-1.4 c0.2-1-1.4-1.4-1.5-0.4c-0.1,0.7,0.4,1.2,0.7,1.8c1.7,2.9,4.3,5.8,6.6,8.2c3.8,4,9.7,6.7,15.3,5.2 C93.3,145.5,92.9,143.9,91.9,144.2L91.9,144.2z"/></g></g></g><g><g><g id="change2_71"><path fill="#38455d" d="M80.6,143.4c-4.2,4-9.7-2.3-12.2-5.2c-1.4-1.7-4.7-4.5-5-6.9c-0.1-1-1.7-0.6-1.5,0.4 c0.1,0.8,0.8,1.6,1.2,2.2c2.2,3.2,4.8,6.6,7.7,9.2c2.9,2.6,7.6,4.4,10.9,1.4C82.5,143.8,81.4,142.7,80.6,143.4L80.6,143.4z"/></g></g></g><g><g><g id="change2_32"><path fill="#38455d" d="M69.4,140c-3.7,0.9-9.2-3.5-9.9-6.8c-0.4-1.9,0.3-4.5,0.8-6.3c3.1-11.5,19.8-18,26.2-5.4 c2.9,5.7,4.8,12.1,7.2,18c1.1,2.8,1,5.5-2.7,3.3c-4.8-2.8-8.4-9.5-11.6-13.8c-0.6-0.8-2,0-1.4,0.8c3.3,4.5,7.9,13.3,13.6,15.2 c2.7,0.9,4.9-0.1,4.8-3.1c-0.2-4.3-4.2-10.4-5.8-14.4c-1.6-3.9-2.8-8.9-6.2-11.8c-9.6-8.3-23.5,1.2-26,11.6 c-0.8,3.3-1.2,5.9,0.8,8.7c2.2,3.1,6.3,6.4,10.5,5.5C70.8,141.3,70.4,139.7,69.4,140L69.4,140z"/></g></g></g></g></g></g></svg>