<?xml version="1.0" encoding="UTF-8"?><svg xmlns="http://www.w3.org/2000/svg" xmlns:xlink="http://www.w3.org/1999/xlink" contentScriptType="text/ecmascript" fill="#000000" width="518.9" zoomAndPan="magnify" contentStyleType="text/css" viewBox="-18.9 -21.5 518.9 536.6" height="536.6" preserveAspectRatio="xMidYMid meet" version="1"><g id="change1_1"><circle fill="#ffccbf" r="246.9" cx="249.7" cy="249.9"/></g><g fill="#ffffff" id="change2_1"><path fill="inherit" d="M182.7 184.8H417.1V342.1H182.7z"/><path fill="inherit" d="M176.6 261L126.9 289.7 77.2 318.3 77.2 261 77.2 203.6 126.9 232.3z"/></g><g><g id="change3_7"><path fill="#38455d" d="M493.4,249.9c-0.7,101.7-65,194.9-161.3,229.4c-96,34.4-205.8,4-270.7-74.6c-64.7-78.4-73.2-192.5-21-279.7 C93.1,37.1,198.2-9.5,298.6,11.2C411.3,34.3,492.6,135.5,493.4,249.9c0,4.2,6.5,4.2,6.5,0c-0.7-103.6-65.4-198.1-162.8-234.5 C238.4-21.5,123.9,9.4,56.9,90.6c-66.6,80.7-75.8,197.7-22,287.6c53.5,89.5,159.6,136.9,262.1,117.5 c117.1-22.2,202.2-127.3,203-245.7C500,245.8,493.5,245.8,493.4,249.9z"/></g><g><g><g id="change3_3"><path fill="#38455d" d="M417.1,338.5c-68.4,0-136.8,0-205.2,0c-9.7,0-19.5,0-29.2,0c1.2,1.2,2.4,2.4,3.6,3.6 c0-52.4,0-104.9,0-157.3c-1.2,1.2-2.4,2.4-3.6,3.6c68.4,0,136.8,0,205.2,0c9.7,0,19.5,0,29.2,0c-1.2-1.2-2.4-2.4-3.6-3.6 c0,52.4,0,104.9,0,157.3c0,4.7,7.2,4.7,7.2,0c0-52.4,0-104.9,0-157.3c0-2-1.7-3.6-3.6-3.6c-68.4,0-136.8,0-205.2,0 c-9.7,0-19.5,0-29.2,0c-2,0-3.6,1.7-3.6,3.6c0,52.4,0,104.9,0,157.3c0,2,1.7,3.6,3.6,3.6c68.4,0,136.8,0,205.2,0 c9.7,0,19.5,0,29.2,0C421.7,345.7,421.7,338.5,417.1,338.5z"/></g></g><g><g id="change3_10"><path fill="#38455d" d="M174.7,257.8c-33.1,19.1-66.2,38.2-99.4,57.4c1.8,1,3.6,2.1,5.4,3.1c0-38.2,0-76.5,0-114.7 c-1.8,1-3.6,2.1-5.4,3.1c33.1,19.1,66.2,38.2,99.4,57.4c4,2.3,7.7-3.9,3.7-6.3c-33.1-19.1-66.2-38.2-99.4-57.4 c-2.4-1.4-5.4,0.4-5.4,3.1c0,38.2,0,76.5,0,114.7c0,2.8,3.1,4.5,5.4,3.1c33.1-19.1,66.2-38.2,99.4-57.4 C182.4,261.8,178.8,255.5,174.7,257.8z"/></g></g></g><g><g id="change3_5"><path fill="#38455d" d="M323.2,291.5c0,12.6,0,25.3,0,37.9c0,5.3,8.2,5.3,8.2,0c0-12.6,0-25.3,0-37.9 C331.4,286.2,323.2,286.2,323.2,291.5L323.2,291.5z"/></g><g id="change3_1"><path fill="#38455d" d="M323.2,400.8c0,12.6,0,25.3,0,37.9c0,5.3,8.2,5.3,8.2,0c0-12.6,0-25.3,0-37.9 C331.4,395.6,323.2,395.5,323.2,400.8L323.2,400.8z"/></g><g id="change3_9"><path fill="#38455d" d="M401,361c-12.6,0-25.3,0-37.9,0c-5.3,0-5.3,8.2,0,8.2c12.6,0,25.3,0,37.9,0C406.2,369.2,406.2,361,401,361 L401,361z"/></g><g id="change3_2"><path fill="#38455d" d="M291.6,361c-12.6,0-25.3,0-37.9,0c-5.3,0-5.3,8.2,0,8.2c12.6,0,25.3,0,37.9,0 C296.8,369.2,296.9,361,291.6,361L291.6,361z"/></g><g id="change3_6"><path fill="#38455d" d="M382.3,414.3c-8.9-8.9-17.9-17.9-26.8-26.8c-3.7-3.7-9.6,2.1-5.8,5.8c8.9,8.9,17.9,17.9,26.8,26.8 C380.2,423.8,386,418,382.3,414.3L382.3,414.3z"/></g><g id="change3_11"><path fill="#38455d" d="M304.9,336.9c-8.9-8.9-17.9-17.9-26.8-26.8c-3.7-3.7-9.6,2.1-5.8,5.8c8.9,8.9,17.9,17.9,26.8,26.8 C302.9,346.5,308.7,340.7,304.9,336.9L304.9,336.9z"/></g><g id="change3_8"><path fill="#38455d" d="M278.1,420.1c8.9-8.9,17.9-17.9,26.8-26.8c3.7-3.7-2.1-9.6-5.8-5.8c-8.9,8.9-17.9,17.9-26.8,26.8 C268.6,418,274.4,423.8,278.1,420.1L278.1,420.1z"/></g><g id="change3_12"><path fill="#38455d" d="M355.5,342.7c8.9-8.9,17.9-17.9,26.8-26.8c3.7-3.7-2.1-9.6-5.8-5.8c-8.9,8.9-17.9,17.9-26.8,26.8 C345.9,340.7,351.7,346.5,355.5,342.7L355.5,342.7z"/></g></g><g id="change3_4"><path fill="#38455d" d="M413.8 396L380.6 390 347.5 384.1 353.2 417.3 358.9 450.6 376.5 433 425.2 482 444.9 462.5 396.2 413.5z"/></g></g></svg>