<?xml version="1.0" encoding="UTF-8"?><svg xmlns="http://www.w3.org/2000/svg" xmlns:xlink="http://www.w3.org/1999/xlink" contentScriptType="text/ecmascript" fill="#000000" width="502.3" zoomAndPan="magnify" contentStyleType="text/css" viewBox="-0.3 -0.8 502.3 460.0" height="460" preserveAspectRatio="xMidYMid meet" version="1"><g fill="#ffffff" id="change1_2"><path fill="inherit" d="M408.9,456.3L408.9,456.3c-7.4,0-13.5-6-13.5-13.5v-12.9h26.9v12.9C422.3,450.2,416.3,456.3,408.9,456.3z"/><path fill="inherit" d="M395.4 176.3H422.29999999999995V429.9H395.4z"/><path fill="inherit" d="M395.4 176.3L408.9 141.9 422.3 176.3z"/><path fill="inherit" d="M477.2,452.3h-10.3c-11.3,0-20.5-9.2-20.5-20.5v-51.8c0-11.3,9.2-20.5,20.5-20.5h10.3 c11.3,0,20.5,9.2,20.5,20.5v51.8C497.7,443,488.5,452.3,477.2,452.3z"/></g><g id="change2_2"><path fill="#f9cc88" d="M26 2.7H371.3V453.2H26z"/></g><g id="change1_1"><path fill="#ffffff" d="M157.3 83.9H312.3V110.2H157.3z"/></g><g><g><g id="change3_17"><path fill="#38455d" d="M371.3,450.5c-101.1,0-202.1,0-303.2,0c-14,0-28.1,0-42.1,0c0.9,0.9,1.8,1.8,2.7,2.7c0-51,0-101.9,0-152.9 c0-80.5,0-161,0-241.5c0-18.7,0-37.5,0-56.2c-0.9,0.9-1.8,1.8-2.7,2.7c101.1,0,202.1,0,303.2,0c14,0,28.1,0,42.1,0 c-0.9-0.9-1.8-1.8-2.7-2.7c0,51,0,101.9,0,152.9c0,80.5,0,161,0,241.5c0,18.7,0,37.5,0,56.2c0,3.4,5.3,3.4,5.3,0 c0-51,0-101.9,0-152.9c0-80.5,0-161,0-241.5c0-18.7,0-37.5,0-56.2c0-1.4-1.2-2.7-2.7-2.7C270.2,0,169.2,0,68.1,0 C54.1,0,40.1,0,26,0c-1.4,0-2.7,1.2-2.7,2.7c0,51,0,101.9,0,152.9c0,80.5,0,161,0,241.5c0,18.7,0,37.5,0,56.2 c0,1.4,1.2,2.7,2.7,2.7c101.1,0,202.1,0,303.2,0c14,0,28.1,0,42.1,0C374.7,455.9,374.7,450.5,371.3,450.5z"/></g></g><g id="change3_13"><path fill="#38455d" d="M100.3,2.7c0,51,0,101.9,0,152.9c0,80.5,0,161,0,241.5c0,18.7,0,37.5,0,56.2c0,3.4,5.3,3.4,5.3,0 c0-51,0-101.9,0-152.9c0-80.5,0-161,0-241.5c0-18.7,0-37.5,0-56.2C105.6-0.8,100.3-0.8,100.3,2.7L100.3,2.7z"/></g><g id="change3_3"><path fill="#38455d" d="M5.3,127.4c1.6-19.5,39.7-19.5,41.3,0c0.3,3.4,5.6,3.4,5.3,0c-2.2-26.4-49.8-26.4-52,0 C-0.3,130.8,5.1,130.8,5.3,127.4L5.3,127.4z"/></g><g id="change3_15"><path fill="#38455d" d="M5.3,83.9C7,64.4,45,64.4,46.7,83.9c0.3,3.4,5.6,3.4,5.3,0c-2.2-26.4-49.8-26.4-52,0 C-0.3,87.3,5.1,87.3,5.3,83.9L5.3,83.9z"/></g><g id="change3_18"><path fill="#38455d" d="M5.3,40.4C7,21,45,21,46.7,40.4c0.3,3.4,5.6,3.4,5.3,0c-2.2-26.4-49.8-26.4-52,0C-0.3,43.8,5.1,43.8,5.3,40.4 L5.3,40.4z"/></g><g id="change3_5"><path fill="#38455d" d="M5.3,257.7c1.6-19.5,39.7-19.5,41.3,0c0.3,3.4,5.6,3.4,5.3,0c-2.2-26.4-49.8-26.4-52,0 C-0.3,261.2,5.1,261.1,5.3,257.7L5.3,257.7z"/></g><g id="change3_7"><path fill="#38455d" d="M5.3,214.3c1.6-19.5,39.7-19.5,41.3,0c0.3,3.4,5.6,3.4,5.3,0c-2.2-26.4-49.8-26.4-52,0 C-0.3,217.7,5.1,217.7,5.3,214.3L5.3,214.3z"/></g><g id="change3_8"><path fill="#38455d" d="M5.3,170.8c1.6-19.5,39.7-19.5,41.3,0c0.3,3.4,5.6,3.4,5.3,0c-2.2-26.4-49.8-26.4-52,0 C-0.3,174.2,5.1,174.2,5.3,170.8L5.3,170.8z"/></g><g id="change3_9"><path fill="#38455d" d="M5.3,388.1c1.6-19.5,39.7-19.5,41.3,0c0.3,3.4,5.6,3.4,5.3,0c-2.2-26.4-49.8-26.4-52,0 C-0.3,391.6,5.1,391.5,5.3,388.1L5.3,388.1z"/></g><g id="change3_11"><path fill="#38455d" d="M5.3,431.6c1.6-19.5,39.7-19.5,41.3,0c0.3,3.4,5.6,3.4,5.3,0c-2.2-26.4-49.8-26.4-52,0 C-0.3,435,5.1,435,5.3,431.6L5.3,431.6z"/></g><g id="change3_6"><path fill="#38455d" d="M5.3,344.7c1.6-19.5,39.7-19.5,41.3,0c0.3,3.4,5.6,3.4,5.3,0c-2.2-26.4-49.8-26.4-52,0 C-0.3,348.1,5.1,348.1,5.3,344.7L5.3,344.7z"/></g><g id="change3_16"><path fill="#38455d" d="M5.3,301.2c1.6-19.5,39.7-19.5,41.3,0c0.3,3.4,5.6,3.4,5.3,0c-2.2-26.4-49.8-26.4-52,0 C-0.3,304.6,5.1,304.6,5.3,301.2L5.3,301.2z"/></g><g><g id="change3_12"><path fill="#38455d" d="M312.2,107.6c-51.7,0-103.3,0-155,0c0.9,0.9,1.8,1.8,2.7,2.7c0-8.8,0-17.6,0-26.3c-0.9,0.9-1.8,1.8-2.7,2.7 c51.7,0,103.3,0,155,0c-0.9-0.9-1.8-1.8-2.7-2.7c0,8.8,0,17.6,0,26.3c0,3.4,5.3,3.4,5.3,0c0-8.8,0-17.6,0-26.3 c0-1.4-1.2-2.7-2.7-2.7c-51.7,0-103.3,0-155,0c-1.4,0-2.7,1.2-2.7,2.7c0,8.8,0,17.6,0,26.3c0,1.4,1.2,2.7,2.7,2.7 c51.7,0,103.3,0,155,0C315.7,112.9,315.7,107.6,312.2,107.6z"/></g></g><g><g><g id="change3_1"><path fill="#38455d" d="M408.9,453.6c-12.9,0-10.8-15.1-10.8-23.7c-0.9,0.9-1.8,1.8-2.7,2.7c9,0,17.9,0,26.9,0 c-0.9-0.9-1.8-1.8-2.7-2.7C419.6,438.9,421.7,452.9,408.9,453.6c-3.5,0.2-3.5,5.6,0,5.4c8.2-0.4,15-6,16-14.3 c0.6-4.8,0.1-9.9,0.1-14.7c0-1.5-1.2-2.7-2.7-2.7c-9,0-17.9,0-26.9,0c-1.5,0-2.7,1.2-2.7,2.7c0,4.9-0.5,10.2,0.2,15.1 c1.1,7.9,8,14,16,14C412.3,458.9,412.3,453.6,408.9,453.6z"/></g></g><g><g id="change3_14"><path fill="#38455d" d="M422.3,427.2c-9,0-17.9,0-26.9,0c0.9,0.9,1.8,1.8,2.7,2.7c0-74,0-148,0-222c0-10.5,0-21.1,0-31.6 c-0.9,0.9-1.8,1.8-2.7,2.7c9,0,17.9,0,26.9,0c-0.9-0.9-1.8-1.8-2.7-2.7c0,74,0,148,0,222c0,10.5,0,21.1,0,31.6 c0,3.4,5.3,3.4,5.3,0c0-74,0-148,0-222c0-10.5,0-21.1,0-31.6c0-1.4-1.2-2.7-2.7-2.7c-9,0-17.9,0-26.9,0c-1.4,0-2.7,1.2-2.7,2.7 c0,74,0,148,0,222c0,10.5,0,21.1,0,31.6c0,1.4,1.2,2.7,2.7,2.7c9,0,17.9,0,26.9,0C425.7,432.6,425.8,427.2,422.3,427.2z"/></g></g><g><g id="change3_4"><path fill="#38455d" d="M398,177c4.5-11.5,9-23,13.5-34.4c-1.7,0-3.4,0-5.1,0c4.5,11.5,9,23,13.5,34.4c0.9-1.1,1.7-2.3,2.6-3.4 c-9,0-17.9,0-26.9,0c-3.4,0-3.4,5.3,0,5.3c9,0,17.9,0,26.9,0c1.6,0,3.2-1.7,2.6-3.4c-4.5-11.5-9-23-13.5-34.4 c-1-2.5-4.2-2.5-5.1,0c-4.5,11.5-9,23-13.5,34.4C391.6,178.8,396.7,180.2,398,177z"/></g></g></g><g><g id="change3_2"><path fill="#38455d" d="M477.2,450.1c-13.3,0-27.5-1.4-28.6-18.4c-0.4-6.1,0-12.4,0-18.6c0-16.9-6.2-49.9,18.4-51.6 c13.3-0.9,27.6,2.2,28.6,18.4c0.4,5.5,0,11.1,0,16.6C495.6,413.6,502,448.4,477.2,450.1c-2.7,0.2-2.8,4.5,0,4.3 c22.4-1.5,22.7-21.1,22.7-38.3c0-10.2,0-20.4,0-30.6c0-7.1-0.3-13.7-4.9-19.6c-11.2-14.3-41.6-12-48.9,5.2 c-2.7,6.4-1.8,14-1.8,20.7c0,10.2,0,20.4,0,30.6c0,8.3-0.6,16.4,4.9,23.3c7.2,9.1,17.6,8.6,28,8.6 C479.9,454.4,479.9,450.1,477.2,450.1z"/></g></g></g><g id="change2_1"><path fill="#f9cc88" d="M446.4 383.8H497.7V427.1H446.4z"/></g><g><g><g id="change3_10"><path fill="#38455d" d="M497.7,424.8c-17.1,0-34.2,0-51.3,0c0.8,0.8,1.5,1.5,2.3,2.3c0-14.4,0-28.9,0-43.3c-0.8,0.8-1.5,1.5-2.3,2.3 c17.1,0,34.2,0,51.3,0c-0.8-0.8-1.5-1.5-2.3-2.3c0,14.4,0,28.9,0,43.3c0,2.9,4.6,2.9,4.6,0c0-14.4,0-28.9,0-43.3 c0-1.2-1-2.3-2.3-2.3c-17.1,0-34.2,0-51.3,0c-1.2,0-2.3,1-2.3,2.3c0,14.4,0,28.9,0,43.3c0,1.2,1,2.3,2.3,2.3 c17.1,0,34.2,0,51.3,0C500.7,429.4,500.7,424.8,497.7,424.8z"/></g></g></g></svg>