<?xml version="1.0" encoding="UTF-8"?><svg xmlns="http://www.w3.org/2000/svg" xmlns:xlink="http://www.w3.org/1999/xlink" contentScriptType="text/ecmascript" fill="#000000" width="405.6" zoomAndPan="magnify" contentStyleType="text/css" viewBox="-22.6 0.0 405.6 507.1" height="507.1" preserveAspectRatio="xMidYMid meet" version="1"><g id="Layer_8"><g id="change1_1"><path fill="#ffffff" d="M82.1,355c0.6,0.5,7.4,110.7,7.4,110.7l22.2-5.8L125.4,357L82.1,355z"/></g><g><g id="change1_4"><path fill="#ffffff" d="M112.5,451.7c0,0-14.2,14.9-23.7,5.2c0,0-10.5,6.2-8.1,22.1c0,0,48.3,25.4,64.1,19.1s14.1-20.2-0.6-25.8 C129.5,466.6,112.5,451.7,112.5,451.7z"/></g></g><g><g id="change1_2"><path fill="#ffffff" d="M288.2,456.9l5.9-98.1l-42.4-1l13.3,93.9l-2.8,4.1c0,0-14.6,10.7-29.4,16.3c-14.7,5.6-16.4,19.5-0.6,25.8 s57.9-17.5,57.9-17.5C292.5,464.7,288.2,456.9,288.2,456.9"/></g></g></g><g id="Layer_5"><g><g><g id="change2_61"><path fill="#38455d" d="M89.6,456.9c-0.9-14.6-1.7-29.1-2.6-43.7c-0.7-10.9-1.3-21.7-2-32.6c-0.4-6.3,0.4-14.2-1.2-20.3 c-0.1-0.3-0.2-1.1-0.1-1.4c-0.5,1.5-0.8,0.4,1,0.7c3.7,0.7,8.4-0.2,12.2-0.3c8.9-0.2,18.7,0.7,27.5-0.6c1.4-0.2,0-0.9,0-0.8 c0,0.6-0.2,1.4-0.3,2c-0.7,2.9-0.9,6-1.3,9c-1.4,9.9-2.8,19.8-4.2,29.7c-2.5,17.6-5,35.3-7.5,52.9c-0.2,1.1,1.5,1.5,1.6,0.4 c4.4-31.3,8.9-62.6,13.3-93.9c0.1-0.5-0.2-1.1-0.8-1.1c-14.1,0.3-28.3,0.7-42.4,1c-0.4,0-0.9,0.4-0.8,0.8 c2,32.7,3.9,65.4,5.9,98.1C88,458,89.7,458,89.6,456.9L89.6,456.9z"/></g></g></g><g><g><g><g id="change2_2"><path fill="#38455d" d="M111.9,451.1c-5.7,5.8-15.3,11.7-22.5,5.2c-0.3-0.2-0.7-0.3-1-0.1c-2.8,1.7-5,4.6-6.5,7.5 c-1.8,3.5-4.4,12.5-1.7,15.9c1.3,1.6,5.4,2.7,7.2,3.6c5.2,2.5,10.5,4.9,15.8,7.1c11.3,4.7,25.5,11,38.1,9.4 c10-1.3,20.1-11.7,13-21.4c-5.3-7.2-16-9.4-23.3-14c-6.2-3.9-12.2-8.4-17.8-13.2c-0.8-0.7-2,0.5-1.2,1.2 c9.6,8.4,20.3,15.6,32,20.7c5,2.2,10.7,5.7,11.1,11.8c0.4,5.9-5.2,10.2-10.1,12.1c-5.8,2.3-12.4,0.9-18.3-0.5 c-13-3.1-25.5-8.6-37.5-14.3c-1.7-0.8-6.9-2.3-8-4c-0.5-0.7,0-4.3,0.1-5.2c0.1-2.6,0.7-5,1.7-7.3c0.9-2.2,2.8-6.2,5.2-7.2 c1.9-0.8,1.9,0.9,4.4,1.8c2.6,1,5.4,0.8,8,0c4.7-1.4,9.2-4.6,12.6-8.1C113.9,451.5,112.7,450.3,111.9,451.1z"/></g></g></g></g><g><g><g id="change2_11"><path fill="#38455d" d="M155.2,483.6c-10.7,13.3-27.2,9.8-41,4.7c-11.4-4.2-22.6-9.3-33.4-14.7c-1-0.5-1.8,1-0.8,1.5 c12.3,6.2,25,12,38,16.4c13.2,4.5,28.6,5.6,38.4-6.6C157.1,483.9,155.9,482.7,155.2,483.6L155.2,483.6z"/></g></g></g><g><g><g id="change2_37"><path fill="#38455d" d="M109.1,376.2c-2.5,2.6-6.5,5.3-10.3,4.5c-1-0.2-1.4,1.3-0.4,1.5c4.4,0.9,8.8-1.9,11.8-4.9 C110.9,376.6,109.8,375.5,109.1,376.2L109.1,376.2z"/></g></g></g><g><g><g id="change2_25"><path fill="#38455d" d="M115.9,423.5c-9.4,1.2-19.5,1.9-28.9,0c-1.1-0.2-1.5,1.4-0.4,1.6c9.5,1.9,19.7,1.2,29.3,0 C117,425.1,117,423.4,115.9,423.5L115.9,423.5z"/></g></g></g><g><g><g id="change2_56"><path fill="#38455d" d="M115.9,429.3c-9.4,1.2-19.5,1.9-28.9,0c-1.1-0.2-1.5,1.4-0.4,1.6c9.5,1.9,19.7,1.2,29.3,0 C117,430.8,117,429.1,115.9,429.3L115.9,429.3z"/></g></g></g><g><g><g><g><g id="change2_1"><path fill="#38455d" d="M289,456.9c2-32.7,3.9-65.4,5.9-98.1c0-0.5-0.4-0.8-0.8-0.8c-14.1-0.3-28.3-0.7-42.4-1 c-0.6,0-0.9,0.5-0.8,1.1c1.9,13.4,3.8,26.9,5.7,40.3c2.4,16.9,6.2,34.2,7.3,51.2c0.2,2.6,0.6,1.7-1,3.8 c-2.5,3.3-5.9,5.1-9.5,7.3c-7.3,4.5-15,7.7-22.7,11.5c-4.2,2.1-8.4,5.2-9.9,9.9c-2.8,9.2,7.1,16.6,15.2,17.6 c10,1.3,21-3.1,30-6.7c5.2-2.1,10.3-4.4,15.3-6.9c2.5-1.2,7.2-2.7,9.2-4.8c2.6-2.9,1.4-11.3,1-15.1c-0.4-3.3-0.9-6.8-2.5-9.8 c-0.5-1-2-0.1-1.5,0.8c1,1.9,1.5,4.2,1.9,6.3c0.7,3.6,2.2,13.3,0.1,16.3c-0.7,1-3.3,1.8-4.4,2.4c-3.4,1.8-6.9,3.5-10.4,5.1 c-8.4,3.9-17.2,7.5-26.2,9.6c-9,2-25.6,1.8-26.4-11c-0.5-7.8,7.2-11.2,13.1-13.8c6-2.6,11.9-5.6,17.5-9 c3.8-2.3,11.3-5.6,12.8-10.6c0.5-1.8-0.1-3.9-0.4-5.7c-0.8-5.6-1.6-11.2-2.4-16.8c-2.2-15.5-4.4-31-6.6-46.5 c-0.9-6.2-1.8-12.4-2.6-18.5c-0.2-1.7-0.3-3.5-0.7-5.1c-0.6-2.4,0.4-1.5-1.1-1.1c4.2-1.2,10.9,0.3,15.3,0.4 c7.5,0.2,14.9,0.3,22.4,0.5c1.1,0,3.6-0.4,4.6,0.1c-1.5-0.7-0.3-0.7-0.8,1c-1.1,4-0.6,9.3-0.8,13.5c-1.7,27.6-3.3,55.2-5,82.7 C287.3,458,289,458,289,456.9L289,456.9z"/></g></g></g></g><g><g><g id="change2_52"><path fill="#38455d" d="M220.6,484.7c18,22.4,51.7,1.9,70.6-8.6c0.9-0.5,0.1-2-0.8-1.5c-18.2,10.2-51.2,30.4-68.5,8.9 C221.1,482.7,219.9,483.9,220.6,484.7L220.6,484.7z"/></g></g></g><g><g><g id="change2_28"><path fill="#38455d" d="M264.9,377.3c3,3,7.4,5.9,11.8,4.9c1-0.2,0.6-1.7-0.4-1.5c-3.8,0.8-7.7-1.9-10.3-4.5 C265.3,375.5,264.2,376.6,264.9,377.3L264.9,377.3z"/></g></g></g><g><g><g id="change2_3"><path fill="#38455d" d="M235.5,470.5c-2.7,11.6,13,11.5,19.9,8.8c11.7-4.7,26.9-10.3,33.5-21.9c0.5-0.9-0.9-1.8-1.5-0.8 c-5,8.8-15.6,13.7-24.5,17.7c-4.3,1.9-8.9,4.4-13.6,5.1c-5.2,0.8-13.8-1.5-12.2-8.4C237.4,469.9,235.8,469.4,235.5,470.5 L235.5,470.5z"/></g></g></g></g></g><g id="Layer_7"><g><g id="change1_6"><path fill="#ffffff" d="M339.4,456.9l5.9-98.1l-42.4-1l13.3,93.9l-2.8,4.1c0,0-14.6,10.7-29.4,16.3c-14.7,5.6-16.4,19.5-0.6,25.8 s57.9-17.5,57.9-17.5C343.7,464.7,339.4,456.9,339.4,456.9"/></g></g><g id="change1_5"><path fill="#ffffff" d="M20,361.2L26.2,465l24.5-6c0,0-1.3-6.4-1.8-7.9S62.3,357,62.3,357L20,361.2z"/></g><g><g id="change1_7"><path fill="#ffffff" d="M49.5,451.7c0,0-14.2,14.9-23.7,5.2c0,0-10.5,6.2-8.1,22.1c0,0,48.3,25.4,64.1,19.1s14.1-20.2-0.6-25.8 C66.4,466.6,49.5,451.7,49.5,451.7z"/></g></g></g><g id="Layer_6"><g><g><g id="change2_48"><path fill="#38455d" d="M26.6,456.9c-0.9-14.6-1.7-29.1-2.6-43.7c-0.7-10.9-1.3-21.7-2-32.6c-0.4-6.3,0.4-14.2-1.2-20.3 c-0.1-0.3-0.2-1.1-0.1-1.4c-0.5,1.5-0.8,0.4,1,0.7c3.7,0.7,8.4-0.2,12.2-0.3c8.9-0.2,18.7,0.7,27.5-0.6c1.4-0.2,0-0.9,0-0.8 c0,0.6-0.2,1.4-0.3,2c-0.7,2.9-0.9,6-1.3,9c-1.4,9.9-2.8,19.8-4.2,29.7c-2.5,17.6-5,35.3-7.5,52.9c-0.2,1.1,1.5,1.5,1.6,0.4 c4.4-31.3,8.9-62.6,13.3-93.9c0.1-0.5-0.2-1.1-0.8-1.1c-14.1,0.3-28.3,0.7-42.4,1c-0.4,0-0.9,0.4-0.8,0.8 c2,32.7,3.9,65.4,5.9,98.1C25,458,26.7,458,26.6,456.9L26.6,456.9z"/></g></g></g><g><g><g><g id="change2_46"><path fill="#38455d" d="M48.9,451.1c-5.7,5.8-15.3,11.7-22.5,5.2c-0.3-0.2-0.7-0.3-1-0.1c-2.8,1.7-5,4.6-6.5,7.5 c-1.8,3.5-4.4,12.5-1.7,15.9c1.3,1.6,5.4,2.7,7.2,3.6c5.2,2.5,10.5,4.9,15.8,7.1c11.3,4.7,25.5,11,38.1,9.4 c10-1.3,20.1-11.7,13-21.4c-5.3-7.2-16-9.4-23.3-14c-6.2-3.9-12.2-8.4-17.8-13.2c-0.8-0.7-2,0.5-1.2,1.2 c9.6,8.4,20.3,15.6,32,20.7c5,2.2,10.7,5.7,11.1,11.8c0.4,5.9-5.2,10.2-10.1,12.1c-5.8,2.3-12.4,0.9-18.3-0.5 c-13-3.1-25.5-8.6-37.5-14.3c-1.7-0.8-6.9-2.3-8-4c-0.5-0.7,0-4.3,0.1-5.2c0.1-2.6,0.7-5,1.7-7.3c0.9-2.2,2.8-6.2,5.2-7.2 c1.9-0.8,1.9,0.9,4.4,1.8c2.6,1,5.4,0.8,8,0c4.7-1.4,9.2-4.6,12.6-8.1C50.9,451.5,49.7,450.3,48.9,451.1z"/></g></g></g></g><g><g><g id="change2_60"><path fill="#38455d" d="M92.2,483.6c-10.7,13.3-27.2,9.8-41,4.7c-11.4-4.2-22.6-9.3-33.4-14.7c-1-0.5-1.8,1-0.8,1.5 c12.3,6.2,25,12,38,16.4c13.2,4.5,28.6,5.6,38.4-6.6C94.1,483.9,92.9,482.7,92.2,483.6L92.2,483.6z"/></g></g></g><g><g><g id="change2_59"><path fill="#38455d" d="M47.9,376.2c-2.5,2.6-6.5,5.3-10.3,4.5c-1-0.2-1.4,1.3-0.4,1.5c4.4,0.9,8.8-1.9,11.8-4.9 C49.8,376.6,48.6,375.5,47.9,376.2L47.9,376.2z"/></g></g></g><g><g><g id="change2_34"><path fill="#38455d" d="M52,423.5c-9.1,1.1-18.8,1.7-27.9,0.2c-1.1-0.2-1.5,1.4-0.4,1.6c9.3,1.5,19,1,28.3-0.2 C53.1,425.1,53.1,423.4,52,423.5L52,423.5z"/></g></g></g><g><g><g id="change2_70"><path fill="#38455d" d="M52,428.8c-9.1,1.1-18.8,1.7-27.9,0.2c-1.1-0.2-1.5,1.4-0.4,1.6c9.3,1.5,19,1,28.3-0.2 C53.1,430.3,53.1,428.6,52,428.8L52,428.8z"/></g></g></g><g><g><g><g><g id="change2_41"><path fill="#38455d" d="M340.3,456.9c2-32.7,3.9-65.4,5.9-98.1c0-0.5-0.4-0.8-0.8-0.8c-14.1-0.3-28.3-0.7-42.4-1 c-0.6,0-0.9,0.5-0.8,1.1c1.9,13.4,3.8,26.9,5.7,40.3c2.4,16.9,6.2,34.2,7.3,51.2c0.2,2.6,0.6,1.7-1,3.8 c-2.5,3.3-5.9,5.1-9.5,7.3c-7.3,4.5-15,7.7-22.7,11.5c-4.2,2.1-8.4,5.2-9.9,9.9c-2.8,9.2,7.1,16.6,15.2,17.6 c10,1.3,21-3.1,30-6.7c5.2-2.1,10.3-4.4,15.3-6.9c2.5-1.2,7.2-2.7,9.2-4.8c2.6-2.9,1.4-11.3,1-15.1c-0.4-3.3-0.9-6.8-2.5-9.8 c-0.5-1-2-0.1-1.5,0.8c1,1.9,1.5,4.2,1.9,6.3c0.7,3.6,2.2,13.3,0.1,16.3c-0.7,1-3.3,1.8-4.4,2.4c-3.4,1.8-6.9,3.5-10.4,5.1 c-8.4,3.9-17.2,7.5-26.2,9.6c-9,2-25.6,1.8-26.4-11c-0.5-7.8,7.2-11.2,13.1-13.8c6-2.6,11.9-5.6,17.5-9 c3.8-2.3,11.3-5.6,12.8-10.6c0.5-1.8-0.1-3.9-0.4-5.7c-0.8-5.6-1.6-11.2-2.4-16.8c-2.2-15.5-4.4-31-6.6-46.5 c-0.9-6.2-1.8-12.4-2.6-18.5c-0.2-1.7-0.3-3.5-0.7-5.1c-0.6-2.4,0.4-1.5-1.1-1.1c4.2-1.2,10.9,0.3,15.3,0.4 c7.5,0.2,14.9,0.3,22.4,0.5c1.1,0,3.6-0.4,4.6,0.1c-1.5-0.7-0.3-0.7-0.8,1c-1.1,4-0.6,9.3-0.8,13.5c-1.7,27.6-3.3,55.2-5,82.7 C338.5,458,340.2,458,340.3,456.9L340.3,456.9z"/></g></g></g></g><g><g><g id="change2_66"><path fill="#38455d" d="M271.8,484.7c18,22.4,51.7,1.9,70.6-8.6c0.9-0.5,0.1-2-0.8-1.5c-18.2,10.2-51.2,30.4-68.5,8.9 C272.3,482.7,271.1,483.9,271.8,484.7L271.8,484.7z"/></g></g></g><g><g><g id="change2_35"><path fill="#38455d" d="M316.2,377.3c3,3,7.4,5.9,11.8,4.9c1-0.2,0.6-1.7-0.4-1.5c-3.8,0.8-7.7-1.9-10.3-4.5 C316.6,375.5,315.4,376.6,316.2,377.3L316.2,377.3z"/></g></g></g><g><g><g id="change2_4"><path fill="#38455d" d="M286.8,470.5c-2.7,11.6,13,11.5,19.9,8.8c11.7-4.7,26.9-10.3,33.5-21.9c0.5-0.9-0.9-1.8-1.5-0.8 c-5,8.8-15.6,13.7-24.5,17.7c-4.3,1.9-8.9,4.4-13.6,5.1c-5.2,0.8-13.8-1.5-12.2-8.4C288.6,469.9,287,469.4,286.8,470.5 L286.8,470.5z"/></g></g></g></g></g><g id="change1_3"><path fill="#ffffff" d="M247.2,48.8l-15.7,12.5l7.8,49.6l3.7,2.6c0,0,4.7,8.1,12.7,12s18.7,4.9,25.6,4.4c6.9-0.5,7.3-1.1,7.3-1.1 l-0.5,4.5c0,0-12.6,1.8-24.5,7.2c-11.9,5.4-50.6,26.8-50.6,26.8l2.8,4.9c0,0-24.8,16.5-30.9,19.2c-6.1,2.7-25.7,10.5-25.7,10.5 s-3.9-1.4-7.1-0.9c-3.2,0.5-11.8,2.9-11.8,2.9l-25.8-11.4c0,0-2.5-21.7-3.6-25.9c-1.1-4.2-1.4-12.6-6.4-19s-18-14.4-18-14.4 l-4.1-0.5v-3.7c0,0,13.4,2.8,25.9-1c12.4-3.8,19.9-17.1,19.9-17.1s5.2-13.8,5-21.3c-0.2-7.5,1.5-34.7,1.5-34.7l-1.2-3.5 c0,0-6.8,2-14.3-0.8S95,40,95,40l-26.6-6.5L30.6,66.9c0,0-7.8,8.5-4,17.8s17.1,11.7,17.1,11.7l0.8,32.6l-20.1,4.9v20.7l-1.8,14.7 l-6.3,63.9l-5.8,36l10,2.9l-0.5,19.6L16.2,362l0.6,1l2.7,1.3l24.3,2.8l24.4-3.5c0,0,2.1-29.9,2.1-30.1s0-12.6,2.3-14.9 s2.9-1.3,3.1-0.2c0.2,1.1,2,44.4,2,44.4s13.6,6.9,30.8,4.8c17.2-2.1,25.9-4.8,25.9-4.8l-6.6-55.6l-6.1-54.2l-3.9-32.1l15.2,5.8 c0,0,5.3,3,6.2,3.8s0.9,3.7,2.3,3.1c1.4-0.6,2.3-1.1,2.3-1.1s0.3,3,1.7,3.3c1.4,0.3,4.1,0.1,5-1.2c0.8-1.2,1.8-2.2,1.8-2.2 s0.7,4,2.3,4.3c1.6,0.4,3.1-1.3,4-1.7c1-0.4,1.9,2.7,2.8,2.6c0.9-0.1,3.1-1.1,2.8-2.2s2.8-7.1,2.8-7.1l11.7-2.6l3.7-2.8l26.5-11 l27.3-16.5c0,0,3.3,2.9,6.8,3.2c3.5,0.3,14.3-4.5,14.3-4.5l-6.1,60c0,0,22.6,5,39.2,5.7c16.6,0.7,30.1-0.2,30.1-0.2l27.4-4.9 l0,31.7c0,0-3.7,20.2,0.3,20.9c4,0.7,4.3-1.5,4.3-1.5s-2.2,15.6-1,16.1c1.2,0.5,5.2,0.7,5.2,0.7l4.6-2.4c0,0,3.4,0.5,4.3-0.9 s2.6-4.2,2.6-4.2s2.3,0,3.7-2s3.1-5.2,3.1-5.7s1-34.1,1-34.1l-2.6-41.9l-2.2-32c0,0,7.2,0.2,9.3-2.1c2.1-2.2,0-9.9-0.8-12.3 c-0.8-2.4-9.2-25-14.8-30.2c-5.6-5.1-13.3-14.4-19.5-17.2c-6.2-2.8-15.2-5.6-17.7-5.7c-2.4-0.1-2.9,0-2.9,0l0.8-22.7l2.7-15.3 l14.1,0l5.9-20.6l-12.9-17.4c0,0-44.2-28.8-46.1-28.3s-23.9,5.7-26.5,7C260.3,35.7,247.2,48.8,247.2,48.8z"/></g><g id="Layer_4"><g><g id="change3_3"><path fill="#ffccbf" d="M45.4,130.3l48.5,37.4l-28.8,36.8c0,0-27-12-36.9-29.4S23.9,137.2,45.4,130.3z"/></g></g><g><g id="change3_2"><path fill="#ffccbf" d="M251.2,254.2c0,0,50.8,12.1,96.2,0c0,0,2.1,15.9,1,26.6c-1,10.7-2.4,27.5-0.7,27.8s4.7-2.8,4.7-2.8 s-2.5,16.9-0.4,17l3.7-0.2l2.9,39c0,0-99.9,1.8-123.2-1.8L251.2,254.2z"/></g></g><g><g id="change3_1"><path fill="#ffccbf" d="M18.4,318.5c-0.2,2.6-0.7,5.3-0.7,5.3l-1.6,39.1c24.9,8.1,52.5,0.7,52.5,0.7s2-39.1,2.7-43.4 c0.7-4.3,3.9-3.2,3.9-3.2l2.4,46c20.4,10.8,56.7,0,56.7,0l-10.8-93.6c0,0-10.2,8.1-28.2,10.6s-44-0.3-55.4-2.7 c-7.3-1.5-14.9-3.7-19.5-5.1l0,0L18.4,318.5z"/></g></g></g><g id="Layer_1"><g><g><g id="change2_38"><path fill="#38455d" d="M360.2,320.5c3.1,1.8,6.1-0.5,7.5-3.3c1.5-2.8,2.4-6.2,3.1-9.3c0.2-0.7,0.4-1.6,0.3-2.3 c-0.2-1-1.7-0.6-1.5,0.4c0-0.2-0.2,1-0.2,1.3c-0.4,2-1.1,3.9-1.7,5.8c-0.8,2.4-3,8.1-6.6,6C360.2,318.6,359.4,319.9,360.2,320.5 L360.2,320.5z"/></g></g></g><g><g><g id="change2_69"><path fill="#38455d" d="M321.1,201.6c-6.1,11.2-12.5,22.5-17.6,34.1c-0.4,1,1,1.8,1.5,0.8c5.2-11.7,11.5-22.9,17.6-34.1 C323,201.5,321.6,200.6,321.1,201.6L321.1,201.6z"/></g></g></g><g><g><g><g id="change2_39"><path fill="#38455d" d="M250.9,255c27,6.4,56.6,7.5,83.8,2.8c2.6-0.5,5.6-0.7,8.2-1.6c0.8-0.3,3.7-1.3,3.6-1.4 c1.1,1,0.7,7.1,0.8,8.7c0.6,9,0,17.7-0.7,26.6c-0.4,5.3-4.2,26.2,6.3,16.3c-0.5-0.3-0.9-0.5-1.4-0.8c-0.6,4.4-1.3,9-1.3,13.5 c0.1,4,0.4,4.3,4.1,4.4c1.3,0.1,0.6-0.5,0.5-0.7c0.2,0.3,0.1,1.5,0.1,1.7c0,2.2,0.3,4.6,0.5,6.8c0.5,6.4,1,12.8,1.4,19.1 c0.2,2.8,1.8,8.4,0.8,11.1c0.5-1.3,1.2-0.6-0.3-0.8c-1.2-0.1-2.6,0-3.8,0.1c-10.4,0.2-20.9,0.3-31.3,0.3 c-26.9,0.2-54.1,0.8-80.9-1.5c-0.8-0.1-6.1-0.8-5.3,0.4c-0.2-0.2,0.2-1.2,0.2-1.5c-0.1-2.9,0.9-6.2,1.3-9.1 c1.6-11,3.3-22,4.9-33.1c3.1-20.7,6.2-41.4,9.2-62.1c0.2-1.1-1.5-1.5-1.6-0.4c-5.2,35.2-10.5,70.5-15.7,105.7 c-0.1,0.4,0.1,1,0.6,1c22.9,3.4,46.8,2.3,69.8,2.3c17.9,0,35.7-0.1,53.6-0.5c0.4,0,0.9-0.4,0.8-0.8c-1-13-1.9-26-2.9-39 c0-0.4-0.4-0.9-0.8-0.8c-1.1,0.1-2.9,0.5-3.5-0.2c-0.8-0.9-0.1-4.9,0-6c0.2-3.2,0.6-6.4,1-9.5c0.1-0.8-0.7-1.4-1.4-0.8 c-5.5,5.1-4.1-4.3-4-7.5c0.3-5.7,0.9-11.3,1.3-16.9c0.7-8.8,0.1-17.8-1-26.6c-0.1-0.5-0.5-1-1.1-0.8c-30.6,7.9-65,7.3-95.8,0 C250.3,253.1,249.9,254.7,250.9,255z"/></g></g></g></g><g><g><g id="change2_8"><path fill="#38455d" d="M287.5,129.5c0,4.8-1.2,9.8,2,13.7c6.3,7.6,16.4,6.4,24.4,2.3c6.1-3.2,11.5-7.8,11.8-15 c0.2-7.4,0.3-14.7,0.4-22.1c0.1-3.8,0.1-7.6,0.2-11.3c0-1.1,0.1-2.2,0.1-3.3c0-1.6-0.9,0-0.6,0c5-0.2,9.3,1.7,13.9-1.7 c5.7-4.3,6.7-15,3.3-21c-2.6-4.7-6.2-3.8-10.6-3.7c-10.3,0.2-19.6-13-24.7-20.5c-4-5.9-7.7-12-10.8-18.5 c-0.1-0.3-0.5-0.4-0.7-0.4c-21,0.6-48.7,4.7-64.3,20.8c-0.3,0.3-0.3,0.7-0.1,1c8.5,20-0.1,43.8,10.2,63.2 c12.3,23.2,47.1,21.2,65.9,8.5c0.9-0.6,0.1-2.1-0.8-1.5c-15.1,10.1-34.5,12.4-51.1,4.1c-11.3-5.7-15.6-16.6-16.9-28.5 c-1.2-10.7-0.5-21.5-1.9-32.1c-0.6-4.3-2.9-8.9-3.2-13c-0.1-0.8-0.6-0.2-0.5-0.8c0.1-0.4,1.3-1.1,1.6-1.4 c5-5.1,13.1-8.5,19.6-11c5.2-2,10.6-3.6,16.1-4.7c3.9-0.8,7.8-1.5,11.7-1.9c1.8-0.2,3.7-0.4,5.5-0.5c1.2-0.1,6.8-1.3,7.5-0.8 c1,0.7,2.1,4.2,2.7,5.2c2.2,4.1,4.6,8.1,7.2,12c5.1,7.6,11.2,15.8,19.4,20.3c2.3,1.3,5.1,2.4,7.7,2.3c4.7-0.2,7.9-0.7,9.8,5 c3.9,12-4.9,21.4-16.5,18c-0.5-0.2-1.1,0.3-1.1,0.8c-0.2,12.4,0.3,25-0.6,37.4c-0.8,11.3-17.5,20.4-27.8,15.9 c-8.3-3.5-6.9-9-6.9-16.5C289.2,128.4,287.5,128.4,287.5,129.5L287.5,129.5z"/></g></g></g><g><g><g id="change2_47"><path fill="#38455d" d="M252,254.2c3.5-38,7.1-75.8,12.9-113.5c0.1-0.7-0.5-1.3-1.2-1c-17.1,9-34.2,18-51.3,27 c-0.4,0.2-0.5,0.8-0.3,1.2c5.9,9.3,12.8,18.6,21.1,26c2.9,2.6,6.5,6.3,10.4,5.8c4.3-0.6,9-3.2,13.1-4.7c1-0.4,0.6-2-0.4-1.6 c-3.9,1.4-9,4.4-13.1,4.7c-5.5,0.4-12.3-8.5-15.8-12.5c-4.5-5.1-8-11.1-12.4-16.3c-1.5-1.7-0.6-2.1-1.6-1.1 c0.5-0.6,1.9-1,2.5-1.3c16.2-8.5,32.4-17.1,48.6-25.6c-0.4-0.3-0.8-0.6-1.2-1c-5.8,37.9-9.4,75.8-13,114 C250.2,255.2,251.9,255.2,252,254.2L252,254.2z"/></g></g></g><g><g><g id="change2_19"><path fill="#38455d" d="M335.5,74.6c0.5,0.6,1.4,2.3,1.6,3.5c0.9,3.5-0.8,6-3.7,7.8c-0.9,0.6-0.1,2,0.8,1.5 c5.2-3.3,6.2-9.1,2.4-13.9C336.1,72.6,334.9,73.8,335.5,74.6L335.5,74.6z"/></g></g></g><g><g><g id="change2_5"><path fill="#38455d" d="M354.1,323.6c3.9,0.1,7.4-2.9,9-6.2c1.4-2.8,2.4-6.1,3-9.1c0.1-0.6,0.3-1.3,0.1-1.9 c-0.5-0.9-1.8-0.1-1.4,0.8c-0.2-0.5-0.3,1-0.4,1.4c-0.6,2.6-1.4,5.5-2.6,8c-1.4,2.8-4.3,5.5-7.7,5.4 C353.1,322,353.1,323.6,354.1,323.6L354.1,323.6z"/></g></g></g><g><g><g id="change2_22"><path fill="#38455d" d="M358.6,307.1c-0.9,3.4-1.7,6.8-2.8,10.2c-0.5,1.5-1,3.8-2.4,4.7c-0.9,0.5-0.1,1.9,0.8,1.4 c1.4-0.9,2-2.5,2.6-4c1.4-3.8,2.3-7.9,3.4-11.9C360.4,306.6,358.9,306.1,358.6,307.1L358.6,307.1z"/></g></g></g><g><g><g id="change2_20"><path fill="#38455d" d="M343.3,171.6c0.7,27.5,1.4,55.1,3.3,82.6c0.1,1,1.7,1,1.6,0c-1.9-27.5-2.6-55.1-3.3-82.6 C344.8,170.6,343.3,170.6,343.3,171.6L343.3,171.6z"/></g></g></g><g><g><g id="change2_68"><path fill="#38455d" d="M368.9,315.6c7.7-0.2,7.2-13.9,7.4-19.1c0.4-12.8-0.1-25.7-0.6-38.5c-0.8-19.6-2.1-39.3-3.6-58.8 c-0.1-1-1.7-1-1.6,0c1.3,16.6,2.3,33.2,3.2,49.8c0.6,12.3,1.1,24.6,1.2,36.9c0,4.9,1.7,27.9-6,28.1 C367.8,314,367.8,315.6,368.9,315.6L368.9,315.6z"/></g></g></g><g><g><g id="change2_13"><path fill="#38455d" d="M311,307.7c-6.1,11.2-12.5,22.5-17.6,34.1c-0.4,1,1,1.8,1.5,0.8c5.2-11.7,11.5-22.9,17.6-34.1 C312.9,307.6,311.5,306.8,311,307.7L311,307.7z"/></g></g></g><g><g><g id="change2_43"><path fill="#38455d" d="M284.4,319.1c-3.4,5.8-6.5,11.7-9.2,17.9c-0.4,1,1,1.8,1.5,0.8c2.7-6.1,5.8-12.1,9.2-17.9 C286.4,319,285,318.1,284.4,319.1L284.4,319.1z"/></g></g></g><g><g id="change2_49"><ellipse rx="4" ry="4.7" fill="#38455d" cx="253.2" cy="78.4"/></g></g><g><g id="change2_14"><ellipse rx="4" ry="4.7" fill="#38455d" cx="286.1" cy="78.4"/></g></g><g><g><g id="change2_9"><path fill="#38455d" d="M265.9,75.4c-1.8,6.6-6.4,23.5,6.4,20.6c1-0.2,0.6-1.8-0.4-1.5c-2.4,0.5-5.7,0.1-6.6-2.7 c-0.7-2.1,0-4.9,0.3-7c0.5-3,1.1-6,1.9-8.9C267.7,74.8,266.2,74.4,265.9,75.4L265.9,75.4z"/></g></g></g><g><g><g id="change2_67"><path fill="#38455d" d="M247,66.7c3.5-2.1,7.8-2.9,11.9-2.6c1.1,0.1,1.1-1.7,0-1.8c-4.3-0.4-9,0.5-12.7,2.8 C245.2,65.8,246,67.3,247,66.7L247,66.7z"/></g></g></g><g><g><g id="change2_44"><path fill="#38455d" d="M294.8,65.4c-3.7-2.4-8.3-3.4-12.7-3.1c-1.1,0.1-1.1,1.8,0,1.8c4-0.2,8.4,0.6,11.8,2.9 C294.9,67.5,295.8,66,294.8,65.4L294.8,65.4z"/></g></g></g><g><g><g id="change2_27"><path fill="#38455d" d="M353.1,307c0.5-2.9,1-5.9,1.5-8.8c0.2-1.1-1.4-1.5-1.6-0.4c-0.5,2.9-1,5.9-1.5,8.8 C351.3,307.6,353,308.1,353.1,307L353.1,307z"/></g></g></g><g><g><g id="change2_50"><path fill="#38455d" d="M266.6,103.5c5,0.3,10.5-1.7,15-3.4c-0.3-0.2-0.7-0.4-1-0.6c0.9,3.1,0.6,7.4-3.1,8.4 c-4.2,1.1-8.2-2.3-10.3-5.6c-0.5-0.9-1.9-0.1-1.4,0.8c2.6,4.1,7.7,8,12.7,6.1c4.1-1.5,4.6-6.4,3.5-10.1c-0.1-0.4-0.6-0.7-1-0.6 c-4.4,1.7-9.7,3.7-14.6,3.4C265.6,101.8,265.6,103.4,266.6,103.5z"/></g></g></g><g><g><g id="change2_31"><path fill="#38455d" d="M104,101.9c-4.9,0.3-10.2-1.7-14.6-3.4c-0.4-0.2-0.9,0.2-1,0.6c-1.1,3.7-0.6,8.6,3.5,10.1 c5,1.9,10.2-2,12.7-6.1c0.5-0.9-0.8-1.7-1.4-0.8c-2.1,3.3-6.1,6.7-10.3,5.6c-3.7-1-3.9-5.3-3.1-8.4c-0.3,0.2-0.7,0.4-1,0.6 c4.6,1.7,10,3.8,15,3.4C105,103.4,105.1,101.8,104,101.9z"/></g></g></g><g><g><g id="change2_45"><path fill="#38455d" d="M282.2,133.7c-1.9,11.8,7.4,19.2,18.4,19.7c13.3,0.6,26-7.5,30.7-20.1c0.4-1-1.2-1.4-1.5-0.4 c-3.9,10.5-14.2,18.1-25.3,18.9c-10.9,0.7-22.7-5.2-20.8-17.7C283.9,133.2,282.4,132.7,282.2,133.7L282.2,133.7z"/></g></g></g><g><g><g><g id="change2_23"><path fill="#38455d" d="M17.6,318.5c-1.6,14.7-1.7,29.6-2.3,44.3c0,0.4,0.3,0.7,0.6,0.8c16.8,5.1,35.9,5.2,53,0.7 c0.4-0.1,0.6-0.4,0.6-0.8c0.4-7.6,0.8-15.3,1.3-22.9c0.3-5,0.6-10.1,1-15.1c0.1-1.4-0.1-3.2,0.4-4.6c0.3-0.9,3.6-3.3,2.3-4 c0,0,0,0.7,0,0.7c1,2.5,0.4,6.9,0.5,9.6c0.3,5.1,0.5,10.2,0.8,15.2c0.4,6.8,0.7,13.6,1.1,20.3c0,0.3,0.1,0.6,0.4,0.7 c17.1,8.5,39.6,5.3,57.4,0.1c0.3-0.1,0.7-0.4,0.6-0.8c-3.6-31.2-7.2-62.4-10.8-93.6c-0.1-0.8-0.8-1.1-1.4-0.6 c-12.8,9.9-30.8,11.6-46.4,11.4c-19.1-0.3-37.6-3.2-55.9-8.7c-0.5-0.2-1,0.3-1.1,0.8C18.9,287.5,18.2,303,17.6,318.5 c0,1.1,1.6,1.1,1.7,0c0.4-9.1,0.8-18.1,1.2-27.2c0.2-5.4,0.5-10.8,0.7-16.2c0-0.4-0.2-2.7,0.1-2.9c-1.2,0.8,3.9,2.2,4.4,2.4 c3,0.9,6.1,1.7,9.2,2.4c17.1,4,35.4,5.6,52.9,4.5c12.4-0.8,26.3-3.8,36.3-11.6c-0.5-0.2-1-0.4-1.4-0.6 c2.9,25.4,5.9,50.7,8.8,76.1c0.6,4.9,0.7,10.2,1.7,15.1c0.1,0.5,0.4,1.9,0.3,2.4c0.4-1.2,0.5-0.6-0.8-0.4 c-1.3,0.2-2.6,0.7-3.8,1c-9.7,2.3-19.8,3.7-29.8,3.4c-5.6-0.2-11.4-0.9-16.7-2.8c-4.3-1.6-3.9-0.8-4.1-4.8 c-0.7-14.1-1.5-28.2-2.2-42.3c0-0.4-0.2-0.7-0.6-0.8c-6.6-1.8-5.5,11.1-5.8,14.5c-0.7,10.3-2.1,21-1.8,31.3 c0,1.7-0.3,1.3,0.2,1c-1.1,0.7-3.4,0.8-4.7,1c-8.1,1.5-16.5,2.2-24.8,1.9c-5.2-0.2-10.4-0.7-15.5-1.8c-0.9-0.2-6-0.9-6.2-1.2 c-0.2-0.2,0.1-1,0.1-1.3c-1.1-3.4,0.4-9.3,0.5-12.9c0.4-10,0.6-20.1,1.7-30.1C19.4,317.4,17.7,317.4,17.6,318.5z"/></g></g></g></g><g><g><g id="change2_24"><path fill="#38455d" d="M115.6,192.5c-2-22.6-5.2-54.4-32.4-60.1c-1.1-0.2-1.5,1.4-0.4,1.6c26.4,5.5,29.2,36.6,31.1,58.5 C114,193.6,115.7,193.6,115.6,192.5L115.6,192.5z"/></g></g></g><g><g><g id="change2_32"><path fill="#38455d" d="M124.4,269.2c-1.9-16.1-3.8-32.1-5.7-48.2c-0.1-1.1-1.8-1.1-1.7,0c1.9,16.1,3.8,32.1,5.7,48.2 C122.8,270.3,124.5,270.3,124.4,269.2L124.4,269.2z"/></g></g></g><g><g><g id="change2_72"><path fill="#38455d" d="M34.7,73.5c-3.8,4.9-2.8,10.7,2.4,13.9c0.9,0.6,1.8-0.9,0.8-1.5c-2.9-1.8-4.6-4.4-3.7-7.8 c0.3-1.1,1.2-2.9,1.6-3.5C36.6,73.8,35.4,72.6,34.7,73.5L34.7,73.5z"/></g></g></g><g><g><g id="change2_51"><path fill="#38455d" d="M63.3,220.4c6.1,11.2,12.5,22.5,17.6,34.1c0.4,1,1.9,0.1,1.5-0.8c-5.2-11.7-11.5-22.9-17.6-34.1 C64.3,218.6,62.8,219.4,63.3,220.4L63.3,220.4z"/></g></g></g><g><g id="change2_71"><ellipse rx="4" ry="4.7" fill="#38455d" cx="117.2" cy="78.4"/></g></g><g><g id="change2_63"><ellipse rx="4" ry="4.7" fill="#38455d" cx="84.3" cy="78.4"/></g></g><g><g><g id="change2_17"><path fill="#38455d" d="M102.9,75.8c0.8,2.9,1.4,5.9,1.9,8.9c0.3,2.1,0.9,4.9,0.3,7c-0.9,2.8-4.1,3.2-6.6,2.7 c-1-0.2-1.4,1.3-0.4,1.5c12.8,2.9,8.2-14,6.4-20.6C104.2,74.4,102.6,74.8,102.9,75.8L102.9,75.8z"/></g></g></g><g><g><g id="change2_64"><path fill="#38455d" d="M124.3,65.2c-3.7-2.3-8.4-3.2-12.7-2.8c-1.1,0.1-1.1,1.9,0,1.8c4-0.4,8.4,0.4,11.9,2.5 C124.3,67.3,125.2,65.8,124.3,65.2L124.3,65.2z"/></g></g></g><g><g><g id="change2_29"><path fill="#38455d" d="M76.4,66.7c3.5-2.1,7.8-2.9,11.9-2.6c1.1,0.1,1.1-1.7,0-1.8c-4.3-0.4-9,0.5-12.7,2.8 C74.6,65.8,75.5,67.3,76.4,66.7L76.4,66.7z"/></g></g></g><g><g><g id="change2_15"><path fill="#38455d" d="M78.8,299.7c-1.1,6.3-3,13-6.7,18.2c-0.6,0.9,0.8,1.7,1.5,0.8c3.8-5.4,5.7-12.2,6.9-18.6 C80.6,299.1,79,298.7,78.8,299.7L78.8,299.7z"/></g></g></g><g id="change2_73"><path fill="#38455d" d="M343.2,32.7c0,0-0.1-0.1-0.1-0.1c-0.2-0.3-0.3-0.4-0.3-0.4c-9-14.9-23.2-18.5-27.6-19.3 c-0.8-0.3-1.3-0.4-1.3-0.2c0.4-4.2-12.2-5.9-14.9-6.4c-17.1-3.2-37.6-3.5-53.3,5c-7.2,3.9-12.6,9.9-15.1,17.6v0c0,0,0,0,0,0 c-0.3,0.8-0.5,1.6-0.7,2.5c-0.1,0.3-0.1,0.6-0.2,0.9c-2.6,10.5-9.8,43.4-4.6,63.3c6.3,24,18.9,19.8,18.9,19.8s-4.5-6.2-5.6-16 c-1.1-9.7-1.7-26.6-1.7-27.1c0-0.2-0.1-2.4-0.2-5.3c0-1.2,0.2-2.7,0.5-4.6c2.4,0.3,5.4-0.7,9.4-3.9c19.2-15.5,19.2-15.5,19.2-15.5 s0.5,15.5,12.4,12.1s9.9-12.8,9.9-12.8s32.7,26.1,44,26c0.8,0,1.5-0.2,1.9-0.7c3.1,0.3,5.5,0.5,6.5,1.6c0.4,0.6,1,1,1.5,1.5L344,79 l0,0c-0.1,0.9-0.2,2-0.4,3.2l-1.9,6.2c-2.2,2.9-4.2,4.9-7.8,5c-4.2,0.1-8.4-0.6-8.4-0.6l-0.3,19.2c0,0,21.1,12.1,29.5-18.2 C362.4,65.8,345.8,36.9,343.2,32.7z"/></g><g><g><g id="change2_57"><path fill="#38455d" d="M344.9,200c9.1,0,18.2,0,27.4,0c2.6,0,6.5,0.2,8.5-1.9c2.2-2.3,1.5-6.2,0.8-9c-6-23.2-19.3-46.4-42.8-55.1 c-4.4-1.6-9.2-3-13.9-3c-1,0-1,1.6,0,1.6c18.1-0.1,34.6,14.2,43.5,28.6c5.2,8.4,8.9,17.7,11.4,27.2c0.8,2.9,1.6,6.8-0.5,8.5 c-1.1,1-3,1.2-4.5,1.4c-9.6,1.2-20.2,0-29.9,0C343.9,198.4,343.9,200,344.9,200L344.9,200z"/></g></g></g><g><g><g id="change2_26"><path fill="#38455d" d="M339.1,144.8c2.4,2.7,2.3,10,2.4,13.7c0,1,1.6,1,1.6,0c-0.1-4-0.3-8.1-1.5-11.9c-0.3-1-0.7-2.1-1.4-2.9 C339.5,143,338.4,144.1,339.1,144.8L339.1,144.8z"/></g></g></g><g><g><g id="change2_18"><path fill="#38455d" d="M264.5,141.1c7.5-3.8,15.8-6,24.1-7.2c1-0.1,0.6-1.7-0.4-1.5c-8.4,1.2-16.9,3.5-24.5,7.3 C262.8,140.2,263.6,141.6,264.5,141.1L264.5,141.1z"/></g></g></g><g><g><g><g id="change2_30"><path fill="#38455d" d="M45,131c8.4,6.5,16.9,13,25.3,19.5c5.5,4.3,11.1,8.5,16.6,12.8c1.6,1.2,3.2,2.9,5,3.9 c2.1,1.1,0.8,1.2,1.2,0.2c-1.9,4.1-6.3,8-9,11.5c-4.7,6-9.3,11.9-14,17.9c-1.4,1.7-3.1,3.5-4.2,5.4c-0.2,0.3-0.8,1.3-1.2,1.5 c-0.5,0.3,1.6,0.1,0.1-0.2c-6.1-1.5-13.1-7.1-18.1-10.6c-10.7-7.7-21-18-22.3-31.8c-1.4-14.4,8-25.3,21.1-29.9 c1-0.4,0.6-2-0.4-1.6c-18.8,6.6-27.8,25.4-18.8,43.8c7.2,14.8,23.8,25.4,38.4,32c0.3,0.1,0.8,0.2,1-0.1 c9.6-12.3,19.2-24.5,28.8-36.8c0.4-0.5,0.3-1-0.2-1.3c-16.2-12.5-32.4-25-48.5-37.4C45,128.9,44.1,130.4,45,131z"/></g></g></g></g><g><g><g><g id="change2_42"><path fill="#38455d" d="M163.8,209.7c2.1,2.7,3.2,6.8,6.3,8.6c1.2,0.7,2.6,1.2,3.9,1.7c1.1,0.5,5.7,1.6,6.1,2.3 c1.6,2.5-5.8,3.2-6.5,3.3c-2.4,0.5-4.9,1.2-7.3,1.8c-1,0.3-0.6,1.9,0.4,1.6c3-0.7,5.9-1.6,8.9-2.1c2.2-0.4,6.2-1.1,6.3-4.1 c0.1-2.8-4.2-3.1-6.2-4c-1.8-0.7-4.2-1.4-5.7-2.7c-2.2-1.9-3.1-5.2-4.8-7.4C164.6,208,163.1,208.8,163.8,209.7L163.8,209.7z"/></g></g></g><g><g><g id="change2_58"><path fill="#38455d" d="M87.7,175.5c8.9,7.3,18.8,13.5,28.9,19c4.2,2.3,8.5,4.4,12.9,6.2c2.9,1.2,7.8,4.1,11,4 c1.3,0,2.9-1,4.2-1.3c5-1.3,10.1-1.7,15.3-1.6c1.1,0,1.1-1.7,0-1.7c-4,0-8,0.2-11.9,0.9c-2.3,0.4-4.7,1.5-7,1.8 c-3.4,0.3-9.7-3.1-12.7-4.5c-4-1.8-7.9-3.7-11.8-5.8c-9.6-5.3-19.1-11.3-27.6-18.2C88.1,173.6,86.9,174.8,87.7,175.5 L87.7,175.5z"/></g></g></g><g><g><g id="change2_55"><path fill="#38455d" d="M70.4,198c9.8,5.3,19.8,10.4,29.8,15.4c7.3,3.6,14.7,7.1,22.2,10.2c3.4,1.4,6.8,2.8,10.3,4 c3.9,1.3,4.7,3,7.8,5.9c0.8,0.7,2-0.4,1.2-1.2c-2.1-2-3.3-4.2-5.8-5.4c-3-1.5-6.6-2.2-9.7-3.5c-8.6-3.4-17-7.4-25.3-11.5 c-10-4.9-20-10-29.8-15.4C70.3,196,69.5,197.5,70.4,198L70.4,198z"/></g></g></g></g><g><g><g><g id="change2_16"><path fill="#38455d" d="M215.5,171.4c-15.5,11.1-32.6,21.1-50.5,27.8c-3.9,1.5-14.8,3.1-15.7,8.3c-1,6.7,12,3.1,15.1,2.7 c1.1-0.1,1.1-1.8,0-1.7c-3.1,0.4-7.6,1.8-10.6,1.1c-7.9-1.8,3.1-5.9,5.3-6.7c8.7-2.9,17-6.4,25.1-10.6 c11.1-5.7,21.9-12.2,32.1-19.5C217.2,172.2,216.4,170.7,215.5,171.4L215.5,171.4z"/></g></g></g><g><g><g id="change2_36"><path fill="#38455d" d="M235.7,194.8c-16.9,10.7-35.1,21.9-54.4,27.6c-1,0.3-0.6,1.9,0.4,1.6c19.4-5.7,37.8-16.9,54.8-27.8 C237.5,195.6,236.6,194.2,235.7,194.8L235.7,194.8z"/></g></g></g></g><g><g><g id="change2_12"><path fill="#38455d" d="M22.7,158.5c-3.2,36.7-5.6,74.3-12.8,110.4c-0.1,0.5,0.1,0.9,0.6,1c3.2,1,6.4,1.9,9.7,2.9 c1,0.3,1.5-1.3,0.4-1.6c-2-0.6-4-1.2-6-1.8c-0.4-0.1-2.6-0.5-2.9-0.9c-0.6-0.7,0.3,0.5,0.2-1c-0.1-4.8,1.8-10.4,2.4-15.2 c1.8-13.1,3.3-26.2,4.7-39.3c1.9-18.2,3.7-36.3,5.3-54.5C24.5,157.5,22.8,157.5,22.7,158.5L22.7,158.5z"/></g></g></g><g><g><g><g id="change2_21"><path fill="#38455d" d="M148.8,217.3c-3.5-2.3-6.6,5.3-7.6,7.3c-0.9,1.9-4.2,9.5,0.5,9.5c3.2,0,5.9-5.2,7.1-7.6 C150,223.9,151.8,219.2,148.8,217.3c-0.7-0.5-1.4,0.7-0.7,1.2c3.8,2.4-2.4,11.4-4.6,13.3c-1.3,1.1-2.7,1.3-2.9-0.8 c-0.2-1.7,1-3.8,1.6-5.3c0.7-1.5,3.7-8.6,5.9-7.2C148.8,218.9,149.5,217.7,148.8,217.3z"/></g></g></g><g><g><g id="change2_10"><path fill="#38455d" d="M144.8,231.9c0.9,0,0.9-1.4,0-1.4C144,230.5,143.9,231.9,144.8,231.9L144.8,231.9z"/></g></g></g><g><g><g id="change2_65"><path fill="#38455d" d="M143.4,232.1c-0.2,2.3,1,4.6,3.5,4.7c5,0.3,7.3-7.4,8.8-11c0.3-0.8-1-1.2-1.3-0.4c-1.1,2.8-3.2,9.5-6.7,10 c-2.2,0.3-3.1-1.5-2.9-3.3C144.8,231.2,143.5,231.2,143.4,232.1L143.4,232.1z"/></g></g></g><g><g><g id="change2_53"><path fill="#38455d" d="M150.7,222.4c0.3-0.5,0.8-1.2,1.3-1.5c3.8-2.1,2.8,3.2,2.3,4.5c-0.3,0.7,0.9,1.2,1.2,0.5 c0.8-1.8,2.3-4.9,4.5-4.6c1.6,0.2,1.4,1.4,1.3,2.9c-0.1,1.5-0.5,2.9-0.9,4.3c-0.7,2.2-1.7,5.5-3.5,7.1 c-4.1,3.6-3.4-4.8-2.7-6.6c0.3-0.8-1-1.2-1.3-0.4c-0.9,2.3-2,9,1.9,9.4c3.7,0.4,5.8-5.8,6.7-8.4c0.8-2.3,2.8-8.3-0.2-9.8 c-3.1-1.6-6,3.2-7,5.4c0.4,0.2,0.8,0.3,1.2,0.5c0.7-2,1.5-6.2-1.4-7.1c-1.9-0.6-3.7,1.7-4.7,3 C149.1,222.4,150.2,223.1,150.7,222.4L150.7,222.4z"/></g></g></g><g><g><g id="change2_33"><path fill="#38455d" d="M163,224.7c0.2-0.6,0.6-1.5,1.1-2c1.6-1.6,2-0.6,2,0.9c0.1,2.3-0.4,4.6-0.9,6.8c-0.4,1.8-0.9,4.3-2.1,5.8 c-1.7,2.1-2.8,0.2-3.1-1.7c-0.1-0.9-1.4-0.5-1.3,0.4c0.3,1.9,1.5,4.8,3.9,3.7c2.9-1.3,3.8-6.6,4.3-9.2c0.4-2,1.8-7.1-0.2-8.6 c-2.2-1.8-4.4,2.2-5,3.8C161.4,225.1,162.7,225.5,163,224.7L163,224.7z"/></g></g></g></g><g><g><g><g id="change2_62"><path fill="#38455d" d="M148.8,217.3c-3.5-2.3-6.6,5.3-7.6,7.3c-0.9,1.9-4.2,9.5,0.5,9.5c3.2,0,5.9-5.2,7.1-7.6 C150,223.9,151.8,219.2,148.8,217.3c-0.7-0.5-1.4,0.7-0.7,1.2c3.8,2.4-2.4,11.4-4.6,13.3c-1.3,1.1-2.7,1.3-2.9-0.8 c-0.2-1.7,1-3.8,1.6-5.3c0.7-1.5,3.7-8.6,5.9-7.2C148.8,218.9,149.5,217.7,148.8,217.3z"/></g></g></g><g><g><g id="change2_54"><path fill="#38455d" d="M144.8,231.9c0.9,0,0.9-1.4,0-1.4C144,230.5,143.9,231.9,144.8,231.9L144.8,231.9z"/></g></g></g><g><g><g id="change2_7"><path fill="#38455d" d="M143.4,232.1c-0.2,2.3,1,4.6,3.5,4.7c5,0.3,7.3-7.4,8.8-11c0.3-0.8-1-1.2-1.3-0.4c-1.1,2.8-3.2,9.5-6.7,10 c-2.2,0.3-3.1-1.5-2.9-3.3C144.8,231.2,143.5,231.2,143.4,232.1L143.4,232.1z"/></g></g></g><g><g><g id="change2_40"><path fill="#38455d" d="M150.7,222.4c0.3-0.5,0.8-1.2,1.3-1.5c3.8-2.1,2.8,3.2,2.3,4.5c-0.3,0.7,0.9,1.2,1.2,0.5 c0.8-1.8,2.3-4.9,4.5-4.6c1.6,0.2,1.4,1.4,1.3,2.9c-0.1,1.5-0.5,2.9-0.9,4.3c-0.7,2.2-1.7,5.5-3.5,7.1 c-4.1,3.6-3.4-4.8-2.7-6.6c0.3-0.8-1-1.2-1.3-0.4c-0.9,2.3-2,9,1.9,9.4c3.7,0.4,5.8-5.8,6.7-8.4c0.8-2.3,2.8-8.3-0.2-9.8 c-3.1-1.6-6,3.2-7,5.4c0.4,0.2,0.8,0.3,1.2,0.5c0.7-2,1.5-6.2-1.4-7.1c-1.9-0.6-3.7,1.7-4.7,3 C149.1,222.4,150.2,223.1,150.7,222.4L150.7,222.4z"/></g></g></g><g><g><g id="change2_76"><path fill="#38455d" d="M163,224.7c0.2-0.6,0.6-1.5,1.1-2c1.6-1.6,2-0.6,2,0.9c0.1,2.3-0.4,4.6-0.9,6.8c-0.4,1.8-0.9,4.3-2.1,5.8 c-1.7,2.1-2.8,0.2-3.1-1.7c-0.1-0.9-1.4-0.5-1.3,0.4c0.3,1.9,1.5,4.8,3.9,3.7c2.9-1.3,3.8-6.6,4.3-9.2c0.4-2,1.8-7.1-0.2-8.6 c-2.2-1.8-4.4,2.2-5,3.8C161.4,225.1,162.7,225.5,163,224.7L163,224.7z"/></g></g></g></g><g id="change2_74"><path fill="#38455d" d="M140.8,33.2C133.6,20.2,116.2,1.7,79,0c-3.2,0.2-5.9,0.7-8.1,1.3c0,0-17.6,0.2-32.7,11.1 c-3.5,2.3-7,5.2-10.5,8.7c-8.5,8.7-11.4,21.2-10.8,32.3c0,0.3-0.1,0.7-0.1,1c-3.3,52.5-39.4,106.8,5.8,114.8c0,0-1-16.3,2.8-21.2 c3.8-4.9,4.9-10.5,11.4-13.7s8.6-4,8.6-4l-0.1-37.5c0,0-6.9,3-10.8-0.3c-3.9-3.3-5.9-7.4-6.2-11.7c0-0.5-0.1-1.4-0.2-2.4 c0.1,0,0.2,0.1,0.3,0.1l2.8-9c0,0,4.1-2.3,6.4-1.7c2.4,0.6,7.2-0.6,12.1-3.7c3.6-2.3,13.8-14.5,19.6-25.1c3.6,7.2,11,15,26.6,17.5 c0,0-0.4-5.9,0.4-11.7c11.8,7,25.4,13.3,34.3,11.4c0.1,0,0.1,0,0.2,0C140.9,53.7,145.8,42.3,140.8,33.2z"/></g><g><g id="change2_6"><path fill="#38455d" d="M135.6,52.5c0,0,23.8,109.7-23.9,116.7c0,0-3-12.9-5.7-17.1s-4.4-7.7-8.4-11.1c-4-3.3-7.8-5.8-9.7-6.5 c-1.9-0.7-5.1-0.8-5.3-1.8s-1.9-4.4,1.2-3.6c3.2,0.7,13.8,1.1,20.9-0.7c7.1-1.8,16.1-7,19.9-12.7c3.8-5.6,5.1-13,5.9-15.4 c0.8-2.5,1.5-19,1.5-19l1-16.7C133,64.6,135.1,52.2,135.6,52.5z"/></g></g><g id="change2_75"><path fill="#38455d" d="M137.5,48.7c-15.6-16.1-43.3-20.2-64.3-20.8c-0.4,0-0.7,0.3-0.8,0.6C67,41.8,57.6,61.7,43.2,66.7 c-4.1,1.4-8.2-1.3-12,1.7c-5.4,4.3-4.8,15.4-1.5,20.7c2.7,4.3,8.5,6.3,13.4,4.9c0.4-0.1,0.9-0.2,1.3-0.3c0,3,0.1,6,0.2,8.9 c0.1,8.1,0.3,16.3,0.4,24.4c0,1.4,0.1,2.7,0.2,3.9l1.7,0.4c-0.1-0.4-0.1-0.9-0.2-1.3c-0.8-12.4-0.4-25-0.6-37.4 c0-0.5-0.5-1-1.1-0.8c-9.7,3.1-16.2-3.4-15.9-13.3c0.1-6,2.4-10.4,8.7-10.1c2.3,0.1,3.3,0.6,5.8-0.3c8-2.7,13.9-10.3,18.4-17 c2.6-3.8,4.9-7.8,7.1-12c1.2-2.4,2.4-7.1,4.3-9c0.3-0.3,0.3-1.1,0.6-1.3c0.7-0.4,9.6,1.1,10.8,1.2c7.6,0.8,15.2,2.2,22.5,4.4 c8.5,2.5,16.9,6.2,24.2,11.3c1,0.7,3.9,2.2,4.3,3.4c0.4,1.1-2,5.9-2.4,7.9c-2.3,10-1.9,20.5-2.4,30.7c-0.6,12.4-2.5,25.9-13.4,33.6 c-16.4,11.5-39.3,9-55.2-1.7c-0.9-0.6-1.7,0.9-0.8,1.5c5.6,3.8,12.6,6.6,20,8.1c0,0,0,0,0,0c0,7.1,1.4,12-5.6,16 c-2.6,1.5-5.6,2-8.7,1.7l2,1.6c3.6,0,7-1.1,9.9-3.6c5.2-4.5,4.1-9,4-15.4c17.1,3,35.9-1.1,44.2-16.9c10.2-19.3,1.7-43.2,10.2-63.2 C137.8,49.4,137.8,49,137.5,48.7z"/></g></g></svg>