<?xml version="1.0" encoding="UTF-8"?><svg xmlns="http://www.w3.org/2000/svg" xmlns:xlink="http://www.w3.org/1999/xlink" contentScriptType="text/ecmascript" fill="#000000" width="510.5" zoomAndPan="magnify" contentStyleType="text/css" viewBox="-5.8 -9.1 510.5 398.4" height="398.4" preserveAspectRatio="xMidYMid meet" version="1"><g id="Layer_22"><g><g id="change1_22"><path fill="#ffffff" d="M490.3,373L490.3,373c6.2-1.1,10.4-7.1,9.3-13.3l-9.5-54c-1.1-6.2-7.1-10.4-13.3-9.3h0 c-6.2,1.1-10.4,7.1-9.3,13.3l9.5,54C478.2,369.9,484.1,374.1,490.3,373z"/></g></g><g><g id="change1_2"><path fill="#ffffff" d="M381.2,373L381.2,373c-6.2-1.1-10.4-7.1-9.3-13.3l9.5-54c1.1-6.2,7.1-10.4,13.3-9.3h0 c6.2,1.1,10.4,7.1,9.3,13.3l-9.5,54C393.4,369.9,387.4,374.1,381.2,373z"/></g></g><g><g id="change1_40"><path fill="#ffffff" d="M9.7,373L9.7,373c-6.2-1.1-10.4-7.1-9.3-13.3l9.5-54c1.1-6.2,7.1-10.4,13.3-9.3h0c6.2,1.1,10.4,7.1,9.3,13.3 l-9.5,54C21.9,369.9,16,374.1,9.7,373z"/></g></g><g><g id="change1_8"><path fill="#ffffff" d="M118.9,373L118.9,373c6.2-1.1,10.4-7.1,9.3-13.3l-9.5-54c-1.1-6.2-7.1-10.4-13.3-9.3h0 c-6.2,1.1-10.4,7.1-9.3,13.3l9.5,54C106.7,369.9,112.7,374.1,118.9,373z"/></g></g></g><g id="Layer_21"><g><g><g><g id="change2_118"><path fill="#38455d" d="M490.5,373.5c13.9-2.4,9-18.1,7.3-27.3c-2.3-13.1-4.4-26.2-6.9-39.3c-1.1-5.8-4.7-10.6-11-11.2 c-8-0.7-13.8,6.3-12.9,14c1.2,10.9,3.8,21.8,5.7,32.6c1.9,10.8,1.5,33,17.6,31.3c0.7-0.1,0.7-1.2,0-1.1 c-14,1.5-13.9-15.6-15.6-25.2c-2-11.1-3.9-22.2-5.9-33.3c-1-5.7-1.8-11.6,4-15.4c7.8-5.1,15.5,1.2,17,9.1 c1.9,10.4,3.7,20.8,5.5,31.2c1.6,9.3,9.4,31-5.2,33.6C489.5,372.5,489.8,373.6,490.5,373.5z"/></g></g></g></g><g><g><g><g id="change2_60"><path fill="#38455d" d="M381.4,372.4c-13.7-2.4-7.6-20-6-28.9c2-11.1,3.9-22.2,5.9-33.3c0.9-4.8,1.5-9.6,6.5-12.2 c6.8-3.6,15.1,1.1,15.8,8.7c0.2,1.6-0.1,3-0.3,4.6c-1.7,10.4-3.7,20.8-5.5,31.2c-1,5.6-2,11.3-3,16.9c-1.3,7.3-4.4,14-13.5,13 c-0.7-0.1-0.7,1.1,0,1.1c14.6,1.6,14.7-14.9,16.5-25c2.2-12.7,4.8-25.3,6.7-38c2.4-15.7-19.8-20.6-23.5-5 c-2.7,11.3-4.1,23.1-6.1,34.6c-1.7,9.8-9.2,30.7,6.3,33.4C381.8,373.6,382.1,372.5,381.4,372.4z"/></g></g></g></g><g><g><g><g id="change2_8"><path fill="#38455d" d="M9.9,372.4c-13.7-2.4-7.6-20-6-28.9c2-11.1,3.9-22.2,5.9-33.3c0.9-4.8,1.5-9.6,6.5-12.2 c6.8-3.6,15.1,1.1,15.8,8.7c0.2,1.6-0.1,3-0.3,4.6c-1.7,10.4-3.7,20.8-5.5,31.2c-1,5.6-2,11.3-3,16.9c-1.3,7.3-4.4,14-13.5,13 c-0.7-0.1-0.7,1.1,0,1.1c14.6,1.6,14.7-14.9,16.5-25c2.2-12.7,4.8-25.3,6.7-38c2.4-15.7-19.8-20.6-23.5-5 c-2.7,11.3-4.1,23.1-6.1,34.6c-1.7,9.8-9.2,30.7,6.3,33.4C10.3,373.6,10.6,372.5,9.9,372.4z"/></g></g></g></g><g><g><g><g id="change2_36"><path fill="#38455d" d="M119,373.5c13.9-2.4,9-18.1,7.3-27.3c-2.3-13.1-4.4-26.2-6.9-39.3c-1.1-5.8-4.7-10.6-11-11.2 c-8-0.7-13.8,6.3-12.9,14c1.2,10.9,3.8,21.8,5.7,32.6c1.9,10.8,1.5,33,17.6,31.3c0.7-0.1,0.7-1.2,0-1.1 c-14,1.5-13.9-15.6-15.6-25.2c-2-11.1-3.9-22.2-5.9-33.3c-1-5.7-1.8-11.6,4-15.4c7.8-5.1,15.5,1.2,17,9.1 c1.9,10.4,3.7,20.8,5.5,31.2c1.6,9.3,9.4,31-5.2,33.6C118,372.5,118.3,373.6,119,373.5z"/></g></g></g></g></g><g id="Layer_20"><g><g id="change1_27"><path fill="#ffffff" d="M480.2,383.8L480.2,383.8c6.2-1.1,10.4-7.1,9.3-13.3l-9.5-54c-1.1-6.2-7.1-10.4-13.3-9.3l0,0 c-6.2,1.1-10.4,7.1-9.3,13.3l9.5,54C468,380.7,474,384.8,480.2,383.8z"/></g></g><g><g id="change1_17"><path fill="#ffffff" d="M391.3,383.8L391.3,383.8c-6.2-1.1-10.4-7.1-9.3-13.3l9.5-54c1.1-6.2,7.1-10.4,13.3-9.3h0 c6.2,1.1,10.4,7.1,9.3,13.3l-9.5,54C403.5,380.7,397.5,384.8,391.3,383.8z"/></g></g><g><g id="change1_3"><path fill="#ffffff" d="M19.9,383.8L19.9,383.8c-6.2-1.1-10.4-7.1-9.3-13.3l9.5-54c1.1-6.2,7.1-10.4,13.3-9.3h0 c6.2,1.1,10.4,7.1,9.3,13.3l-9.5,54C32,380.7,26.1,384.8,19.9,383.8z"/></g></g><g><g id="change1_25"><path fill="#ffffff" d="M108.8,383.8L108.8,383.8c6.2-1.1,10.4-7.1,9.3-13.3l-9.5-54c-1.1-6.2-7.1-10.4-13.3-9.3h0 c-6.2,1.1-10.4,7.1-9.3,13.3l9.5,54C96.6,380.7,102.5,384.8,108.8,383.8z"/></g></g></g><g id="Layer_19"><g><g><g><g id="change2_122"><path fill="#38455d" d="M480.4,384.3c13.9-2.4,9-18.1,7.3-27.3c-2.3-13.1-4.4-26.2-6.9-39.3c-1.1-5.8-4.7-10.6-11-11.2 c-8-0.7-13.8,6.3-12.9,14c1.2,10.9,3.8,21.8,5.7,32.6c1.9,10.8,1.5,33,17.6,31.3c0.7-0.1,0.7-1.2,0-1.1 c-14,1.5-13.9-15.6-15.6-25.2c-2-11.1-3.9-22.2-5.9-33.3c-1-5.7-1.8-11.6,4-15.4c7.8-5.1,15.5,1.2,17,9.1 c1.9,10.4,3.7,20.8,5.5,31.2c1.6,9.3,9.4,31-5.2,33.6C479.4,383.3,479.7,384.4,480.4,384.3z"/></g></g></g></g><g><g><g><g id="change2_79"><path fill="#38455d" d="M391.5,383.2c-13.7-2.4-7.6-20-6-28.9c2-11.1,3.9-22.2,5.9-33.3c0.9-4.8,1.5-9.6,6.5-12.2 c6.8-3.6,15.1,1.1,15.8,8.7c0.2,1.6-0.1,3-0.3,4.6c-1.7,10.4-3.7,20.8-5.5,31.2c-1,5.6-2,11.3-3,16.9c-1.3,7.3-4.4,14-13.5,13 c-0.7-0.1-0.7,1.1,0,1.1c14.6,1.6,14.7-14.9,16.5-25c2.2-12.7,4.8-25.3,6.7-38c2.4-15.7-19.8-20.6-23.5-5 c-2.7,11.3-4.1,23.1-6.1,34.6c-1.7,9.8-9.2,30.7,6.3,33.4C391.9,384.4,392.2,383.3,391.5,383.2z"/></g></g></g></g><g><g><g><g id="change2_84"><path fill="#38455d" d="M20,383.2c-13.7-2.4-7.6-20-6-28.9c2-11.1,3.9-22.2,5.9-33.3c0.9-4.8,1.5-9.6,6.5-12.2 c6.8-3.6,15.1,1.1,15.8,8.7c0.2,1.6-0.1,3-0.3,4.6c-1.7,10.4-3.7,20.8-5.5,31.2c-1,5.6-2,11.3-3,16.9c-1.3,7.3-4.4,14-13.5,13 c-0.7-0.1-0.7,1.1,0,1.1c14.6,1.6,14.7-14.9,16.5-25c2.2-12.7,4.8-25.3,6.7-38c2.4-15.7-19.8-20.6-23.5-5 c-2.7,11.3-4.1,23.1-6.1,34.6c-1.7,9.8-9.2,30.7,6.3,33.4C20.4,384.4,20.7,383.3,20,383.2z"/></g></g></g></g><g><g><g><g id="change2_38"><path fill="#38455d" d="M108.9,384.3c13.9-2.4,9-18.1,7.3-27.3c-2.3-13.1-4.4-26.2-6.9-39.3c-1.1-5.8-4.7-10.6-11-11.2 c-8-0.7-13.8,6.3-12.9,14c1.2,10.9,3.8,21.8,5.7,32.6c1.9,10.8,1.5,33,17.6,31.3c0.7-0.1,0.7-1.2,0-1.1 c-14,1.5-13.9-15.6-15.6-25.2c-2-11.1-3.9-22.2-5.9-33.3c-1-5.7-1.8-11.6,4-15.4c7.8-5.1,15.5,1.2,17,9.1 c1.9,10.4,3.7,20.8,5.5,31.2c1.6,9.3,9.4,31-5.2,33.6C107.9,383.3,108.2,384.4,108.9,384.3z"/></g></g></g></g></g><g id="Layer_18"><g><g id="change1_24"><path fill="#ffffff" d="M44.4,279.3c-21,1.3-36.3,5.1-36.3,9.7v19.2c0,5.6,22.8,10.1,50.9,10.1c28.1,0,50.9-4.5,50.9-10.1 c0-2.5-4.6-4.8-12.1-6.6v-6c7.6-1.8,12.1-4.1,12.1-6.6"/></g></g><g><g id="change1_4"><path fill="#ffffff" d="M455.7,279.3c21,1.3,36.3,5.1,36.3,9.7v19.2c0,5.6-22.8,10.1-50.9,10.1c-28.1,0-50.9-4.5-50.9-10.1 c0-2.5,4.6-4.8,12.1-6.6v-6c-7.6-1.8-12.1-4.1-12.1-6.6"/></g></g></g><g id="Layer_17"><g><g><g><g id="change2_47"><path fill="#38455d" d="M455.7,279.9c9.3,0.6,18.8,1.4,27.8,4.1c5.3,1.6,7.9,3,7.9,8.4c0,4.8,0.4,9.8,0,14.5 c-0.4,4.8-6.5,5.9-10.5,7c-18.3,4.7-38.5,4.6-57.2,3.2c-8.3-0.6-16.8-1.5-24.7-3.9c-2.1-0.6-5.9-1.5-7.2-3.4 c-3.3-4.8,7.9-7,10.8-7.7c0.2-0.1,0.4-0.3,0.4-0.5c0-2,0-4,0-6c0-0.2-0.2-0.5-0.4-0.5c-3.1-0.8-11.1-2.1-11.8-6.2 c-0.1-0.7-1.2-0.4-1.1,0.3c0.4,2.1,2.3,3.3,4.1,4.2c1.7,0.9,3.7,1.6,5.5,2c2.8,0.7,2.5,0.5,2.5,3.2c0,2.8,0.5,1.9-1.6,3 c-1.8,0.9-4,1.1-5.8,2c-1.8,0.8-4.7,2.2-4.7,4.5c-0.1,3.2,4.5,4.8,6.8,5.6c8.3,3,17.5,3.9,26.2,4.5c12.2,0.9,24.6,0.9,36.8,0 c8.7-0.7,17.9-1.5,26.2-4.5c2.9-1,6.2-2.3,6.9-5.6c0.9-4.8,0-10.7,0-15.7c0-4.6-0.7-6.3-5.3-8.3c-9.6-4.1-21.2-4.7-31.5-5.4 C455,278.7,455,279.8,455.7,279.9L455.7,279.9z"/></g></g></g></g><g><g><g id="change2_10"><path fill="#38455d" d="M455,279.8c10.1,0.6,20.9,1.3,30.4,4.8c2.6,1,7.4,2.8,5,6.1c-1.7,2.3-6.4,3.2-9,3.9 c-19.4,5.1-41.5,5.2-61.3,3.1c-0.7-0.1-0.7,1.1,0,1.1c13.9,1.5,28.1,1.2,42.1,0c8.6-0.8,20.6-1.2,27.9-6.4 c3.6-2.6,2.4-5.4-1-7.4c-9.6-5.5-23.4-5.7-34.1-6.3C454.3,278.6,454.3,279.8,455,279.8L455,279.8z"/></g></g></g><g><g><g id="change2_65"><path fill="#38455d" d="M45.1,278.7c-10.7,0.7-24,0.9-33.7,6.1c-3.6,1.9-5.2,4.9-1.4,7.6c7.1,5.1,18.6,5.5,26.9,6.3 c14.2,1.4,28.8,1.6,43,0.1c0.7-0.1,0.7-1.2,0-1.1c-19.8,2.1-41.9,2-61.3-3.1c-2.7-0.7-6.4-1.5-8.5-3.5c-3.2-3.1,1.3-5.2,4-6.2 c9.6-3.8,20.8-4.4,31-5C45.8,279.8,45.8,278.6,45.1,278.7L45.1,278.7z"/></g></g></g><g><g><g><g id="change2_104"><path fill="#38455d" d="M44.4,278.7c-9.9,0.6-20.4,1.4-29.8,4.7c-3.1,1.1-6.5,2.4-7,5.9c-0.8,5.3,0,11.3,0,16.6 c0,3.3,0.6,4.7,3.7,6.4c6.1,3.2,13.6,4.1,20.3,5c12.2,1.6,24.6,1.9,36.9,1.4c10-0.4,20.2-1.2,30-3.6c3.2-0.8,10.3-2.1,11.7-5.8 c2.3-6.3-10.7-6.1-11.9-8.5c-0.3-0.6-0.3-3.9,0-4.5c0.6-1.2,4.8-1.6,6.6-2.3c2.2-0.9,5.1-2.2,5.5-4.8c0.1-0.7-1-1-1.1-0.3 c-0.7,4.1-8.6,5.4-11.8,6.2c-0.2,0.1-0.4,0.3-0.4,0.5c0,2,0,4,0,6c0,0.2,0.2,0.5,0.4,0.5c2.9,0.7,14.1,2.9,10.8,7.7 c-1.2,1.8-4.7,2.6-6.7,3.2c-7.8,2.5-16.2,3.3-24.3,4c-19,1.5-39.6,1.6-58.2-3.2c-3.9-1-9.8-2.1-10.5-6.7c-0.7-4.6,0-9.7,0-14.3 c0-5.5,1.9-6.9,7.3-8.7c9.1-3,18.9-3.7,28.3-4.3C45.1,279.8,45.1,278.7,44.4,278.7L44.4,278.7z"/></g></g></g></g></g><g id="Layer_3"><g id="change1_32"><path fill="#ffffff" d="M216.7,26.4l-8.1,24.1c0,0-7.2-2.1-8.1,4.3s1.5,13.3,6.1,14.9s9.1,1.1,9.1,1.1s0.6,17.2,11,24.2 c10.4,7,10.4,7,10.4,7l-28.7,18.2l-1.9,64.3c0,0,93.6-0.2,93.4,0s-4.7-57.4-4.7-57.4L282,111.9l-10.4-8.2L292.9,70 c0,0,6.2-2.5,7.1-9.7c0.9-7.2-1-9.5-4.5-10.2s-6.3-8.5-6.3-8.5S308.4-4.1,216.7,26.4z"/></g><g id="change1_33"><path fill="#ffffff" d="M398.7,47.2l-29.8,10.6l-4.8,14.2l1.6,15.2c0,0,0.8,20.6,2.4,25c1.6,4.3,7.1,16.6,17.8,18.5 c10.7,1.9,15.2,3.3,21.1,1.2l0.5,13.2l22.2,3.5l7.8-19l0.5-27.3c0,0,7.2,2.3,11.2-2.2c3.9-4.5,3-8.6,3-9c0-0.4-1.1-12.4-1.1-12.4 S437.2,39.1,398.7,47.2z"/></g><g id="change1_34"><path fill="#ffffff" d="M404.5,242.6l0.1,55.6c0,0,27.8,2.1,37.4-5.3s14.1-14.3,16.7-21.3c2.6-7,5.1-22,5-22.7 c-0.2-0.7,0.5-6.9,0.5-6.9l-59.6-0.5V242.6z"/></g><g id="change1_35"><path fill="#ffffff" d="M82.9,46.2L55.8,74.5l-5.8,5.3l-2.4,10.9c0,0,1.4,12.7,8.3,12.1s6.2-0.7,6.2-0.7l0.5,29.8 c0,0-13.4,3.5-16.8,16.6c-3.4,13.1-6.1,53.5-6.1,53.5l-2.6,23.5l-0.8,20.4l33.4,5.6l24.4-11.1c0,0,0-7.7,0.6-8.3 c0.6-0.7,16.1-34.1,16.1-34.1l7.6-17.5c0,0-6.4-21.7-10.7-26.7s-11-12.2-11-12.2l-3.8-3.2l-0.3-6.5c0,0,11.5,2.1,19.5-0.8 c8.1-2.9,16.9-7.1,19.7-18.2c2.8-11.1,1.8-18.8,1.8-18.8l1.2-15.8l0.4-7.8C135.2,70.5,98.5,37.5,82.9,46.2z"/></g><g id="change1_36"><path fill="#ffffff" d="M212.9,307.5l-3.5,17.6c0,0-1.5,9.6,0,11.2c1.5,1.7,4,4.4,13.9,4.2c9.9-0.2,17.2-0.5,18.2-4.6 c1-4.1,0-8.7,0-8.7l-3.7-19.7L212.9,307.5z"/></g><g id="change1_37"><path fill="#ffffff" d="M261.1,307.5l-3.5,17.6c0,0-1.5,9.6,0,11.2c1.5,1.7,4,4.4,13.9,4.2s17.2-0.5,18.2-4.6s0-8.7,0-8.7l-3.7-19.7 L261.1,307.5z"/></g><g><g id="change1_11"><path fill="#ffffff" d="M204.9 267.6L204.9 308.2 248 308.2 245.7 267.6z"/></g></g><g><g id="change1_31"><path fill="#ffffff" d="M295.2 267.6L295.2 308.2 252 308.2 254.4 267.6z"/></g></g></g><g id="Layer_23"><g><g id="change3_1"><path fill="#ffccbf" d="M407.2,135.3c0,0,0,2.8-1.6,4.3s-7.9,7.6-15.8,18.1c-7.9,10.4-12.7,26.5-10,27.5l5.2-1l21.1-9l14.9,19.1 l-28.6,11.1l12.1,27.4v10c0,0,23.5,2.4,38.2,2.2s20.1-0.7,20.9-3.3c0.8-2.5-4.2-49.6-4.2-49.6l-3.3-34.4c0,0-0.3-14.5-6.4-19.8 c-6.1-5.3-12.2-8.2-12.2-8.2l-16.8,14.6c0,0-13.2-0.1-13.4-3C407,138.4,407.2,135.3,407.2,135.3z"/></g></g><g><g id="change3_2"><path fill="#ffccbf" d="M37.9,245.5c-0.6-0.1-1.4-0.1-1.4,2.3s2.5,19.5,5.4,25.2s4.8,10.6,9.6,14.6s9,7.6,18.6,9.5s25.7,1.6,26.3,0 S96,277.9,96,277.9h-1.3l-0.3-39.3c0,0-8.6,5.1-21.1,7.5C62.8,248,49.3,247.4,37.9,245.5z"/></g></g><g><g id="change3_3"><path fill="#ffccbf" d="M237.9,108.5c0,0,1.5-4.7-1.7-4.8s-9.2-0.2-16.1,3.9c-6.9,4.1-14.8,9.6-19,15.2c-4.2,5.6-8.6,12.2-10.2,18.3 s-3.6,17.3-3.3,25.2c0.3,7.9,1.7,11.6,2.9,13.6s2.8,4.3,6.5,4.8s12.7,0.3,12.7-0.6c0-1-0.1-16.1-0.1-16.1s-3.8-0.1-3.8-1.7 c0-1.6,1.7-2.7,1.7-2.9c0-0.2-2.2-2-2.3-3.1c-0.1-1.1,3.5-2.6,3.5-2.6s-2.4-1.7-2.8-2.6s-0.8-2.9,0.2-3.6c1-0.7,1.5-1.3,1.3-2.4 c-0.1-1.1,0.8-1.7,2.2-2.2c0,0-0.5-20.7,0.5-21.5c1-0.7,6.5-4.5,6.5-4.5s32.2,13.3,34.2,12.5c2.1-0.8,33-12.7,33.4-12.5 c0.4,0.2,6.4,4,6.4,6.2c0,2.2,0.1,19.8,0.1,19.8s2.3,0.3,1.8,2c-0.4,1.6-0.1,2.2,0.6,2.5c0.7,0.3,2,2,1,3.2 c-1,1.2-3.3,2.4-3.1,3.2s3.4,1.1,3.4,1.7c0.1,0.6,0.4,2-1.3,2.8c-1.8,0.9-1.3,0.9-0.1,2c1.2,1.1,1.7,2.1,0.2,2.7 c-1.5,0.6-2.8,1.6-2.8,1.6l0.6,16c0,0,13.8,0.7,15.5-0.2s4.1-4.9,5.5-11.4c1.4-6.5,0.6-13.3,0.6-13.3l-1.2-11.3l-2.8-9.8 l-4.5-9.1l-7.7-10l-9.7-7.4l-8.6-5l-5.9-2c0,0-5.6-1.2-7.7-1.1c-2.1,0.1-0.9,1.5-1.5,5.6c-0.6,4.1-1.8,8.6-5.2,10.4 c-3.4,1.8-9.1,4.2-14.2,1.2C238.8,117.9,236.5,110.8,237.9,108.5z"/></g></g></g><g id="Layer_1"><g><g><g id="change2_85"><path fill="#38455d" d="M406.6,137.9c-14.1,11.6-26,28.8-28.8,47.1c-0.1,0.9,1.2,1.3,1.3,0.4c2.8-18,14.5-35,28.5-46.4 C408.2,138.3,407.2,137.3,406.6,137.9L406.6,137.9z"/></g></g></g><g><g><g id="change2_31"><path fill="#38455d" d="M406.5,132.6c0,3.2-1.3,8,1.3,10.3c4.7,4.1,13.2,1.9,18.1-0.4c5.3-2.5,11.7-6.8,12.3-13 c0.5-5.3,0.2-10.9,0.3-16.3c0-2.8,0.5-5.9,0.2-8.7c-0.1-0.6-0.1-1.4,0-2c-0.1,0.7-1.4,0.2,0.1,0.7c3.7,1.2,8.5,0.3,11.1-2.6 c3.6-4,4.1-12.9,0.9-17.2c-2.5-3.3-5.1-2.1-8.5-2.2c-8.3-0.1-15.3-10.9-19.1-17.1c-3-4.8-5.7-9.9-7.8-15.1 c-0.1-0.3-0.3-0.5-0.7-0.5c-12.8,0.4-25.6,2.3-37.5,7.4c-8.8,3.8-15.6,7.8-13.6,18.3c3.5,18.1-3.4,44.9,16.8,55.1 c14.2,7.2,30.9,5.4,43.9-3.4c0.7-0.5,0-1.7-0.7-1.2c-18.3,12.3-50.2,10.4-55.6-14.8c-1.7-8.2-1.3-16.7-1.8-25 c-0.2-3.5-0.5-7.1-1.2-10.5c-1.4-7.1,0.8-11.2,7-14.6c7.5-4,15.7-6.6,24.1-8.2c3.2-0.6,6.3-1,9.5-1.3c1.6-0.2,3.3-0.2,4.9-0.4 c0.2,0,3.6-0.5,3.4-0.6c0.6,0.3,1.4,3.2,1.7,3.8c4.7,10.2,12,25,23.5,28.8c1.9,0.6,2.7,0.4,4.3,0.3c5.4-0.3,7.5,2.8,7.7,8.2 c0.2,8.3-5.2,13.6-13.2,11c-0.4-0.1-0.9,0.2-0.9,0.7c-0.2,8.9,0.7,18.5-0.5,27.3c-1.2,8.9-14.8,14.7-22.7,14 c-7.8-0.7-6.1-4.6-6.1-10.9C407.9,131.7,406.5,131.7,406.5,132.6L406.5,132.6z"/></g></g></g><g><g><g id="change2_100"><path fill="#38455d" d="M445.7,87.2c0.4,0.5,1.1,1.9,1.4,2.9c0.7,2.9-0.7,5-3.1,6.5c-0.8,0.5-0.1,1.7,0.7,1.2 c4.3-2.7,5.1-7.5,2-11.6C446.2,85.5,445.2,86.5,445.7,87.2L445.7,87.2z"/></g></g></g><g><g id="change2_48"><ellipse rx="3.3" ry="3.9" fill="#38455d" cx="378.4" cy="90.3"/></g></g><g><g id="change2_15"><ellipse rx="3.3" ry="3.9" fill="#38455d" cx="405.6" cy="90.3"/></g></g><g><g><g id="change2_9"><path fill="#38455d" d="M388.9,87.8c-1.5,5.5-5.3,19.5,5.3,17.1c0.8-0.2,0.5-1.5-0.4-1.3c-2,0.5-4.7,0.1-5.5-2.2 c-0.5-1.7,0-4.1,0.2-5.8c0.4-2.5,0.9-5,1.6-7.4C390.4,87.3,389.1,87,388.9,87.8L388.9,87.8z"/></g></g></g><g><g><g id="change2_57"><path fill="#38455d" d="M373.2,80.6c2.9-1.8,6.5-2.4,9.8-2.1c0.9,0.1,0.9-1.4,0-1.5c-3.6-0.3-7.5,0.4-10.6,2.3 C371.7,79.8,372.4,81.1,373.2,80.6L373.2,80.6z"/></g></g></g><g><g><g id="change2_101"><path fill="#38455d" d="M412.9,79.3c-3.1-1.9-7-2.6-10.6-2.3c-0.9,0.1-0.9,1.5,0,1.5c3.3-0.3,6.9,0.3,9.8,2.1 C413,81.1,413.7,79.8,412.9,79.3L412.9,79.3z"/></g></g></g><g><g><g id="change2_121"><path fill="#38455d" d="M455.3,156.7c1.1,12.2,2.2,24.4,3.5,36.6c1.7,16.9,4.4,33.9,4,50.9c-0.4,16.1-4,34.1-16.9,45 c-11.4,9.5-27.4,8.7-41.3,8.1c-0.9,0-0.9,1.4,0,1.4c13.4,0.6,28.7,1.4,40.2-6.8c11.7-8.4,17.1-23.2,18.7-37 c2.2-18.4-0.7-37-2.7-55.3c-1.5-14.2-2.9-28.5-4.1-42.8C456.6,155.8,455.2,155.8,455.3,156.7L455.3,156.7z"/></g></g></g><g><g><g id="change2_50"><path fill="#38455d" d="M402.1,108.4c-3.2,3.8-8.3,6.2-13.3,4.5c-0.9-0.3-1.3,1.1-0.4,1.4c5.4,1.8,11.2-0.7,14.7-4.8 C403.7,108.8,402.7,107.7,402.1,108.4L402.1,108.4z"/></g></g></g><g><g><g id="change2_26"><path fill="#38455d" d="M433.5,198.9c-5,9.3-10.3,18.6-14.6,28.3c-0.4,0.8,0.8,1.5,1.2,0.7c4.3-9.7,9.6-19,14.6-28.3 C435.2,198.9,434,198.2,433.5,198.9L433.5,198.9z"/></g></g></g><g><g><g><g id="change2_13"><path fill="#38455d" d="M204.2,267.6c0,13.5,0,27.1,0,40.6c0,0.4,0.3,0.7,0.7,0.7c14.4,0,28.8,0,43.1,0c0.4,0,0.7-0.3,0.7-0.7 c-0.8-13.5-1.6-27.1-2.4-40.6c0-0.4-0.3-0.7-0.7-0.7c-13.6,0-27.2,0-40.8,0c-0.9,0-0.9,1.4,0,1.4c11.9,0,23.9,0,35.8,0 c1.3,0,3.6-0.4,4.9,0c-0.7-0.2-0.6-1.1-0.6,0.1c0.1,1,0.1,2.1,0.2,3.1c0.4,7.1,0.8,14.2,1.2,21.3c0.2,3.2,0.4,6.4,0.6,9.6 c0.1,1.5,0.7,4.1,0.3,5.6c0.1-0.3,1.2-0.7,0-0.5c-0.9,0.1-1.8,0-2.7,0c-3.2,0-6.3,0-9.5,0c-7.4,0-14.8,0-22.2,0 c-2.2,0-4.7-0.3-6.9,0c-0.5,0.1-1.4-0.3-0.7,0.3c0.7,0.7,0.2-0.7,0.3-1.2c0.6-2.7,0-6.3,0-9.1c0-4.3,0-8.6,0-12.9 c0-5.7,0-11.3,0-17C205.6,266.7,204.2,266.7,204.2,267.6z"/></g></g></g></g><g><g><g id="change2_92"><path fill="#38455d" d="M242.6,327.3c-1.3-6.4-2.7-12.8-4-19.3c-0.1-0.3-0.4-0.5-0.7-0.5c-8.3,0-16.6,0-25,0 c-0.3,0-0.6,0.2-0.7,0.5c-1.1,5.6-2.2,11.2-3.3,16.8c-1,5.2-0.3,10.9,5.9,12.2c5.4,1.1,11.7,0.2,17.2,0.2 c6.1,0,11.5-2.7,10.7-9.8c-0.1-0.9-1.5-0.9-1.4,0c1.1,9.7-9.1,8.4-15.1,8.4c-4,0-11.2,1.3-14.5-2c-3.7-3.8-0.6-11.9,0.2-16.3 c0.4-2.2,0.9-4.4,1.3-6.7c0.3-1.5,0.8-2.2,0-1.9c0.9-0.4,3.1,0,4.1,0c2.4,0,4.7,0,7.1,0c3.6,0,9.6-1.1,13,0 c0.9,0.3-0.1-0.4-0.1-0.4c0.2,0.3,0.3,1.3,0.3,1.7c0.1,2.1,0.9,4.3,1.3,6.3c0.8,3.7,1.6,7.5,2.3,11.2 C241.4,328.5,242.7,328.2,242.6,327.3z"/></g></g></g><g><g><g id="change2_106"><path fill="#38455d" d="M208.3,331.3c-1.2,10.8,9.9,9.8,17.1,9.8c7.3,0,18.3,1,17.1-9.8c-0.1-0.9-1.5-0.9-1.4,0 c1.1,9.9-9.5,8.4-15.7,8.4c-6.2,0-16.8,1.6-15.7-8.4C209.9,330.4,208.4,330.4,208.3,331.3L208.3,331.3z"/></g></g></g><g><g><g><g id="change2_124"><path fill="#38455d" d="M294.5,267.6c0,11.9,0,23.8,0,35.6c0,1.1,0.5,3.8,0,4.9c0.3-0.5,1.1-0.7,0-0.6c-1,0.1-2,0-3,0 c-7.1,0-14.1,0-21.2,0c-5.8,0-11.6-0.2-17.3,0c-1.2,0-0.5-0.2-0.2,0.6c-0.1-0.3,0-1.4,0.1-1.7c0.6-2.6,0.3-5.7,0.5-8.4 c0.4-7.4,0.9-14.7,1.3-22.1c0.1-2.3,0.5-4.8,0.4-7.2c0-0.6,0.4-1.3-0.3-0.8c-0.8,0.6,0.8,0.2,1.2,0.3c2.7,0.6,6.4,0,9.2,0 c4.3,0,8.6,0,13,0c5.7,0,11.4,0,17.1,0c0.9,0,0.9-1.4,0-1.4c-13.6,0-27.2,0-40.8,0c-0.4,0-0.7,0.3-0.7,0.7 c-0.8,13.5-1.6,27.1-2.4,40.6c0,0.4,0.3,0.7,0.7,0.7c14.4,0,28.8,0,43.1,0c0.4,0,0.7-0.3,0.7-0.7c0-13.5,0-27.1,0-40.6 C295.9,266.7,294.5,266.7,294.5,267.6z"/></g></g></g></g><g><g><g id="change2_29"><path fill="#38455d" d="M257.8,327.6c0.8-3.7,1.6-7.5,2.3-11.2c0.4-2,1.2-4.2,1.3-6.3c0-0.3,0.1-1.4,0.3-1.7 c-0.1,0.2-1,0.8-0.1,0.4c3.5-1.2,9.4,0,13,0c2.8,0,8.5-1.2,11.1,0c0.6,0.3-0.9-1-0.3,0c0.3,0.5,0.3,1.4,0.4,1.9 c0.4,2.2,0.9,4.4,1.3,6.7c0.9,4.4,3.9,12.5,0.2,16.3c-3.2,3.3-10.4,2-14.5,2c-6.1,0-16.2,1.4-15.1-8.4c0.1-0.9-1.3-0.9-1.4,0 c-0.8,7.1,4.5,9.8,10.7,9.8c5.4,0,11.8,1,17.2-0.2c6.2-1.4,6.9-7,5.9-12.2c-1.1-5.6-2.2-11.2-3.3-16.8c-0.1-0.3-0.4-0.5-0.7-0.5 c-8.3,0-16.6,0-25,0c-0.3,0-0.6,0.2-0.7,0.5c-1.3,6.4-2.7,12.8-4,19.3C256.2,328.1,257.6,328.5,257.8,327.6z"/></g></g></g><g><g><g id="change2_51"><path fill="#38455d" d="M289.2,331.3c1.1,9.9-9.5,8.4-15.7,8.4c-6.2,0-16.8,1.6-15.7-8.4c0.1-0.9-1.3-0.9-1.4,0 c-1.2,10.8,9.9,9.8,17.1,9.8c7.3,0,18.3,1,17.1-9.8C290.5,330.4,289.1,330.4,289.2,331.3L289.2,331.3z"/></g></g></g><g><g><g><g><g id="change2_43"><path fill="#38455d" d="M238.1,103.4c-9.6-1.9-20.4,4.6-27.7,10c-16.4,12.1-23.1,30.3-23.1,50.2c0,7.2,0.1,17.6,7.2,21.7 c0.8,0.5,1.5-0.8,0.7-1.2c-8.5-4.9-7.1-21.5-6.2-29.9c1.2-12.3,6.1-23.9,14.6-32.9c7.5-7.9,22.1-18.8,34.1-16.5 C238.6,104.9,238.9,103.6,238.1,103.4L238.1,103.4z"/></g></g></g><g><g><g id="change2_72"><path fill="#38455d" d="M188,188.2c11.5,0.2,23,0.2,34.5,0.1c15.2-0.1,31.2,0.4,46.2-2.5c0.9-0.2,0.5-1.5-0.4-1.3 c-15.3,2.9-31.6,2.3-47.1,2.4c-11.1,0.1-22.2,0.1-33.2-0.1C187.1,186.7,187.1,188.1,188,188.2L188,188.2z"/></g></g></g></g></g><g><g><g><g><g id="change2_120"><path fill="#38455d" d="M263.2,104.7c12.2-2.3,26.8,8.7,34.3,16.8c8.3,9,13,20.4,14.2,32.6c0.8,8.4,2.2,25-6.2,29.9 c-0.8,0.4-0.1,1.7,0.7,1.2c6.7-3.9,7.2-13.4,7.3-20.3c0.1-9.9-0.9-19.6-4.8-28.8c-6-14.1-18-24.8-32.1-30.6 c-4.5-1.9-8.7-3.1-13.7-2.2C262,103.6,262.4,104.9,263.2,104.7L263.2,104.7z"/></g></g></g></g></g><g><g><g><g id="change2_56"><path fill="#38455d" d="M237.2,99.7c0,4.2-0.5,8.7,0.1,12.8c0.8,6.1,6.4,10.4,12.4,10.5c5.8,0.1,12.2-3.8,13.7-9.6 c1.1-4.1,0.4-9,0.4-13.2c0-0.9-1.4-0.9-1.4,0c0,3,0.1,6,0,9c-0.2,7-5.4,12.6-12.7,12.4c-7.1-0.1-11-5.6-11.1-12.2 c-0.1-3.3,0-6.5,0-9.8C238.6,98.9,237.2,98.9,237.2,99.7L237.2,99.7z"/></g></g></g><g><g><g id="change2_80"><path fill="#38455d" d="M286.6,50.1c0.3-8.9-1.3-18-2.8-26.8c-0.1-0.3-0.4-0.5-0.7-0.5c-22.2,0-44.5,0-66.7,0 c-0.4,0-0.7,0.3-0.7,0.7c-1.2,11-1.6,21.9-1.6,33c0,13.7,1.8,29.9,13.2,39c6,4.8,13.6,6.4,21.1,6.5c6.5,0.1,13.1-0.2,19.1-2.9 c9.3-4.2,14.6-13.1,17-22.7C286.7,67.6,286.2,59,286.6,50.1c0-0.9-1.4-0.9-1.4,0c-0.6,13.4,0.6,27.6-7.8,39.1 c-7,9.6-17.8,11.4-28.9,11.3C232,100.4,221,91.1,217.3,75c-2.2-9.6-2-20-1.8-29.8c0.1-5.6,0.6-11.2,1.1-16.7 c0.1-1.4,0-3.2,0.4-4.5c-0.1,0.2-1-0.1,0.7,0.2c3.3,0.6,7.4,0,10.8,0c4.4,0,8.8,0,13.2,0c4.4,0,8.9,0,13.3,0 c8.8,0,17.9,0.6,26.7,0c1.8-0.1,0.6-0.5,0.8,0.2c0.6,1.9,0.6,4,0.9,5.9c0.9,6.5,2,13.2,1.7,19.8C285.1,51,286.6,51,286.6,50.1z"/></g></g></g><g><g><g id="change2_1"><path fill="#38455d" d="M286.6,52.8c2.8-1.4,7.6-3.3,10.5-1.3c2.1,1.4,2.4,4.7,2.4,7.1c-0.1,8.2-6.2,12.4-14,11.3 c-0.9-0.1-0.9,1.3,0,1.4c9.2,1.2,16-4.5,15.4-13.9c-0.2-2.7-0.8-6-3.5-7.4c-3.5-1.8-8.3-0.2-11.6,1.5 C285.1,51.9,285.8,53.2,286.6,52.8L286.6,52.8z"/></g></g></g><g><g><g id="change2_95"><path fill="#38455d" d="M214.4,51.5c-3.2-1.6-7.7-3.2-11.2-1.7c-2.9,1.3-3.7,4.7-3.8,7.5c-0.5,9.4,6.3,15.1,15.4,13.9 c0.9-0.1,0.9-1.5,0-1.4c-7.9,1-13.9-3.1-14-11.3c0-2.2,0.3-5.2,2-6.8c2.8-2.4,8-0.5,10.9,1C214.5,53.2,215.2,51.9,214.4,51.5 L214.4,51.5z"/></g></g></g><g><g id="change2_54"><ellipse rx="3.3" ry="3.9" fill="#38455d" cx="234.9" cy="58.7"/></g></g><g><g id="change2_61"><ellipse rx="3.3" ry="3.9" fill="#38455d" cx="262.2" cy="58.7"/></g></g><g><g><g id="change2_66"><path fill="#38455d" d="M245.4,56.2c-1.5,5.5-5.3,19.5,5.3,17.1c0.8-0.2,0.5-1.5-0.4-1.3c-2,0.5-4.7,0.1-5.5-2.2 c-0.5-1.7,0-4.1,0.2-5.8c0.4-2.5,0.9-5,1.6-7.4C246.9,55.7,245.7,55.4,245.4,56.2L245.4,56.2z"/></g></g></g><g><g><g id="change2_21"><path fill="#38455d" d="M229.8,49c2.9-1.8,6.5-2.4,9.8-2.1c0.9,0.1,0.9-1.4,0-1.5c-3.6-0.3-7.5,0.4-10.6,2.3 C228.2,48.2,229,49.5,229.8,49L229.8,49z"/></g></g></g><g><g><g id="change2_97"><path fill="#38455d" d="M269.4,47.9c-3-2-6.9-2.8-10.5-2.6c-0.9,0.1-0.9,1.5,0,1.5c3.3-0.2,6.9,0.5,9.8,2.4 C269.4,49.6,270.2,48.4,269.4,47.9L269.4,47.9z"/></g></g></g><g><g><g id="change2_37"><path fill="#38455d" d="M243.1,80.2c4.2-0.1,8.4-0.2,12.6-0.4c-0.2-0.2-0.4-0.4-0.7-0.7c-0.1,2.6-1,7-4.2,7.4 c-3.8,0.4-6.4-4-7.1-7.2c-0.2-0.8-1.5-0.5-1.3,0.3c0.9,3.8,4,8.7,8.6,8.2c3.9-0.4,5.1-5.4,5.3-8.7c0-0.3-0.3-0.7-0.7-0.7 c-4.2,0.1-8.4,0.3-12.6,0.4C242.2,78.9,242.2,80.2,243.1,80.2z"/></g></g></g></g><g><g><g id="change2_93"><path fill="#38455d" d="M250.5,183.9c-10.5,0-21,0-31.4,0c-2.3,0-4.6,0-6.9,0c-0.6,0-1.3,0.1-1.9,0c-0.9-0.2,0.4,1.3,0.2,0 c-0.7-5.2,0-10.9,0-16.2c0-7.8,0-15.6-0.1-23.4c0-5.4,1.2-12.2,0-17.5c-0.4-1.6,0.6-0.1-0.7-0.3c0.3,0,1,0.3,1.2,0.4 c1.6,1.1,4.2,1.5,6,2.2c11.1,4,22.2,8,33.3,12c0.8,0.3,1.2-1,0.4-1.3c-13.6-4.9-27.1-9.8-40.7-14.7c-0.4-0.2-0.9,0.2-0.9,0.7 c0,19.6,0.1,39.2,0.1,58.8c0,0.4,0.3,0.7,0.7,0.7c13.6,0,27.1,0,40.7,0C251.4,185.3,251.4,183.9,250.5,183.9L250.5,183.9z"/></g></g></g><g><g><g id="change2_44"><path fill="#38455d" d="M250.2,185.3c13.6,0,27.1,0,40.7,0c0.4,0,0.7-0.3,0.7-0.7c0-19.6-0.1-39.2-0.1-58.8c0-0.4-0.4-0.8-0.9-0.7 c-13.6,4.9-27.1,9.8-40.7,14.7c-0.8,0.3-0.5,1.6,0.4,1.3c9.5-3.4,18.9-6.8,28.4-10.2c4-1.4,8-2.8,12-4.3c-0.7,0.2,0-1.4-0.6,0.5 c-0.4,1.6,0,3.9,0,5.6c0,12.5,0.1,24.9,0.1,37.4c0,4.1-0.9,9.3,0,13.3c0.4,1.6-0.1,0.7,0.3,0.6c-1.5,0.4-3.8,0-5.4,0 c-11.6,0-23.3,0-34.9,0C249.3,183.9,249.3,185.3,250.2,185.3L250.2,185.3z"/></g></g></g><g><g><g id="change2_125"><path fill="#38455d" d="M250.7,140.5c0-2.3,0-4.6,0-6.8c0-0.3-0.2-0.6-0.5-0.7c-8.1-3.1-16.3-6.2-24.4-9.3 c-2.3-0.9-6.8-3.7-9.3-3.5c-2.3,0.1-5.4,3.7-7.2,5c-0.5,0.4-0.4,1.1,0.2,1.3c0.5,0.2,1,0.4,1.5,0.5c0.8,0.3,1.2-1,0.4-1.3 c-0.5-0.2-1-0.4-1.5-0.5c0.1,0.4,0.1,0.8,0.2,1.3c1.8-1.3,3.5-2.7,5.3-3.9c1.5-1.1,0.4-1,2.2-0.4c4.9,1.4,9.7,3.7,14.4,5.5 c5.1,1.9,10.1,3.8,15.2,5.8c1,0.4,2.7,1.6,2.2,0.5c0.8,1.5,0,4.9,0,6.6C249.3,141.4,250.7,141.4,250.7,140.5L250.7,140.5z"/></g></g></g><g><g><g id="change2_52"><path fill="#38455d" d="M250.9,140.5c0-1.8-0.6-4.7,0-6.4c0.2-0.6-0.8,0.7,0.1,0c0.4-0.3,1.3-0.5,1.8-0.7c5.2-2,10.3-3.9,15.5-5.9 c4.7-1.8,9.4-3.7,14.2-5.4c1.8-0.6,0.8-0.6,2.1,0.1c2,1.1,3.8,2.8,5.6,4.2c0.7,0.5,1.4-0.7,0.7-1.2c-1.8-1.4-4.9-4.9-7.2-5 c-2.5-0.1-7,2.7-9.3,3.5c-8.1,3.1-16.3,6.2-24.4,9.3c-0.3,0.1-0.5,0.3-0.5,0.7c0,2.3,0,4.6,0,6.8 C249.5,141.4,250.9,141.4,250.9,140.5L250.9,140.5z"/></g></g></g><g><g><g id="change2_123"><path fill="#38455d" d="M243.8,138.4c0,15.4,0,30.9,0,46.3c0,0.9,1.4,0.9,1.4,0c0-15.4,0-30.9,0-46.3 C245.2,137.5,243.8,137.5,243.8,138.4L243.8,138.4z"/></g></g></g><g><g><g id="change2_4"><path fill="#38455d" d="M254.5,138.8c0,15.3,0,30.5,0,45.8c0,0.9,1.4,0.9,1.4,0c0-15.3,0-30.5,0-45.8 C255.9,137.9,254.5,137.9,254.5,138.8L254.5,138.8z"/></g></g></g><g><g><g id="change2_102"><path fill="#38455d" d="M92.2,132.6c0,5.7,1.7,9.6-4.9,10.7c-8.2,1.4-22.7-4.5-23.9-13.8c-1.2-8.9-0.3-18.4-0.5-27.3 c0-0.4-0.4-0.8-0.9-0.7c-5.7,1.8-11.5-0.3-12.9-6.6c-0.9-4.1-0.8-11.6,4.4-12.8c1.5-0.3,2.7,0.4,4.1,0.4 c5.4,0.1,10.6-5,13.8-8.7c4.5-5.2,8-11.1,11.1-17.2c0.9-1.7,1.6-4.5,2.8-5.9c0.2-0.3,0.2-1,0.5-1.2c0.7-0.5,5.9,0.6,7.4,0.8 c10.4,0.9,20.8,3.2,30.3,7.5c2.6,1.2,5.4,2.4,7.7,4.1c5.9,4.5,3.7,10.4,2.9,16.6c-1,8.3-0.6,16.6-1.4,24.9 c-1,10.2-4.3,19.8-14,24.7c-13.7,7-30,5.1-42.5-3.4c-0.7-0.5-1.4,0.7-0.7,1.2c18.5,12.4,51.2,10.9,57.3-14.4 c2.5-10.4,1.4-21.3,2.5-31.8c0.5-4.9,2.8-10,0.4-14.8c-1.9-3.8-5.9-5.7-9.6-7.5c-12.7-6.3-26.9-8.6-41-9c-0.3,0-0.6,0.2-0.7,0.5 C80.2,59.8,73,74.6,62,79.9c-2.5,1.2-3.6,1.1-6,0.9c-1.8-0.1-3.4-0.1-5,0.8c-4.8,2.9-4.6,11.5-2.7,16.1c1.8,4.4,6,6.2,10.5,5.8 c0.6,0,1.6,0,2.2-0.3c1.4-0.7,0.9,0.6,0.3-0.9c0.6,1.5,0.1,4.1,0.1,5.8c0.1,6.5,0.2,12.9,0.3,19.4c0.1,4.9,2,8,6,11.1 c5.9,4.7,16.5,9.3,23.7,4.8c3.5-2.2,2-7.1,2-10.7C93.6,131.7,92.2,131.7,92.2,132.6L92.2,132.6z"/></g></g></g><g><g><g id="change2_86"><path fill="#38455d" d="M53.4,86.2c-3.1,4-2.3,8.9,2,11.6c0.8,0.5,1.5-0.7,0.7-1.2C53.7,95,52.2,92.9,53,90c0.2-0.9,1-2.4,1.4-2.9 C54.9,86.5,53.9,85.5,53.4,86.2L53.4,86.2z"/></g></g></g><g><g><g id="change2_2"><path fill="#38455d" d="M206.6,54c-3.1,4-2.3,8.9,2,11.6c0.8,0.5,1.5-0.7,0.7-1.2c-2.4-1.5-3.9-3.6-3.1-6.5c0.2-0.9,1-2.4,1.4-2.9 C208.1,54.3,207.1,53.3,206.6,54L206.6,54z"/></g></g></g><g><g><g id="change2_27"><path fill="#38455d" d="M292.7,55c0.4,0.5,1.1,1.9,1.4,2.9c0.7,2.9-0.7,5-3.1,6.5c-0.8,0.5-0.1,1.7,0.7,1.2c4.3-2.7,5.1-7.5,2-11.6 C293.1,53.3,292.1,54.3,292.7,55L292.7,55z"/></g></g></g><g><g id="change2_74"><ellipse rx="3.3" ry="3.9" fill="#38455d" cx="121.7" cy="90.3"/></g></g><g><g id="change2_77"><ellipse rx="3.3" ry="3.9" fill="#38455d" cx="94.5" cy="90.3"/></g></g><g><g><g id="change2_96"><path fill="#38455d" d="M109.9,88.1c0.7,2.4,1.2,4.9,1.6,7.4c0.3,1.7,0.8,4.1,0.2,5.8c-0.7,2.3-3.4,2.7-5.5,2.2 c-0.8-0.2-1.2,1.1-0.4,1.3c10.6,2.4,6.8-11.6,5.3-17.1C110.9,87,109.7,87.3,109.9,88.1L109.9,88.1z"/></g></g></g><g><g><g id="change2_89"><path fill="#38455d" d="M127.6,79.3c-3.1-1.9-7-2.6-10.6-2.3c-0.9,0.1-0.9,1.5,0,1.5c3.3-0.3,6.9,0.3,9.8,2.1 C127.7,81.1,128.4,79.8,127.6,79.3L127.6,79.3z"/></g></g></g><g><g><g id="change2_18"><path fill="#38455d" d="M87.9,80.6c2.9-1.8,6.5-2.4,9.8-2.1c0.9,0.1,0.9-1.4,0-1.5c-3.6-0.3-7.5,0.4-10.6,2.3 C86.4,79.8,87.1,81.1,87.9,80.6L87.9,80.6z"/></g></g></g><g><g><g id="change2_11"><path fill="#38455d" d="M43.4,156.7c-1.2,14.3-2.6,28.5-4.1,42.8c-1.9,18.3-4.9,36.9-2.7,55.3c1.7,13.8,7,28.6,18.7,37 c11.5,8.2,26.8,7.4,40.2,6.8c0.9,0,0.9-1.4,0-1.4c-13.9,0.6-30,1.5-41.3-8.1c-13-10.9-16.6-28.9-16.9-45c-0.4-17,2.3-34,4-50.9 c1.3-12.2,2.4-24.4,3.5-36.6C44.9,155.8,43.5,155.8,43.4,156.7L43.4,156.7z"/></g></g></g><g><g><g id="change2_91"><path fill="#38455d" d="M36.3,245.9c19,3.4,41.7,3,58.7-6.9c0.8-0.5,0.1-1.7-0.7-1.2c-16.7,9.7-39,10.1-57.6,6.8 C35.8,244.4,35.4,245.8,36.3,245.9L36.3,245.9z"/></g></g></g><g><g><g id="change2_22"><path fill="#38455d" d="M166.5,199.1c-0.5-3.2-3.1-6-5.8-7.6c-0.6-0.4-1.2,0.6-0.6,1c2.5,1.5,4.8,4,5.3,6.9 C165.5,200.1,166.6,199.8,166.5,199.1L166.5,199.1z"/></g></g></g><g><g><g id="change2_63"><path fill="#38455d" d="M165.4,202.8c-1.1-2-2.7-3.6-4.7-4.7c-0.6-0.4-1.2,0.6-0.6,1c1.8,1,3.3,2.5,4.3,4.3 C164.7,204,165.7,203.4,165.4,202.8L165.4,202.8z"/></g></g></g><g><g><g id="change2_34"><path fill="#38455d" d="M97,109.5c3.5,4.2,9.3,6.7,14.7,4.8c0.9-0.3,0.5-1.7-0.4-1.4c-5,1.7-10.1-0.7-13.3-4.5 C97.4,107.7,96.4,108.8,97,109.5L97,109.5z"/></g></g></g><g><g><g id="change2_55"><path fill="#38455d" d="M92.7,139c13,10,22.5,26.1,25,42.4c0.1,0.9,1.5,0.5,1.3-0.4c-2.5-16.6-12.2-32.9-25.6-43.2 C92.7,137.2,92,138.4,92.7,139L92.7,139z"/></g></g></g><g><g><g id="change2_126"><path fill="#38455d" d="M65.4,199.6c5,9.3,10.3,18.6,14.6,28.3c0.4,0.8,1.6,0.1,1.2-0.7c-4.3-9.7-9.6-19-14.6-28.3 C66.1,198.2,64.9,198.9,65.4,199.6L65.4,199.6z"/></g></g></g><g><g id="change2_107"><path fill="#38455d" d="M135.7,55.2C135.7,55.2,135.7,55.1,135.7,55.2c0-0.2-0.1-0.2-0.1-0.3c-7-25.1-35.2-26.1-48.3-25.1 c-1.6,0.1-3.1,0.3-4.7,0.5c-1.3,0.2-2,0.3-2,0.3l0,0c-5.7,1-11.3,2.9-16.5,5.7c-14.8,7.8-28.9,23.5-16.1,54c0,0-1.3-7.1,5.9-8.9 c0,0,11.8,6.2,25.8-21l5.5-11.3c0,0,32.7,27.2,50.6,23.7C135.9,72.8,138.5,64.6,135.7,55.2z"/></g></g><g><g id="change2_105"><circle fill="#38455d" r="20.6" cx="49.9" cy="42.7"/></g></g><g><g id="change2_78"><circle fill="#38455d" r="20.6" cx="128" cy="42.7"/></g></g><g><g><g id="change2_33"><path fill="#38455d" d="M405.5,243.2c18.9,2.6,39.5,4.3,58.2,0c0.7-0.2,0.4-1.3-0.3-1.1c-18.5,4.2-39,2.5-57.6,0 C405,242,404.7,243.1,405.5,243.2L405.5,243.2z"/></g></g></g><g><g id="change2_19"><path fill="#38455d" d="M434.6,35.8c-1-2-83.3-21.3-70.5,36.3c0,0-0.2-1.4,0.6-3.6l-0.6,3.6c15.7-9.4,21.8-16.4,23.4-18.6 c0.1,0,0.3-0.1,0.4-0.1l-1.8,13.9c13-4.1,26-9,31.9-11.2c3.2,6.7,8.4,16.3,12.7,19.7c6.9,5.4,8,5.9,13.6,5.7 c5.5-0.3,7.8,3.8,7.6,7C451.9,88.4,461.1,44.2,434.6,35.8z"/></g></g><g><g id="change2_98"><path fill="#38455d" d="M207.3,69.7c0,0-4.7,29.8,3.8,34c8.5,4.2,17.1,1.2,17.1,1.2s7.4-2.1,9.7-0.3c0,0,1.9-5.3-2.4-5.9 c0,0-11.9-4.2-15.2-13.1s-4.5-14.8-4.5-14.8S211.7,71.6,207.3,69.7z"/></g></g><g><g id="change2_39"><path fill="#38455d" d="M293.6,69.7c0,0,4.7,29.8-3.8,34c-8.5,4.2-17.1,1.2-17.1,1.2s-7.4-2.1-9.7-0.3c0,0-1.9-5.3,2.4-5.9 c0,0,11.9-4.2,15.2-13.1s4.5-14.8,4.5-14.8S289.3,71.6,293.6,69.7z"/></g></g><g><g id="change2_71"><path fill="#38455d" d="M262.2,0.6c0,0-68.7-9.7-56.4,49.4c0,0,7,0.9,9.1,2.2l0.1-4.5c0.2-7.3,4.4-13.8,11.1-16.8 c3.6-1.6,8.1-3.1,13.3-4l-4.4,8.3c12.6,0.7,27.4-5.6,30.1-6.8c3.1,0.9,6.3,2,9.6,3.4c6.6,2.9,11,9.3,11.2,16.5c0,0-0.7,4.5,0,4.2 c0.3-0.1,4.8-2.6,7-2.6C295.1,50,303,6.9,262.2,0.6z"/></g></g></g><g id="Layer_28"><g><g id="change1_14"><path fill="#ffffff" d="M337.7,327.9c0,0,7.1,15.5,17.2,10.5c0,0,6.5,7.7,0.4,19.5c0,0-44.7,6.8-55.4-2.4 c-10.6-9.2-5.6-19.7,7.5-20.1C320.4,334.9,337.7,327.9,337.7,327.9z"/></g></g><g><g id="change1_10"><path fill="#ffffff" d="M145,335.7l-23.6-77.9l34-9l7.3,78.3l3,2.8c0,0,13.9,5.8,26.8,7.5c12.9,1.7,16.9,12.6,5.5,20.7 c-11.5,8.1-50.1-3-50.1-3C143,342.8,145,335.7,145,335.7"/></g></g><g id="change1_20"><path fill="#ffffff" d="M337.9,328.5c-0.1-2.8,12.2-58.7,12.2-58.7l12,3.5l-4.2,41.6l-7.9,30.7L337.9,328.5"/></g></g><g id="Layer_27"><g><g><g><g id="change2_46"><path fill="#38455d" d="M355.6,338.6c10.4-25.1,20.8-50.1,31.2-75.2c0.2-0.4-0.2-0.7-0.5-0.9c-11-4.1-22-8.2-33-12.3 c-0.3-0.1-0.8,0.1-0.9,0.5c-5,25.7-10,51.5-15,77.2c-0.2,0.9,1.2,1.3,1.3,0.4c2.4-12.1,4.7-24.3,7.1-36.4 c1.7-8.7,3.4-17.4,5.1-26.2c0.9-4.5,1.2-9.9,2.8-14.3c0.2-0.6-1.2,0.1-0.3,0.4c1.1,0.3,2.1,0.8,3.2,1.2 c3.7,1.4,7.5,2.8,11.2,4.2c4.2,1.5,8.3,3.1,12.5,4.6c1.2,0.5,2.6,1.2,3.9,1.4c1.7,0.3,1.1,1.1,1.2-0.2 c-0.1,3.3-3.4,8.3-4.7,11.4c-3.3,7.9-6.5,15.8-9.8,23.7c-5.6,13.4-11.1,26.8-16.7,40.2C353.9,339,355.2,339.4,355.6,338.6 L355.6,338.6z"/></g></g></g><g><g><g><g id="change2_67"><path fill="#38455d" d="M337.1,328.2c2.5,5.4,8.2,13,15.1,11.7c2.5-0.5,1.9-1.4,3.3,0.6c1.9,2.9,2,7.1,1.4,10.3 c-0.4,2.2-0.8,5.4-2.6,6.4c-1.1,0.6-3.4,0.4-4.5,0.6c-10,1.2-20.2,2-30.3,1.6c-5.1-0.2-10.5-0.6-15.3-2.5 c-6.9-2.7-13.3-12.7-5.7-18.2c4.1-3,9-2.5,13.7-3.1c3.8-0.5,7.5-1.3,11.2-2.3c4.9-1.3,9.9-2.9,14.6-4.8 c0.8-0.3,0.5-1.7-0.4-1.3c-4,1.6-8.2,3-12.4,4.2c-3.6,1-7.2,1.9-10.9,2.5c-3.9,0.6-7.9,0.4-11.7,1.4 c-11.2,2.9-11.1,14.8-2.5,21.1c7.2,5.3,18.9,4.7,27.3,4.5c5.6-0.1,11.1-0.5,16.7-1c3.2-0.3,7.3-0.2,10.3-1.2 c3.3-1.1,4-5.9,4.3-9.2c0.3-4-0.6-8.4-3.1-11.6c-0.2-0.3-0.6-0.2-0.8-0.1c-7.5,3.2-13.4-4.2-16.2-10.3 C337.9,326.7,336.7,327.4,337.1,328.2z"/></g></g></g></g><g><g><g id="change2_76"><path fill="#38455d" d="M294.3,341.7c4.2,11.7,15.9,15.5,27.2,15.7c11.8,0.2,23.6-0.9,35.3-2.5c0.9-0.1,0.9-1.5,0-1.4 c-9.6,1.3-19.4,2.2-29.1,2.4c-12.4,0.3-27.1-0.9-32-14.7C295.4,340.5,294,340.9,294.3,341.7L294.3,341.7z"/></g></g></g><g><g><g id="change2_42"><path fill="#38455d" d="M359.7,270.3c1.5,3.2,4.2,6.6,7.9,7c0.8,0.1,0.8-1.2,0-1.3c-3.2-0.4-5.5-3.7-6.8-6.4 C360.5,268.8,359.4,269.5,359.7,270.3L359.7,270.3z"/></g></g></g></g><g><g><g><g><g id="change2_87"><path fill="#38455d" d="M145.7,335.5c-5.8-19.1-11.6-38.3-17.4-57.4c-1.4-4.8-2.9-9.6-4.3-14.3c-0.4-1.4-0.8-3-1.3-4.4 c-0.2-0.5-0.3-2.2-0.8-1.4c-0.4,0.8,2.2-0.2,2.9-0.4c2.9-0.8,5.8-1.5,8.6-2.3c5.9-1.6,11.8-3.1,17.7-4.7 c1.4-0.4,2.9-1,4.4-1.2c-1.4,0.1-0.2-1.3-0.6,0.6c-0.6,3.2,0.7,7.8,1,11c1.2,12.6,2.4,25.2,3.6,37.9 c0.5,5.7,1.1,11.5,1.6,17.2c0.3,3.2,0.1,7.1,1,10.2c0.5,1.9,1.8,3.2,3.7,4.3c6.5,3.8,15.8,5.5,23,6.9c5.6,1,13.7,1.7,15.3,8.6 c1.3,6-4.7,11.5-9.9,13.2c-8.2,2.6-18.1,1-26.4-0.4c-5.5-0.9-13.2-1.4-18.2-4c-4.2-2.2-5-14.2-3.8-18.9 c0.2-0.9-1.1-1.2-1.3-0.4c-0.6,2.5-0.5,5.2-0.2,7.7c0.3,3.1,1,10.6,3.7,12.6c1.1,0.8,3.7,1,5,1.3c4,1,8,1.9,12.1,2.6 c8.6,1.6,18,3.1,26.7,1.5c6.6-1.2,14.6-6.7,13.9-14.3c-0.9-10.8-16.2-10.5-23.7-12.4c-4.5-1.2-16.6-3.3-18.4-7.9 c-1.5-3.8-0.9-9.8-1.3-13.9c-0.7-7.9-1.5-15.8-2.2-23.7c-1.3-13.4-2.5-26.8-3.8-40.3c0-0.4-0.4-0.8-0.9-0.7 c-11.3,3-22.7,6-34,9c-0.4,0.1-0.6,0.5-0.5,0.9c7.9,26,15.7,52,23.6,77.9C144.6,336.8,145.9,336.4,145.7,335.5L145.7,335.5z"/></g></g></g></g><g><g><g id="change2_53"><path fill="#38455d" d="M203.7,344.4c-9.8,20.7-40.3,10.7-57,6c-0.9-0.2-1.2,1.1-0.4,1.3c17.2,4.8,48.3,14.9,58.5-6.7 C205.3,344.3,204.1,343.6,203.7,344.4L203.7,344.4z"/></g></g></g><g><g><g id="change2_40"><path fill="#38455d" d="M147.3,266.4c-1.5,2.6-4.2,5.5-7.4,5.6c-0.8,0-0.8,1.3,0,1.3c3.7-0.1,6.8-3.3,8.5-6.2 C148.9,266.3,147.8,265.7,147.3,266.4L147.3,266.4z"/></g></g></g><g><g><g id="change2_20"><path fill="#38455d" d="M188.9,337.2c2.9,5.9-5.3,9.4-9.9,9.2c-3.7-0.1-7.6-1.1-11.2-1.8c-7.7-1.5-16.7-3.4-22.3-9.4 c-0.6-0.7-1.6,0.3-1,1c7.5,8,20.8,9.6,31.1,11.2c6.2,0.9,18.8-2,14.4-10.9C189.7,335.7,188.5,336.4,188.9,337.2L188.9,337.2z"/></g></g></g></g></g><g id="Layer_26"><g><g id="change1_5"><path fill="#ffffff" d="M356,361.5l36.3-87.5h-38.1l-15.4,77C338.9,351,346.2,367.2,356,361.5"/></g></g><g><g id="change1_12"><path fill="#ffffff" d="M338.9,351c0,0,7.1,15.5,17.2,10.5c0,0,6.5,7.7,0.4,19.5c0,0-44.7,6.8-55.4-2.4c-10.6-9.2-5.6-19.7,7.5-20.1 C321.6,358,338.9,351,338.9,351z"/></g></g><g><g id="change1_39"><path fill="#ffffff" d="M140.6,358.4L110.1,270l38.7-6l9.5,85.8l3,2.8c0,0,13.9,5.8,26.8,7.5c12.9,1.7,16.9,12.6,5.5,20.7 c-11.5,8.1-50.1-3-50.1-3C138.6,365.4,140.6,358.4,140.6,358.4"/></g></g></g><g id="Layer_24"><g><g><g><g id="change2_32"><path fill="#38455d" d="M356.7,361.6c12.1-29.2,24.2-58.3,36.3-87.5c0.2-0.4-0.3-0.9-0.7-0.9c-12.7,0-25.4,0-38.1,0 c-0.3,0-0.6,0.2-0.7,0.5c-2.7,13.6-5.4,27.1-8.1,40.7c-1.8,8.9-3.6,17.8-5.3,26.6c-0.6,2.9-2.4,7.3-1.8,10.3 c0.6,3.1,4.2,7,6.5,9c3.5,3.1,7.5,3.8,11.7,1.7c0.8-0.4,0.1-1.6-0.7-1.2c-7.1,3.6-12.3-3.2-15.5-8.7c-0.9-1.6-0.8-0.9-0.3-3.1 c1.6-7.5,3-15,4.5-22.5c3.4-17.1,6.5-34.4,10.3-51.4c0.2-1.1,0.4-0.8-0.4-0.5c0.6-0.3,2.2,0,2.9,0c4.6,0,9.2,0,13.8,0 c5,0,9.9,0,14.9,0c1.5,0,3.3,0.3,4.7,0c2.2-0.4,0.6,0.5,0.9-0.8c-1,4.6-3.9,9.3-5.6,13.6c-3.8,9.2-7.6,18.3-11.4,27.5 c-6.4,15.4-12.8,30.9-19.2,46.3C355,362.1,356.4,362.5,356.7,361.6L356.7,361.6z"/></g></g></g></g><g><g><g><g id="change2_41"><path fill="#38455d" d="M338.2,351.3c2.5,5.4,8.2,13,15.1,11.7c2.5-0.5,1.9-1.4,3.3,0.6c1.9,2.9,2,7.1,1.4,10.3 c-0.4,2.2-0.8,5.4-2.6,6.4c-1.1,0.6-3.4,0.4-4.5,0.6c-10,1.2-20.2,2-30.3,1.6c-5.1-0.2-10.5-0.6-15.3-2.5 c-6.9-2.7-13.3-12.7-5.7-18.2c4.1-3,9-2.5,13.7-3.1c3.8-0.5,7.5-1.3,11.2-2.3c4.9-1.3,9.9-2.9,14.6-4.8 c0.8-0.3,0.5-1.7-0.4-1.3c-4,1.6-8.2,3-12.4,4.2c-3.6,1-7.2,1.9-10.9,2.5c-3.9,0.6-7.9,0.4-11.7,1.4 c-11.2,2.9-11.1,14.8-2.5,21.1c7.2,5.3,18.9,4.7,27.3,4.5c5.6-0.1,11.1-0.5,16.7-1c3.2-0.3,7.3-0.2,10.3-1.2 c3.3-1.1,4-5.9,4.3-9.2c0.3-4-0.6-8.4-3.1-11.6c-0.2-0.3-0.6-0.2-0.8-0.1c-7.5,3.2-13.4-4.2-16.2-10.3 C339.1,349.8,337.9,350.5,338.2,351.3z"/></g></g></g></g><g><g><g id="change2_88"><path fill="#38455d" d="M295.5,364.8c4.2,11.7,15.9,15.5,27.2,15.7c11.8,0.2,23.6-0.9,35.3-2.5c0.9-0.1,0.9-1.5,0-1.4 c-9.6,1.3-19.4,2.2-29.1,2.4c-12.4,0.3-27.1-0.9-32-14.7C296.5,363.6,295.2,364,295.5,364.8L295.5,364.8z"/></g></g></g><g><g><g><g><g id="change2_17"><path fill="#38455d" d="M141.2,358.2c-7-20.2-13.9-40.4-20.9-60.7c-3.1-8.9-5.8-18.1-9.3-26.9c-0.5-1.3-0.4,0-0.4,0 c1.7-0.6,4.1-0.6,5.9-0.9c6.7-1,13.4-2.1,20.1-3.1c2.9-0.5,5.8-0.9,8.8-1.4c0.7-0.1,1.8-0.1,2.4-0.4c1.3-0.6,1.1,0.7,0.3-0.8 c0.9,1.8,0.6,5.5,0.8,7.4c1.4,12.6,2.8,25.1,4.2,37.7c1.3,12.1,2.7,24.2,4,36.2c0.2,1.5,0,3.6,0.7,4.9 c2.3,4.2,10.3,5.6,14.2,6.8c6.3,1.9,12.9,2.5,19.2,4.3c8.4,2.4,11.1,10.3,4.6,16.7c-6.7,6.6-18,5.3-26.5,4.2 c-7.6-0.9-16.2-2-23.5-4.7c-0.5-0.2-1.5-0.2-1.9-0.5c-1.3-1-1.9-6.1-2.2-7.8c-0.7-3.3-1.3-7.4-0.4-10.8 c0.2-0.9-1.1-1.2-1.3-0.4c-0.6,2.5-0.5,5.2-0.2,7.7c0.4,3.3,1,10.6,3.7,12.6c1.3,1,4.2,1.1,5.8,1.5c4.5,1.1,9.1,2.1,13.7,2.8 c8.6,1.4,18.6,3.1,27.1,0.4c6.3-2,13.2-9,10.5-16.1c-1.5-3.8-5.2-6-9-7.1c-7.3-2.1-14.9-2.8-22.1-5.3 c-4.5-1.5-10-2.5-10.6-7.1c-1.7-14.3-3.2-28.6-4.7-42.9c-1.5-13.6-3-27.1-4.5-40.7c-0.1-0.5-0.4-0.7-0.9-0.7 c-12.9,2-25.8,4-38.7,6c-0.4,0.1-0.6,0.5-0.5,0.9c10.1,29.5,20.3,58.9,30.4,88.4C140.2,359.4,141.5,359,141.2,358.2 L141.2,358.2z"/></g></g></g></g><g><g><g id="change2_7"><path fill="#38455d" d="M199.2,367.1c-9.8,20.7-40.3,10.7-57,6c-0.9-0.2-1.2,1.1-0.4,1.3c17.2,4.8,48.3,14.9,58.5-6.7 C200.8,367,199.6,366.3,199.2,367.1L199.2,367.1z"/></g></g></g><g><g><g id="change2_62"><path fill="#38455d" d="M184.4,359.9c2.9,5.9-5.3,9.4-9.9,9.2c-3.7-0.1-7.6-1.1-11.2-1.8c-7.7-1.5-16.7-3.4-22.3-9.4 c-0.6-0.7-1.6,0.3-1,1c7.5,8,20.8,9.6,31.1,11.2c6.2,0.9,18.8-2,14.4-10.9C185.2,358.3,184,359,184.4,359.9L184.4,359.9z"/></g></g></g></g><g><g><g id="change2_73"><path fill="#38455d" d="M347.6,280c10.9,7.7,21.7,15.4,32.6,23c0.7,0.5,1.4-0.7,0.7-1.2c-10.9-7.7-21.7-15.4-32.6-23 C347.5,278.3,346.9,279.5,347.6,280L347.6,280z"/></g></g></g></g><g id="Layer_13"><g><g id="change1_21"><path fill="#ffffff" d="M118.5 385.8L97.7 385.8 95.8 267.6 116.6 267.6z"/></g></g><g><g id="change1_38"><path fill="#ffffff" d="M383.8 267.6H404.6V385.8H383.8z"/></g></g><g><g id="change1_6"><path fill="#ffffff" d="M404.5 232.7L94.7 232.7 117 184.6 383.3 184.6z"/></g></g><g><g id="change1_15"><path fill="#ffffff" d="M94.7 232.7H404.5V277.9H94.7z"/></g></g><g><g id="change1_1"><path fill="#ffffff" d="M121.7,217.9c0.3-3.8,12.9-25.9,12.9-25.9h62.6l-9.6,25.9H121.7z"/></g></g><g><g id="change1_7"><path fill="#ffffff" d="M374.7,217.9c-0.3-3.8-12.9-25.9-12.9-25.9h-62.6l9.6,25.9H374.7z"/></g></g></g><g id="Layer_12"><g><path fill="none" d="M403.9,268.3l0,1.5C403.9,269.3,404,268.8,403.9,268.3C403.9,268.3,403.9,268.3,403.9,268.3z"/><path fill="none" d="M384.4,277.3c0,35.9,0,71.8,0,107.8c5.6,0,11.3,0,16.9,0c0.7,0,1.9,0.2,2.7,0.1c0.1-0.6-0.1-1.5-0.1-2 c0-9.8,0-19.7,0-29.5c0-24.5,0-49.1,0-73.6c0-2,0-4,0-6l0,3.3H384.4z"/><g id="change2_108"><path fill="#38455d" d="M403.9,268.3c0.3,0,0.5-0.1,0.2-0.4c-0.1-0.1-0.2-0.2-0.3-0.3l0,0.4C403.9,268.2,403.9,268.3,403.9,268.3z"/></g><g id="change2_109"><path fill="#38455d" d="M403.9,268.3C403.9,268.3,403.9,268.3,403.9,268.3c0-0.1,0-0.1,0-0.2L403.9,268.3z"/></g><g id="change2_110"><path fill="#38455d" d="M383.3,386.2C383.3,386.2,383.3,386.2,383.3,386.2C383.3,386.2,383.3,386.2,383.3,386.2z"/></g><g id="change2_111"><path fill="#38455d" d="M384.4,385.8c0-0.2,0-0.4,0-0.7c-0.2,0-0.4,0-0.7,0c-0.6,0-0.8,0.7-0.5,1.1c0,0,0,0,0,0c0,0,0,0,0,0 C383.7,386.6,384.4,386.4,384.4,385.8z"/></g><g id="change2_112"><path fill="#38455d" d="M383.3,386.3C383.3,386.3,383.3,386.2,383.3,386.3C383.3,386.2,383.3,386.3,383.3,386.3z"/></g><g id="change2_113"><path fill="#38455d" d="M404.6,266.9c-0.2,0-0.4,0-0.6,0l0,0.7c0.1,0,0.2,0.1,0.3,0.3c0.3,0.3,0.1,0.4-0.2,0.4c0,0.5,0,1,0,1.5l0,4.2 c0,2,0,4,0,6c0,24.5,0,49.1,0,73.6c0,9.8,0,19.7,0,29.5c0,0.5,0.1,1.4,0.1,2c0.1,0,0.2,0,0.3-0.1c0.7-0.3-0.6,1.1-0.4,0.4 c0-0.1,0.1-0.3,0.1-0.4c-0.8,0.2-1.9-0.1-2.7-0.1c-5.6,0-11.3,0-16.9,0c0,0.2,0,0.4,0,0.7c0,0.6-0.7,0.8-1.1,0.5 c0.1,0.1,0.2,0.2,0.4,0.2c6.9,0,13.9,0,20.8,0c0.4,0,0.7-0.3,0.7-0.7c0-34.5,0-69,0-103.5c0-4.9,0-9.8,0-14.7 C405.2,267.2,404.9,266.9,404.6,266.9z"/></g><g id="change2_114"><path fill="#38455d" d="M404.3,385.1c-0.1,0-0.2,0-0.3,0.1c0,0.1,0,0.3-0.1,0.4C403.6,386.2,405,384.8,404.3,385.1z"/></g><g id="change2_115"><path fill="#38455d" d="M383.8,385.1c0.2,0,0.4,0,0.7,0c0-35.9,0-71.8,0-107.8h-1.3c0,31.3,0,62.5,0,93.8c0,4.9,0,9.8,0,14.7 c0,0.2,0.1,0.3,0.2,0.4C383,385.8,383.1,385.1,383.8,385.1z"/></g><g id="change2_116"><path fill="#38455d" d="M403.9,267.9c0,0.1,0,0.1,0,0.2l0-0.4C403.9,267.7,403.8,267.7,403.9,267.9z"/></g><g id="change2_117"><path fill="#38455d" d="M403.9,274l0-4.2c0,0.1,0,0.3,0,0.4C403.9,271.5,403.9,272.7,403.9,274z"/></g></g><g><g><g><g id="change2_3"><path fill="#38455d" d="M404.5,232c-40.8,0-81.5,0-122.3,0c-56.8,0-113.6,0-170.4,0c-3.4,0-6.8,0-10.2,0c-1.6,0-4.2-0.5-5.7,0 c-0.2,0.1-0.8,0-1.1,0c1.5,0.2-0.2,1.2,1.2-0.7c1.4-1.8,2.1-4.6,3.1-6.6c1.7-3.6,3.3-7.2,5-10.8c3.2-6.9,6.4-13.8,9.6-20.7 c1-2.1,2.3-4.4,3.1-6.6c0.3-0.9,1.2-1.7,0.3-1.3c1-0.4,3.2,0,4.2,0c3.1,0,6.2,0,9.3,0c57.4,0,114.9,0,172.3,0 c23.6,0,47.1,0,70.7,0c2.5,0,5,0.1,7.5,0c0.5,0,1.3-0.1,1.8,0c0.9,0.3-0.7-0.7,0,0.1c1,1.3,1.6,3.6,2.2,5.1 c1.5,3.3,3,6.7,4.4,10c3.2,7.2,6.3,14.3,9.5,21.5c1.6,3.7,3.2,7.3,4.8,11c0.3,0.8,1.5,0.1,1.1-0.7c-7.1-16-14.1-32-21.2-48 c-0.1-0.2-0.4-0.3-0.6-0.3c-30.1,0-60.2,0-90.3,0c-47.6,0-95.2,0-142.8,0c-11.1,0-22.1,0-33.2,0c-0.2,0-0.5,0.1-0.6,0.3 c-7.4,16-14.9,32-22.3,48c-0.2,0.4,0,1,0.6,1c35,0,70,0,105,0c55.5,0,111.1,0,166.6,0c12.7,0,25.5,0,38.2,0 C405.4,233.3,405.4,232,404.5,232z"/></g></g></g></g><g><g><g><g id="change2_30"><path fill="#38455d" d="M122.3,218.1c1.2-7.2,6.9-14.9,10.4-21.2c0.6-1.2,1.2-2.6,2-3.7c0.6-0.7,0.4-0.7,0-0.5 c1.2-0.5,3.8,0,5.1,0c15.4,0,30.8,0,46.2,0c2.6,0,5.3,0,7.9,0c0.8,0,1.7,0.1,2.5,0c1.5-0.3,0,0.2,0.2-0.6 c-1.5,6.3-4.7,12.6-6.9,18.6c-0.6,1.7-1.3,5.7-2.6,7c1.1-1-1.6-0.4-2.7-0.4c-6.8,0-13.6,0-20.4,0c-14.1,0-28.2,0-42.3,0 c-0.8,0-0.8,1.3,0,1.3c22,0,43.9,0,65.9,0c0.3,0,0.5-0.2,0.6-0.5c3.2-8.6,6.4-17.2,9.6-25.9c0.2-0.4-0.2-0.8-0.6-0.8 c-20.9,0-41.7,0-62.6,0c-0.2,0-0.5,0.1-0.6,0.3c-2.3,4-4.5,8-6.6,12c-2.2,4.2-5.6,9.2-6.4,14 C120.9,218.6,122.2,218.9,122.3,218.1z"/></g></g></g></g><g><g><g><g id="change2_119"><path fill="#38455d" d="M375.4,217.7c-0.8-4.8-4.1-9.8-6.4-14c-2.1-4-4.3-8.1-6.6-12c-0.1-0.2-0.3-0.3-0.6-0.3 c-20.9,0-41.7,0-62.6,0c-0.4,0-0.8,0.4-0.6,0.8c3.2,8.6,6.4,17.2,9.6,25.9c0.1,0.3,0.3,0.5,0.6,0.5c22,0,43.9,0,65.9,0 c0.8,0,0.8-1.3,0-1.3c-12.3,0-24.6,0-36.8,0c-7.4,0-14.7,0-22.1,0c-2,0-4.2,0.2-6.1,0c-0.2,0-0.6,0.1-0.8,0 c1.2,0.5,0.1-0.8-0.2-1.8c-2.6-7.1-5.3-14.2-7.9-21.2c-0.2-0.7-0.6-1.4-0.8-2.1c0.1,0.2-1.3,0.6-0.1,0.6c2,0,3.9,0,5.9,0 c15.8,0,31.6,0,47.3,0c2.4,0,5.1-0.3,7.6,0c0.3,0,0.9-0.1,1.2,0c-1.1-0.5,0.4,1.4,0.8,2c2.2,3.9,4.3,7.8,6.4,11.8 c1.8,3.5,4.5,7.6,5.2,11.6C374.2,218.9,375.5,218.6,375.4,217.7z"/></g></g></g></g><g><g><g><g id="change1_29"><path fill="#ffffff" d="M141.4,174.9L141.4,174.9c0.8-0.7,2.1-0.5,2.7,0.3l1.2,1.5l-3,2.4l-1.2-1.5 C140.4,176.8,140.6,175.6,141.4,174.9z"/></g></g><g><g><g id="change2_35"><path fill="#38455d" d="M141.9,175.4c1.2-1,2.3,1,3,1.8c0-0.3,0-0.6,0-0.9c-1,0.8-2,1.6-3,2.4c0.3,0,0.6,0,0.9,0 C142,177.7,140.6,176.5,141.9,175.4c0.6-0.6-0.3-1.5-0.9-0.9c-1,0.9-1.2,2.3-0.5,3.4c0.4,0.6,0.9,1.1,1.3,1.7 c0.2,0.3,0.7,0.2,0.9,0c1-0.8,2-1.6,3-2.4c0.3-0.2,0.2-0.7,0-0.9c-0.5-0.6-0.9-1.3-1.5-1.8c-1-0.8-2.4-0.8-3.3,0 C140.3,175,141.2,175.9,141.9,175.4z"/></g></g></g></g><g><g><g id="change1_28"><path fill="#ffffff" d="M153.2 173.9H157.1V210.4H153.2z" transform="rotate(-38.574 155.178 192.17)"/></g></g><g><g><g id="change2_58"><path fill="#38455d" d="M142.7,179.6c1.1-0.9,3.2-1.9,2.2-2.3c0.6,0.2,1.5,1.9,1.8,2.3c2.5,3.1,4.9,6.2,7.4,9.3 c3,3.8,6,7.6,9.1,11.4c0.8,1,4.2,5.1,4.2,5.1c0,0.1-3.4,1.2-2.1,1.7c-0.6-0.2-1.5-1.9-1.8-2.3c-2.6-3.2-5.2-6.5-7.7-9.7 c-4.4-5.5-8.7-10.9-13.1-16.4c-0.5-0.7-1.5,0.3-0.9,0.9c7.6,9.5,15.2,19,22.8,28.5c0.2,0.3,0.7,0.2,0.9,0c1-0.8,2-1.6,3-2.4 c0.3-0.2,0.2-0.7,0-0.9c-7.6-9.5-15.2-19-22.8-28.5c-0.2-0.3-0.7-0.2-0.9,0c-1,0.8-2,1.6-3,2.4 C141.1,179.2,142.1,180.1,142.7,179.6z"/></g></g></g></g><g><g><g id="change1_16"><path fill="#ffffff" d="M168.1 205.2L169.6 210.3 165 207.6z"/></g></g><g><g><g id="change2_75"><path fill="#38455d" d="M167.4,205.4c0.5,1.7,1.1,3.4,1.6,5.1c0.3-0.2,0.6-0.5,1-0.7c-1.5-0.9-3.1-1.8-4.6-2.7 c0,0.3,0.1,0.7,0.1,1c1-0.8,2-1.6,3-2.4c0.7-0.5-0.3-1.5-0.9-0.9c-1,0.8-2,1.6-3,2.4c-0.3,0.3-0.2,0.8,0.1,1 c1.5,0.9,3.1,1.8,4.6,2.7c0.5,0.3,1.1-0.2,1-0.7c-0.5-1.7-1.1-3.4-1.6-5.1C168.5,204.2,167.2,204.6,167.4,205.4z"/></g></g></g></g></g><g><g><g><g id="change2_64"><path fill="#38455d" d="M404.5,277.3c-43.3,0-86.6,0-129.9,0c-56.6,0-113.2,0-169.8,0c-2.6,0-5.2,0-7.8,0c-0.5,0-1.2,0.1-1.8,0 c-1.1-0.3,0.3,0.9,0,0.2c-0.5-1.5,0-4.2,0-5.7c0-3.9,0-7.7,0-11.6c0-7.7,0-15.3,0-23c0-0.7,0.2-4.7-0.3-4.3 c-0.5,0.5,0.2,0.3,0.6,0.3c1.8-0.2,3.8,0,5.6,0c8.2,0,16.5,0,24.7,0c62.7,0,125.5,0,188.2,0c25,0,50.1,0,75.1,0 c4.3,0,10.6-1.2,14.8,0c0.9,0.3-0.4-0.9-0.1-0.2c0.6,1.7,0,4.8,0,6.5c0,8,0,16,0,23.9c0,4.8,0,9.6,0,14.4c0,0.7,1.1,0.7,1.1,0 c0-15.1,0-30.1,0-45.2c0-0.3-0.3-0.6-0.6-0.6c-35,0-70,0-105,0c-55.5,0-111.1,0-166.6,0c-12.7,0-25.5,0-38.2,0 c-0.3,0-0.6,0.3-0.6,0.6c0,15.1,0,30.1,0,45.2c0,0.3,0.3,0.6,0.6,0.6c35,0,70,0,105,0c55.5,0,111.1,0,166.6,0 c12.7,0,25.5,0,38.2,0C405.2,278.5,405.2,277.3,404.5,277.3z"/></g></g></g></g><g fill="#38455d" id="change2_6"><path fill="inherit" d="M95.1,267.5C95.1,267.5,95.1,267.6,95.1,267.5c0,0.7,0,1.4,0,2L95.1,267.5z"/><path fill="inherit" d="M117.4,277.3h-1.3c0.1,3.3,0.1,6.5,0.2,9.8c0.2,12.4,0.4,24.9,0.6,37.3c0.3,20.2,0.7,40.4,1,60.6 c-4.7,0-9.4,0-14.1,0c-1.3,0-3.9,0.5-5.4,0.2c0-0.2,0-0.4,0-0.7c0.8-7.2-0.2-15.1-0.4-22.3c-0.4-25-0.8-50.1-1.2-75.1 c-0.1-3.3-0.1-6.5-0.2-9.8h-1.3c0.5,31.3,1,62.5,1.5,93.8c0.1,4.9,0.2,9.8,0.2,14.7c0,0.4,0.3,0.7,0.7,0.7c6.9,0,13.9,0,20.8,0 c0.2,0,0.3-0.1,0.4-0.1c0.2-0.1,0.3-0.3,0.3-0.5c-0.6-34.5-1.1-69-1.7-103.5C117.5,280.6,117.5,279,117.4,277.3z"/></g></g><g id="Layer_14"><g><g id="change1_18"><path fill="#ffffff" d="M220.2,218v-20l9.2,0.1c0,0-3.6-1.9-4.6-2.4c-1-0.5-5.9-4.9-4.6-9.7c1.3-4.8,3-6,4.5-6.8s4.4-1.7,12.9-1.7 c8.4,0,43.3,0,43.3,0v20l-8.9,0.3c0,0,6.5,1.7,7.2,4.3c0.7,2.7,3.4,6.4,0.6,10.1s-3.1,5.8-10.7,5.8 C261.6,218,220.2,218,220.2,218z"/></g><g id="change2_69"><path fill="#38455d" d="M269.1,218.1h-49v-20.3l8.8,0.1c-1-0.5-3.3-1.7-4.1-2.1c-1.1-0.6-6-5.1-4.7-9.9c1.3-4.8,3-6,4.6-6.9 c1.4-0.8,4.2-1.7,12.9-1.7H281v20.3l-8.1,0.2c1.8,0.6,5.9,2,6.4,4.2c0.2,0.6,0.4,1.3,0.7,2c0.9,2.4,2.1,5.3-0.1,8.3 c-0.4,0.5-0.7,1-1,1.4C276.9,216.5,275.7,218.1,269.1,218.1z M220.4,217.8h48.8c6.5,0,7.6-1.6,9.6-4.4c0.3-0.4,0.6-0.9,1-1.4 c2.1-2.8,1-5.6,0.1-8c-0.3-0.7-0.5-1.4-0.7-2c-0.6-2.5-7.1-4.2-7.1-4.2l-1-0.2l9.8-0.3v-19.7h-43.2c-8.7,0-11.4,0.9-12.8,1.6 c-1.6,0.9-3.1,2-4.4,6.7c-0.7,2.5,0.4,4.8,1.4,6.4c1.2,1.7,2.6,3,3.1,3.2c1,0.5,4.6,2.4,4.6,2.4l0.5,0.3l-9.6-0.1V217.8z"/></g></g></g><g id="Layer_15"><g><g><g><g id="change2_81"><path fill="#38455d" d="M270.9,217.4c-8.3,0-16.5,0-24.8,0c-5.8,0-11.6,0-17.3,0c-1.7,0-6.9,0.9-8.5,0c1.1,0.7,0.6-2.4,0.6-3.6 c0-3.2,0-6.4,0-9.6c0-1.3-0.6-4.7,0-5.9c0.4-0.7-1,0.6-0.3,0.3c0.3-0.1,1.3,0,1.6,0c4.1,0.5,8.6,0,12.7,0c6.1,0,12.2,0,18.3,0 c5.2,0,10.4-0.1,15.6,0c1.6,0,3.3-0.1,4.9,0.4C284.2,202.1,281,216.6,270.9,217.4c-0.7,0.1-0.7,1.2,0,1.2 c8.6-0.6,14.2-10.5,8-17.6c-4-4.5-10.2-3.6-15.7-3.6c-14.3,0-28.6,0-43,0c-0.3,0-0.6,0.3-0.6,0.6c0,6.7,0,13.3,0,20 c0,0.3,0.3,0.6,0.6,0.6c16.9,0,33.8,0,50.7,0C271.6,218.5,271.6,217.4,270.9,217.4z"/></g></g></g><g><g><g><g id="change2_23"><path fill="#38455d" d="M272.5,211.5c-16.2,0-32.4,0-48.6,0c-0.9,0-2.3,0.3-3.2,0c-0.5-0.1-0.4,0-0.1,0.2 c0.6,0.6,0.3-1.8,0.3-2.4c0-1.2,0.1-2.5,0-3.7c0-0.5,0.3-2.5-0.3-1.8c-0.5,0.6,1.1,0.2,1.7,0.2c8.9,0.6,17.9,0,26.8,0 c5.5,0,11.1,0,16.6,0c1.6,0,3.3-0.2,4.9,0c0.4,0.1,1.1-0.1,1.5,0c2.5,0.9,6.8,6.4,0.2,7.4c-0.8,0.1-0.5,1.4,0.4,1.3 c6-1,5.8-9.2-0.2-10.1c-4.4-0.6-9.4,0-13.9,0c-12.8,0-25.6,0-38.4,0c-0.4,0-0.7,0.3-0.7,0.7c0,2.9,0,5.8,0,8.7 c0,0.4,0.3,0.7,0.7,0.7c17.4,0,34.8,0,52.3,0C273.4,212.8,273.4,211.5,272.5,211.5z"/></g></g></g></g><g><g><g id="change2_12"><path fill="#38455d" d="M230.2,198c16.9,0,33.8,0,50.7,0c0.3,0,0.6-0.3,0.6-0.6c0-6.7,0-13.3,0-20c0-0.3-0.3-0.6-0.6-0.6 c-14.3,0-28.6,0-43,0c-5.4,0-11.7-0.9-15.7,3.6C216.1,187.5,221.6,197.4,230.2,198c0.7,0.1,0.7-1.1,0-1.2 c-7.1-0.5-12.1-8.2-7.9-14.6c2.2-3.3,5.4-4.1,9-4.3c4-0.1,8,0,12.1,0c11.2,0,22.3,0,33.5,0c1,0,2.6-0.3,3.6,0 c0.8,0.2,0-0.3-0.1-0.5c0.3,0.4,0,1.9,0,2.4c0,5.4-0.2,10.9,0,16.3c0.1,1.7,0.9,0.4-0.2,0.6c-1.3,0.2-2.9,0-4.3,0 c-5.3,0-10.6,0-15.9,0c-9.9,0-19.8,0-29.7,0C229.5,196.8,229.5,198,230.2,198z"/></g></g></g><g><g><g><g id="change2_24"><path fill="#38455d" d="M228.6,183.5c16.2,0,32.4,0,48.6,0c0.9,0,2.3-0.3,3.2,0c0.5,0.1,0.4,0,0.1-0.2c-0.6-0.6-0.3,1.8-0.3,2.4 c0,1.2-0.1,2.5,0,3.7c0,0.5-0.3,2.5,0.3,1.8c0.5-0.6-1.1-0.2-1.7-0.2c-8.9-0.6-17.9,0-26.8,0c-5.5,0-11.1,0-16.6,0 c-1.6,0-3.3,0.2-4.9,0c-0.4-0.1-1.1,0.1-1.5,0c-2.5-0.9-6.8-6.4-0.2-7.4c0.8-0.1,0.5-1.4-0.4-1.3c-6,1-5.8,9.2,0.2,10.1 c4.4,0.6,9.4,0,13.9,0c12.8,0,25.6,0,38.4,0c0.4,0,0.7-0.3,0.7-0.7c0-2.9,0-5.8,0-8.7c0-0.4-0.3-0.7-0.7-0.7 c-17.4,0-34.8,0-52.3,0C227.8,182.2,227.8,183.5,228.6,183.5z"/></g></g></g></g></g></g><g id="Layer_11"><g><g id="change1_19"><path fill="#ffffff" d="M165.4,203.1c-0.3,1.1-0.6,2.1-1,2.9c-6.1-4.9-14.7,1.2-14.7,1.2c-4.6-0.5-8.7-0.8-8.7-0.8 s-2.9-0.4-22.1-2.2C99.7,202.4,78.7,190,78.7,190l16.1-18.4l46.4,18.7c0,0,14-4.9,20.7-1.6c3.5,1.8,4.6,7.8,3.8,12.8L165.4,203.1 z"/></g></g></g><g id="Layer_10"><g><g><g><g id="change2_28"><path fill="#38455d" d="M164.8,203c-0.8,2.8-2,1.1-4.1,0.7c-1.4-0.3-2.9-0.2-4.3,0.1c-1.6,0.3-3.1,0.8-4.6,1.5 c-2.3,1.1-3,1.2-5.9,0.9c-3.5-0.3-6.9-0.6-10.4-1c-11.4-1.2-22.8-1.9-33.8-5.6c-5.3-1.8-10.5-4-15.5-6.4 c-1.6-0.8-6.2-2.2-7.2-3.8c0.6,1-0.2,0.9,0.9,0.1c0.8-0.6,1.4-1.6,2.1-2.4c2.5-2.9,5.1-5.8,7.6-8.7c1.5-1.7,3.2-4.6,5.1-5.9 c0.9-0.6-0.7-0.1,0-0.2c0.4,0,1.2,0.4,1.5,0.6c5.1,2.7,11,4.4,16.4,6.6c6.5,2.6,13,5.2,19.4,7.8c2.9,1.1,6.5,3.5,9.6,3.4 c4.1-0.1,8.4-2.4,12.7-2.6c4.5-0.2,8.9,0.7,10.3,5.9C165.6,197,165.3,200.1,164.8,203c-0.2,0.8,1.1,1.2,1.3,0.3 c0.8-4.2,1.1-9.8-1.8-13.4c-2.6-3.2-7.4-3.2-11.2-2.9c-2.6,0.2-5.3,0.7-7.8,1.4c-1.1,0.3-3.3,1.2-4,1.2c-1,0-3.7-1.5-5-2 c-13.8-5.5-27.6-11.1-41.3-16.6c-0.2-0.1-0.5,0-0.6,0.2c-5.4,6.1-10.7,12.2-16.1,18.4c-0.3,0.3-0.3,0.8,0.1,1 c5.3,3.1,11,5.7,16.7,8c11.1,4.4,22.1,6.1,33.9,7.3c4,0.4,8,0.9,12,1.2c2.7,0.3,6.5,1.2,9.1,0.6c1.1-0.2,2.3-1.3,3.3-1.7 c3.7-1.5,7.1-1.7,10.6,0.6c0.4,0.3,0.8,0,1-0.4c0.4-0.9,0.8-1.9,1-2.9C166.3,202.5,165,202.1,164.8,203z"/></g></g></g></g></g><g id="Layer_6"><g><g id="change1_26"><path fill="#ffffff" d="M424.4,192.8l-60.6,22.7c0,0-14,6.5-18.1,5c-4.1-1.5-3.5-2.4-6.3-3.2c-2.8-0.7-4.5-1.3-4.7-3.3 c-0.1-2-1.2-1.9-2.2-2.9c-1-1-2.4-2.9-2.5-4.1c-0.1-1.2,1.4-2.1,4.3-2.8s9.1-2.2,9.1-2.2s-4.9-1.3-3.3-3.4s30.8-9.4,30.8-9.4 l29.9-11.8l12.3-5.9l10.9,20.6L424.4,192.8z"/></g></g></g><g id="Layer_7"><g><g><g><g><g id="change2_82"><path fill="#38455d" d="M348.3,200c-1.5,0.5-5.2,1.3-6.8,0.3c-2.9-1.8,4.3-3.7,6-4.2c9.8-2.9,19.7-4.8,29.3-8.3 c12.2-4.4,24.2-9.5,35.8-15.2c0.8-0.4,0.1-1.6-0.7-1.2c-17.4,8.6-35.8,16.6-54.7,21c-2.2,0.5-19.3,2.7-18.5,7.5 c0.5,3.3,8,2.2,9.9,1.5C349.5,201.1,349.2,199.7,348.3,200L348.3,200z"/></g></g></g><g><g><g id="change2_70"><path fill="#38455d" d="M329.7,208.1c1,3,4.1,4.9,7.1,5.4c2.5,0.4,5.5,0.2,8-0.1c0.5-0.1,1.3-0.1,1.7-0.5c0.6-0.6-0.3-1.6-1-1 c0.2-0.2-1.2,0.1-1.6,0.1c-2,0.2-4.1,0.3-6.1,0.1c-2.8-0.2-5.9-1.6-6.9-4.5C330.7,206.9,329.4,207.3,329.7,208.1L329.7,208.1z"/></g></g></g><g><g><g id="change2_49"><path fill="#38455d" d="M334.1,212.8c-0.5,2.7,1.7,4.5,4.1,5c2.7,0.6,5.8,0.3,8.6-0.1c0.6-0.1,1.4-0.1,1.9-0.4 c0.8-0.5,0.1-1.7-0.7-1.2c-1.1,0.7-4.8,0.5-6.3,0.5c-2,0-6.9-0.2-6.2-3.5C335.6,212.3,334.3,211.9,334.1,212.8L334.1,212.8z"/></g></g></g><g><g><g id="change2_16"><path fill="#38455d" d="M347.7,200.2c-2.8,0.7-5.5,1.3-8.3,2c-2.8,0.7-6.4,0.9-8.9,2.1c-2,0.9-1.7,3.1,0,4.1 c3.4,2,9.8,0.4,13.4,0.2c0.9-0.1,0.9-1.5,0-1.4c-2.6,0.2-5.2,0.4-7.8,0.5c-1.2,0-3.5,0.3-4.6-0.3c-2.7-1.6,1.1-2.1,2.4-2.4 c4.7-1.1,9.4-2.2,14.1-3.3C349,201.3,348.6,200,347.7,200.2L347.7,200.2z"/></g></g></g><g><g><g id="change2_59"><path fill="#38455d" d="M424.3,192.1c-11.4,4.6-22.9,9.1-34.5,13.4c-8.6,3.2-17.3,6.4-26.1,9.2c-3.7,1.2-20.2,7.9-22.3,2.4 c-0.3-0.8-1.7-0.5-1.3,0.4c2.1,5.6,11.3,2.4,15.3,1.3c9.3-2.6,18.5-5.9,27.6-9.2c14-5.1,27.9-10.5,41.7-16.1 C425.4,193.1,425.1,191.8,424.3,192.1L424.3,192.1z"/></g></g></g></g></g></g><g id="Layer_25"><g><g id="change1_23"><path fill="#ffffff" d="M62.6,129.6l39.9,34.7l-23.8,30.5c0,0-22.4-10-30.6-24.4S44.8,135.4,62.6,129.6z"/></g></g><g><g id="change1_13"><path fill="#ffffff" d="M437.5,129.6l-39.9,34.7l23.8,30.5c0,0,22.4-10,30.6-24.4C460.3,156.1,455.3,135.4,437.5,129.6z"/></g></g></g><g id="Layer_4"><g><g><g><g id="change2_94"><path fill="#38455d" d="M437,129.2c-13.3,11.6-26.6,23.1-39.9,34.7c-0.3,0.3-0.2,0.7,0,1c7.9,10.2,15.9,20.3,23.8,30.5 c0.2,0.3,0.6,0.2,0.8,0.1c12.5-5.7,27.2-15,32.6-28.2c6.2-15.3-1.1-32.7-16.7-38.2c-0.8-0.3-1.2,1-0.4,1.3 c9.9,3.5,16.6,11.8,17.7,22.3c1.1,10-3.1,18.9-10.1,25.7c-5.8,5.7-12.7,10.2-19.8,13.9c-0.8,0.4-3,2-4,2 c1.5,0.1-0.6-1.6-1.2-2.5c-3.6-4.7-7.3-9.3-10.9-14c-3.2-4-6.1-8.9-9.8-12.5c-1.4-1.4-0.5-1.4-1-0.6c0.5-0.9,2.1-1.8,2.9-2.5 c4.1-3.6,8.2-7.1,12.3-10.7c8.2-7.1,16.4-14.2,24.5-21.3C438.7,129.6,437.7,128.6,437,129.2z"/></g></g></g></g><g><g><g><g id="change2_83"><path fill="#38455d" d="M62.1,130.1c6.9,6,13.8,12,20.8,18.1c4.5,3.9,9.1,7.9,13.6,11.8c1.3,1.1,2.6,2.5,4.1,3.5 c1.4,1,1,1.3,1.2,0.4c-1.2,3.5-5.9,7.5-8.1,10.4c-3.8,4.9-7.6,9.8-11.5,14.7c-1.1,1.4-2.3,2.9-3.4,4.3 c-0.9,1.2,0.3,1.1-1.1,0.3c-6-3.5-12.1-6.6-17.7-11c-8.3-6.6-14.9-15.1-15.2-26.2c-0.3-11.9,6.6-22.3,17.9-26.2 c0.8-0.3,0.5-1.6-0.4-1.3c-15.6,5.5-22.9,22.9-16.7,38.2c5.3,13.2,20.1,22.6,32.6,28.2c0.3,0.1,0.6,0.1,0.8-0.1 c7.9-10.2,15.9-20.3,23.8-30.5c0.2-0.3,0.3-0.7,0-1c-13.3-11.6-26.6-23.1-39.9-34.7C62.4,128.6,61.4,129.6,62.1,130.1z"/></g></g></g></g></g><g id="Layer_30"><g><g id="change1_9"><path fill="#ffffff" d="M211.4,147.1c0,0-4-0.9-4.1,0.8c-0.1,1.7,0.8,2.7,0.8,2.7s-2.7,0.8-2.6,2.1c0.1,1.3-0.3,2.6,3.2,4.1 c0,0,0.7,0.9-0.6,1.2c-1.3,0.4-3.9,1-2.7,2.7c1.1,1.7,2.6,2,2.6,2s-2.1,1.6-1.9,3.1c0.2,1.5,2.5,1.7,7.2,2.4 c4.6,0.7,7-0.1,6.7-1.6c-0.3-1.5-2.6-2-2.2-2.1c0.4-0.1,2.8-0.9,1.7-2.9c-1.1-2-2.6-2.5-2.4-2.6c0.2-0.1,4.1-0.7,2.5-2.7 c-1.6-2-1.8-2.1-0.9-2.3c0.8-0.3,3.1-0.9,1.4-3.2C218.4,148.3,211.4,147.1,211.4,147.1z"/></g></g><g><g id="change1_30"><path fill="#ffffff" d="M288.6,147.1c0,0,4-0.9,4.1,0.8c0.1,1.7-0.8,2.7-0.8,2.7s2.7,0.8,2.6,2.1s0.3,2.6-3.2,4.1 c0,0-0.7,0.9,0.6,1.2c1.3,0.4,3.9,1,2.7,2.7c-1.1,1.7-2.6,2-2.6,2s2.1,1.6,1.9,3.1c-0.2,1.5-2.5,1.7-7.2,2.4 c-4.6,0.7-7-0.1-6.7-1.6c0.3-1.5,2.6-2,2.2-2.1c-0.4-0.1-2.8-0.9-1.7-2.9c1.1-2,2.6-2.5,2.4-2.6s-4.1-0.7-2.5-2.7 c1.6-2,1.8-2.1,0.9-2.3c-0.8-0.3-3.1-0.9-1.4-3.2C281.6,148.3,288.6,147.1,288.6,147.1z"/></g></g></g><g id="Layer_29"><g><g><g><g><g id="change2_90"><path fill="#38455d" d="M221.1,152.9c1.5-3.1-4.6-4.8-6.5-5.4c-1.7-0.6-8.3-2.6-8,1.3c0.2,2.6,4.6,4.3,6.6,5 C215.4,154.5,219.8,155.7,221.1,152.9c0.3-0.7-0.7-1.2-1-0.6c-1.6,3.4-9.6-0.6-11.4-2.2c-0.8-0.7-1.7-1.8-0.1-2.5 c1.2-0.5,3.1,0.2,4.3,0.5c1.3,0.4,8.1,2.3,7.2,4.2C219.8,152.9,220.8,153.5,221.1,152.9z"/></g></g></g><g><g><g id="change2_14"><path fill="#38455d" d="M208.1,150c-2,0.1-3.4,1.6-3.2,3.6c0.5,4,6.9,5,9.9,5.8c0.7,0.2,1-0.9,0.3-1.1c-2.5-0.7-6.2-1.3-8.2-3.2 c-1.6-1.5-1.1-3.9,1.1-4C208.8,151.1,208.8,150,208.1,150L208.1,150z"/></g></g></g><g><g><g id="change2_68"><path fill="#38455d" d="M217.1,155c0.7,0.4,1.5,0.8,1.9,1.5c1.4,2.2-2.6,2.2-3.9,1.9c-0.7-0.2-1,0.9-0.3,1.1 c1.2,0.4,4.8,1.6,4.5,3.4c-0.3,2.1-5.2,1.2-6.5,0.9c-1.9-0.3-4.7-0.8-6.1-2.1c-3.1-2.9,3.4-3.3,5.2-2.9c0.7,0.2,1-0.9,0.3-1.1 c-2-0.5-7.8-0.7-7.6,2.7c0.2,3.2,5.9,4.2,8.2,4.6c1.9,0.3,6.7,1.2,7.5-1.4c0.9-2.8-3.3-4.5-5.3-5.1c-0.1,0.4-0.2,0.7-0.3,1.1 c1.7,0.4,5.2,0.6,5.7-1.8c0.4-1.7-1.6-2.9-2.9-3.6C217,153.6,216.5,154.6,217.1,155L217.1,155z"/></g></g></g><g><g><g id="change2_99"><path fill="#38455d" d="M216.6,165.3c1.2,0.3,4,1.4,2.1,2.3c-1.3,0.7-3.8,0.3-5.3,0.2c-1.8-0.1-3.7-0.3-5.4-0.9 c-1-0.4-2.4-1-1.2-2.4c0.3-0.3,1.1-0.5,1.5-0.7c0.7-0.2,0.4-1.3-0.3-1.1c-1.6,0.5-3.8,1.7-2.7,3.6c1.3,2.2,5.6,2.3,7.9,2.5 c1.6,0.1,6.1,0.7,7.3-1c1.3-2-2.1-3.4-3.5-3.7C216.2,164.1,215.9,165.1,216.6,165.3L216.6,165.3z"/></g></g></g></g></g><g><g><g><g><g id="change2_103"><path fill="#38455d" d="M279.8,152.3c-0.9-1.9,5.8-3.8,7.2-4.2c1.1-0.3,2.7-0.9,3.9-0.5c2,0.5,1.3,1.6,0.3,2.5 C289.4,151.7,281.4,155.7,279.8,152.3c-0.3-0.7-1.3-0.1-1,0.6c1.3,2.8,5.7,1.6,7.9,0.8c2-0.7,6.5-2.4,6.6-5 c0.2-3.8-6.3-1.8-8-1.3c-1.9,0.6-8,2.3-6.5,5.4C279.2,153.5,280.2,152.9,279.8,152.3z"/></g></g></g><g><g><g id="change2_25"><path fill="#38455d" d="M291.9,151.1c2.2,0.1,2.7,2.6,1.1,4c-2,1.9-5.6,2.5-8.2,3.2c-0.7,0.2-0.4,1.3,0.3,1.1 c3-0.8,9.4-1.8,9.9-5.8c0.2-2-1.2-3.5-3.2-3.6C291.2,150,291.2,151.1,291.9,151.1L291.9,151.1z"/></g></g></g><g><g><g id="change2_45"><path fill="#38455d" d="M282.3,154c-1.2,0.7-3.3,1.9-2.9,3.6c0.5,2.4,4,2.2,5.7,1.8c-0.1-0.4-0.2-0.7-0.3-1.1 c-2,0.6-6.2,2.3-5.3,5.1c0.8,2.6,5.6,1.7,7.5,1.4c2.3-0.4,8-1.4,8.2-4.6c0.2-3.3-5.5-3.2-7.6-2.7c-0.7,0.2-0.4,1.3,0.3,1.1 c1.8-0.5,8.4,0,5.2,2.9c-1.5,1.3-4.2,1.8-6.1,2.1c-1.2,0.2-6.2,1.2-6.5-0.9c-0.2-1.8,3.3-3,4.5-3.4c0.7-0.2,0.4-1.2-0.3-1.1 c-1.3,0.3-5.3,0.3-3.9-1.9c0.4-0.6,1.3-1.1,1.9-1.5C283.5,154.6,283,153.6,282.3,154L282.3,154z"/></g></g></g><g><g><g id="change2_5"><path fill="#38455d" d="M283.1,164.2c-1.4,0.3-4.8,1.6-3.6,3.6c1.1,1.8,5.7,1.2,7.3,1.1c2.2-0.2,6.5-0.3,7.8-2.5 c1.2-1.9-1.1-3.2-2.7-3.7c-0.7-0.2-1,0.9-0.3,1.1c0.4,0.1,1,0.3,1.3,0.5c1.5,1.4,0.2,2-0.8,2.4c-1.8,0.7-3.8,0.9-5.6,1 c-1.5,0.1-3.6,0.4-5.1-0.2c-2.2-0.8,0.6-2.1,1.9-2.3C284.1,165.1,283.8,164.1,283.1,164.2L283.1,164.2z"/></g></g></g></g></g></g></svg>