<?xml version="1.0" encoding="UTF-8"?><svg xmlns="http://www.w3.org/2000/svg" xmlns:xlink="http://www.w3.org/1999/xlink" contentScriptType="text/ecmascript" fill="#000000" width="217.1" zoomAndPan="magnify" contentStyleType="text/css" viewBox="-5.6 -3.3 217.1 503.9" height="503.9" preserveAspectRatio="xMidYMid meet" version="1"><g id="Layer_6"><g id="change1_3"><path fill="#ffffff" d="M64.7,58.8l-2.1,4l2.8,23.9c0,0,0.8,30.9,12.3,36.7c11.5,5.8,18.7,8.5,29.8,8.4l11-1.2c0,0-1.2,10,0.2,12.4 c1.4,2.4-40.4,137.5-40.4,137.5l2.9,80.9l-24.5,87.4c0,0,3.7,10.9,7.5,12.4s11,2.9,12.6,1.6c1.6-1.3,46.6-90.8,46.6-90.8l12.8,0.1 l34.5,74.3c0,0,20.2,3.5,20.6,2.8s3.1-7.7,3.1-7.7l-17.4-70.8l19.7-1.7l-6.5-72.3c0,0,3,2.9,6.5,1.4s3.6-2.1,3.6-2.1 s5.1-0.2,6.4-1.4c1.2-1.2,3.3-1.7,2.7-3.2c-0.6-1.4-11.4-13.2-11.4-13.2s4.6,2.3,6,0.8c1.4-1.5-7.8-13.8-7.8-13.8l-9.6-10 l-3.3-36.7l5.3-63.8L168,104.6l11.8-15.9L171,39.4l-45.1-20.5L91.4,29.7L64.7,58.8z"/></g><g><g id="change1_4"><path fill="#ffffff" d="M56.5,447.9c0,0,2.9,7.8,8.2,12.4c3.2,2.8,7.3,4.3,12.2,2.4c0,0,7.3,10.2-1.5,24.3c0,0-56.4,4-68.7-8.6 s-5-25.1,11.3-24.3C34.2,455,56.5,447.9,56.5,447.9z"/></g></g><g><g id="change1_2"><path fill="#ffffff" d="M169.4,443.4c0,0,18.6,10.4,25.1-2.1c0,0,12.3,3,14.8,19.4c0,0-40.1,39.9-57.6,38.4s-20.1-15.7-7.3-25.8 C157.1,463.3,169.4,443.4,169.4,443.4z"/></g></g></g><g id="Layer_3"><g><g><g><g id="change2_21"><path fill="#38455d" d="M77.6,463.2c16.3-31.8,32.5-63.5,48.8-95.3c0.3-0.5,0-1.1-0.5-1.3c-14.1-4.6-28.2-9.3-42.3-13.9 c-0.4-0.1-1,0.2-1.1,0.6c-8.8,31.6-17.7,63.1-26.5,94.7c-0.3,1.1,1.4,1.5,1.7,0.5c4.4-15.6,8.7-31.1,13.1-46.7 c3-10.7,6-21.5,9-32.2c1-3.7,2-7.3,3.1-11c0.3-1.2,0.5-3.8,1.3-4.8c-1.1,1.3-0.8,0.2,0.8,1.1c1.5,0.9,3.7,1.2,5.3,1.7 c5.3,1.8,10.7,3.5,16,5.3c4.9,1.6,9.9,3.3,14.8,4.9c1.3,0.4,2.6,0.8,3.8,1.3c0.8,0.3,0.2-1.7-0.3-0.6 c-7.6,15.4-15.7,30.6-23.5,45.9c-8.3,16.3-16.7,32.6-25,48.9C75.6,463.3,77.1,464.2,77.6,463.2L77.6,463.2z"/></g></g></g><g><g><g><g id="change2_19"><path fill="#38455d" d="M55.6,448.1c1.9,5,4.9,10.1,9.1,13.4c1.8,1.4,3.9,2.5,6.2,2.8c1.4,0.2,2.7-0.2,4-0.2 c2,0.1,0.2-1.2,1.7,0.1c4.3,3.6,1.9,20.4-2.1,21.9c-2.7,1-7.4,0.4-10.3,0.4c-12.8,0.3-25.9,0.3-38.6-1.8 c-5.5-0.9-11.6-2-16.4-5.2c-9-5.9-11.8-19.6,0.2-23.6c5.1-1.7,10.8-0.7,16.1-1.1c4.4-0.3,8.8-1,13.2-1.8 c6-1.1,11.9-2.5,17.7-4.4c1.1-0.3,0.6-2-0.5-1.7c-5.2,1.6-10.5,2.9-15.9,4c-5.1,1-10.4,1.8-15.6,2.2c-4.3,0.3-8.7-0.3-13,0.4 c-14.2,2.6-15.2,17.2-5.2,26c8.1,7.1,22,7.6,32.2,8.3c11.2,0.8,23.4,1.5,34.6,0.1c4.5-0.6,5.5-5.2,6.5-9.5 c1.2-5.3,0.8-11.6-2.3-16.2c-0.2-0.3-0.6-0.5-1-0.4c-9.6,3-16.3-6.2-19.3-14.2C56.9,446.6,55.2,447.1,55.6,448.1z"/></g></g></g></g><g><g><g id="change2_1"><path fill="#38455d" d="M1.1,460.9c4.1,15.1,18.3,20.9,32.4,22.2c14.6,1.4,29.5,1.2,44.2,0.4c1.1-0.1,1.1-1.8,0-1.7 c-12.1,0.6-24.4,0.8-36.5,0.1c-15.5-0.8-33.6-3.8-38.4-21.5C2.4,459.3,0.8,459.8,1.1,460.9L1.1,460.9z"/></g></g></g></g><g><g><g><g id="change2_29"><path fill="#38455d" d="M195.3,441.1c-8-33-16.1-65.9-24.1-98.9c-0.1-0.5-0.6-0.7-1.1-0.6c-14.1,4-28.2,8-42.3,12 c-0.6,0.2-0.8,0.8-0.5,1.3c14,29.7,27.9,59.3,41.9,89c0.5,1,2,0.1,1.5-0.9c-6.6-14-13.2-28-19.7-42 c-4.7-10.1-9.5-20.1-14.2-30.2c-2.5-5.4-5.9-10.8-7.7-16.5c-0.2-0.7-1.2,1,0,0.7c1.4-0.3,2.7-0.8,4.1-1.2 c4.8-1.4,9.6-2.7,14.4-4.1c5.3-1.5,10.7-3,16-4.5c1.6-0.4,3.5-0.7,5-1.4c1.7-0.8,2.1,0.2,1.1-1.2c0.7,0.9,0.8,3.3,1.1,4.4 c0.9,3.5,1.7,7,2.6,10.6c2.5,10.4,5.1,20.8,7.6,31.1c4.3,17.6,8.6,35.2,12.9,52.8C193.9,442.6,195.6,442.1,195.3,441.1 L195.3,441.1z"/></g></g></g><g><g><g><g id="change2_16"><path fill="#38455d" d="M168.9,444.1c3.6,2,7.6,3.4,11.7,3.9c6.4,0.9,9-1.3,13.7-4.8c1.4-1-0.5-1.3,2.6-0.1c3.1,1.1,6,4.4,7.7,7 c1.1,1.8,4.6,7.9,3.9,10.1c-0.3,0.9-2.1,2-2.8,2.7c-9.7,9.2-19.9,18.1-30.9,25.6c-5.5,3.7-11.6,7.7-18.1,9.2 c-8.6,2.1-21.9-2.9-19.1-13.7c1.5-5.6,6.3-8.8,10.3-12.5c4-3.6,7.6-7.6,10.9-11.8c4.1-5,7.9-10.3,11.3-15.8 c0.6-1-0.9-1.8-1.5-0.9c-3.3,5.4-7.1,10.6-11,15.5c-2.9,3.7-6.1,7.2-9.5,10.4c-3.2,3-7,5.5-9.5,9.1c-8,11.3,1.4,22,13.9,22 c11.6,0,23.5-9.9,32.1-16.6c5.7-4.4,11.1-9,16.4-13.8c2.4-2.1,7.1-5.1,8.6-8.1c1.9-3.8-2.5-11.2-4.9-14.2 c-2.5-3.1-6-5.9-9.9-6.9c-0.4-0.1-0.8,0.1-1,0.4c-5.2,8.7-16.5,5.9-23.9,1.8C168.8,442.1,167.9,443.6,168.9,444.1z"/></g></g></g></g><g><g><g id="change2_11"><path fill="#38455d" d="M136,489.5c14.1,9.5,29.2,2.9,41.3-6c11.1-8.2,21.5-17.4,31.4-26.9c0.8-0.8-0.4-2-1.2-1.2 c-8.4,8-17.1,15.8-26.3,23c-12.6,9.9-28.6,20.4-44.4,9.7C135.9,487.3,135,488.8,136,489.5L136,489.5z"/></g></g></g><g><g><g id="change2_9"><path fill="#38455d" d="M147.1,369.6c3.9,2.1,9.1,3.6,13.2,1.3c0.9-0.5,0.1-1.9-0.8-1.4c-3.5,1.9-8.2,0.5-11.5-1.3 C147,367.6,146.2,369.1,147.1,369.6L147.1,369.6z"/></g></g></g></g></g><g id="Layer_2"><g><g id="change3_3"><path fill="#79a5fc" d="M177.1,147.8l19.7,221c-67,7-146.8,0-146.8,0l50.1-221.5c0,0,7.1-9.6,18.1-10c0,0-0.9,8.4,6.2,11.9 c7.1,3.5,15.6,2.1,21.2-1.9c5.6-4,9.7-8.5,10.5-10.8S174.8,137.6,177.1,147.8z"/></g></g><g><g id="change3_4"><path fill="#79a5fc" d="M157.2,137l-28,57l46,22.2C175.2,216.2,203.5,130.2,157.2,137z"/></g></g><g><g id="change3_1"><path fill="#79a5fc" d="M102.3,142.9c0,0-17.7,11.3-17.8,29.7c-0.1,18.3,3.4,29.1,4.1,25.8c0.7-3.3,10.2-47.8,10.2-47.8 S102.7,144.1,102.3,142.9z"/></g></g><g><g id="change3_2"><path fill="#79a5fc" d="M157.2,137l-28,57l46,22.2C175.2,216.2,203.5,130.2,157.2,137z"/></g></g></g><g id="Layer_4"><g><g id="change1_1"><path fill="#ffffff" d="M165.8,211.7l-45.2,67.1c0,0-9.5,16.8-14.8,18.3c-5.3,1.5-5.3,0.1-8.7,1.3c-3.4,1.3-5.5,2-7.2,0 c-1.6-2-2.6-1.1-4.4-1.4c-1.8-0.3-4.6-1.1-5.6-2.3c-1-1.2-0.1-3.1,2.4-6c2.5-2.8,7.7-8.8,7.7-8.8s-6,2.2-5.8-1.1 c0.2-3.3,24.5-31.9,24.5-31.9l21.8-33.7l8.2-14.9l26,13L165.8,211.7z"/></g></g></g><g id="Layer_1"><g><g><g id="change2_7"><path fill="#38455d" d="M157.2,136.7c0.2-10.2,0.3-20.5,0.5-30.7c0.1-3.4-0.9-8.6,0.2-11.8c-0.2,0.8-1.6,0.7-0.3,1 c0.7,0.2,1.4,0.3,2.1,0.4c1.9,0.3,3.9,0.4,5.8,0.1c10.8-1.5,15.4-16.8,8.9-25.2c-2.3-2.9-5.3-3.4-8.8-3 c-5.9,0.5-10.7-2.7-15.1-6.7c-9.9-9-17.4-21.4-23.1-33.3c-0.1-0.3-0.5-0.4-0.8-0.4c-21.8,0.6-50.4,4.9-66.6,21.5 c-0.3,0.3-0.3,0.7-0.1,1.1c8.8,20.7-0.1,45.4,10.5,65.4c12.7,24.1,48.8,21.9,68.3,8.8c0.9-0.6,0.1-2.1-0.9-1.5 c-15.6,10.5-35.8,12.9-53,4.3c-11.7-5.9-16.2-17.2-17.5-29.5c-1.2-11.1-0.5-22.2-2-33.3c-0.6-4.5-3-9.2-3.3-13.5 c-0.1-0.8-0.7-0.2-0.5-0.8c0.1-0.4,1.4-1.2,1.7-1.5c5.2-5.3,13.6-8.8,20.3-11.4c5.4-2.1,11-3.7,16.7-4.9c4-0.9,8.1-1.5,12.2-2 c1.9-0.2,3.8-0.4,5.7-0.5c1.3-0.1,7-1.3,7.8-0.8c1.1,0.7,2.2,4.3,2.8,5.4c2.3,4.2,4.8,8.4,7.5,12.4c5.3,7.9,11.6,16.4,20.1,21 c2.4,1.3,5.2,2.5,8,2.4c4.9-0.2,8.2-0.8,10.1,5.1c4.1,12.4-5.1,22.2-17.1,18.6c-0.6-0.2-1.1,0.3-1.1,0.8 c-0.2,14.2-0.5,28.4-0.7,42.6C155.4,137.8,157.2,137.8,157.2,136.7L157.2,136.7z"/></g></g></g><g><g><g id="change2_31"><path fill="#38455d" d="M119.5,131.9c0-0.8-1.7-0.8-1.7,0l0,0c0,2.2,0,4.4,0,6.7c0,0.8,1.6,3.1,1.6,2.3"/></g></g></g><g><g><g id="change2_23"><path fill="#38455d" d="M167.4,75.3c0.5,0.6,1.4,2.4,1.7,3.6c0.9,3.6-0.9,6.3-3.9,8.1c-1,0.6-0.1,2.1,0.9,1.5 c5.4-3.4,6.4-9.4,2.5-14.5C168,73.2,166.8,74.5,167.4,75.3L167.4,75.3z"/></g></g></g><g><g id="change2_6"><path fill="#38455d" d="M63.8,62.8c0,0,57.1-14.9,62.3-35s-54.9-1.4-54.9-1.4L57.3,45.9L63.8,62.8z"/></g></g><g><g><g><g id="change2_8"><path fill="#38455d" d="M156.4,136.5c-9.3,19-18.7,38-28,57c-0.2,0.4-0.1,1,0.3,1.2c15.3,7.4,30.7,14.8,46,22.2 c0.5,0.3,1.1,0,1.3-0.5c7.1-21.7,22.4-85.7-18.8-80.4c-1.1,0.1-1.1,1.9,0,1.7c38.6-5,24.2,54.4,18.1,75c-0.3,0.9-0.4,2.3-0.9,3 c0.6-0.9,1.7-0.1,0.6-0.8c-1.1-0.6-2.2-1.1-3.3-1.6c-8.2-4-16.4-7.9-24.6-11.9c-3.6-1.8-7.3-3.5-10.9-5.3 c-1.6-0.8-5.1-1.7-6.3-3.1c-0.1-0.2,0,1.8,0.4,0.6c0.3-0.8,0.8-1.6,1.2-2.4c1.5-3.1,3-6.1,4.5-9.2c7.4-15,14.7-29.9,22.1-44.9 C158.4,136.4,156.9,135.5,156.4,136.5z"/></g></g></g></g><g><g><g><g id="change2_25"><path fill="#38455d" d="M93.7,274.5c-1.1,1.6-4.7,5.5-7.1,5.3c-3.4-0.2,1.9-6.6,3.1-8.2c7.5-9.8,16.1-18.7,23.2-28.9 c9.6-13.8,18.4-28.2,26.4-43c0.5-1-1-1.9-1.5-0.9c-11.6,21.6-24.6,43.5-41,61.8c-1.8,2-17.1,16.3-12.8,20.5 c3,3,9.7-3.6,11.2-5.8C95.8,274.5,94.3,273.6,93.7,274.5L93.7,274.5z"/></g></g></g><g><g><g id="change2_14"><path fill="#38455d" d="M80.8,296.3c3.8,2.7,8.9,1.7,12.5-0.7c2.3-1.5,4.9-3.3,6.9-5.3c0.4-0.4,1-0.8,1.1-1.4 c0.2-1.1-1.5-1.6-1.7-0.5c-0.2,1.1-5,4.1-6,4.8c-3.4,2.4-8.2,4.2-12,1.5C80.7,294.2,79.9,295.7,80.8,296.3L80.8,296.3z"/></g></g></g><g><g><g id="change2_22"><path fill="#38455d" d="M88.6,297.9c1.6,3.4,5.6,3.1,8.4,1.6c2.9-1.5,5.7-3.9,8.1-6.1c0.5-0.4,1.2-1,1.5-1.7 c0.4-1-1.1-1.9-1.5-0.9c-0.7,1.7-3.8,3.4-5.2,4.4c-2.3,1.7-7.9,6-9.9,1.6C89.6,296,88.1,296.9,88.6,297.9L88.6,297.9z"/></g></g></g><g><g><g id="change2_26"><path fill="#38455d" d="M93.3,275c-2.3,2.7-4.7,5.4-7,8.1c-2.4,2.7-5.5,5.5-7.5,8.6c-1.5,2.3,0.3,4.5,2.8,4.3 c1.8-0.2,3.5-1.5,4.9-2.5c3.1-2.2,6-4.7,9-7.2c0.9-0.7-0.4-2-1.2-1.2c-2.6,2.2-5.2,4.4-7.9,6.4c-1.2,0.9-2.9,2.4-4.5,2.6 c-4,0.7,0-3.4,0.8-4.3c3.9-4.5,7.9-9,11.8-13.5C95.3,275.4,94.1,274.1,93.3,275L93.3,275z"/></g></g></g><g><g><g id="change2_13"><path fill="#38455d" d="M165.1,211.3c-8.1,12.8-16.4,25.5-24.9,38.1c-6.3,9.4-12.7,18.8-19.4,27.9c-2.9,4-15.4,23.7-21.8,19.5 c-0.9-0.6-1.8,0.9-0.9,1.5c6.5,4.3,14.1-7.1,17.4-11.2c7.4-9.3,14.2-19.1,20.9-28.9c10.3-15.1,20.4-30.5,30.2-46 C167.2,211.2,165.7,210.3,165.1,211.3L165.1,211.3z"/></g></g></g></g><g><g><g><g id="change2_3"><path fill="#38455d" d="M193.7,274c1.2,1.7,11.3,10.5,11.8,4.2c0.3-4-4.8-9.1-7.1-11.8c-3.5-4.2-7.3-8.1-11-12.1 c-0.8-0.8-2,0.4-1.2,1.2c5.7,6.1,12.2,12.1,16.3,19.4c1,1.8,2.4,4.3-0.6,3.3c-2.6-0.9-5.1-3-6.6-5.2 C194.6,272.2,193.1,273.1,193.7,274L193.7,274z"/></g></g></g><g><g><g id="change2_17"><path fill="#38455d" d="M207.2,293.4c-2.7,1.9-6.4,1.7-9.3,0.3c-2-1-3.8-2.5-5.5-3.8c-0.4-0.3-2-1.7-1.9-1.4 c-0.2,0.4-0.4,0.7-0.6,1.1c-0.2,0.1-0.4,0-0.6-0.1c1,0.5,1.9-1,0.9-1.5c-0.2-0.1-0.5-0.2-0.8-0.1c-0.5,0.1-0.7,0.6-0.6,1.1 c0.2,0.6,1.1,1.1,1.5,1.5c2.4,1.9,4.9,4,7.7,5.2c3.1,1.3,7.2,1.3,10-0.7C209,294.3,208.1,292.8,207.2,293.4L207.2,293.4z"/></g></g></g><g><g><g id="change2_24"><path fill="#38455d" d="M198.8,295.6c-1.6,3.5-5.9,1.3-8-0.2c-0.9-0.6-1.8,0.9-0.9,1.5c2.9,2.1,8.4,4,10.4-0.4 C200.7,295.5,199.2,294.6,198.8,295.6L198.8,295.6z"/></g></g></g><g><g><g id="change2_2"><path fill="#38455d" d="M194.3,274.8c3.9,4.5,7.9,9,11.8,13.5c0.9,1,4.7,4.6,1,4.4c-1.5-0.1-3.2-1.6-4.3-2.4 c-2.9-2.1-5.6-4.4-8.3-6.7c-0.9-0.7-2.1,0.5-1.2,1.2c2.9,2.5,5.8,5,9,7.2c1.4,1,3.1,2.3,4.9,2.5c2.5,0.2,4.3-2,2.8-4.3 c-2-3.1-5.1-5.8-7.5-8.6c-2.3-2.7-4.7-5.4-7-8.1C194.8,272.7,193.6,274,194.3,274.8L194.3,274.8z"/></g></g></g></g><g id="change2_32"><path fill="#38455d" d="M187.7,98.3c-3.2-24.2-6.3-40.9-8.8-51.6c-2.5-19.1-13-39.8-45.4-46.3c-6.5-1.3-113-3.7-67.9,83.7 c0,0,0.5-21.9-1.4-27s58.9-29.3,58.9-29.3s1.7-2.9,4.8,2.9c3.2,5.8,15,27,23.5,32.1c8.5,5.1,10.7,5.5,14.2,5.5c2.4,0,6.3,0.5,8.5,3 c0.6,2.8,1.2,5.3,1.6,7.2c-0.1,4.8-0.1,4.8-0.1,4.8s0.2-0.5,0.4-1.5c0,5.1-3,8.4-5.9,11.3c-3.4,3.5-13.3,1-13.3,1l-0.9,42.4 c24.2,0.6,23.4,9.1,27.5,21.8c2.6,8-0.8,22.9-2.3,33.1c-0.9,6,0.1,10.7,0.1,10.7l2.2,18.3c0,0,9.9,4.7,19-23.2 S194.2,148.1,187.7,98.3z"/></g><g><g><g id="change2_20"><ellipse rx="4.2" ry="4.9" fill="#38455d" cx="85.4" cy="79.2"/></g></g><g><g id="change2_4"><ellipse rx="4.2" ry="4.9" fill="#38455d" cx="119.4" cy="79.2"/></g></g><g><g><g id="change2_30"><path fill="#38455d" d="M98.5,76.1c-1.9,6.9-6.7,24.3,6.6,21.4c1-0.2,0.6-1.8-0.4-1.6c-2.5,0.6-5.9,0.1-6.8-2.8 c-0.7-2.1,0-5.1,0.3-7.3c0.5-3.1,1.1-6.2,2-9.3C100.4,75.5,98.8,75.1,98.5,76.1L98.5,76.1z"/></g></g></g><g><g><g id="change2_18"><path fill="#38455d" d="M115.6,100.2c-4,4.7-10.4,7.7-16.6,5.6c-1.1-0.4-1.6,1.4-0.5,1.8c6.8,2.3,14-0.8,18.4-6 C117.6,100.6,116.4,99.3,115.6,100.2L115.6,100.2z"/></g></g></g><g><g><g id="change2_5"><path fill="#38455d" d="M79.3,67.7c3.2-2.6,7.6-3.9,11.7-4c1.2,0,1.2-1.9,0-1.8c-4.6,0.1-9.3,1.7-13,4.6 C77.1,67.2,78.4,68.5,79.3,67.7L79.3,67.7z"/></g></g></g><g><g><g id="change2_10"><path fill="#38455d" d="M128.5,66.4c-3.6-2.9-8.4-4.4-13-4.6c-1.2,0-1.2,1.8,0,1.8c4.1,0.1,8.5,1.5,11.7,4 C128.1,68.5,129.4,67.2,128.5,66.4L128.5,66.4z"/></g></g></g></g><g><g><g id="change2_27"><path fill="#38455d" d="M118.2,136.5c-8.4,0.6-17,4.6-23.1,10.3c-14.8,13.7-12.6,35.7-7.8,53.4c0.3,1.1,2,0.6,1.7-0.5 c-4.8-17.5-7-39.4,8.3-52.5c5.6-4.9,13.4-8.3,20.9-8.9C119.3,138.1,119.3,136.4,118.2,136.5L118.2,136.5z"/></g></g></g><g><g id="change2_12"><path fill="#38455d" d="M84.9,127.5c0,0-6.1,25.3,0,42.7c0,0,1.8-14.6,10.1-21.3c8.2-6.8,9.2-7.7,13.6-9.2c4.3-1.4,9.9-2.8,10.1-1.4 c0.2,1.4,0-6.7,0-6.7S102.3,134.7,84.9,127.5z"/></g></g><g><g><g id="change2_28"><path fill="#38455d" d="M150.4,278.1c-8.6,16.1-17.9,32.2-25.3,49c-0.4,1,1.1,1.9,1.5,0.9c7.4-16.7,16.7-32.8,25.3-49 C152.5,277.9,151,277.1,150.4,278.1L150.4,278.1z"/></g></g></g><g><g><g id="change2_15"><path fill="#38455d" d="M117,185.7c-4.5,8-8.9,16.1-12.6,24.5c-0.4,1,1.1,1.9,1.5,0.9c3.7-8.4,8.2-16.5,12.6-24.5 C119,185.6,117.5,184.7,117,185.7L117,185.7z"/></g></g></g><g id="change2_33"><path fill="#38455d" d="M181.9,192.4l-1.2,5.6c2,22.2,4,44.3,5.9,66.5c2.3,25.5,4.6,51,6.8,76.5c0.7,7.5,1.3,15,2,22.5 c0.1,1,0.9,3.9,0.4,4.8c-0.4,0.7-2.3,0-3.7,0.1c-6.3,0.1-12.6,1.1-18.8,1.4c-38.8,2.3-77.9,1.4-116.7-1.4c-1.5-0.1-3.5-0.6-4.9-0.4 c-0.3,0.1-0.6,0.1-0.8,0.1c0.2-0.7,0.4-1.5,0.6-2.1c1.4-6.4,2.9-12.7,4.3-19.1c11.5-50.7,22.9-101.4,34.4-152c2.3-10,4.5-20,6.8-30 c1.2-5.1,1.8-10.9,3.6-15.9c0.7-1.8,1.3-2.6,2.9-4.1c1.8-1.7,3.8-3.2,6-4.3c1.2-0.6,7.1-3.3,7.8-2.8c0.5,0.4,0.9,5.7,1.3,6.6 c3.1,6.7,11.5,8.5,18.2,7.4c4.3-0.7,8-2.6,11.4-5.3c1.8-1.4,3.5-2.9,5.1-4.6c1-1,2.2-3.6,3.3-4.5c0.1-0.1,0.3-0.2,0.4-0.3l-0.4-2 c-1.4,0.5-0.9,0.9-1.8,1.9c-4.1,4.3-7.3,8.7-13,11.3c-9.1,4.1-23.8,1.3-22.8-11c0-0.4-0.4-0.9-0.9-0.9c-6.6,0.5-16.1,4.3-19,10.9 c-1.2,2.8-1.5,6.5-2.1,9.5c-3.7,16.2-7.3,32.5-11,48.7c-9.9,43.7-19.8,87.5-29.7,131.2c-2.4,10.6-4.8,21.2-7.2,31.9 c-0.1,0.6,0.3,1.1,0.8,1.1c48.6,4.2,98.3,4.9,146.8,0c0.4,0,0.9-0.4,0.9-0.9C192.4,310,187.2,251.2,181.9,192.4z M50.7,368.1 C50.3,368,50.5,367.7,50.7,368.1L50.7,368.1z"/></g></g></svg>