<?xml version="1.0" encoding="UTF-8"?><svg xmlns="http://www.w3.org/2000/svg" xmlns:xlink="http://www.w3.org/1999/xlink" contentScriptType="text/ecmascript" fill="#000000" width="428.3" zoomAndPan="magnify" contentStyleType="text/css" viewBox="0.0 -2.9 428.3 461.2" height="461.2" data-name="Layer 1" preserveAspectRatio="xMidYMid meet" version="1"><g id="change1_1"><path fill="#f7bd92" d="M12.28,145.07,13,118.64c-7.72-12.57,1.67-29.09,1.67-29.09-.08-2.44,2.36-6.12,5.84-6.4a6.67,6.67,0,0,1,5.52,2.69h.09c.06-.83.63-6.36,4.44-6.61,4.11-.26,6,3.56,6,3.56s.13-5.25,5.45-5.32c2,0,4,3.25,5.37,7.44l.43,0c-.44-9.31-4-31.79,5.8-27.29s10,68.29,10,68.29Z"/></g><g id="change2_1"><path fill="#efbf6e" d="M425,300.34c-4.12,37-37.5,43-41.41,43.61l-.38,0L169.84,299.25l-6.6,3.44c-37.05,18.53-75.61,4.5-99.15-25C40.87,248.51,0,152,0,152c16-15.52,65.1-37.81,65.1-37.81,15.52,17.78,52.57,96.65,52.57,96.65,23.34-21.17,59.48-39.42,83.49-50.2,14.62-6.56,24.74-10.36,24.74-10.36l54.77-6.37c16.69,3.76,33.87,12.38,50.31,23.87C383.47,204.45,428.34,270.41,425,300.34Z"/></g><g id="change3_1"><path fill="#1d1d1b" d="M399.9,420.35c-90.61,37.94-251.54,5.87-251.54,5.87-1.79-34,12.4-90.87,17.19-123.1,10.81-73,32.18-133.13,35.61-142.51,7-3.13,13-5.64,17.28-7.41l4.76,5.1s-2.86,8.77-1.71,8.77,11.24-2.86,11.24-2.86l25.56,21.54,17.16-21.54s6.28,2.88,7.6,1.92S279.7,154,279.7,154l10.45-7.52c13.66,4.48,27.49,11.9,40.83,21.23,18.1,33.81,38.68,115,52.63,176.2C393.41,387.07,399.9,420.35,399.9,420.35Z"/></g><g id="change2_2"><path fill="#efbf6e" d="M183.16,158.67l9.08-5.09S230,183.74,225.3,196.09c0,0,3.64-16.35,58.86,7.63l-1.45,14.9-63.22-7.27Z"/></g><g id="change3_2"><path fill="#1d1d1b" d="M218.63,186.91a1,1,0,0,1-.87-.52c-8.1-14.77-26.91-28.37-27.1-28.51a1,1,0,1,1,1.17-1.62c.78.56,19.37,14,27.68,29.17a1,1,0,0,1-.88,1.48Zm-.84,4.87a1,1,0,0,0,.47-1.34c-3.76-7.85-19-21.87-19.6-22.46a1,1,0,1,0-1.36,1.47c.16.14,15.57,14.35,19.15,21.85a1,1,0,0,0,.91.57A1.11,1.11,0,0,0,217.79,191.78Zm60.89,12.94a1,1,0,0,0-.5-1.33c-30.48-13.7-46.57-9.08-47.24-8.88a1,1,0,0,0,.58,1.91c.16,0,16.14-4.56,45.84,8.8a1,1,0,0,0,.41.09A1,1,0,0,0,278.68,204.72Zm-4.21,3a1,1,0,0,0-.31-1.38c-11.45-7.27-31-8.58-31.86-8.63a1,1,0,0,0-.13,2c.2,0,19.9,1.33,30.92,8.33a1,1,0,0,0,1.38-.31Z"/></g><g id="change4_1"><path fill="#e49592" d="M289.2,214.49l-33.35,83.56-62.31-18.69c-14,.3-16-14.15-16-14.15l-40.31-38.89L179,151.68l38.29,43.25c7-1.43,15.13,5.27,15.13,5.27Z"/></g><g id="change3_3"><path fill="#1d1d1b" d="M269.47,237.42l-35.4-9.64,7.26-15.39L276.74,222Z"/></g><g id="change3_4"><path fill="#1d1d1b" d="M224.23,207.71a1,1,0,0,1-.41-.09l-8.41-3.71a1,1,0,0,1-.51-1.31,1,1,0,0,1,1.32-.52l8.41,3.71a1,1,0,0,1,.51,1.32A1,1,0,0,1,224.23,207.71Zm-45.65,50.92,34-59.3a1,1,0,1,0-1.73-1l-34,59.31a1,1,0,0,0,.37,1.36,1,1,0,0,0,.5.14A1,1,0,0,0,178.58,258.63Zm20.16,12,27.95-57a1,1,0,1,0-1.79-.88l-28,56.95a1,1,0,0,0,.46,1.34,1,1,0,0,0,.44.1A1,1,0,0,0,198.74,270.64Z"/></g><g id="change1_2"><path fill="#f7bd92" d="M291.74,250l-21,49.32s-47.84-14.75-46.52-23.76c1.26-8.68,18.62-3.84,19.9-3.46-1.49-.44-23.86-7.1-19.9-13.91s24.31,1.39,25.65,1.94c-1.43-.59-23.89-10-19.92-15.7,3-4.38,16.39-.35,23.05,2-5.73-2.34-15.59-7.14-12.4-11.51,4.42-6.06,26.05,4.91,26.05,4.91s-7.87-12.78-.16-14.41S291.74,250,291.74,250Z"/></g><g id="change2_3"><path fill="#efbf6e" d="M267.31,319s-.45-51,26.61-75.4l72.3,16.85L383.61,344S289.93,331,267.31,319Z"/></g><g id="change1_3"><path fill="#f7bd92" d="M280.55,90.58l.19,56.88s-24.09,18.18-54.84,2.8l1-15s-36.54-.94-41.8-44.79c-11.3-1.5-16.67-20.62-9.93-25.11,3.45-2.3,7-.54,9.75,1.95,1.35-15.51,8.63-53.54,47.62-53.13,46.54.49,47.9,38.28,47.92,55.21,2.91-3.36,7.41-6.94,11.78-4C299.35,70.1,293.06,91,280.55,90.58Z"/></g><g id="change5_1"><path fill="#1d1d1b" d="M293,73a1,1,0,0,1-1.3.55c-4.76-2-8.79,7.25-8.83,7.35a1,1,0,0,1-.92.6,1,1,0,0,1-.4-.08,1,1,0,0,1-.52-1.31c.2-.46,4.86-11.12,11.43-8.41A1,1,0,0,1,293,73Zm-13.51-1.61c1.32,10.19,1.93,36.5-22.39,54.91-.68.52-1.37,1-2.08,1.52,0,0-7.85,9.34-28.05,8.1h-.06l.05-.69h-.48a.3.3,0,0,1-.13,0c-.22,0-.49,0-.81-.07-.91-.09-2.2-.27-3.78-.59l-1.08-.24c-.64-.15-1.31-.31-2-.52-12.93-3.61-36.23-16.23-34-60,0,0,0-2.49.3-6.46-4.84,5.16-12.71,9.21-25.55,5.32,0,0,9.85-5.07,9.52-14.81s-3-21.46,3.63-25.59,6.6.33,15.35-5.11S197.15,3.66,211.51.69s19.15,4.62,23.94,4.62,8.42-8.25,26.58,1,19,28.07,17,32.53c0,0,8.75,14.69,6.6,26.58C285.64,65.41,283,68.14,279.46,71.43Zm-9.69,8.13c-.2-.53-3.38-9-1.46-13.16,0,0-9.46-3.16-5.23-17.18,0,0-17.89,1.33-24.33-7.59-7.21-10-8.87,8.4-22.47,8.4-13,0-21.57,2.26-23.93,5.32-.63,11.64-1.56,53.85,17,65.73a7,7,0,0,0,10.56-3.82l8.4-.41.36.81a7,7,0,0,0,8.52,3.86C247.09,118.38,265.85,108.65,269.77,79.56ZM211.29,62.82a2.64,2.64,0,0,1,1.88,1.25c.65,1.23-.15,2.74-1.1,3.75a12.17,12.17,0,0,1-9.14,3.79,3.5,3.5,0,0,1-2.55-.89,2.62,2.62,0,0,1-.36-2.61A5.49,5.49,0,0,1,201.69,66a13,13,0,0,1,4.31-2.6,14.77,14.77,0,0,1,2.47-.48h.1A8.56,8.56,0,0,1,211.29,62.82Zm19-.45a7.08,7.08,0,0,0-2.73-.61,4.58,4.58,0,0,0-2.12.3,3,3,0,0,0-1.33,3.39,6.38,6.38,0,0,0,2.22,3.16,15.72,15.72,0,0,0,5,2.92c1.42.5,3.21.72,4.24-.37a2.94,2.94,0,0,0,.57-2.76,6.65,6.65,0,0,0-1.5-2.51A12.81,12.81,0,0,0,230.27,62.37ZM219,93.74a1,1,0,0,0-.89-1.09,2,2,0,0,1-1.4-.86c-2.56-3.32-1.59-14.13-1-18a1,1,0,0,0-2-.3C213.48,75,211.55,88.41,215.1,93a3.94,3.94,0,0,0,2.78,1.62h.1A1,1,0,0,0,219,93.74Zm7.5,9c3.68-2.14,6.19-6.08,7.48-11.7a1,1,0,0,0-.76-1.2,1,1,0,0,0-1.19.75c-1.16,5-3.35,8.55-6.51,10.41a12.26,12.26,0,0,1-8.85,1.14h0a1,1,0,1,0-.57,1.92,13.74,13.74,0,0,0,3.6.45A13.47,13.47,0,0,0,226.47,102.71Zm-20.63-25.8a2.29,2.29,0,1,0,2.28,2.29A2.29,2.29,0,0,0,205.84,76.91Zm19.36-.16A2.29,2.29,0,1,0,227.48,79,2.28,2.28,0,0,0,225.2,76.75Z"/></g><g id="change4_2"><circle fill="#e49592" r="6.13" cx="249.38" cy="81.93"/></g><g id="change4_3"><path fill="#e49592" d="M395.23,398.09c-22.11,11.26-60.65,23.54-123.49,23.54-10.75,0-22.21-.36-34.43-1.14a637.6,637.6,0,0,1-88.69-12c0-.66.1-1.34.15-2a633.36,633.36,0,0,0,88.7,12.05c45.89,2.95,110.35,1.5,156.85-22.18a1,1,0,0,1,.68-.07l.36,1.75Zm-121.81,4.29c58.29,0,95.67-10.57,118.42-21.09-.14-.66-.29-1.33-.43-2-46.08,21.53-107.87,22.8-152.26,19.95a637.56,637.56,0,0,1-88.31-12l-.27,2a639.68,639.68,0,0,0,88.42,12C251.21,402,262.66,402.38,273.42,402.38Zm.83-18.42c54.68,0,90.95-9.3,114-19.13-.14-.66-.29-1.32-.43-2C342.28,382.48,283,383.58,240,380.82a643.3,643.3,0,0,1-86.4-11.56l-.33,2a642.55,642.55,0,0,0,86.57,11.58C252,383.6,263.5,384,274.25,384ZM156.83,351a652.81,652.81,0,0,0,83,10.84c12.21.79,23.67,1.15,34.42,1.15,51.42,0,86.55-8.22,109.74-17.38-.13-.57-.25-1.13-.38-1.7l-.06-.26c-44.94,17.92-101.9,18.88-143.56,16.2a650.57,650.57,0,0,1-82.79-10.82C157.08,349.72,157,350.38,156.83,351Z"/></g><g id="change5_2"><path fill="#1d1d1b" d="M18.18,107.13c-1.4-2.75-4-13.15-4.31-14.36a1,1,0,1,1,1.94-.48c.81,3.27,3.15,12.17,4.21,14a.86.86,0,0,1,.07.21c.29.56,1.68,2.74,5,1.34s2.18-13.15.34-21a1,1,0,0,1,.75-1.2,1,1,0,0,1,1.2.74A82.61,82.61,0,0,1,29,96.74c.13,1.49.19,2.85.19,4.09a1,1,0,0,1,.18.44c0,.07.37,2.93,2.18,4.29a4,4,0,0,0,3.18.63,3.47,3.47,0,0,0,2.49-1.71C40,100,37.26,88.34,36,84.23a1,1,0,1,1,1.91-.59c.15.46,2.58,8.43,2.5,15.16a.88.88,0,0,1,.16.32,4.36,4.36,0,0,0,4.62,3,3.34,3.34,0,0,0,2.6-2c-.73-4.89-1.14-11,.71-13.9A3.6,3.6,0,0,1,50.9,84.5c6.63-1.28,11.3,10.49,11.49,11a1,1,0,1,1-1.86.72c-1.16-3-5.11-10.55-9.26-9.76a1.69,1.69,0,0,0-1.1.83c-2.26,3.51-.14,15,.87,19.21a1,1,0,0,1-.23.9,1,1,0,0,1-.88.32c-.06,0-6.81-.86-11,2.68-2.13,1.79-3.27,4.45-3.4,7.9a1,1,0,0,1-1,1h0a1,1,0,0,1-1-1c.15-4,1.54-7.19,4.12-9.36,3.67-3.08,8.73-3.32,11.15-3.23-.16-.73-.36-1.7-.56-2.81a4.81,4.81,0,0,1-2.85,1.32,6.23,6.23,0,0,1-.74,0,6,6,0,0,1-4.55-2,9.58,9.58,0,0,1-1.19,3.34A5.45,5.45,0,0,1,35,108.17a7.85,7.85,0,0,1-1.26.11,5.59,5.59,0,0,1-3.46-1.13,6.47,6.47,0,0,1-1.57-1.75c-.51,2.28-1.48,3.72-2.92,4.34a7.22,7.22,0,0,1-2.82.62,5.29,5.29,0,0,1-4.8-3.1A.61.61,0,0,1,18.18,107.13Zm95.47,94.58a1,1,0,0,0-1.75,1L122,221a1,1,0,0,0,.88.52.94.94,0,0,0,.48-.13,1,1,0,0,0,.39-1.35ZM71.91,136.34c-8.49.52-20.61,5.29-36,14.17-11.43,6.58-20.53,13.1-20.62,13.17a1,1,0,0,0,.59,1.81,1,1,0,0,0,.58-.19c.36-.26,36-25.77,55.61-27a1,1,0,1,0-.12-2Zm-10.59-9.82a4,4,0,1,1-4,4A4,4,0,0,1,61.32,126.52Zm0,2a2,2,0,1,0,2,2A2,2,0,0,0,61.32,128.52Zm318.57,136.4a228,228,0,0,0-22.95-7.65,1,1,0,1,0-.48,1.94,229.71,229.71,0,0,1,22.69,7.57,1.27,1.27,0,0,0,.37.07,1,1,0,0,0,.37-1.93ZM285.1,310.5a4,4,0,1,1-4-4A4,4,0,0,1,285.1,310.5Zm-2,0a2,2,0,1,0-2,2A2,2,0,0,0,283.1,310.5ZM308,256.17c-12.46,10.68-20.38,58.69-20.71,60.73a1,1,0,0,0,.82,1.15h.16a1,1,0,0,0,1-.84c.08-.49,8.13-49.32,20-59.53a1,1,0,0,0-1.31-1.52ZM248.84,155.81a1,1,0,0,0-1.41-.12c-6.88,5.84-20.73,9.14-25.21,10.1.66-3.36,2.44-11.64,4.53-15a1,1,0,0,0-.32-1.38,1,1,0,0,0-1.37.32c-2.85,4.57-5,16.65-5.09,17.16a1,1,0,0,0,.28.88,1,1,0,0,0,.71.29l.18,0c.77-.14,18.93-3.49,27.58-10.82A1,1,0,0,0,248.84,155.81ZM282.92,168l.18,0a1,1,0,0,0,1-1.17c-.09-.51-2.24-12.59-5.08-17.16a1,1,0,0,0-1.7,1.06c2.09,3.36,3.88,11.64,4.54,15-4.49-1-18.33-4.26-25.21-10.1a1,1,0,0,0-1.3,1.53C264,164.55,282.15,167.9,282.92,168ZM253.5,272.87l-15.63-3.34a1,1,0,0,0-1.19.76,1,1,0,0,0,.77,1.19l15.63,3.35.21,0a1,1,0,0,0,.21-2Zm4.57-11.69-16.75-5.58a1,1,0,0,0-1.26.63,1,1,0,0,0,.63,1.27l16.74,5.58a1.25,1.25,0,0,0,.32.05,1,1,0,0,0,.95-.68A1,1,0,0,0,258.07,261.18Zm5.64-10.58-19-7.81a1,1,0,0,0-.77,1.85l19,7.81a1.08,1.08,0,0,0,.38.08,1,1,0,0,0,.38-1.93Z"/></g></svg>