<?xml version="1.0" encoding="UTF-8"?><svg xmlns="http://www.w3.org/2000/svg" xmlns:xlink="http://www.w3.org/1999/xlink" contentScriptType="text/ecmascript" fill="#000000" width="203.6" zoomAndPan="magnify" contentStyleType="text/css" viewBox="-0.1 0.2 203.6 210.6" height="210.6" preserveAspectRatio="xMidYMid meet" version="1"><g id="change1_1"><path fill="#efbf6e" d="M28.5,29l-0.8-0.5l0,0C28,28.6,28.2,28.8,28.5,29z M153.1,59.2l0.5-0.6l0,0L153.1,59.2z M16.9,61.8l-1.1-0.3 l0,0L16.9,61.8z M147.6,71.7h-0.2l0,0H147.6z M180.6,76.4l1.2-0.4l0,0L180.6,76.4z M15.4,103.1L15.4,103.1l0.8-0.2L15.4,103.1 L15.4,103.1z M6.2,105.3L6.2,105.3l0.6-0.2L6.2,105.3z M176.6,130.5L176.6,130.5l-0.8-0.2L176.6,130.5L176.6,130.5z M175.7,166.4 L175.7,166.4l-0.6-0.4L175.7,166.4z M42.8,174.5l0.6-0.6l0,0l0.1-0.1L42.8,174.5z M75.1,194.3L75.1,194.3l0.1-0.6L75.1,194.3z M110.9,210.8c-0.7-0.1-1.2-0.7-1.2-1.4c0,0-0.1-0.1-0.1-0.1c-0.5-1.2-0.9-2.4-1.3-3.7c-0.4-1.2-0.8-2.3-1.2-3.5s-0.8-2.5-1.2-3.8 s-0.7-2.4-1.1-3.6c-0.7-2.4-1.5-4.8-2-7.3c-0.3-1.3-0.6-2.5-0.8-3.8s-0.5-2.5-0.8-3.7c-0.3-1.7-0.5-3.4-0.8-5.1s-0.6-3.3-1-4.9 c-0.3-1.3-0.7-2.6-1-3.9s-0.6-2.6-0.9-3.9c-0.4-1.5-0.8-3-1.2-4.5c0-0.1-0.1-0.2-0.1-0.3c-0.2,0.5-0.4,0.9-0.6,1.4 c-0.5,1.2-1,2.3-1.5,3.5s-1,2.4-1.6,3.6c-0.8,1.7-1.7,3.4-2.5,5.1l-0.6,1.2l0,0c-0.6,1.2-1.1,2.3-1.7,3.5s-1.1,2.3-1.7,3.5 c-1.1,2.3-2.3,4.6-3.5,6.9c-0.6,1.1-1.2,2.2-1.9,3.4s-1.2,2.2-1.8,3.3s-1.3,2.4-1.9,3.6s-1.1,2.2-1.6,3.4c-0.1,0.3-0.3,0.5-0.4,0.8 c-0.2,0.6-0.7,1.1-1.3,1.3c-0.6,0.2-1.3,0-1.6-0.6c-0.2-0.3-0.3-0.7-0.2-1.1c0-1.2,0.1-2.4,0.3-3.5c0.3-2.5,0.6-4.9,0.8-7.4 c0.1-1.2,0.3-2.5,0.4-3.7l0.4-3.6c0.1-1.3,0.3-2.6,0.4-3.9s0.3-2.5,0.5-3.7c0.3-2.5,0.6-5,0.8-7.5s0.6-5.1,0.9-7.6 c0.3-2.3,0.6-4.6,0.9-6.8c0.2-1.2,0.3-2.3,0.5-3.5v-0.1l-0.7,0.6c-0.9,0.8-1.9,1.6-2.9,2.3c-0.9,0.7-1.9,1.3-2.9,2s-2,1.5-3,2.2 c-0.8,0.6-1.6,1.1-2.4,1.7c-1,0.7-2,1.5-2.9,2.2s-2,1.6-3,2.4c-1.9,1.6-3.9,3.2-5.8,4.9c-1.5,1.3-2.9,2.7-4.4,4.1 c-1.8,1.8-3.6,3.6-5.4,5.4s-3.8,3.5-5.8,5.1c-0.5,0.4-1,0.8-1.5,1.2l-0.8,0.6c-0.4,0.3-0.8,0.6-1.2,0.7c-0.2,0.1-0.4,0.1-0.6,0.1 c-0.2,0-0.4,0-0.5-0.1c-0.5-0.2-0.9-0.6-0.9-1.1c0-0.6,0.1-1.1,0.4-1.6c0.5-1.1,1.1-2.2,1.8-3.2c0.6-1.1,1.2-2.1,1.9-3.1 c1.3-2.1,2.7-4.2,4.1-6.3s2.8-4.2,4.3-6.2s2.8-4.1,4.2-6.1c0.7-1.1,1.5-2.1,2.2-3.1s1.4-2.2,2.1-3.3c1.1-1.6,2.1-3.3,3.1-5 s2-3.3,3-5c0.6-1,1.1-2,1.7-2.9s1.2-2,1.8-3c0.7-1.2,1.4-2.3,2.1-3.5c-0.4,0.1-0.9,0.1-1.3,0.2c-1.2,0.3-2.4,0.8-3.6,1.1 c-1.4,0.4-2.8,0.7-4.2,1h0.2l-0.4,0.1c-1.2,0.3-2.5,0.6-3.7,0.9s-2.5,0.5-3.8,0.8c-1.1,0.3-2.1,0.5-3.2,0.8l-3.2,0.7l-0.8,0.2 l-2.8,0.7l-3,0.7c-2.5,0.6-5,1.3-7.5,2s-4.8,1.6-7.2,2.4c-1.3,0.4-2.5,0.8-3.8,1.2c-0.7,0.2-1.3,0.4-2,0.5c-0.2,0-0.4,0-0.6,0.1 h-0.5c-0.3-0.1-0.6-0.2-0.9-0.4c-0.2-0.2-0.4-0.6-0.4-0.9c0-0.4,0.1-0.7,0.3-1c0.2-0.3,0.5-0.5,0.8-0.7l0.7-0.5 c0.5-0.4,0.9-0.7,1.4-1c1-0.7,2-1.5,3-2.1s2-1.3,3-2s2.1-1.4,3.1-2.1c2.1-1.4,4.3-2.7,6.4-4.1c1-0.6,2-1.4,3-2.1s2.1-1.4,3.2-2.1 c2.2-1.4,4.4-2.8,6.7-4.2c1.8-1.1,3.5-2.3,5.2-3.4c0.9-0.5,1.8-1.1,2.8-1.6c0.4-0.2,0.8-0.5,1.2-0.7c-0.8-0.1-1.6-0.2-2.4-0.4 l-4.3-0.8h0.2c-1.8-0.3-3.6-0.6-5.4-0.9s-3.4-0.7-5.1-1l-3-0.5l-0.7-0.1h-0.1c-0.2,0-0.5-0.1-0.7-0.1l0,0h-0.1l-0.7-0.1l-2.9-0.5 c-2.5-0.4-5-0.7-7.5-1s-5-0.5-7.5-0.8s-5.2-0.7-7.8-1c-1.3-0.2-2.6-0.4-3.8-0.7c-0.6-0.1-1.2-0.3-1.7-0.7c-0.2-0.2-0.4-0.5-0.4-0.9 c0-0.4,0.1-0.7,0.3-1c0.3-0.4,0.8-0.6,1.3-0.8l0.9-0.3c1.9-0.6,3.8-1.2,5.8-1.6s3.9-0.9,5.9-1.3h-0.2c2.5-0.6,5.1-1.1,7.6-1.7 s5-1,7.5-1.6l4.4-1l1-0.2l0.8-0.2h0.2c0.2,0,0.4-0.1,0.6-0.1h0.2h0.1h0.1c1.2-0.3,2.5-0.5,3.7-0.8s2.5-0.4,3.7-0.6s2.5-0.5,3.8-0.8 s2.5-0.5,3.8-0.7l0.3-0.1L51,92.5c-1-0.8-2-1.6-3.1-2.4S46,88.7,45,87.9s-2-1.7-3-2.4c-2-1.6-4-3.1-6-4.8s-4.1-3.4-6.2-5.2 c-0.9-0.8-1.7-1.5-2.6-2.2c-1.7-1.4-3.5-2.8-5.2-4.2c-0.9-0.7-1.8-1.4-2.7-2.1s-1.7-1.2-2.6-1.8c-1.1-0.7-2.1-1.3-3.2-2 c-1.2-0.7-2.4-1.4-3.5-2.3c-0.6-0.4-1-1-1.2-1.6c-0.2-0.7,0.1-1.5,0.7-1.8c0.8-0.3,1.6-0.3,2.3,0c1.2,0.3,2.4,0.7,3.6,1.1l2.3,0.8 l0,0c1.1,0.3,2.2,0.7,3.3,1s2.4,0.6,3.7,0.9c2.5,0.6,4.9,1.2,7.4,1.9c1.2,0.3,2.4,0.7,3.6,1.1c1.2,0.4,2.6,0.8,3.9,1.3 s2.4,0.9,3.6,1.4s2.4,1,3.7,1.4c1.5,0.6,3,1.1,4.5,1.6l1,0.3c-0.5-0.7-1-1.4-1.5-2.1c-0.7-1-1.3-2-2-3s-1.4-2.1-2.1-3.2l-2.1-3.3 c-0.7-1-1.3-2-2-3.1c-1.4-2.2-2.6-4.3-4-6.4s-2.9-4.2-4.3-6.3s-2.7-4.2-4.2-6.3s-3-4.2-4.4-6.3c-0.7-1-1.4-2.1-2.1-3.1 c-0.2-0.3-0.4-0.6-0.5-0.9c-0.3-0.4-0.5-0.9-0.6-1.4c-0.1-0.3-0.1-0.7,0-1c0.1-0.3,0.3-0.6,0.6-0.8c0.3-0.2,0.6-0.2,0.9-0.2 c0.3,0,0.6,0.1,0.8,0.3l1.3,1c0.5,0.3,1,0.6,1.4,1c1,0.7,2,1.4,3,2.1c2.1,1.5,4.1,3.2,6.2,4.8c2,1.6,4,3.1,5.9,4.7s3.9,3.4,5.8,5.2 c0.9,0.9,1.8,1.7,2.8,2.6s2,1.8,3,2.7l5.7,5c1.7,1.5,3.4,3,5,4.5c1.6,1.5,3.3,3.2,4.9,4.9l0,0l0.3,0.3c-0.3-1-0.7-2-1-3 c-0.4-1.2-0.7-2.4-1-3.6s-0.8-2.4-1.1-3.6c-0.7-2-1.2-4.1-1.7-6.2c-0.6-2.4-1.3-4.9-1.8-7.3s-1.1-5.2-1.8-7.7 c-0.3-1.2-0.6-2.3-0.8-3.5s-0.6-2.4-0.9-3.6s-0.6-2.5-0.9-3.7c-0.1-0.3-0.1-0.6-0.2-0.9c-0.2-0.6-0.1-1.3,0.2-1.8 c0.3-0.6,1-0.8,1.6-0.6c0.3,0.1,0.6,0.3,0.9,0.6c0.9,0.9,1.7,1.8,2.4,2.7c0.8,1,1.6,2,2.3,3c1.6,2,2.9,4.2,4.4,6.3s2.9,4.2,4.3,6.3 s2.9,4.3,4.2,6.6c1.2,2,2.4,4.1,3.5,6.2s2.3,4.2,3.4,6.3l-0.1-0.2c0.4,0.7,0.8,1.5,1.2,2.2c0.1-0.7,0.2-1.3,0.3-1.9 c0.2-1.2,0.3-2.4,0.5-3.6s0.4-2.6,0.7-3.9c0.5-2.5,1-4.9,1.5-7.3s0.9-5.2,1.4-7.8c0.3-1.3,0.5-2.6,0.8-3.9s0.4-2.6,0.6-3.9 c0.3-2.5,0.5-5,0.8-7.5c0.2-1.3,0.3-2.6,0.5-3.9s0.2-2.6,0.3-3.9c0-0.3,0-0.6,0.1-0.9c0-0.5,0.2-1.1,0.4-1.5c0.2-0.6,0.8-1,1.4-1.1 c0.6,0,1.2,0.3,1.5,0.9c0.3,0.5,0.6,1.1,0.8,1.7c0.2,0.6,0.4,1.1,0.6,1.7l1.2,3.6c0.4,1.2,0.9,2.4,1.3,3.6c0.8,2.3,1.6,4.7,2.4,7 c0.4,1.2,0.8,2.4,1.1,3.6s0.7,2.6,1,3.9c0.3,1.3,0.6,2.5,0.9,3.7s0.5,2.5,0.8,3.8c0.5,2.5,1,5,1.5,7.6c0.1,0.5,0.2,0.9,0.3,1.4 c0.4-0.8,0.9-1.6,1.3-2.4c1.2-2.2,2.4-4.5,3.6-6.6c1-1.8,2-3.5,3-5.3s2.2-3.7,3.4-5.6l0,0l0.3-0.5l0.1-0.2l0.1-0.1 c0.9-1.4,1.7-2.8,2.6-4.2s1.9-2.9,2.8-4.3c1.3-2.2,2.6-4.4,3.8-6.7s2.5-4.4,3.9-6.6c0.4-0.6,0.7-1.2,1.1-1.8s0.6-1,1-1.5 c0.3-0.4,0.5-0.7,0.8-1.1c0.4-0.6,1.2-0.8,1.9-0.6c0.6,0.2,1,0.8,1,1.4c0,0.3,0,0.7,0,1c-0.2,1.2-0.4,2.4-0.7,3.6 c-0.2,1.2-0.5,2.5-0.7,3.7s-0.6,2.5-0.8,3.8s-0.5,2.4-0.8,3.6c-0.5,2.5-1,4.9-1.4,7.3s-1,5.1-1.6,7.6s-1.1,5-1.8,7.4 c-0.3,1.2-0.6,2.5-1,3.7s-0.7,2.4-1,3.6c-0.7,2.5-1.2,5-1.9,7.5c-0.2,0.7-0.4,1.4-0.6,2.1h0.1c1-0.8,2.1-1.5,3.1-2.2 s2.1-1.6,3.2-2.3s2.1-1.4,3.2-2.1c2.2-1.4,4.3-2.8,6.6-4.1s4.6-2.6,6.9-4c2-1.2,4-2.5,5.9-3.9c1-0.7,2-1.5,3-2.2s2.1-1.6,3.2-2.4 s2-1.5,3-2.2l3-2.3c2-1.5,4-3,6-4.6l1.5-1.2c0.2-0.2,0.4-0.3,0.7-0.5s0.3-0.2,0.5-0.3c0.3-0.3,0.7-0.4,1.1-0.5c0.3-0.1,0.7,0,1,0.1 c0.5,0.3,0.8,0.9,0.7,1.5c-0.1,0.2-0.1,0.4-0.2,0.6c-0.2,0.5-0.4,1.1-0.7,1.6c-0.5,1.2-1.1,2.3-1.8,3.4s-1.2,2.2-1.7,3.3 c-0.6,1.1-1.3,2.2-2,3.2c-0.7,1-1.5,2-2.3,2.9s-1.5,2-2.3,3s-1.5,2-2.3,3s-1.6,2-2.4,3.1s-1.4,2-2.2,3c-1.2,1.7-2.5,3.3-3.8,4.9 c-0.6,0.8-1.3,1.6-1.9,2.3s-1.3,1.5-2,2.3l-0.5,0.6l0,0c-0.6,0.7-1.2,1.4-1.8,2.2s-1.1,1.5-1.6,2.2c-0.9,1.2-1.8,2.4-2.7,3.7 c2-0.2,4-0.3,6-0.4c1.3-0.1,2.6-0.1,3.9-0.1s2.5,0,3.8,0c2.6,0,5.2,0,7.8-0.1L174,68l4-0.1h1c1.3-0.1,2.5-0.2,3.8-0.3 s2.5-0.3,3.8-0.4c2.7-0.3,5.4-0.3,8-0.4c1.2,0,2.4,0,3.7,0h2c0.6,0,1.3,0.1,1.9,0.3c0.6,0.2,1.3,0.8,1.3,1.5c0,0.3-0.1,0.6-0.3,0.9 c-0.1,0.2-0.2,0.3-0.4,0.4c-0.2,0.2-0.5,0.3-0.8,0.5c-0.6,0.3-1.1,0.6-1.7,0.8c-1.1,0.6-2.2,1.1-3.3,1.6c-2.2,1-4.5,1.9-6.8,2.8 l-3.1,1.3c-1.1,0.4-2.3,0.8-3.4,1.2l0,0c-2.5,0.9-5,1.7-7.4,2.4l-7.3,2.4c-2.5,0.8-5,1.6-7.4,2.5l0,0c1.9,0.7,3.8,1.4,5.8,2 c2.5,0.8,5,1.5,7.4,2.4s4.7,2,7.1,3s4.7,1.9,7,3s4.5,2.1,6.8,3.3c0.5,0.3,1,0.6,1.6,0.8l0.9,0.5c0.2,0.1,0.5,0.2,0.7,0.4l0.2,0.1 h0.1c0.5,0.3,1.1,0.6,1.6,0.9c0.3,0.2,0.6,0.4,0.8,0.6c0.6,0.4,1,1,1.1,1.7c0.1,0.7-0.3,1.3-0.9,1.5c-0.3,0.1-0.6,0.2-0.9,0.2 c-0.6,0.1-1.1,0.2-1.6,0.4c-1.1,0.2-2.3,0.4-3.4,0.6s-2.5,0.4-3.7,0.6c-2.6,0.3-5.2,0.4-7.7,0.5c-0.6,0-1.3,0.1-1.9,0.1s-1.3,0-2,0 c-1.2,0-2.5-0.1-3.7-0.1H176c-1.2,0.1-2.5,0.2-3.7,0.3s-2.6,0.3-3.9,0.4s-2.6,0.2-3.9,0.2s-2.5-0.1-3.8,0s-2.6,0-3.9,0l0.9,0.6 c1,0.7,2,1.4,3,2.1s2,1.5,2.9,2.2l0.8,0.5c1,0.7,2,1.4,3.1,2.1s2.1,1.4,3.2,2.1c2.2,1.4,4.5,2.8,6.7,4.2s4.3,2.6,6.4,3.9 s4.4,2.8,6.6,4.1c1.1,0.7,2.3,1.5,3.4,2.3c0.5,0.4,1,0.8,1.5,1.3c0.3,0.3,0.6,0.6,0.8,0.9c0.4,0.6,0.4,1.3,0,1.9 c-0.4,0.4-0.9,0.6-1.4,0.5c-0.3,0-0.6,0-0.9-0.1c-0.6-0.1-1.2-0.1-1.8-0.2c-1.2-0.2-2.4-0.5-3.6-0.9c-1.6-0.4-3.1-0.9-4.7-1.3 c-1.6-0.4-3.1-0.9-4.6-1.2s-3.3-0.7-5-1.2s-3.3-0.9-5-1.3c-1.3-0.3-2.6-0.6-3.8-0.9s-2.5-0.7-3.7-1.1s-2.5-0.8-3.8-1.1 s-2.4-0.7-3.7-1.1c-1-0.3-2-0.5-3-0.7l0,0l-2.1-0.5c0,0.1,0.1,0.1,0.1,0.2l2.3,3.1c1.5,2.1,3.1,4.1,4.6,6.1l4.6,6.1 c1.6,2,3.1,4.1,4.6,6.2s3.1,4.1,4.5,6.1s3,4.1,4.5,6.1c0.6,0.8,1.2,1.7,1.8,2.5s1.3,1.7,1.9,2.6s1.2,1.6,1.9,2.4s1.3,1.6,1.9,2.3 c0,0.1,0.1,0.1,0.1,0.2c0.1,0.1,0.2,0.2,0.2,0.4c0.1,0.3,0.1,0.7,0,1c-0.2,0.5-0.7,0.8-1.2,0.8c-0.2,0-0.3,0-0.5-0.1 c-1.2-0.6-2.3-1.2-3.4-1.9s-2.3-1.3-3.4-2s-2.1-1.3-3.1-1.9s-2.2-1.4-3.4-2s-2.2-1.3-3.2-1.9s-2.1-1.2-3.2-1.8 c-2.2-1.2-4.4-2.5-6.6-3.9c-1.6-1-3.2-2.1-4.7-3.1c-2.1-1.4-4.3-2.7-6.5-3.9l-3.3-1.9c-1.1-0.6-2.2-1.3-3.4-1.9l-1.1-0.6 c-0.9-0.4-1.7-0.8-2.6-1.2l0.1,0.2c0.4,0.9,0.8,1.9,1.3,2.8c1.1,2.2,2.2,4.4,3.3,6.6s2.4,4.4,3.6,6.6s2.3,4.5,3.5,6.8 c0.6,1.1,1.1,2.3,1.7,3.4s1.1,2.3,1.7,3.4c1.2,2.3,2.4,4.7,3.6,7s2.5,4.6,3.9,6.8c0.7,1.1,1.4,2.2,2.1,3.4s1.3,2.2,2,3.3 s1.4,2.1,2,3.2c0.6,1.1,1.2,2.1,1.6,3.2c0.2,0.5,0.3,1,0.2,1.5c-0.1,0.3-0.3,0.6-0.5,0.7c-0.2,0.2-0.5,0.3-0.8,0.3 c-0.1,0-0.2,0-0.3,0c-0.3-0.1-0.6-0.2-0.8-0.5c-0.2-0.2-0.5-0.4-0.7-0.6c-0.9-0.9-1.7-1.8-2.5-2.7c-1.7-1.8-3.3-3.8-4.9-5.6 s-3.5-3.9-5.2-5.9c-0.9-0.9-1.7-1.9-2.6-2.8l-2.6-2.9c-2.1-2.4-4.2-4.7-6.2-7.1l0,0l0,0l0,0l0,0l-0.6-0.7l0,0 c-1.6-1.9-3.3-3.8-5-5.6s-3.4-4-5.2-6c-0.5-0.6-1-1.2-1.5-1.8l0,0c-0.6-0.7-1.2-1.4-1.9-2.1l0,0c-0.7-0.8-1.3-1.6-2-2.4 c-0.2,1.5-0.3,3-0.5,4.4c-0.2,1.3-0.3,2.5-0.4,3.8l-0.4,3.7c-0.1,1.4-0.3,2.7-0.5,4.1s-0.3,2.4-0.5,3.6c-0.4,2.6-0.7,5.1-1,7.7 c-0.3,2.2-0.7,4.4-1,6.6c-0.2,1-0.3,2.1-0.5,3.1s-0.3,2.1-0.5,3.2l0,0c0,0,0,0,0,0.1v0.2c0,0.1,0,0.3-0.1,0.4c0,0.2-0.1,0.4-0.1,0.6 c0,0,0,0.1,0,0.1c0,0.2-0.1,0.4-0.1,0.6v-0.2v0.2c0,0,0,0.1,0,0.1v0.1c0,0.2-0.1,0.4-0.1,0.6s-0.1,0.6-0.1,0.9l-0.3,1.8 c-0.3,2.3-0.7,4.6-0.9,6.8l-0.1,0.6c-0.1,0.7-0.8,1.2-1.5,1.1c0,0,0,0,0,0L110.9,210.8z"/></g></svg>