<?xml version="1.0" encoding="UTF-8"?><svg xmlns="http://www.w3.org/2000/svg" xmlns:xlink="http://www.w3.org/1999/xlink" contentScriptType="text/ecmascript" fill="#000000" width="256.8" zoomAndPan="magnify" contentStyleType="text/css" viewBox="-5.3 -2.6 256.8 454.8" height="454.8" preserveAspectRatio="xMidYMid meet" version="1"><g data-name="Layer 1"><g id="change1_4"><path fill="#f7bd92" d="M217.62,131.47a20.91,20.91,0,0,1,5.58,6S216.31,161.7,211.14,162c-2.53.14-6.16-1.06-9.2-2.32-10,4.13-21.22,5.24-31.93,5.31a127.45,127.45,0,0,1-18.22-.88c-1.56-.22-17.65-4.73-17.09-5.65l16.78-27.67c5.39,3.68,10,2.43,10,2.43s25.87-1.5,37.58-4.09c7.12-1.58,20.8-5.3,25.59-4,1.61.43,2.63,1.1,2.74,2C227.78,130.23,222,130.67,217.62,131.47Z"/></g><g id="change2_5"><path fill="#1d1d1b" d="M251.53,84.83S231.45,123.19,218.28,145s-20.67,33.65-20.67,33.65l-9.51-4.41-.48-4.34,9.48,5,32.09-63.54L250.6,81.53Z"/></g><g id="change3_3"><path fill="#e49592" d="M250.6,81.53s-17.2,32-28,51.46S197.1,174.8,197.1,174.8l-9.48-5s26.84-49,35-65.92S238,75,238,75Z"/></g><g id="change1_5"><path fill="#f7bd92" d="M213.52,132.77a4.59,4.59,0,0,1,.61-.35l-.6.41ZM243.06,82.5l-5.68-3.4a.73.73,0,0,0-1,.25.72.72,0,0,0,.25,1l5.68,3.4a.73.73,0,0,0,1-.25.71.71,0,0,0-.25-1Zm-6.28,5-3.13-1.74a.72.72,0,0,0-.7,1.26l3.13,1.74a.72.72,0,0,0,1-.82A.7.7,0,0,0,236.78,87.55Zm.92,6.65-6.81-3.28a.72.72,0,0,0-1,.34.71.71,0,0,0,.33,1l6.82,3.28a.71.71,0,0,0,1-.33.72.72,0,0,0-.34-1Zm-6.14,5.42-4-2.08a.73.73,0,0,0-1,.31.71.71,0,0,0,.31,1l4,2.08a.71.71,0,0,0,1-.31.68.68,0,0,0,0-.52A.7.7,0,0,0,231.56,99.62ZM230,106.41l-5.6-2.58a.74.74,0,0,0-1,.36.72.72,0,0,0,.35,1l5.61,2.57a.72.72,0,0,0,1-.35.76.76,0,0,0,0-.49A.75.75,0,0,0,230,106.41Zm-4.31,5.16-4.25-1.86a.73.73,0,0,0-.95.37.74.74,0,0,0,.37,1l4.25,1.85a.72.72,0,0,0,1-.37.67.67,0,0,0,0-.48A.72.72,0,0,0,225.72,111.57Zm-.7,7.28-6.35-3.54a.72.72,0,0,0-1,.28.71.71,0,0,0,.28,1l6.35,3.55a.72.72,0,0,0,1-.28.76.76,0,0,0,.07-.55A.72.72,0,0,0,225,118.85Zm-5.11,4.83-4.35-2.42a.72.72,0,1,0-.7,1.26l4.35,2.42a.71.71,0,0,0,1-.28.69.69,0,0,0,.07-.54A.72.72,0,0,0,219.91,123.68Zm-.86,7.27-6.79-3.5a.72.72,0,0,0-.66,1.29l6.79,3.49a.71.71,0,0,0,1-.31.67.67,0,0,0,0-.52A.7.7,0,0,0,219.05,131Zm-6.49,5.52-3.92-2.18a.72.72,0,0,0-1,.28.73.73,0,0,0,.28,1l3.92,2.18a.72.72,0,0,0,1-.28.74.74,0,0,0,.07-.54A.72.72,0,0,0,212.56,136.47Zm-1.37,6.84-5.83-3a.72.72,0,1,0-.65,1.29l5.82,3a.72.72,0,0,0,1-.31.68.68,0,0,0,.05-.52A.75.75,0,0,0,211.19,143.31Zm-6.46,4.56L202,146.5a.74.74,0,0,0-1,.32.71.71,0,0,0,.32,1l2.71,1.37a.71.71,0,0,0,1-.32.7.7,0,0,0,.06-.51A.78.78,0,0,0,204.73,147.87Zm-1.39,7.36-4.83-2.31a.72.72,0,0,0-.62,1.3l4.82,2.31a.73.73,0,0,0,1-.34.73.73,0,0,0-.34-1ZM198,161.3l-3.14-1.75a.72.72,0,0,0-.71,1.26l3.15,1.75a.72.72,0,0,0,1-.28.73.73,0,0,0,.06-.54A.67.67,0,0,0,198,161.3Zm-2,7.2-4.7-2.63a.71.71,0,0,0-1,.27.73.73,0,0,0,.28,1l4.69,2.63a.72.72,0,0,0,1-.28.69.69,0,0,0,.07-.54A.72.72,0,0,0,196,168.5Z"/></g><g id="change1_6"><path fill="#f7bd92" d="M211.12,159c-1.74-4-6.68-5.7-6.65-9.19,0-3.13,3.36-2.88,3.36-2.88s-2.66-3-.44-5.22c1.83-1.85,4.63-.61,4.63-.61a3.52,3.52,0,0,1,1.54-4.34c1.52-.85,4.35.74,6.81,3.14.2.19-2.25-8,2-9.57,2.48-.9,6.27,9.4,5.53,14.29-.51,3.35-3,3.36-2.94,3.63.4,4.26-3.85,4.65-3.85,4.65.39,4.25-4.4,5.45-4.4,5.45-1.5,5.31-7,3.44-7,3.44Z"/></g><g id="change2_6"><path fill="#1d1d1b" d="M225.31,148.13l-.15,0a.51.51,0,0,1-.49-.36,23.06,23.06,0,0,0-4.41-7.42.49.49,0,0,1-.25-.12c-2.5-2.44-5-3.7-6.2-3.06a3,3,0,0,0-1.32,3.68l.38.29c2.57,1.94,7.34,5.55,9,11.21a.51.51,0,0,1-.34.64l-.15,0a.5.5,0,0,1-.49-.37c-1.61-5.33-6-8.68-8.69-10.68l-.67-.51a3.75,3.75,0,0,0-3.83.58c-1.47,1.49-.38,3.38.18,4.16,0,0,.06,0,.08,0,3.89,2.33,8.68,6.25,9.43,11.66a.52.52,0,0,1-.44.58h-.07a.52.52,0,0,1-.51-.44c-.66-4.81-4.89-8.41-8.5-10.65,0,0-.08,0-.13,0a3.3,3.3,0,0,0-2.16.67,2.22,2.22,0,0,0-.64,1.7c0,1.69,1.35,3,2.93,4.44a14.32,14.32,0,0,1,3.67,4.55.51.51,0,0,1-.27.67.46.46,0,0,1-.2.05.51.51,0,0,1-.47-.31,13.34,13.34,0,0,0-3.44-4.21c-1.68-1.57-3.27-3-3.25-5.2a3.23,3.23,0,0,1,1-2.45,3.76,3.76,0,0,1,1.92-.87c-.85-1.35-1.49-3.47.16-5.13a4.43,4.43,0,0,1,4.29-1,3.86,3.86,0,0,1,2-4c1.63-.91,4.16.41,6.31,2.21a15.66,15.66,0,0,1-.16-4.86.52.52,0,0,1,.59-.42.52.52,0,0,1,.43.59,16.65,16.65,0,0,0,.33,5.5c0,.05,0,.09,0,.13a24.62,24.62,0,0,1,4.82,8.05A.51.51,0,0,1,225.31,148.13Z"/></g><g id="change2_7"><path fill="#1d1d1b" d="M138.6,389.16s-2.79,35.16-2.23,36.28c32.93,1.68,37.12,26.79,37.12,26.79l-72.28-.84,3.91-61.67ZM29.77,388.05l-3.91,61.67,72.28.84S94,425.44,61,423.77c-.56-1.12,2.24-36.28,2.24-36.28Z"/></g><g id="change4_3"><path fill="#1d1d1b" d="M68.41,71.22s-2.13-1.07-9.9-15.51C54.87,49,54.33,40,55.55,33.23c2-11,3.83-20,18.13-23.47,0,0,6.51-8,17-9.42,22.48-2.93,41.35,13.2,28.44,46.62C98.47,100.43,68.41,71.22,68.41,71.22Z"/></g></g><g data-name="Layer 3"><g id="change4_1"><path fill="#1d1d1b" d="M11.16,409.3C12.5,381.46,43.1,201.38,43.1,201.38l96.41,1.4,14.91,208.38Z"/></g><g id="change3_1"><path fill="#e49592" d="M141.38,159.46l-.06,1.35h0l-1.81,42C120,207,43.1,201.38,43.1,201.38l.4-49.88c-16.26,2.54-43.5-9-43.5-9C25.3,72.37,70.81,82.56,70.81,82.56l30.47,1.76c1,.15,2.07.33,3.09.53.64.12,1.27.26,1.91.4l.38.08c37,8.25,56.5,42.48,56.5,42.48C156.64,143.65,141.38,159.46,141.38,159.46Z"/></g><g id="change2_1"><path fill="#1d1d1b" d="M99,97.21c-2.94,0-9.84-4.68-11.49-5.83-1.78,1-10.94,6-14.54,5.25-4.09-.87-2.82-12.77-2.67-14.13a.53.53,0,0,1,.55-.46l30.47,1.76a.54.54,0,0,1,.49.49c.17,2.87.51,12.3-2.39,12.88A2.72,2.72,0,0,1,99,97.21Zm-11.46-7a.49.49,0,0,1,.3.1c3.45,2.43,9.59,6.17,11.38,5.8,1.34-.27,1.85-6,1.58-11.34l-29.52-1.7c-.49,4.77-.4,12,1.91,12.51,2.93.62,11.16-3.62,14.09-5.3A.48.48,0,0,1,87.53,90.25Z"/></g><g id="change1_1"><path fill="#f7bd92" d="M70.81,82.56S72,55.9,71.69,46.82,71.69,14,96,13.72,119.74,36,119.15,49.46s-5.56,26.66-17.87,27.24v7.62S87.51,99.55,70.81,82.56Z"/></g><g id="change3_2"><path fill="#e49592" d="M85.06,47.51A3.47,3.47,0,1,1,81.59,51,3.47,3.47,0,0,1,85.06,47.51Z"/></g><g id="change2_2"><path fill="#1d1d1b" d="M88.56,409.64h0a.53.53,0,0,1-.52-.53l.5-180.76a.52.52,0,0,1,.46-.52l20.89-2.18a.53.53,0,0,1,.57.47.52.52,0,0,1-.46.57l-20.42,2.12-.5,180.31A.53.53,0,0,1,88.56,409.64Z"/></g><g id="change1_2"><path fill="#f7bd92" d="M116.72,193c-.06,2.2-2.66,5.36-6.17,6.77a8.16,8.16,0,0,1-5.93.43,23.87,23.87,0,0,1-3.87-1.4,17,17,0,0,1-7.34.5c-22.4,3.59-72,12.74-83.89-5.14C-5.27,174,5.21,144.74,5.21,144.74s25.93,7.56,41.19,6.63l-1.7,23.44,44.65-1.14v.07a28.26,28.26,0,0,1,5.35-2.12c5.61-1.61,11.27-3.1,16.83-4.85,1.33-.42,2.62-.93,3.92-1.46l2.32-1s9.79-4.4,10.89-2.21c1.54,3.09.09,5-2.29,6.2l-15.83,4.52-.41.12.41-.12c1.07-.26,3.92-.7,4.54,2v0a3.88,3.88,0,0,1-2.53,4.39c-2.69,1-4.43,1.76-4.43,1.76s6.9-1.95,7.52,3.54a7.35,7.35,0,0,1-1.1,4.39,4.23,4.23,0,0,1,.45.5A3.71,3.71,0,0,1,116.72,193Z"/></g><g id="change2_3"><path fill="#1d1d1b" d="M88.09,106.85a3.59,3.59,0,1,1,3.59-3.59A3.6,3.6,0,0,1,88.09,106.85Zm0-6.14a2.55,2.55,0,1,0,2.55,2.55A2.55,2.55,0,0,0,88.09,100.71Zm0,26.15a3.59,3.59,0,1,1,3.59-3.59A3.59,3.59,0,0,1,88.09,126.86Zm0-6.14a2.55,2.55,0,1,0,2.55,2.55A2.55,2.55,0,0,0,88.09,120.72Zm0,26.15a3.59,3.59,0,1,1,3.59-3.59A3.59,3.59,0,0,1,88.09,146.87Zm0-6.14a2.55,2.55,0,1,0,2.55,2.55A2.55,2.55,0,0,0,88.09,140.73Zm19.81,34.35,18-6.44a.52.52,0,0,0,.32-.66.54.54,0,0,0-.67-.32l-18,6.44a.52.52,0,0,0,.35,1Zm-2.47,14.64c1.89-.52,6.32-1.74,8.7-.11a.52.52,0,0,0,.72-.13.54.54,0,0,0-.13-.73c-2.78-1.91-7.53-.59-9.57,0-.3.08-.64.18-.73.19a.51.51,0,0,0-.51.52.53.53,0,0,0,.52.52A4.64,4.64,0,0,0,105.43,189.72Zm-.77-7.35c1.89-.52,6.32-1.74,8.69-.11a.54.54,0,0,0,.73-.13.53.53,0,0,0-.14-.73c-2.77-1.91-7.53-.59-9.56,0-.3.08-.64.18-.74.19a.52.52,0,0,0,0,1A4.64,4.64,0,0,0,104.66,182.37ZM105,196a.52.52,0,0,0-.79-.67,9.9,9.9,0,0,1-10.09,3.42.52.52,0,1,0-.3,1,9.65,9.65,0,0,0,2.57.31A11.06,11.06,0,0,0,105,196Z"/></g></g><g data-name="Layer 5"><g id="change4_2"><path fill="#1d1d1b" d="M66,27.33,70,14,95.84,8.12l20,9.8,2.55,10.88c-5.49,4.51-21.57-5.59-21.57-5.59-3.53,8-25.09,16.67-25.09,16.67Z"/></g><g id="change1_3"><path fill="#f7bd92" d="M63.1,44a5.56,5.56,0,0,1,2.2-5.06c1.5-1.07,3.72-1.56,6.61.81A13.67,13.67,0,0,1,77,51l-.65,3.56S64.26,55.73,63.1,44Z"/></g><g id="change2_4"><path fill="#1d1d1b" d="M101.35,76.88a.6.6,0,0,1-.06.3l0,5.49A48.11,48.11,0,0,1,93.7,77a24.85,24.85,0,0,1-4.12-1.29.52.52,0,0,1,.42-1,23.39,23.39,0,0,0,10.77,1.66A.52.52,0,0,1,101.35,76.88ZM113,43.15a3.08,3.08,0,0,0-1-1.23,7.44,7.44,0,0,0-2.44-1.47,7.52,7.52,0,0,0-1.4-.27h0a4.74,4.74,0,0,0-1.55,0,1.48,1.48,0,0,0-1.06.71A2,2,0,0,0,106.2,43a6.89,6.89,0,0,0,5.18,2.15,2,2,0,0,0,1.44-.51A1.46,1.46,0,0,0,113,43.15ZM95.27,45.09a9,9,0,0,0,2.86-1.66,3.64,3.64,0,0,0,1.26-1.79,1.71,1.71,0,0,0-.75-1.92,2.61,2.61,0,0,0-1.21-.17,4.13,4.13,0,0,0-1.54.34,7.25,7.25,0,0,0-2.49,2,3.69,3.69,0,0,0-.85,1.42,1.65,1.65,0,0,0,.32,1.56A2.28,2.28,0,0,0,95.27,45.09Zm9.36.67a.51.51,0,0,0-.43.59c.33,2.2.89,8.35-.58,10.24a1.17,1.17,0,0,1-.82.51.52.52,0,0,0,0,1h.06a2.23,2.23,0,0,0,1.54-.9c2-2.63.83-10.7.77-11A.51.51,0,0,0,104.63,45.76Zm-1,16.7a7,7,0,0,1-5.05-.65c-1.8-1.06-3-3.05-3.71-5.93a.52.52,0,0,0-1,.23c.72,3.18,2.14,5.4,4.21,6.6a8,8,0,0,0,5.86.75.52.52,0,0,0,.35-.65A.53.53,0,0,0,103.62,62.46Zm6.11-14.32a1.3,1.3,0,1,0,1.3,1.29A1.29,1.29,0,0,0,109.73,48.14Zm-12.27,1.2a1.3,1.3,0,1,0,1.3-1.3A1.3,1.3,0,0,0,97.46,49.34Zm-31.1-8a.52.52,0,0,0,.11,1c.16,0,4.1-.36,4.7,4.51a.53.53,0,0,0,.52.45h.06a.53.53,0,0,0,.46-.58C71.47,40.86,66.42,41.34,66.36,41.34Z"/></g></g></svg>