<?xml version="1.0" encoding="UTF-8"?><svg xmlns="http://www.w3.org/2000/svg" xmlns:xlink="http://www.w3.org/1999/xlink" contentScriptType="text/ecmascript" fill="#000000" width="502.3" zoomAndPan="magnify" contentStyleType="text/css" viewBox="-0.7 -0.1 502.3 410.9" height="410.9" preserveAspectRatio="xMidYMid meet" version="1"><g id="change1_1"><path fill="#eb8b8f" d="M478.95,379.78c-4.72,0.61-9.44,1.1-14.16,1.69c-4.72,0.59-9.36,1.78-14.08,2.35 c-4.72,0.57-9.43,1.22-14.16,1.77c-4.72,0.55-9.53,0.38-14.25,0.92c-4.73,0.54-9.43,1.21-14.16,1.73 c-4.73,0.52-9.46,1.02-14.18,1.52c-4.73,0.5-9.39,1.71-14.11,2.19c-4.73,0.48-9.5,0.57-14.23,1.03c-4.73,0.46-9.45,1.05-14.19,1.5 c-4.74,0.44-9.46,1.05-14.19,1.48c-4.74,0.43-9.51,0.45-14.25,0.86c-4.74,0.41-9.49,0.67-14.23,1.06 c-4.74,0.39-9.48,0.71-14.22,1.08c-4.74,0.37-9.44,1.3-14.18,1.65c-4.74,0.35-9.52,0.26-14.26,0.6c-4.74,0.33-9.51,0.36-14.25,0.68 c-4.75,0.32-9.45,1.18-14.2,1.48c-4.75,0.3-9.48,0.76-14.23,1.04c-4.75,0.28-9.54-0.17-14.28,0.09c-4.75,0.26-9.45,1.43-14.2,1.68 c-4.75,0.24-9.53-0.1-14.28,0.12c-4.75,0.22-9.51,0.17-14.26,0.38c-4.75,0.21-9.5,0.51-14.25,0.7c-4.75,0.19-9.49,0.71-14.24,0.88 c-4.75,0.17-9.52-0.17-14.27-0.02c-4.75,0.15-9.49,0.74-14.25,0.87c-4.75,0.13-9.5,0.5-14.25,0.61c-4.75,0.11-9.52-0.42-14.28-0.32 c-4.75,0.09-9.5,0.71-14.25,0.78c-4.75,0.08-9.51-0.17-14.27-0.12c-4.75,0.06-9.5,0.7-14.26,0.74c-4.75,0.04-9.52-0.84-14.27-0.82 c-5.08,0.02-9.74-0.65-13.51-2.82c-4.23-2.43-7.14-6.2-8.75-10.55c-1.51-4.06-2.26-8.82-0.62-13.81c1.48-4.61,3.92-8.92,5.75-13.5 c1.8-4.48,3.66-8.97,5.8-13.43c2.09-4.35,4.21-8.73,6.63-13.05c2.35-4.2,4.96-8.32,7.62-12.5c2.59-4.06,4.82-8.45,7.7-12.48 c2.8-3.92,6.01-7.62,9.08-11.51c2.98-3.78,6.15-7.49,9.39-11.24c3.14-3.64,6.55-7.14,9.94-10.76c3.29-3.51,6.57-7.13,10.09-10.62 c3.42-3.39,6.69-7.04,10.32-10.42c3.21-2.92,6.86-5.51,10.41-8.11c3.63-2.66,7.14-5.47,10.77-7.65c4.09-2.45,8.35-3.99,11.95-5.61 c5.25-2.36,9.62-3.8,12.48-3.79c5.1,0.02,10.2,0.05,15.3,0.12c5.1,0.06,10.2,0.18,15.3,0.28c1.72,0.03,3.13-1.71,2.74-3.39 c0,0-0.11,0.02-0.11,0.02c-0.24-1.06-1.08-2.05-2.15-2.22c-3.63-0.55-7.22-1.28-10.85-1.87c-3.62-0.58-7.25-1.08-10.87-1.7 c-4.05-0.74-8.24-2.83-12.45-5.61c-3.75-2.48-7.33-5.48-10.43-8.94c-3.21-3.59-6.33-7.22-8.05-11.22c-1.84-4.45-3.33-9-5.03-13.43 c-1.72-4.49-3.61-8.89-5.19-13.37c-1.6-4.53-3.16-9.06-4.62-13.58c-1.48-4.57-2.72-9.2-4.05-13.76c-1.35-4.61-2.89-9.15-4.09-13.75 c-1.22-4.65-1.67-9.45-2.73-14.09c-1.08-4.68-2.74-9.21-3.66-13.88c-0.93-4.71-1.77-9.42-2.54-14.12 c-0.78-4.73-1.09-9.52-1.72-14.24c-0.63-4.75-1.17-9.5-1.63-14.24c-0.47-4.77-1-9.52-1.3-14.27c-0.3-4.43,1.54-8.67,4.48-12.68 c2.56-3.49,5.6-7.23,9.83-9.68c3.86-2.24,8.46-3.74,13.14-4.57c4.6-0.79,9.25-1.26,13.85-2.01c4.61-0.75,9.26-1.17,13.86-1.88 c4.61-0.71,9.21-1.46,13.82-2.13c4.62-0.67,9.17-1.74,13.79-2.37c4.62-0.63,9.3-0.8,13.93-1.39c4.63-0.6,9.22-1.44,13.85-2 c4.63-0.56,9.2-1.63,13.83-2.15c4.64-0.52,9.33-0.53,13.96-1.01c4.64-0.48,9.26-1.12,13.9-1.56c4.64-0.44,9.29-0.89,13.93-1.28 c4.65-0.4,9.34-0.21,13.99-0.57c4.65-0.36,9.26-1.28,13.91-1.6c4.65-0.32,9.31-0.64,13.96-0.92c4.66-0.28,9.34-0.11,13.99-0.34 c4.66-0.24,9.28-1.17,13.94-1.37c4.66-0.2,9.34,0.1,14-0.06c4.66-0.16,9.31-0.64,13.97-0.76c4.66-0.12,9.33,0.25,14,0.17 c4.66-0.08,9.32-0.69,13.98-0.73c4.66-0.04,9.33,0.76,13.99,0.76s9.33-0.34,13.99-0.3c4.66,0.04,9.33-0.36,14-0.28 c5.12,0.09,9.98,1.98,14.2,4.42c4.34,2.52,8.08,6.04,10.63,10.27c2.54,4.21,3.5,9.12,3.42,14.24c-0.07,4.64,0.28,9.29,0.09,13.92 c-0.19,4.64-0.47,9.27-0.77,13.9c-0.31,4.63-1.17,9.21-1.6,13.83c-0.43,4.62-0.73,9.24-1.28,13.85c-0.54,4.6-0.62,9.27-1.28,13.87 c-0.66,4.59-1.42,9.17-2.2,13.75c-0.77,4.57-2.01,9.06-2.9,13.62c-0.89,4.55-1.97,9.05-2.97,13.59c-1,4.52-1.72,9.11-2.84,13.63 c-1.11,4.49-2.04,9.05-3.26,13.54c-1.22,4.47-2.27,9-3.6,13.46c-1.32,4.43-3.36,8.66-4.79,13.09c-1.43,4.4-3.14,8.71-4.67,13.11 c-1.53,4.37-2.42,8.98-4.05,13.34c-1.76,4.54-4.58,8.77-7.65,12.58c-3.2,3.97-7.11,7.12-10.96,9.68c-4.58,3.05-9.19,5.13-13.49,5.21 c-5.15,0.09-10.31,0.34-15.46,0.36c-5.15,0.02-10.31-0.49-15.46-0.54c-0.5,0-0.54,0.76-0.71,1.23c0,0-0.8-0.3-0.8-0.3 c-0.28,0.73,0.62,1.52,1.39,1.6c4.49,0.49,8.94,1.34,13.43,1.86c4.49,0.52,8.95,1.21,13.44,1.75c4.48,0.55,9.05,0.45,13.53,1.03 c3.43,0.49,8.59,3.02,14.66,5.88c4.41,2.07,9.37,4.29,14.1,7.12c4.58,2.74,9.22,5.57,13.26,8.62c3.93,3.06,7.54,6.38,11.25,9.41 c3.86,3.15,7.7,6.18,11.32,9.3c3.78,3.26,7.42,6.52,10.95,9.74c3.69,3.38,7.38,6.59,10.79,9.93c3.58,3.51,6.63,7.35,9.9,10.81 c3.44,3.65,6.71,7.26,9.8,10.87c3.27,3.82,6.46,7.5,9.34,11.27c3.06,4,5.73,8.08,8.35,12.02c3.83,5.58,2.77,11.25-2.4,15.34 C491.58,377.32,485.71,378.86,478.95,379.78z"/></g><g id="change2_1"><path fill="#fdfdfb" d="M150.68,212.64c-4.06-0.77-8.83-5.29-10.73-9.59c-1.96-4.51-3.51-9.14-5.32-13.64 c-1.83-4.56-3.97-8.96-5.64-13.51c-1.7-4.62-3.24-9.24-4.77-13.85c-1.55-4.66-3.48-9.18-4.86-13.83c-1.4-4.71-2.31-9.53-3.54-14.22 c-1.24-4.75-2.75-9.41-3.82-14.15c-1.08-4.79-1.28-9.73-2.18-14.5c-0.9-4.82-2.09-9.56-2.8-14.37c-0.73-4.85-1.5-9.67-2.03-14.5 c-0.54-4.87-1.25-9.71-1.6-14.56c-0.35-4.88-0.58-9.77-0.74-14.64c-0.14-4.15,4.56-8.65,10.08-9.68c4.57-0.84,9.21-1.26,13.78-2.06 c4.58-0.8,9.14-1.65,13.72-2.4c4.59-0.75,9.22-1.16,13.81-1.87c4.59-0.71,9.09-2.01,13.68-2.67c4.6-0.66,9.17-1.55,13.77-2.17 c4.61-0.62,9.26-0.84,13.87-1.41c4.61-0.57,9.23-1.02,13.84-1.55c4.62-0.53,9.2-1.36,13.81-1.84c4.62-0.48,9.23-1.12,13.85-1.56 c4.63-0.43,9.31-0.25,13.93-0.64c4.63-0.39,9.28-0.43,13.91-0.77c4.63-0.34,9.2-1.56,13.84-1.85c4.64-0.29,9.3-0.11,13.94-0.36 c4.64-0.25,9.28-0.42,13.92-0.62c4.64-0.2,9.26-0.88,13.9-1.04c4.64-0.15,9.3,0.26,13.94,0.15c4.64-0.11,9.29,0.13,13.93,0.07 c4.64-0.06,9.28-0.14,13.93-0.15c4.64-0.01,9.29-0.61,13.93-0.58c4.64,0.04,9.29,0.11,13.93,0.2c4.64,0.08,9.29,0.17,13.93,0.3 c5.52,0.16,10.67,4.96,10.74,10.32c0.07,4.75-0.19,9.5-0.26,14.23c-0.07,4.74-0.29,9.49-0.5,14.22c-0.21,4.74-0.21,9.5-0.56,14.22 c-0.35,4.73-0.89,9.45-1.37,14.17c-0.49,4.71-1.31,9.39-1.93,14.1c-0.62,4.69-1.8,9.31-2.56,13.99c-0.76,4.67-1.52,9.34-2.42,14 c-0.89,4.65-1.38,9.38-2.41,14.02c-1.03,4.62-2.33,9.18-3.5,13.79c-1.16,4.58-2.59,9.1-3.88,13.68c-1.28,4.55-1.87,9.32-3.29,13.86 c-1.41,4.51-3.62,8.78-5.16,13.28c-1.53,4.47-3.18,8.9-4.84,13.37c-1.64,4.43-3.01,8.98-4.78,13.4c-2.11,5.22-7.23,9.28-11.29,9.4 c-4.8,0.14-9.6,0.34-14.41,0.41c-4.8,0.07-9.61,0.05-14.41,0.05c-4.8,0-9.61,0.44-14.42,0.37c-4.8-0.07-9.6-0.44-14.41-0.58 c-4.8-0.14-9.59-0.51-14.4-0.72c-4.8-0.21-9.62-0.04-14.42-0.31c-4.79-0.27-9.56-1.07-14.35-1.42c-4.79-0.34-9.62-0.24-14.41-0.65 c-4.78-0.41-9.6-0.52-14.39-1c-4.78-0.48-9.54-1.15-14.32-1.69c-4.77-0.54-9.48-1.62-14.25-2.23c-4.76-0.61-9.49-1.45-14.25-2.13 c-4.75-0.68-9.54-1.14-14.29-1.88c-4.74-0.74-9.42-1.86-14.17-2.67C160.28,213.58,155.41,213.52,150.68,212.64z"/></g><g id="change3_1"><path fill="#99b0dc" d="M299,364.79c-42.26,9.47-88.43,13.12-131.81,8.16c-3.94-0.52-7.96-4.41-8.53-8.62 c-1-7.87-1.15-15.77-2.06-23.85c-0.49-4.39,2.34-7.96,6.69-7.88c47.24,0.74,95.09,1.56,143.55,1.46c4.47,0,6.95,2.53,5.91,5.66 c-1.91,5.78-3.06,11.57-4.8,17.53C306.98,360.41,302.84,363.85,299,364.79z M432.61,306.89c-9.82-10.58-20.81-21.3-32.97-32.15 c-6.54-5.74-16.19-10.87-21.09-11.37c-80.65-7.85-161.69-12.19-243.13-13.02c-4.93-0.05-14.82,5.89-21.45,13.32 c-12.32,13.98-23.12,28.13-32.38,42.44c-4.99,7.61-2.68,13.82,4.53,13.81c115.75-0.17,230.06-1.08,342.94-2.71 C436.1,317.09,437.9,312.49,432.61,306.89z"/></g><g id="change4_1"><path fill="#ffe8e5" d="M117.02,266.95c-0.01,0-0.01,0-0.02,0c-1.34,0-2.44,1.09-2.45,2.43c-0.01,0.97,0.56,1.81,1.38,2.21 c-0.97,1.84-2.02,4.25-3.11,6.76c-0.96,2.21-1.95,4.48-2.77,6.05c-1.29-0.06-2.15-0.16-3.02-0.27c-1.37-0.17-2.79-0.34-5.75-0.35 c0,0-0.01,0-0.01,0c-1.35,0-2.45,1.09-2.45,2.44c0,1.35,1.09,2.45,2.44,2.46c2.67,0.01,3.88,0.16,5.17,0.32 c1.37,0.17,2.79,0.34,5.75,0.35c3.16,0.01,4.55,0.02,6.15,0.03l0.05,0c-1.28,3.04-2.32,6.06-3.08,9.02 c-0.34,1.31,0.45,2.64,1.76,2.98c0.2,0.05,0.41,0.08,0.61,0.08c1.09,0,2.09-0.74,2.37-1.84c0.86-3.33,2.11-6.76,3.69-10.21 c2.57,0.02,3.86,0.07,5.2,0.14c1.38,0.06,2.81,0.13,5.66,0.14c5.63,0.03,5.65,0,11.27,0.04c2.85,0.02,4.25,0.04,5.68,0.06 c0.59,0.01,1.19,0.02,1.89,0.03c-0.75,3.26-1.72,6.49-2.91,9.63c-0.35,0.92-0.11,1.91,0.53,2.57c-1.07-0.15-2.39-0.26-4.32-0.27 c-2.97,0-4.46,0.01-5.95,0.03c-1.35,0.01-2.7,0.03-5.17,0.03c-0.25,0-0.51,0-0.78,0c-3.02,0-4.63,0.16-6.18,0.31 c-1.52,0.15-2.95,0.26-5.8,0.29c-3.05-0.01-4.59,0.08-6.11,0.16c-1.51,0.08-2.94,0.15-5.79,0.15c-2.91,0.03-4.32-0.09-5.78-0.18 c-1.45-0.09-2.96-0.19-6-0.19c-2.97,0-4.49,0.02-6,0.05c-1.46,0.02-2.92,0.05-5.75,0.05c-0.06,0-0.12,0.01-0.17,0 c-1.35,0-2.45,1.1-2.45,2.45c0,1.35,1.1,2.45,2.45,2.45c3,0,4.5-0.02,6-0.05c1.3-0.02,2.59-0.05,4.89-0.05 c-2.63,3.61-4.3,7.24-4.92,10.81c-0.23,1.33,0.65,2.6,1.99,2.84c0.14,0.03,0.29,0.04,0.43,0.04c1.17,0,2.2-0.84,2.41-2.02 c0.54-3.05,2.08-6.25,4.59-9.49c0.48-0.62,0.6-1.38,0.43-2.08c0.65,0.03,1.22,0.07,1.8,0.1c1.45,0.09,2.96,0.19,6,0.19 c0.03,0,0.05,0,0.08,0c2.98,0,4.53-0.08,6.04-0.16c1.51-0.08,2.93-0.15,5.75-0.15c0.05,0,0.11,0,0.16,0c1.45,0,2.57-0.04,3.52-0.09 c-1.01,2.67-2.01,5.36-2.96,8.02c-0.45,1.27,0.21,2.68,1.49,3.13c0.27,0.1,0.55,0.14,0.82,0.14c1.01,0,1.95-0.63,2.31-1.63 c1.2-3.36,2.46-6.75,3.75-10.11c0.82-0.04,1.77-0.07,3-0.07c0.03,0,0.05,0,0.08,0c2.95,0,4.44-0.01,5.93-0.03 c1.48-0.01,2.95-0.03,5.9-0.03c2.71,0,3.94,0.24,5.25,0.5c1.48,0.29,3.02,0.59,6.22,0.59c3.05,0.02,4.65-0.13,6.18-0.26 c1.48-0.12,2.88-0.24,5.65-0.24c0.08,0,0.15,0,0.23,0c0.05,0,0.08,0,0.13,0c-0.67,2.71-1.33,5.43-1.95,8.12 c-0.31,1.32,0.52,2.63,1.83,2.94c0.19,0.04,0.37,0.06,0.55,0.06c1.11,0,2.12-0.77,2.38-1.9c0.72-3.13,1.49-6.29,2.27-9.42 c0.29-0.02,0.56-0.05,0.84-0.07c1.49-0.13,2.91-0.26,5.74-0.24c2.98,0.01,4.49-0.04,5.96-0.08c1.5-0.04,2.93-0.07,5.83-0.07 c2.28,0,3.55,0.16,4.7,0.35c-0.48,3.17-0.69,6.33-0.61,9.41c0.04,1.33,1.13,2.38,2.45,2.38c0.02,0,0.05,0,0.07,0 c1.35-0.04,2.42-1.16,2.38-2.52c-0.08-2.84,0.12-5.75,0.57-8.68c0.6,0.03,1.27,0.04,2.03,0.05c2.99,0,4.52-0.06,6-0.12 c1.49-0.06,2.9-0.11,5.8-0.11c2.96,0,4.43-0.02,5.91-0.04c1.46-0.02,2.92-0.04,5.84-0.04c2.93,0,4.4,0,5.86-0.01 c1.47-0.01,2.93-0.02,5.88-0.01c2.88,0,4.28,0.07,5.76,0.13c1.46,0.06,2.98,0.13,5.96,0.13c2.92,0,4.38,0.02,5.84,0.03 c1.47,0.01,2.94,0.03,5.88,0.03c3-0.01,4.53-0.09,6-0.18c1.46-0.09,2.82-0.18,5.68-0.17c2.97-0.01,4.49-0.07,5.95-0.15 c1.46-0.08,2.86-0.14,5.69-0.14c2.89,0.01,4.34,0.04,5.78,0.07c1.48,0.03,2.95,0.07,5.9,0.08c2.86,0.01,4.26,0.07,5.75,0.13 c0.4,0.02,0.81,0.03,1.24,0.05l2.94,9.23c0.33,1.04,1.3,1.71,2.33,1.71c0.25,0,0.5-0.04,0.74-0.12c1.29-0.41,2-1.79,1.59-3.08 l-2.44-7.67c2.6,0.01,3.99,0.02,5.37,0.03c1.46,0.01,2.93,0.03,5.85,0.04c2.99,0,4.47-0.08,5.91-0.16c1.43-0.08,2.78-0.16,5.63-0.15 c0.42,0,0.81,0.01,1.17,0.01c0.05,0.33,0.16,0.66,0.35,0.96c1.59,2.49,2.57,4.96,2.92,7.34c0.18,1.22,1.23,2.09,2.42,2.09 c0.12,0,0.24-0.01,0.36-0.03c1.34-0.2,2.26-1.44,2.07-2.78c-0.35-2.38-1.18-4.8-2.45-7.2c1.23,0.1,2.69,0.19,4.97,0.2 c3.02,0,4.5-0.12,5.93-0.24c1.39-0.12,2.7-0.23,5.5-0.22c2.64,0.01,4.08,0.04,5.42,0.07c1.34,2.71,2.66,5.43,3.95,8.13 c0.42,0.88,1.3,1.39,2.21,1.39c0.35,0,0.71-0.08,1.05-0.24c1.22-0.58,1.74-2.05,1.15-3.27c-0.94-1.98-1.92-3.96-2.88-5.94 c0.24,0,0.48,0,0.74,0c2.84,0.01,4.26,0.07,5.75,0.14c1.48,0.07,3.01,0.13,5.97,0.14c2.63,0.01,4.08-0.02,5.37-0.06 c0.11,0.23,0.24,0.46,0.43,0.66c2.03,2.16,4.04,6.77,5.06,10.13c0.32,1.06,1.29,1.74,2.34,1.74c0.23,0,0.47-0.03,0.71-0.11 c1.3-0.39,2.03-1.76,1.64-3.05c-0.2-0.67-1.72-5.56-4.2-9.47c0.05,0,0.09,0,0.15,0c2.77,0.01,4.2,0.15,5.71,0.31 c1.57,0.16,3.2,0.32,6.23,0.33c1.45,0,2.54-0.01,3.43-0.03c0.03,0.05,0.05,0.09,0.08,0.14c2.19,3.02,4.63,5.99,7.24,8.82 c0.48,0.52,1.14,0.79,1.8,0.79c0.59,0,1.19-0.22,1.66-0.65c0.99-0.92,1.05-2.47,0.14-3.46c-1.74-1.89-3.4-3.84-4.95-5.82 c0.59-0.01,1.25-0.01,2.02,0c2.83,0.01,4.25,0.08,5.76,0.15c1.5,0.07,3.06,0.15,6.02,0.16c0,0,0,0,0.01,0 c1.35,0,2.45-1.09,2.45-2.44c0-1.35-1.09-2.45-2.44-2.46c-2.85-0.01-4.28-0.08-5.8-0.15c-1.5-0.07-3.04-0.15-5.98-0.16 c-2.04-0.01-3.36,0.02-4.45,0.06c0.07-0.57-0.06-1.17-0.41-1.68c-1.77-2.54-3.59-5.1-5.43-7.65c0.81-0.02,1.46-0.05,2.09-0.08 c1.29-0.06,2.5-0.12,5.17-0.04c0.03,0,0.05,0,0.08,0c1.32,0,2.41-1.05,2.45-2.37c0.04-1.35-1.02-2.48-2.37-2.52 c-2.86-0.09-4.23-0.02-5.55,0.04c-1.28,0.06-2.5,0.12-5.15,0.05c-2.67-0.08-4.04-0.21-5.49-0.36c-1.46-0.15-2.98-0.3-5.81-0.38 c-2.03-0.06-3.3-0.09-4.38-0.11c0.03-0.7-0.23-1.4-0.79-1.91c-2.24-2.03-4.06-4.12-5.48-6.25c0.56,0.01,1.04,0.02,1.51,0.03 c1.27,0.02,2.48,0.04,5.03,0.18c2.49,0.13,3.77,0.19,5,0.25c1.32,0.06,2.58,0.12,5.23,0.26c0.05,0,0.09,0,0.14,0 c1.29,0,2.37-1.01,2.44-2.31c0.07-1.35-0.96-2.51-2.31-2.58c-2.67-0.15-3.95-0.21-5.28-0.27c-1.22-0.06-2.49-0.11-4.96-0.24 c-0.11-0.01-0.21-0.01-0.32-0.02c-0.02-0.03-0.03-0.06-0.05-0.09c-2.73-3.84-5.59-7.75-8.49-11.62c-0.81-1.08-2.35-1.3-3.43-0.49 c-1.08,0.81-1.3,2.35-0.49,3.43c2.14,2.86,4.24,5.73,6.3,8.58c-0.91-0.02-2.02-0.06-3.68-0.15c-2.71-0.14-4-0.08-5.26-0.02 c-1.19,0.05-2.31,0.1-4.76-0.01c-2.53-0.12-3.83-0.22-5.11-0.31c-0.39-0.03-0.78-0.06-1.2-0.09c-0.06-0.14-0.12-0.28-0.21-0.41 c-2.54-3.99-4.96-8.09-7.39-12.54c-0.65-1.19-2.14-1.62-3.32-0.98c-1.19,0.65-1.62,2.14-0.98,3.32c1.97,3.62,3.94,7,5.98,10.29 c-1.51-0.06-2.47-0.09-3.45-0.12c-1.24-0.04-2.52-0.08-5.02-0.19c-2.46-0.11-3.72-0.29-5.05-0.49c-1.39-0.2-2.82-0.41-5.52-0.53 c-1.09-0.05-1.94-0.06-2.67-0.06c0.36-0.66,0.42-1.48,0.08-2.22c-1.62-3.46-3.14-7.1-4.52-10.82c-0.47-1.27-1.88-1.91-3.15-1.44 c-1.27,0.47-1.91,1.88-1.44,3.15c1.43,3.85,3,7.61,4.68,11.2c0.05,0.11,0.12,0.19,0.19,0.28c-0.83,0.02-1.84,0.02-3.32-0.04 c-2.53-0.1-3.84-0.2-5.1-0.29c-1.31-0.1-2.66-0.2-5.31-0.3c-2.46-0.1-3.69-0.28-5-0.47c-0.78-0.11-1.58-0.23-2.61-0.33 c-1-3.97-2.01-7.92-3.02-11.75c-0.34-1.31-1.68-2.08-2.99-1.75c-1.31,0.34-2.09,1.68-1.75,2.99c0.88,3.35,1.77,6.8,2.64,10.27 c-1.34,0-2.26,0.05-3.14,0.1c-1.24,0.07-2.41,0.14-4.88,0.05c-2.49-0.09-3.72-0.24-5.02-0.39c-1.34-0.16-2.72-0.32-5.41-0.42 c-0.93-0.03-1.69-0.05-2.36-0.07c-0.21-4.17-0.45-8.29-0.71-12.27c-0.09-1.35-1.25-2.37-2.6-2.29c-1.35,0.09-2.37,1.25-2.29,2.6 c0.25,3.86,0.48,7.87,0.69,11.92c-0.81-0.01-1.77-0.03-3.07-0.07c-2.74-0.09-4.12,0.02-5.45,0.12c-1.26,0.1-2.45,0.19-4.9,0.11 c-2.51-0.08-3.72-0.2-5.02-0.34c-0.41-0.04-0.83-0.09-1.28-0.13c0.43-0.44,0.7-1.05,0.7-1.71c-0.01-3.5-0.01-7-0.01-10.49 c0-1.35-1.1-2.45-2.45-2.45h0c-1.35,0-2.45,1.1-2.45,2.45c0,3.5,0,7,0.01,10.51c0,0.56,0.2,1.07,0.51,1.48 c-0.14,0-0.27-0.01-0.42-0.01c-2.54-0.07-3.83-0.16-5.08-0.24c-1.3-0.08-2.65-0.17-5.31-0.24c-2.73-0.07-4.13,0.04-5.49,0.14 c-1.28,0.1-2.49,0.2-4.97,0.13c-0.69-0.02-1.28-0.05-1.79-0.09c-0.25-4.18,0.08-8.53,0.99-12.96c0.27-1.33-0.58-2.62-1.9-2.89 c-1.33-0.27-2.62,0.58-2.89,1.9c-0.93,4.49-1.3,8.92-1.13,13.22c-0.92-0.12-2.03-0.22-3.58-0.26c-2.8-0.07-4.27,0.14-5.69,0.35 c-1.28,0.18-2.48,0.36-4.89,0.3c-2.69-0.06-4.06-0.03-5.39,0c-0.98,0.02-1.98,0.04-3.55,0.03c1.09-4.31,2.23-8.64,3.4-12.9 c0.36-1.3-0.41-2.65-1.71-3.01c-1.31-0.35-2.65,0.41-3.01,1.71c-1.28,4.66-2.52,9.4-3.7,14.1c-0.59-0.02-1.1-0.03-1.6-0.04 c-1.36-0.04-2.67-0.07-5.4-0.13c-2.48-0.04-3.65-0.19-4.88-0.35c-1.31-0.17-2.66-0.34-5.41-0.38c-2.54-0.04-3.75-0.13-5.03-0.22 c-1.26-0.09-2.56-0.18-5.09-0.22c1.6-3.98,3.26-7.98,4.97-11.94c0.54-1.24-0.04-2.68-1.28-3.22c-1.24-0.54-2.68,0.03-3.22,1.28 c-2.02,4.69-3.98,9.44-5.85,14.14c-0.2,0.02-0.39,0.05-0.58,0.07c-1.34,0.17-2.6,0.33-5.05,0.3c-2.46-0.03-3.58-0.2-4.77-0.37 c-1.29-0.19-2.63-0.39-5.42-0.42c-2.53-0.03-3.72-0.12-4.98-0.22c-0.85-0.07-1.72-0.13-2.99-0.18c1.12-3.99,3.18-8.16,6.14-12.42 c0.77-1.11,0.5-2.64-0.61-3.41c-1.11-0.77-2.64-0.5-3.41,0.61c-3.58,5.16-5.98,10.25-7.16,15.17c-1.1,0.02-1.93,0.05-2.74,0.08 c-1.35,0.05-2.62,0.1-5.17,0.08c-2.54-0.02-3.73-0.1-4.99-0.18C121.04,267.05,119.72,266.97,117.02,266.95z M187.88,301.77 c-1.43,0.04-2.93,0.08-5.82,0.07c-3.04,0.02-4.63,0.13-6.16,0.26c-1.49,0.13-2.92,0.24-5.75,0.25c-3.08,0.02-4.64,0.13-6.18,0.25 c-1.5,0.12-2.89,0.26-5.78,0.24c-2.07,0-3.28-0.14-4.32-0.32c0.54-0.26,0.99-0.72,1.22-1.33c1.41-3.69,2.53-7.51,3.35-11.35 c2.06-0.02,3.34-0.12,4.57-0.22c1.43-0.12,2.79-0.23,5.49-0.21c2.81,0.02,4.26,0,5.66-0.02c1.44-0.02,2.8-0.05,5.59-0.02 c2.68,0.03,3.96,0.16,5.3,0.3c1.4,0.15,2.85,0.3,5.77,0.33c2.06,0.02,3.31,0.07,4.4,0.13c-0.8,3.85-1.57,7.72-2.3,11.58 C190.56,301.7,189.2,301.73,187.88,301.77z M211.24,302.57c-1.49,0.06-2.9,0.11-5.79,0.11c-2.74,0-4.03-0.22-5.4-0.46 c-0.66-0.11-1.34-0.23-2.15-0.32c0.73-3.85,1.5-7.72,2.3-11.56c0.53,0.01,1.12,0.02,1.79,0.03c2.91,0.03,4.41-0.09,5.86-0.2 c1.41-0.11,2.74-0.21,5.42-0.19c2.9,0.03,4.39-0.08,5.83-0.2c0.92-0.07,1.81-0.14,3.06-0.17c-0.46,4.23-0.9,8.53-1.32,12.82 c-0.94,0.01-2.07,0.01-3.61,0.01C214.24,302.45,212.72,302.51,211.24,302.57z M240.73,302.35c-2.96-0.01-4.43,0-5.91,0.01 c-1.45,0.01-2.92,0.01-5.83,0.01c-1.32,0-2.34,0-3.21,0.01c0.41-4.26,0.86-8.54,1.31-12.74c1.2,0.01,2.08,0.01,2.94,0.02 c1.41,0,2.8,0.01,5.61,0.05c2.66,0.04,3.95,0.19,5.31,0.34c1.42,0.16,2.89,0.33,5.8,0.37c0.82,0.01,1.5,0.03,2.1,0.05 c-0.02,3.56-0.04,7.12-0.05,10.68c0,0.53,0.17,1.02,0.46,1.43c-1-0.02-1.79-0.06-2.59-0.09 C245.22,302.42,243.71,302.36,240.73,302.35z M275.85,302.32c-2.99,0-4.53,0.09-6,0.18c-1.46,0.09-2.82,0.18-5.68,0.18 c-2.92,0-4.38-0.02-5.84-0.03c-1.33-0.01-2.68-0.02-5.1-0.03c0.3-0.41,0.49-0.91,0.49-1.45c0.01-3.49,0.03-6.98,0.05-10.47 c1.04,0.05,2.29,0.09,4.15,0.12c2.85,0.04,4.29-0.02,5.69-0.08c1.39-0.06,2.71-0.12,5.43-0.07c2.87,0.05,4.32-0.04,5.72-0.12 c1.37-0.08,2.66-0.16,5.35-0.11c0.13,0,0.24,0.01,0.37,0.01c-0.03,0.2-0.04,0.4-0.01,0.61c0.44,3.7,0.88,7.4,1.31,11.11 c-0.08,0-0.16,0.01-0.23,0.01C280.07,302.26,278.69,302.33,275.85,302.32z M299.17,302.18c-2.9-0.01-4.35-0.04-5.8-0.07 c-1.47-0.03-2.95-0.07-5.88-0.08c-0.29,0-0.55,0-0.81,0c-0.43-3.76-0.87-7.51-1.32-11.25c0.03,0,0.06,0.01,0.1,0.01 c1.44,0.16,2.93,0.33,5.82,0.38c2.94,0.06,4.32,0.09,5.8,0.12c1.31,0.03,2.7,0.06,5.31,0.11c2.77,0.06,4.15,0.11,5.54,0.17 c0.01,0,0.03,0,0.04,0c-0.01,0.16,0,0.31,0.03,0.47c0.55,3.53,1.63,7.02,3.19,10.39c-0.11,0-0.2,0-0.31,0 c-2.87-0.01-4.28-0.07-5.77-0.13C303.64,302.25,302.13,302.19,299.17,302.18z M328.16,302.36c-1.43,0.08-2.8,0.14-5.62,0.15 c-2.9-0.01-4.36-0.02-5.81-0.04c-0.18,0-0.36,0-0.54-0.01c0.06-0.46-0.01-0.94-0.23-1.39c-1.48-3.03-2.49-6.18-3.03-9.35 c0.19,0,0.38,0.01,0.59,0.01c2.82,0.06,4.24,0.02,5.61-0.03c1.37-0.04,2.67-0.09,5.39-0.03c2.86,0.06,4.27-0.02,5.64-0.1 c1.33-0.08,2.59-0.15,5.26-0.09c2.34,0.06,3.65,0.22,4.92,0.4c1.41,3.66,2.78,7.31,4.08,10.88c-1.87-0.04-3.02-0.15-4.22-0.26 c-1.53-0.14-3.1-0.29-6.11-0.3C331.13,302.19,329.61,302.28,328.16,302.36z M368.99,302.49c-2.88-0.01-4.33-0.04-5.79-0.08 c-1.47-0.03-2.95-0.07-5.87-0.08c-3.02,0-4.5,0.12-5.94,0.24c-0.69,0.06-1.37,0.11-2.22,0.15c0.11-0.45,0.09-0.94-0.08-1.4 c-1.06-2.91-2.18-5.89-3.31-8.87c0.31,0.01,0.63,0.02,0.97,0.03c2.79,0.07,4.17,0.11,5.57,0.16c1.38,0.05,2.77,0.1,5.52,0.16 c2.91,0.07,4.31-0.07,5.66-0.21c1.26-0.13,2.44-0.24,5.05-0.18c1.65,0.04,2.79,0.08,3.75,0.11c1.71,3.5,3.8,6.93,6.21,10.23 c-1.5-0.03-2.52-0.07-3.58-0.12C373.46,302.56,371.93,302.5,368.99,302.49z M396.02,293.35c0.92,0.09,1.86,0.19,3.13,0.26 c0.01,0.02,0.02,0.04,0.04,0.06c2.31,3.17,4.6,6.38,6.82,9.57c-0.55,0.01-1.16,0.01-1.87,0.01c-2.79-0.01-4.23-0.15-5.76-0.31 c-1.56-0.16-3.18-0.32-6.18-0.33c-2.94-0.01-4.42,0.03-5.84,0.07c-0.58,0.02-1.17,0.03-1.86,0.05c-0.09-0.23-0.2-0.46-0.36-0.66 c-2.39-3.02-4.47-6.17-6.22-9.38c0.5,0.01,1.04,0.03,1.67,0.05c2.7,0.07,4.07,0.1,5.41,0.12c1.39,0.03,2.75,0.05,5.56,0.13 C393.22,293.07,394.58,293.21,396.02,293.35z M366.43,279.66c2.68,0.13,3.97,0.07,5.22,0.01c0.77-0.03,1.51-0.07,2.6-0.05 c1.44,2.83,3.48,5.59,6.07,8.24c-0.2-0.01-0.39-0.01-0.6-0.02c-2.67-0.07-4.05-0.12-5.39-0.16c-1.43-0.05-2.81-0.09-5.65-0.17 c-2.92-0.08-4.32,0.07-5.67,0.2c-1.26,0.13-2.44,0.24-5.05,0.18c-0.96-0.02-1.74-0.04-2.42-0.06c0.23-0.59,0.23-1.27-0.05-1.9 c-1.08-2.36-2.18-4.73-3.28-7.08c0.95,0.03,2.09,0.08,3.82,0.16c2.57,0.12,3.84,0.22,5.17,0.31 C362.5,279.43,363.84,279.53,366.43,279.66z M330.32,277.63c1.23-0.06,2.38-0.12,4.85-0.02c2.46,0.11,3.71,0.29,5.03,0.48 c1.39,0.2,2.82,0.41,5.53,0.53c0.5,0.02,0.93,0.04,1.34,0.06c-0.04,0.42,0.02,0.85,0.22,1.26c1.22,2.58,2.42,5.16,3.6,7.75 c-1.01-0.03-2.23-0.07-4.02-0.11c-2.63-0.06-3.97-0.26-5.38-0.47c-1.5-0.22-3.04-0.44-5.95-0.51c-2.88-0.07-4.29,0.01-5.67,0.1 c-0.39,0.02-0.77,0.04-1.19,0.06c0.23-0.72,0.13-1.54-0.36-2.19c-1.66-2.26-2.86-4.58-3.59-6.93c0.1,0,0.19,0.01,0.29,0.01 C327.72,277.76,329.04,277.69,330.32,277.63z M299.24,276.11c1.24-0.07,2.42-0.14,4.89-0.04c2.45,0.1,3.68,0.28,4.98,0.47 c1.37,0.2,2.79,0.41,5.51,0.52c2.44,0.1,3.7,0.19,4.96,0.28c0.74,3.23,2.2,6.4,4.31,9.44c-2.36-0.04-3.67,0-4.92,0.04 c-1.37,0.04-2.66,0.09-5.36,0.03c-2.73-0.06-4.12-0.11-5.49-0.17c-1.42-0.06-2.82-0.11-5.64-0.17c0,0-0.01,0-0.01,0 c-0.03-0.17-0.07-0.33-0.13-0.5c-1.25-3.28-2.47-6.57-3.69-9.86C298.85,276.14,299.05,276.13,299.24,276.11z M268.23,275.29 c1.26-0.1,2.44-0.19,4.91-0.11c2.6,0.09,3.93,0.08,5.21,0.09c1.31,0,2.55,0,5.12,0.09c2.49,0.09,3.71,0.23,5.01,0.39 c1.26,0.15,2.57,0.3,4.94,0.4c1.26,3.42,2.54,6.84,3.84,10.25c-0.02,0-0.05,0-0.07,0c-1.48-0.03-2.87-0.06-5.81-0.12 c-2.67-0.05-3.98-0.2-5.37-0.35c-1.44-0.16-2.92-0.33-5.81-0.38c-2.88-0.05-4.33,0.04-5.74,0.12c-1.37,0.08-2.66,0.16-5.34,0.12 c-0.28,0-0.54-0.01-0.8-0.01c-0.01-0.14-0.03-0.28-0.06-0.42c-0.83-3.23-1.25-6.58-1.28-9.97 C267.42,275.36,267.83,275.33,268.23,275.29z M252.4,274.71c2.51,0.07,3.73,0.2,5.02,0.34c1.2,0.13,2.44,0.26,4.66,0.34 c0.03,3.55,0.46,7.06,1.28,10.46c-1.37,0.06-2.68,0.12-5.36,0.07c-2.73-0.04-4.06-0.12-5.47-0.2c-1.4-0.08-2.84-0.16-5.69-0.2 c-1.55-0.02-2.63-0.08-3.53-0.16c0.01-0.06,0.02-0.12,0.03-0.19c0.18-3.63,0.38-7.26,0.59-10.88c1.38,0.05,2.29,0.11,3.24,0.17 C248.45,274.55,249.78,274.64,252.4,274.71z M221.28,273.44c2.4,0.06,3.54,0.27,4.76,0.5c0.35,0.07,0.71,0.13,1.09,0.19 c0.05,0.01,0.11,0.02,0.16,0.02c1.05,0.17,2.32,0.31,4.29,0.36c2.73,0.07,4.13-0.04,5.48-0.15c0.62-0.05,1.22-0.1,1.96-0.12 c-0.2,3.55-0.39,7.1-0.57,10.66c-0.76-0.04-1.64-0.08-2.72-0.09c-2.84-0.04-4.24-0.05-5.67-0.05c-1.37,0-2.75-0.01-5.48-0.05 c-2.91-0.04-4.4,0.08-5.84,0.19c-0.77,0.06-1.52,0.12-2.49,0.16c0.48-3.85,0.99-7.7,1.53-11.5 C218.67,273.46,219.72,273.4,221.28,273.44z M195.12,273.97c1.26,0.04,2.57,0.07,5.1,0.12c2.65,0.06,4.01,0.02,5.33-0.01 c1.33-0.03,2.59-0.06,5.17,0c0.78,0.02,1.44,0.01,2.04-0.01c-0.51,3.65-1,7.33-1.46,11.01c-1.66,0.03-2.76,0.11-3.83,0.2 c-1.41,0.11-2.73,0.22-5.42,0.19c-1.38-0.01-2.4-0.04-3.25-0.08c-0.02-0.01-0.04-0.02-0.06-0.02c-0.28-0.06-0.56-0.06-0.83-0.02 c-0.46-0.02-0.88-0.05-1.31-0.07c-1.39-0.08-2.83-0.16-5.7-0.19c-2.69-0.03-3.96-0.16-5.31-0.3c-0.3-0.03-0.61-0.06-0.94-0.09 c0.8-3.53,1.53-7.21,2.2-10.97c0.78,0.06,1.72,0.1,2.93,0.13C192.47,273.9,193.77,273.94,195.12,273.97z M158.36,273.31 c2.79,0.04,4.29-0.15,5.74-0.34c1.34-0.17,2.6-0.33,5.04-0.29c2.56,0.04,3.77,0.12,5.06,0.21c1.29,0.09,2.62,0.18,5.29,0.23 c1.02,0.02,1.8,0.05,2.47,0.1c-0.69,3.87-1.45,7.65-2.28,11.25c-2.76-0.03-4.19,0-5.58,0.02c-1.37,0.02-2.78,0.04-5.53,0.02 c-2.93-0.02-4.45,0.1-5.93,0.22c-1.43,0.12-2.79,0.23-5.48,0.21c-2.75-0.02-4.15-0.04-5.52-0.06c-1.06-0.01-2.11-0.03-3.74-0.04 c0.01-0.02,0.02-0.04,0.03-0.07c1.52-3.97,3.13-7.97,4.78-11.93c0.08,0.01,0.16,0.02,0.24,0.04 C154.23,273.07,155.57,273.27,158.36,273.31z M132.68,272.14c1.36-0.05,2.63-0.1,5.21-0.08c2.54,0.03,3.73,0.12,5,0.22 c1.18,0.09,2.4,0.18,4.66,0.22c-1.44,3.5-2.86,7.02-4.2,10.52c-0.23,0.6-0.2,1.23,0.02,1.79c-3.26-0.01-4.11,0-8.73-0.02 c-2.76-0.02-4.07-0.07-5.47-0.14c-1.39-0.06-2.82-0.13-5.7-0.14l-5.11-0.02c-0.91-0.01-1.76-0.01-2.9-0.02 c0.59-1.28,1.21-2.69,1.84-4.15c1.34-3.07,2.72-6.24,3.71-7.74c0.12-0.19,0.21-0.38,0.27-0.58c0.24,0.01,0.47,0.03,0.71,0.05 c1.28,0.08,2.6,0.17,5.28,0.19C129.94,272.24,131.33,272.19,132.68,272.14z M491.01,362.54c-2.81,1.28-7.76,2.38-14.32,3.64 c-2.9,0.56-6.18,1.03-9.66,1.54c-1.44,0.21-2.93,0.43-4.47,0.66l-2.92,0.45c-3.55,0.55-7.23,1.11-11.18,1.63 c-2.47,0.33-4.97,0.58-7.62,0.85c-2.13,0.22-4.31,0.44-6.54,0.7l-2.85,0.34c-3.65,0.44-7.41,0.9-11.29,1.33 c-2.12,0.24-4.25,0.63-6.5,1.05c-2.44,0.45-4.96,0.92-7.57,1.19c-2.44,0.26-4.97,0.47-7.4,0.67c-2.24,0.18-4.5,0.37-6.77,0.6 c-2.41,0.24-4.88,0.4-7.27,0.54c-2.27,0.14-4.61,0.29-6.92,0.51c-2.2,0.21-4.48,0.49-6.67,0.76c-2.43,0.3-4.94,0.61-7.46,0.84 c-2.57,0.24-5.17,0.45-7.77,0.67c-2.13,0.18-4.26,0.35-6.4,0.55c-2.43,0.22-4.9,0.36-7.29,0.5c-2.27,0.13-4.61,0.27-6.9,0.46 c-2.26,0.2-4.59,0.48-6.83,0.75c-2.38,0.29-4.85,0.59-7.31,0.79c-2.46,0.21-4.93,0.26-7.32,0.32c-2.28,0.05-4.63,0.11-6.9,0.29 c-2.24,0.18-4.45,0.58-6.79,1c-2.37,0.43-4.82,0.87-7.31,1.06c-2.46,0.2-4.93,0.32-7.33,0.45c-2.26,0.12-4.6,0.24-6.86,0.41 c-2.5,0.19-4.99,0.35-7.48,0.51c-2.25,0.14-4.49,0.28-6.71,0.45c-2.49,0.19-4.98,0.27-7.39,0.35c-2.36,0.08-4.58,0.15-6.82,0.32 c-2.34,0.17-4.7,0.41-6.98,0.64c-2.36,0.24-4.79,0.48-7.18,0.65c-2.34,0.17-4.66,0.36-6.96,0.56c-2.43,0.21-4.84,0.41-7.22,0.58 c-2.55,0.18-5.07,0.23-7.51,0.28c-2.33,0.05-4.53,0.1-6.71,0.24c-2.4,0.16-4.79,0.38-7.1,0.6c-2.44,0.23-4.75,0.45-7.07,0.6 c-2.43,0.15-4.83,0.37-7.15,0.58c-2.43,0.22-4.73,0.43-7.02,0.57c-2.21,0.13-4.36,0.27-6.44,0.41c-2.7,0.18-5.29,0.35-7.76,0.48 c-3.01,0.16-5.89,0.07-8.44-0.01c-2.08-0.06-4.04-0.12-5.81-0.05c-3.35,0.15-6.21,0.53-8.74,0.86c-2.16,0.29-4.02,0.53-5.55,0.53 c-1.81,0-3.68-0.13-5.65-0.26c-2.55-0.17-5.17-0.35-7.92-0.27c-2.61,0.07-5.33,0.16-8.13,0.26l-5.5,0.18 c-5.01,0.16-9.47,0.28-13.66,0.37c-2.01,0.04-4.1,0.2-6.12,0.35c-2.47,0.18-5.02,0.37-7.57,0.38c-0.03,0-0.06,0-0.09,0 c-2.69,0-5.34-0.21-7.91-0.42c-1.98-0.16-3.85-0.31-5.71-0.37c-1.87-0.06-3.76-0.04-5.59-0.02c-2.71,0.03-5.51,0.06-8.19-0.17 c-4.14-0.36-8.06-1.15-11.53-1.84c-0.74-0.15-1.47-0.29-2.19-0.43c-5.55-1.08-10.09-2.05-13.75-3.92 c-7.51-3.83-9.09-9.01-9.09-12.68c0-5.19,1.36-10.49,2.69-14.98c1.42-4.79,3.2-9.48,5.3-13.94l0.57-1.2 c1.84-3.92,3.74-7.98,6.11-12.01c1.64-2.8,3.56-5.52,5.42-8.16c0.94-1.34,1.89-2.69,2.82-4.06c2.44-3.61,5.35-7.86,8.44-12.02 c0.7-0.93,1.39-1.87,2.08-2.81c2.18-2.95,4.43-6,6.76-8.9c1.91-2.38,3.93-4.64,5.88-6.82c1.3-1.45,2.52-2.82,3.73-4.23 c2.36-2.77,4.76-5.41,7.07-7.96c0.9-1,1.8-1.98,2.67-2.96c1.4-1.56,2.75-3.11,4.06-4.62c1.94-2.24,3.77-4.35,5.63-6.33 c1.58-1.68,3.07-3.31,4.48-4.86c1.93-2.12,3.75-4.12,5.47-5.87c2.81-2.86,4.05-4.23,5.05-5.33c1.26-1.39,2.16-2.39,5.15-5.21 c0.98-0.93,2.53-0.89,3.46,0.1c0.93,0.98,0.89,2.53-0.1,3.46c-2.85,2.7-3.66,3.59-4.89,4.94c-1.03,1.14-2.31,2.55-5.19,5.48 c-1.65,1.68-3.44,3.65-5.34,5.73c-1.43,1.57-2.93,3.22-4.53,4.92c-1.8,1.91-3.6,3.99-5.5,6.18c-1.33,1.53-2.69,3.1-4.11,4.69 c-0.88,0.98-1.78,1.97-2.69,2.97c-2.29,2.52-4.65,5.13-6.97,7.85c-1.24,1.45-2.54,2.91-3.8,4.32c-1.91,2.14-3.89,4.35-5.71,6.62 c-2.27,2.83-4.49,5.83-6.64,8.74c-0.7,0.94-1.39,1.88-2.09,2.82c-3.03,4.07-5.9,8.27-8.31,11.83c-0.95,1.4-1.91,2.78-2.88,4.14 c-1.88,2.67-3.66,5.19-5.2,7.81c-2.25,3.84-4.11,7.79-5.9,11.61l-0.57,1.21c-1.99,4.24-3.69,8.7-5.04,13.25 c-1.16,3.91-2.49,8.99-2.49,13.58c0,3.35,2.16,6.15,6.41,8.32c3.1,1.58,7.29,2.47,12.46,3.48c0.73,0.14,1.46,0.29,2.22,0.44 c3.5,0.7,7.12,1.43,10.99,1.76c2.45,0.21,5.01,0.18,7.71,0.15c1.88-0.02,3.83-0.04,5.8,0.02c1.99,0.06,4,0.22,5.95,0.38 c2.47,0.2,5.02,0.4,7.51,0.4c0.03,0,0.06,0,0.08,0c2.37,0,4.84-0.19,7.22-0.36c2.08-0.15,4.24-0.31,6.37-0.36 c4.17-0.09,8.62-0.21,13.62-0.37l5.49-0.18c2.81-0.09,5.53-0.18,8.15-0.26c2.98-0.08,5.73,0.1,8.39,0.28 c1.89,0.13,3.68,0.25,5.32,0.25c1.21,0,2.93-0.23,4.91-0.49c2.5-0.33,5.6-0.74,9.16-0.9c1.96-0.09,4.01-0.02,6.18,0.05 c2.56,0.08,5.22,0.16,8.02,0.01c2.45-0.13,5.02-0.3,7.7-0.48c2.09-0.14,4.25-0.28,6.47-0.41c2.22-0.13,4.48-0.34,6.87-0.56 c2.35-0.21,4.79-0.44,7.29-0.59c2.25-0.14,4.52-0.36,6.92-0.58c2.34-0.22,4.77-0.45,7.23-0.61c2.29-0.15,4.65-0.2,6.93-0.25 c2.38-0.05,4.84-0.1,7.28-0.27c2.35-0.16,4.73-0.37,7.14-0.57c2.32-0.2,4.66-0.4,7.02-0.57c2.32-0.16,4.61-0.4,7.04-0.64 c2.32-0.23,4.71-0.47,7.11-0.65c2.33-0.17,4.71-0.25,7.01-0.33c2.36-0.08,4.8-0.16,7.18-0.34c2.24-0.17,4.5-0.31,6.77-0.46 c2.46-0.16,4.93-0.31,7.41-0.5c2.33-0.18,4.7-0.3,6.99-0.42c2.36-0.12,4.8-0.25,7.19-0.44c2.24-0.18,4.47-0.58,6.83-1 c2.35-0.42,4.78-0.86,7.26-1.06c2.41-0.2,4.84-0.25,7.18-0.31c2.32-0.05,4.72-0.11,7.02-0.3c2.37-0.2,4.79-0.49,7.13-0.78 c2.29-0.28,4.65-0.56,7-0.77c2.36-0.21,4.74-0.34,7.04-0.47c2.35-0.13,4.78-0.27,7.14-0.49c2.15-0.19,4.3-0.37,6.43-0.55 c2.59-0.22,5.16-0.43,7.72-0.67c2.45-0.23,4.92-0.53,7.32-0.83c2.23-0.27,4.53-0.56,6.8-0.78c2.39-0.23,4.77-0.38,7.08-0.52 c2.45-0.15,4.77-0.3,7.09-0.53c2.31-0.23,4.59-0.42,6.86-0.61c2.52-0.21,4.9-0.4,7.29-0.65c2.41-0.25,4.84-0.7,7.19-1.14 c2.24-0.41,4.56-0.84,6.85-1.1c3.86-0.43,7.61-0.89,11.24-1.33l2.85-0.34c2.26-0.27,4.47-0.49,6.63-0.71 c2.61-0.26,5.08-0.51,7.47-0.83c3.91-0.52,7.55-1.08,11.08-1.62l2.93-0.45c1.55-0.24,3.05-0.45,4.5-0.67 c3.42-0.5,6.65-0.97,9.44-1.5c5.13-0.99,10.71-2.15,13.22-3.29c1.23-0.56,2.68-0.01,3.24,1.22 C492.79,360.53,492.24,361.98,491.01,362.54z M85.45,64.95c-0.23-4.69,0.1-9.05,0.39-12.89c0.05-0.69,0.1-1.37,0.15-2.04 c0.35-5.02,1.39-9.87,3.17-14.84c1.68-4.68,4-9.93,8.5-13.34c1.08-0.82,2.61-0.61,3.43,0.47c0.82,1.08,0.61,2.61-0.47,3.43 c-3.47,2.63-5.34,6.89-6.85,11.09c-1.65,4.61-2.57,8.91-2.9,13.53c-0.05,0.68-0.1,1.36-0.15,2.06c-0.29,3.88-0.59,7.89-0.38,12.28 c0.15,3,0.53,6.2,0.95,9.58c0.19,1.58,0.39,3.19,0.57,4.84c0.28,2.56,0.73,5.21,1.21,8.01c0.35,2.05,0.71,4.18,1.02,6.37 c0.31,2.18,0.48,4.46,0.64,6.66c0.19,2.57,0.39,5.23,0.81,7.87c0.41,2.55,0.88,5.12,1.37,7.85c0.39,2.14,0.79,4.32,1.16,6.54 c0.46,2.72,1.17,5.46,1.85,8.11c0.54,2.08,1.1,4.24,1.53,6.38c0.47,2.3,0.81,4.61,1.15,6.84c0.41,2.74,0.79,5.32,1.39,7.83 c1.35,5.71,2.49,10.29,3.59,14.44c0.73,2.73,1.68,5.39,2.61,7.96c0.76,2.12,1.48,4.12,2.09,6.17c0.59,2,1.14,3.95,1.68,5.85 c0.84,2.98,1.63,5.8,2.49,8.42c1.11,3.4,2.33,6.57,3.4,9.36c0.62,1.62,1.21,3.15,1.73,4.59c1.56,4.34,2.05,6.29,2.45,7.85 c0.41,1.63,0.71,2.81,2.15,6.24c0.52,1.25-0.06,2.68-1.31,3.21c-0.31,0.13-0.63,0.19-0.95,0.19c-0.96,0-1.87-0.57-2.26-1.5 c-1.58-3.78-1.94-5.17-2.38-6.94c-0.39-1.54-0.83-3.28-2.31-7.39c-0.51-1.41-1.08-2.91-1.69-4.49c-1.09-2.85-2.33-6.07-3.48-9.6 c-0.89-2.72-1.69-5.58-2.54-8.61c-0.53-1.88-1.07-3.81-1.66-5.79c-0.57-1.92-1.26-3.86-2-5.91c-0.96-2.67-1.95-5.42-2.73-8.35 c-1.12-4.19-2.27-8.82-3.63-14.57c-0.64-2.7-1.06-5.51-1.46-8.23c-0.32-2.17-0.66-4.4-1.1-6.58c-0.41-2.02-0.93-4.02-1.47-6.13 c-0.71-2.75-1.44-5.59-1.94-8.51c-0.37-2.2-0.77-4.36-1.15-6.48c-0.5-2.75-0.98-5.35-1.39-7.95c-0.45-2.84-0.66-5.6-0.86-8.28 c-0.17-2.22-0.32-4.31-0.61-6.34c-0.3-2.12-0.65-4.21-1-6.23c-0.49-2.88-0.95-5.59-1.25-8.3c-0.18-1.63-0.37-3.22-0.56-4.77 C86.01,71.41,85.61,68.13,85.45,64.95z"/></g></svg>