<?xml version="1.0" encoding="UTF-8"?><svg xmlns="http://www.w3.org/2000/svg" xmlns:xlink="http://www.w3.org/1999/xlink" contentScriptType="text/ecmascript" fill="#000000" width="506.9" zoomAndPan="magnify" contentStyleType="text/css" viewBox="-8.1 -0.3 506.9 368.1" height="368.1" preserveAspectRatio="xMidYMid meet" version="1"><g id="change1_1"><path fill="#3f3a6d" d="M44.89,73.61c0.21-0.11,1.7,0.81,1.91,0.9c9.04,4.27,18.08,8.55,27.11,12.82c8.8,4.16,21.1,7.58,28.76,13.6 c5.7,4.48,3.3,16.66,3.5,24.07c0.9,33.57,0.04,67.25,1.3,100.79c0.06,1.68,0.35,3.69,1.88,4.4c4.12,1.92,12.53-5.18,16.21-6.62 c5.81-2.27,11.93-2.98,15.96,2.76c11.59,16.56-7.43,25.66-34.73,48.82S54,322.59,43.61,314.36c-20.71-16.41,7.42-33.32,21.49-45.47 c4.05-3.5,6.37-8.57,6.37-13.92c0-16.63,0-33.27,0-49.9c0-19.28,0.61-38.44,0.8-57.69c0.09-9.56-1.65-19.63-8.62-26.64 c-7.17-7.2-17.36-10.7-25.97-15.77c-8.08-4.76-16.16-9.53-24.24-14.29C13.44,90.69,44.89,73.61,44.89,73.61z M329.07,158.13 c1.52-1.24,15.96,4.54,18.53,5.28c21.5,6.19,60.26,4.27,63.74,33.44c1.76,14.72,3.31,30,4.53,44.77c1.19,14.44,2.22,22.1-0.04,33.9 c-2,10.5-4.37,11.63-22.17,31.81c-9.86,11.18-35.06,29.34-22.58,43.97c14.09,16.52,45.87-21.23,52.14-26.82 c20-17.82,42.46-33.5,58.59-55.2c4.48-6.02,16.95-21.83,12.05-30.44c-4.07-7.15-15.57-6.6-19.92-2.26 c-5.1,5.1-12.43,12.73-19.18,15.84c-6.55,2.19-6.81-2.91-7.4-7.33c-2.1-15.84-3.46-32.65-3.2-48.59 c0.28-17.58,1.28-35.16,3.78-52.57c4.95-34.6,13.81-68.49,21.64-102.54c-9.19,0.48-18.38,0.97-27.57,1.45 c-1.61,0.08-3.29,0.19-4.66,1.05c-2.33,1.47-2.91,4.55-3.28,7.27c-3.24,24-6.48,48-9.72,72.01c-0.62,4.61-1.36,9.5-4.38,13.05 c-7.4,8.67-39.58-2.53-49.59-4.19c-2.28-0.38-4.63-0.76-6.88-0.26c-2.74,0.61-5.02,2.43-7.2,4.2 C356.3,135.98,329.07,158.13,329.07,158.13z"/></g><g id="change2_1"><path fill="#99b0dc" d="M170.72,0.06l278.08,12.37c23.9,1.06,35.44,29.77,18.92,47.08l-80.36,84.17 c-14.95,15.66-36.86,22.6-58.1,18.4L22.47,101.46c-27.91-5.52-30.58-44.39-3.69-53.67L147.24,3.46 C154.78,0.86,162.75-0.29,170.72,0.06z"/></g><g id="change3_1"><path fill="#231f20" d="M340.94,134.33c-2.67,0-5.52-0.14-8.82-0.44c-0.95-0.09-1.91-0.16-2.86-0.23c-2.58-0.2-5.25-0.41-7.9-0.83 c-1.52-0.24-3.1-0.41-4.64-0.57c-1.97-0.21-4.01-0.42-6.02-0.81c-1.73-0.33-3.42-0.78-5.06-1.22c-1.67-0.45-3.24-0.87-4.84-1.17 c-1.66-0.31-3.38-0.55-5.05-0.79c-1.64-0.23-3.33-0.47-5.01-0.78c-1.75-0.32-3.45-0.76-5.1-1.2c-1.66-0.44-3.23-0.85-4.82-1.13 c-1.85-0.33-3.7-0.65-5.55-0.97c-1.49-0.26-2.98-0.51-4.48-0.78c-1.58-0.28-3.19-0.43-4.89-0.59c-1.71-0.16-3.47-0.33-5.23-0.64 c-1.63-0.28-3.32-0.51-4.95-0.73c-1.68-0.22-3.41-0.45-5.13-0.75c-1.72-0.3-3.44-0.66-5.1-1.01c-1.61-0.34-3.27-0.69-4.89-0.97 c-1.78-0.31-3.51-0.76-5.18-1.2c-1.64-0.43-3.19-0.83-4.75-1.1c-1.56-0.28-3.13-0.54-4.69-0.8c-1.78-0.3-3.57-0.6-5.35-0.92 c-1.58-0.28-3.17-0.48-4.85-0.69c-1.72-0.21-3.49-0.43-5.25-0.75c-1.79-0.32-3.57-0.68-5.35-1.04c-1.55-0.31-3.1-0.62-4.66-0.91 c-1.78-0.33-3.53-0.76-5.22-1.18c-1.63-0.4-3.17-0.78-4.73-1.08c-1.48-0.28-2.97-0.55-4.45-0.82c-1.86-0.33-3.72-0.67-5.57-1.03 c-1.49-0.29-2.98-0.56-4.47-0.84c-1.86-0.34-3.71-0.68-5.56-1.05c-1.9-0.38-3.79-0.8-5.67-1.22c-1.43-0.32-2.86-0.64-4.29-0.94 c-1.52-0.32-3.09-0.51-4.76-0.72c-1.73-0.21-3.52-0.43-5.32-0.81c-1.74-0.37-3.45-0.85-5.1-1.31c-1.63-0.46-3.18-0.89-4.76-1.23 c-1.54-0.33-3.11-0.55-4.78-0.78c-1.73-0.24-3.51-0.49-5.29-0.87c-1.82-0.4-3.55-1.02-5.21-1.63c-1.57-0.57-3.05-1.11-4.54-1.44 c-1.53-0.34-3.1-0.54-4.76-0.76c-1.74-0.22-3.53-0.46-5.32-0.86c-1.56-0.35-3.17-0.67-4.73-0.98c-1.72-0.34-3.49-0.69-5.24-1.09 c-1.78-0.41-3.51-0.96-5.19-1.48c-1.59-0.5-3.09-0.97-4.61-1.33c-1.55-0.37-3.16-0.69-4.72-1c-1.72-0.34-3.5-0.69-5.25-1.12 c-1.54-0.38-3.14-0.71-4.69-1.03c-1.73-0.36-3.51-0.73-5.26-1.17c-1.38-0.35-2.76-0.68-4.14-1.02c-1.93-0.47-3.85-0.94-5.75-1.43 c-1.83-0.48-3.63-1.04-5.36-1.58c-1.52-0.47-2.96-0.92-4.42-1.32c-1.84-0.5-3.6-1.14-5.29-1.76c-1.51-0.55-2.94-1.08-4.39-1.49 c-1.37-0.39-2.73-0.76-4.08-1.12c-1.9-0.51-3.85-1.04-5.75-1.62c-3.34-1.01-6.6-2-9.75-3.02c-1.3-0.42-2.02-1.81-1.6-3.11 c0.42-1.3,1.82-2.01,3.11-1.6c3.11,1,6.35,1.99,9.67,2.99c1.83,0.55,3.66,1.05,5.61,1.58c1.37,0.37,2.75,0.75,4.14,1.14 c1.61,0.46,3.19,1.04,4.72,1.6c1.6,0.58,3.26,1.19,4.9,1.64c1.54,0.42,3.09,0.9,4.59,1.37c1.68,0.52,3.43,1.06,5.15,1.51 c1.87,0.49,3.76,0.95,5.67,1.41c1.39,0.34,2.79,0.68,4.18,1.03c1.65,0.42,3.31,0.76,5.06,1.12c1.59,0.33,3.23,0.67,4.85,1.07 c1.64,0.4,3.29,0.73,5.04,1.08c1.6,0.32,3.26,0.65,4.9,1.04c1.69,0.4,3.35,0.92,4.95,1.43c1.66,0.52,3.22,1.01,4.82,1.38 c1.67,0.39,3.4,0.73,5.08,1.06c1.59,0.31,3.24,0.64,4.87,1.01c1.56,0.35,3.16,0.56,4.86,0.78c1.7,0.22,3.45,0.45,5.2,0.83 c1.8,0.4,3.51,1.02,5.15,1.62c1.58,0.57,3.08,1.12,4.58,1.45c1.59,0.35,3.2,0.57,4.91,0.81c1.68,0.23,3.42,0.47,5.14,0.84 c1.73,0.37,3.42,0.85,5.05,1.3c1.65,0.46,3.21,0.9,4.79,1.24c1.58,0.34,3.19,0.53,4.89,0.74c1.69,0.21,3.45,0.42,5.18,0.79 c1.45,0.31,2.9,0.63,4.35,0.95c1.86,0.41,3.72,0.83,5.59,1.21c1.82,0.37,3.64,0.7,5.46,1.03c1.51,0.28,3.02,0.55,4.53,0.85 c1.83,0.36,3.66,0.69,5.49,1.02c1.5,0.27,3,0.54,4.5,0.82c1.7,0.32,3.37,0.73,4.99,1.13c1.7,0.42,3.3,0.81,4.94,1.12 c1.58,0.29,3.15,0.61,4.73,0.92c1.75,0.35,3.5,0.7,5.26,1.02c1.62,0.29,3.25,0.5,4.97,0.71c1.67,0.21,3.39,0.42,5.11,0.73 c1.77,0.31,3.53,0.61,5.3,0.91c1.58,0.27,3.15,0.53,4.73,0.81c1.76,0.31,3.48,0.76,5.14,1.19c1.65,0.43,3.21,0.83,4.79,1.11 c1.71,0.3,3.41,0.66,5.06,1c1.62,0.34,3.3,0.69,4.93,0.98c1.62,0.28,3.3,0.51,4.93,0.72c1.68,0.22,3.42,0.45,5.15,0.76 c1.57,0.27,3.16,0.43,4.85,0.59c1.72,0.16,3.5,0.33,5.28,0.65c1.48,0.26,2.97,0.52,4.46,0.77c1.86,0.32,3.72,0.64,5.58,0.97 c1.79,0.32,3.53,0.78,5.21,1.22c1.63,0.43,3.17,0.83,4.73,1.11c1.58,0.29,3.23,0.52,4.82,0.75c1.72,0.25,3.49,0.5,5.25,0.82 c1.79,0.33,3.54,0.8,5.23,1.25c1.62,0.44,3.15,0.85,4.7,1.14c1.81,0.34,3.65,0.54,5.61,0.75c1.6,0.17,3.25,0.34,4.9,0.61 c2.45,0.39,5.02,0.59,7.5,0.78c0.97,0.08,1.95,0.15,2.92,0.24c3.97,0.35,7.24,0.48,10.31,0.39c1.09-0.03,2.19-0.02,3.28-0.01 c2.45,0.02,4.77,0.04,6.95-0.41c2.5-0.51,4.91-1.64,7.46-2.84c0.64-0.3,1.28-0.6,1.93-0.89c0.57-0.26,1.14-0.51,1.71-0.76 c2.36-1.04,4.59-2.02,6.54-3.38c2.07-1.45,3.98-3.15,6-4.95l1.24-1.1c2.48-2.18,4.91-4.49,7.05-6.52c1.25-1.19,2.5-2.47,3.7-3.71 c1.18-1.21,2.4-2.47,3.66-3.67c1.33-1.27,2.65-2.62,3.93-3.93c1.13-1.16,2.26-2.31,3.42-3.44c0.75-0.73,1.5-1.46,2.25-2.18 c1.71-1.66,3.48-3.37,5.18-5.08c1.16-1.16,2.37-2.27,3.54-3.34c1.41-1.29,2.74-2.51,3.99-3.82c1.3-1.36,2.49-2.8,3.75-4.31 c0.97-1.17,1.97-2.37,3.02-3.53c0.96-1.06,1.95-2.1,2.94-3.13c1.44-1.51,2.81-2.94,4.09-4.46c1.68-2,3.32-4.12,4.9-6.17 c0.5-0.65,1-1.3,1.5-1.94c0.89-1.15,1.83-2.26,2.74-3.34c1.34-1.59,2.61-3.09,3.74-4.7c1.06-1.5,1.94-3.14,2.87-4.88 c0.72-1.33,1.46-2.71,2.3-4.05c0.88-1.4,1.89-2.69,2.85-3.94c1.17-1.51,2.28-2.94,3.12-4.47c1.02-1.86,1.86-3.81,2.76-5.87 c0.5-1.16,1.01-2.33,1.55-3.48c0.58-1.24,2.05-1.77,3.29-1.19c1.24,0.58,1.77,2.05,1.19,3.29c-0.52,1.1-1,2.23-1.49,3.35 c-0.9,2.08-1.83,4.23-2.96,6.29c-1.03,1.88-2.31,3.53-3.55,5.12c-0.94,1.21-1.82,2.35-2.57,3.54c-0.75,1.19-1.42,2.44-2.13,3.75 c-0.96,1.79-1.96,3.64-3.19,5.39c-1.25,1.78-2.65,3.43-4,5.03c-0.88,1.04-1.78,2.12-2.62,3.19c-0.5,0.64-0.99,1.28-1.49,1.92 c-1.61,2.09-3.28,4.26-5.04,6.34c-1.38,1.64-2.86,3.19-4.3,4.69c-0.96,1-1.91,2-2.84,3.03c-0.98,1.09-1.95,2.25-2.89,3.38 c-1.26,1.52-2.56,3.08-3.98,4.56c-1.37,1.43-2.82,2.77-4.23,4.05c-1.18,1.08-2.29,2.1-3.37,3.18c-1.73,1.74-3.52,3.47-5.24,5.14 c-0.75,0.72-1.49,1.45-2.24,2.17c-1.13,1.1-2.23,2.23-3.33,3.36c-1.31,1.34-2.66,2.72-4.05,4.05c-1.19,1.14-2.38,2.36-3.53,3.54 c-1.24,1.27-2.52,2.59-3.85,3.85c-2.17,2.07-4.64,4.41-7.18,6.65l-1.22,1.08c-2.04,1.81-4.14,3.68-6.45,5.3 c-2.35,1.65-4.91,2.77-7.39,3.86c-0.55,0.24-1.11,0.49-1.66,0.74c-0.62,0.28-1.25,0.57-1.87,0.86c-2.7,1.27-5.5,2.58-8.57,3.2 c-2.69,0.55-5.38,0.53-7.98,0.51c-1.03-0.01-2.07-0.02-3.1,0.01C342.33,134.32,341.64,134.33,340.94,134.33z M375.76,342.36 c3.09-2.29,6.04-4.85,8.26-6.83c1.02-0.9,2.15-1.74,3.34-2.63c1.68-1.25,3.42-2.54,4.99-4.13c2.4-2.44,4.74-5.06,7.01-7.59 l0.23-0.26c1.41-1.58,2.69-3.28,3.92-4.91c0.9-1.2,1.76-2.34,2.67-3.44c0.79-0.95,1.59-1.9,2.39-2.84c1.46-1.72,2.97-3.51,4.39-5.33 c0.92-1.19,1.89-2.37,2.84-3.51c1.27-1.54,2.58-3.13,3.79-4.76c2.27-3.07,4.31-5.84,6.24-8.55c1.07-1.51,1.95-3.93,2.84-6.48 l0.17-0.49c0.86-2.47,0.8-5.12,0.75-7.45l-0.01-0.55c-0.04-1.85-0.18-3.69-0.32-5.47c-0.11-1.48-0.23-3-0.28-4.48 c-0.05-1.45-0.06-2.95-0.06-4.4c-0.01-1.82-0.02-3.7-0.11-5.57c-0.09-1.89-0.26-3.79-0.43-5.62c-0.13-1.44-0.26-2.87-0.35-4.31 c-0.13-1.97-0.31-3.95-0.49-5.87c-0.13-1.35-0.26-2.7-0.36-4.06c-0.12-1.45-0.19-2.9-0.27-4.36c-0.1-1.82-0.2-3.71-0.37-5.59 c-0.17-1.83-0.49-3.62-0.8-5.35c-0.28-1.55-0.54-3.02-0.7-4.5c-0.16-1.46-0.17-2.96-0.17-4.55c-0.01-1.76-0.02-3.59-0.24-5.43 c-0.23-1.83-0.57-3.62-0.91-5.36c-0.3-1.54-0.58-2.99-0.78-4.46c-0.17-1.23-0.33-2.45-0.49-3.68c-0.26-2.03-0.54-4.12-0.86-6.19 l-0.04-0.25c-0.67-4.39-1.44-9.36-4.93-12.8c-3.01-2.96-6.86-4.84-10.54-6.5c-3.05-1.38-5.59-1.99-8.06-2.58 c-0.83-0.2-1.66-0.4-2.51-0.63c-1.61-0.44-3.34-0.96-5.33-1.56c-1.45-0.44-3.04-0.92-4.85-1.45c-0.76-0.22-1.57-0.45-2.42-0.69 c-2.26-0.63-4.82-1.35-7.71-2.34c-1.29-0.44-2.7,0.25-3.14,1.54c-0.44,1.29,0.25,2.7,1.54,3.14c3.02,1.04,5.66,1.77,7.98,2.42 c0.83,0.23,1.62,0.45,2.37,0.67c1.79,0.52,3.37,1,4.81,1.43c2.03,0.61,3.79,1.14,5.47,1.6c0.9,0.24,1.77,0.45,2.65,0.66 c2.34,0.56,4.55,1.09,7.17,2.27c3.28,1.48,6.68,3.13,9.11,5.52c2.32,2.29,2.93,6.22,3.51,10.02l0.04,0.25 c0.31,2.01,0.58,4.08,0.84,6.08c0.16,1.24,0.32,2.48,0.5,3.72c0.22,1.6,0.53,3.19,0.83,4.72c0.34,1.73,0.65,3.37,0.86,5.03 c0.19,1.55,0.2,3.15,0.21,4.84c0.01,1.64,0.02,3.34,0.2,5.06c0.18,1.65,0.47,3.27,0.75,4.83c0.3,1.71,0.59,3.32,0.75,4.95 c0.17,1.77,0.26,3.61,0.36,5.38c0.08,1.5,0.16,2.99,0.28,4.49c0.11,1.38,0.24,2.75,0.37,4.13c0.18,1.88,0.36,3.82,0.48,5.72 c0.1,1.48,0.23,2.96,0.36,4.44c0.16,1.79,0.33,3.63,0.42,5.43c0.09,1.76,0.1,3.58,0.1,5.34c0.01,1.48,0.01,3.02,0.07,4.55 c0.06,1.58,0.18,3.16,0.29,4.68c0.14,1.79,0.27,3.48,0.3,5.19l0.01,0.56c0.05,2.01,0.09,4.09-0.47,5.71l-0.18,0.51 c-0.51,1.46-1.45,4.18-2.2,5.23c-1.91,2.67-3.93,5.42-6.19,8.48c-1.12,1.52-2.34,2.99-3.62,4.55c-0.97,1.17-1.96,2.38-2.93,3.62 c-1.35,1.73-2.82,3.48-4.25,5.16c-0.81,0.96-1.63,1.92-2.43,2.89c-0.98,1.19-1.91,2.42-2.81,3.61c-1.23,1.63-2.39,3.17-3.66,4.6 l-0.23,0.26c-2.22,2.49-4.52,5.07-6.84,7.41c-1.3,1.32-2.81,2.44-4.41,3.63c-1.23,0.91-2.5,1.86-3.68,2.91 c-2.15,1.91-4.98,4.38-7.91,6.55c-1.1,0.81-1.33,2.36-0.52,3.46c0.49,0.66,1.23,1,1.99,1C374.8,342.85,375.31,342.69,375.76,342.36z M432.81,141.7c1.69-2.34,2.01-5.14,2.3-7.61c0.1-0.86,0.19-1.67,0.34-2.42c0.31-1.61,0.63-3.14,0.95-4.61 c0.35-1.65,0.69-3.21,0.97-4.76c0.55-3.04,0.99-5.92,1.42-8.71l0.12-0.76c0.14-0.93,0.3-1.86,0.45-2.8c0.35-2.14,0.71-4.35,1-6.7 c0.15-1.18,0.34-2.39,0.54-3.65c0.29-1.85,0.6-3.77,0.8-5.87c0.14-1.36-0.86-2.57-2.22-2.71c-1.37-0.14-2.57,0.86-2.71,2.22 c-0.2,1.95-0.49,3.8-0.77,5.59c-0.21,1.31-0.41,2.57-0.56,3.81c-0.28,2.25-0.63,4.41-0.97,6.51c-0.15,0.95-0.31,1.9-0.46,2.84 l-0.12,0.76c-0.43,2.76-0.87,5.61-1.4,8.59c-0.26,1.47-0.59,2.99-0.93,4.6c-0.32,1.51-0.66,3.07-0.97,4.73 c-0.18,0.93-0.28,1.86-0.39,2.77c-0.24,2.05-0.46,3.99-1.4,5.29c-1.29,1.79-3.93,2.84-5.66,2.25c-1.29-0.44-2.7,0.25-3.14,1.55 c-0.44,1.29,0.25,2.7,1.55,3.14c0.86,0.29,1.75,0.43,2.64,0.43C427.62,146.17,431.03,144.17,432.81,141.7z M459.37,261.55 c3.6-1.17,6.95-3,9.96-5.45c3.09-2.51,5.78-5.46,7.77-7.75c0.82-0.94,1.65-1.85,2.47-2.75c1.67-1.84,3.25-3.57,4.6-5.36 c0.83-1.09,0.61-2.64-0.47-3.47c-1.09-0.83-2.64-0.61-3.47,0.47c-1.22,1.61-2.73,3.27-4.32,5.02c-0.84,0.92-1.69,1.86-2.53,2.83 c-1.87,2.14-4.37,4.89-7.17,7.16c-2.54,2.06-5.35,3.6-8.37,4.59c-2.09,0.68-4.38,0.74-5.44,0.13c-0.35-0.2-0.53-0.46-0.62-0.89 c-0.29-1.33-1.6-2.18-2.95-1.89c-1.34,0.29-2.18,1.61-1.89,2.95c0.39,1.8,1.43,3.23,3,4.12c1.34,0.77,2.97,1.07,4.6,1.07 C456.24,262.34,457.96,262.01,459.37,261.55z M49.23,298.61c2.57-2.71,4.91-4.6,7.17-6.43l0.2-0.16c2.16-1.74,4.07-3.37,6.1-5.09 l1.8-1.53c2.15-1.82,4.83-4.09,7.67-7.39c2.38-2.77,4.05-5.38,5.51-7.69l0.58-0.91c2.22-3.46,4.13-6.45,4.96-9.54 c1.06-3.95,0.86-7.64,0.68-10.89c-0.06-1.1-0.16-2.23-0.26-3.39c-0.18-2.06-0.36-4.19-0.36-6.55c0-1.85,0.05-3.76,0.11-5.6 c0.06-1.97,0.12-4,0.11-6.03c-0.01-2.02-0.15-4.04-0.28-5.99c-0.13-1.94-0.26-3.78-0.27-5.63c-0.01-1.87,0.09-3.72,0.2-5.69 c0.11-1.93,0.22-3.93,0.21-5.94c-0.01-1.64-0.04-3.29-0.07-4.93c-0.03-1.63-0.06-3.26-0.07-4.89c-0.01-1.59,0.04-3.24,0.09-4.83 c0.05-1.63,0.1-3.32,0.09-5c-0.01-1.7-0.11-3.4-0.21-5.05c-0.1-1.65-0.19-3.2-0.2-4.77c-0.01-1.7-0.1-3.39-0.19-5.03 c-0.09-1.65-0.17-3.21-0.18-4.79c-0.01-1.69-0.09-3.38-0.17-5.01c-0.07-1.58-0.15-3.22-0.16-4.81c-0.01-1.6,0.03-3.25,0.06-4.84 c0.04-1.63,0.07-3.31,0.06-4.98c-0.01-1.49,0.17-3.01,0.35-4.62c0.19-1.68,0.39-3.42,0.38-5.21c-0.02-3.25-0.3-6.15-0.84-8.61 c-0.68-3.11-2.42-5.93-5.04-8.15c-0.69-0.59-1.04-0.93-1.31-1.19c-0.84-0.81-1.22-1.13-4.38-3.15c-1.15-0.73-2.68-0.39-3.42,0.76 c-0.73,1.15-0.39,2.68,0.76,3.42c2.88,1.83,3.06,2.01,3.59,2.53c0.31,0.3,0.73,0.71,1.55,1.41c1.78,1.51,2.96,3.39,3.41,5.44 c0.47,2.12,0.71,4.67,0.72,7.57c0.01,1.49-0.17,3.01-0.35,4.62c-0.19,1.68-0.39,3.42-0.38,5.21c0.01,1.6-0.03,3.25-0.06,4.84 c-0.04,1.63-0.07,3.31-0.06,4.98c0.01,1.69,0.09,3.38,0.17,5.01c0.07,1.58,0.15,3.22,0.16,4.81c0.01,1.7,0.1,3.39,0.19,5.03 c0.09,1.65,0.17,3.22,0.18,4.79c0.01,1.7,0.11,3.4,0.21,5.04c0.1,1.65,0.19,3.21,0.2,4.78c0.01,1.59-0.04,3.24-0.09,4.83 c-0.05,1.63-0.1,3.32-0.09,5c0.01,1.65,0.04,3.31,0.07,4.96c0.03,1.62,0.06,3.24,0.07,4.86c0.01,1.85-0.09,3.69-0.2,5.64 c-0.11,1.95-0.22,3.97-0.21,5.99c0.01,2.01,0.15,4.01,0.28,5.94c0.13,1.96,0.26,3.81,0.27,5.68c0.01,1.93-0.05,3.92-0.11,5.85 c-0.06,1.88-0.12,3.83-0.11,5.77c0.01,2.56,0.21,4.9,0.38,6.96c0.1,1.11,0.19,2.18,0.25,3.24c0.17,3.02,0.34,6.15-0.52,9.34 c-0.63,2.35-2.27,4.91-4.35,8.15l-0.59,0.93c-1.38,2.16-2.94,4.61-5.09,7.12c-2.58,3-5.09,5.13-7.11,6.84l-1.81,1.54 c-2,1.7-3.89,3.31-6,5.01l-0.2,0.16c-2.28,1.84-4.86,3.93-7.66,6.87c-0.94,0.99-0.9,2.56,0.09,3.5c0.48,0.45,1.09,0.68,1.7,0.68 C48.09,299.38,48.75,299.12,49.23,298.61z M112.74,240.52c2.49-0.07,5.12-0.93,7.81-2.56c0.82-0.5,1.63-1.01,2.45-1.53 c1.6-1.01,3.1-1.97,4.69-2.78c1.96-0.99,3.97-1.81,6.09-2.68l1.55-0.64c1.26-0.52,1.86-1.97,1.34-3.23 c-0.52-1.26-1.97-1.86-3.23-1.34l-1.53,0.63c-2.12,0.87-4.32,1.77-6.45,2.84c-1.81,0.91-3.49,1.98-5.12,3.02 c-0.78,0.49-1.55,0.99-2.34,1.46c-1.93,1.16-3.8,1.8-5.4,1.85c-0.77,0.05-1.79-0.39-2.32-0.94c-0.2-0.2-0.28-0.37-0.27-0.45 c0.08-1.36-0.96-2.53-2.33-2.62c-1.35-0.08-2.53,0.96-2.61,2.33c-0.09,1.51,0.5,3,1.67,4.19c1.45,1.5,3.72,2.44,5.81,2.44 C112.6,240.52,112.67,240.52,112.74,240.52z"/></g></svg>