<?xml version="1.0" encoding="UTF-8"?><svg xmlns="http://www.w3.org/2000/svg" xmlns:xlink="http://www.w3.org/1999/xlink" contentScriptType="text/ecmascript" fill="#000000" width="191.5" zoomAndPan="magnify" contentStyleType="text/css" viewBox="-2.3 -2.8 191.5 460.2" height="460.2" data-name="Layer 1" preserveAspectRatio="xMidYMid meet" version="1"><g id="change1_1"><path fill="#231f20" d="M69.6.55c15.91,3.35,19,23.72,19,23.72,19.25,6.14,22.32,52.18,22.32,52.18s-57.21,8.66-63.35-5,1.12-35.72,1.12-35.72-4.18-2.79-7-11.44,8.66-14,8.66-14S53.69-2.8,69.6.55Z"/></g><g id="change2_1"><path fill="#f4c799" d="M74.44,15.06c5.21.93,5.1,4.12,7.25,4.46,1.73.28,4.08-4.45,7.45,0,3.9,5.17-2.52,8.79-2.52,8.79C90.35,35,88,45.38,88,45.38,86.72,67,106.44,72.92,106.44,72.92L82.16,106.59,50.25,70.5C67,66.59,68.67,54.13,68.67,54.13c-15.07-2.05-19-26.05-16.37-30.51a16.78,16.78,0,0,0,2.23-8.93C59.93,17.66,69.23,14.13,74.44,15.06Z"/></g><g id="change1_2"><path fill="#231f20" d="M61.75,27.11a1.61,1.61,0,0,1,.08,1.79,5.57,5.57,0,0,1-3.38,3,1.61,1.61,0,0,1-1.24,0,1.17,1.17,0,0,1-.54-1.07,2.4,2.4,0,0,1,.39-1.18,5.92,5.92,0,0,1,1.48-1.78,6.51,6.51,0,0,1,1-.57l0,0a4.1,4.1,0,0,1,1.17-.42A1.22,1.22,0,0,1,61.75,27.11Zm6.36,0a7.3,7.3,0,0,0,2.62.5,1.85,1.85,0,0,0,1.78-.8,1.34,1.34,0,0,0-.18-1.28,3,3,0,0,0-1-.86,6.06,6.06,0,0,0-2.43-.86,3.28,3.28,0,0,0-1.27.15,2,2,0,0,0-.87.45,1.38,1.38,0,0,0-.07,1.66A3,3,0,0,0,68.11,27.1ZM69,39a.71.71,0,0,0-.85-.53.63.63,0,0,1-.54-.13c-1.36-.89-2.58-5.05-3-7.47a.71.71,0,0,0-.83-.57.72.72,0,0,0-.57.83c.13.7,1.34,6.89,3.65,8.4a2.14,2.14,0,0,0,1.19.37,1.73,1.73,0,0,0,.45,0A.71.71,0,0,0,69,39ZM75,35.61a.72.72,0,0,0-.79-.63.7.7,0,0,0-.62.78A6.76,6.76,0,0,1,72.43,41,5.37,5.37,0,0,1,69,42.78a.72.72,0,0,0-.68.74.71.71,0,0,0,.71.68h0A6.75,6.75,0,0,0,73.5,42C74.81,40.45,75.33,38.3,75,35.61ZM60.5,33.76a1,1,0,1,0,1.34.65A1,1,0,0,0,60.5,33.76Zm8.35-3a1,1,0,1,0,1.33.65A1,1,0,0,0,68.85,30.78Z"/></g><g id="change3_1"><path fill="#eb8b8f" d="M81.72,28.34a2.8,2.8,0,1,1-3.57-1.72A2.8,2.8,0,0,1,81.72,28.34Z"/></g><g id="change1_3"><path fill="#231f20" d="M68.07,55.11s-2,5.58-3.63,6.55c0,0,9.49-4,11-8.37C75.46,53.29,70.86,55.11,68.07,55.11Z"/></g><g id="change1_4"><path fill="#231f20" d="M84.11,25h0a.73.73,0,0,1-.69-.74c.06-1.63,1-4.73,4.06-4.73a.71.71,0,0,1,0,1.42c-2.48,0-2.63,3.23-2.64,3.36A.71.71,0,0,1,84.11,25Z"/></g><g id="change4_1"><path fill="#99b0dc" d="M82.86,19a.5.5,0,0,0-.71,0l-9.41,9.74a4.12,4.12,0,0,0-7.13,2.81,3.87,3.87,0,0,0,.08.77l-2,.92A4.11,4.11,0,0,0,56,35.15a4.76,4.76,0,0,0,.07.66l-3.29.67a.49.49,0,0,0-.39.59.5.5,0,0,0,.49.4H53l3.36-.69a4.12,4.12,0,0,0,7.92-1.62,4.24,4.24,0,0,0-.14-1l1.9-.89a4.12,4.12,0,0,0,7.87-1.73,4,4,0,0,0-.53-2l9.53-9.88A.51.51,0,0,0,82.86,19ZM60.11,38.28a3.13,3.13,0,1,1,3.13-3.13A3.13,3.13,0,0,1,60.11,38.28Zm9.63-3.63a3.13,3.13,0,1,1,3.13-3.13A3.13,3.13,0,0,1,69.74,34.65Z"/></g><g id="change4_2"><path fill="#99b0dc" d="M50.37,70.45S31.2,75.53,29,85.29s-2.86,35.16-4.26,41S6.25,139.67,2,150.27s-3.44,52.46,17.21,51.38l2.91-30.87,16.74-8.93-.34,12.48s56.92,4,81.5-7.11l5.82,22.9s25.67,2.27,34.9-9.71c0,0-23-86.55-34.15-98.29S106.55,73,106.55,73L82.72,102.13Z"/></g><g id="change4_3"><path fill="#99b0dc" d="M82.72,102.13,106.55,73s8.94-2.59,20.08,9.15,34.15,98.29,34.15,98.29c-9.23,12-34.9,9.71-34.9,9.71l-5.82-22.9c-24.58,11.12-81.5,7.11-81.5,7.11l.34-12.48-16.74,8.93-2.91,30.87C-1.4,202.73-2.16,160.87,2,150.27s21.24-18.1,22.65-24,2-31.25,4.26-41S50.37,70.45,50.37,70.45Z"/></g><g id="change5_1"><path fill="#3f3a6d" d="M54.69,120.62a.74.74,0,0,1,.06-1.05.73.73,0,0,1,1,.05,1,1,0,0,0,1.51-1.37.74.74,0,1,1,1.1-1,2.5,2.5,0,0,1-.17,3.54,2.47,2.47,0,0,1-1.68.65A2.54,2.54,0,0,1,54.69,120.62ZM112,165.36a.75.75,0,0,0,.05,1.5h0a4,4,0,1,0-.53-8,.74.74,0,0,0-.7.79.76.76,0,0,0,.79.7,2.53,2.53,0,1,1,.34,5.05Zm-12-33.27a2.4,2.4,0,0,0,.14-4.79.76.76,0,0,0-.79.7.75.75,0,0,0,.7.79.93.93,0,0,1,.62.31.91.91,0,0,1,.23.65.89.89,0,0,1-.31.62.91.91,0,0,1-.65.23.75.75,0,0,0-.09,1.49Zm-78.31,7.58a3.19,3.19,0,0,1,.47,2.44.74.74,0,0,0,.59.88l.15,0a.75.75,0,0,0,.73-.6,4.74,4.74,0,0,0-9.3-1.88.75.75,0,0,0,1.47.3,3.24,3.24,0,0,1,1.38-2.07,3.28,3.28,0,0,1,4.51.91Zm50-28.46a.75.75,0,0,0,.78-.71.26.26,0,0,1,.28-.26.27.27,0,0,1,.26.29.75.75,0,0,0,.71.78h0a.73.73,0,0,0,.74-.71,1.76,1.76,0,1,0-3.52-.17A.74.74,0,0,0,71.69,111.21ZM45.28,161.65a.76.76,0,0,0-1,.24,2,2,0,0,0-.24,1.47,1.93,1.93,0,0,0,.87,1.2,2,2,0,0,0,1,.29,1.93,1.93,0,0,0,1.65-.92.75.75,0,0,0-.24-1,.76.76,0,0,0-1,.25.45.45,0,0,1-.61.14.4.4,0,0,1-.19-.28.43.43,0,0,1,.05-.33A.75.75,0,0,0,45.28,161.65Zm83-24.66a4.54,4.54,0,0,0-1-6.32.75.75,0,0,0-1,.17.74.74,0,0,0,.17,1,3,3,0,0,1-3.55,4.92.75.75,0,0,0-.88,1.21,4.54,4.54,0,0,0,6.32-1ZM96.93,164.13a.74.74,0,0,0,.32,1.42.72.72,0,0,0,.32-.08,3.69,3.69,0,0,0-3.16-6.66.75.75,0,1,0,.64,1.35,2.22,2.22,0,0,1,1.68-.09A2.19,2.19,0,0,1,98,161.2a2.19,2.19,0,0,1-1,2.93Zm34.19-56.3a3.15,3.15,0,0,0-2.51-3.66.75.75,0,1,0-.27,1.47,1.64,1.64,0,0,1-.61,3.23.74.74,0,1,0-.27,1.46,2.86,2.86,0,0,0,.58.06,3.08,3.08,0,0,0,1.76-.55A3.12,3.12,0,0,0,131.12,107.83Zm-44.2,20.34a.75.75,0,0,0,1.06,0,.74.74,0,0,0,0-1.05,2.18,2.18,0,0,0-3.78,1.38,2.19,2.19,0,0,0,.57,1.56.75.75,0,0,0,.55.24.77.77,0,0,0,.51-.19.75.75,0,0,0,0-1.06.72.72,0,0,1-.18-.49.69.69,0,0,1,1.19-.43Zm60,58.25a2.45,2.45,0,0,0-3.34.92.75.75,0,0,0,1.3.74,1,1,0,0,1,1.31-.36.92.92,0,0,1,.44.58.75.75,0,0,1,0,.21c.49-.12,1-.26,1.46-.4A2.46,2.46,0,0,0,146.91,186.42Zm-33.26-83.85a.74.74,0,1,0-.29,1.46,1.64,1.64,0,0,0,.38,0,1.94,1.94,0,0,0,.37-3.84.74.74,0,1,0-.29,1.46.45.45,0,0,1,.35.53.45.45,0,0,1-.19.28A.43.43,0,0,1,113.65,102.57Zm-62.33,5.06a3.9,3.9,0,0,0,2.07.59,4,4,0,0,0,3.37-1.87.75.75,0,1,0-1.27-.78,2.46,2.46,0,0,1-3.39.79,2.41,2.41,0,0,1-1.1-1.52,2.48,2.48,0,0,1,.3-1.86.75.75,0,0,0-1.27-.79,4,4,0,0,0-.48,3A3.88,3.88,0,0,0,51.32,107.63Zm22.2,21a.75.75,0,0,0,.15,1.48l.15,0a2.46,2.46,0,0,0,1.91-2.89,2.45,2.45,0,0,0-2.89-1.91.74.74,0,0,0-.59.88.76.76,0,0,0,.88.58,1,1,0,1,1,.39,1.88Zm12.22,20.89A4.3,4.3,0,0,0,90,146.09a.75.75,0,0,0-1.47-.3,2.82,2.82,0,0,1-5.12,1,2.82,2.82,0,0,1-.41-2.12.74.74,0,0,0-.58-.88.75.75,0,0,0-.88.58,4.33,4.33,0,0,0,3.36,5.1A4.43,4.43,0,0,0,85.74,149.54ZM37.65,134.79a4.64,4.64,0,1,0,7-6.08.75.75,0,0,0-1.13,1,3.14,3.14,0,1,1-4.74,4.12.74.74,0,0,0-1.05-.08A.76.76,0,0,0,37.65,134.79ZM151.3,168.3a.73.73,0,0,0,.67.43.92.92,0,0,0,.32-.07,1.83,1.83,0,0,0-1.54-3.31.74.74,0,0,0-.36,1,.75.75,0,0,0,1,.37.33.33,0,1,1,.28.59A.74.74,0,0,0,151.3,168.3ZM4.48,148.1a2.06,2.06,0,0,0,1.57.72,2.08,2.08,0,0,0,1.35-.49.75.75,0,0,0-1-1.14.58.58,0,0,1-.82-.06.57.57,0,0,1,.07-.81.77.77,0,0,0,.08-1.06.75.75,0,0,0-.5-.25c-.45.55-.88,1.11-1.27,1.68A2.06,2.06,0,0,0,4.48,148.1Zm57.8,26a.68.68,0,0,0,.2,0,.74.74,0,0,0,.72-.55,4.44,4.44,0,1,0-8.57-2.33.75.75,0,1,0,1.44.39,2.95,2.95,0,0,1,5.69,1.55A.74.74,0,0,0,62.28,174.05ZM47.79,147a.75.75,0,1,0-1.42.48,3.13,3.13,0,1,1-5.93,2A.75.75,0,1,0,39,150a4.65,4.65,0,0,0,4.38,3.14,4.86,4.86,0,0,0,1.5-.25A4.63,4.63,0,0,0,47.79,147Zm78.69,7.5a2.07,2.07,0,0,0,.57-2.85,2.07,2.07,0,0,0-2.86-.58.75.75,0,0,0,.83,1.25.55.55,0,0,1,.43-.09.63.63,0,0,1,.36.24.59.59,0,0,1,.08.43.57.57,0,0,1-.24.36.75.75,0,0,0,.41,1.37A.72.72,0,0,0,126.48,154.49ZM115.9,118.12a4.46,4.46,0,0,0-6.06-1.77.75.75,0,0,0-.29,1,.74.74,0,0,0,1,.29,3,3,0,0,1,4,1.18,3,3,0,0,1-1.18,4,.74.74,0,0,0-.29,1,.73.73,0,0,0,.65.39.77.77,0,0,0,.36-.09,4.46,4.46,0,0,0,1.77-6.06ZM78.14,163.89a4,4,0,0,1,4.56,3.36.74.74,0,1,0,1.47-.22,5.5,5.5,0,0,0-10.87,1.64.75.75,0,0,0,.74.63h.11a.76.76,0,0,0,.63-.85A4,4,0,0,1,78.14,163.89Zm8.23-61.55h0a.75.75,0,0,0,0-1.49h0a3.71,3.71,0,0,1-2.09-.67l-.94,1.16A5,5,0,0,0,86.37,102.34ZM72.13,92.42a.74.74,0,0,0-.47-.94.73.73,0,0,0-.94.47,3.73,3.73,0,0,1-7.07-2.38.75.75,0,0,0-.47-.95.74.74,0,0,0-.94.47,5.21,5.21,0,0,0,3.28,6.61,5.08,5.08,0,0,0,1.66.28A5.23,5.23,0,0,0,72.13,92.42Zm34.11,56.71a4.43,4.43,0,0,0,.81.07,4.12,4.12,0,0,0,2.32-.71,4.19,4.19,0,0,0,1.14-5.81.75.75,0,0,0-1.24.84,2.69,2.69,0,0,1-4.47,3,.74.74,0,0,0-1-.2.75.75,0,0,0-.2,1A4.19,4.19,0,0,0,106.24,149.13Zm17.63-63.42a3.8,3.8,0,0,0-2.31,6.62.72.72,0,0,0,.49.19.73.73,0,0,0,.56-.25.74.74,0,0,0-.06-1,2.31,2.31,0,0,1,3.07-3.44.75.75,0,1,0,1-1.11A3.77,3.77,0,0,0,123.87,85.71Zm19.95,57.41a3.26,3.26,0,0,0,.55-2.46,3.32,3.32,0,0,0-1.36-2.13,3.27,3.27,0,0,0-2.46-.55.75.75,0,1,0,.26,1.47,1.82,1.82,0,0,1,2.09,1.47,1.8,1.8,0,0,1-1.47,2.09.75.75,0,0,0,.13,1.48h.13A3.32,3.32,0,0,0,143.82,143.12ZM95.45,115.44a2.49,2.49,0,0,1-3.17-1.54.74.74,0,1,0-1.41.48,4,4,0,0,0,3.77,2.69,3.84,3.84,0,0,0,1.29-.22,4,4,0,0,0,2.47-5.07.74.74,0,0,0-.94-.46.76.76,0,0,0-.47,1A2.49,2.49,0,0,1,95.45,115.44Zm45.78,43h.13a2,2,0,0,0,1.88-2.14.74.74,0,0,0-.79-.7.75.75,0,0,0-.7.79.53.53,0,0,1-.48.56.53.53,0,0,1-.56-.49.75.75,0,0,0-.79-.7.76.76,0,0,0-.7.8,2,2,0,0,0,2,1.88ZM31.74,163.22a.73.73,0,0,0-.44.95,4.84,4.84,0,0,1,.28,1.59L33,165a7,7,0,0,0-.33-1.33A.75.75,0,0,0,31.74,163.22Zm-9.34,4.27a.74.74,0,0,0-1-.44.75.75,0,0,0-.44,1,6.26,6.26,0,0,0,1.73,2.47l1.41-.76A4.69,4.69,0,0,1,22.4,167.49Zm4.77-42.33a5.11,5.11,0,0,0,2-6.94.75.75,0,0,0-1-.29.74.74,0,0,0-.29,1,3.62,3.62,0,0,1-1.39,4.92,3.69,3.69,0,0,1-1.39.43c-.08.57-.17,1.08-.25,1.51A5.13,5.13,0,0,0,27.17,125.16Zm132.26,56.77a2.25,2.25,0,0,1-.35-1.2,2.17,2.17,0,0,1,1.27-1.93l-.39-1.44a3.6,3.6,0,0,0-1.62,5.58C158.72,182.62,159.08,182.28,159.43,181.93ZM21,153.17a.74.74,0,0,0-.84.63,3,3,0,0,0,2.49,3.36,2.25,2.25,0,0,0,.44,0,2.89,2.89,0,0,0,1.76-.59,2.94,2.94,0,0,0,1.17-1.94.75.75,0,1,0-1.48-.22,1.43,1.43,0,0,1-.58,1,1.46,1.46,0,0,1-1.09.28A1.48,1.48,0,0,1,21.67,154,.75.75,0,0,0,21,153.17ZM136.13,179.4a6.76,6.76,0,0,0,4.24-3,.76.76,0,0,0-.24-1,.75.75,0,0,0-1,.24,5.31,5.31,0,1,1-9-5.62.76.76,0,0,0-.24-1,.75.75,0,0,0-1,.24,6.79,6.79,0,0,0,7.31,10.22ZM67,150a4.63,4.63,0,0,1,2.35,2.64.74.74,0,1,0,1.41-.48,6.12,6.12,0,0,0-11.57,4,.76.76,0,0,0,.71.51.69.69,0,0,0,.24-.05.74.74,0,0,0,.46-.95,4.63,4.63,0,0,1,2.86-5.88A4.58,4.58,0,0,1,67,150Zm71.81-27.87a.77.77,0,0,1-.61,0,.75.75,0,1,0-.47,1.42,2.27,2.27,0,0,0,.72.12,2.41,2.41,0,0,0,1-.25,2.3,2.3,0,0,0-.33-4.24.75.75,0,1,0-.46,1.42.84.84,0,0,1,.47.4.83.83,0,0,1,0,.62A.76.76,0,0,1,138.77,122.14ZM55,75.32a2.7,2.7,0,0,0,1,.7l-1.48-1.45A2.66,2.66,0,0,0,55,75.32ZM6.38,166.84A6.67,6.67,0,0,0,5,161.9a.75.75,0,0,0-1-.12.76.76,0,0,0-.12,1.05,5.17,5.17,0,0,1,1.1,3.84A5.13,5.13,0,0,1,3,170.17a5.11,5.11,0,0,1-2.77,1.11c0,.49.07,1,.11,1.47a6.62,6.62,0,0,0,3.59-1.41A6.66,6.66,0,0,0,6.38,166.84Zm98.44-84.06a.75.75,0,0,0,.84.64.73.73,0,0,0,.64-.83,5.39,5.39,0,0,0-3.94-4.5l-1.08,1.32A3.88,3.88,0,0,1,104.82,82.78Zm-1.18,13.07a3.22,3.22,0,0,0-.12-2.44.76.76,0,0,0-1-.36.75.75,0,0,0-.35,1,1.7,1.7,0,0,1,.06,1.29,1.65,1.65,0,0,1-.87,1,1.68,1.68,0,0,1-2.25-.8.76.76,0,0,0-1-.36.75.75,0,0,0-.35,1,3.11,3.11,0,0,0,1.8,1.63,3.15,3.15,0,0,0,1.08.19,3.11,3.11,0,0,0,1.36-.31A3.16,3.16,0,0,0,103.64,95.85ZM42.23,89.5a2.75,2.75,0,0,1-3.07-2.35.75.75,0,0,0-1.48.19A4.24,4.24,0,0,0,41.87,91a5.25,5.25,0,0,0,.56,0,4.23,4.23,0,0,0,3.63-4.75.74.74,0,0,0-1.47.19A2.75,2.75,0,0,1,42.23,89.5ZM11.53,190.85a5.51,5.51,0,0,0,1.85-10,.74.74,0,1,0-.81,1.25,4,4,0,0,1-4.37,6.73.77.77,0,0,0-1,.22.75.75,0,0,0,.22,1,5.47,5.47,0,0,0,3,.89A5.71,5.71,0,0,0,11.53,190.85ZM60.41,137a.75.75,0,0,0,1-.27,1.82,1.82,0,0,0,.2-1.42,1.85,1.85,0,0,0-.86-1.15,1.93,1.93,0,0,0-1.43-.2,1.9,1.9,0,0,0-1.15.87.75.75,0,0,0,1.29.76.38.38,0,0,1,.53-.14.4.4,0,0,1,.14.53A.75.75,0,0,0,60.41,137Zm-31-37.52a.74.74,0,0,0-.26,1,.27.27,0,0,1-.3.4.27.27,0,0,1-.16-.12.74.74,0,1,0-1.28.76,1.77,1.77,0,0,0,1.08.81,2.1,2.1,0,0,0,.43,0,1.72,1.72,0,0,0,.9-.25,1.76,1.76,0,0,0,.61-2.41A.74.74,0,0,0,29.4,99.47Zm11,11.51a.74.74,0,0,0-1,0,2.11,2.11,0,0,0,.09,3,2.08,2.08,0,0,0,1.44.57h.06a2.16,2.16,0,0,0,1.47-.66.75.75,0,0,0,0-1.06.74.74,0,0,0-1.05,0,.57.57,0,0,1-.42.19.56.56,0,0,1-.44-.16.6.6,0,0,1,0-.86A.74.74,0,0,0,40.37,111ZM39,77.46a3.38,3.38,0,0,0,.94.13,3.59,3.59,0,0,0,3.45-2.65.74.74,0,0,0-.52-.92.76.76,0,0,0-.92.53,2.07,2.07,0,0,1-1,1.27,2.1,2.1,0,0,1-1.59.2,2,2,0,0,1-1-.66c-.44.24-.86.49-1.29.75A3.56,3.56,0,0,0,39,77.46Z"/></g><g id="change5_2"><path fill="#3f3a6d" d="M120.11,167.15s42.7,123.07,44.37,137.58-10,89.44-10,89.44l-33.49.42s6.14-72,4.47-83.72-38-96-38-96l6.7,177.49-33.49,1.12L38.35,174.31C81,177.38,120.11,167.15,120.11,167.15Z"/></g><g id="change1_5"><path fill="#231f20" d="M94.16,392.36l4.19,64.19-60,.83c2.51-18.69,26.23-26.79,26.23-26.79l-3.91-37.11ZM121,394.59,117,456.27l72.28.83s-4.18-25.11-37.11-26.79c-.56-1.11,2.23-36.28,2.23-36.28Z"/></g><g id="change2_2"><path fill="#f4c799" d="M148.58,187.9s10.6,32,.84,50.41c-8.1,8.93-9.17-2-7.54-8.37,2.14-8.37-4.19-10.6-4.19-10.6l-9.58-29.12S140.11,190.13,148.58,187.9Z"/></g><g id="change1_6"><path fill="#231f20" d="M15.92,125.69l45-7.45,2,10.83-43.88,6.82Z"/></g><g id="change3_2"><path fill="#eb8b8f" d="M18.44,132.57l-1.29-5.23L59.46,120l1.1,5.19Z"/></g><g id="change1_7"><path fill="#231f20" d="M74.62,183.75,30,191.91l-3.13-4.11-11-62.11,2.93,3.91,45.39-7.84Z"/></g><g id="change3_3"><path fill="#eb8b8f" d="M59,144.09,30.54,149l-1.38-7.46,28.43-4.92Z"/></g><g id="change2_3"><path fill="#f4c799" d="M22.16,170.5s17.3-11.72,21.49-9.21S34.16,171.9,37,176.64s25.67-13.95,29-10.33-5.3,8.38-5.3,8.38,4.19-.56,2.79,1.95-20.37,24-43.53,17.86Z"/></g><g id="change1_8"><path fill="#231f20" d="M67.65,55.7a.74.74,0,0,1,0-1.47c.08,0,8-.1,10.55-4.25a.71.71,0,0,1,1-.24.72.72,0,0,1,.25,1c-3,4.85-11.43,5-11.79,5Z"/></g><g id="change1_9"><path fill="#231f20" d="M45.79,121.63h0a.71.71,0,0,1-.66-.76L46,107.66a.71.71,0,0,1,.76-.66.72.72,0,0,1,.66.76L46.5,121A.72.72,0,0,1,45.79,121.63Z"/></g><g id="change5_3"><path fill="#3f3a6d" d="M61.6,399.4a.72.72,0,0,1-.71-.69.71.71,0,0,1,.69-.73l31.81-1.12a.74.74,0,0,1,.74.68.72.72,0,0,1-.69.74L61.63,399.4Zm59,2.79,33.12-.75a.7.7,0,0,0,.69-.72.73.73,0,0,0-.72-.7l-33.12.75a.71.71,0,0,0,0,1.42Z"/></g><g id="change1_10"><path fill="#231f20" d="M44.21,184.33A.71.71,0,0,1,44,183c.11,0,10.29-3.92,16.27-8.81a.7.7,0,0,1,1,.1.71.71,0,0,1-.1,1c-6.16,5-16.24,8.88-16.66,9A.79.79,0,0,1,44.21,184.33Z"/></g><g id="change1_11"><path fill="#231f20" d="M138,220.06c-.25,0-.41,0-.43,0a.71.71,0,0,1,.18-1.41,4.16,4.16,0,0,0,3.33-1.35c1.43-1.49,2.84-4.95,1.47-12.89a.7.7,0,0,1,.57-.82.71.71,0,0,1,.83.58c1.18,6.87.55,11.63-1.86,14.14A5.7,5.7,0,0,1,138,220.06Z"/></g><g id="change1_12"><path fill="#231f20" d="M120.06,167.93a.72.72,0,0,1-.71-.61l-9.15-63.14a.71.71,0,0,1,1.41-.2l9.15,63.14a.7.7,0,0,1-.6.8Z"/></g></svg>