<?xml version="1.0" encoding="UTF-8"?><svg xmlns="http://www.w3.org/2000/svg" xmlns:xlink="http://www.w3.org/1999/xlink" contentScriptType="text/ecmascript" fill="#000000" width="187.5" zoomAndPan="magnify" contentStyleType="text/css" viewBox="-0.5 -0.4 187.5 180.2" height="180.2" preserveAspectRatio="xMidYMid meet" version="1"><g id="change1_1"><path fill="#b6dbcb" d="M186.9769,89.3702L186.9769,89.3702c-0.0071,4.8043-0.325,9.6017-0.9672,14.3632 c-2.547,18.8841-10.268,37.3085-23.3615,51.3187c-13.618,14.5714-32.3392,22.8885-52.1723,24.1294 c-10.5011,0.6571-21.0272-0.7113-31.3617-2.4901c-8.9329-1.5375-17.7989-3.6422-26.329-6.7341 c-15.615-5.6599-29.9341-14.9156-39.3016-28.8825c-5.0572-7.5402-8.4852-16.0788-10.566-24.8948 c-2.4955-10.5727-3.4053-21.7925-2.671-32.6296c1.3922-20.545,10.3385-40.0445,24.6272-54.8203 C39.4655,13.6412,59.1154,3.8586,79.8807,0.9748c9.7638-1.3559,19.7371-1.1504,29.5387-0.2776 c8.4351,0.7511,16.8454,2.1731,24.946,4.6769c15.1575,4.6851,28.7858,13.4332,37.8817,26.6087 C183.7403,48.6308,186.9542,69.5455,186.9769,89.3702L186.9769,89.3702L186.9769,89.3702L186.9769,89.3702z"/></g></svg>