<?xml version="1.0" encoding="UTF-8"?><svg xmlns="http://www.w3.org/2000/svg" xmlns:xlink="http://www.w3.org/1999/xlink" contentScriptType="text/ecmascript" fill="#000000" width="208.8" zoomAndPan="magnify" contentStyleType="text/css" viewBox="-0.1 -0.5 208.8 208.8" height="208.8" preserveAspectRatio="xMidYMid meet" version="1"><g id="change1_1"><path fill="#b6dbcb" d="M208.2037,66.3854c-19.4047-4.0098-39.3107-6.4872-59.1508-5.4663 c-5.3252,0.274-10.6321,0.8239-15.8987,1.657c-10.238-18.1553-25.0273-33.4886-42.8329-44.3358 C73.4295,7.9498,54.1103,1.803,34.3911,0.3388C23.0445-0.5038,11.612,0.2333,0.4566,2.4604 C0.1254,2.5266-0.0646,2.922,0.0201,3.2292c1.3292,4.8214,2.6584,9.6428,3.9875,14.4642c0.0944,0.3426,0.4368,0.5027,0.7688,0.4365 c16.2677-3.2419,33.21-2.5573,49.2124,1.7716c15.9076,4.3032,30.8672,12.205,43.1606,23.2079 c7.5681,6.7736,14.0446,14.6886,19.403,23.3065c-11.6854,3.6255-22.72,9.1628-32.288,16.8301 c-9.6479,7.7313-17.7262,17.4316-23.8939,28.1299c-6.0098,10.4245-10.2415,21.8764-12.3538,33.7258 c-2.1365,11.985-2.3234,24.6511,1.0898,36.4235c1.4989,5.1699,3.6533,10.2533,7.046,14.4752 c2.8865,3.592,6.6266,6.4586,10.8165,8.3689c8.3777,3.8197,18.0408,3.9557,26.8954,1.8734 c21.8494-5.1382,38.4825-23.4544,46.9575-43.5343c10.1802-24.1205,10.3382-51.582,2.5727-76.4064 c-0.8898-2.8442-1.8975-5.6487-2.9868-8.4223c16.4671-1.8239,33.1556-0.8729,49.4989,1.6431 c4.6807,0.7206,9.3395,1.5743,13.9772,2.5321c0.3307,0.0683,0.6743-0.0935,0.7688-0.4365 c1.3292-4.8214,2.6584-9.6428,3.9875-14.4642C208.7256,66.8445,208.5352,66.4539,208.2037,66.3854z M131.0833,139.7334 c-3.0873,14.7128-9.6558,28.953-20.7177,39.3708c-4.7187,4.444-10.3649,8.0498-16.4134,10.3924 c-5.8782,2.2766-12.7148,3.5363-18.7557,1.1192c-6.6668-2.6675-9.7227-9.109-11.04-15.7758 c-1.5183-7.6839-1.5674-15.8405-0.5936-23.5891c1.9994-15.9105,8.8846-31.2932,19.0859-43.6299 c9.6231-11.6375,22.2711-20.4226,36.5849-25.2572c1.6131-0.5449,3.2441-1.0319,4.8854-1.4838 c6.1647,14.2817,9.4225,29.893,8.6578,45.4702C132.5559,130.85,131.9875,135.3202,131.0833,139.7334z"/></g></svg>