<?xml version="1.0" encoding="UTF-8"?><svg xmlns="http://www.w3.org/2000/svg" xmlns:xlink="http://www.w3.org/1999/xlink" contentScriptType="text/ecmascript" fill="#000000" width="500.8" zoomAndPan="magnify" contentStyleType="text/css" viewBox="-0.1 0.0 500.8 308.7" height="308.7" preserveAspectRatio="xMidYMid meet" version="1"><g id="change1_1"><path fill="#eb8b8f" d="M434.71,286.68c-4.69,0.6-9.44,0.79-14.13,1.36c-4.7,0.57-9.41,0.97-14.11,1.52 c-4.7,0.55-9.37,1.36-14.07,1.88c-4.7,0.52-9.42,0.87-14.13,1.36c-4.71,0.5-9.39,1.14-14.1,1.61c-4.71,0.47-9.36,1.52-14.07,1.96 c-4.71,0.44-9.46,0.48-14.17,0.9c-4.71,0.42-9.42,0.89-14.14,1.28c-4.72,0.39-9.46,0.38-14.18,0.74 c-4.72,0.37-9.35,1.81-14.07,2.15c-4.72,0.34-9.47,0.31-14.19,0.62c-4.72,0.31-9.49-0.07-14.21,0.22 c-4.72,0.29-9.39,1.51-14.11,1.78c-4.72,0.26-9.46,0.42-14.18,0.66c-4.73,0.24-9.47,0.03-14.2,0.24 c-4.73,0.21-9.48-0.27-14.21-0.09c-4.73,0.18-9.44,0.73-14.17,0.89c-4.73,0.16-9.44,0.83-14.17,0.96 c-4.73,0.13-9.46,0.39-14.19,0.5c-4.73,0.1-9.46,0.27-14.19,0.35c-4.73,0.08-9.47-0.57-14.2-0.51c-4.73,0.05-9.46-0.41-14.19-0.38 c-4.73,0.03-9.46,1.3-14.19,1.3c-4.73,0-9.46-0.93-14.19-0.96c-4.73-0.03-9.46,0.35-14.2,0.29c-4.73-0.05-9.45-0.61-14.18-0.69 c-3.91-0.07-7.84-1.38-11.73-3.72c-3.48-2.09-7.38-4.26-10.12-7.59c-2.69-3.27-3.92-7.52-5.26-11.47 c-1.53-4.62-3.63-9.03-5.07-13.65c-1.45-4.64-3.06-9.22-4.42-13.87c-1.36-4.67-2.01-9.52-3.28-14.19 c-1.27-4.69-3.12-9.22-4.3-13.91c-1.19-4.71-2.14-9.48-3.23-14.19c-1.1-4.73-1.58-9.59-2.58-14.33c-1.01-4.75-2.31-9.43-3.23-14.19 c-0.91-4.77-2.42-9.43-3.24-14.2c-0.82-4.79-0.96-9.68-1.69-14.47c-0.73-4.8-1.94-9.53-2.57-14.33c-0.63-4.81-1.46-9.61-1.99-14.43 c-0.53-4.82,0.13-9.77-0.31-14.59c-0.44-4.83-1.93-9.58-2.27-14.42c-0.34-4.84,0.15-9.73-0.09-14.57 c-0.24-4.84-1.02-9.67-1.17-14.52c-0.15-4.85,0.21-9.71,0.16-14.56c-0.05-4.85-0.13-9.7-0.08-14.55c0.05-4.85,0.39-9.69,0.54-14.54 c0.13-4.3,1.35-8.34,3.68-11.83c2.31-3.46,5.56-6.25,9.31-8.29c3.63-1.97,7.68-3.93,12-4c4.85-0.08,9.71,0.86,14.56,0.8 c4.85-0.06,9.69-0.54,14.54-0.58c4.85-0.04,9.7-0.7,14.55-0.71c4.85-0.01,9.7,1.42,14.55,1.43c4.85,0.01,9.71-1.4,14.56-1.37 c4.85,0.03,9.7,0.15,14.55,0.2c4.85,0.05,9.7,0.51,14.54,0.59c4.85,0.08,9.68,1.08,14.53,1.18c4.85,0.1,9.7-0.08,14.55,0.04 c4.85,0.12,9.72-0.7,14.57-0.56c4.85,0.14,9.68,0.78,14.53,0.94c4.85,0.17,9.7,0.29,14.54,0.48c4.85,0.19,9.7,0.3,14.54,0.51 c4.84,0.21,9.71-0.02,14.56,0.21c4.84,0.23,9.67,0.89,14.51,1.15c4.84,0.26,9.69,0.41,14.54,0.69c4.84,0.28,9.69,0.42,14.53,0.72 c4.84,0.3,9.67,0.86,14.5,1.19c4.84,0.32,9.66,0.94,14.5,1.29c4.84,0.35,9.61,1.48,14.45,1.85c4.83,0.37,9.77-0.58,14.61-0.19 c4.83,0.39,9.67,0.79,14.5,1.21c4.83,0.41,9.67,0.8,14.5,1.24c4.83,0.44,9.59,1.68,14.41,2.14c4.83,0.46,9.69,0.59,14.51,1.07 c4.82,0.48,9.61,1.39,14.43,1.9c4.82,0.5,9.72,0.34,14.54,0.86c4.82,0.52,9.62,1.28,14.44,1.82c4.82,0.55,9.55,1.86,14.36,2.43 c4.82,0.57,9.71,0.45,14.53,1.04c4.81,0.59,9.56,1.68,14.38,2.29c6.16,0.81,11.99,2.92,16.33,6.45c5.06,4.11,7.69,9.66,7.69,15.24 c0,4.88,1.16,9.77,1.04,14.66c-0.12,4.87-1.61,9.71-1.85,14.59c-0.24,4.87-0.08,9.76-0.44,14.63c-0.36,4.86-1.34,9.66-1.81,14.53 c-0.47,4.85,0.11,9.82-0.48,14.67c-0.59,4.83-1.39,9.66-2.1,14.5c-0.71,4.82-1.96,9.56-2.78,14.38c-0.82,4.8-1.48,9.64-2.41,14.44 c-0.93,4.78-1.88,9.56-2.92,14.35c-1.04,4.75-1.82,9.59-2.97,14.34c-1.14,4.73-2.74,9.36-3.99,14.1c-1.24,4.7-2.97,9.28-4.33,13.99 c-1.35,4.67-2.8,9.32-4.25,14c-1.44,4.64-3.04,9.24-4.59,13.89c-1.54,4.61-2.14,9.57-3.78,14.18c-1.29,3.56-4.01,6.77-6.83,9.87 c-2.69,2.94-5.89,5.43-9.3,7.45C442.14,284.46,438.42,286.19,434.71,286.68z"/></g><g id="change2_1"><path fill="#fff6f5" d="M83.45,279.59c-1.67-4.64-2.43-9.57-3.99-14.21c-1.57-4.67-3.4-9.24-4.85-13.91 c-1.47-4.7-3.31-9.28-4.67-13.99c-1.36-4.73-1.6-9.76-2.85-14.5c-1.25-4.76-2.54-9.49-3.68-14.25c-1.14-4.79-3.06-9.39-4.09-14.18 c-1.03-4.81-1.29-9.77-2.21-14.58c-0.92-4.83-2.67-9.51-3.48-14.35c-0.81-4.85-1.7-9.7-2.39-14.55c-0.69-4.87-0.83-9.81-1.4-14.68 c-0.57-4.88-0.4-9.83-0.85-14.72c-0.45-4.89-1.59-9.72-1.92-14.62c-0.33-4.9-0.29-9.82-0.51-14.73c-0.21-4.91-0.35-9.81-0.45-14.72 c-0.1-4.91-0.57-9.82-0.54-14.73c0.02-4.91,0.62-9.81,0.76-14.72c0.14-4.9,0.83-9.78,1.09-14.69c0.17-3.16,2.2-6.54,5.36-6.61 c4.81-0.11,9.62-0.14,14.42-0.23c4.81-0.08,9.62,0.46,14.43,0.4c4.81-0.06,9.62,0.51,14.43,0.48c4.81-0.03,9.61-0.98,14.42-0.99 c4.81,0,9.62-0.28,14.43-0.26c4.81,0.02,9.61,1.19,14.41,1.24c4.81,0.05,9.62-0.17,14.42-0.1c4.81,0.07,9.62-0.23,14.43-0.14 c4.81,0.1,9.61,0.35,14.42,0.48c4.81,0.12,9.6,0.69,14.4,0.84c4.8,0.15,9.6,0.64,14.4,0.82c4.8,0.17,9.64-0.5,14.44-0.3 c4.8,0.2,9.59,0.86,14.39,1.08c4.8,0.22,9.64-0.27,14.44-0.02c4.8,0.25,9.56,1.26,14.36,1.53c4.8,0.28,9.66-0.39,14.45-0.09 c4.8,0.3,9.57,1.07,14.36,1.39c4.8,0.33,9.53,1.46,14.33,1.81c4.79,0.35,9.65-0.12,14.44,0.25c4.79,0.38,9.52,1.57,14.31,1.97 c4.79,0.4,9.66-0.12,14.45,0.3c4.79,0.43,9.61,0.56,14.39,1.01c4.79,0.45,9.49,1.78,14.27,2.25c4.78,0.48,9.52,1.35,14.31,1.85 c4.78,0.5,9.59,0.75,14.37,1.28c4.78,0.53,9.51,1.44,14.29,1.99c4.77,0.55,9.72-0.31,14.49,0.26c4.77,0.58,9.38,2.47,14.15,3.07 c4.77,0.6,9.6,0.73,14.37,1.35c3.16,0.42,6.39,2.77,6.46,5.36c0.11,4.66-0.95,9.34-0.97,14.01c-0.02,4.66,0.43,9.33,0.28,14 c-0.15,4.66-0.89,9.29-1.17,13.96c-0.28,4.65-0.59,9.3-1.01,13.95c-0.41,4.64-0.7,9.29-1.24,13.94c-0.54,4.62-1.5,9.19-2.17,13.83 c-0.67,4.61-0.74,9.31-1.54,13.93c-0.79,4.59-2.34,9.04-3.26,13.63c-0.91,4.56-1.89,9.11-2.93,13.68 c-1.03,4.54-1.69,9.16-2.84,13.7c-1.14,4.51-1.74,9.18-3,13.69c-1.25,4.48-2.39,9.02-3.76,13.5c-1.36,4.44-3.85,8.55-5.33,13 c-1.46,4.41-2.08,9.13-3.66,13.55c-1.56,4.38-3.01,8.83-4.69,13.21c-1.02,2.64-4.5,4.84-7.09,5.18c-4.71,0.62-9.46,0.96-14.18,1.55 c-4.72,0.59-9.47,0.84-14.19,1.39c-4.72,0.56-9.33,2.11-14.05,2.64c-4.73,0.53-9.53,0.34-14.25,0.84 c-4.73,0.5-9.48,0.75-14.21,1.22c-4.73,0.47-9.43,1.26-14.16,1.7c-4.73,0.44-9.49,0.57-14.23,0.98c-4.74,0.41-9.39,1.85-14.12,2.23 c-4.74,0.38-9.56-0.26-14.29,0.09c-4.74,0.35-9.43,1.37-14.17,1.69c-4.74,0.32-9.48,0.78-14.22,1.07 c-4.74,0.29-9.48,0.83-14.22,1.09c-4.75,0.26-9.52,0.03-14.27,0.26c-4.75,0.23-9.5,0.28-14.25,0.48c-4.75,0.2-9.48,0.93-14.23,1.1 c-4.75,0.17-9.54-0.79-14.29-0.66c-4.75,0.14-9.5,0.32-14.25,0.43c-4.75,0.11-9.48,1.3-14.23,1.37c-4.75,0.08-9.51-0.21-14.26-0.16 c-4.75,0.05-9.51-0.25-14.26-0.23c-4.75,0.02-9.51,0.18-14.26,0.17c-4.75-0.01-9.51,0.07-14.26,0.03 c-4.75-0.04-9.5-0.19-14.26-0.27c-4.75-0.07-9.51,0.11-14.26,0.01C88.15,285.46,84.57,282.7,83.45,279.59z"/></g><g id="change3_1"><path fill="#b6dbcb" d="M165.44,284.76c-0.29,2.66-1.6,5.34-4.18,6.92c-1.94,1.18-4.38,1.63-6.76,1.99 c-14.75,2.23-29.89,1.97-44.91,1.7c-3.4-0.06-6.81-0.12-10.21-0.18c-3.3-0.06-6.6-0.12-9.91-0.18c-2.41-0.04-5.24-0.28-6.5-1.98 c-0.13-0.18-0.24-0.37-0.33-0.57c-0.27-0.57-0.38-1.2-0.46-1.81c-0.19-1.32-0.34-2.64-0.45-3.96c-0.09-1.13-0.15-2.26-0.18-3.4 c-0.03-1.11-0.27-2.49,0-3.58c0.36-1.44-0.14-0.94,1.46-1.49c2.45-0.83,5.96-0.79,8.59-1.15c2.86-0.38,5.72-0.76,8.58-1.14 c17.53-2.35,35.15-4.72,51.99-9.31c3.1-0.85,6.22-1.78,9.48-1.99c0.95,4.06,1.9,8.13,2.85,12.2 C165.11,279.45,165.73,282.11,165.44,284.76z"/></g><g id="change4_1"><path fill="#3f3a6d" d="M87.42,268.6c2.47-2.27,5.93-3.29,9.12-4.06c3.94-0.93,7.91-1.6,11.94-1.91c0.42-0.03,0.85-0.06,1.27-0.09 c8.49-0.6,17-0.65,25.51-0.46c4.26,0.09,8.51,0.25,12.76,0.42c2.12,0.09,4.25,0.18,6.37,0.27c1.82,0.08,6.1-0.66,7.22,1.33 c0.28,0.49,0.27,1.1,0.25,1.66c-0.24,4.79-0.13,9.21-2.99,13.11c-2.58,3.51-5.06,4.17-13.36,5.43c-15.9,2.41-32.09,3.2-48.17,2.89 c-3.16-0.06-6.31-0.24-9.45-0.65c-2.08-0.27-5.83-0.43-7.04-2.56c-0.48-0.84-0.27-1.89-0.01-2.82 C81.99,277.11,84.23,271.54,87.42,268.6z M193.95,281.5c-6.1,0.59-11.68-1.96-15.36,2.88c-6.86,9.01,12.42,5.74,16.07,5.49 c7.75-0.53,15.51-1.06,23.26-1.59c2.85-0.19,5.75-0.4,8.4-1.45c1.68-0.66,3.79-1.89,4.88-3.35c2.69-3.62-7.83-2.74-9.26-2.66 c-4.36,0.24-8.73,0.19-13.09,0.06C205.01,280.77,197.77,281.13,193.95,281.5z"/></g><g id="change5_1"><path fill="#b6dbcb" d="M472.73,54.14c-0.82,0-1.63-0.4-2.1-1.15c-0.75-1.16-0.41-2.71,0.75-3.46c5.27-3.4,10.5-6.99,15.56-10.69 c1.12-0.81,2.68-0.57,3.49,0.54c0.82,1.11,0.57,2.68-0.54,3.49c-5.14,3.76-10.45,7.41-15.8,10.86 C473.66,54.01,473.2,54.14,472.73,54.14z M446.39,281.44c1.24-0.61,1.75-2.1,1.15-3.34c-2.76-5.64-6.45-10.7-10.97-15.06 c-1-0.96-2.58-0.93-3.54,0.07c-0.96,1-0.93,2.58,0.07,3.54c4.1,3.95,7.45,8.54,9.95,13.65c0.43,0.89,1.32,1.4,2.25,1.4 C445.67,281.7,446.04,281.61,446.39,281.44z M49.32,34.38c1.25-0.58,1.8-2.07,1.22-3.32c-3.7-7.99-15.16-21.27-24.7-23.87 c-1.33-0.36-2.71,0.42-3.07,1.75s0.42,2.71,1.75,3.07c7.64,2.08,18.29,14.26,21.48,21.15c0.42,0.91,1.33,1.45,2.27,1.45 C48.63,34.62,48.98,34.54,49.32,34.38z M82.18,290.65c-0.19-1.32-0.34-2.64-0.45-3.96c-0.46,0.38-0.86,0.71-1.25,1.05 c-0.99,0.85-1.93,1.64-3.94,3.18c-1.48,1.13-3.25,2.73-4.81,4.14c-0.5,0.44-0.98,0.88-1.43,1.28c-1.03,0.91-1.12,2.49-0.21,3.53 c0.5,0.55,1.18,0.84,1.87,0.84c0.59,0,1.19-0.21,1.66-0.64c0.46-0.4,0.95-0.85,1.46-1.3c1.49-1.35,3.17-2.87,4.49-3.88 c1.39-1.06,2.32-1.8,3.07-2.43C82.37,291.89,82.26,291.26,82.18,290.65z M110.26,284.43c2.61-0.21,5.24-0.5,7.78-0.79 c1.07-0.12,2.14-0.24,3.21-0.35c1.39-0.15,2.78-0.27,4.18-0.4c2.23-0.2,4.54-0.41,6.81-0.7c1.46-0.19,2.9-0.46,4.28-0.73 c1.62-0.31,3.15-0.6,4.69-0.76c3.62-0.38,6.95-1.37,9.92-2.94c4.25-2.25,4.93-5.81,5.47-8.68c0.23-1.23,0.45-2.38,0.9-3.49 c0.53-1.28-0.08-2.74-1.36-3.26c-1.28-0.53-2.74,0.08-3.26,1.36c-0.65,1.58-0.94,3.11-1.19,4.46c-0.52,2.74-0.86,4.11-2.89,5.19 c-2.4,1.27-5.12,2.07-8.1,2.38c-1.76,0.18-3.46,0.51-5.11,0.82c-1.37,0.26-2.67,0.51-3.99,0.68c-2.18,0.28-4.44,0.49-6.62,0.68 c-1.42,0.13-2.84,0.25-4.25,0.4c-1.08,0.11-2.16,0.23-3.23,0.35c-2.51,0.28-5.1,0.56-7.63,0.77c-2.8,0.23-5.63-0.14-8.63-0.53 c-1.26-0.16-2.51-0.33-3.77-0.45c-2.42-0.23-4.89-0.59-7.29-0.94c-1.76-0.26-3.58-0.52-5.4-0.74c-1.38-0.16-2.62,0.82-2.78,2.19 s0.81,2.61,2.19,2.78c1.75,0.21,3.54,0.47,5.27,0.72c2.45,0.35,4.99,0.72,7.53,0.96c1.2,0.12,2.4,0.27,3.6,0.43 c2.44,0.32,4.94,0.65,7.5,0.65C108.79,284.52,109.52,284.49,110.26,284.43z M73.42,308.59c1.32-0.42,2.04-1.83,1.62-3.14 c-0.69-2.16-1.31-4.33-1.97-6.62c-0.69-2.38-1.4-4.84-2.18-7.28c-0.75-2.33-1.67-4.64-2.55-6.86c-0.87-2.2-1.78-4.47-2.5-6.73 c-0.73-2.27-1.38-4.65-2.01-6.95c-0.62-2.28-1.27-4.64-2.01-6.97c-0.86-2.71-1.69-5.44-2.52-8.18c-0.57-1.89-1.15-3.78-1.73-5.67 c-0.98-3.15-1.92-6.33-2.86-9.5c-0.43-1.45-0.86-2.9-1.3-4.36c-0.51-1.72-1.04-3.43-1.56-5.14c-0.87-2.85-1.78-5.8-2.61-8.71 c-0.62-2.16-1.32-4.32-2-6.4c-0.79-2.43-1.61-4.95-2.27-7.42c-0.53-1.98-1.11-3.95-1.68-5.91c-0.77-2.63-1.56-5.35-2.22-8.01 c-0.68-2.73-1.26-5.56-1.81-8.28c-0.4-1.96-0.79-3.91-1.23-5.84c-0.62-2.76-1.11-5.61-1.57-8.36c-0.32-1.91-0.66-3.89-1.04-5.83 c-0.44-2.21-0.99-4.38-1.53-6.48c-0.67-2.61-1.31-5.08-1.71-7.58c-0.44-2.71-0.75-5.51-1.06-8.22c-0.21-1.88-0.42-3.75-0.68-5.62 c-0.34-2.52-0.53-5.14-0.72-7.67c-0.15-2.04-0.31-4.14-0.54-6.22c-0.25-2.22-0.62-4.43-0.99-6.57c-0.43-2.5-0.83-4.85-1.05-7.25 c-0.29-3.19-0.52-6.45-0.74-9.61c-0.1-1.44-0.2-2.88-0.31-4.32c-0.14-1.94-0.31-3.88-0.48-5.82c-0.23-2.66-0.48-5.42-0.64-8.11 c-0.19-3.16-0.34-6.32-0.48-9.49c-0.07-1.49-0.14-2.99-0.21-4.48c-0.14-2.77-0.23-5.54-0.33-8.31c-0.07-1.89-0.13-3.78-0.21-5.67 c-0.11-2.53-0.17-5.07-0.24-7.6c-0.06-2.13-0.11-4.26-0.19-6.38c-0.09-2.32-0.1-4.71-0.11-7.02c-0.01-2.28-0.02-4.65-0.1-6.98 c-0.2-5.57,0.14-10.4,0.86-12.29C26.42,8.27,31.35,5,38.63,5c1.38,0,2.5-1.12,2.5-2.5S40.01,0,38.63,0 C26.08,0,21.13,8.11,19.3,12.95c-1.39,3.67-1.29,11.18-1.18,14.24c0.08,2.26,0.09,4.59,0.1,6.83c0.01,2.35,0.02,4.77,0.11,7.18 c0.08,2.11,0.13,4.22,0.19,6.33c0.07,2.56,0.14,5.12,0.24,7.68c0.08,1.88,0.14,3.76,0.21,5.63c0.1,2.79,0.2,5.59,0.33,8.38 c0.07,1.49,0.14,2.97,0.21,4.46c0.15,3.19,0.29,6.37,0.48,9.56c0.17,2.76,0.41,5.55,0.65,8.25c0.17,1.92,0.34,3.83,0.48,5.75 c0.11,1.43,0.21,2.86,0.31,4.29c0.22,3.18,0.45,6.48,0.75,9.72c0.24,2.59,0.67,5.16,1.1,7.64c0.35,2.07,0.72,4.2,0.95,6.28 c0.22,1.99,0.37,4.05,0.52,6.04c0.19,2.61,0.39,5.3,0.75,7.97c0.25,1.83,0.45,3.68,0.66,5.52c0.31,2.77,0.64,5.63,1.09,8.45 c0.44,2.72,1.13,5.42,1.8,8.03c0.52,2.03,1.06,4.13,1.47,6.2c0.37,1.87,0.7,3.82,1.02,5.7c0.48,2.82,0.97,5.73,1.63,8.63 c0.43,1.9,0.82,3.81,1.21,5.74c0.56,2.78,1.15,5.66,1.86,8.5c0.69,2.75,1.49,5.52,2.27,8.2c0.56,1.93,1.13,3.87,1.65,5.82 c0.7,2.59,1.54,5.17,2.34,7.66c0.66,2.04,1.35,4.16,1.95,6.24c0.84,2.95,1.75,5.92,2.63,8.79c0.52,1.7,1.04,3.41,1.55,5.11 c0.43,1.45,0.86,2.9,1.29,4.35c0.95,3.2,1.9,6.39,2.88,9.56c0.58,1.88,1.15,3.76,1.72,5.64c0.84,2.76,1.67,5.5,2.53,8.23 c0.71,2.23,1.34,4.54,1.95,6.78c0.64,2.35,1.31,4.79,2.07,7.16c0.78,2.43,1.71,4.78,2.62,7.06c0.89,2.25,1.74,4.37,2.44,6.55 c0.76,2.37,1.46,4.79,2.14,7.14c0.64,2.22,1.3,4.52,2.01,6.75c0.34,1.06,1.32,1.74,2.38,1.74 C72.91,308.71,73.17,308.67,73.42,308.59z"/></g></svg>