<?xml version="1.0" encoding="UTF-8"?><svg xmlns="http://www.w3.org/2000/svg" xmlns:xlink="http://www.w3.org/1999/xlink" contentScriptType="text/ecmascript" fill="#000000" width="30.7" zoomAndPan="magnify" contentStyleType="text/css" viewBox="-0.6 0.0 30.7 56.7" height="56.7" preserveAspectRatio="xMidYMid meet" version="1"><g data-name="Layer 2"><g id="change1_1" data-name="Layer 1"><path fill="#ffe8e5" d="M16.28,56.66a3.52,3.52,0,0,1-.9-.24c-6-2.28-10.63-7.49-13-13.44A37.57,37.57,0,0,1,.41,24,76.45,76.45,0,0,1,3.57,10.69C4.72,7.1,5.7,3.22,9.49,1.58A17.92,17.92,0,0,1,15.07.42Q19.81,0,24.58,0c1.52,0,3.28.16,4.15,1.41a3.67,3.67,0,0,1,.5,2.41C29,6.77,26.84,9.47,27.28,12.4c.35,2.31,2.25,4.2,2.44,6.53.44,5.25-7.63,8.21-7.28,13.48.2,3.08,3.36,5.47,3.24,8.56s-3.43,5-5.32,7.51a9.24,9.24,0,0,0-1.78,4.44c-.18,1.5-.38,3.54-1.89,3.74A1.41,1.41,0,0,1,16.28,56.66Z"/></g></g></svg>