<?xml version="1.0" encoding="UTF-8"?><svg xmlns="http://www.w3.org/2000/svg" xmlns:xlink="http://www.w3.org/1999/xlink" contentScriptType="text/ecmascript" fill="#000000" width="495.4" zoomAndPan="magnify" contentStyleType="text/css" viewBox="-0.6 -0.6 495.4 292.4" height="292.4" preserveAspectRatio="xMidYMid meet" version="1"><g id="change1_1"><path fill="#fdfdfb" d="M157.35,111.07c69.35-0.57,138.63,3.89,207.54,11.69c32.02,3.63,64.24,7.72,94.84,17.83 c15.11,5,31.99,14.38,33.26,30.25c0.99,12.32-8.13,22.97-17.13,31.44c-23.92,22.52-51.25,41.05-78.44,59.47 c-12.01,8.14-24.2,16.37-37.9,21.15c-25.46,8.89-53.37,5.05-80.05,1.12c-50.96-7.52-101.93-15.04-152.89-22.56 C89.5,256,52.1,250.45,16.96,237.42c-4.83-1.79-9.82-3.87-13.07-7.87c-3.56-4.38-4.44-10.46-3.6-16.03 c2.22-14.73,14.6-25.5,26.17-34.88c24.26-19.7,48.53-39.4,72.79-59.1C99.25,119.54,117.34,111.4,157.35,111.07z"/></g><g id="change2_1"><path fill="#f59921" d="M425.65,164.32c-1.61,3.84-3.82,7.5-7,9.98c-3.1,2.41-6.87,3.53-10.56,4.58 c-16.87,4.77-39.77,11.2-63.27,17.3c-7.25,1.87-14.56,3.73-21.75,5.48c-20.63,5.05-40.43,9.37-55.69,11.6 c-7.38,1.07-14.79,2.06-22.23,2.1c-8.04,0.03-16.01-1.06-23.97-2.13c-28.6-3.89-57.2-7.76-85.78-11.65 c-20.25-2.74-40.98-5.65-58.98-15.71c-2.09-1.17-4.25-2.57-5.21-4.87c-0.79-1.91-0.59-4.11-0.38-6.21 c1.45-14.65,2.91-29.3,4.36-43.95c0.44-4.46,0.91-8.99,2.63-13.1c4.42-10.51,15.66-15.4,25.92-18.95 c36.35-12.57,73.39-19.48,110.99-25.51c35.04-5.63,102.3-7.17,136.34,1.17c21.05,5.16,42.54,12.19,58.53,27.55 C425.57,117.37,434.56,143.1,425.65,164.32z"/></g><g id="change3_1"><path fill="#87bfa8" d="M447.17,147.48c-24.33,12.38-52.68,8.91-79.29,8.69c-5.87-0.05-11.74-0.16-17.6-0.32 c-6.98-0.19-13.96-0.43-20.95-0.69c-16.3-0.59-32.58-1.25-48.8-1.41c-28.32-0.27-55.3-9.37-82.73-15.39 c-45.18-9.89-102.6-12.97-142.35-38.05c-28.72-18.12-25.26-51.99,5.37-63.3c39.34-14.52,81.56-24.1,122.74-31.51 c18.72-3.37,37.67-6.1,56.67-5.39c19.98,0.75,39.59,5.3,59.07,9.81C345.9,20.75,392.5,31.57,439.09,42.4 c5.48,1.27,11.27,2.71,15.24,6.72c3.67,3.71,5.14,9.02,6.19,14.14C464.47,82.48,469.77,135.98,447.17,147.48z"/></g><g id="change4_1"><path fill="#3f3a6d" d="M350.28,155.85c-0.61,13.56-2.44,27.07-5.46,40.31c-7.25,1.87-14.56,3.73-21.75,5.48 c1.13-4.47,3.56-9.26,4.47-13.48c2.34-10.91,2.84-21.97,1.8-33.01C336.32,155.42,343.3,155.67,350.28,155.85z M286.88,188.11 c3.68,3.01,9.18,4.02,13.87,3.79c0.19-0.01,0.38-0.02,0.58-0.04c8.41-0.53,13.88-7.79,14.65-15.8c0.34-3.51-0.6-7.23-2.99-9.82 c-7.52-8.15-19.94-4.06-26.19,3.51c-2.9,3.51-4.89,8.23-3.6,12.8C283.86,184.89,285.18,186.72,286.88,188.11z M186.39,20.1 c-7.98,1.91-15.92,4.03-23.72,6.59c-4.94,1.62-16.56,3.8-18.46,9.71c-2.96,9.21,34.3,11.3,40.59,10.35 c5.36-0.82,10.52-2.57,15.65-4.32c4.36-1.49,8.71-2.97,13.07-4.46c10.95-3.73,21.97-7.5,32.07-13.13c2.74-1.53,5.79-4.7,4-7.28 c-0.57-0.82-1.51-1.29-2.43-1.69c-6.14-2.7-12.89-3.98-19.59-3.72c-4.79,0.19-9.51,1.15-14.21,2.12 C204.35,16.12,195.34,17.96,186.39,20.1z"/></g><g id="change5_1"><path fill="#231f20" d="M242.46,217.25c3.96-3.61,6.44-8.16,8.15-11.72c2.28-4.72,3.75-9.07,4.52-13.3 c0.72-3.97,0.76-7.97,0.8-11.83l0.02-1.95c0.02-1.48,0.07-2.96,0.12-4.44c0.1-2.98,0.21-6.05,0.09-9.12 c-0.15-3.78-0.57-8.15-2.62-11.92c-0.65-1.2-2.14-1.64-3.34-0.99c-1.2,0.65-1.64,2.14-0.99,3.34c1.56,2.88,1.9,6.39,2.03,9.76 c0.11,2.88,0.01,5.87-0.09,8.76c-0.05,1.51-0.1,3.02-0.13,4.53l-0.02,1.98c-0.04,3.83-0.08,7.45-0.72,11.01 c-0.68,3.79-2.03,7.72-4.11,12.03c-2.27,4.7-4.44,7.85-7.04,10.23c-1.01,0.92-1.08,2.48-0.16,3.48c0.49,0.53,1.15,0.8,1.82,0.8 C241.39,217.89,241.98,217.68,242.46,217.25z M453.19,56.12c-2.11,0.36-4.23,0.61-6.48,0.88c-2.71,0.32-5.51,0.65-8.3,1.19 c-4.37,0.86-9.47,1.86-14.64,2.94c-4.82,1.01-9.69,2.02-14.62,3.09c-2.41,0.52-4.88,1.15-7.28,1.76c-2.36,0.6-4.81,1.23-7.26,1.76 c-2.42,0.53-4.85,1.09-7.27,1.65c-2.44,0.56-4.88,1.13-7.32,1.66c-2.59,0.57-5.21,1.08-7.74,1.58c-2.29,0.45-4.65,0.91-6.94,1.4 c-2.37,0.51-4.75,1.15-7.05,1.76c-2.45,0.65-4.99,1.33-7.5,1.85c-3.02,0.63-6,1.17-8.89,1.7c-1.98,0.36-3.93,0.72-5.84,1.09 c-3.05,0.6-6.02,1.01-8.9,1.4c-2.08,0.29-4.04,0.56-5.95,0.89c-2.31,0.4-4.57,0.97-6.97,1.58c-2.11,0.54-4.3,1.09-6.51,1.51 c-2.07,0.39-4.16,0.64-6.18,0.87c-2.6,0.31-5.07,0.6-7.43,1.17c-2.99,0.73-5.94,1.85-8.8,2.93c-1.37,0.52-2.74,1.04-4.1,1.51 c-0.84,0.29-1.68,0.58-2.52,0.86c-3.6,1.22-7,2.38-10.03,4.02c-3.23,1.75-6.6,6.66-8.78,12.83c-1.97,5.55-2.89,11.87-2.36,16.1 c0.6,4.72,2.43,9.32,5.29,13.3c2.83,3.94,6.63,7.05,10.99,9.02c1.24,0.56,1.8,2.02,1.24,3.26c-0.41,0.91-1.31,1.45-2.25,1.45 c-0.34,0-0.68-0.07-1.01-0.22c-5.15-2.32-9.64-5.99-12.97-10.63c-3.34-4.65-5.48-10.03-6.18-15.56c-0.64-5.02,0.36-12.06,2.6-18.37 c1-2.82,3.49-8.85,7.62-12.89c-0.81-0.14-1.64-0.28-2.48-0.42c-2.11-0.37-4.29-0.75-6.54-1.04c-2.01-0.26-4.09-0.41-6.3-0.57 c-2.84-0.2-5.79-0.41-8.76-0.89c-1.34-0.22-2.69-0.43-4.04-0.64c-3.57-0.56-7.27-1.14-10.86-1.8c-2.9-0.53-5.72-1.21-8.44-1.88 c-2.18-0.53-4.25-1.04-6.28-1.44c-3.4-0.68-6.64-1.49-9.51-2.21c-1.83-0.46-3.56-0.89-5.18-1.26c-2.35-0.53-4.71-1.05-7.07-1.58 c-2.36-0.52-4.72-1.05-7.08-1.58c-2.34-0.53-4.69-1.01-7.05-1.5c-2.38-0.49-4.76-0.98-7.13-1.51c-2.32-0.52-4.72-0.99-7.03-1.44 c-2.35-0.46-4.78-0.93-7.16-1.47c-2.42-0.54-4.82-1.21-7.14-1.86c-2.26-0.63-4.6-1.28-6.89-1.8c-2.32-0.52-4.72-0.99-7.03-1.44 c-2.35-0.46-4.77-0.93-7.16-1.46c-2.39-0.54-4.79-1.14-7.1-1.72c-2.29-0.58-4.65-1.17-6.98-1.69c-2.28-0.51-4.67-0.88-6.98-1.24 c-2.39-0.37-4.87-0.75-7.3-1.3c-2.32-0.52-4.71-0.99-7.03-1.45c-2.35-0.46-4.78-0.94-7.16-1.48c-2.46-0.55-4.86-1.3-7.18-2.03 c-2.33-0.73-4.53-1.42-6.78-1.93c-2.32-0.52-4.71-0.98-7.03-1.42c-2.35-0.45-4.78-0.92-7.18-1.46c-1.33-0.3-2.16-1.62-1.87-2.95 c0.3-1.33,1.62-2.16,2.95-1.87c2.32,0.52,4.71,0.98,7.03,1.42c2.35,0.45,4.78,0.92,7.18,1.46c2.46,0.55,4.86,1.3,7.18,2.03 c2.33,0.73,4.53,1.42,6.78,1.93c2.33,0.52,4.72,1,7.04,1.45c2.34,0.46,4.77,0.94,7.15,1.48c2.28,0.51,4.67,0.88,6.98,1.24 c2.39,0.37,4.87,0.75,7.3,1.3c2.39,0.54,4.78,1.14,7.1,1.72c2.29,0.58,4.66,1.17,6.98,1.69c2.32,0.52,4.71,0.99,7.02,1.43 c2.35,0.46,4.78,0.93,7.18,1.47c2.42,0.54,4.82,1.21,7.14,1.86c2.26,0.63,4.6,1.28,6.89,1.8c2.32,0.52,4.72,0.99,7.03,1.44 c2.35,0.46,4.78,0.93,7.16,1.47c2.34,0.53,4.69,1.01,7.05,1.5c2.38,0.49,4.76,0.98,7.13,1.51c2.35,0.53,4.71,1.05,7.07,1.58 c2.36,0.52,4.72,1.05,7.08,1.58c1.68,0.38,3.44,0.82,5.3,1.28c2.95,0.74,6,1.5,9.28,2.16c2.13,0.43,4.25,0.94,6.48,1.49 c2.65,0.65,5.4,1.32,8.15,1.82c3.54,0.64,7.2,1.22,10.74,1.78c1.36,0.21,2.71,0.43,4.06,0.64c2.76,0.44,5.59,0.65,8.33,0.84 c2.18,0.16,4.44,0.32,6.59,0.6c2.35,0.31,4.59,0.7,6.75,1.07c2.87,0.5,5.58,0.97,7.98,1.14c0.07,0,0.14,0.02,0.21,0.04 c2.52-1.1,5.14-2,7.7-2.87c0.82-0.28,1.65-0.56,2.48-0.85c1.32-0.46,2.64-0.96,3.97-1.47c2.99-1.14,6.09-2.31,9.38-3.11 c2.65-0.65,5.38-0.97,8.02-1.28c1.93-0.23,3.93-0.46,5.84-0.82c2.06-0.39,4.17-0.92,6.21-1.44c2.38-0.6,4.85-1.23,7.35-1.66 c1.99-0.34,3.99-0.62,6.11-0.91c2.8-0.39,5.7-0.79,8.62-1.36c1.93-0.38,3.91-0.74,5.91-1.1c2.86-0.52,5.81-1.06,8.77-1.68 c2.38-0.5,4.74-1.13,7.24-1.79c2.36-0.63,4.8-1.28,7.28-1.82c2.33-0.5,4.72-0.97,7.03-1.42c2.5-0.49,5.09-1,7.63-1.55 c2.42-0.53,4.85-1.09,7.27-1.65c2.44-0.56,4.88-1.13,7.32-1.66c2.37-0.52,4.77-1.13,7.1-1.73c2.44-0.62,4.96-1.26,7.45-1.8 c4.95-1.07,9.83-2.09,14.58-3.08c5.28-1.1,10.4-2.11,14.78-2.97c2.97-0.58,5.87-0.92,8.67-1.25c2.18-0.26,4.24-0.5,6.22-0.84 c1.35-0.23,2.62,0.67,2.85,2.01C455.43,54.61,454.53,55.89,453.19,56.12z M336.45,101.63c-1.12,0-2.13-0.76-2.4-1.9 c-0.31-1.32,0.5-2.65,1.83-2.97c2.49-0.59,5.02-1.08,7.47-1.54c2.3-0.44,4.69-0.89,6.98-1.43c2.59-0.61,5.18-1.18,7.77-1.75 c2.21-0.49,4.42-0.97,6.62-1.48c2.29-0.53,4.63-1.19,6.89-1.83c2.4-0.68,4.88-1.38,7.37-1.94c2.5-0.57,5.03-1.03,7.48-1.48 c2.31-0.42,4.69-0.86,6.99-1.37c2.77-0.62,5.54-1.22,8.31-1.81c2.03-0.44,4.07-0.88,6.1-1.33c1.33-0.29,2.65,0.55,2.94,1.88 c0.29,1.33-0.55,2.64-1.88,2.94c-2.04,0.45-4.08,0.89-6.12,1.33c-2.76,0.6-5.52,1.19-8.27,1.81c-2.4,0.54-4.83,0.98-7.18,1.41 c-2.4,0.44-4.88,0.89-7.28,1.43c-2.37,0.54-4.79,1.22-7.13,1.88c-2.32,0.65-4.71,1.33-7.12,1.89c-2.22,0.51-4.44,1-6.67,1.49 c-2.57,0.57-5.14,1.14-7.71,1.74c-2.4,0.56-4.83,1.03-7.18,1.47c-2.4,0.46-4.87,0.93-7.26,1.5 C336.83,101.61,336.63,101.63,336.45,101.63z M427.29,80.05c-1.22,0-2.29-0.91-2.44-2.16c-0.17-1.35,0.79-2.58,2.14-2.75 c4.26-0.53,8.58-1.68,12.76-2.79c1.86-0.49,3.78-1,5.69-1.46c1.33-0.32,2.66,0.5,2.97,1.83c0.32,1.32-0.5,2.65-1.83,2.97 c-1.85,0.44-3.74,0.94-5.57,1.43c-4.33,1.15-8.82,2.34-13.41,2.91C427.49,80.04,427.39,80.05,427.29,80.05z M313.06,144.86 c-1.36,0-2.46-1.1-2.47-2.45c-0.01-1.36,1.09-2.47,2.45-2.48c2.32-0.01,4.69-0.07,6.98-0.14c2.32-0.06,4.72-0.13,7.09-0.14 c4.69-0.02,9.38,0,14.07-0.02c2.31-0.01,4.68-0.08,6.97-0.15c2.32-0.07,4.72-0.15,7.1-0.16c2.34-0.01,4.68-0.04,7.02-0.07 c2.35-0.03,4.7-0.06,7.06-0.07c2.3-0.01,4.66-0.11,6.94-0.21c2.33-0.1,4.74-0.2,7.14-0.22c2.44-0.01,4.88,0.17,7.23,0.35 c2.36,0.18,4.58,0.35,6.84,0.34c2.34-0.01,4.68-0.03,7.03-0.05c2.35-0.02,4.7-0.04,7.04-0.05c2.33-0.01,4.67-0.06,7-0.1 c2.36-0.05,4.71-0.09,7.07-0.1c2.33-0.01,4.66-0.06,7-0.11c2.36-0.05,4.72-0.1,7.07-0.11c2.36-0.01,4.72-0.01,7.08,0 c2.33,0,4.66,0.01,6.99,0c0,0,0.01,0,0.01,0c1.36,0,2.46,1.1,2.47,2.45c0.01,1.36-1.09,2.47-2.45,2.48c-2.34,0.01-4.68,0.01-7.02,0 c-2.35,0-4.7-0.01-7.05,0c-2.33,0.01-4.66,0.06-7,0.11c-2.36,0.05-4.72,0.1-7.07,0.11c-2.33,0.01-4.67,0.06-7,0.1 c-2.36,0.05-4.71,0.09-7.07,0.1c-2.34,0.01-4.69,0.03-7.03,0.05c-2.35,0.02-4.7,0.04-7.04,0.05c-2.45,0.01-4.88-0.17-7.24-0.35 c-2.36-0.18-4.61-0.36-6.84-0.34c-2.3,0.01-4.66,0.11-6.95,0.21c-2.33,0.1-4.73,0.2-7.13,0.22c-2.34,0.01-4.68,0.04-7.02,0.07 c-2.35,0.03-4.7,0.06-7.05,0.07c-2.31,0.01-4.68,0.08-6.97,0.15c-2.32,0.07-4.72,0.15-7.1,0.16c-4.69,0.02-9.38,0-14.07,0.02 c-2.32,0.01-4.69,0.07-6.98,0.14c-2.32,0.06-4.72,0.13-7.09,0.14C313.06,144.86,313.06,144.86,313.06,144.86z M393.11,115.71 c-1.15,0-2.18-0.81-2.42-1.99c-0.26-1.34,0.6-2.63,1.94-2.9c1.93-0.38,3.9-0.88,5.81-1.35c2.66-0.67,5.41-1.35,8.21-1.79 c3.16-0.49,6.36-0.82,9.46-1.13c1.61-0.16,3.21-0.32,4.82-0.51c1.82-0.21,3.69-0.48,5.49-0.74c2.85-0.41,5.81-0.84,8.77-1.06 c3.47-0.26,6.99-0.36,10.39-0.45c1.33-0.04,2.65-0.07,3.97-0.12c2.9-0.1,5.8,0.03,8.6,0.15c1.9,0.08,3.86,0.17,5.76,0.18 c1.36,0.01,2.46,1.12,2.45,2.48c-0.01,1.36-1.11,2.45-2.47,2.45c0,0-0.01,0-0.01,0c-2-0.01-4.01-0.1-5.95-0.18 c-2.71-0.12-5.51-0.24-8.22-0.15c-1.34,0.05-2.67,0.08-4.01,0.12c-3.34,0.09-6.8,0.19-10.16,0.44c-2.79,0.21-5.66,0.63-8.43,1.03 c-1.84,0.27-3.74,0.54-5.63,0.76c-1.63,0.19-3.26,0.35-4.89,0.52c-3.03,0.3-6.16,0.62-9.19,1.09c-2.58,0.4-5.11,1.04-7.78,1.71 c-1.97,0.49-4,1-6.05,1.41C393.43,115.7,393.26,115.71,393.11,115.71z M152.68,189.45c-0.13,0-0.25-0.01-0.38-0.03 c-2.44-0.38-4.85-0.95-7.18-1.5c-2.2-0.52-4.28-1.01-6.4-1.36c-2.06-0.34-4.19-0.64-6.24-0.93c-2.45-0.35-4.98-0.7-7.47-1.14 c-2.58-0.45-5.18-0.97-7.7-1.47c-1.97-0.39-3.94-0.78-5.92-1.15c-1.9-0.35-3.81-0.68-5.72-1.01c-2.6-0.45-5.28-0.92-7.93-1.43 c-2.07-0.4-4.21-0.75-6.28-1.09c-2.42-0.4-4.92-0.81-7.38-1.31c-2.7-0.55-5.43-1.15-8.07-1.74c-1.83-0.4-3.65-0.81-5.48-1.2 c-1.33-0.28-2.18-1.59-1.9-2.92c0.28-1.33,1.59-2.18,2.92-1.9c1.84,0.39,3.68,0.8,5.52,1.2c2.62,0.58,5.33,1.18,7.99,1.72 c2.37,0.48,4.83,0.89,7.2,1.28c2.1,0.35,4.27,0.7,6.42,1.12c2.6,0.5,5.26,0.96,7.83,1.41c1.93,0.33,3.85,0.67,5.77,1.02 c2,0.37,3.99,0.76,5.98,1.16c2.49,0.49,5.06,1.01,7.59,1.45c2.42,0.42,4.91,0.77,7.32,1.11c2.08,0.29,4.23,0.6,6.35,0.95 c2.28,0.38,4.54,0.91,6.73,1.42c2.34,0.55,4.56,1.07,6.82,1.42c1.35,0.21,2.27,1.47,2.06,2.82 C154.93,188.58,153.88,189.45,152.68,189.45z M107.33,147.04c-1.69,0-3.38-0.02-5.07-0.04c-1.67-0.02-3.34-0.03-5.02-0.03 c-1.36,0-2.47-1.1-2.47-2.47s1.1-2.47,2.47-2.47c1.69,0,3.38,0.02,5.07,0.04c1.67,0.02,3.34,0.03,5.02,0.03 c1.36,0,2.47,1.1,2.47,2.47S108.69,147.04,107.33,147.04z M216.58,164.57c-0.12,0-0.25-0.01-0.38-0.03c-2.37-0.36-4.7-0.94-6.94-1.5 c-2.2-0.55-4.28-1.06-6.4-1.39c-2.15-0.33-4.38-0.56-6.54-0.79c-2.29-0.24-4.65-0.48-6.99-0.85c-2.15-0.34-4.38-0.61-6.54-0.87 c-2.28-0.27-4.64-0.55-6.97-0.93c-2.34-0.38-4.71-0.81-6.99-1.23c-2.14-0.39-4.28-0.79-6.43-1.14c-2.03-0.33-4.07-0.66-6.1-0.98 c-2.45-0.39-4.9-0.77-7.35-1.18c-2.07-0.35-4.14-0.68-6.21-1c-2.41-0.38-4.83-0.77-7.24-1.18c-2.34-0.4-4.65-0.94-6.89-1.46 c-2.12-0.49-4.31-1-6.44-1.37c-1.34-0.23-2.24-1.51-2.01-2.85c0.23-1.34,1.51-2.24,2.85-2.01c2.28,0.4,4.53,0.92,6.72,1.43 c2.17,0.5,4.41,1.03,6.61,1.4c2.39,0.41,4.79,0.79,7.18,1.17c2.09,0.33,4.17,0.66,6.26,1.01c2.43,0.41,4.87,0.79,7.31,1.18 c2.04,0.32,4.09,0.65,6.13,0.98c2.18,0.36,4.35,0.76,6.52,1.15c2.26,0.42,4.6,0.84,6.89,1.21c2.23,0.36,4.54,0.64,6.77,0.9 c2.2,0.26,4.48,0.53,6.72,0.89c2.21,0.35,4.5,0.59,6.72,0.82c2.22,0.23,4.52,0.47,6.8,0.82c2.33,0.36,4.62,0.93,6.83,1.48 c2.24,0.56,4.35,1.08,6.5,1.41c1.35,0.21,2.27,1.46,2.06,2.81C218.83,163.7,217.78,164.57,216.58,164.57z M321.04,271.51 c-0.25,0-0.5,0-0.75,0c-2.8-0.03-5.62-0.27-8.34-0.5c-1.91-0.16-3.88-0.33-5.81-0.42c-1.67-0.08-3.34-0.13-5.02-0.19 c-2.98-0.1-6.06-0.19-9.13-0.43l-0.88-0.07c-4.33-0.34-8.8-0.69-13.22-1.15c-2.67-0.28-5.33-0.73-7.9-1.16 c-2-0.34-4.07-0.68-6.09-0.94c-1.82-0.23-3.64-0.44-5.47-0.65c-2.81-0.32-5.71-0.65-8.56-1.07c-2.63-0.39-5.25-0.9-7.78-1.4 c-2.01-0.39-4.09-0.8-6.11-1.13c-1.94-0.32-3.88-0.61-5.81-0.89c-2.67-0.4-5.43-0.81-8.13-1.28c-2.86-0.5-5.7-1.06-8.46-1.6 c-1.81-0.35-3.61-0.7-5.4-1.04c-2.97-0.55-5.94-1.14-8.91-1.72c-1.81-0.36-3.62-0.71-5.44-1.06c-4.79-0.92-9.56-1.86-14.34-2.81 c-2.26-0.45-4.6-0.82-6.86-1.18c-2.47-0.39-5.03-0.8-7.54-1.31c-2.53-0.51-5.06-1.12-7.51-1.7c-2.21-0.53-4.5-1.07-6.74-1.54 c-2.26-0.47-4.59-0.87-6.85-1.26c-2.47-0.42-5.02-0.86-7.53-1.4c-2.24-0.48-4.54-0.91-6.77-1.34c-2.48-0.47-5.05-0.95-7.57-1.51 c-2.5-0.55-4.98-1.26-7.37-1.94c-2.22-0.63-4.52-1.29-6.77-1.8c-2.68-0.6-5.36-1.25-8.03-1.89c-2.06-0.49-4.13-0.99-6.2-1.47 c-2.25-0.52-4.61-0.93-6.88-1.32c-2.45-0.42-4.98-0.86-7.48-1.45c-2.49-0.59-4.96-1.32-7.35-2.02c-2.21-0.65-4.5-1.33-6.75-1.87 c-2.25-0.54-4.6-0.97-6.87-1.39c-2.45-0.45-4.98-0.91-7.47-1.53c-2.18-0.54-4.36-1.04-6.55-1.55c-2.52-0.58-5.12-1.18-7.68-1.83 c-2.48-0.63-4.94-1.4-7.32-2.15c-2.2-0.69-4.48-1.41-6.71-1.99c-2.01-0.52-4.02-1.03-6.03-1.54c-2.71-0.68-5.43-1.37-8.13-2.08 c-1.32-0.35-2.1-1.7-1.75-3.01c0.35-1.32,1.7-2.1,3.01-1.75c2.69,0.71,5.38,1.39,8.07,2.07c2.02,0.51,4.04,1.02,6.06,1.54 c2.36,0.61,4.7,1.35,6.96,2.06c2.31,0.73,4.7,1.48,7.04,2.07c2.51,0.64,5.09,1.23,7.58,1.81c2.21,0.51,4.42,1.02,6.62,1.56 c2.34,0.58,4.8,1.03,7.17,1.47c2.34,0.43,4.76,0.87,7.14,1.45c2.37,0.57,4.71,1.26,6.98,1.93c2.32,0.68,4.73,1.39,7.09,1.95 c2.35,0.55,4.81,0.98,7.18,1.39c2.34,0.41,4.77,0.83,7.15,1.38c2.08,0.48,4.16,0.98,6.24,1.48c2.65,0.64,5.3,1.27,7.96,1.87 c2.39,0.54,4.75,1.21,7.04,1.86c2.32,0.66,4.72,1.35,7.08,1.86c2.45,0.54,4.98,1.02,7.43,1.48c2.26,0.43,4.59,0.87,6.89,1.36 c2.41,0.52,4.91,0.95,7.33,1.36c2.3,0.39,4.68,0.8,7.02,1.29c2.31,0.48,4.63,1.04,6.88,1.57c2.41,0.57,4.9,1.17,7.35,1.67 c2.42,0.49,4.92,0.89,7.34,1.28c2.31,0.37,4.69,0.75,7.04,1.21c4.77,0.94,9.54,1.88,14.32,2.8c1.82,0.35,3.64,0.71,5.45,1.06 c2.96,0.58,5.91,1.16,8.87,1.71c1.8,0.34,3.62,0.69,5.44,1.05c2.73,0.53,5.56,1.09,8.37,1.58c2.63,0.46,5.36,0.87,8,1.26 c1.95,0.29,3.92,0.58,5.88,0.9c2.11,0.34,4.22,0.76,6.27,1.16c2.47,0.49,5.03,0.99,7.55,1.36c2.77,0.41,5.63,0.73,8.4,1.05 c1.84,0.21,3.69,0.42,5.53,0.65c2.12,0.27,4.23,0.63,6.28,0.97c2.5,0.42,5.08,0.85,7.6,1.12c4.36,0.46,8.8,0.8,13.09,1.14l0.88,0.07 c2.95,0.23,5.98,0.33,8.9,0.42c1.7,0.05,3.4,0.11,5.09,0.19c2.02,0.09,4.04,0.26,6,0.43c2.76,0.23,5.36,0.45,7.98,0.48 c3,0.02,6.04-0.14,8.99-0.3c1.67-0.09,3.33-0.18,4.98-0.24c1.36-0.05,2.5,1.02,2.55,2.38c0.05,1.36-1.02,2.5-2.38,2.55 c-1.62,0.06-3.25,0.15-4.89,0.23C326.81,271.36,323.94,271.51,321.04,271.51z M344.54,285.99c-3.31,0-6.52-0.9-9.13-2.65 c-3.01-2.01-4.92-4.98-5.23-8.13c-0.44-4.42,1.91-8.84,6.29-11.84c2.87-1.96,6.06-3.01,9.14-4.03c0.7-0.23,1.41-0.46,2.1-0.7 c3.81-1.32,8.77-3.14,13.43-5.56c4.36-2.26,8.56-4.92,12.62-7.49c2.45-1.55,4.89-3.28,7.24-4.95c1.61-1.14,3.27-2.32,4.94-3.44 c1.82-1.23,3.61-2.48,5.41-3.74c1.83-1.28,3.67-2.57,5.53-3.82c1.86-1.26,3.78-2.47,5.64-3.65c1.83-1.16,3.72-2.35,5.52-3.57 c1.83-1.24,3.72-2.42,5.54-3.57c1.91-1.2,3.88-2.44,5.75-3.72c2.03-1.38,4.07-2.87,6.05-4.3c1.62-1.18,3.24-2.36,4.88-3.5 c1.6-1.11,3.23-2.2,4.82-3.25c2.09-1.38,4.24-2.81,6.28-4.29c1.87-1.36,3.6-2.89,5.44-4.51c1.55-1.37,3.15-2.79,4.85-4.09 c1.5-1.15,3.05-2.26,4.55-3.34c2.07-1.48,4.22-3.02,6.18-4.64l1.31-1.08c3.11-2.55,6.32-5.2,9.09-8.06 c2.67-2.76,5.13-6.25,7.76-10.99c0.66-1.19,2.16-1.62,3.35-0.96c1.19,0.66,1.62,2.16,0.96,3.35c-2.84,5.12-5.55,8.94-8.52,12.02 c-2.96,3.07-6.29,5.8-9.51,8.44l-1.3,1.07c-2.1,1.73-4.31,3.31-6.45,4.84c-1.47,1.05-2.98,2.13-4.42,3.24 c-1.56,1.2-3.03,2.5-4.59,3.88c-1.84,1.62-3.74,3.31-5.8,4.8c-2.12,1.54-4.32,3-6.45,4.41c-1.56,1.03-3.17,2.1-4.72,3.18 c-1.61,1.13-3.21,2.28-4.8,3.44c-2,1.46-4.08,2.96-6.17,4.39c-1.95,1.32-3.96,2.59-5.9,3.81c-1.79,1.13-3.65,2.3-5.41,3.49 c-1.87,1.26-3.79,2.48-5.64,3.65c-1.82,1.16-3.71,2.35-5.52,3.57c-1.83,1.24-3.64,2.5-5.46,3.77c-1.82,1.27-3.64,2.55-5.48,3.79 c-1.62,1.09-3.26,2.25-4.84,3.38c-2.41,1.71-4.9,3.47-7.46,5.09c-3.95,2.5-8.43,5.34-12.98,7.7c-4.94,2.56-10.12,4.47-14.08,5.84 c-0.72,0.25-1.45,0.49-2.18,0.73c-2.88,0.95-5.61,1.84-7.89,3.41c-2.22,1.52-4.48,4.23-4.17,7.28c0.17,1.68,1.29,3.33,3.07,4.52 c2.8,1.87,6.65,2.34,10.31,1.24c1.31-0.39,2.68,0.35,3.07,1.65c0.39,1.3-0.35,2.68-1.65,3.07 C348.12,285.73,346.31,285.99,344.54,285.99z M459.23,205.43c-0.75,0-1.5-0.34-1.98-1c-0.81-1.09-0.58-2.64,0.51-3.45 c4.51-3.35,8.62-6.73,12.2-10.06c3.67-3.41,7.07-7.33,10.35-11.12l0.4-0.46c3.01-3.48,5.71-7.4,8.31-11.19l1.04-1.51 c0.77-1.12,2.31-1.4,3.43-0.63c1.12,0.77,1.4,2.31,0.63,3.43l-1.03,1.5c-2.68,3.9-5.45,7.93-8.65,11.62l-0.4,0.46 c-3.37,3.89-6.85,7.91-10.72,11.51c-3.72,3.45-7.96,6.95-12.62,10.41C460.25,205.27,459.74,205.43,459.23,205.43z M437.62,219.9 c-0.82,0-1.62-0.41-2.09-1.15c-0.73-1.15-0.38-2.67,0.77-3.4c1.34-0.84,2.69-1.76,4-2.65c1.35-0.92,2.74-1.86,4.16-2.76 c1.15-0.72,2.68-0.38,3.4,0.77c0.73,1.15,0.38,2.67-0.77,3.4c-1.35,0.85-2.7,1.77-4.01,2.66c-1.34,0.91-2.73,1.86-4.15,2.75 C438.52,219.78,438.07,219.9,437.62,219.9z M361.76,273.77c-0.89,0-1.74-0.48-2.18-1.32c-0.63-1.2-0.17-2.7,1.03-3.33 c1.26-0.67,2.53-1.32,3.8-1.98c2.55-1.31,5.18-2.67,7.7-4.09c1.3-0.73,2.6-1.45,3.91-2.16c2.46-1.35,5.01-2.75,7.44-4.2 c2.64-1.57,5.29-3.27,7.85-4.91c1.05-0.67,2.11-1.35,3.16-2.02c2.66-1.68,5.32-3.49,7.9-5.23c0.98-0.66,1.95-1.32,2.93-1.98 c1.6-1.07,3.25-2.09,4.84-3.08c2.04-1.26,4.15-2.57,6.11-3.96c1.11-0.79,2.65-0.53,3.44,0.58c0.79,1.11,0.53,2.65-0.58,3.44 c-2.08,1.48-4.26,2.83-6.36,4.13c-1.56,0.96-3.17,1.96-4.69,2.98c-0.97,0.65-1.94,1.31-2.91,1.97c-2.61,1.77-5.3,3.59-8.03,5.31 c-1.05,0.66-2.1,1.33-3.14,2c-2.59,1.66-5.27,3.38-7.98,4.99c-2.51,1.5-5.1,2.91-7.6,4.28c-1.29,0.71-2.58,1.42-3.87,2.14 c-2.6,1.46-5.27,2.84-7.85,4.17c-1.26,0.65-2.51,1.3-3.77,1.96C362.54,273.68,362.15,273.77,361.76,273.77z"/></g></svg>