<?xml version="1.0" encoding="UTF-8"?><svg xmlns="http://www.w3.org/2000/svg" xmlns:xlink="http://www.w3.org/1999/xlink" contentScriptType="text/ecmascript" fill="#000000" width="397.9" zoomAndPan="magnify" contentStyleType="text/css" viewBox="-2.0 -1.1 397.9 505.7" height="505.7" preserveAspectRatio="xMidYMid meet" version="1"><g id="change1_1"><path fill="#efa54f" d="M2.77,364.94c-2.66-10.26-4.73-22,0.3-31.06c5.93-10.7,18.8-12.76,29.99-13.39 c109.92-6.23,218.99,20.31,326.51,46.7c5.5,1.35,11.14,2.77,15.8,6.31c6.12,4.65,9.82,12.47,11.79,20.48 c8.83,35.95-14.93,73.8-45,89.55c-30.07,15.75-64.62,14.95-97.78,14.13c-30.37-0.75-60.75-1.27-91.13-1.3 c-24.85-0.02-59.37,8.18-83.18,0.07c-16.15-5.5-25.3-31.56-33.59-46.56C21.91,423.44,10.5,394.79,2.77,364.94z"/></g><g id="change2_1"><path fill="#87bfa8" d="M364.75,151.61C359.84,162.87,350,171.2,339.77,178c-4.26,2.83-8.74,5.48-13.39,7.77 c10.18,21.75,14.44,46.64,12.4,70.64c-3.58,42.04-24.3,81.16-52.04,113.07c-1.14,1.33-2.3,2.64-3.48,3.94 c-0.12,0.13-0.24,0.26-0.36,0.4c-3.16,3.47-6.58,6.9-10.97,8.52c-5.56,2.04-11.73,0.85-17.52-0.39 c-23.86-5.07-47.79-10.41-72.13-12.61c-18.29-1.65-41.86,5.67-55.86-7.2c-5.09-4.68-9.8-9.87-14.12-15.47 c-1.32-1.7-2.59-3.44-3.84-5.21c-18.74-26.74-29.3-61.19-30.93-92.19c-0.56-10.62-0.15-21.34,1.99-31.76 c6.32-30.81,27.83-57.34,54.85-73.44c27.02-16.11,59.08-22.44,90.53-22.02c0.46,0.01,0.91,0.02,1.37,0.03 c0.22-21.74,6.23-43.37,23.19-58.19c22.08-19.3,57.97-21.13,81.1-3.1c10.37,8.07,17.85,19.26,24.27,30.73 C365.11,109.9,373.18,132.3,364.75,151.61z"/></g><g id="change3_1"><path fill="#eb8b8f" d="M292.63,48.3c-2.24-5.97-4.11-12.54-2.25-18.64c1.86-6.1,8.91-10.97,14.7-8.3 c5.15,2.38,8.01,9.73,13.68,9.34c3.53-0.24,5.99-3.57,7.5-6.76c2.27-4.81,3.6-10.1,6.53-14.54c4.19-6.36,12.05-10.51,19.55-9.14 s13.67,8.96,12.4,16.47c-0.75,4.43-3.71,8.17-5.1,12.45c-1.38,4.28-0.25,10.18,4.11,11.29c1.92,0.49,3.92-0.11,5.83-0.61 c4.9-1.29,10.21-1.94,14.98-0.23c4.77,1.72,8.77,6.37,8.34,11.42c-0.33,3.88-3.14,7.18-6.43,9.27s-7.09,3.19-10.74,4.57 c-1.4,0.53-2.95,1.29-3.3,2.74c-0.25,1.05,0.23,2.13,0.83,3.02c2.35,3.44,6.45,5.12,10.07,7.17c3.62,2.05,7.27,5.23,7.34,9.39 c0.07,3.88-3.07,7.12-6.47,9c-7.54,4.2-16.72,3.97-25.26,2.78C328.16,94.69,303.84,78.15,292.63,48.3z"/></g><g id="change4_1"><path fill="#3f3a6d" d="M360.43,400.97c-0.19-2.89-1.41-5.18-2.57-7.04c-3.69-5.9-7.86-10.06-12.73-12.72 c-5.47-2.99-11.69-4.09-17.09-4.88c-2.38-0.35-4.83-0.88-7.19-1.39c-2.17-0.46-4.41-0.94-6.67-1.31c-2.27-0.36-4.56-0.61-6.79-0.86 c-2.38-0.26-4.85-0.52-7.22-0.93l-2.56-0.45c-3.62-0.62-7.25-1.25-10.87-1.91c-1.14,1.33-2.3,2.64-3.48,3.94 c-0.12,0.13-0.24,0.26-0.36,0.4c0.82,0.18,1.64,0.35,2.47,0.5c3.79,0.69,7.59,1.34,11.39,2l2.56,0.44c2.52,0.44,5.07,0.72,7.53,0.98 c2.16,0.24,4.39,0.48,6.53,0.83c2.13,0.34,4.31,0.81,6.42,1.26c2.44,0.53,4.97,1.07,7.51,1.45c4.98,0.73,10.68,1.72,15.42,4.31 c4.11,2.25,7.67,5.84,10.89,10.99c1.01,1.62,1.71,3.04,1.82,4.72c0.22,3.37-2.04,6.66-5.27,7.65c-3.63,1.13-7.96,0.21-11.43-0.52 c-2.13-0.45-4.29-1-6.38-1.53c-2.39-0.61-4.87-1.24-7.35-1.74c-2.52-0.5-5.07-0.91-7.53-1.3c-2.1-0.33-4.28-0.67-6.38-1.08 c-2.49-0.47-5-0.81-7.44-1.14c-2.15-0.28-4.37-0.58-6.51-0.97c-1.81-0.33-3.62-0.67-5.43-1.01c-2.76-0.51-5.61-1.05-8.43-1.53 c-2.15-0.37-4.26-0.88-6.49-1.42c-2.37-0.58-4.82-1.18-7.31-1.58c-2.89-0.46-5.82-0.88-8.65-1.28c-1.77-0.26-3.54-0.51-5.31-0.77 c-1.68-0.26-3.37-0.52-5.05-0.78c-2.91-0.45-5.92-0.91-8.9-1.33l-4.12-0.58c-3.28-0.46-6.56-0.93-9.85-1.36 c-2.5-0.32-5.03-0.47-7.47-0.63c-2.18-0.13-4.43-0.27-6.6-0.53c-2.16-0.26-4.39-0.67-6.55-1.07c-2.4-0.44-4.88-0.9-7.39-1.18 c-2.51-0.27-5.03-0.31-7.47-0.35c-2.3-0.03-4.47-0.07-6.64-0.28c-2.17-0.22-4.4-0.58-6.56-0.94c-2.41-0.4-4.9-0.8-7.42-1.03 c-2.82-0.25-5.69-0.45-8.46-0.65c-1.87-0.13-3.74-0.26-5.6-0.41c-2.52-0.2-5.05-0.23-7.5-0.27c-2.18-0.02-4.44-0.05-6.61-0.2 s-4.32-0.46-6.59-0.77c-2.42-0.34-4.92-0.69-7.44-0.84c-1.09-0.07-2.19-0.09-3.28-0.09c-1.42,0-2.82,0.04-4.2,0.08 c-2.3,0.06-4.46,0.12-6.64,0.02c-4.08-0.2-8.56-0.39-14.08-0.61c-5.08-0.2-9.69-0.35-14.09-0.48c-4.11-0.12-8.36-0.24-12.56-0.51 c-3.34-0.22-6.76-0.9-10.07-1.56c-0.71-0.14-1.42-0.28-2.13-0.42c-2.34-0.45-4.44-0.94-6.36-1.49s-3.65-1.16-5.27-1.85 c-3.45-1.47-6.94-3.71-10.37-6.65c-3.1-2.66-5.64-6.01-7.17-9.43c-2.21-4.95-0.61-7,1.25-8.34c2.65-1.93,6.35-3.02,10.98-3.23 c2.83-0.13,5.76-0.09,8.58-0.05c1.96,0.03,3.99,0.07,6,0.04c2.27-0.03,4.55-0.19,6.75-0.35c2.7-0.19,5.26-0.37,7.83-0.34 c2.72,0.05,5.52,0.24,8.22,0.44c2.08,0.14,4.23,0.29,6.36,0.38c4.69,0.18,9.45,0.46,14.06,0.73l0.53,0.04 c1.79,0.1,3.59,0.19,5.38,0.29c1.08,0.05,2.17,0.11,3.27,0.17c-1.32-1.7-2.59-3.44-3.84-5.21c-1.51-0.08-3.02-0.16-4.52-0.25 l-0.53-0.03c-4.63-0.27-9.42-0.55-14.15-0.74c-2.06-0.08-4.16-0.23-6.2-0.37c-2.78-0.2-5.64-0.4-8.5-0.45 c-2.79-0.04-5.58,0.16-8.27,0.35c-2.13,0.15-4.33,0.31-6.46,0.34c-1.94,0.03-3.93-0.01-5.85-0.03c-2.9-0.05-5.9-0.09-8.89,0.04 c-5.62,0.26-10.23,1.67-13.69,4.18c-3.21,2.33-6.32,6.72-2.88,14.43c1.85,4.14,4.78,8,8.48,11.18c3.82,3.28,7.75,5.79,11.67,7.46 c3.58,1.52,7.59,2.68,12.64,3.65c0.7,0.14,1.4,0.28,2.1,0.42c3.47,0.68,7.06,1.4,10.72,1.64c4.3,0.28,8.59,0.4,12.74,0.52 c4.39,0.13,8.98,0.28,14.04,0.48c5.51,0.21,9.97,0.4,14.04,0.6c2.36,0.12,4.73,0.05,7.02-0.01c2.44-0.07,4.74-0.14,7.05,0 c2.32,0.14,4.61,0.46,7.03,0.8c2.26,0.32,4.6,0.64,6.95,0.8c2.31,0.16,4.63,0.19,6.88,0.22c2.37,0.04,4.82,0.07,7.17,0.25 c1.88,0.15,3.76,0.29,5.64,0.42c2.75,0.19,5.6,0.39,8.38,0.64c2.33,0.21,4.62,0.59,7.05,0.99c2.23,0.36,4.55,0.74,6.88,0.97 c2.37,0.24,4.75,0.28,7.06,0.31c2.43,0.04,4.72,0.07,7,0.32c2.32,0.26,4.61,0.68,7.02,1.13c2.23,0.41,4.54,0.84,6.87,1.12 c2.31,0.27,4.63,0.42,6.88,0.56c2.36,0.14,4.8,0.29,7.14,0.59c3.27,0.43,6.53,0.89,9.79,1.35l4.13,0.58 c2.94,0.41,5.93,0.88,8.83,1.32c1.69,0.27,3.38,0.53,5.07,0.78c1.78,0.27,3.56,0.52,5.34,0.78c2.81,0.4,5.72,0.82,8.57,1.27 c2.29,0.37,4.54,0.92,6.92,1.5c2.21,0.53,4.5,1.09,6.83,1.49c2.78,0.47,5.61,1,8.35,1.52c1.82,0.34,3.64,0.68,5.47,1.01 c2.24,0.41,4.52,0.71,6.72,1.01c2.37,0.32,4.82,0.65,7.18,1.1c2.18,0.41,4.39,0.76,6.52,1.1c2.42,0.38,4.92,0.78,7.33,1.27 c2.37,0.47,4.78,1.08,7.11,1.67c2.14,0.55,4.35,1.11,6.57,1.58c2.57,0.54,5.53,1.17,8.6,1.17c1.77,0,3.57-0.21,5.35-0.76 C357.12,412.04,360.81,406.67,360.43,400.97z M144.64,369.73c-0.66,0-1.32-0.26-1.81-0.78c-21.6-22.74-33.89-53.77-33.7-85.13 c0.01-1.1,0.03-2.2,0.05-3.31c0.08-3.96,0.15-7.71-0.44-11.4c-0.61-3.77-1.89-7.37-3.25-11.19c-0.67-1.89-1.37-3.84-1.97-5.81 c-6.01-19.61-3.19-42.29,7.74-62.22c1.09-1.99,2.26-3.96,3.39-5.86c2.12-3.57,4.13-6.93,5.73-10.55c0.51-1.16,1-2.38,1.47-3.57 c1.06-2.68,2.16-5.46,3.77-8.04c2.36-3.81,5.67-6.92,8.89-9.71c5.34-4.62,11.02-8.94,16.91-12.84c1.15-0.76,2.7-0.45,3.46,0.7 c0.76,1.15,0.45,2.7-0.7,3.46c-5.7,3.78-11.22,7.97-16.39,12.45c-3.38,2.93-6.02,5.5-7.92,8.57c-1.37,2.2-2.34,4.65-3.36,7.25 c-0.49,1.23-0.99,2.5-1.54,3.75c-1.72,3.9-3.9,7.55-6.01,11.09c-1.11,1.86-2.26,3.79-3.31,5.7c-10.28,18.75-12.96,40.02-7.34,58.35 c0.57,1.86,1.25,3.76,1.9,5.6c1.38,3.86,2.8,7.85,3.48,12.07c0.66,4.13,0.58,8.27,0.51,12.29c-0.02,1.08-0.04,2.16-0.05,3.24 c-0.18,30.08,11.61,59.85,32.33,81.66c0.95,1,0.91,2.58-0.09,3.53C145.88,369.5,145.26,369.73,144.64,369.73z M197.22,371.26 c-1.06,0-2.05-0.68-2.38-1.75c-5.03-15.9-7.82-32.41-8.3-49.07c-0.04-1.36-0.06-2.73-0.09-4.1c-0.11-5.94-0.21-11.56-1.5-17.03 c-0.62-2.64-1.51-5.18-2.45-7.88c-1.03-2.95-2.09-5.99-2.77-9.16c-1.23-5.71-1.19-11.59-1.15-16.77c0.06-7.39,0.16-14.88,0.3-22.27 c0.12-6.24,0.26-13.31,2.97-19.83c1.14-2.74,2.68-5.24,4.17-7.66c1.88-3.05,3.66-5.93,4.56-9.1c0.98-3.45,0.89-7.14,0.8-11.05 c-0.02-0.75-0.03-1.49-0.04-2.24c-0.32-25.39,8.94-51.02,25.42-70.34c0.9-1.05,2.48-1.17,3.52-0.28c1.05,0.9,1.18,2.47,0.28,3.52 c-15.7,18.41-24.53,42.84-24.22,67.03c0.01,0.73,0.03,1.46,0.04,2.19c0.09,4.11,0.19,8.36-0.99,12.53 c-1.09,3.84-3.13,7.15-5.11,10.36c-1.45,2.35-2.82,4.58-3.81,6.95c-2.35,5.65-2.47,12.21-2.59,18c-0.14,7.37-0.24,14.84-0.3,22.21 c-0.04,4.92-0.08,10.51,1.03,15.68c0.62,2.87,1.58,5.64,2.61,8.57c0.94,2.7,1.91,5.49,2.6,8.38c1.42,5.99,1.52,12.14,1.63,18.09 c0.02,1.35,0.05,2.7,0.09,4.04c0.47,16.2,3.18,32.25,8.07,47.71c0.42,1.32-0.31,2.72-1.63,3.14 C197.72,371.22,197.47,371.26,197.22,371.26z M233.22,383.07c-0.45,0-0.9-0.12-1.31-0.37c-1.18-0.72-1.54-2.26-0.82-3.44 c17.28-28.17,29.46-60.25,35.21-92.79c1.38-7.79,2.27-14.86,2.74-21.62c1.61-23.45-1.8-47.35-5.09-70.45 c-0.54-3.81-1.09-7.61-1.61-11.42c-0.19-1.37,0.77-2.63,2.14-2.82c1.37-0.19,2.63,0.77,2.82,2.14c0.52,3.79,1.06,7.59,1.6,11.39 c3.33,23.36,6.78,47.52,5.13,71.5c-0.48,6.94-1.39,14.18-2.8,22.15c-5.86,33.15-18.27,65.84-35.87,94.54 C234.88,382.65,234.06,383.07,233.22,383.07z M300.33,353.17c-0.37,0-0.74-0.08-1.1-0.26c-1.24-0.61-1.75-2.1-1.15-3.34 c9.5-19.41,16.23-40.04,19.99-61.32c5.93-33.53,3.9-66.62-5.85-95.71c-0.44-1.31,0.27-2.73,1.58-3.17c1.31-0.44,2.73,0.27,3.17,1.58 c10.02,29.88,12.11,63.83,6.04,98.17c-3.84,21.74-10.71,42.82-20.42,62.65C302.14,352.66,301.25,353.17,300.33,353.17z M234.02,153.33c-1.12,0-2.14-0.76-2.42-1.89c-3.39-13.49-6.15-27.64,0.38-39.39c1.38-2.49,3.11-4.7,4.77-6.83 c1.09-1.4,2.13-2.72,3.07-4.12c1.95-2.88,3.46-6,5.06-9.3c1.69-3.48,3.44-7.08,5.74-10.39c9-12.91,26.59-19.43,41.83-15.51 c1.34,0.34,2.14,1.71,1.8,3.04s-1.71,2.14-3.04,1.8c-13.3-3.42-28.63,2.27-36.48,13.53c-2.08,2.98-3.67,6.25-5.35,9.71 c-1.61,3.32-3.27,6.74-5.42,9.92c-1.04,1.53-2.17,2.99-3.27,4.39c-1.62,2.07-3.15,4.03-4.35,6.18c-5.65,10.16-3.18,22.71,0.1,35.74 c0.34,1.34-0.48,2.7-1.82,3.03C234.43,153.3,234.22,153.33,234.02,153.33z M265.55,184.52c-0.79,0-1.58-0.38-2.06-1.08 c-0.78-1.14-0.5-2.69,0.64-3.48c7.3-5.03,11.8-12.8,16.57-21.04c2.77-4.78,5.63-9.73,9.11-14.14c3.04-3.86,6.56-7.3,9.96-10.62 c3.17-3.1,6.45-6.31,9.23-9.77c8.54-10.62,12.92-24.51,12.03-38.11c-0.09-1.38,0.95-2.57,2.33-2.66c1.36-0.09,2.57,0.95,2.66,2.33 c0.98,14.83-3.81,29.98-13.12,41.57c-2.96,3.69-6.35,7-9.63,10.21c-3.29,3.22-6.69,6.54-9.53,10.15c-3.26,4.13-6.03,8.92-8.71,13.55 c-4.83,8.35-9.83,16.99-18.06,22.66C266.53,184.38,266.04,184.52,265.55,184.52z M316.27,193.37c-0.63,0-1.26-0.24-1.75-0.72 c-0.99-0.97-1-2.55-0.03-3.54l23.98-24.42c3.37-3.43,6.86-6.98,8.82-11.26c2.61-5.68,2.44-12.56,2.29-18.63l-0.93-37.44 c-0.03-1.38,1.06-2.53,2.44-2.56c1.41-0.07,2.53,1.06,2.56,2.44l0.93,37.44c0.17,6.61,0.35,14.11-2.74,20.84 c-2.33,5.07-6.29,9.11-9.79,12.67l-23.98,24.42C317.57,193.12,316.92,193.37,316.27,193.37z M273.79,110.88 c-0.7,0-1.41-0.04-2.11-0.11c-0.79-0.09-1.5-0.55-1.9-1.24s-0.44-1.53-0.12-2.26c2-4.5,3.18-9.27,3.5-14.19 c0.09-1.38,1.29-2.44,2.66-2.33c1.38,0.09,2.42,1.28,2.33,2.66c-0.28,4.23-1.12,8.38-2.52,12.35c2.16-0.28,4.27-1.04,6.07-2.22 c1.16-0.75,2.71-0.42,3.46,0.73c0.75,1.16,0.42,2.71-0.73,3.46C281.27,109.79,277.56,110.88,273.79,110.88z M306.88,176.85 c-0.87,0-1.74-0.15-2.57-0.47c-1.03-0.39-1.68-1.41-1.6-2.51l0.83-11.88c0.1-1.38,1.29-2.41,2.67-2.32c1.38,0.1,2.42,1.29,2.32,2.67 l-0.65,9.3c0.27-0.12,0.51-0.28,0.71-0.48c0.96-1,2.54-1.03,3.54-0.07c1,0.96,1.03,2.54,0.07,3.53 C310.79,176.06,308.84,176.85,306.88,176.85z M330.74,137.79c-0.51,0-1.01-0.15-1.44-0.46c-0.73-0.51-1.13-1.37-1.05-2.26 c0.43-4.97,1.27-9.95,2.5-14.79c0.34-1.34,1.7-2.15,3.04-1.81c1.34,0.34,2.15,1.7,1.81,3.04c-0.74,2.92-1.33,5.89-1.77,8.88 c1.07-0.91,2.04-1.94,2.88-3.08c0.82-1.11,2.39-1.35,3.5-0.53c1.11,0.82,1.35,2.38,0.53,3.5c-2.31,3.13-5.41,5.65-8.95,7.28 C331.45,137.71,331.1,137.79,330.74,137.79z M251.68,151.47c-0.37,0-0.74-0.08-1.08-0.25c-0.87-0.42-1.42-1.29-1.42-2.25l-0.02-9.78 c0-1.38,1.12-2.5,2.5-2.5c0,0,0,0,0,0c1.38,0,2.5,1.12,2.5,2.5l0.01,5.19c2.44-1.28,5.08-2.16,7.81-2.59 c1.37-0.22,2.65,0.71,2.86,2.08c0.22,1.36-0.71,2.65-2.08,2.86c-3.48,0.55-6.78,2.01-9.53,4.2 C252.79,151.29,252.24,151.47,251.68,151.47z M240.19,79.84c-0.64,0-1.27-0.25-1.75-0.71c-3.11-3.03-6.33-6.03-9.57-8.9 c-1.03-0.92-1.13-2.5-0.21-3.53c0.92-1.03,2.5-1.13,3.53-0.21c2.06,1.83,4.11,3.7,6.13,5.6c0.14-1.78,0.18-3.56,0.13-5.34 c-0.04-1.38,1.05-2.53,2.43-2.57c0.02,0,0.05,0,0.07,0c1.35,0,2.46,1.07,2.5,2.43c0.1,3.73-0.17,7.48-0.8,11.15 c-0.16,0.92-0.81,1.67-1.69,1.95C240.71,79.8,240.45,79.84,240.19,79.84z M363.02,152.98c-0.82,0-1.62-0.4-2.1-1.14 c-0.75-1.16-0.42-2.71,0.74-3.46c2.86-1.85,5.93-3.36,9.14-4.5c1.3-0.46,2.73,0.22,3.19,1.52c0.46,1.3-0.22,2.73-1.52,3.19 c-2.84,1-5.56,2.34-8.08,3.98C363.96,152.85,363.48,152.98,363.02,152.98z M377.9,77.98c-0.33,0-0.67-0.07-0.99-0.21 c-2.74-1.19-5.9-1.28-9.25-1.38c-1.87-0.05-3.81-0.11-5.74-0.37c-6.54-0.86-13.3-5.41-12.96-12.14c0.1-1.89,0.77-3.56,1.36-5.04 c0.32-0.79,0.62-1.54,0.81-2.27c1.02-3.82-1.17-8.41-4.78-10.01c-3.51-1.56-7.64-0.69-12.02,0.23c-2.44,0.51-4.97,1.04-7.52,1.18 c-1.29,0.07-2.96,0.04-4.5-0.78c-1.89-1.02-2.88-2.87-3.54-4.1l-6.71-12.56c-0.65-1.22-0.19-2.73,1.03-3.38 c1.22-0.65,2.73-0.19,3.38,1.03l6.71,12.56c0.4,0.74,0.94,1.75,1.5,2.05c0.45,0.24,1.28,0.23,1.86,0.19 c2.17-0.12,4.41-0.59,6.77-1.08c4.96-1.04,10.09-2.12,15.07,0.09c5.93,2.63,9.26,9.6,7.58,15.87c-0.27,1.01-0.64,1.94-1,2.84 c-0.49,1.22-0.95,2.37-1,3.43c-0.18,3.55,4.34,6.36,8.63,6.93c1.68,0.22,3.4,0.27,5.23,0.33c3.67,0.11,7.47,0.22,11.09,1.79 c1.27,0.55,1.85,2.02,1.3,3.29C379.79,77.42,378.87,77.98,377.9,77.98z M148.59,202.83c-0.2,0-0.39-0.02-0.59-0.07 c-0.9-0.22-1.6-0.91-1.83-1.81l-4.03-15.71c-0.34-1.34,0.46-2.7,1.8-3.04c1.34-0.34,2.7,0.46,3.04,1.8l2.78,10.82 c1.22-1.77,2.31-3.63,3.24-5.57c0.6-1.25,2.09-1.77,3.33-1.18s1.77,2.09,1.18,3.33c-1.84,3.85-4.21,7.41-7.04,10.6 C149.98,202.53,149.3,202.83,148.59,202.83z M139,273.57c-1.13,0-2.58-0.51-3.93-2.5c-2.13-3.14-3.71-6.58-4.71-10.23 c-0.36-1.33,0.42-2.71,1.75-3.07c1.33-0.36,2.71,0.42,3.07,1.75c0.83,3.03,2.13,5.89,3.86,8.5c1.23-1.49,2.09-3.32,2.45-5.22 c0.26-1.36,1.57-2.25,2.92-1.99c1.36,0.26,2.25,1.56,1.99,2.92c-0.58,3.08-2.02,5.93-4.16,8.22c-0.57,0.61-1.39,1.35-2.61,1.55 C139.44,273.55,139.22,273.57,139,273.57z M138.4,268.74L138.4,268.74L138.4,268.74z M155.67,339.56c-1.06,0-1.87-0.38-2.45-0.83 c-1.57-1.2-2-3.15-1.28-5.78l4.54-16.67c0.36-1.33,1.73-2.12,3.07-1.76c1.33,0.36,2.12,1.74,1.76,3.07l-4.44,16.33l4.52-2.92 c1.16-0.75,2.71-0.41,3.46,0.75c0.75,1.16,0.41,2.71-0.75,3.46l-4.78,3.09C157.86,339.23,156.66,339.56,155.67,339.56z M156.6,335.26L156.6,335.26L156.6,335.26z M80.03,223.5c-0.25,0-0.51-0.04-0.76-0.12c-4.54-1.45-8.57-4.38-11.34-8.25 c-0.8-1.12-0.54-2.68,0.58-3.49c1.12-0.8,2.69-0.54,3.49,0.58c1.15,1.61,2.58,3.01,4.21,4.13c-0.57-2.66-0.94-5.36-1.11-8.08 c-0.09-1.38,0.96-2.57,2.34-2.65c1.39-0.1,2.57,0.96,2.65,2.34c0.26,4.17,1.04,8.29,2.32,12.27c0.29,0.89,0.05,1.87-0.61,2.53 C81.32,223.25,80.68,223.5,80.03,223.5z M221,262.63c-0.3,0-0.55-0.03-0.76-0.07c-1.44-0.27-3.3-1.36-3.94-5.03l-1.44-8.22 c-0.24-1.36,0.67-2.66,2.03-2.89c1.36-0.24,2.66,0.67,2.89,2.03l1.44,8.22c0,0.02,0.01,0.03,0.01,0.05 c0.03-0.07,0.06-0.14,0.09-0.21l3.05-7.54c0.52-1.28,1.98-1.9,3.26-1.38c1.28,0.52,1.9,1.98,1.38,3.26l-3.05,7.54 C224.5,261.98,222.35,262.63,221,262.63z M225.39,187.57c-0.6,0-1.21-0.11-1.83-0.34c-2.63-0.99-4.08-3.95-3.7-7.55 c0.05-0.49,0.13-0.98,0.2-1.48c0.18-1.2,0.36-2.33,0.07-3.1c-0.49-1.29,0.16-2.73,1.46-3.22c1.29-0.49,2.73,0.16,3.22,1.46 c0.75,2,0.46,3.93,0.2,5.63c-0.06,0.42-0.13,0.83-0.17,1.25c-0.14,1.34,0.24,2.25,0.48,2.34c0.27,0.1,1.2-0.44,1.9-1.59 c0.23-0.38,0.45-0.77,0.66-1.17c0.85-1.56,1.82-3.33,3.71-4.47c1.18-0.71,2.72-0.34,3.43,0.84c0.72,1.18,0.34,2.72-0.84,3.43 c-0.73,0.44-1.31,1.49-1.91,2.6c-0.26,0.47-0.51,0.94-0.79,1.39C230.15,185.74,227.89,187.57,225.39,187.57z M218.24,332.69 c-0.45,0-0.93-0.06-1.42-0.24c-1.64-0.6-2.37-2.06-2.67-2.68c-1.18-2.39-1.95-4.94-2.27-7.58c-0.17-1.37,0.81-2.62,2.18-2.78 c1.37-0.16,2.62,0.81,2.78,2.18c0.25,2.08,0.85,4.08,1.79,5.96c0.01,0.02,0.02,0.04,0.03,0.06c1.02-0.32,3.45-2.16,9.18-8.9 l0.66-0.77c0.9-1.05,2.48-1.17,3.53-0.27c1.05,0.9,1.17,2.48,0.27,3.53l-0.64,0.75c-5.1,6-8.88,9.86-11.98,10.57 C219.25,332.6,218.77,332.69,218.24,332.69z M294.76,233.64c-0.1,0-0.19-0.01-0.29-0.02c-0.91-0.11-1.69-0.7-2.03-1.55 c-2.09-5.23-2.68-11.16-1.65-16.7c0.25-1.36,1.56-2.25,2.92-2c1.36,0.25,2.25,1.56,2,2.92c-0.52,2.77-0.55,5.66-0.11,8.47 c0.42-0.88,0.79-1.79,1.13-2.71c0.48-1.3,1.91-1.96,3.21-1.49c1.3,0.48,1.96,1.91,1.49,3.21c-1.15,3.13-2.7,6.09-4.62,8.81 C296.33,233.25,295.57,233.64,294.76,233.64z M287.68,307.35c-1.04,0-1.99-0.42-2.69-1.19c-1.38-1.51-1.27-3.79-1.21-4.45 c0.46-4.63,1.44-9.22,2.89-13.65c0.43-1.31,1.84-2.02,3.16-1.59c1.31,0.43,2.03,1.84,1.59,3.16c-1.17,3.56-2,7.23-2.48,10.95 c1.84-2.15,3.33-4.61,4.36-7.24c0.5-1.29,1.95-1.92,3.24-1.42c1.29,0.5,1.92,1.95,1.42,3.24c-1.57,4.02-4.05,7.73-7.17,10.73 c-0.45,0.43-1.5,1.44-3.08,1.46C287.7,307.35,287.69,307.35,287.68,307.35z M288.82,302.98L288.82,302.98L288.82,302.98z M266.02,364.9c-0.35,0-0.71-0.08-1.04-0.23c-0.88-0.41-1.45-1.28-1.46-2.25l-0.08-11.29c-0.01-1.38,1.1-2.51,2.48-2.52 c0.01,0,0.01,0,0.02,0c1.37,0,2.49,1.11,2.5,2.48l0.04,5.54c1.88-1.99,3.59-4.13,5.12-6.4c0.77-1.15,2.33-1.45,3.47-0.68 s1.45,2.33,0.68,3.47c-2.84,4.21-6.24,8-10.11,11.28C267.17,364.69,266.6,364.9,266.02,364.9z M338.78,242.4 c-0.51,0-1.02-0.04-1.52-0.14c-1.36-0.24-2.03-0.99-2.36-1.57c-0.5-0.89-0.51-1.9-0.03-3l6.77-15.6c0.55-1.27,2.02-1.85,3.29-1.3 c1.27,0.55,1.85,2.02,1.3,3.29l-5.56,12.82c0.45-0.24,0.85-0.56,1.16-0.95c0.86-1.08,2.43-1.26,3.51-0.4 c1.08,0.86,1.26,2.43,0.4,3.51C344.05,241.17,341.44,242.39,338.78,242.4z M92.12,304.3c-0.63,0-1.26-0.24-1.75-0.71l-12.9-12.64 c-0.99-0.97-1-2.55-0.03-3.54s2.55-1,3.54-0.04l12.9,12.64c0.99,0.97,1,2.55,0.04,3.54C93.42,304.05,92.77,304.3,92.12,304.3z"/></g></svg>