<?xml version="1.0" encoding="UTF-8"?><svg xmlns="http://www.w3.org/2000/svg" xmlns:xlink="http://www.w3.org/1999/xlink" contentScriptType="text/ecmascript" fill="#000000" width="386.2" zoomAndPan="magnify" contentStyleType="text/css" viewBox="0.0 -1.5 386.2 427.4" height="427.4" preserveAspectRatio="xMidYMid meet" version="1"><g data-name="Layer 1"><g id="change1_4"><path fill="#3f3a6d" d="M227.36,245.7a6.5,6.5,0,0,1-1.86.28H172.6v0H71.19a8.88,8.88,0,0,1-8.48-6.2L43.65,179.57a10.58,10.58,0,0,1,10.09-13.79h85.71a10.58,10.58,0,0,1,10.1,7.4L170,237.8H231.5A6.3,6.3,0,0,1,227.36,245.7Z"/></g><g id="change2_4"><path fill="#99b0dc" d="M86.3,198.72c2.7-3.68,14.91,6,15.8,6.84.47-.8,6.83-10.51,11.49-6.84,4,3.19-4.85,17.43-7.21,21.07a1.06,1.06,0,0,1-1.49.07l-.08-.07C100.49,216.15,84,201.91,86.3,198.72Zm11.19-2.61c1,3.12,2.59,5.39,3.61,5.08s1.06-3.11.08-6.23-2.58-5.39-3.6-5.07S96.52,193,97.49,196.11Z"/></g><g id="change3_3"><path fill="#eb8b8f" d="M307,260.64H221.45V409.12h-16.7V260.64H61.36V409.12H44.65V260.64H0V246H307Z"/></g><g id="change2_5"><path fill="#99b0dc" d="M45.81,221.67H42.87l2.73-11.89a21.66,21.66,0,0,1-18.44,10.06A22.09,22.09,0,0,1,8.7,209.79l8.47,36.93h20l3-13h5.69a5.81,5.81,0,0,0,5.81-5.81h0v-.38A5.81,5.81,0,0,0,45.81,221.67Zm2.42,6.19a2.42,2.42,0,0,1-2.42,2.42H40.9l1.19-5.21h3.72a2.42,2.42,0,0,1,2.42,2.43Z"/></g><g id="change1_5"><path fill="#3f3a6d" d="M8.7,209.79H45.63a21.66,21.66,0,0,1-18.47,10.06A22.09,22.09,0,0,1,8.7,209.79Z"/></g></g><g data-name="Layer 3"><g id="change2_1"><path fill="#99b0dc" d="M271.6,339.47l-5,6.66-17.83,29.25a2.46,2.46,0,0,1-4.52-.85l-9.84-56.06a2.72,2.72,0,0,1,2.26-3.15l32.68-6.73Zm25,51.41,6.73,32.68a2.72,2.72,0,0,0,3.15,2.26L362.5,416a2.46,2.46,0,0,0,.85-4.53L334.1,393.63l-6.66-5Z"/></g><g id="change4_1"><path fill="#f4c799" d="M384.61,80.38c-1.56,5.07-5.65,8.86-7.73,8.55a4.2,4.2,0,0,1-1-.31c1.14,17.92,1.08,65.82-35.57,60.36-8.25-1.23-19.6-10-27.83-17.29a5.46,5.46,0,0,0,6-8,5.45,5.45,0,0,0,5.44-8.12,5.47,5.47,0,0,0,5.44-8.13,5.45,5.45,0,0,0,5.17-2.3c3.8,4.56,6.46,7.82,6.46,7.82s2.69-28.56,7.77-43.49c4.55-13.35,5.07-20.78,9.95-20.63,2.9.43,3.16,6.11,2.79,11.21l.32,0c6.13-5.48,16.74-14,20.7-11.52,2.84,1.79-3.15,8.78-9.06,14.66v0s5.71-1.15,5.91,4.73c0,0,4.72,1.83,2.89,6.55C382.25,74.52,386.17,75.32,384.61,80.38Z"/></g><g id="change1_1"><path fill="#3f3a6d" d="M368.4,214.49,324.88,184c-.34-.21-26.88-1.62-26.88-1.62a3.24,3.24,0,0,0-1,0l-53-11.53-3.07,10.86a59.76,59.76,0,0,0,0,32.54l23.31,82.58-.71.49a3.06,3.06,0,0,0-1.22,3.17l10.89,47.93a3,3,0,0,0,4.87,1.7l1-.8,13.4,47.46a1.7,1.7,0,0,0,2,1.19L337,388.63a3.36,3.36,0,0,0,2.58-4L325,312.51l46.57-37.35A37.44,37.44,0,0,0,368.4,214.49ZM314.72,262,311.5,246l17.64,6Z"/></g><g id="change1_2"><path fill="#3f3a6d" d="M244.27,374.53l-9.84-56.06a2.72,2.72,0,0,1,2.26-3.15l2.32-.44a2.73,2.73,0,0,0-.38,1.91l9.84,56.06a2.36,2.36,0,0,0,.94,1.51l-.62,1A2.46,2.46,0,0,1,244.27,374.53Zm119.08,36.92-1-.62a2.33,2.33,0,0,1-1.51.95l-56.06,9.84a2.73,2.73,0,0,1-1.91-.38l.44,2.32a2.72,2.72,0,0,0,3.15,2.26L362.5,416A2.46,2.46,0,0,0,363.35,411.45Z"/></g><g id="change1_3"><path fill="#3f3a6d" d="M332.93,67c-.74,8.56-6.09,15.78-13.85,20.12-9.49,5.31-18.78,10.93-26.91,17.65-6.79,5.63-16.6,8.57-27.06,7.16-15.09-2-26.92-13.06-28-25.94a22.73,22.73,0,0,1,1.34-9.75,4.7,4.7,0,0,0-1-4.79c-.33-.38-.65-.78-1-1.19l-2-2.64c-6.93-9.09-4-25.57,9.43-32.64l1-.52a52.41,52.41,0,0,0,10.39-6.91c-5.65-3.57-8.42-9.68-6.24-14.59,1.6-3.62,5.5-5.68,10-5.8a8.05,8.05,0,0,1,4-6.3c4.38-2.34,10.47.52,13.61,6.39a16.75,16.75,0,0,1,.89,2c19.16-4.88,45.15,2.56,43.82,27.23-.21,3.91,2.67,7.58,4.94,11.05.66,1,1.36,2.11,2.09,3.35A24.37,24.37,0,0,1,332.93,67Z"/></g><g id="change2_2"><path fill="#99b0dc" d="M334.87,101.67,315.3,84.45a25.51,25.51,0,0,0-15.84-6.39L274.7,77l-.94-.1c-.83-.1-1.65-.15-2.46-.17v0h-.44c-.66,0-1.31,0-2,0l-16.55.32a27.41,27.41,0,0,0-24.4,21.17L223.61,120a3.12,3.12,0,0,0,2.61,3.7l15.32,2.18-.26,53.75,85,4.45a3.85,3.85,0,0,0,3.68-5.5l-17.15-36,23.09-30.57A7.67,7.67,0,0,0,334.87,101.67Z"/></g><g id="change4_2"><path fill="#f4c799" d="M229.79,241.17h0a11.91,11.91,0,0,1-9.93,7.15,6.12,6.12,0,0,1-5.31,3.11h-4a4.65,4.65,0,0,1-2.82-1A4.64,4.64,0,0,1,203.1,255a1.49,1.49,0,0,1-1.49-1.49v-3.17A4.66,4.66,0,0,1,197,255a1.49,1.49,0,0,1-1.48-1.49v-3.17a4.66,4.66,0,0,1-4.65,4.66,1.49,1.49,0,0,1-1.48-1.49V241.61a9,9,0,0,1,10-8.92l8.1.91L228.17,123l38.25,6.92-36,109.4a11,11,0,0,1-.6,1.81Z"/></g><g id="change2_3"><path fill="#99b0dc" d="M311.81,119.63s58.79,48.93,20.28,71.53c-51.6,30.29-83.9-6-83.9-6l18.23-55.22Z"/></g><g id="change3_1"><path fill="#eb8b8f" d="M355.76,412.48a.61.61,0,0,1-.49.71l-52.11,9.42h-.11a.6.6,0,0,1-.6-.5.61.61,0,0,1,.49-.71L355.05,412A.62.62,0,0,1,355.76,412.48Zm-48.6-5.38a5.31,5.31,0,1,1,5.3,5.3A5.31,5.31,0,0,1,307.16,407.1Zm1.22,0a4.09,4.09,0,1,0,4.08-4.09A4.08,4.08,0,0,0,308.38,407.1Zm26-14a.62.62,0,0,0-.84.2l-3.71,6a.61.61,0,0,0,.2.84.61.61,0,0,0,.84-.2l3.71-6A.61.61,0,0,0,334.42,393.11Zm3.69,3.09-3.71,6a.61.61,0,0,0,.2.84.61.61,0,0,0,.84-.2l3.71-6a.6.6,0,0,0-.2-.84A.61.61,0,0,0,338.11,396.2Zm.78,9.72a.62.62,0,0,0,.32.09.59.59,0,0,0,.52-.29l3.71-6a.61.61,0,1,0-1-.64l-3.72,6A.61.61,0,0,0,338.89,405.92Zm-15.42-19.39a3,3,0,0,1,4.06-3.89,3,3,0,0,1,1.62,1.68,36.25,36.25,0,0,1,1.1,5.26,25.49,25.49,0,0,1,3.2-3.9,3,3,0,1,1,4,4.58c-.43.38-5.86,3.5-7.81,3.5h0a.73.73,0,0,1-.32.09.78.78,0,0,1-.22,0C327.78,393.45,323.84,387.5,323.47,386.53Zm6.9,5.15a4.67,4.67,0,0,1-.06.78,31,31,0,0,0,6.35-3.12,1.78,1.78,0,0,0,.62-1.25,1.83,1.83,0,0,0-3-1.5A25.44,25.44,0,0,0,330.37,391.68Zm-5.77-5.59h0a36.36,36.36,0,0,0,4.29,6.07,4.56,4.56,0,0,1,.3-.78,28.76,28.76,0,0,0-1.18-6.62,1.83,1.83,0,0,0-1.71-1.16,1.92,1.92,0,0,0-.66.12A1.85,1.85,0,0,0,324.6,386.09Zm-86.47-71.61a.6.6,0,0,0-.5.6.45.45,0,0,0,0,.11l9.42,52.11a.61.61,0,0,0,.71.49.62.62,0,0,0,.49-.71L238.84,315A.61.61,0,0,0,238.13,314.48Zm15,15.32a5.31,5.31,0,1,1,5.31-5.31A5.31,5.31,0,0,1,253.15,329.8Zm4.09-5.31a4.09,4.09,0,1,0-4.09,4.09A4.09,4.09,0,0,0,257.24,324.49Zm9.7,21.12-6-3.71a.61.61,0,0,0-.84.2.61.61,0,0,0,.2.84l6,3.71a.61.61,0,0,0,.84-.2A.62.62,0,0,0,266.94,345.61Zm-2.9,4.53-6-3.71a.61.61,0,0,0-.84.2.61.61,0,0,0,.2.84l6,3.71a.61.61,0,0,0,.64-1Zm-2.87,4.3-6-3.72a.61.61,0,0,0-.84.2.62.62,0,0,0-.09.32.59.59,0,0,0,.29.52l6,3.71a.61.61,0,0,0,.64-1Zm16.5-17.21a3,3,0,0,1-.06,2.33,3,3,0,0,1-1.68,1.62,36.25,36.25,0,0,1-5.26,1.1,25.49,25.49,0,0,1,3.9,3.2,3,3,0,1,1-4.58,4c-.38-.43-3.5-5.86-3.5-7.81h0a.73.73,0,0,1-.09-.32.78.78,0,0,1,0-.22c.37-1.32,6.32-5.26,7.29-5.63A3.06,3.06,0,0,1,277.67,337.23Zm-9.11,5.17a4.75,4.75,0,0,1-.78-.06,31.56,31.56,0,0,0,3.13,6.35,1.78,1.78,0,0,0,1.25.62,1.83,1.83,0,0,0,1.5-3A25.24,25.24,0,0,0,268.56,342.4Zm8.09-4.07a1.92,1.92,0,0,0-.12-.66,1.85,1.85,0,0,0-2.37-1h0a36.36,36.36,0,0,0-6.07,4.29,4.56,4.56,0,0,1,.78.3,28.86,28.86,0,0,0,6.62-1.18A1.83,1.83,0,0,0,276.65,338.33Z"/></g><g id="change4_3"><path fill="#f4c799" d="M286.18,101.4c-22.65-.42-35.12-16.7-37.77-23.68a14.6,14.6,0,0,1,4-.7c13.09-1,15.45-1,20-6.67s5.47-17.23,5.47-17.23-11.18-2.92-9.25-11.95c1.75-8.17,11.42-7.82,16.53-1.82,0,0,8.29-1.64,16.34-10.06,0,0,5.61,1.54,9.51,1,.77,6.37.45,13.45,1.39,19.22,1.58,9.74-.08,16-6,19.14s-12.61.51-12.61.51L294.92,78s9.72-1,16.14,3.49C309.27,92.32,304.78,98.42,286.18,101.4Z"/></g><g id="change5_1"><path fill="#231f20" d="M281.44,43.83a.72.72,0,0,1-.24,1,.67.67,0,0,1-.38.11.73.73,0,0,1-.63-.35S277.24,39.92,273,41a.73.73,0,0,1-.36-1.42C277.93,38.24,281.3,43.6,281.44,43.83Zm12.77,26,0,0a.72.72,0,0,0-.43-.64,57.2,57.2,0,0,1-5.78-3,.73.73,0,0,0-1,.25.74.74,0,0,0,.25,1c.47.28,1,.52,1.44.79l6.19,7.64Zm15.54-31.16a2.59,2.59,0,0,0-1.05-.76,6,6,0,0,0-2.3-.58,6.64,6.64,0,0,0-1.18.11h-.05a4,4,0,0,0-1.23.35,1.32,1.32,0,0,0-.69.83c-.12.64.44,1.21,1,1.54a5.74,5.74,0,0,0,4.65.47,1.57,1.57,0,0,0,1-.75A1.19,1.19,0,0,0,309.75,38.63ZM298.5,40.69a1.41,1.41,0,0,0-1.06-1.35,2.15,2.15,0,0,0-1,.16,3.32,3.32,0,0,0-1.15.64,6,6,0,0,0-1.51,2.19,3.13,3.13,0,0,0-.34,1.34,1.39,1.39,0,0,0,.63,1.17,1.91,1.91,0,0,0,2-.41,7.35,7.35,0,0,0,1.89-2A3.06,3.06,0,0,0,298.5,40.69Zm6.32,11.25a.73.73,0,0,0,.28,1.41.92.92,0,0,0,.28-.05A2.19,2.19,0,0,0,306.56,52c1-2.67-1.72-8.58-2-9.24a.73.73,0,0,0-1-.35.74.74,0,0,0-.35,1c1.09,2.29,2.59,6.52,2,8.08A.68.68,0,0,1,304.82,51.94Zm1.9,4.11a5.59,5.59,0,0,1-4,.65c-1.6-.39-3-1.63-4.18-3.69a.73.73,0,1,0-1.28.72c1.38,2.43,3.11,3.91,5.14,4.4a6.36,6.36,0,0,0,1.46.17,7.11,7.11,0,0,0,3.63-1,.73.73,0,0,0-.8-1.23Zm1.6-12.65a1.08,1.08,0,1,0,1.34.72A1.07,1.07,0,0,0,308.32,43.4ZM300.16,48a1.09,1.09,0,0,0,.72-1.35,1.08,1.08,0,0,0-2.07.62A1.09,1.09,0,0,0,300.16,48Z"/></g><g id="change3_2"><path fill="#eb8b8f" d="M289.24,48.1a2.9,2.9,0,1,1-1.94,3.61A2.89,2.89,0,0,1,289.24,48.1Z"/></g><g id="change5_2"><path fill="#231f20" d="M374.2,85.29a3.35,3.35,0,0,0,.56,2.11A1.63,1.63,0,0,0,376,88a.56.56,0,0,1,.52.59.57.57,0,0,1-.56.53h0a2.74,2.74,0,0,1-2-1,4.13,4.13,0,0,1-.81-2.44c-2,.42-3.54.15-4.6-.81C367,83.54,367,81.3,367,80.13A4.53,4.53,0,0,1,363.1,79c-1.44-1.47-1.36-3.9-1.22-5.06a3,3,0,0,1-2.34-1.32c-1.08-1.78.31-4.58.37-4.7a.56.56,0,0,1,.75-.24.55.55,0,0,1,.25.75c-.33.65-1,2.58-.41,3.61a2.24,2.24,0,0,0,2,.82.53.53,0,0,1,.12,0c3.34-2.36,7.81-5.83,10.42-9.94a.56.56,0,1,1,.94.6c-2.79,4.4-7.56,8-11,10.46-.12.94-.23,3.06.9,4.2.76.76,2,1,3.65.66h0a43.47,43.47,0,0,0,11.5-10.79.56.56,0,1,1,.92.64,44.71,44.71,0,0,1-11.81,11.1c-.09.8-.19,3,1.06,4.17.88.79,2.31.92,4.26.38a75.57,75.57,0,0,0,8.66-9.71.56.56,0,0,1,.91.65A76.64,76.64,0,0,1,374.2,85.29ZM309,119.06a.73.73,0,0,0-.64,1.32,51.12,51.12,0,0,1,14,10.16.74.74,0,0,0,1,.05.74.74,0,0,0,.05-1A52,52,0,0,0,309,119.06Z"/></g><g id="change5_3"><path fill="#231f20" d="M195.48,251.06a.73.73,0,0,1-.73-.73c0-1.18,0-11.55,4.73-12.17a.74.74,0,0,1,.82.63.73.73,0,0,1-.63.82c-2.89.39-3.48,8-3.46,10.71a.73.73,0,0,1-.72.74Zm6.14,0a.75.75,0,0,0,.73-.74c0-2.32.57-8.46,3.51-9a.73.73,0,0,0-.29-1.44c-4.73.94-4.69,10.1-4.69,10.49a.73.73,0,0,0,.73.73Zm6.14.13a.74.74,0,0,0,.71-.76c0-.31-.23-7.53,5.68-8a.73.73,0,0,0,.67-.79.75.75,0,0,0-.79-.67c-5.86.49-7.16,6.46-7,9.55a.74.74,0,0,0,.73.7Z"/></g></g></svg>