<?xml version="1.0" encoding="UTF-8"?><svg xmlns="http://www.w3.org/2000/svg" xmlns:xlink="http://www.w3.org/1999/xlink" contentScriptType="text/ecmascript" fill="#000000" width="257.8" zoomAndPan="magnify" contentStyleType="text/css" viewBox="-0.2 -1.1 257.8 500.0" height="500" preserveAspectRatio="xMidYMid meet" version="1"><g id="change1_1"><path fill="#99b0dc" d="M249.7,379.64c-2.87,37.42-12.54,89.75-56.57,99.39c-25.62,5.61-51.85,7.22-77.78,10.72 c-25.36,3.42-48.65,9.22-73.99,1.21c-30.23-9.56-37.11-35.53-39.08-64.38c-0.81-11.89-1.39-23.79-1.76-35.69 c-0.74-23.77-0.66-47.57,0.05-71.34c0.97-32.37-0.47-69.08,12.91-99.3c5.99-13.53,16.24-26.05,29.66-32.69 c14.36-7.11,33.99-4.96,44.74-18.69c2.14-2.73,3.73-5.98,5.75-8.78c-3.04-0.16-6.07-0.39-9.08-0.72 c-6.23-0.69-10.69-2.4-11.12-10.04c-0.57-10.36,2.94-22.76,4.3-33.05c0.38-2.88,0.8-5.88,2.33-8.22c3.35-5.12,10.09-4.82,15.73-4.44 c22.67,1.54,45.22-3.96,67.89-5.44c2.69-0.17,5.78-0.11,7.55,2.17c0.74,0.96,1.14,2.19,1.5,3.4c4.26,14.25,5.86,29.5,4.65,44.47 c-0.18,2.23-0.47,4.6-1.75,6.32c-1.4,1.9-3.68,2.6-5.83,3.09c-4.57,1.04-9.21,1.53-13.87,1.78c0.85,3.06,2.99,5.7,5.57,7.58 c3.09,2.27,7,3.96,10.76,4.72c12.83,2.6,25.24-0.46,36.92,6.82c10.86,6.78,18.42,18.69,23.69,30.06 C257.59,261.85,254.31,319.55,249.7,379.64z"/></g><g id="change2_1"><path fill="#efa54f" d="M103.16,43.01c0.88-7.51,1.78-15.1,4.48-22.24c2.7-7.14,7.4-13.91,14.41-17.95 c4.44-2.56,10.24-3.89,14.95-1.77c2.27,1.02,4.07,2.74,5.69,4.52c5.42,5.96,9.4,13,11.57,20.48c2.49,8.55,2.62,17.5,2.74,26.34 c0,10.13,0.27,20.26,0.4,30.39c0.07,5.2,0.14,10.4,0.21,15.6c0.05,3.78,2.69,10.24-1.12,13.02c-1.04,0.76-2.34,1.05-3.6,1.32 c-6.54,1.39-13.13,2.66-19.77,3.49c-8.83,1.1-17.8,1.44-26.69,0.75c-6.79-0.52-11.04-1.6-11.04-7.91c0-7.38,1.78-15.11,2.64-22.45 C99.74,72.08,101.45,57.54,103.16,43.01z M67.87,327.6c2.82,10.39,20.38,6.65,29.71,6.83c28.35,0.53,56.81,0.32,84.96-3.42 c16.49-2.19,34.71-6.86,43.32-21.09c3.38-5.59,4.87-12.12,5.77-18.6c1.59-11.4,1.49-23.04-0.27-34.42c-0.58-3.74-1.4-7.59-3.7-10.59 c-4.07-5.3-11.77-6.5-18.28-5.01s-12.28,5.12-18.3,8.01c-27.62,13.27-59.77,10.77-90.41,10.91c-7.62,0.03-15.86,0.47-21.74,5.3 c-6.31,5.18-8.15,13.96-9.18,22.07C68.27,299.11,64.78,316.22,67.87,327.6z"/></g><g id="change3_1"><path fill="#3f3a6d" d="M158.9,158.18c0.26,1.34-0.61,2.64-1.95,2.91c-10.06,1.99-20.36,3.28-30.61,3.83 c-3.55,0.19-6.98,0.29-10.3,0.29c-9.31,0-17.78-0.75-25.69-2.26c-1.34-0.26-2.22-1.55-1.97-2.9c0.26-1.34,1.56-2.23,2.9-1.97 c7.03,1.34,14.55,2.05,22.75,2.15c0.12-8.13,1.06-21.55,3.01-29.6c0.32-1.33,1.65-2.15,2.99-1.82c1.33,0.32,2.14,1.66,1.82,2.99 c-1.71,7.03-2.76,19.51-2.87,28.42c2.32-0.04,4.67-0.11,7.1-0.24c2.08-0.11,4.16-0.26,6.23-0.43c-0.09-0.25-0.14-0.51-0.15-0.79 c-0.04-9.07-1.05-22.32-2.41-31.93c-3.85,0.37-7.72,0.56-11.59,0.56c-4.82,0-9.64-0.29-14.41-0.86l-1.43,29.81 c-0.06,1.32-1.16,2.36-2.47,2.36c-0.04,0-0.08,0-0.12,0c-1.37-0.07-2.42-1.23-2.35-2.59l1.45-30.27c-0.09-0.02-0.19-0.03-0.28-0.04 c-3.12-0.51-6.71-1.22-9.91-3.11c-3.73-2.21-6.14-5.74-6.46-9.44c-0.11-1.36,0.9-2.56,2.26-2.67c1.35-0.11,2.56,0.9,2.67,2.26 c0.18,2.08,1.73,4.23,4.05,5.6c2.46,1.46,5.52,2.05,8.19,2.49c16.69,2.75,34.12,1.78,50.4-2.8c5.13-1.44,11.44-3.71,14.76-8.47 c0.78-1.12,2.33-1.39,3.45-0.61c1.12,0.78,1.4,2.33,0.61,3.45c-4.22,6.04-11.55,8.73-17.47,10.4c-5.37,1.51-10.87,2.65-16.42,3.4 c1.38,9.81,2.4,23.25,2.44,32.47c0,0.13-0.02,0.25-0.04,0.37c3.77-0.4,7.53-0.9,11.26-1.49c0.1-8.28-0.65-20.42-2.22-28.17 c-0.27-1.34,0.6-2.65,1.94-2.92c1.34-0.27,2.65,0.6,2.92,1.94c1.63,8.06,2.37,19.89,2.32,28.3c0.9-0.17,1.8-0.33,2.69-0.51 C157.33,155.97,158.64,156.84,158.9,158.18z M88.47,125.78c-0.11-1.36-1.31-2.38-2.66-2.27c-1.36,0.11-2.38,1.3-2.27,2.66 c0.79,9.95,0.36,18-1.48,27.81c-0.25,1.34,0.63,2.64,1.98,2.89c0.15,0.03,0.31,0.04,0.46,0.04c1.17,0,2.21-0.83,2.43-2.02 C88.83,144.76,89.29,136.05,88.47,125.78z M164.88,123.52c-0.43-1.3-1.83-2.01-3.12-1.58c-1.3,0.43-2.01,1.82-1.58,3.12 c3.14,9.56,4.49,19.93,3.9,29.98c-0.08,1.36,0.96,2.53,2.33,2.61c0.05,0,0.1,0,0.15,0c1.3,0,2.39-1.02,2.47-2.33 C169.65,144.52,168.25,133.81,164.88,123.52z M132.78,15.83c2.39-0.29,5.34-1.49,6.47-3.97c0.66-1.44,0.5-3.07-0.43-4.45 c-1.52-2.25-5-3.79-8.32-3.65c-2.71,0.11-7.3,1.72-8.54,4.82c-0.64,1.61-0.28,3.29,1,4.61c0,0,0,0,0,0 c0.83,0.86,1.93,1.35,2.68,1.65c1.81,0.72,3.74,1.09,5.58,1.09C131.75,15.93,132.27,15.9,132.78,15.83z M126.51,9.75l-1.78,1.72 l1.76-1.75C126.5,9.73,126.51,9.74,126.51,9.75z M130.7,8.71c1.62-0.07,3.33,0.73,3.87,1.3c-0.34,0.3-1.17,0.76-2.4,0.92 c-1.46,0.18-3.14-0.06-4.71-0.69c-0.2-0.08-0.37-0.15-0.49-0.22C127.72,9.46,129.26,8.77,130.7,8.71z M120.4,100.18 c1.44-0.04,2.89-0.03,4.33-0.03c2.35,0.01,4.79,0.01,7.21-0.16c2.75-0.19,5.51-0.53,8.18-0.86c1.1-0.14,2.2-0.27,3.3-0.4 c3.65-0.42,7.56-0.89,11.44-1.51c1.35-0.22,2.27-1.48,2.05-2.83c-0.22-1.35-1.49-2.27-2.83-2.05c-3.79,0.6-7.63,1.07-11.22,1.48 c-1.11,0.13-2.23,0.26-3.34,0.4c-2.6,0.32-5.3,0.65-7.92,0.84c-2.25,0.16-4.49,0.15-6.85,0.15c-1.49,0-2.98-0.01-4.47,0.03 c-3.98,0.1-7.68,0.12-11.31,0.05c-3.44-0.06-6.89-0.44-10.28-1.13c-1.34-0.27-2.65,0.59-2.92,1.93c-0.27,1.34,0.59,2.65,1.93,2.92 c3.67,0.74,7.43,1.16,11.17,1.23c1.47,0.03,2.94,0.04,4.45,0.04C115.61,100.27,117.95,100.24,120.4,100.18z M109.37,485.38 c6.99-1.35,14.21-2.75,21.33-3.63c6.98-0.86,14.17-1.26,21.12-1.65c6.26-0.35,12.74-0.71,19.12-1.41 c12.46-1.37,38.84-7.25,58.71-20.63c1.13-0.76,1.43-2.3,0.67-3.43c-0.76-1.13-2.3-1.44-3.43-0.67 c-19.07,12.84-44.48,18.5-56.48,19.81c-6.24,0.68-12.65,1.04-18.85,1.39c-7.03,0.39-14.3,0.8-21.45,1.68 c-7.28,0.9-14.59,2.31-21.66,3.68c-12.08,2.34-24.56,4.76-36.92,4.55c-5.92-0.09-10.23-0.8-13.98-2.28 c-4.57-1.81-8.06-4.83-9.82-8.51c-1.9-3.97-1.83-8.59-1.75-13.48c0.06-3.77,0.12-7.67-0.74-11.5c-5.75-25.57-4.79-52.57-3.87-78.68 c0.45-12.58,0.91-25.58,0.62-38.32c-0.34-15.24-0.7-31.01,0.79-46.38c0.25-2.6,0.56-5.26,0.86-7.82c0.59-5.04,1.2-10.25,1.41-15.45 c0.17-4.26,0.09-8.57,0-12.73c-0.12-5.78-0.24-11.76,0.36-17.52c0.82-7.87,3.51-18.62,11.62-25.16c1.06-0.86,1.23-2.42,0.38-3.48 c-0.86-1.06-2.42-1.23-3.48-0.38c-9.45,7.6-12.52,19.69-13.44,28.5c-0.63,6.07-0.51,12.21-0.38,18.14c0.09,4.09,0.17,8.31,0,12.43 c-0.21,5.01-0.8,10.13-1.38,15.07c-0.3,2.59-0.62,5.27-0.87,7.92c-1.51,15.67-1.16,31.58-0.81,46.97 c0.28,12.6-0.18,25.53-0.62,38.04c-0.94,26.42-1.91,53.75,3.98,79.95c0.73,3.25,0.68,6.69,0.62,10.33 c-0.08,5.25-0.17,10.68,2.23,15.7c2.3,4.81,6.73,8.71,12.47,10.98c5.61,2.22,11.66,2.56,15.72,2.63c0.5,0.01,1.01,0.01,1.51,0.01 C85.29,490.04,97.53,487.67,109.37,485.38z"/></g></svg>