<?xml version="1.0" encoding="UTF-8"?><svg xmlns="http://www.w3.org/2000/svg" xmlns:xlink="http://www.w3.org/1999/xlink" contentScriptType="text/ecmascript" fill="#000000" width="464.1" zoomAndPan="magnify" contentStyleType="text/css" viewBox="0.0 0.0 464.1 475.7" height="475.7" preserveAspectRatio="xMidYMid meet" version="1"><g data-name="Layer 3"><g id="change1_1"><path fill="#f4c799" d="M462.17,216.67a28.22,28.22,0,0,1-6.58,9.7s.12,17.13-16.08,23.45c-.32.14-.65.26-1,.39-9,20.36-52.26,120.45-106.22,115.34-60.53-5.74-60.53-66.91-60.53-66.91l38.86-44,21,33.13,67.57-62.48a33.16,33.16,0,0,1,1.09-6.14,35.87,35.87,0,0,1,3.69-8.86c3.06-5.14,6.52-10,9.82-15,2.81-4.25,5.5-8.6,8.48-12.73a100.75,100.75,0,0,1,8.27-10.14c2.32-2.45,5.55-2.52,7.53-.81s2,5.44.11,8.38c-3.74,5.75-4.74,7.81-8.46,13.37,2.88-1.33,6.31-2.14,8.83-.25,5.21,3.9,4.78,4.78,4.78,4.78,3.05-2.28,7.55.42,9.05,4.17l1.88.85c3.21-1.27,5.34-.23,6.9,2.05A11.29,11.29,0,0,1,462.17,216.67Z" fill-rule="evenodd"/></g><g id="change2_1"><path fill="#3f3a6d" d="M84.38,475.53C87,422,93.07,377.6,93.07,377.6l185.5,2.69,3.83,95.24Z"/></g><g id="change3_1"><path fill="#fdfdfb" d="M205,152.38c77.88,11.35,117.47,89.9,117.47,89.9C309.93,272.75,282.15,297,282.15,297l-3.58,83.34c-37.64,8.06-185.5-2.69-185.5-2.69l.76-96c-31.28,4.89-93.83-20-93.83-20C58.64,165.32,146.38,149,146.38,149Z"/></g><g id="change4_1"><path fill="#efa54f" d="M318.69,250.88a.91.91,0,0,1-.39.08,1,1,0,0,1-.92-.6c-.87-2-1.78-4-2.71-5.92-5.74,10.64-17.25,29.3-33,41.87a1.06,1.06,0,0,1-.63.21,1,1,0,0,1-.78-.37,1,1,0,0,1,.16-1.41c16.17-12.88,27.8-32.3,33.18-42.51-16.95-33.76-41.29-51-41.56-51.18a1,1,0,1,1,1.15-1.64c.26.18,24.39,17.27,41.55,50.64,1.43-2.82,2.2-4.55,2.23-4.63a1,1,0,0,1,1.32-.51,1,1,0,0,1,.51,1.32c0,.08-1,2.37-2.95,6q1.76,3.56,3.39,7.33A1,1,0,0,1,318.69,250.88ZM119,166.26c-43,14.93-82.72,68.46-97.5,90.3-8.82-3.14-14.52-5.65-14.7-5.73A1,1,0,0,0,6,252.65c.1,0,5.69,2.52,14.36,5.64-3.11,4.66-4.85,7.5-4.94,7.65a1,1,0,0,0,.34,1.37,1,1,0,0,0,.51.15,1,1,0,0,0,.86-.48c.09-.16,1.92-3.14,5.17-8,5.19,1.83,11.34,3.83,18,5.68,12.25,3.39,28,6.72,42.7,6.72a69.61,69.61,0,0,0,18.7-2.29,1,1,0,0,0-.54-1.92c-23.38,6.58-57.52-2.89-77.67-9.93,14.87-21.92,54-74.45,96.2-89.1a1,1,0,1,0-.65-1.89Z"/></g><g id="change4_2"><path fill="#efa54f" d="M93.07,377.6l6.62-98s13.54-81.51,4-114.93C128.6,152.31,146.38,149,146.38,149L205,152.38c27.33,4,49.93,16.24,67.77,30.47-.63,20-.47,46,2.85,68.93,2.21,15.29,4.42,32.11,6.41,47.77l-3.47,80.74C240.93,388.35,93.07,377.6,93.07,377.6Z"/></g><g id="change3_2"><path fill="#fdfdfb" d="M146.38,149s-2.86,24.55,4.35,26.1,27.82-10.31,27.82-10.31,17.51,12.37,22.66,11.34,3.8-23.74,3.8-23.74Z"/></g><g id="change3_3"><path fill="#fdfdfb" d="M140.7,200.5a1.79,1.79,0,1,1-1.79-1.79A1.79,1.79,0,0,1,140.7,200.5Zm26.84,29.35a1.79,1.79,0,1,0,1.79,1.79A1.79,1.79,0,0,0,167.54,229.85Zm-36.72,6.77a1.79,1.79,0,1,0,1.79,1.79A1.79,1.79,0,0,0,130.82,236.62Zm38.84-45.76a1.79,1.79,0,1,0,1.79,1.79A1.79,1.79,0,0,0,169.66,190.86Zm70.19-7.7a1.79,1.79,0,1,0-1.79,1.78A1.79,1.79,0,0,0,239.85,183.16ZM262,328.48a1.79,1.79,0,1,0,1.79,1.79A1.79,1.79,0,0,0,262,328.48Zm-62.57-66.83a1.79,1.79,0,1,0,1.79,1.79A1.79,1.79,0,0,0,199.47,261.65Zm-34.16,2.44a1.79,1.79,0,1,0,1.79,1.79A1.79,1.79,0,0,0,165.31,264.09Zm40.53-62.16a1.79,1.79,0,1,0,1.79,1.79A1.79,1.79,0,0,0,205.84,201.93Zm49.21,5.58a1.79,1.79,0,1,0,1.79,1.79A1.79,1.79,0,0,0,255.05,207.51Zm-98.6,100.73a1.79,1.79,0,1,0,1.79,1.79A1.79,1.79,0,0,0,156.45,308.24Zm84.47-18.06a1.79,1.79,0,1,0,1.79,1.79A1.79,1.79,0,0,0,240.92,290.18Zm-45.47,1.73a1.79,1.79,0,1,0,1.78,1.79A1.79,1.79,0,0,0,195.45,291.91ZM263,261.77a1.79,1.79,0,1,0,1.79,1.79A1.79,1.79,0,0,0,263,261.77ZM251.3,364.28a1.79,1.79,0,1,0,1.79,1.79A1.79,1.79,0,0,0,251.3,364.28ZM129.6,171.86a1.79,1.79,0,1,0,1.79,1.79A1.79,1.79,0,0,0,129.6,171.86ZM134.25,275a1.79,1.79,0,1,0,1.79,1.79A1.79,1.79,0,0,0,134.25,275Zm-17.39,27.53a1.79,1.79,0,1,0,1.79,1.79A1.79,1.79,0,0,0,116.86,302.48Z"/></g><g id="change3_4"><path fill="#fdfdfb" d="M229.94,269.11h0a18.29,18.29,0,0,1-18.29-18.29V224.64h36.58v26.18A18.29,18.29,0,0,1,229.94,269.11Z"/></g><g id="change4_3"><path fill="#efa54f" d="M254.15,231.25H204.37c-.77,0-1.38-.45-1.38-1s.61-1,1.38-1h49.78c.76,0,1.38.44,1.38,1S254.91,231.25,254.15,231.25Z"/></g><g id="change1_2"><path fill="#f4c799" d="M250,75.13c-.91,9.29-6,13.69-11,15.76-2.21,23.87-12,45.78-34,46.83v14.66s-26.5,29.31-58.63-3.39c0,0,2.26-51.29,1.7-68.77s0-63.13,46.78-63.69c36.19-.44,43.71,25.42,44.74,49.16a7.27,7.27,0,0,1,6.77,1.07A9.17,9.17,0,0,1,250,75.13Z"/></g><g id="change1_3"><path fill="#f4c799" d="M131.55,72.44a9.17,9.17,0,0,1,3.63-8.37c2.48-1.78,6.16-2.58,10.93,1.34A22.62,22.62,0,0,1,154.53,84l-1.06,5.89S133.46,91.88,131.55,72.44Z"/></g><g id="change2_2"><path fill="#3f3a6d" d="M143.46,63.66S139.94,39.5,145,25.16s19.62-13.59,19.62-13.59C160.32,8.55,161.32,0,161.32,0s22.14,9.81,51.08,7.55,44.78,2,44.28,17.61-15.6,19.12-15.6,19.12c.25,5.79-1.26,32.71-1.26,32.71-7.8-4.78-6-30.95-6-30.95-14.34,1.26-29.94-7.29-29.94-7.29-10.06,20.12-42.52,19.12-42.52,19.12C162.33,70,154.53,84,154.53,84,152.52,67.68,143.46,63.66,143.46,63.66Z"/></g><g id="change4_4"><path fill="#efa54f" d="M173.79,81.55a6.68,6.68,0,1,1-6.68,6.68A6.68,6.68,0,0,1,173.79,81.55Z"/></g><g id="change1_4"><path fill="#f4c799" d="M252.76,327.23l-2.89.66q-7.71,2.22-15.43,4.47c-9.31,3.11-16.23,6.11-16.23,6.11s13.27-3.74,14.47,6.81a14.24,14.24,0,0,1-2.13,8.45,7.86,7.86,0,0,1,.88.95c1.35.83,3.4,2.75,3.29,6.77-.12,4.19-5,10.16-11.58,12.94a15.88,15.88,0,0,1-11.78.91,47.56,47.56,0,0,1-7.36-2.67,32.85,32.85,0,0,1-14.15.95c-43.1,6.91-138.51,24.51-161.39-9.9C0,324.9,26.89,271.27,26.89,271.27s43.16,11.89,72.52,10.12l-3.26,45.09,85.9-2.2,0,.13a54.53,54.53,0,0,1,10.3-4.07c10.8-3.1,21.67-5.95,32.37-9.33,2.31-.73,4.58-1.59,6.83-2.5l5.19-2.21s18.84-8.47,20.94-4.26c3.31,6.61-.51,10.47-6,12.64-3.24.76-5.92,1.66-5.92,1.66l.42-.09.4-.13a35.08,35.08,0,0,1,3.79-1c.45-.15.89-.3,1.31-.47,4.82-1.13,10.92-1.94,11.45,1C263.83,319.4,269.62,323.66,252.76,327.23Z" fill-rule="evenodd"/></g><g id="change5_1"><path fill="#231f20" d="M167.26,323.77s-1.29,24.53,12,52.58c.11.22-1.21-.93-1.11-.72-3.09.63-6.76,1.35-10.87,2.08-4.53-11.36-8.61-29.7-5.55-53.71Z"/></g><g id="change4_5"><path fill="#efa54f" d="M179.46,349.41a13,13,0,1,1-13-13A13,13,0,0,1,179.46,349.41Z"/></g><g id="change5_2"><path fill="#231f20" d="M165.68,354.12a1,1,0,0,1-.58-.19,1,1,0,0,1-.42-.78L164.31,342a1,1,0,0,1,1-1h0a1,1,0,0,1,1,1l.33,9.84,6.93-2.2a1,1,0,1,1,.61,1.9L166,354.07A1,1,0,0,1,165.68,354.12Z"/></g><g id="change5_3"><path fill="#231f20" d="M456.34,227a1,1,0,0,1-1.41.1,95,95,0,0,0-8.55-6.55.91.91,0,0,1-.45-.22.83.83,0,0,1-.11-.15c-5.95-4-12.94-7.62-17.68-7.16a1,1,0,0,1-.49.14.85.85,0,0,1-.22,0,5.23,5.23,0,0,0-2.82,1.48c-1.24,1.28-1.79,2.38-1.63,3.27.34,1.87,3.76,3.48,7.07,5,3.87,1.82,7.87,3.7,9.59,6.77,4.28,7.65,0,11.46-.2,11.62a1,1,0,0,1-.65.24,1,1,0,0,1-.65-1.76c.13-.11,3.2-3-.25-9.12-1.4-2.51-5.11-4.25-8.69-5.94-3.94-1.85-7.66-3.6-8.19-6.48-.29-1.59.42-3.23,2.17-5a6.93,6.93,0,0,1,2.46-1.62c-2.5-3.36-1-8.49-.92-8.74a1,1,0,0,1,1.91.58c0,.06-1.51,5.25,1.26,7.64a17.14,17.14,0,0,1,7.32,1.22,1.62,1.62,0,0,1,.19-.18c5-3,7-14.28,7-14.39a1,1,0,0,1,2,.33c-.08.47-1.9,11-7,15.1a62.64,62.64,0,0,1,9.1,5.08c7.05-8.21,4.77-15.83,4.74-15.9a1,1,0,0,1,.66-1.26,1,1,0,0,1,1.25.66c.12.36,2.61,8.66-5,17.63,4.44,3.09,7.73,5.93,8.09,6.24A1,1,0,0,1,456.34,227Zm-204.67,85.7-34.6,12.38a1,1,0,0,0,.34,1.94,1.06,1.06,0,0,0,.34-.06l34.59-12.37a1,1,0,0,0-.67-1.89Zm-39.21,40.51c-.58.16-1.23.34-1.42.36a1,1,0,0,0-1,1,1,1,0,0,0,1,1,8.9,8.9,0,0,0,1.92-.43c3.64-1,12.17-3.36,16.74-.21a1,1,0,0,0,1.39-.26,1,1,0,0,0-.26-1.39C225.53,349.64,216.37,352.16,212.46,353.24Zm-2.88-11.78a8.9,8.9,0,0,0,1.92-.43c3.65-1,12.18-3.36,16.74-.21a1,1,0,0,0,1.39-.26,1,1,0,0,0-.26-1.39c-5.33-3.68-14.49-1.15-18.4-.07-.58.16-1.23.34-1.41.36a1,1,0,0,0-1,1A1,1,0,0,0,209.58,341.46Zm1.11,24.4c-8.38,9.77-19,6.71-19.42,6.58a1,1,0,1,0-.58,1.91,18.73,18.73,0,0,0,4.95.59,21.3,21.3,0,0,0,16.56-7.78,1,1,0,0,0-.11-1.41A1,1,0,0,0,210.69,365.86Z"/></g><g id="change4_6"><path fill="#efa54f" d="M430.7,165.65a1,1,0,0,1-.91-.59l-4.19-9.2a1,1,0,0,1,.5-1.33,1,1,0,0,1,1.32.5l4.19,9.21a1,1,0,0,1-.5,1.32A1,1,0,0,1,430.7,165.65Z"/></g><g id="change4_7"><path fill="#efa54f" d="M438.23,165.93a.94.94,0,0,1-.55-.17,1,1,0,0,1-.28-1.38l6.14-9.21a1,1,0,1,1,1.67,1.11l-6.14,9.2A1,1,0,0,1,438.23,165.93Z"/></g><g id="change4_8"><path fill="#efa54f" d="M443.82,171.23a1,1,0,0,1-.31-1.95l12.28-3.91a1,1,0,0,1,.61,1.91l-12.28,3.9A.79.79,0,0,1,443.82,171.23Z"/></g><g id="change5_4"><path fill="#231f20" d="M182.33,475.7a1,1,0,0,1-1-1l-.84-45.21a1,1,0,0,1,.9-1l40.18-4.18a1,1,0,0,1,1.1.89,1,1,0,0,1-.89,1.1l-39.27,4.09.82,44.29a1,1,0,0,1-1,1Z"/></g><g id="change5_5"><path fill="#231f20" d="M205.14,138.06a1,1,0,0,1-.12.59l.1,10.56s-9.78-5.87-14.69-10.89a47.61,47.61,0,0,1-7.93-2.48,1,1,0,1,1,.8-1.83c.1,0,10.48,4.51,20.72,3.18A1,1,0,0,1,205.14,138.06Zm22.47-64.9a6,6,0,0,0-1.82-2.36,14,14,0,0,0-4.7-2.83,15.42,15.42,0,0,0-2.69-.53h-.11a9.25,9.25,0,0,0-3,0,2.9,2.9,0,0,0-2,1.36c-.71,1.35.16,3,1.21,4.09a13.25,13.25,0,0,0,10,4.13,3.81,3.81,0,0,0,2.78-1A2.84,2.84,0,0,0,227.61,73.16Zm-34.16,3.73a17.18,17.18,0,0,0,5.49-3.19,6.92,6.92,0,0,0,2.43-3.45,3.27,3.27,0,0,0-1.45-3.69,5,5,0,0,0-2.32-.33,7.87,7.87,0,0,0-3,.66,14.06,14.06,0,0,0-4.79,3.84,7.17,7.17,0,0,0-1.63,2.74,3.19,3.19,0,0,0,.61,3C190,77.66,191.9,77.43,193.45,76.89Zm18,1.28a1,1,0,0,0-.84,1.14c.65,4.25,1.71,16.07-1.11,19.72a2.27,2.27,0,0,1-1.59,1,1,1,0,0,0,.11,2h.1a4.26,4.26,0,0,0,3-1.74c3.91-5.07,1.6-20.58,1.49-21.24A1,1,0,0,0,211.46,78.17Zm-1.94,32.15a13.58,13.58,0,0,1-9.72-1.26c-3.48-2-5.88-5.87-7.14-11.4a1,1,0,0,0-1.2-.75,1,1,0,0,0-.75,1.19c1.39,6.11,4.12,10.38,8.1,12.7a15.35,15.35,0,0,0,11.28,1.43,1,1,0,0,0,.67-1.24A1,1,0,0,0,209.52,110.32Zm11.75-27.56a2.49,2.49,0,1,0,2.49,2.49A2.48,2.48,0,0,0,221.27,82.76Zm-23.61,2.31a2.5,2.5,0,1,0,2.5-2.49A2.5,2.5,0,0,0,197.66,85.07Z"/></g></g></svg>