<?xml version="1.0" encoding="UTF-8"?><svg xmlns="http://www.w3.org/2000/svg" xmlns:xlink="http://www.w3.org/1999/xlink" contentScriptType="text/ecmascript" fill="#000000" width="112.5" zoomAndPan="magnify" contentStyleType="text/css" viewBox="-1.6 -1.6 112.5 114.7" height="114.7" preserveAspectRatio="xMidYMid meet" version="1"><g><g id="change1_1"><path fill="#efa54f" d="M104.5,58.9H62.7c9.2,9.7,18.7,19,29.2,27.4c5,4-2.1,11-7.1,7.1c-9.5-7.6-18.2-16-26.6-24.7v38 c0,6.4-10,6.4-10,0V68.2L19.4,97c-4.6,4.6-11.6-2.5-7.1-7.1l31-31H4.8c-6.4,0-6.4-10,0-10h34.9c-8.4-9.1-16.9-18.2-26-26.6 c-4.7-4.4,2.4-11.4,7.1-7.1c9.6,8.9,18.5,18.5,27.4,28.1V4.8c0-6.4,10-6.4,10,0v39.2l30.3-30.3c4.6-4.6,11.6,2.5,7.1,7.1L67.5,48.9 h37C110.9,48.9,110.9,58.9,104.5,58.9z"/></g><g id="change2_1"><path fill="#ffffff" opacity="0.08" d="M98.3,49.2C98.3,49.2,98.3,49.2,98.3,49.2C98.3,49.2,98.3,49.2,98.3,49.2 C98.3,49.2,98.3,49.2,98.3,49.2z M98.3,49.2C98.3,49.2,98.3,49.2,98.3,49.2L98.3,49.2C98.3,49.2,98.3,49.2,98.3,49.2z M64.2,74 C64.2,74,64.2,74.1,64.2,74C64.2,74.1,64.2,74,64.2,74z M52.2,17.9c0.2-0.5,0.6-0.8,1.1-0.8c0.8,0.1,1.4,0.5,1.6,1.1 c0.3,0.8,0,1.5-0.7,2.1c-0.3,0.2-0.6,0.3-0.8,0.1C52.2,20.1,51.8,19.1,52.2,17.9z M52.8,20c0,0.1,0.1,0.1,0.3,0.1 c0.2,0,0.3-0.1,0.3-0.3c0-0.2-0.1-0.2-0.3-0.1C52.9,19.8,52.8,19.9,52.8,20z M52.5,19.3c0.2,0,0.3-0.1,0.3-0.3 c0-0.2-0.1-0.2-0.3-0.1c-0.2,0.1-0.3,0.2-0.3,0.3C52.2,19.2,52.3,19.3,52.5,19.3z M20.9,27.2C20.9,27.2,20.9,27.2,20.9,27.2 C20.9,27.2,20.9,27.2,20.9,27.2C20.9,27.2,20.9,27.2,20.9,27.2z M82.3,86.4c0.2,0.1,0.5,0.2,0.7,0.3c0,0,0,0,0,0c0,0,0.1,0,0.1,0 C83,86.1,83,85.6,82.8,85c-0.2-0.9-0.7-1.3-1.7-1.3c-0.4,0-0.7,0-1.1,0c0,0,0,0,0,0.1c0,0,0,0-0.1,0C80.6,85.6,80.6,85.6,82.3,86.4 z M20.9,27.2C20.9,27.2,20.9,27.2,20.9,27.2C20.9,27.2,20.9,27.2,20.9,27.2L20.9,27.2C20.9,27.2,20.9,27.2,20.9,27.2 C20.9,27.2,20.9,27.2,20.9,27.2C20.9,27.2,20.9,27.2,20.9,27.2z M55.1,11c0.1-0.3,0.1-0.6,0.1-0.9c0-0.9,0.5-1.6,1.3-1.7 c0.6-0.1,1.1-0.3,1.4-0.6c0,0.1,0.1,0.1,0.3,0.2V7.5c0,0,0,0,0,0c0,0,0,0,0-0.1V4.8c0-0.2,0-0.5,0-0.7c-0.2,0.5-0.6,0.8-1.2,1.1 c-0.2,0.1-0.4,0.2-0.6,0.3c0-0.1-0.1-0.2-0.3-0.3c-0.2-0.1-0.3,0-0.5,0.1c-0.1,0.2,0,0.3,0.3,0.3c0.1,0,0.2,0,0.2,0 C55.7,5.9,55.3,6.4,55,7c-0.1,0.3-0.3,0.5-0.6,0.7c-0.6,0.6-1.6,0.5-2.1-0.2c-0.2-0.3-0.4-0.7-0.5-1.1c-0.1-0.2-0.2-0.4-0.4-0.5 c0.5,0,1.3-0.3,1.3-0.6C52.8,5.2,52.4,5,52,5c-0.7,0-1.2,0.4-1,0.7c0,0,0,0,0,0c-0.5,0-1,0.1-1.5,0.2C49,6,48.9,6.8,49.3,7.1 c0.1,0.1,0.3,0.3,0.4,0.4c-0.3,0-0.6,0-0.7,0.1c-0.3,0.1-0.6,0-0.7-0.2c0,0,0,0,0,0v0.7c0.1,0,0.2,0,0.4,0.1c0.9,0.1,1.6,0,1.7-0.2 c0.8,0.5,1.5,1.2,1.9,2.1c0.1,0.3,0.4,0.5,0.6,0.7c0.5,0.5,1.2,0.6,1.9,0.6C54.8,11.3,55,11.2,55.1,11z M52.9,15.3 c0.1-0.2,0.1-0.3-0.1-0.4c-0.1-0.1-0.8-0.1-1.5-0.2c-1.1,0-1.2,0.1-1,0.4C50.7,15.6,52.6,15.8,52.9,15.3z M50.6,14.3 c0.8,0,1.4-0.7,1.1-1.4c-0.2-0.7-0.5-1.3-1.2-1.7c-0.8-0.5-1.4-1.1-1.7-2c-0.1-0.4-0.3-0.6-0.6-0.8v3.9c0.4,0.4,0.7,0.9,1,1.4 C49.5,14.1,50,14.3,50.6,14.3z M48.5,15.6c0-0.3-0.1-0.6-0.3-0.8v2.4c0.1-0.3,0.2-0.7,0.3-1C48.5,16,48.5,15.8,48.5,15.6z M50.9,16.5c0-0.2-0.1-0.3-0.2-0.3c-0.1,0-0.4,0.1-0.7,0.3c-0.4,0.2-0.3,0.3,0.2,0.3C50.6,16.8,50.9,16.7,50.9,16.5z M55.2,26.5 c0,0.2,0.1,0.2,0.3,0.1c0.2-0.1,0.3-0.2,0.3-0.3s-0.1-0.1-0.3-0.1C55.3,26.2,55.2,26.4,55.2,26.5z M56.8,35.9 c0.3,0.1,0.5-0.1,0.5-0.4c0-0.3-0.2-0.4-0.5-0.4C56.2,35.2,56.1,35.7,56.8,35.9z M55,14.7c0.5,0,0.6-0.2,0.2-0.4 c-0.2-0.1-0.3,0-0.5,0.1C54.6,14.6,54.8,14.7,55,14.7z M55.6,24.5c-0.1,0.1-0.2,0.4-0.2,0.5c0.1,0.8,1,1.2,1.5,0.9 c0.3-0.2,0.7-0.4,1-0.7c0.1-0.1,0.2-0.2,0.3-0.3v-2.3c-0.4,0.9-1.2,1.3-2.2,1.5C55.8,24.1,55.7,24.3,55.6,24.5z M56.8,26.9 c0.2,0.6,0.8,0.7,0.8,0.1c0-0.3-0.2-0.5-0.5-0.5C56.9,26.5,56.7,26.7,56.8,26.9z M55.7,30.7c0,0.1-0.1,0.1-0.1,0.2 c-0.2,0.7,0.1,1.5,0.6,1.7c0.4,0.1,0.8,0,1.2-0.3c0,0,0.1,0,0.1,0c0.1,0,0.3-0.1,0.3-0.3c0-0.1,0-0.2,0-0.2 c0.1-0.2,0.1-0.4,0.1-0.6c0-0.1,0-0.2-0.1-0.3c-0.1-0.4-0.6-0.7-1.1-0.7c0,0-0.1,0-0.1,0c-0.1-0.1-0.3-0.2-0.6-0.3 c-0.9-0.3-1.4-0.1-1.1,0.5C55.1,30.6,55.4,30.7,55.7,30.7z M37.9,43c-0.5,0-1,0.5-1,0.9c0,0.1,0,0.3,0,0.4c0,0-0.1,0.1-0.1,0.1 c-0.2,0.4,0,0.6,0.3,0.5c0.2,0.4,0.6,0.7,1,0.7c0.6,0,1.1-0.6,1.1-1.4C39.3,43.5,38.7,43,37.9,43z M24.3,18.5 c-0.2,0.7,0,1.6,0.5,1.9c-0.2,0-0.5-0.1-0.6-0.2c-0.3-0.1-0.5,0-0.5,0.1c0,0.5,1.2,0.8,1.6,0.4c0,0,0,0,0.1-0.1 c0.9,0.5,1.6,1.2,2.2,2.1c0.1,0.2,0.3,0.3,0.4,0.4c0.3,0.3,0.9,0.4,1.3,0.1C27.6,21.7,26,20.1,24.3,18.5z M30.1,32.7 c0.2-0.2,0.2-0.4,0-0.5c-0.2-0.1-0.4,0-0.5,0.2C29.3,32.8,29.7,33.1,30.1,32.7z M21.7,18.8c-0.4-0.4-1-0.2-1,0.3 c0,0.2,0.2,0.5,0.4,0.5C21.6,19.6,21.9,19.1,21.7,18.8z M28.8,25.3c0.1-0.2,0-0.3-0.2-0.2c-0.4,0.1-0.5,0.5-0.1,0.6 C28.6,25.7,28.7,25.5,28.8,25.3z M36.4,32.6c0.3,0,0.6-0.1,0.6-0.3S36.7,32,36.4,32s-0.6,0.1-0.6,0.3S36.1,32.6,36.4,32.6z M35.8,43.2c0,0.4,0.8,0.4,1,0c0.1-0.2,0-0.3-0.1-0.5C36.4,42.5,35.8,42.8,35.8,43.2z M37,34.1c-0.2,0-0.3,0.2-0.3,0.5 c0,0.3,0.1,0.4,0.3,0.3c0.2-0.1,0.3-0.3,0.3-0.5S37.2,34.1,37,34.1z M38.5,35.9c0-0.2-0.2-0.3-0.5-0.3c-0.2,0-0.5,0.1-0.5,0.3 s0.2,0.3,0.5,0.3C38.3,36.2,38.5,36.1,38.5,35.9z M37.1,37.5c-0.2,0.5,0.1,1,0.5,1.3c0.5,0.3,1.2,0,1.4-0.6 c0.1-0.2,0.1-0.4,0.1-0.5c0-0.4-0.1-0.8-0.5-1c-0.4-0.2-1-0.1-1.3,0.4C37.3,37.1,37.2,37.3,37.1,37.5z M48.2,104.7 c0.1-0.2,0.1-0.3,0.1-0.6c0-0.1-0.1-0.1-0.1-0.2V104.7z M54.3,92c0.2-0.1,0.4-0.4,0.5-0.6c0.1-1.1-1.2-1.9-2.1-1.5 c-0.2,0.1-0.4,0.4-0.4,0.7C52.2,91.8,53.3,92.5,54.3,92z M49.2,96.1c-0.4-0.2-0.7,0.3-0.5,0.7c0.2,0.3,0.8,0.1,0.8-0.3 C49.4,96.3,49.3,96.2,49.2,96.1z M56.1,60.2c0.2-0.2,0.2-0.4,0-0.5c-0.2-0.1-0.4,0-0.5,0.2C55.3,60.3,55.7,60.6,56.1,60.2z M52.1,79.7c0.1,0.2,0.4,0.4,0.7,0.4c0.8,0.1,1.3-0.4,1.4-1.1c-0.1-0.2-0.1-0.4-0.3-0.5c-0.6-0.4-1.4-0.3-1.7,0.4 C52.1,79.2,52,79.5,52.1,79.7z M54.1,57.3c-0.3-0.3-0.7-0.2-0.7,0.3c0,0.2,0.1,0.5,0.3,0.5C54,58,54.3,57.5,54.1,57.3z M52.8,81.1 c0,0.2,0.1,0.2,0.3,0.1c0.2-0.1,0.3-0.2,0.3-0.3s-0.1-0.1-0.3-0.1C52.9,80.7,52.8,80.9,52.8,81.1z M4.4,49c-0.1,0.2,0,0.3,0.3,0.3 c0.2,0,0.5-0.1,0.6-0.3c0,0,0,0,0,0H4.8C4.7,48.9,4.6,48.9,4.4,49z M20.4,22.5c0.2-0.1,0.5-0.3,0.5-0.5c0.1-0.2,0-0.3-0.3-0.3 c-0.2,0.1-0.5,0.3-0.5,0.5C20,22.5,20.1,22.6,20.4,22.5z M6.9,50.8c0-0.4-0.3-0.7-0.7-0.7c-0.4,0-0.7,0.4-0.6,0.8 c0,0.3,0.3,0.6,0.6,0.6C6.6,51.5,6.9,51.2,6.9,50.8z M48.4,108.3c0.2,0.5,0.4,0.9,0.6,1.2c0.2-0.3,0.4-0.6,0.9-0.7 c0.3-0.1,0.6-0.2,0.8-0.4c0.6-0.4,0.9-1.4,0.5-2.1c-0.2-0.4-0.8-0.7-1.3-0.6c-0.4,0.1-0.7,0.3-0.9,0.7c0,0,0,0,0,0 c-0.5,0-0.6,0.1-0.3,0.4c0.1,0.1,0.1,0.1,0.2,0.1c0,0.1,0,0.2-0.1,0.3C48.9,107.8,48.7,108.1,48.4,108.3z M66.1,49.8 c-0.4,0.7-0.4,1.2-0.1,1.2c0.5,0,1.9-1.4,1.7-1.6C67.3,49.1,66.4,49.3,66.1,49.8z M57.9,62.7c-0.4-0.5-0.9-0.7-1.6-0.6 c-0.2,0-0.4,0.2-0.6,0.3c-0.2,0-0.6,0.1-1,0.2C54,63,54,63.1,54.4,63.6c0.2,0.3,0.6,0.5,0.9,0.4c0.2-0.1,0.3-0.2,0.4-0.4 c0.4,0.7,1.2,1.1,2,1c0,0.1-0.1,0.2-0.1,0.3c0,0.2,0.1,0.5,0.3,0.5c0.4,0,0.7-0.5,0.4-0.7c-0.1-0.1-0.1-0.1-0.2-0.1 c0.1-0.1,0.2-0.3,0.2-0.4c0-0.2-0.1-0.5-0.1-0.7c0.5,0.4,1.4,0.8,1.8,0.5c0.4-0.2,0.4-0.8,0.1-1.2c-0.1-0.1-0.5,0-0.8,0.3 c-0.5,0.5-0.6,0.5-0.7-0.2C58.4,62.2,58,62.1,57.9,62.7z M62.5,70.8c-0.2,0.1-0.5,0.2-0.6,0.3c-0.4,0.2-0.3,0.3,0.2,0.3 c0.4,0,0.7-0.1,0.8-0.3c0.1-0.1,0-0.2,0-0.2c0.5,0,1-0.5,1-1.2c0-0.6-0.5-1.2-1-1.3c-0.5,0-1.2,0.5-1.3,1 C61.5,70,61.9,70.6,62.5,70.8z M68.8,51.9c-0.1,0.2-0.2,0.5-0.4,1.1c-0.2,0.8-0.1,0.8,0.6,0.8c0.7-0.1,0.8-0.2,0.9-1.1 c0-0.1,0-0.1,0-0.2c0.6,0.3,0.9,0.8,1.1,1.5c0.1,0.3,0.1,0.5,0.3,0.8c-0.4,0-1,0.9-0.8,1.1c0.3,0.3,1.1-0.2,1.1-0.6 c0-0.1,0-0.1,0-0.1c0.1,0,0.1,0.1,0.2,0.1c0.5,0.2,1.3-0.1,1.5-0.6c0.3-0.5,0.2-1,0-1.4c-0.3-0.5-0.9-0.8-1.4-1.1 c-0.5-0.4-0.8-0.9-0.9-1.5c0-0.2,0.1-0.4,0.2-0.6c0.1,0,0.2-0.1,0.2-0.2c0.1,0,0.1-0.1,0.2-0.1c0.9-0.2,1.6,0,2.1,0.7 c0.4,0.5,0.7,1,1,1.5C75,52,75.6,52,76,51.9c0.6-0.3,0.9-0.8,0.9-1.4c0-0.3-0.1-0.7-0.3-0.9c0-0.2-0.1-0.3-0.3-0.3c0,0,0,0-0.1-0.1 c-0.2-0.1-0.4-0.2-0.6-0.3h-7.4C67.6,50.2,67.8,51.2,68.8,51.9z M64.2,74.1c-0.1,0.1-0.1,0.1-0.2,0.2c-0.2,0.1-0.3,0-0.3-0.1 c0-0.2,0.1-0.3,0.3-0.3c0.2,0,0.3,0.1,0.3,0.1c0.1-0.3,0.2-0.6,0.1-1c0-0.4,0.1-0.8,0.1-1.2c0-0.3,0.5-0.6,0.9-0.7 c0.8-0.1,1.4,0.2,1.7,0.9c0.1,0.2,0.2,0.4,0.2,0.6c0.2,0,0.3,0.1,0.3,0.3c0,0.2-0.1,0.3-0.3,0.3c0,0,0,0-0.1,0 c-0.1,0.2-0.3,0.5-0.4,0.6c-0.2,0.2-0.5,0.3-0.8,0.4c-0.6,0.2-1.1,0.6-1.3,1.1c-0.3-0.3-0.6-0.6-0.8-0.8 C64,74.3,64.1,74.2,64.2,74.1z M64.2,74.1C64.2,74.1,64.2,74,64.2,74.1C64.2,74,64.2,74.1,64.2,74.1z M56,39.4 c0.7,0.1,1.5,0.1,2.2,0.2v-1.8c-0.2-0.3-0.3-0.6-0.5-0.9c-0.3-0.4-1.1-0.6-1.7-0.4c-0.4,0.2-0.6,0.5-0.7,0.9 c-0.1,0.4-0.1,0.8-0.1,1.2C55.3,38.9,55.7,39.4,56,39.4z M64.8,53.1c0,0,0,0.1-0.1,0.2c-0.1,0-0.1,0-0.2,0c-0.2,0-0.6,0.1-0.8,0.3 c-0.3,0.2-0.3,0.3,0.4,0.3c0.2,0,0.4,0,0.5-0.1c0,0.3,0,0.5,0.1,0.8c0.1,0.4,0.8,0.7,1.2,0.5c0.5-0.2,0.8-0.5,0.9-1.1 c0-0.1,0-0.2,0-0.3c0.1,0.1,0.4,0.2,0.6,0.2c0.6,0,0.6-0.1,0.4-1c-0.2-0.6-0.5-0.7-1-0.1c-0.1,0.2-0.2,0.3-0.2,0.5 c-0.3-0.4-0.6-0.6-1.1-0.5C65.2,52.7,64.9,52.9,64.8,53.1z M58.6,58.9c-0.1,0.3,0.1,0.4,0.4,0.3c0.3-0.1,0.6-0.3,0.7-0.5 c0.1-0.3-0.1-0.4-0.4-0.3C59,58.4,58.7,58.7,58.6,58.9z M60.2,52.6c-0.6,0.1-1.1,0.6-1.1,1.2c0,0.5,0.5,0.9,0.9,0.9 c0.7,0,1.3-0.7,1.2-1.3C61.3,52.9,60.7,52.5,60.2,52.6z M60,58.7c-0.2,0.1-0.5,0.2-0.6,0.4c-0.2,0.3-0.3,0.7-0.3,1.1 c0,0.9,0.6,1.5,1.5,1.4c0.4,0,0.8-0.4,0.9-0.7c0-0.4,0.1-0.8,0-1.2C61.4,59.1,60.7,58.7,60,58.7z M59.1,68c0.3-0.1,0.6-0.1,0.9-0.2 c0.8-0.2,1.2-1,1-1.8c-0.1-0.2-0.2-0.4-0.3-0.5c0.2-0.2,0.2-0.5,0.1-0.6c-0.2-0.1-0.4,0-0.6,0.2c-0.6-0.2-1.3,0-1.4,0.6 c-0.2,1.3-0.7,2.3-2,2.6c-0.2,0-0.3,0.3-0.4,0.4c-0.2,0.3-0.1,0.8,0.2,1.1c0.4,0.3,1.1,0.3,1.3,0c0.2-0.3,0.3-0.6,0.5-0.9v-0.2 c0,0,0,0.1,0.1,0.1c0.1-0.2,0.2-0.4,0.3-0.6C58.7,68.1,58.9,68,59.1,68z M78.5,57c-0.2,0.1-0.3,0.3-0.3,0.5s0.1,0.2,0.3,0.1 s0.3-0.3,0.3-0.5C78.8,56.9,78.7,56.9,78.5,57z M74.9,80.2c0.2-0.2,0.2-0.4,0-0.5c-0.2-0.1-0.4,0-0.5,0.2 C74.1,80.3,74.5,80.6,74.9,80.2z M83,86.7c0,0,0.1,0,0.1,0C83.1,86.7,83.1,86.7,83,86.7C83.1,86.7,83,86.7,83,86.7 C83,86.7,83,86.7,83,86.7z M80.1,83.7C80.1,83.7,80,83.7,80.1,83.7C80,83.7,80,83.7,80.1,83.7C80,83.7,80.1,83.7,80.1,83.7 C80.1,83.7,80.1,83.7,80.1,83.7z M82.8,85c0.1,0.5,0.2,1.1,0.3,1.6c1-0.2,1.9,0,2.8,0.2c0.1,0,0.3,0.3,0.3,0.4 c0.1,0.9-0.2,1.8-1,2.4c-0.4,0.3-0.8,0.6-1.2,0.9c-0.4,0.4-0.5,1-0.4,1.6c-0.1-0.1-0.2-0.3-0.3-0.4c0,0.1,0,0.3-0.1,0.4 c0.3,0.2,0.5,0.4,0.8,0.6c0.1,0.1,0.3,0.1,0.4,0.1c0.3-0.1,0.6-0.2,0.8-0.4c0.4-0.4,0.8-0.9,1.1-1.4c0.3-0.8,0.9-1.3,1.7-1.5 c0.4-0.1,0.7-0.3,1.1-0.5c0.5-0.3,0.5-0.8,0.4-1.3c-0.1-0.4-0.3-0.8-0.7-0.9c-0.5-0.1-1-0.2-1.5-0.3c-0.6-0.2-0.9-0.8-0.7-1.4 c0.2-0.7,0.4-1.4,1.1-1.7c0.1,0,0.2-0.1,0.3-0.2c-0.7-0.6-1.3-1.1-2-1.7c0,0.1,0.1,0.2,0.1,0.3c0.1,0.7-0.3,1.2-0.8,1.4 c-0.5,0.1-1-0.1-1.3-0.5c-0.4-0.5-0.5-1.1-0.1-1.6c0.2-0.3,0.5-0.5,0.9-0.6c0,0.1,0.1,0.1,0.1,0.2c0.1,0.1,0.2,0.1,0.3,0.1 c-1-0.8-1.9-1.7-2.9-2.5c0,0.2,0.1,0.5,0,0.7c-0.1,0.7-0.5,1.1-1.1,1.3c-0.7,0.2-1.3-0.1-1.3-0.8c0-0.4,0-0.8,0-1.2 c-0.1-0.7-0.2-1-0.8-1.1c0,0,0,0,0,0c0-0.1,0-0.2-0.1-0.3c0,0-0.2,0-0.2,0.1c0,0.1,0,0.1,0,0.2c-0.8-0.1-1.3-0.4-1.6-1.1 c-0.1-0.2-0.2-0.4-0.2-0.5c0-0.1-0.1-0.1-0.1-0.2c0.1,0.1,0.2,0.1,0.3,0.2c0.1-0.2,0.2-0.3,0.3-0.6c-0.2-0.1-0.4-0.2-0.6-0.3 c0,0-0.2,0.2-0.2,0.3c-0.2-0.2-0.4-0.3-0.7-0.4c-0.3-0.1-0.6-0.2-0.8-0.3c-0.6-0.2-1-0.6-1.2-1.2c-0.1-0.4-0.2-0.8-0.4-1.1 c-0.3-0.4-0.7-0.7-1.3-0.7c-0.5,0-1,0.3-1.2,0.8c-0.2,0.5,0,1,0.3,1.4c0.3,0.3,0.6,0.5,0.9,0.7c0.6,0.3,0.9,0.7,1.2,1.3 c0.1,0.3,0.2,0.6,0.4,0.8c0.2,0.4,0.5,0.6,0.9,0.7c0.3,0.1,0.6,0.2,0.9,0.2c0.3,0.1,0.5,0.2,0.7,0.3c0,0.1,0,0.3,0.1,0.4 c0.1,0.1,0.2,0.1,0.3,0c0.1,0.2,0.2,0.4,0.2,0.7c0.1,1,0.7,1.6,1.6,1.9c0.1,0,0.2,0.1,0.3,0.1c0.2,0.1,0.3,0.2,0.5,0.3l0,0l0,0 c0.3,0.3,0.5,0.6,0.5,1.1c0,0.6,0,1.2,0.1,1.7c0.4,0,0.7,0,1.1,0C82.1,83.8,82.6,84.1,82.8,85z M83.9,90.1c0.1-0.2,0-0.3-0.2-0.2 c-0.4,0.1-0.5,0.5-0.1,0.6C83.7,90.5,83.9,90.3,83.9,90.1z M72.9,83.1c0.5,0.5,1.1,1,1.6,1.5c0.1-0.2,0.3-0.3,0.4-0.5 c0.5-0.6,1.3-0.4,1.7,0.4c0.3,0.6,0.2,1.2-0.3,1.7c0,0,0,0,0,0c0.4,0.4,0.8,0.8,1.3,1.1c0.2-0.3,0.5-0.5,0.9-0.5 c0.6-0.1,1.2,0.2,1.5,0.7c0.2,0.5,0.4,0.9,0.2,1.4c0,0.1-0.1,0.3-0.2,0.4c0.3,0.3,0.7,0.6,1,0.9c0.1-0.1,0.3-0.2,0.5-0.3 c1.6-0.7,1.6-0.7,1.5-2.4c0-0.3,0-0.6-0.1-0.9c-0.2-0.1-0.5-0.2-0.7-0.3c-1.7-0.8-1.7-0.8-2.3-2.7c-0.1,0-0.2-0.1-0.2-0.1 c-0.2,0-0.5,0-0.7,0c0-0.1-0.1-0.2-0.3-0.3c-0.2-0.1-0.5-0.1-0.9,0c-0.4-0.2-0.8-0.6-1.1-1.2c-0.1-0.3-0.4-0.5-0.6-0.6 c-1-0.6-2-1.2-3.2-0.5c0.3,0.3,0.4,0.7,0.3,1.1C73.4,82.5,73.2,82.9,72.9,83.1z M16.4,14.3c-0.2-0.1-0.7,0.7-0.8,1.2 c-0.3-0.1-0.6,0-0.9,0.2c-0.4,0.3-0.6,0.9-0.4,1.4c-0.3,0.3-0.3,0.7,0.1,0.7c0.2,0,0.4-0.1,0.4-0.3c0.4,0,0.7-0.2,1-0.4 c-0.2,0.1-0.3,0.3-0.3,0.6c-0.1,0.3,0,0.5,0.3,0.4c0.2-0.1,0.5-0.4,0.5-0.7c0.1-0.3,0-0.5-0.3-0.4c-0.1,0-0.1,0.1-0.2,0.1 c0.2-0.2,0.4-0.4,0.5-0.6c0-0.1,0-0.2,0-0.3c-0.1-0.1-0.1-0.2-0.2-0.3c0,0,0,0,0,0C16.7,15.6,16.9,14.6,16.4,14.3z M19.3,14.5 c0.2,0.1,0.4,0,0.6,0c0,0,0,0,0,0c-0.5-0.3-0.9-0.5-1.4-0.6C18.6,14.2,18.9,14.3,19.3,14.5z M58.2,98.6c-0.1-0.1-0.3-0.1-0.5-0.2 c0.2,0.4,0.4,0.8,0.5,1.2V98.6z M53.7,4.9c0.9-0.1,1.3-0.6,1.3-1.7c0-0.4-0.1-0.7-0.5-1c-0.7-0.5-2.2-0.1-2.2,1.1 c0,0.2,0,0.4,0,0.6C52.5,4.5,53.1,4.9,53.7,4.9z M0.7,52.3c0-0.1-0.2-0.2-0.4-0.4c-0.1,0.3-0.2,0.5-0.2,0.8c0.1,0,0.1,0.1,0.2,0.1 C0.5,52.8,0.8,52.4,0.7,52.3z M82.4,29.3c-0.2,0.1-0.5,0.3-0.5,0.5c-0.1,0.2,0,0.4,0.3,0.3c0.2-0.1,0.5-0.3,0.5-0.5 C82.8,29.3,82.7,29.2,82.4,29.3z M80.6,28.1c0,0.2,0.1,0.2,0.3,0.1c0.2-0.1,0.3-0.2,0.3-0.3s-0.1-0.1-0.3-0.1 C80.8,27.7,80.6,27.9,80.6,28.1z M73.4,78.9c0.1-0.1,0.2-0.1,0.3-0.2c0.6-0.6,0.8-1.2,0.2-0.8c-0.3,0.2-0.5,0.3-0.6,0.4 c0,0,0-0.1,0-0.1c-0.1-0.2-0.5-0.4-0.8-0.4c-0.1-0.1-0.1-0.1-0.2-0.1c-0.2,0-0.3,0.1-0.3,0.3c-0.3,0.2-0.5,0.5-0.6,0.8 c-0.1,0.4,0.1,1,0.5,1.3c0.4,0.4,1.2,0.3,1.4,0.9C73.6,80.3,73.6,79.6,73.4,78.9z M77.6,25.3c0.2,0,0.3-0.1,0.3-0.3 c0-0.2-0.1-0.2-0.3-0.1c-0.2,0.1-0.3,0.2-0.3,0.3S77.4,25.3,77.6,25.3z M78.1,27.2c0.2,0,0.3-0.2,0.4-0.3c0.1-0.2-0.1-0.3-0.4-0.3 c-0.3,0-0.5,0.2-0.4,0.3C77.7,27,77.9,27.2,78.1,27.2z M89.1,22.1c0-0.2-0.2-0.5-0.5-0.5c-0.2,0-0.5,0.2-0.5,0.5 c0,0.2,0.2,0.5,0.5,0.5C88.9,22.6,89.1,22.4,89.1,22.1z M73.1,81.1C73.1,81.1,73.1,81,73.1,81.1C73.1,81,73.1,81,73.1,81.1 C73.1,81,73.1,81,73.1,81.1z M73.1,81.1C73.1,81,73.1,81,73.1,81.1C73.1,81,73.1,81,73.1,81.1L73.1,81.1z M102.6,55 c-0.1,0-0.2-0.1-0.2-0.1c-0.1,0.1-0.3,0.2-0.4,0.3c0.1,0.1,0.3,0.2,0.4,0.2C102.4,55.3,102.5,55.1,102.6,55z M71.3,67.8 C71.3,67.8,71.3,67.8,71.3,67.8c-0.1-0.1-0.2-0.3-0.4-0.4c0,0,0,0,0,0C71,67.5,71.2,67.7,71.3,67.8z M77.2,53.8 c0,0.4,0.1,0.7,0.4,1.1c0.1,0.2,0.3,0.3,0.4,0.4c0.6,0.3,1.9-0.1,2.1-0.7c0.2-0.4,0.2-0.8,0.4-1.1c0.2-0.5,0.5-1,1-1.1 c0.4-0.1,0.8-0.2,1.1-0.4c0,0,0,0,0,0.1c0,0.2,0.2,0.3,0.5,0.3c0.2,0,0.5-0.1,0.5-0.3c0-0.2-0.2-0.3-0.5-0.3c0,0-0.1,0-0.1,0 c0.5-0.4,0.9-1,1.2-1.6c0.6-1,2.3-0.9,2.7,0.2c0.1,0.4,0.3,0.7,0.5,1.1c0.3,0.7,0.9,0.7,1.5,0.7c0.4,0,0.8-0.4,1-1 c0.1-0.4,0.1-0.8,0.2-1.2c0.2-0.6,1.1-1,1.7-0.9c0.6,0.1,1.2,0.4,1.4,1c0.4,1,1,1.7,2,2.1c0.2,0.1,0.3,0.2,0.4,0.4 c-0.1,0-0.2,0.1-0.2,0.3c0,0.2,0.1,0.3,0.3,0.3c0.1,0,0.1,0,0.2-0.1c0.2,0.7,0,1.8-0.8,2.1c-0.4,0.1-0.8,0.3-0.9,0.7 c-0.2,0.4-0.2,0.9-0.1,1.4c0,0-0.1,0.1-0.1,0.1c-0.1,0.2,0,0.3,0.2,0.3c0.1,0.3,0.3,0.5,0.5,0.6c0.3,0.2,0.6,0.4,0.9,0.6h4.3 c0.1-0.2,0.3-0.3,0.5-0.4c0.4-0.1,0.8-0.1,1.2-0.2c0.3-0.1,0.6-0.6,0.6-0.9c0-0.3,0-0.6-0.1-0.9c-0.2-0.7-0.6-1.1-1.2-1.1 c-0.6,0-1.1,0.3-1.3,1c-0.2,0.5-0.2,1-0.5,1.4c-0.3,0.4-0.7,0.7-1.3,0.7c-0.6,0-1-0.3-1.2-0.8c-0.2-0.5-0.4-1.1-0.5-1.7 c0-0.1,0.1-0.4,0.3-0.5c0,0,0,0,0,0c0.3,0.1,0.7,0,0.8-0.3c0.2-0.1,0.4-0.1,0.6-0.2c1.1-0.4,1.3-1.6,0.5-2.4 c-0.1-0.1-0.3-0.3-0.5-0.4c-0.4-0.1-0.7-0.3-0.9-0.6c0-0.1-0.1-0.2-0.2-0.2c-0.3-0.4-0.5-0.9-0.6-1.5c-0.1-0.3-0.2-0.5-0.4-1H78.2 c0.3,0.1,0.7,0.2,1.1,0.2c0.6,0,0.9,0.7,0.8,1.4c-0.1,0.5-0.3,1-0.8,1.2c-0.5,0.2-1.1,0.3-1.7,0.5c-0.2,0.1-0.3,0.2-0.4,0.4 c-0.1,0.1-0.1,0.3-0.1,0.4C76.6,53.7,76.6,53.8,77.2,53.8z M57.8,86.5c0.2,0,0.3,0,0.4,0.1v-1.2c-0.2,0-0.4,0-0.6,0.1 C56.7,85.7,56.9,86.5,57.8,86.5z M57.1,71.5c0.2,0.2,0.7,0.1,1.1,0v-0.6c-0.1,0-0.1,0-0.2,0C57,71.2,56.8,71.3,57.1,71.5z M57.9,3.5c0,0,0.1,0,0.1,0c0-0.2-0.1-0.4-0.2-0.5c-0.1,0-0.2,0.1-0.2,0.3C57.6,3.4,57.7,3.5,57.9,3.5z M65.2,75.1 c-0.1,0.1-0.2,0.2-0.3,0.4c0.1,0.1,0.3,0.3,0.4,0.4c0.1-0.1,0.2-0.3,0.2-0.5C65.5,75.2,65.3,75,65.2,75.1z M64,60.8 c0,0-0.2,0.2-0.1,0.2c0.1,0.1,0.2,0.2,0.3,0.3c0.1-0.1,0.2-0.2,0.3-0.4C64.3,60.9,64.2,60.8,64,60.8z M67.5,77.2 c0,0-0.1-0.1-0.1-0.1c-0.3,0-0.5,0-0.8,0c0.4,0.4,0.8,0.8,1.2,1.2c0.2,0,0.4,0.2,0.4,0.3c0,0.1,0,0.1,0.1,0.1c0,0,0.1,0.1,0.1,0.1 c0,0,0.1,0.1,0.1,0.1c0.2,0,0.3-0.1,0.3-0.3c0-0.2-0.1-0.3-0.3-0.3c-0.2,0-0.3-0.3-0.4-0.6C68,77.3,67.7,77.1,67.5,77.2z M16.4,24.4c0-0.2-0.2-0.3-0.5-0.3c-0.1,0-0.2,0-0.2,0.1c0.2,0.2,0.3,0.3,0.5,0.5C16.3,24.6,16.4,24.5,16.4,24.4z M50.1,110.1 c-0.1,0-0.2,0.1-0.3,0.2c0.2,0.1,0.3,0.3,0.5,0.4c0.1-0.1,0.1-0.1,0.1-0.2C50.3,110.3,50.2,110.1,50.1,110.1z M17.5,22.9 c-0.4,0-0.8,0.1-0.8,0.3c0,0.2,0.3,0.3,0.8,0.3s0.8-0.1,0.8-0.3C18.2,23,17.9,22.9,17.5,22.9z M0.4,51.9c0.1,0,0.1,0,0.2-0.1 c0.5-0.4,0.9-1,1-1.6C1,50.6,0.6,51.2,0.4,51.9z M56.5,87c-0.6,0.1-1.1,0.8-1,1.6c0.1,0.8,0.8,1.4,1.7,1.2c0.6-0.1,1-0.7,0.9-1.3 C58,87.6,57.1,86.8,56.5,87z M68.7,38.8c0.5-0.1,0.9-0.2,1.4-0.4c0.3-0.1,0.4-0.5,0.3-0.7c-0.1-0.2-0.2-0.4-0.4-0.4 c-0.2-0.1-0.5-0.2-0.7-0.3c-0.3,0-0.5,0-0.7,0c-0.3,0-0.6,0.2-0.8,0.5c-0.9,0.2-1,0.6-0.1,0.7C68,38.6,68.3,38.9,68.7,38.8z M71.2,35.3c0-0.2-0.1-0.3-0.3-0.3s-0.4,0.1-0.5,0.3c-0.1,0.2,0,0.3,0.3,0.3C71,35.6,71.2,35.5,71.2,35.3z M68.2,34.7 c0,0.4,0.8,0.4,1,0c0.1-0.2,0-0.3-0.1-0.5C68.8,34,68.2,34.3,68.2,34.7z M70.2,32.4c0.1-0.2,0.2-0.5,0.2-0.6l-1.4,1.4 C69.6,33.1,70,32.9,70.2,32.4z M71.5,36.9c0-0.4-0.1-0.4-0.5-0.1c-0.2,0.2-0.4,0.5-0.3,0.6C71.1,37.9,71.5,37.5,71.5,36.9z M80,35.5c-0.1-0.4-0.2-0.8-0.4-1.2c0,0,0.1,0,0.2,0c0.2,0,0.3-0.1,0.3-0.3c0-0.2-0.1-0.2-0.3-0.1c-0.1,0.1-0.2,0.2-0.3,0.3 c-0.1-0.2-0.2-0.3-0.4-0.5c-0.5-0.4-1.2-0.3-1.6,0.2c-0.3,0.4-0.3,1,0,1.4c0.5,0.6,1.1,0.8,1.7,1.1c0.2,0.1,0.3,0.2,0.4,0.3 l0.6-0.6C80.2,36,80.1,35.8,80,35.5z M20.7,17.7c0-0.2-0.1-0.3-0.3-0.4c-0.4-0.2-0.7,0.3-0.5,0.7C20.1,18.4,20.7,18.2,20.7,17.7z M71.5,42.4c0.1,0,0.1-0.1,0.2-0.2c0.1,0.1,0.3,0.1,0.4,0.1c0.6,0,1.1-0.5,1.1-1.1c0-0.6-0.5-1.2-0.9-1.3c-0.6-0.1-1.3,0.6-1.3,1.3 c0,0.1,0,0.3,0.1,0.4c-0.1,0-0.1,0.1-0.2,0.1C70.6,42.3,71,42.7,71.5,42.4z M20.9,27.2C20.9,27.2,20.9,27.2,20.9,27.2 C20.9,27.2,20.9,27.2,20.9,27.2c0-0.1,0.1-0.1,0.1-0.1c0-0.1-0.1-0.2-0.1-0.2c-0.1-0.4-0.2-0.7-0.2-1.1c-0.1-0.3-0.2-0.5-0.3-0.8 c-0.1-0.3-0.7-0.5-1-0.4c-0.5,0.1-0.9,0.4-1,1c-0.1,0.4-0.1,0.8,0.2,1c-0.1,0-0.1,0.1-0.1,0.1c0.1,0.1,0.2,0.2,0.4,0.3 c0.1,0,0.2-0.1,0.2-0.2c0.4,0.3,0.9,0.5,1.4,0.5c0,0.1,0.1,0.1,0.3,0.1C20.8,27.4,20.9,27.3,20.9,27.2 C20.9,27.2,20.9,27.2,20.9,27.2C20.9,27.2,20.9,27.2,20.9,27.2z M71.4,44.4c0.3-0.1,0.6-0.3,0.7-0.5c0.1-0.3-0.1-0.4-0.4-0.3 c-0.3,0.1-0.6,0.3-0.7,0.5C70.9,44.3,71.1,44.4,71.4,44.4z M34.9,39.9c0.2,0,0.3-0.1,0.3-0.3c0-0.2-0.1-0.2-0.3-0.1 c-0.2,0.1-0.3,0.2-0.3,0.3C34.6,39.8,34.7,39.9,34.9,39.9z M49.4,65c0.2,0,0.3-0.1,0.3-0.3c0-0.2-0.1-0.2-0.3-0.1 c-0.2,0.1-0.3,0.2-0.3,0.3S49.2,65,49.4,65z M50.5,58.4c0.5-0.1,0.9-0.4,1.1-0.9c0.3-0.6-0.4-1.9-1.5-2c-0.2,0.1-0.5,0.1-0.7,0.3 c-0.5,0.5-0.6,1.3-0.2,1.9C49.5,58.2,50,58.5,50.5,58.4z M49.1,72.4c-0.2,0.1-0.2,0.3-0.1,0.5c0.3,0.4,0.4,0.4,0.4-0.2 C49.4,72.4,49.3,72.3,49.1,72.4z M49.5,39.4c0.7,0.1,1.4,0.2,2,0.4c0.8,0.2,1,1.2,1.6,1.6c0.2,0.1,0.6,0.1,0.8,0.1 c0.1,0,0.3-0.3,0.3-0.5c0.2-0.7,0-1.2-0.7-1.4c-0.7-0.3-1.2-0.7-1.4-1.4c0-0.2-0.1-0.4-0.2-0.6c-0.2-0.7-0.7-0.9-1.3-0.9 c-1.2-0.1-1.9,0.7-1.8,1.8C48.9,38.9,49.1,39.3,49.5,39.4z M50.4,27.1C50.4,27.1,50.4,27.1,50.4,27.1c0,0,0.1,0,0.1,0 c0.2,0,0.4-0.1,0.4-0.2c0.1,0,0.2-0.1,0.3-0.1c0.5-0.2,0.7-0.7,0.7-1c0-0.8-0.3-1.3-0.9-1.5c-0.5-0.2-1.2-0.3-1.5,0.4 c-0.3,0.5-0.4,1.1-0.7,1.6c-0.1,0.2-0.3,0.3-0.5,0.4v2.8c0.2-0.1,0.4-0.4,0.6-0.7C49.1,28,49.6,27.4,50.4,27.1z M18.3,58.4 c0.8,0.1,1.3-0.2,1.6-1c0.4-0.9-0.3-1.8-1.4-1.8c-0.2,0.1-0.5,0.2-0.6,0.5c-0.4,0.6-0.3,1.3,0,2C17.9,58.2,18.1,58.4,18.3,58.4z M48.8,47c-0.2-0.6-0.9-1-1.6-1c-0.8,0-1.3,0.6-1.3,1.3c0,0-0.1,0.1-0.1,0.1c0,0.1,0,0.2,0.1,0.2c0,0.2,0.1,0.3,0.2,0.5 c0.4,0.7,1.1,1,2,0.7C48.7,48.6,49,47.8,48.8,47z M48.8,85.3c0-0.5-0.3-0.9-0.6-1.2v3c0.6,0.3,1,0.8,1.4,1.4 c0.2,0.3,0.6,0.6,0.9,0.8c0.2,0.2,0.5,0.2,0.8,0.3c0.2,0,0.4-0.1,0.5-0.2c0.1-0.2,0.2-0.6,0.2-0.8c0-0.3,0-0.5,0-0.7 c0-0.4-0.3-0.8-0.7-0.8c-0.1,0-0.2-0.1-0.3-0.1c-0.9,0-1.6-0.1-1.9-0.7c0,0,0.1-0.1,0.1-0.1c0-0.1-0.1-0.2-0.2-0.2 C48.9,85.8,48.8,85.6,48.8,85.3z M29.7,58.9c0-0.1-0.3-0.2-0.5-0.3c-0.3,0-0.6,0.1-0.9,0.3L29.7,58.9 C29.7,58.9,29.7,58.9,29.7,58.9z M48.2,73.7c0,0,0.1-0.1,0.1-0.1c0.5-0.6,0.4-1.5-0.1-2V73.7z M38.2,65.6c0.1,1.2,1.1,1.6,1.5,0.7 c0,0,0-0.1,0.1-0.1c0.1,0.1,0.3,0.2,0.4,0.4c0.1,0.1,0.4,0.2,0.5,0.2c0.3,0,0.5-0.2,0.7-0.4c0.1-0.1,0-0.4,0-0.5 c-0.1-0.2-0.2-0.4-0.3-0.5c-0.1-0.1-0.3-0.2-0.4-0.3c0.3-0.2,0.2-0.3-0.3-0.3c-0.3-0.2-0.5-0.5-0.7-0.8c0.2-0.1,0.4-0.4,0.7-0.8 c-0.7,0-0.9,0.1-1.2,0.2c0,0-0.1-0.1-0.1-0.1l-1.4,1.4c0.2,0.1,0.4,0.3,0.6,0.4C38.1,65.1,38.1,65.3,38.2,65.6z M48.2,76.2 C48.2,76.2,48.2,76.2,48.2,76.2l0,0.6c0.2,0,0.4-0.2,0.5-0.3C48.8,76.3,48.6,76.2,48.2,76.2z M26.9,48.9 C26.9,48.9,26.9,48.9,26.9,48.9L26.9,48.9C26.8,48.9,26.8,48.9,26.9,48.9z M31.6,48.9L31.6,48.9C31.5,48.9,31.6,48.9,31.6,48.9 C31.6,48.9,31.6,48.9,31.6,48.9z M23.9,57.9c0.1-0.1,0.1-0.4,0.1-0.4c-0.1-0.1-0.4-0.2-0.5-0.1c-0.3,0.2-0.5,0.5-0.8,0.7 C23.3,58.5,23.6,58.2,23.9,57.9z M46.1,63.7c0.5-0.1,0.7-0.3,0.7-0.9l0-0.8l-0.7,0.6C45.3,63.5,45.3,63.9,46.1,63.7z M18.2,48.9 C18.2,48.9,18.2,48.9,18.2,48.9L18.2,48.9C18.2,48.9,18.2,48.9,18.2,48.9z M20.9,51.3c0.2,0.1,0.5,0.1,0.6,0 c0.1-0.1-0.1-0.2-0.4-0.2C20.7,51.1,20.6,51.2,20.9,51.3z M31,56.3c-0.1,0.3-0.1,0.6,0.2,0.7c0.3,0.2,0.8-0.1,0.8-0.5 c0-0.2-0.2-0.5-0.3-0.8C31.4,56,31.1,56.1,31,56.3z M31.6,51.4c0.5,0,0.9-0.4,1-1c0,0,0.1,0.1,0.1,0.1c0.2,0,0.3-0.1,0.3-0.3 c0-0.2-0.1-0.3-0.3-0.3c-0.1,0-0.1,0-0.1,0c-0.1-0.5-0.4-0.8-0.9-0.9c-0.6,0-1.1,0.4-1.2,0.9C30.4,50.7,30.9,51.4,31.6,51.4z M38.4,57.9c0.4-0.5,0.2-1.7-0.3-2.2c-0.1-0.1-0.4-0.1-0.6-0.2c-0.2,0.1-0.5,0.2-0.7,0.4c-0.4,0.3-0.4,0.9-0.6,1.3 c-0.2,0.7-0.6,1.2-1.3,1.5c-0.1,0.1-0.2,0.1-0.3,0.2h2.2c0.2-0.2,0.4-0.3,0.7-0.4C37.8,58.4,38.2,58.2,38.4,57.9z M31.9,53.5 c-0.7,0-1,0.1-1,0.4c0,0.6,0.6,0.6,1.4,0C32.9,53.5,32.9,53.5,31.9,53.5z M15.1,58.9h1.4c-0.3-0.1-0.6-0.2-0.9-0.2 C15.4,58.8,15.2,58.8,15.1,58.9z M22.3,88.3c0.2,0,0.5-0.1,0.5-0.3c0-0.2-0.2-0.3-0.5-0.3c-0.2,0-0.5,0.1-0.5,0.3 C21.9,88.2,22.1,88.3,22.3,88.3z M21.4,86.2c-0.2,0-0.5,0.1-0.6,0.3c-0.1,0.2,0.1,0.3,0.4,0.3s0.6-0.1,0.6-0.3 C21.9,86.3,21.7,86.2,21.4,86.2z M22.8,80.3c0.3-0.1,0.5-0.6,0.5-1c0-0.1,0-0.2-0.1-0.3c0,0,0,0,0,0L22,80.3 C22.2,80.4,22.6,80.4,22.8,80.3z M14.9,93.4c0,0.2,0.3,0.3,0.6,0.4c0.3,0.1,0.6,0.1,0.6,0.1c0,0-0.1-0.2-0.2-0.4 C15.7,93.1,14.9,93,14.9,93.4z M22.3,85c-0.1,0-0.2,0.1-0.2,0.2c0,0.2,0.4,0.4,0.6,0.2c0,0,0.1-0.1,0.1-0.2 C22.7,85.1,22.5,85,22.3,85z M15.6,97.9l0.2-0.1l-0.2-0.1L15.6,97.9z M36.4,70.6c0,0.2,0.4,0.5,0.7,0.5c0.4,0,0.8-0.1,1.2-0.2 c0.9-0.3,1.3-1.4,0.8-2.2c-0.3-0.5-0.8-0.8-1.3-0.9c0.3-0.3,0.2-0.7-0.2-0.7c-0.3,0-0.5,0.2-0.5,0.5c0,0.1,0,0.2,0.1,0.2 c-0.2,0.1-0.4,0.2-0.5,0.4c-0.1,0.5-0.2,1-0.3,1.3c0,0.4,0,0.6,0,0.8C36.3,70.4,36.4,70.5,36.4,70.6z M30.1,86.2 c-0.3,0-0.6,0.1-0.6,0.3c0,0.1,0.1,0.2,0.2,0.3l0.5-0.5C30.1,86.2,30.1,86.2,30.1,86.2z M19.9,94.2c1.4-0.3,2.9-0.8,3.8-2.6 c-0.5-0.2-1-0.3-1.4-0.3c0-0.1-0.1-0.3-0.2-0.4c-0.1-0.1-0.3-0.1-0.5,0c-0.1,0.1-0.1,0.3,0,0.4c-0.8,0.1-1.6,0.4-2.4,0.6 c0.1,0.7,0.2,1.4,0.3,2.1C19.5,94,19.7,94.1,19.9,94.2z M19.4,88.7c0.2-0.1,0.3-0.4,0.5-0.7c-0.3-0.2-0.5-0.4-0.7-0.4 c-0.3,0-0.6,0.6-0.4,0.8C18.9,88.6,19.1,88.9,19.4,88.7z M19.7,96.2c0.2,0,0.3-0.1,0.3-0.3c0-0.2-0.1-0.3-0.3-0.3 c-0.2,0-0.3,0.1-0.3,0.3C19.4,96.1,19.6,96.2,19.7,96.2z M12.9,95c0-0.2-0.2-0.3-0.3-0.5c-0.3-0.1-0.8,0.3-0.8,0.7 c0,0.2,0.2,0.4,0.3,0.5C12.5,95.8,13,95.3,12.9,95z M36.3,80.1c-0.1-0.1-0.1-0.3-0.1-0.4c0-0.5,0.1-1,0.2-1.5 c0.1-0.4,0.3-0.7,0.7-0.9c0.4-0.1,0.8-0.2,1.1-0.3c0.8-0.3,1.1-1.3,0.7-2c-0.2-0.4-0.5-0.6-1-0.6c-0.4,0-0.8,0.2-1,0.6 c-0.3,0.6-0.5,1.3-0.7,1.9c-0.7,0.4-1.4,0.3-2,0.4c-0.6,0.1-1.1-0.2-1.5-0.8c-0.2-0.3-0.5-0.6-0.7-0.9c-0.1-0.2-0.7-0.1-0.8,0.2 c-0.1,0.3-0.2,0.6-0.1,0.8c0.1,0.2,0.4,0.5,0.6,0.6c0.4,0.2,0.8,0.6,1,0.9c0,0.1,0,0.1,0,0.2c0,0.3,0.1,0.5,0.3,0.4 c0,0,0.1-0.1,0.1-0.1c0.1,0.2,0.3,0.3,0.4,0.5c0.4,0.4,0.8,0.7,1.2,1c-0.2,0.2-0.2,0.4-0.1,0.7c0.1,0.2,0.4,0.2,0.8,0 c0,0,0,0,0.1,0c0,0,0.1,0,0.1,0.1L36.3,80.1z M34,76.5c0,0.2,0.1,0.3,0.3,0.3c0.2,0,0.3-0.1,0.3-0.3s-0.1-0.3-0.3-0.3 C34.1,76.2,34,76.3,34,76.5z M11,94.7c0.1,0.2,0.1,0.3,0.2,0.5c0.1,0,0.2-0.1,0.3-0.1C11.4,94.9,11.2,94.8,11,94.7z M48.2,70 c0.6-0.3,1-0.8,1.1-1.8c-1.2-0.3-2.3-0.4-3.3,0.1c-0.2,0.3-0.3,0.7-0.5,1c0-0.2-0.1-0.3-0.2-0.5c-0.4-0.7-1.1-0.8-1.8-0.8 c-0.6,0.1-0.9,0.5-1.1,1.2c0,0.2-0.1,0.4-0.1,0.6c-0.1,0.9,0.4,1.3,1.3,1c0.4-0.1,0.8-0.2,1.1-0.4c0.2-0.1,0.4-0.2,0.5-0.4 c0,0,0,0,0,0c0.3,0.2,0.5,0.3,0.7,0.4l2.2-2.2V70z M33.6,72.5c0.1,0.2,0.4,0.4,0.7,0.6c0.4,0.2,1-0.1,1.2-0.5 c0.2-0.3,0.1-0.9-0.2-1.1c-0.1-0.1-0.3-0.2-0.5-0.2c0,0,0.1,0,0.1,0c0.2-0.1,0-0.2-0.4-0.2c0,0,0,0-0.1,0c-0.1,0-0.2-0.1-0.3-0.1 c-0.7-0.4-1-1-0.8-1.8c0.1-0.5,0.3-0.9,0.8-1.2c0.4-0.2,0.9-0.5,1.3-0.7c0.2-0.1,0.3-0.5,0.3-0.9l-4.5,4.5c0,0,0.1,0,0.1,0 C32.5,71,33.3,71.4,33.6,72.5z M31,82.7c0,0.2,0.2,0.5,0.5,0.5c0.2,0,0.5-0.2,0.5-0.5c0-0.2-0.2-0.5-0.5-0.5 C31.2,82.3,31,82.5,31,82.7z M33.6,82.7c0.1-0.1-0.1-0.2-0.4-0.2c-0.4,0-0.4,0.1-0.2,0.2C33.2,82.9,33.5,82.8,33.6,82.7z M31,81.7 c0.2,0,0.3-0.1,0.3-0.3c0-0.2-0.1-0.3-0.3-0.3c-0.2,0-0.3,0.1-0.3,0.3C30.6,81.5,30.8,81.7,31,81.7z M31.6,74.1 c0,0.2,0.2,0.3,0.4,0.3s0.5-0.1,0.6-0.3c0.1-0.2-0.1-0.3-0.4-0.3C31.8,73.8,31.6,73.9,31.6,74.1z M51.2,67.4c0,0.2,0.1,0.3,0.3,0.3 c0.2,0,0.3-0.1,0.3-0.3s-0.1-0.3-0.3-0.3C51.4,67.1,51.2,67.2,51.2,67.4z M48.8,32.1c0-0.3-0.1-0.5-0.3-0.5c-0.2,0-0.3,0.1-0.3,0.3 s0.1,0.4,0.3,0.5C48.7,32.5,48.8,32.4,48.8,32.1z M53.1,20.2c0.2,0,0.3-0.1,0.3-0.3c0-0.2-0.1-0.2-0.3-0.1 c-0.2,0.1-0.3,0.2-0.3,0.3S52.9,20.2,53.1,20.2z M43.2,38.2c0.2,0.3,0.5,0.5,0.8,0.6c-0.3-0.3-0.6-0.7-0.9-1 C43,37.9,43.1,38,43.2,38.2z M48.8,41.4c0-0.3,0-0.5,0-0.7c0-0.4-0.3-0.7-0.6-0.8v2.4C48.6,42.2,48.8,41.8,48.8,41.4z M47.5,42.6 c-0.4-0.4-0.8-0.8-1.2-1.3c-0.1,0.4,0,0.8,0.3,1C47,42.6,47.2,42.7,47.5,42.6z M48.2,35.6c0-0.1,0.1-0.1,0.1-0.1 c0.4-0.4,0.5-0.8,0.5-1.4c0-0.3-0.2-0.6-0.5-0.7c0,0-0.1,0-0.1,0V35.6z M52.8,18.9c0-0.2-0.1-0.2-0.3-0.1c-0.2,0.1-0.3,0.2-0.3,0.3 c0,0.1,0.1,0.1,0.3,0.1C52.6,19.3,52.8,19.1,52.8,18.9z M52.8,44.4c0,0.4,0.6,0.4,1.2,0c0.3-0.2,0.3-0.3,0.1-0.5 C53.6,43.7,52.8,44,52.8,44.4z M51.6,30.7c-0.1,0.3,0.1,0.4,0.5,0.3c0.4-0.1,0.7-0.3,0.8-0.5c0.1-0.3-0.1-0.4-0.5-0.3 C52.1,30.3,51.7,30.5,51.6,30.7z M48.2,23.4v-2.9c0.5-0.3,0.6-0.8,0.3-1.6c-0.1-0.1-0.2-0.3-0.3-0.4V18c0.3-0.2,0.7-0.4,1.1-0.4 c1.2-0.2,2.3-0.6,2.9-1.8c0.3-0.5,2-0.6,2.5-0.3c0.1,0.1,0.2,0.1,0.2,0.2c0.7,0.7,1.4,1.4,2.1,2.1c0.4,0.4,0.5,1.4,0,1.9 c-0.1,0.1-0.1,0.2-0.2,0.2c-0.1,0-0.1,0.1-0.2,0.1c0.5,0.3,0.2,0.7-0.5,0.7c-0.1,0-0.2,0-0.3,0c-0.5,0.5-0.9,1.1-1.2,1.9 c-0.1,0.2-0.4,0.4-0.6,0.6c-0.7,0.4-1.6,0.2-2-0.6c-0.2-0.3-0.3-0.8-0.5-1.1c-0.2-0.3-0.6-0.5-0.9-0.7c-0.6-0.3-1.3,0-1.5,0.6 c-0.1,0.4-0.1,0.8-0.2,1.2C48.8,23.1,48.6,23.3,48.2,23.4z M53.4,20.5c0.3,0.1,0.6,0.1,0.8-0.1c0.7-0.6,0.9-1.3,0.7-2.1 c-0.2-0.7-0.8-1.1-1.6-1.1c-0.5,0-1,0.3-1.1,0.8C51.8,19.1,52.2,20.1,53.4,20.5z M53.9,42.2c-0.3-0.3-0.7-0.4-0.9-0.3 c-0.4,0.3-0.3,1.1,0.2,1.1c0.2,0,0.6,0.1,0.9,0.2C54.7,43.3,54.6,42.8,53.9,42.2z M33.8,51.4c0.2,0,0.5-0.1,0.5-0.3 c0-0.2-0.2-0.3-0.5-0.3c-0.2,0-0.5,0.1-0.5,0.3C33.4,51.2,33.6,51.4,33.8,51.4z M34.5,37.4c-0.3,0-0.5,0.1-0.5,0.3 c0,0.2,0.1,0.3,0.3,0.3s0.4-0.1,0.5-0.3C34.8,37.6,34.7,37.4,34.5,37.4z M74.9,27.3c0.1,0,0.2,0,0.3,0c0.2,0,0.5,0,0.8-0.1 c0.5-0.1,0.9-0.4,1-0.9c0.1-0.3,0.1-0.6,0.1-0.9c0-0.2,0.1-0.4,0.2-0.6L74.9,27.3z M31.7,39.7c0.1,0,0.2,0,0.3,0.1 c0,0-0.1,0.1-0.1,0.1c-0.3,0.5,0.1,0.7,0.5,0.4c0.1-0.1,0.1-0.2,0.2-0.3c0.3,0.1,0.5,0.3,0.7,0.5c-0.1,0-0.2,0.1-0.2,0.3 c0,0.2,0.1,0.3,0.3,0.3c0.1,0,0.2,0,0.2-0.1c0,0,0,0,0,0c0.1,0.4,0.3,0.7,0.4,1.1c0,0,0,0.1,0.1,0.1c-0.1,0-0.3,0.1-0.3,0.1 c0,0-0.1,0.1-0.1,0.1c0.1,0.2,0.3,0.3,0.4,0.5c0.1,0,0.1,0,0.2,0c0.2,0,0.4-0.1,0.5-0.2c0.4,0.1,0.8,0.1,1.1-0.1 c0.1-0.1,0.3-0.3,0.3-0.5c0-0.3,0-0.6-0.2-0.8c-0.4-0.4-0.9-0.8-1.4-1.1c-1-0.6-1.3-1.5-1.1-2.6c0.1-0.6,0.3-1.1,1-1.4 c0.4-0.1,0.7-0.3,1-0.6c0.4-0.3,0.4-1.2,0.1-1.7c-0.3-0.5-1.1-0.7-1.6-0.2c-0.1,0.1-0.2,0.2-0.3,0.3c-0.1-0.2-0.4-0.2-0.9-0.3 c0.1,0.3,0.1,0.6,0.2,0.8c0.1,0.1,0.1,0.2,0.1,0.4c-0.3,0.7-0.9,0.9-1.6,1.1c-0.5,0.1-1-0.1-1.3-0.6c-0.1-0.1-0.1-0.3-0.2-0.4 c0-0.1,0.1-0.1,0.1-0.2c0.5-0.5,0.5-0.6-0.1-0.6c-0.1,0-0.2,0-0.3,0.1c-0.1-0.1-0.1-0.2-0.2-0.3c-0.7-0.3-1.4-0.7-2.1-1.1 c-0.2-0.4-0.3-0.9-0.5-1.4c-0.2-0.6-0.7-1-1.2-1.2c-0.2-0.1-0.4-0.1-0.6-0.2c-0.8-0.2-1.1-0.7-1.4-1.4c-0.1-0.3-0.2-0.5-0.3-0.8 c-0.8-0.3-1.7-0.5-2.5-0.8c-0.2,0.5-0.3,1.1-0.2,1.7c0,0,0,0.1,0,0.1c0.6,0.6,1.3,1.3,1.9,1.9c0.1,0.1,0.2,0.1,0.3,0.3 c0,0,0.1,0.1,0.1,0.1c0.6,0.6,1.3,1.3,1.9,1.9c0.1,0,0.2,0,0.2,0c0.2,0,0.4,0,0.6,0c0.7,0.1,0.9,0.2,1,0.9c0.1,0.6,0.2,1.1,0.4,1.4 c0.1,0.1,0.3,0.3,0.4,0.4c0.3,0.1,0.6,0.2,1.2,0.3c0.2,0,0.4,0,0.6,0c0.6,0.1,0.9,0.4,0.9,1c0,0.6,0,1-0.1,1.4 c0.3,0.4,0.7,0.7,1,1.1C31.4,39.7,31.6,39.7,31.7,39.7z M34.2,54.2c0.2,0,0.3-0.1,0.5-0.2c-0.1-0.1-0.1-0.2-0.2-0.2 c-0.2-0.1-0.4,0-0.4,0.2C34.1,54,34.2,54.2,34.2,54.2z M42.8,46.8c0-0.2-0.2-0.2-0.5-0.1c-0.2,0.1-0.5,0.2-0.5,0.3 c0,0.1,0.2,0.1,0.5,0.1C42.6,47.1,42.8,47,42.8,46.8z M44.1,44.1c-0.1,0-0.1,0-0.1,0c0,0,0,0,0,0c0,0,0,0,0,0c0,0,0,0-0.1,0 c-0.3,0-0.5,0.2-0.5,0.5c-0.1,0.3,0,0.7,0.2,0.9c0,0-0.1,0.1-0.1,0.1c-0.1,0.2,0,0.3,0.3,0.3c0.3,0,0.5-0.1,0.5-0.3c0,0,0,0,0,0 c0,0,0,0,0,0c0.4-0.3,0.5-0.8,0.2-1.3c0,0,0,0,0,0C44.5,44.2,44.4,44.1,44.1,44.1z M46.1,50c-0.2,0.1-0.3,0.3-0.3,0.5 c0,0.2,0.1,0.2,0.3,0.1c0.2-0.1,0.3-0.3,0.3-0.5C46.4,49.9,46.3,49.9,46.1,50z M44,41.7c-0.2,0-0.3,0.1-0.3,0.3 c0,0.2,0.1,0.3,0.3,0.3s0.3-0.1,0.3-0.3C44.3,41.8,44.2,41.7,44,41.7z M43.8,40.2c-0.2,0-0.5,0.2-0.9,0.5c-0.6,0.5-0.6,0.5,0.1,0.4 C43.7,40.9,44.4,40.2,43.8,40.2z M15,58.3c-0.1,0-0.5,0.1-0.7,0.3c-0.4,0.3-0.4,0.3,0,0.3h0.1c0.3,0,0.6-0.1,0.7-0.3 C15.2,58.5,15.1,58.3,15,58.3z M48.2,77.8v1.7c0.1-0.2,0.3-0.4,0.3-0.7C48.5,78.4,48.4,78.1,48.2,77.8z M12.8,51.2 c0.6,0.1,0.9-0.2,1.1-0.5c0.1-0.2,0.2-0.6,0.1-0.8c-0.1-0.2-0.5-0.4-0.7-0.4c-0.5,0-0.9,0.2-1.2,0.6c-0.1,0.2-0.1,0.6,0.1,0.8 C12.4,51,12.7,51.1,12.8,51.2z M12.9,58c0.7,0,1.2-0.4,1.2-1c0-0.8-0.5-1.4-1.2-1.5c-0.6-0.1-1.1,0.6-1.1,1.4 C11.8,57.5,12.2,57.9,12.9,58z M48.2,90.6v2.3c0.3-0.1,0.3-0.3,0.3-0.4c0,0,0,0,0.1,0c0.3-0.3,0.3-0.9,0.1-1.4 C48.5,90.9,48.4,90.7,48.2,90.6z M50.1,90.4c-0.8-0.5-1.5-0.4-1.5,0.1c0,0.4,0.1,0.4,0.6,0.2c0.5-0.3,0.6-0.2,0.6,0.1 c0,0.5,0.5,0.6,0.8,0.2C50.6,90.9,50.4,90.6,50.1,90.4z M19.2,50.1c-0.2-0.2-0.5-0.3-0.8-0.2c-0.2,0.1-0.4,0.5-0.2,0.7 c0.2,0.2,0.4,0.3,0.6,0.5c0.2-0.1,0.4-0.1,0.5-0.3C19.5,50.6,19.4,50.3,19.2,50.1z M17.7,54.3c0.2,0.2,1.4-0.2,1.4-0.5 c0-0.1-0.3-0.3-0.6-0.3C18,53.5,17.4,54,17.7,54.3z M10.1,48.9C10.1,48.9,10.1,48.9,10.1,48.9L10.1,48.9C10,48.9,10,48.9,10.1,48.9 z M51.2,92.7c0,0.5,0.2,0.6,0.8,0.2c0.2-0.1,0.3-0.3,0.2-0.5C51.9,92.1,51.2,92.3,51.2,92.7z M14.8,53.2c-0.2,0-0.6,0.1-0.8,0.3 c-0.4,0.2-0.4,0.4-0.1,0.7c0.3,0.3,0.5,0.3,0.8,0C15.3,53.6,15.3,53.2,14.8,53.2z M51.6,74.7c-0.6-0.3-0.9-0.1-0.9,0.5 c0,0.2,0.3,0.4,0.8,0.4C52.3,75.6,52.4,75.1,51.6,74.7z M50.7,49.7c-0.3,0.1-0.5,0.3-0.5,0.6c0,0.3,0.3,0.6,0.6,0.4 c0.2-0.1,0.3-0.3,0.5-0.4C51.2,49.8,50.9,49.6,50.7,49.7z M51.3,53.5c0.7-0.6,0.7-0.6,0.1-0.6c-1,0-1.6,0.3-1.6,0.8 C49.7,54.3,50.5,54.2,51.3,53.5z M20.9,27.2C20.9,27.2,20.9,27.2,20.9,27.2L20.9,27.2C20.9,27.2,20.9,27.2,20.9,27.2 C20.9,27.2,20.9,27.2,20.9,27.2C20.9,27.2,20.9,27.2,20.9,27.2C20.9,27.2,20.9,27.2,20.9,27.2C21,27.2,21,27.2,20.9,27.2 C21,27.2,21,27.2,20.9,27.2z M51.9,51.1c0,0.3,1.4,0.4,1.6,0c0.1-0.2,0.1-0.3,0-0.4C53.3,50.5,51.9,50.8,51.9,51.1z M50.9,43 c-0.6,0-1,0.3-1.2,0.8c-0.1,0.4,0,0.8,0.3,1.1c0.3,0.3,0.6,0.5,1,0.5c0.4,0,0.8-0.3,0.8-0.6c0-0.4,0-0.8-0.1-1.2 C51.6,43.3,51.2,43,50.9,43z M51.1,65c-0.3,0-0.4,0.1-0.3,0.3c0.1,0.2,0.3,0.3,0.5,0.3s0.3-0.1,0.3-0.3C51.6,65.1,51.4,65,51.1,65z M49,81.3c-0.2,0.9,0.3,1.7,1,1.9c0.2,0,0.4,0,0.6,0.1c0.2,0,0.4-0.1,0.6-0.1c0.4-0.1,0.7-0.4,0.7-0.8c0.1-1-0.4-1.7-1.5-1.8 C49.7,80.5,49,80.8,49,81.3z M50.2,78.9c0.1,0.2,0.4,0.3,0.6,0.3s0.4-0.1,0.4-0.3c0-0.2-0.3-0.3-0.6-0.3S50.1,78.8,50.2,78.9z M49.7,76.7c0.1,0.2,0.5,0.3,0.7,0.1c0.2-0.2,0.2-0.5,0.4-0.8c-0.2-0.2-0.4-0.4-0.6-0.5c-0.3-0.1-0.6,0.2-0.6,0.4 C49.5,76.2,49.6,76.4,49.7,76.7z M52.2,46.4c-0.3,0.7-0.4,1.4,0,2c0.1,0.2,0.5,0.4,0.7,0.4c1,0.1,1.7-0.4,2.1-1.3 c0.1-0.3,0.2-0.6,0.3-0.9c0.1-0.4,0.4-0.6,0.7-0.7c0.2,0,0.4,0.1,0.7,0.1c0.3,0,0.6,0,0.8-0.1c0.4,0.2,0.7,0.5,1,1.1 c0.2,0.4,0.4,0.7,0.6,1c0,0.1,0.1,0.1,0.2,0.1c0,0.1-0.1,0.2-0.1,0.3c0,0.1,0.2,0.3,0.5,0.3c0.4,0,0.5-0.2,0.4-0.4 c0.1,0,0.3-0.1,0.4-0.2c0.4-0.4,0.7-0.9,1.1-1.4c0.3-0.4,0.8-0.6,1.3-0.7c0.4,0,0.8,0,1.2,0.1c0.3,0.1,0.5,0.3,0.6,0.6 c0.1,0.6,0,1.1-0.4,1.5c-0.3-0.1-0.6-0.1-0.7,0c-0.2,0.2-0.1,0.4,0.2,0.4c-0.4,0.2-0.7,0.5-1.1,0.7c-0.4,0.3-0.5,0.8-0.5,1.2 c-0.1-0.1-0.2-0.1-0.5,0c-0.4,0.1-0.7,0.3-0.8,0.5c-0.1,0.3,0.1,0.4,0.5,0.3c0.3-0.1,0.7-0.3,0.8-0.5c0,0,0,0.1,0,0.1 c0.1,0.6,0.7,1,1.6,1.1c0.5,0,0.8-0.3,0.9-1c0-0.1,0-0.2,0-0.4c0,0,0.1,0,0.1,0c0.3,0.1,0.5-0.1,0.5-0.4c0-0.3-0.2-0.4-0.5-0.4 c0,0,0,0,0,0c0,0,0,0,0-0.1c0.1-0.5,0.6-0.9,1-0.9c0.6-0.1,1.2,0,1.8-0.1l1-1c-0.3,0.1-0.5,0.2-0.7,0.2c-0.3-1-0.8-1.8-1.9-2.2 c-0.6-0.2-1-0.7-1.2-1.2c-0.3-1.2-1.1-1.8-2.2-2.2c-0.6-0.2-1-0.6-1.3-1.2c0-0.1-0.1-0.1-0.1-0.2l-1,1c0,0,0.1,0.1,0.1,0.1 c0.2,0.1,0.3,0.2,0.5,0.4c0.7,0.6,0.8,1.9,0.3,2.8c0,0-0.1,0.1-0.1,0.1c-0.1,0.1-0.2,0.1-0.2,0.2c0,0,0,0,0,0 c-0.1,0.1-0.3,0.2-0.4,0.2c-1.2,0.2-1.9-0.2-2-1.2c0-0.1,0-0.2,0-0.3c0.1-0.1,0.2-0.2,0.2-0.3c0-0.1,0-0.1-0.1-0.2l-0.2,0.2v-0.4 c0-0.1,0-0.1,0-0.2c-0.1-0.3-0.6-0.6-0.9-0.6c-0.6,0-1.2,0.1-1.6,0.6c-0.2,0.3-0.4,0.7-0.6,1c-0.4,0.7-1,1.2-1.8,1.4 c-0.2,0-0.4,0.1-0.6,0.2C52.4,46.1,52.3,46.2,52.2,46.4z M73.3,37.6c0,0.2,0.1,0.3,0.3,0.4c0.1,0,0.2,0,0.3-0.2 c0.1,0.2,0.2,0.3,0.2,0.5c0.1,0.2,0.4,0.4,0.6,0.6c0.3,0.2,0.7,0.3,1.1,0.1c0.3-0.2,0.5-0.6,0.5-1c0-0.5-0.2-1-0.5-1.3 c-0.2-0.2-0.5-0.3-0.7-0.5c-0.6-0.4-1.1-0.8-1.2-1.6c-0.1-0.3-0.3-0.5-0.4-0.8c-0.2-0.3-0.8-0.3-1,0c-0.5,0.5-0.6,1.4-0.1,1.9 c0.5,0.5,0.9,1,1.2,1.5C73.4,37.3,73.3,37.5,73.3,37.6z M54.8,55.7C54.8,55.6,54.8,55.6,54.8,55.7C54.8,55.7,54.8,55.7,54.8,55.7 C54.8,55.8,54.8,55.7,54.8,55.7z M54.9,55.7C54.9,55.7,54.9,55.7,54.9,55.7L54.9,55.7C54.8,55.7,54.8,55.7,54.9,55.7z M54.2,58.3 c-0.4,0.3-0.9,0.4-1.3,0.7c-0.5,0.4-0.7,1.1-0.5,1.9c0.2,0.6,0.9,0.9,1.4,0.6c0.3-0.2,0.7-0.5,0.9-0.8c0.4-0.6,0.5-1.3,1-1.8 c0.5-0.4,1.1-0.7,1.7-1c0,0.1,0,0.2,0.1,0.2c0.2,0.2,0.4,0.2,0.7-0.1c0.3-0.3,0.3-0.5,0-0.6c-0.1,0-0.1-0.1-0.2-0.1 c0.1-0.3,0.1-0.6-0.1-0.9c-0.1-0.1-0.1-0.2-0.2-0.2c0.1-0.1,0.1-0.1,0.1-0.2c0-0.2-0.2-0.3-0.5-0.3c-0.1,0-0.2,0-0.3,0.1 c-0.1-0.1-0.3-0.1-0.4-0.1c-0.3,0-0.5-0.1-0.8-0.1c0-0.1,0.1-0.2,0.1-0.3c0-0.2-0.1-0.5-0.3-0.5c-0.2,0-0.3,0.2-0.3,0.5 c0,0.1,0,0.2,0.1,0.3c-0.3,0-0.5,0.1-0.7,0.2c0,0.2,0.1,0.3,0.1,0.5C55.2,57.1,54.9,57.8,54.2,58.3z M52.3,67.8 c0.6,0.2,1.2,0.1,1.7-0.2c0.5-0.2,0.8-0.9,0.7-1.5c-0.2-0.6-0.7-1.1-1.2-1.1c-0.6,0-1.2,0.3-1.4,0.9c0,0.1-0.1,0.2-0.1,0.3 c0,0.1-0.1,0.2,0,0.2C51.9,67.1,52,67.7,52.3,67.8z M51.4,73.1c0.3-0.1,0.6-0.3,0.7-0.5c0.1-0.3-0.1-0.4-0.4-0.3 c-0.3,0.1-0.6,0.3-0.7,0.5C50.9,73.1,51.1,73.2,51.4,73.1z M56.6,49.5c-0.6-0.1-1.2,0.3-1.2,0.9c-0.1,0.6,0.4,1.3,0.9,1.2 c0.3,0,0.6-0.2,0.8-0.4c0,0,0.1,0,0.1,0c0.2,0,0.5-0.1,0.5-0.3c0-0.1-0.1-0.2-0.3-0.3c0-0.1,0-0.1,0.1-0.2 C57.4,50.1,57.1,49.6,56.6,49.5z M55.4,48.2c-0.4,0.1-0.8,0.2-0.9,0.2c-0.1,0-0.2,0.1-0.2,0.3c0,0.1,0.4,0.2,0.9,0.1 c0.5-0.1,0.9-0.3,0.9-0.4C56.1,48.1,55.8,48.1,55.4,48.2z M57.6,48c0.2,0,0.3-0.1,0.3-0.3c0-0.2-0.1-0.3-0.3-0.3 c-0.2,0-0.3,0.1-0.3,0.3C57.3,47.9,57.4,48,57.6,48z M51.4,70.8c0.5,0,0.6-0.3,0.3-0.7c-0.2-0.2-0.7,0-0.7,0.4 C50.9,70.6,51.2,70.8,51.4,70.8z M53.7,49.5c-0.2,0-0.3,0.1-0.3,0.3c0,0.2,0.1,0.2,0.3,0.1c0.2-0.1,0.3-0.2,0.3-0.3 S53.9,49.5,53.7,49.5z M52.5,52.7c-0.4,0.2-0.6,1-0.3,1.6c0.2,0.5,0.6,0.8,1.1,1c0.5,0.2,1.1,0.1,1.6,0.4c0-0.6,0-1.2-0.2-1.8 c0.2,0.1,0.6,0.1,1.2-0.1c1.2-0.4,1.3-0.9,0.2-0.9c-0.8,0-1.4,0.2-1.5,0.5c0-0.1-0.1-0.1-0.1-0.2C54,52.6,53.1,52.4,52.5,52.7z M8.2,48.9c0,0.2,0.1,0.3,0.3,0.3s0.3-0.1,0.3-0.3c0,0,0,0,0,0L8.2,48.9C8.2,48.9,8.2,48.9,8.2,48.9z M8.8,54.1 c0.1,0.4,0.6,0.6,0.9,0.4c0.6-0.3,0.8-0.8,0.7-1.5c-0.1-0.2-0.2-0.4-0.3-0.5c-0.3-0.2-0.5-0.2-0.8,0C8.8,52.9,8.6,53.4,8.8,54.1z M39.4,50.9c0.5-0.8,1.1-1.4,1.9-1.8c0.1-0.1,0.2-0.1,0.2-0.2c0.2-0.1,0.3-0.2,0.3-0.3c0,0,0,0,0.1-0.1c0.4-0.4,0.3-1.2-0.2-1.6 c-0.6-0.5-1.7-0.4-2.1,0.2c-0.1,0.1-0.1,0.2-0.2,0.3c-0.2,0-0.3,0.1-0.3,0.3c0,0.1,0,0.1,0,0.1c0,0.1-0.1,0.2-0.2,0.3 c0.2,0.3,0.5,0.5,0.7,0.8h-2.3c-0.1,0-0.1,0-0.2,0h-2.9c1,0.3,1.5,1,1.9,1.8c0.2,0.5,0.6,0.8,1.1,0.9 C38.2,51.9,38.9,51.7,39.4,50.9z M35.5,53.5c0,0.3,2,0.4,2.2,0c0.1-0.2,0.1-0.3,0-0.4c-0.1-0.1-0.6-0.1-1.1,0c0,0-0.1-0.1-0.1-0.1 c-0.1,0-0.1,0-0.2,0.1c0,0,0,0.1,0.1,0.1C35.9,53.2,35.5,53.4,35.5,53.5z M42.4,53.5c0.1-0.3,0-0.4-0.4-0.4 c-0.1-0.1-0.1-0.1-0.2-0.2c-0.6-0.1-0.9,0.1-1.1,0.4c0,0,0,0,0,0c-0.4,0.2-0.5,0.3-0.2,0.5c0,0.2,0,0.4,0.1,0.6 c0.1,0.1,0.3,0.3,0.4,0.3c0.6,0.1,1.2-0.5,1.2-1C42.3,53.6,42.4,53.5,42.4,53.5z M52.2,86.2c0,0.1,0.3,0.2,0.6,0.3 c0.2,0.1,0.4,0.1,0.5,0.1c0.4-0.3,0.9-0.4,1.2-0.8c0.8-0.9,1.5-1.8,2.5-2.5c0.6-0.4,0.8-1.1,0.7-1.9c0-0.6-0.6-1.1-1.5-1.2 c-0.6-0.1-1.2,0.3-1.4,0.9c-0.2,0.6-0.3,1.2-0.4,1.7c-0.1,0.4-0.4,0.7-0.8,0.8c-0.3,0.1-0.6,0.1-0.9,0.2c-0.4,0.1-0.6,0.5-0.7,0.9 c-0.1,0.5,0,0.9,0.2,1.4C52.2,86.1,52.2,86.2,52.2,86.2z M50.3,94.6c-0.2,0-0.3,0-0.5,0.1c0.1,0.1,0.1,0.2,0.2,0.3 c0.2-0.1,0.3-0.1,0.5-0.2C50.4,94.7,50.4,94.6,50.3,94.6z M50.8,69.9c0.2,0.1,0.4,0.1,0.6,0c0.2,0,0.4-0.2,0.4-0.3 c0-0.1-0.1-0.4-0.2-0.5c-0.1-0.1-0.3-0.2-0.5-0.3c0.3,0,0.6-0.1,0.7-0.3c0.1-0.2,0.1-0.3-0.1-0.4C51.2,68,50,68.3,50,68.7 c0,0.2,0.4,0.3,0.8,0.3c-0.2,0.1-0.4,0.3-0.5,0.4C50.2,69.5,50.4,69.8,50.8,69.9z M49.3,100.6c0,0.3,0.3,0.8,0.6,0.9 c0.5,0.2,1,0.3,1.4,0.1c0.1,0,0.2-0.1,0.2-0.2c0.1,0.2,0.2,0.3,0.5,0.2c0.6-0.1,0.9-0.7,0.4-1c-0.3-0.2-0.6-0.1-0.8,0.1 c-0.1-0.4-0.4-0.7-0.7-0.9c0.5,0.1,1.1-0.1,1.4-0.4c0.3-0.4,0.3-0.5-0.1-0.7c-0.6-0.2-2.1,0.4-1.8,0.8c0,0,0,0,0,0 c-0.1,0-0.2,0-0.3,0C49.7,99.6,49.3,100.1,49.3,100.6z M5.6,57.7C5.6,57.7,5.6,57.7,5.6,57.7C5.8,58,6,58.2,6.3,58.3 c0.5,0.3,1.2,0,1.4-0.6c0.1-0.2,0.1-0.4,0.1-0.6c0-0.2,0-0.4-0.1-0.6c-0.1-0.5-0.6-0.9-1-0.9c-0.2,0-0.4,0-0.6,0.1 c-0.2-0.2-0.4-0.5-0.7-0.7c-0.7,0.3-1,0.8-0.7,1.4c0.2,0.3,0.4,0.6,0.6,0.9c0,0,0,0,0,0C5.2,57.6,5.4,57.7,5.6,57.7z M61.8,57.5 c0.1,0.2,0.2,0.3,0.3,0.5c0.5,0.6,1.6,0.7,2.1,0.2c0.4-0.5,0.4-1.1,0.2-1.6c-0.1-0.4-0.7-0.6-1.3-0.6c-0.2,0-0.5,0.1-0.8,0.2 C61.7,56.3,61.5,56.9,61.8,57.5z M41.6,38.2c0-0.3-0.2-0.4-0.5-0.4c-0.7,0.1-0.7,0.7-0.1,0.8C41.4,38.6,41.6,38.5,41.6,38.2z M40.1,42.1c0.1,0.1,0.3,0.2,0.5,0.3c0.3,0,0.6,0,0.8-0.1c0,0,0.1,0,0.1,0c0.2,0,0.3-0.1,0.3-0.3c0,0,0.1,0,0.1-0.1 c0.4-0.3,0.5-0.9,0.4-1.3c-0.2-0.5-0.9-1-1.4-0.9C40,39.8,39.5,41.3,40.1,42.1z M55.5,15.3c0,0.2,0.2,0.3,0.5,0.3s0.5-0.1,0.5-0.3 S56.2,15,55.9,15S55.5,15.2,55.5,15.3z M37,31.3c-0.1,0.5,0,1.1,0.4,1.5c0.1,0.1,0.3,0.3,0.4,0.4c0.8,0.4,1.4,1,1.7,1.9 c0.3,0.7,1,0.8,1.6,0.7C39.8,34.3,38.4,32.8,37,31.3z M57.9,14.2C57.9,14.2,57.9,14.2,57.9,14.2C57.8,14.2,57.8,14.2,57.9,14.2 c-0.1-0.1-0.1,0-0.1,0C57.8,14.2,57.9,14.2,57.9,14.2z M57.8,14.2c0.3-1.1-0.3-1.8-1-2.5c-0.4-0.3-1.3-0.1-1.5,0.4 c-0.3,0.8-0.2,1.5,0.4,2.2c0.4,0.4,0.9,0.2,1.4,0.1C57.3,14.4,57.5,14.3,57.8,14.2z M31.9,35c0,0.2,0.1,0.2,0.3,0.1 c0.2-0.1,0.3-0.2,0.3-0.3c0-0.1-0.1-0.1-0.3-0.1C32,34.7,31.9,34.8,31.9,35z M35.3,44.1c0.1,0.2,0.3,0.3,0.4,0.5 C35.9,44.4,35.7,44.2,35.3,44.1z M33.4,31.1c0.5,0,0.9-0.1,0.9-0.3s-0.4-0.3-0.9-0.3c-0.2,0-0.4,0-0.5,0.1c0,0,0-0.1,0-0.1 c0-0.4-0.4-0.6-0.7-0.6c0-0.1-0.1-0.3-0.2-0.3c-0.1,0-0.4,0.2-0.6,0.5c-0.1,0.1-0.1,0.2-0.2,0.2c0,0-0.1,0-0.1,0.1 c-0.6,0.3-0.8,0.9-0.6,1.5c0.2,0.5,0.5,0.9,1,1.1c0.2,0.7,1,0.6,1.1-0.3c0.4-0.4,0.5-1,0.5-1.5C33,31,33.2,31.1,33.4,31.1z M30.5,24.7c-0.1,0.1-0.2,0.2-0.3,0.4c-0.4,0.8-0.2,1.6,0.5,2.1c1,0.5,1.8,1.1,2.5,2.1c0.1,0.1,0.1,0.1,0.2,0.2 c-0.1,0.4,0.1,0.7,0.3,1c0.4,0.4,0.9,0.6,1.4,0.9c0.1-0.1,0.3-0.3,0.4-0.4c-0.2-0.5-0.4-1.1-0.7-1.5c0,0,0,0-0.1-0.1 c0,0,0.1-0.1,0.1-0.1C33.5,27.6,32,26.1,30.5,24.7z M71,44.7c-0.4-1-1-1.7-2-2.1c-0.6-0.3-0.9-0.8-1-1.4c-0.1-0.6-0.1-1.2-0.7-1.7 c-0.4,0-0.9,0-1.4,0c-0.6,0-1.1-0.5-1.2-1.1c-0.1-0.4,0.1-0.8,0.3-1.1c0.4-0.4,1-0.7,1.3-1.2c0.1-0.1,0.2-0.3,0.2-0.4l-3.7,3.7 c0.1,0,0.2,0.1,0.3,0.1c0.4,0.1,0.7,0.3,0.9,0.5c-0.2,0.4,0.2,0.6,0.7,0.8c0.1,0.2,0.2,0.3,0.3,0.5c0.3,0.8,0.8,1.4,1.6,1.7 c0.6,0.2,1,0.6,1.3,1.2c0.5,0.9,1.1,1.6,2,2.2c0,0,0.1,0.1,0.1,0.1l1.2-1.2C71.2,45,71.1,44.8,71,44.7z M65.6,45.6 c0.1,0.2,0.3,0.3,0.5,0.3s0.3-0.1,0.3-0.3c0-0.2-0.2-0.3-0.5-0.3S65.5,45.4,65.6,45.6z M66.5,44.1c-0.1,0.2,0,0.3,0.3,0.3 s0.5-0.1,0.5-0.3c0-0.2-0.1-0.3-0.3-0.3C66.8,43.8,66.7,43.9,66.5,44.1z M43.9,50c-0.2,0.2-0.3,0.5-0.3,0.8c-0.1,0-0.3,0.1-0.4,0.3 c-0.1,0.2,0,0.3,0.3,0.3c0.1,0,0.2,0,0.3-0.1c0.1,0.1,0.1,0.1,0.2,0.1c0.6,0.2,1.2,0.3,1.9,0.5c-0.1-0.5-0.2-1.1-0.3-1.6 C45.4,49.6,44.5,49.5,43.9,50z M58.2,14.3c-0.1,0-0.2,0-0.3-0.1c0.1,0.2,0.2,0.4,0.3,0.6V14.3z M64.2,42.3 c-0.4,0.2-0.6,0.4-0.5,0.5c0.3,0.2,1.1-0.1,1.1-0.5C64.9,42,64.7,42,64.2,42.3z M62.5,55c0-0.2-0.1-0.3-0.3-0.3 c-0.2,0-0.3,0.1-0.3,0.3c0,0.2,0.1,0.3,0.3,0.3C62.3,55.3,62.5,55.2,62.5,55z M52.8,27.4c0,0.2,0.1,0.2,0.3,0.1 c0.2-0.1,0.3-0.2,0.3-0.3c0-0.1-0.1-0.1-0.3-0.1C52.9,27.1,52.8,27.3,52.8,27.4z M55.2,24.9c0-0.2-0.1-0.5-0.3-0.5 s-0.3,0.2-0.3,0.5c0,0.2,0.1,0.5,0.3,0.5S55.2,25.1,55.2,24.9z M54.9,28c0-0.2-0.2-0.3-0.4-0.3c-0.2,0-0.5,0.1-0.6,0.3 c-0.1-0.1-0.3-0.1-0.4-0.1c-0.5,0-1,0.3-1.1,0.8c-0.1,0.8,0.3,1.5,1,1.5c0.7,0,1.3-0.4,1.3-0.9c0-0.3-0.1-0.7-0.3-0.9 C54.6,28.3,54.9,28.2,54.9,28z M52.7,23.9c-0.6,0.2-0.7,0.8-0.1,0.8c0.3,0,0.5-0.2,0.5-0.5C53.1,23.9,52.9,23.8,52.7,23.9z M38.2,77.7c0-0.2-0.1-0.3-0.3-0.3c-0.2,0-0.3,0.1-0.3,0.3c0,0.2,0.1,0.3,0.3,0.3C38.1,78,38.2,77.9,38.2,77.7z M45.2,64.8 c0-0.2-0.1-0.5-0.3-0.5s-0.4,0.2-0.6,0.5c-0.3,0.4-0.3,0.5,0.3,0.5C44.9,65.3,45.2,65.1,45.2,64.8z M44.9,60.3 c0.4-0.2,0.4-1.1,0.1-1.1c-0.1,0-0.4,0.1-0.7,0.3c-0.3,0.2-0.4,0.4-0.1,0.6C44.4,60.3,44.7,60.4,44.9,60.3z M45.9,52 C45.9,52,46,51.9,45.9,52C46,51.9,46,51.9,45.9,52C45.9,51.9,45.9,52,45.9,52z M45,55.8c-0.8,0-1.6,0.5-1.7,1.2 c-0.1,0.3,0.2,0.8,0.6,0.9c0.9,0.1,1.7-0.7,1.7-1.7C45.4,56.1,45.2,55.8,45,55.8z M46.8,67.7c0.2,0,0.3-0.1,0.4-0.1 c0.1,0,0.1,0,0.2,0.1c0.2,0,0.3-0.1,0.4-0.1c0.5-0.2,0.9-0.9,0.8-1.5c-0.1-0.6-0.7-1.1-1.2-1.1c-0.1,0-0.2,0-0.3,0 c0-0.2-0.1-0.3-0.3-0.3c-0.2,0-0.3,0.1-0.3,0.3c0,0.1,0.1,0.2,0.1,0.2c-0.3,0.3-0.5,0.7-0.4,1.1c0.1,0.4,0.3,0.7,0.6,1 c0,0-0.1,0.1-0.1,0.1C46.4,67.6,46.6,67.7,46.8,67.7z M41.7,61.1c0.4-0.2,0.6-0.6,0.5-1.1l-1.2,1.2C41.3,61.2,41.5,61.2,41.7,61.1z M28.8,27.3c-0.6-0.5-1.5-0.7-1.8-1.5c-0.4-1-1.2-1.5-2.2-1.9c-0.4-0.1-0.6-0.5-0.8-0.8c-0.2-0.4-0.3-0.7-0.4-1.1 c-0.3-0.7-1-0.9-1.6-1c-0.4,0-1,0.5-1,0.9c0,0.9,0.4,1.6,1.2,1.9c0.3,0.1,0.6,0.2,0.9,0.3c-0.4,0-0.8,0.6-0.6,0.7 c0.1,0.1,0.3-0.1,0.5-0.3c0.2-0.2,0.2-0.3,0.2-0.4c0,0,0,0,0,0c0.5,0.2,0.8,0.5,0.9,1.1c0,0.2,0.1,0.4,0.2,0.6 c0.2,0.5,0.4,1,0.9,1.1c0.7,0.1,1.2,0.5,1.6,0.9c-0.1,0-0.1,0-0.2,0c-0.6,0-1,0.3-0.9,0.6c-0.4-0.4-0.8-0.8-1.3-1.4 c-0.3,1.4,0.3,1.8,0.9,2.1c0.2,0.1,0.4-0.1,0.8-0.2c0,0,0,0-0.1-0.1c0,0,0.1,0,0.1,0.1c0.5,0.2,1.1,0,1.3-0.3 c0.1,0.1,0.2,0.2,0.3,0.3c0.1,0.1,0.2,0.1,0.2,0.2c0.2,0.2,0.6,0.1,0.8-0.1C29.2,28.4,29.2,27.6,28.8,27.3z M42.8,67.4 c0-0.1-0.2-0.2-0.4-0.2c-0.4,0-1.2,1.2-1,1.4C41.6,68.7,42.8,67.7,42.8,67.4z M40,62.4c-0.2,0.1-0.3,0.2-0.3,0.3s0.1,0.1,0.3,0.1 c0.2,0,0.3-0.1,0.3-0.3C40.3,62.4,40.2,62.3,40,62.4z M41.3,72c-0.3-0.2-0.7,0.4-0.7,0.7c0,0.3,0.4,0.6,0.6,0.5 c0.1,0,0.2-0.2,0.3-0.3c0.2,0.3,0.8,0.5,1,0.3c0.4-0.4,0.2-0.7-0.4-0.7c-0.1,0-0.3,0-0.4,0.1C41.6,72.4,41.5,72.1,41.3,72z M25.1,90.5c0.1-0.2-0.1-0.4-0.4-0.3c-0.3,0.1-0.5,0.2-0.5,0.4C24.3,91,25,91,25.1,90.5z M24.8,88.2c0.1-0.3,0-0.5-0.3-0.4 c-0.2,0.1-0.5,0.4-0.5,0.7c-0.1,0.3,0,0.5,0.3,0.4C24.6,88.8,24.8,88.5,24.8,88.2z M27.8,87l0-0.2l-0.2,0.1L27.8,87z M28.8,57.2 c0.1-0.2-0.1-0.4-0.4-0.4s-0.5,0.2-0.5,0.5C27.9,57.8,28.6,57.8,28.8,57.2z M28.5,86.3c0.2-0.1,0.4-0.4,0.6-0.6 c0.1-0.1,0.1-0.4,0.1-0.5c-0.1-0.5-0.2-0.9-0.6-1.1c0.1-0.1,0.3-0.1,0.3-0.2c0.1-0.2-0.1-0.3-0.4-0.3c-0.3,0-0.6,0.1-0.6,0.3 c0,0,0,0.1,0,0.1c-0.2,0-0.4,0.1-0.5,0.3c-0.3,0.6-0.2,1.2,0.1,1.7C27.6,86.1,28.3,86.4,28.5,86.3z M17.1,85.9 c0,0.5,0.2,0.9,0.4,0.9c0.2,0,0.4-0.1,0.4-0.2c0-0.1-0.1-0.5-0.2-0.9C17.5,84.7,17,84.8,17.1,85.9z M26.9,88.3 c0.5-0.4,0.5-0.8,0.2-1c-0.4-0.2-1,0.7-0.8,1C26.4,88.6,26.6,88.5,26.9,88.3z M24,79c0.4,0.1,0.6,0,0.7-0.6c0.1-0.4,0-0.6-0.2-0.7 l-1,1C23.6,78.9,23.8,79,24,79z M28.9,78.5c-0.1-0.1-0.4,0-0.6,0.3c-0.3,0.4-0.3,0.5,0.1,0.5C28.9,79.2,29.3,78.7,28.9,78.5z M25.6,87.9c0.5-0.4,0.2-0.9,0-1.3c-0.1-0.2-0.3-0.4-0.5-0.7c-0.2,0.3-0.5,0.6-0.5,0.8c0.1,0.4,0.3,0.9,0.5,1.3 C25.2,88,25.5,88,25.6,87.9z M26.8,82.5c0-0.1,0-0.2,0-0.2c0-1.1-0.6-1.7-1.6-1.7c-0.2,0-0.4,0-0.6,0.1c-0.5,0.1-0.9,0.5-0.8,1 c0.1,1,0.7,1.6,1.6,1.9C26.1,83.7,26.7,83.2,26.8,82.5z M43.6,62.5c0,0.2,0.2,0.5,0.4,0.7c0.1,0.1,0.4,0,0.5-0.1 c0.3-0.3,0.3-1-0.1-1.2c-0.1,0-0.2,0-0.4,0C43.8,62,43.6,62.2,43.6,62.5z M49.1,32.4c0.2,0.5,0.6,0.8,1.1,0.8 c1.2,0,2.1,0.5,2.3,1.8c0.1,0.3,0.2,0.5,0.4,0.8c0.1,0.2,0.3,0.3,0.4,0.4c0.6,0.3,1.5-0.1,1.6-0.8c0.2-1-0.2-1.7-1.2-2.1 c-0.4-0.1-0.7-0.3-1-0.5c0.2-0.1,0.1-0.2-0.3-0.3c-0.3-0.2-0.5-0.5-0.7-0.9c-0.4-0.7-1-0.9-1.7-0.8C49.4,30.9,48.9,31.8,49.1,32.4z M53.8,38.9c-0.2,0-0.5,0.1-0.5,0.3c0,0.2,0.2,0.3,0.5,0.3s0.5-0.1,0.5-0.3C54.3,39.1,54.1,38.9,53.8,38.9z M49.6,63.9 c0.1,0.1,0.1,0.1,0.2,0.1c0.1,0.1,0.2,0.2,0.3,0.3c0.2,0.2,0.6,0.1,0.8-0.1c0.1-0.2,0.2-0.5,0.3-0.7c0-0.6-0.3-0.8-0.6-1.1 c-0.4-0.2-0.7-0.3-1.1-0.1c-0.3,0.1-0.4,0.6-0.1,1c0,0,0,0.1,0.1,0.1C49.4,63.6,49.4,63.7,49.6,63.9z M54.9,38 c0-0.2-0.2-0.3-0.4-0.3c-0.2,0-0.7-0.1-1.1-0.2c-0.5-0.1-0.7-0.1-0.6,0.2C53,38.2,54.9,38.5,54.9,38z M49.9,28.3 c0.2,0,0.5-0.1,0.5-0.3c0-0.2-0.2-0.3-0.5-0.3c-0.2,0-0.5,0.1-0.5,0.3C49.4,28.2,49.6,28.3,49.9,28.3z M50.3,94.1 c0,0.4,0.9,0.4,1.5,0c0.3-0.2,0.3-0.3-0.2-0.5c0,0-0.1,0-0.1,0c0-0.1,0.1-0.2,0.1-0.2c-0.1-0.1-0.3-0.1-0.4-0.2 c-0.1,0.1-0.2,0.2-0.3,0.3c0,0,0,0,0,0C50.6,93.6,50.3,93.8,50.3,94.1z M45.8,53.2c-0.1,0-0.1,0-0.2,0c-0.4,0-0.7,0.1-0.7,0.3 c0,0.4,0.3,0.4,0.9,0c0,0,0,0,0,0c0,0.3,0.1,0.5,0.1,0.8c0.1,0.3,0.6,0.6,1,0.5c0.5-0.2,0.9-0.5,1-1c0.1-0.5-0.1-1-0.5-1.3 C47,52.1,46.5,52,46,52C45.9,52.4,45.8,52.8,45.8,53.2z M45.9,52C46,52,46,52,45.9,52C46,52,46,52,45.9,52L45.9,52z M46.2,60.6 c0,0.4,0.3,0.8,0.6,0.9c0.5,0.1,1,0.2,1.3-0.2c0.4-0.4,0.3-1.2-0.1-1.6c-0.1-0.1-0.3-0.2-0.5-0.3c-0.3,0-0.5,0.1-0.7,0.2 c0,0-0.1-0.1-0.1-0.1c-0.2,0-0.3,0.1-0.3,0.3c0,0,0,0.1,0,0.1c-0.1,0.1-0.2,0.2-0.2,0.4C46.2,60.4,46.2,60.5,46.2,60.6z M28.4,55.6 c0.1-0.2,0.1-0.4-0.1-0.5c-0.2-0.1-0.4-0.1-0.5,0.1c-0.1,0.2-0.1,0.4,0.1,0.5C28.1,55.8,28.3,55.8,28.4,55.6z M47.5,50.8 c-0.2,0-0.5,0.1-0.5,0.3c0,0.2,0.2,0.3,0.5,0.3c0.2,0,0.5-0.1,0.5-0.3C47.9,50.9,47.7,50.8,47.5,50.8z M21.8,48.9 c0.4,0.1,0.9,0.2,1.3,0.3c0.2,0.1,0.3,0.2,0.4,0.4c0.1-0.3,0.1-0.5,0.1-0.8H21.8z M23.4,50L23.4,50c0-0.1,0-0.2,0-0.3c0,0,0,0,0,0 C23.4,49.8,23.4,49.9,23.4,50z M24.8,51c0.3,0.1,0.8,0,1.1-0.2c0.3-0.3,0.4-1,0.1-1.3c-0.2-0.3-0.7-0.4-1.1-0.3 c-0.6,0.1-1,0.4-1.4,0.9C24.1,50.1,24.2,50.8,24.8,51z M28.4,53.1c-0.6-0.3-1.3,0-1.5,0.5c0,0.1,0,0.1-0.1,0.2 c-0.1,0.1-0.2,0.1-0.2,0.2c0,0.1,0.1,0.1,0.1,0.2c0,0.1,0,0.2,0,0.3c-0.1,0.3,0.2,0.6,0.5,0.6c0.6,0,1.2-0.2,1.5-0.7 C29,53.9,28.8,53.3,28.4,53.1z M23.4,50C23.4,50,23.4,50,23.4,50C23.4,50,23.5,50,23.4,50C23.5,50,23.4,50,23.4,50z M23.2,55 c0.5-0.3,0.5-0.8,0.4-1.3c-0.1-0.5-0.4-0.9-0.9-1.1c-0.3-0.1-0.6-0.1-0.7-0.1c-0.3,0-0.4,0-0.5,0c-0.7,0-1.1,0.7-0.8,1.2 c0.2,0.4,0.5,0.8,0.9,1.2C22.1,55.3,22.7,55.3,23.2,55z M21.3,57.3c0.1,0.6,0.6,0.6,0.8-0.1c0.1-0.3-0.1-0.5-0.4-0.5 C21.4,56.8,21.3,57,21.3,57.3z M25.8,55.7c-0.3,0.1-0.5,0.2-0.7,0.3c-0.2,0.2-0.2,0.5,0,0.8c0.1,0.1,0.2,0.1,0.2,0.1 c0.5,0,0.8-0.6,0.7-1.1C26,55.8,25.9,55.7,25.8,55.7z M16.9,54.3c0-0.2-0.1-0.4-0.2-0.5c-0.2-0.2-0.4-0.4-0.7-0.3 c-0.2,0.1-0.3,0.2-0.4,0.3c-0.2,0.3,0.1,0.6,0.3,0.8c0.1,0.1,0.3,0.2,0.5,0.3C16.6,54.8,17,54.5,16.9,54.3z M15.5,56.2 c0,0.2,0.1,0.3,0.3,0.3c0.2,0,0.4-0.1,0.5-0.3c0.1-0.2,0-0.3-0.3-0.3C15.7,55.9,15.5,56,15.5,56.2z M57.9,97.1 c0.2,0,0.3-0.1,0.3-0.3v-0.1c0-0.1-0.2-0.3-0.5-0.3c-0.3,0-0.4,0.1-0.3,0.3C57.6,97,57.8,97.1,57.9,97.1z M77.9,74.1 c-0.2-0.2-0.3-0.3-0.5-0.4c0,0.1-0.1,0.1-0.1,0.2C77.3,74,77.6,74.1,77.9,74.1z M92.7,15.3c0-0.2-0.2-0.3-0.4-0.3 c-0.2,0-0.3,0.1-0.5,0.2c-0.2-0.2-0.4-0.4-0.8-0.4c-0.7-0.1-1.3,0.6-1.3,1.3c0.1,0.8,0.6,1.4,1.2,1.4c0.4,0,0.8-0.2,0.9-0.6 c0.2-0.4,0.2-0.8,0.1-1.2c0,0,0,0,0,0C92.5,15.6,92.7,15.5,92.7,15.3z M71.5,71.3c0.2,0.1,0.5,0.1,0.6,0c0.1-0.1-0.1-0.2-0.4-0.2 C71.3,71.1,71.2,71.2,71.5,71.3z M80,76.1C80,76.2,80,76.2,80,76.1c0,0.2,0.1,0.3,0.4,0.4c0.1,0.3,0.4,0.5,0.7,0.6c0,0,0.1,0,0.1,0 C80.8,76.8,80.4,76.5,80,76.1z M71.6,68.1c-0.1,0-0.2,0-0.3,0.1c-0.2,0.3,0.2,0.8,0.7,0.8c0.2,0,0.3,0,0.4-0.1 C72.1,68.6,71.9,68.3,71.6,68.1z M90.6,19.6c0,0.2,0.2,0.3,0.5,0.3s0.5-0.1,0.5-0.3c0-0.2-0.2-0.3-0.5-0.3S90.6,19.4,90.6,19.6z M82.6,20.1c0.5-0.2,0.8-0.6,0.8-1.1c0,0,0-0.1,0-0.1l-1.2,1.2C82.3,20.1,82.4,20.1,82.6,20.1z M94.2,55.3c0.1-0.3,0-0.4-0.4-0.2 c-0.3,0.1-0.6,0.2-0.8,0.2c-0.1,0-0.3,0.2-0.3,0.3C92.7,56.1,94,55.8,94.2,55.3z M84.9,22.2c0,0.1,0.1,0.2,0.1,0.2 c0.2,0.1,0.4,0,0.5-0.2c0-0.1-0.1-0.2-0.1-0.2C85.1,22,85,22,84.9,22.2z M86.7,20c0.6-0.4,0.3-0.7-0.9-0.9C85,19,84.4,19,84.2,19.2 c-0.2,0.2,0,0.3,0.8,0.3c0.6,0,1.2,0.1,1.3,0.3C86.3,20,86.5,20.1,86.7,20z M89.6,19.3c0.6-0.6,1.1-1.5,0.6-1.5 c-0.2,0-0.5,0.3-0.5,0.6c0,0.1-0.1,0.3-0.2,0.4c-0.2-0.2-0.4-0.3-0.8-0.3c-0.3,0-0.6,0-0.9,0c-0.2,0-0.4,0.1-0.5,0.2 c-0.1,0.1-0.2,0.3-0.2,0.5c0,0.1,0.1,0.2,0.1,0.2c0.6,0.7,1.6,0.5,2.3,1c0.1-0.3,0.2-0.5,0.2-0.8C89.6,19.5,89.6,19.4,89.6,19.3z M79.2,23.6c0.2-0.1,0.4-0.4,0.5-0.7c0-0.1,0-0.3,0-0.4l-1.6,1.6C78.5,23.9,78.9,23.8,79.2,23.6z M100.3,55c0,0.4,0.8,0.3,1.2-0.2 c0.3-0.3,0.3-0.5,0-0.6C101.2,54,100.3,54.6,100.3,55z M101.5,51.8c0,0.1,0,0.2,0,0.3c-0.1,0.7-0.3,0.9-1,1 c-0.9,0.1-1.1-0.4-0.2-0.7c0.3-0.1,0.6-0.3,0.5-0.5c0,0,0-0.1,0-0.2c-0.7-0.3-1.4-0.7-1.7-1.5c-0.1-0.3-0.2-0.7-0.5-0.9 c-0.1,0.1-0.2,0.1-0.4,0.1c-0.2,0-0.5-0.1-0.5-0.3c0-0.1,0.1-0.2,0.3-0.3c0,0,0,0,0,0h0.2c0,0,0,0,0,0c0.2,0,0.3,0.1,0.4,0.2 c0.7-0.2,1.4-0.2,2.2,0c0.7,0.2,1.3,0.9,1.4,1.7C102.3,51.4,102,51.7,101.5,51.8z M98.3,49.2C98.3,49.2,98.3,49.2,98.3,49.2 C98.3,49.2,98.3,49.2,98.3,49.2C98.3,49.2,98.3,49.2,98.3,49.2L98.3,49.2C98.3,49.2,98.3,49.2,98.3,49.2 C98.3,49.2,98.3,49.2,98.3,49.2z M91.1,58c-0.1,0.2,0.1,0.3,0.4,0.3s0.6-0.1,0.6-0.3c0-0.2-0.2-0.3-0.4-0.3S91.2,57.9,91.1,58z M89.5,20.3C89.4,20.4,89.4,20.4,89.5,20.3L89.5,20.3C89.4,20.4,89.5,20.4,89.5,20.3C89.5,20.4,89.5,20.4,89.5,20.3 C89.5,20.3,89.5,20.3,89.5,20.3z M77.1,31.6c0.1-0.9-0.2-1.4-0.9-1.6c-0.2-0.1-0.4-0.1-0.6-0.1c-0.9-0.1-1.5-0.5-1.6-1.5 c0,0,0-0.1,0-0.1l-2.2,2.2c0.5-0.1,0.9-0.1,1,0c0,0,0.1,0,0.1,0c0.6,0.4,1,1,1.1,1.9c0,0.2,0.4,0.5,0.6,0.5c0.4,0.1,0.8,0.1,1.2,0 C76.6,32.9,77,32.4,77.1,31.6z M88.2,84.5c-0.2,0.1-0.3,0.4-0.3,0.6s0.1,0.4,0.3,0.3c0.2-0.1,0.3-0.4,0.3-0.6S88.4,84.4,88.2,84.5z M87.1,94.3c0,0,0,0.1-0.1,0.1c0.8,0.2,1.7,0.1,2.4-0.1c-0.1-0.4-0.5-0.8-0.9-0.9c0-0.1-0.1-0.2-0.2-0.3c-0.4-0.3-0.6-0.3-1.2,0.2 c-0.6,0.4-0.8,0.8-0.7,0.9c0.1,0,0.2,0.1,0.3,0.1C86.9,94.4,87,94.4,87.1,94.3z M76.1,34.3c0-0.3-0.2-0.5-0.5-0.5 c-0.2,0-0.5,0.3-0.5,0.6c0,0.3-0.2,0.6-0.4,0.7c-0.2,0.1-0.3,0.2-0.2,0.3C74.9,35.8,76.1,34.9,76.1,34.3z M83.2,31.9 c-0.3-0.9-0.8-1.6-1.7-2c-0.3-0.2-0.6-0.5-0.9-0.8c-0.4-0.4-0.2-1.3,0.3-1.6c0.9-0.5,1.9-0.3,2.4,0.4c0.3,0.4,0.5,0.9,0.8,1.3 c0.7,0.8,1.8,0.6,2.2-0.3c0.2-0.4,0.2-0.8,0.4-1.1c0.3-0.8,1.2-1.1,2-0.7c0.1,0.1,0.2,0.2,0.3,0.3l1.7-1.7c-0.3-0.5-0.3-1,0-1.4 c0.2-0.3,0.7-0.5,1.2-0.4c0.1,0.1,0.3,0.1,0.5,0.3l0.9-0.9C93,23,93,22.8,92.9,22.5c-0.1-0.3-0.1-0.6-0.2-0.9 c-0.2-0.8-0.8-1.2-1.5-1.3c-0.5-0.1-1.1,0-1.7,0.1c0.1,0.3,0.2,0.5,0.2,0.8c0,1.1-0.1,2-1.4,2.3c-0.7,0.2-1.2,0.7-1.4,1.4 c-0.1,0.4-0.3,0.7-0.4,1.1c-0.4,0.8-1.6,1-2.3,0.4c-0.2-0.2-0.4-0.4-0.5-0.7c-0.2-0.5-0.3-0.9-0.5-1.4c-0.1-0.2-0.3-0.3-0.4-0.4 c-1.1-0.3-2.1,0.1-2.4,1.1c-0.1,0.2-0.1,0.4-0.1,0.6c-0.1,0.8-0.5,1.3-1.2,1.6c-0.1,0-0.2,0.1-0.3,0.2c-0.9,0.6-1,1.9-0.2,2.6 c0.6,0.5,1,1,1.3,1.6c0.5,1,1.2,1.5,2.2,1.8c0.2,0.1,0.4,0.2,0.6,0.3l0.9-0.9C83.5,32.5,83.3,32.2,83.2,31.9z M80.9,77.6 c0,0.3,0.1,0.5,0.3,0.5c0.2,0,0.3-0.1,0.3-0.3s-0.1-0.4-0.3-0.5C81.1,77.2,80.9,77.3,80.9,77.6z M102.7,52.4c0,0.6,0.6,0.9,0.9,0.4 c0.3-0.5,0.3-0.8,0-1C103.3,51.6,102.7,51.9,102.7,52.4z M103.6,54.2c0-0.1,0-0.1,0-0.1c0.1,0.1,0.2,0.2,0.3,0.2 c0.3,0.1,0.6-0.2,0.6-0.5c0-0.4-0.3-0.8-0.7-0.8c-0.3,0-0.5,0.4-0.4,0.7c0,0.1,0.1,0.2,0.1,0.3c-0.1,0-0.2,0-0.3,0 c-0.3,0.1-0.5,0.3-0.5,0.5C102.7,54.9,103.4,54.6,103.6,54.2z M89,13.4C89,13.3,89,13.3,89,13.4C89,13.3,89,13.3,89,13.4z M104.7,58.3c0.2,0,0.5-0.1,0.6-0.3c0.1-0.2-0.1-0.3-0.4-0.3s-0.6,0.1-0.6,0.3C104.3,58.2,104.5,58.3,104.7,58.3z M92.8,17.4 c0.5-0.2,0.7-0.8,0.3-0.8c-0.2,0-0.4,0.2-0.5,0.5C92.5,17.3,92.6,17.5,92.8,17.4z M79.1,75.4C79.2,75.4,79.2,75.3,79.1,75.4 c-0.1-0.2-0.3-0.3-0.4-0.5c0,0-0.1,0.1-0.1,0.1C78.4,75.5,78.8,75.8,79.1,75.4z M89.1,91.3c0,0.2,0.2,0.3,0.4,0.3 c0.2,0,0.5-0.1,0.6-0.3c0.1-0.2-0.1-0.3-0.4-0.3S89.1,91.2,89.1,91.3z M85.4,16.9c0.3-0.1,0.5-0.3,0.6-0.6L85.4,16.9 C85.3,16.9,85.4,16.9,85.4,16.9z M12.5,18.6c-0.2,0.2-0.3,0.5-0.2,0.7c0,0.1,0.1,0.1,0.2,0.1c0.4,0,0.7-0.2,0.8-0.6 c0-0.1,0-0.2-0.1-0.2C13.1,18.4,12.7,18.4,12.5,18.6z M89.8,86.2c0.6,0,0.7-0.2,0.7-0.8c0,0,0-0.1,0-0.1c0.1,0.2,0.1,0.4,0.3,0.6 c0.2,0.2,0.5,0.4,0.8,0.2c0,0,0.1,0,0.1-0.1c-0.6-0.5-1.1-0.9-1.7-1.4c-0.3,0.2-0.9,0.9-0.9,1.2C89.1,86.1,89.4,86.2,89.8,86.2z M93,12.4c-0.2-0.1-0.4-0.1-0.7-0.1c0,0,0,0,0,0C92.6,12.5,92.8,12.6,93,12.4z M91.6,92.1c0.1-0.2,0.1-0.6,0-0.8 c-0.1-0.2-0.4-0.3-0.6-0.4c-0.5,0-0.9,0.5-1,1c0,0.2,0.1,0.5,0.3,0.6c0,0.1,0,0.1,0,0.2c0,0.2,0.1,0.5,0.3,0.5 c0.2,0,0.3-0.2,0.3-0.5c0,0,0,0,0-0.1c0,0,0.1,0,0.1,0C91.2,92.5,91.5,92.3,91.6,92.1z M93.9,19.2c0.2,0.1,0.5,0.1,0.6,0 c0.1-0.1-0.1-0.2-0.4-0.2C93.7,19,93.7,19.1,93.9,19.2z M106.6,51.3c0.2-0.1,0.4-0.3,0.5-0.4c0-0.4-0.2-0.7-0.5-0.7 c-0.2,0.1-0.5,0.4-0.4,0.7C106.3,51.1,106.6,51.3,106.6,51.3z M106.1,51.7c0-0.2-0.2-0.3-0.5-0.3s-0.5,0.1-0.5,0.3 c0,0.2,0.2,0.3,0.5,0.3S106.1,51.8,106.1,51.7z M106.8,49.9c-0.1-0.1-0.2-0.2-0.2-0.3c-0.2,0.2-0.4,0.4-0.6,0.6 c0.1,0.1,0.3,0.3,0.3,0.3C106.5,50.2,106.6,50.1,106.8,49.9z M95.2,17.7c0-0.1-0.3-0.3-0.6-0.3c-0.6,0-0.8,0.3-0.4,0.7 C94.4,18.4,95.2,18,95.2,17.7z M95.9,20.4c0.1-0.2,0.3-0.3,0.4-0.5c-0.1-0.1-0.1-0.1-0.2-0.2c-0.6-0.6-1.1-0.5-0.8,0.3 C95.4,20.2,95.6,20.4,95.9,20.4z M93.3,12.5c0,0.6,0.4,1.1,1.1,1.2c0.3,0.1,0.6,0,0.8-0.1C94.7,13.2,94,12.8,93.3,12.5z M106.2,56.9c0.1-0.2,0.1-0.3,0-0.5c-0.2-0.2-1,0.1-1,0.4C105.2,57.2,106,57.2,106.2,56.9z M108.7,51.4c-0.2-0.4-0.5-0.8-0.8-1.1 l0.6,0.9C108.6,51.2,108.7,51.3,108.7,51.4z M55.3,0.4c0,0.2,0.1,0.5,0.2,0.7c0.1,0.3,0.6,0.5,1,0.5c0.2,0,0.3-0.1,0.4-0.1 C56.5,1.1,56,0.7,55.3,0.4z M55.2,79.2c0.2,0,0.3-0.1,0.3-0.3c0-0.2-0.1-0.3-0.3-0.3c-0.2,0-0.3,0.1-0.3,0.3 C54.9,79.1,55,79.2,55.2,79.2z M56.4,67.7c0-0.2-0.2-0.3-0.5-0.3s-0.5,0.1-0.5,0.3c0,0.2,0.2,0.3,0.5,0.3S56.4,67.9,56.4,67.7z M53.7,82.6c0,0.2,0.1,0.3,0.3,0.3s0.4-0.1,0.5-0.3c0.1-0.2,0-0.3-0.3-0.3C53.9,82.3,53.7,82.4,53.7,82.6z M67.6,69.2 c0.1,0.3,0.2,0.5,0.4,0.8c0.3,0.5,1,0.7,1.6,0.5c0.5-0.2,0.9-0.7,0.9-1.4c0-0.4-0.2-0.8-0.6-1c0.1-0.1,0.1-0.3,0.1-0.4 c-0.3-1.1-1-1.9-1.8-2.6c-0.2,0.1-0.4,0.2-0.6,0.4c0-0.1,0-0.1-0.1-0.2c0.1-0.1,0.2-0.1,0.3-0.2c0.1-0.2,0-0.3-0.3-0.3 c-0.1,0-0.2,0-0.3,0.1c-0.1,0-0.1-0.1-0.2-0.1c-0.5,0-1,0-1.5,0.1c-0.7,0.1-1,0.6-1.1,1.2c0,0.2,0,0.4,0,0.6c0,0.3,0.2,0.6,0.4,0.9 c0,0.2,0.1,0.3,0.3,0.3c0,0,0.1,0,0.1,0c0,0,0,0,0,0c0.3,0.1,0.6,0.2,0.9,0.2C66.9,68.1,67.4,68.5,67.6,69.2z M53.4,75.4 c-0.2,0.1-0.3,0.2-0.3,0.3c0,0.1,0.1,0.1,0.3,0.1c0.2,0,0.3-0.1,0.3-0.3C53.7,75.4,53.5,75.3,53.4,75.4z M54.1,70.1 c0.1-0.2,0.1-0.3-0.1-0.3s-0.4,0.1-0.5,0.3c-0.1,0.2-0.1,0.3,0.1,0.3S54,70.3,54.1,70.1z M62.5,60.1c0-0.2-0.1-0.3-0.3-0.3 c-0.2,0-0.3,0.1-0.3,0.3c0,0.2,0.1,0.3,0.3,0.3C62.3,60.5,62.5,60.3,62.5,60.1z M79.5,58.5c-1.1-0.3-1.9-0.9-2.4-2 c-0.3-0.8-1.3-0.9-2.1-0.8c-0.4,0.1-0.7,0.4-0.8,0.8c-0.1,0.5-0.1,1-0.2,1.5c0,0.2-0.2,0.3-0.4,0.4c-0.6,0.4-1.3,0.5-2,0.2 c-0.2-0.1-0.5-0.4-0.5-0.7c-0.1-0.6-0.1-1.2-0.2-1.8c0-0.4-0.5-0.7-0.9-0.6c-0.7,0.1-1.1,0.5-1.2,1.1c-0.1,0.6,0,1.2,0.6,1.5 c0.3,0.2,0.6,0.3,0.8,0.6H80C79.9,58.8,79.7,58.6,79.5,58.5z M62.6,64.3c0.3,0,0.5-0.1,0.6-0.2c0.1,0,0.2,0.1,0.4,0.1 c0.3,0,0.7-0.1,0.8-0.3c0.1-0.2-0.2-0.3-0.6-0.3c-0.1,0-0.2,0-0.3,0c0-0.1,0.1-0.2,0.1-0.2c0,0,0-0.1-0.1-0.1c0,0,0.1-0.1,0.1-0.1 c-0.4-0.3-0.6-0.5-0.8-0.5c-0.3,0-0.7,0.1-0.7,0.4C62,63.2,62,63.3,62,63.4C62,63.8,62.3,64.2,62.6,64.3z M64.7,70.1 c-0.1,0.2,0,0.3,0.3,0.3c0.3,0,0.5-0.1,0.5-0.3c0-0.2-0.1-0.3-0.3-0.3C65,69.8,64.8,70,64.7,70.1z M73.4,55c0,0.2,0.1,0.3,0.3,0.3 c0.2,0,0.3-0.1,0.3-0.3c0-0.2-0.1-0.3-0.3-0.3C73.5,54.7,73.4,54.8,73.4,55z M3.4,55c0.4,0,0.8-0.2,0.9-0.6c0,0,0,0,0.1,0 c0.7,0,0.8-0.6,0.1-0.8c-0.1,0-0.1,0-0.2-0.1c-0.2-0.3-0.5-0.5-0.9-0.5c-0.5,0-0.9,0.5-0.9,1C2.5,54.5,3,55,3.4,55z M2.5,51.4 c-0.2,0-0.3,0.1-0.3,0.3c0,0.2,0.1,0.2,0.3,0.1c0.2-0.1,0.3-0.2,0.3-0.3S2.7,51.4,2.5,51.4z M18.8,20.8c0,0.2,0.2,0.3,0.5,0.3 c0.2,0,0.5-0.1,0.5-0.3c0-0.2-0.2-0.3-0.5-0.3C19,20.5,18.8,20.6,18.8,20.8z M25.5,27.1c0-0.2-0.1-0.2-0.3-0.1 c-0.2,0.1-0.3,0.2-0.3,0.3c0,0.1,0.1,0.1,0.3,0.1C25.4,27.4,25.5,27.3,25.5,27.1z M20,19.4c0-0.6-0.2-1.1-0.7-1.5 c-0.1-0.1-0.4-0.1-0.5-0.2c-0.4,0-0.8,0.2-0.9,0.6c-0.2,0.4-0.2,0.9,0.1,1.3c0,0.1,0,0.2,0.2,0.4c0.1,0.1,0.3,0.2,0.4,0.2 c0.2,0.1,0.5,0.2,0.8,0.1C19.7,20.1,20,19.7,20,19.4z M53.5,108.8c-0.7,0.2-1.2,0.7-1.4,1.4c-0.1,0.4-0.3,0.7-0.5,1.1c0,0,0,0,0,0 c1,0.3,2.1,0.3,3.1,0c0.1-0.2,0.1-0.3,0.2-0.4c0.1,0,0.1-0.1,0.2-0.2c0.1-0.1,0.1-0.2,0-0.3c0.1-0.3,0.2-0.7,0.3-1 c0.2-0.4,0.5-0.6,1-0.6c0.3,0,0.6,0,0.9,0c0.1,0,0.2,0,0.3,0.1c0.1,0.1,0.1,0.1,0.2,0.2c0.4-0.7,0.6-1.5,0.6-2.4v-0.4 c-0.1,0-0.3,0.1-0.4,0.2c-0.2-0.2-0.5-0.3-0.8-0.4c-0.3-0.1-0.6-0.2-0.8-0.3c-0.5-0.2-0.7-0.7-0.8-1.2c-0.1-0.7-0.1-1.4,0.6-1.9 c0.3-0.2,0.7-0.3,1.1-0.5c0.5-0.2,0.8-0.6,1-1.1c0.1-0.1,0.1-0.2,0.1-0.4v-0.2c0-0.4-0.2-0.8-0.5-1c-0.3-0.1-0.6-0.2-0.9-0.3 c-0.7-0.2-1.2-0.6-1.5-1.3c-0.2-0.4-0.3-0.7-0.5-1.1c-0.1-0.1-0.3-0.2-0.5-0.3c0,0,0,0,0,0c0-0.1-0.1-0.2-0.1-0.3 c-0.2-0.5-0.7-0.5-0.7,0.1c0,0.1,0,0.2,0.1,0.3c-0.4,0.1-0.9,0.4-1,0.8c-0.2,0.6,0,1.3,0.5,1.6c0.5,0.3,1.1,0.5,1.6,0.9 c0.4,0.3,0.6,0.8,0.5,1.3c-0.1,0.4-0.3,0.7-0.8,0.8c-0.4,0.1-0.8,0.1-1.2,0.2c-0.1,0-0.3,0.1-0.4,0.2c0-0.1-0.1-0.3-0.2-0.3 c-0.3-0.1-0.9-0.1-1.1,0.1c-0.3,0.3-0.6,0.9-0.5,1.3c0.1,0.4,0.6,0.6,1.1,1.1c0.1-0.2,0.2-0.3,0.3-0.5c0.1,0.4,0.3,0.8,0.7,1.1 c0.4,0.3,0.9,0.4,1.3,0.7c0.4,0.2,0.5,0.6,0.5,1C54.8,107.9,54.4,108.5,53.5,108.8z M54.6,101.2c0-0.5-0.2-0.8-0.5-0.8 c-0.3,0-0.4,0.2-0.4,0.7C53.9,102.1,54.6,102.2,54.6,101.2z M58.1,78.6c0,0,0.1,0.1,0.1,0.1v-3.3c-0.5-0.8-1.3-1-2.3-1 c-0.2,0.1-0.5,0.2-0.7,0.4c-0.5,0.7-0.1,2.3,0.7,2.6c0.7,0.2,1.3,0.5,1.8,0.9C57.6,78.5,57.8,78.7,58.1,78.6z M0.2,55.5 c0.2,0.8,0.6,1.5,1.2,2.1c0-0.1,0.1-0.1,0.1-0.2C1.6,56.5,1,55.7,0.2,55.5z M54.9,73.1c0.2-1.3-0.7-2.3-2.1-2.1 c-0.1,0.1-0.3,0.3-0.4,0.4c-0.2,1.1,0.4,2.1,1.6,2.4C54.3,73.9,54.8,73.5,54.9,73.1z M49.8,1.9c0.3-0.1,0.5-0.3,0.8-0.4 c0.4-0.3,0.6-0.7,0.7-1.2c-1.8,0.6-3.2,2.1-3.2,4.5v0.7c0,0,0.1,0,0.1-0.1c0.1-0.1,0.1-0.2,0.2-0.3c0.2-0.1,0.4-0.4,0.4-0.6 c0.1-0.4,0-0.8,0-1.2C49,2.7,49.3,2.2,49.8,1.9z M69.9,72.9c0.2,0,0.5-0.1,0.5-0.3c0-0.2-0.2-0.3-0.5-0.3s-0.5,0.1-0.5,0.3 C69.4,72.7,69.6,72.9,69.9,72.9z M84.3,58.3c-0.7-0.5-0.7-1.5-0.3-2.2c0.1,0.1,0.2,0.2,0.4,0.2c0.2,0,0.5-0.1,0.6-0.3 c0.1-0.2-0.1-0.3-0.4-0.3c-0.1,0-0.2,0-0.3,0c0.1-0.2,0.3-0.3,0.5-0.4c0.4-0.2,0.8-0.2,1.1-0.4c0.7-0.3,0.9-0.9,0.7-1.7 c0-0.2-0.2-0.4-0.3-0.5c-0.8-0.5-1.8-0.4-2.3,0.3c-0.3-0.2-0.5-0.4-0.7-0.4c-0.2,0-0.5,0.3-0.5,0.5c0,0.1,0.3,0.4,0.5,0.5 c0.1,0,0.3-0.1,0.5-0.3c-0.1,0.2-0.2,0.4-0.3,0.5c-0.3,0.3-0.5,0.6-0.9,0.8c-0.3,0.2-0.8,0.2-1.1,0.3c-0.5,0.2-0.8,0.6-0.9,1.1 c0,0.2,0,0.4-0.1,0.6c0,0.7,0.2,1.2,0.8,1.6c-0.2,0.3,0,0.4,0.6,0.4c0.1,0,0.2,0,0.3,0c0,0,0.1,0,0.1,0c0.1,0.1,0.3,0.2,0.4,0.3 h2.4C84.9,58.7,84.6,58.5,84.3,58.3z M80.8,58.3c0.1,0,0.1-0.1,0.1-0.3c0-0.2-0.1-0.3-0.3-0.3s-0.2,0.1-0.1,0.3 C80.6,58.2,80.7,58.3,80.8,58.3z M69.1,73.8c0-0.2-0.1-0.3-0.3-0.3s-0.4,0.1-0.5,0.3c-0.1,0.2,0,0.3,0.3,0.3 C68.9,74.1,69.1,74,69.1,73.8z M69.9,75.6c0.2,0,0.5-0.1,0.5-0.3c0-0.2-0.2-0.3-0.5-0.3s-0.5,0.1-0.5,0.3 C69.4,75.5,69.6,75.6,69.9,75.6z M84.6,50.6c0-0.1-0.1-0.2-0.3-0.3c-0.2-0.1-0.3,0-0.3,0.1c0,0.2,0.1,0.3,0.3,0.3 C84.4,50.8,84.6,50.7,84.6,50.6z M89.6,54.6c0.3-0.2,0.5-0.4,0.3-0.4c-0.5,0-1.2,0.5-1,0.7C88.9,54.9,89.2,54.8,89.6,54.6z M68.1,75.8c-0.1,0.3,0.1,0.7,0.3,0.7c0.5,0.1,1-0.2,1.1-0.8c-0.1-0.2-0.1-0.4-0.3-0.5C68.7,75,68.2,75.3,68.1,75.8z M90,53.7 c-0.1,0.5,0,1,0.3,1.4c0,0.1,0.1,0.2,0.2,0.2c0.8,0.2,1.6,0.1,2.2-0.4c0.1-0.1,0.1-0.3,0.2-0.6c-0.1-0.2-0.1-0.5-0.2-0.8 c-0.1-0.4-0.6-0.7-1-0.8c-0.1-0.1-0.4-0.1-0.7,0c-1,0.2-1.2,0.4-0.9,0.7c0,0,0,0,0,0C90.1,53.5,90,53.6,90,53.7z M87.8,57.1 c0.2,0.5,0.7,0.8,1.2,0.6c0.4-0.1,0.6-0.5,0.6-0.9c0-0.4-0.2-0.9-0.4-1c-0.2-0.1-0.8,0-1.1,0.2C87.8,56.3,87.7,56.7,87.8,57.1z M92.1,49.8c0-0.2-0.1-0.2-0.3-0.1c-0.2,0.1-0.3,0.2-0.3,0.3s0.1,0.1,0.3,0.1C92,50.2,92.1,50,92.1,49.8z M74.1,52.3 c0.1-0.2,0-0.4-0.3-0.5c-0.5-0.2-1.1,0.1-1.1,0.5C72.8,52.7,73.9,52.7,74.1,52.3z M22.5,19.6c-0.5,0.5-0.5,0.8,0.2,0.8 c0.4,0,0.6-0.2,0.6-0.6c0-0.3-0.1-0.6-0.2-0.6C23,19.3,22.7,19.4,22.5,19.6z M20.7,15.9c0,0.7,0.5,1.3,1.4,1.3 c0.2,0,0.4-0.1,0.7-0.1c-0.6-0.6-1.2-1.2-1.9-1.8C20.8,15.5,20.7,15.7,20.7,15.9z M56.7,1.7c-0.2,0.1-0.3,0.2-0.3,0.4 c0,0.2,0.1,0.3,0.3,0.4C56.9,2.6,57,2.4,57,2.1S56.9,1.7,56.7,1.7z M28.2,30.8c0,0.2,0.1,0.3,0.3,0.3c0.2,0,0.4-0.1,0.5-0.3 c0.1-0.2,0-0.3-0.3-0.3S28.2,30.6,28.2,30.8z M57,96.1c0.1,0,0.1,0,0.2,0c0.4,0,0.8-0.4,0.8-0.7c0.1-0.7-0.5-1.4-1.2-1.4 c-0.4,0-0.8,0.5-0.8,1.1c0,0.3,0.2,0.6,0.4,0.8c0,0,0,0,0,0c0,0.2,0.1,0.3,0.3,0.3C56.9,96.2,56.9,96.2,57,96.1z M77.1,39 c0.1,0,0.2-0.1,0.4-0.2c-0.1-0.1-0.2-0.2-0.4-0.2c0,0-0.1,0.1-0.2,0.1C76.9,38.8,77,38.9,77.1,39z M56.4,98.2 c-0.2,0.1-0.3,0.2-0.3,0.3s0.1,0.1,0.3,0.1c0.2,0,0.3-0.1,0.3-0.3C56.7,98.1,56.6,98.1,56.4,98.2z M16.7,22 c0.1-0.2-0.1-0.4-0.4-0.4c-0.3,0-0.5,0.2-0.5,0.5c0,0,0,0.1,0,0.1c0,0-0.1-0.1-0.1-0.1c-0.2,0-0.4,0.3-0.4,0.6 c0,0.1,0.2,0.2,0.2,0.2c0.1-0.1,0.3-0.2,0.4-0.3c0-0.1,0.1-0.1,0-0.2C16.1,22.6,16.5,22.5,16.7,22z M0.4,54.1 c0-0.2-0.1-0.3-0.3-0.3c0,0,0,0,0,0c0,0.2,0,0.4,0,0.6c0,0,0,0,0,0C0.2,54.4,0.4,54.3,0.4,54.1z"/></g></g></svg>