<?xml version="1.0" encoding="UTF-8"?><svg xmlns="http://www.w3.org/2000/svg" xmlns:xlink="http://www.w3.org/1999/xlink" contentScriptType="text/ecmascript" fill="#000000" width="153.4" zoomAndPan="magnify" contentStyleType="text/css" viewBox="0.0 0.0 153.4 153.4" height="153.4" preserveAspectRatio="xMidYMid meet" version="1"><g id="change1_1"><path fill="#99b0dc" d="M153.3824,76.6912v0.0001c0,11.9116-7.7725,22.0891-18.4938,25.7305 c4.5216,10.3807,2.2245,22.9789-6.586,30.9951c-7.6902,6.9969-18.3891,8.7245-27.5752,5.4085 c-4.5629,8.6348-13.6392,14.557-24.0362,14.557c-13.7554,0-25.2-10.363-26.9325-23.6658 c-11.6857,7.8693-27.7706,5.4636-36.5735-5.7997c-6.1293-7.8425-7.2354-18.0734-3.8151-26.752C3.6408,92.1743,0,84.8396,0,76.6912 c0-11.9116,7.7726-22.0891,18.4938-25.7305c-4.5217-10.3807-2.2245-22.979,6.586-30.9951 c7.6902-6.9969,18.3892-8.7245,27.5752-5.4085C57.2178,5.9223,66.2942,0,76.6912,0h0.0001c12.7386,0,23.4962,8.8879,26.3939,20.7671 c10.8085-4.0322,23.494-0.8436,30.9515,8.6983c5.324,6.8121,6.8554,15.4263,4.9263,23.2604 C147.5236,57.312,153.3824,66.3491,153.3824,76.6912z"/></g><g id="change2_1"><path fill="#fdfdfb" d="M103.5942,79.8921c-2.6191,6.2295-7.2422,10.7529-13.0146,12.7363c-2.334,0.8018-4.791,1.1826-7.2783,1.1826 c-9.9033,0-20.3018-6.0342-25.4219-15.5654c-3.1973-5.9512-3.8545-11.4287-1.9531-16.2812 c3.0176-7.7021,11.5566-11.6318,16.3779-13.2881c11.7451-4.0371,27.7988,0.1113,32.0596,12.5137 C106.3911,67.0904,106.1108,73.9068,103.5942,79.8921z"/></g></svg>