<?xml version="1.0" encoding="UTF-8"?><svg xmlns="http://www.w3.org/2000/svg" xmlns:xlink="http://www.w3.org/1999/xlink" contentScriptType="text/ecmascript" fill="#3f3a6d" width="227.4" zoomAndPan="magnify" contentStyleType="text/css" viewBox="-0.1 0.0 227.4 129.8" height="129.8" preserveAspectRatio="xMidYMid meet" version="1"><g fill="#99b0dc" id="change1_1"><path fill="inherit" d="M197.2,50.6c-1.1,0-2.4,0.8-2.5,2.1c-0.1,1.3-0.3,2.8-0.5,4.3c-0.2,1.3-0.5,2.6-1,4.2 c-0.7,2.2-1.5,4.4-2.2,6.2c-0.1,0.4-0.3,0.7-0.4,1.1c-0.3,0.8-0.6,1.6-1,2.4c-1.2,2.8-2.5,5.6-3.7,8.4c-0.5,1.1-0.9,2.2-1.3,3.2 l-0.2,0.4c-0.5,1.3-1,2.7-1.4,3.9c-0.2,0.7-0.5,1.4-0.7,2.2c-0.7-0.2-1.4-0.4-2-0.5c-0.7-0.2-1.4-0.3-2-0.5c-1-0.2-2-0.4-2.9-0.7 c-0.7-0.2-1.2-0.3-1.7-0.3c-0.1,0-0.2,0-0.3,0c-1.3,0-2.3,0.8-2.5,2.1c-0.2,0.8-0.1,1.5,0.1,2.1c0.2,0.7,0.6,1.3,1,1.8 c0.7,0.9,1.4,1.9,2.3,3c0.6,0.7,1.1,1.3,1.7,2l0.2,0.2c1.1,1.2,1.9,2.2,2.7,3.1c-0.7,0-1.3,0.1-2,0.2c-1.2,0.2-2.4,0.5-3.6,0.9 c-1.1,0.3-2.1,0.7-3.1,1.1l-0.2,0.1l-1.9,0.7c-1.1,0.4-2.2,0.8-3.3,1.2l-4.9,1.8c-1.7,0.6-3.4,1.1-4.7,1.5l-1.5,0.4 c-0.8,0.2-1.5,0.4-2.3,0.6c-0.6,0.2-1.1,0.8-1.4,1.3c-0.2,0.5-0.3,1.1-0.1,1.6c-0.1,0.2-0.2,0.4-0.2,0.7c-0.1,0.7,0.1,1.4,0.5,1.9 c0.4,0.6,1,0.8,1.6,1c2.5,0.7,5.2,1.3,7.9,1.9c1.3,0.3,2.7,0.6,4,0.9l1.1,0.3c0.8,0.2,1.7,0.4,2.5,0.6l0.6,0.1 c1.2,0.2,2.4,0.4,3.5,0.7c0.9,0.2,1.9,0.3,2.8,0.4c0.5,0.1,1,0.1,1.5,0.2c1,0.1,1.9,0.2,2.9,0.3c0.5,0,0.9,0.1,1.4,0.1 c1.1,0.1,2.2,0.2,3.4,0.3c5.8,0.5,11,1,16.2,1.8c3,0.5,6.1,0.9,9.1,1.4c0.6,0.1,1.3,0.2,1.9,0.3c1.7,0.3,3.5,0.6,5.2,0.8 c1.9,0.2,3.8,0.5,5.7,0.6c0.1,0,0.2,0,0.3,0c1.3,0,2.4-0.9,2.6-2.1c0.1-0.7-0.1-1.4-0.5-2c-0.4-0.5-1-0.8-1.6-0.9 c-0.7-0.1-1.4-0.1-2.1-0.2c0-1.6-0.2-3.3-0.4-4.8c-0.1-1-0.4-1.9-0.6-2.8l0-0.1c-0.2-0.9-0.4-1.9-0.7-2.8c-0.5-1.5-1-3-1.4-4.4 c-0.3-0.9-0.6-1.8-1-2.6c-0.2-0.4-0.3-0.8-0.5-1.1c-0.5-1.2-0.9-2.2-1.3-3.2c-0.6-1.5-1.3-3-2-4.5l-0.8-2.4c-0.6-1.7-1.1-3.4-1.6-5 c-0.2-0.8-0.5-1.6-0.7-2.4c-0.2-0.7-0.4-1.5-0.6-2.2c-0.1-0.3-0.2-0.7-0.3-1c-0.2-0.7-0.4-1.5-0.6-2.2l-0.3-1.1l-0.6-2.7l-0.6-2.7 c-0.1-0.5-0.2-1-0.3-1.5l-0.1-0.6c-0.3-1.3-0.5-2.6-0.8-3.9c-0.2-0.8-0.4-1.3-0.9-1.7c-0.3-0.3-0.7-0.4-1.2-0.5 c-0.1-0.8-0.3-1.6-0.5-2.4c-0.3-1.2-0.7-2.3-1.2-3.6l0.1-0.6l0.2-1.4l0.2-1.2c0.2-1.2-0.5-2.3-1.6-2.7c0.1-0.8-0.1-1.4-0.5-1.9 c-0.4-0.5-1-0.9-1.6-1C197.4,50.6,197.3,50.6,197.2,50.6L197.2,50.6L197.2,50.6z M180.8,95.1c-0.2-0.4-0.4-0.8-0.6-1.2l-0.1-0.2 l-0.1-0.2l0.5,0.1l0.5,0.1l-0.1,0.5l-0.1,0.5C180.8,94.9,180.8,95,180.8,95.1L180.8,95.1L180.8,95.1z M184.7,101.3 c-0.1-0.4-0.2-0.8-0.5-1.1c-0.3-0.4-0.6-0.8-0.9-1.2c0.4,0,0.8-0.2,1.2-0.5c0.5-0.4,0.8-0.9,1-1.6c0.1-0.5,0.2-0.9,0.3-1.4 C185.4,97.4,185,99.3,184.7,101.3L184.7,101.3L184.7,101.3z"/><path fill="inherit" d="M184,93.3c-0.5,0.2-1.2,0.7-1.3,1.3c-0.4,1.1-0.7,2.3-0.9,3.4c-0.2,1.1-0.4,2.3-0.7,3.4 c-0.3,1.3,0.8,2.6,2.1,2.8c1.4,0.2,2.6-0.8,2.9-2.1c0.3-1.5,0.6-3,0.9-4.5c0.1-0.4,0.2-0.7,0.3-1.1c0.2-0.7,0.3-1.3,0-1.9 c-0.2-0.6-0.7-1.1-1.3-1.4c-0.3-0.1-0.7-0.2-1-0.2C184.7,93.2,184.3,93.2,184,93.3L184,93.3L184,93.3z M186.9,97.9 c0,0.1-0.1,0.3-0.1,0.4C186.8,98.2,186.9,98.1,186.9,97.9L186.9,97.9L186.9,97.9z"/></g><g id="change2_1"><path fill="inherit" d="M196.6,49.2c-0.6,0.2-1.2,0.7-1.4,1.3c-2,5.7-4.1,11.3-6.2,16.9c-1.8,5-3.8,10-5.7,15.1c-0.5,1.3-1,2.5-1.4,3.8 c-0.2,0.6-0.5,1.2-0.7,1.8c-0.2,0.4-0.3,0.8-0.4,1.2c0,0.1,0,0.3,0,0.4c0,0.3-0.1,0.7,0,1c0,0.4,0.2,1,0.4,1.4 c0.2,0.6,0.6,1.1,0.9,1.6c1.6,2,3.5,3.6,5.4,5.2c1.4,1.2,2.8,2.4,4.2,3.6c4.2,3.6,8.4,7.2,12.7,10.7c2.8,2.3,5.7,4.6,8.5,6.9 c1.6,1.3,3.3,2.5,4.9,3.7c0.8,0.6,1.7,1.1,2.5,1.7c1,0.6,1.9,1.3,2.9,1.9c0.5,0.3,1.3,0.3,1.9,0.1c0.6-0.2,1.1-0.7,1.4-1.3 c0.3-0.6,0.3-1.3,0.1-1.9c-0.2-0.7-0.7-1.1-1.3-1.4c-0.8-0.5-1.6-1.1-2.5-1.6c0,0,0,0,0.1,0c-4.7-3.2-9-6.8-13.4-10.3 c-2.2-1.8-4.3-3.6-6.5-5.4c-2.1-1.8-4.2-3.6-6.3-5.4c-1.3-1.1-2.6-2.2-3.9-3.3c-2.3-1.9-4.6-3.8-6.7-6c-0.2-0.2-0.3-0.4-0.5-0.7 c0.5-1.1,0.9-2.3,1.3-3.4c0.5-1.4,1.1-2.8,1.6-4.2c0.9-2.4,1.8-4.8,2.7-7.1c2-5.2,3.9-10.5,5.8-15.7c0.9-2.3,1.7-4.6,2.5-6.9 c0.2-0.7,0.4-1.2,0.1-1.9c-0.2-0.6-0.7-1.1-1.3-1.4c-0.3-0.2-0.7-0.3-1.1-0.3C197.1,49.1,196.9,49.1,196.6,49.2L196.6,49.2 L196.6,49.2z M185.5,89.6c0,0.1,0,0.2,0.1,0.3C185.5,89.8,185.5,89.7,185.5,89.6L185.5,89.6L185.5,89.6z M185.7,89.8 C185.6,89.9,185.6,89.9,185.7,89.8C185.6,89.9,185.6,89.9,185.7,89.8L185.7,89.8L185.7,89.8z M185.6,90.2c0,0,0,0.1,0.1,0.1 C185.7,90.3,185.6,90.3,185.6,90.2L185.6,90.2L185.6,90.2z M185.5,90.3c0,0.1,0,0.2,0,0.2C185.5,90.5,185.5,90.4,185.5,90.3 L185.5,90.3L185.5,90.3z"/><path fill="inherit" d="M197.2,47.6c-1.3,0.4-2,1.9-1.6,3.2c3.6,10.6,7.1,21.3,10.7,31.9c1.7,5.2,3.5,10.4,5.3,15.6c1.8,5.3,3.8,10.6,5.9,15.9 c1.3,3.3,2.9,6.6,4.1,10c0.5,1.3,1.9,2,3.2,1.6c1.3-0.4,2-1.9,1.6-3.2c-0.9-2.5-2-4.8-3-7.2c-1-2.5-2-5-3-7.5 c-1.9-4.9-3.6-9.9-5.3-15c-3.6-10.7-7.2-21.5-10.8-32.2c-1.3-3.8-2.6-7.7-3.9-11.5c-0.3-1-1.3-1.7-2.4-1.7 C197.7,47.5,197.4,47.6,197.2,47.6L197.2,47.6L197.2,47.6z"/><path fill="inherit" d="M182.6,87.6c-0.6,0-1.3,0.3-1.7,0.9c-2,2.9-4.1,5.7-6.3,8.4c-0.9,1.1-0.8,2.6,0.3,3.5c1,0.9,2.7,0.8,3.5-0.3 c2.2-2.7,4.3-5.6,6.3-8.4c0.4-0.6,0.7-1.1,0.6-1.8c0-0.7-0.4-1.3-0.9-1.7c-0.5-0.4-1-0.6-1.6-0.6C182.7,87.6,182.6,87.6,182.6,87.6 L182.6,87.6L182.6,87.6z"/><path fill="inherit" d="M176.4,98c-0.7,0-1.3,0.4-1.7,0.9c-0.4,0.5-0.6,1.2-0.6,1.8c0,0.6,0.3,1.4,0.9,1.7c0.8,0.5,1.6,1,2.4,1.5 c0.6,0.4,1.2,0.8,1.8,1.1c1.3,0.7,2.7,1.4,4,2.1c1.3,0.7,2.6,1.2,3.9,1.8c0.9,0.4,1.9,0.9,2.8,1.3c5.3,2.5,10.7,5,16,7.6 c2.7,1.3,5.4,2.6,8.1,3.9c2.9,1.3,5.8,2.5,8.7,3.6c0.6,0.2,1.2,0.3,1.9,0.1c0.6-0.2,1.2-0.7,1.4-1.3c0.6-1.2,0.1-2.8-1.2-3.3 c-2.6-1-5.2-2.1-7.8-3.2c-2.6-1.1-5.2-2.4-7.8-3.7c-4.6-2.3-9.3-4.5-14-6.7c-3.1-1.4-6.1-2.9-9.2-4.3c-1.3-0.6-2.7-1.3-4-2 c-1.2-0.6-2.2-1.3-3.3-2c-0.2-0.1-0.3-0.2-0.5-0.3c-0.5-0.4-1-0.6-1.6-0.6C176.5,98,176.5,98,176.4,98L176.4,98L176.4,98z"/><path fill="inherit" d="M176.5,97.2c-5.6,2.1-11.3,4.1-17,6.2c-1.3,0.5-2.6,1-3.8,1.4c-1.3,0.5-2.7,1-4,1.5c-2.6,0.8-5.2,1.6-7.7,2.5 c-0.4,0.1-0.7,0.2-1.1,0.4c-0.4,0.1-0.8,0.3-1.1,0.5c-0.3,0.2-0.7,0.6-0.9,0.9c-0.4,0.5-0.7,1.1-0.6,1.8c0,0.6,0.4,1.3,0.9,1.7 c0.7,0.6,1.4,1.1,2.2,1.5s1.7,0.7,2.6,0.9c1.9,0.6,3.7,1,5.6,1.4c1.8,0.4,3.5,0.7,5.3,1c2.6,0.5,5.3,1,7.9,1.4 c2.6,0.4,5.3,0.9,7.9,1.3c2.9,0.4,5.8,0.8,8.6,1.2c5.9,0.8,11.8,1.7,17.7,2.5c5.1,0.7,10.2,1.4,15.3,2.3c1.7,0.3,3.4,0.6,5.1,0.9 c1.5,0.3,3,0.5,4.5,0.9c1.3,0.4,2.7-0.7,2.9-2c0.1-0.6,0-1.3-0.4-1.8c-0.4-0.6-1-0.9-1.6-1.1c-1.4-0.4-2.8-0.6-4.3-0.9 c-1.2-0.2-2.4-0.4-3.5-0.6c-2.8-0.5-5.6-1-8.4-1.4c-2.5-0.4-5.1-0.7-7.6-1.1c-3-0.4-6-0.9-9-1.3c-5.6-0.8-11.2-1.6-16.8-2.3 c-5.2-0.7-10.3-1.6-15.5-2.5c-3.5-0.6-7-1.2-10.4-2.1c1-0.3,2-0.6,2.9-1c2.5-0.8,4.9-1.7,7.3-2.7c5.3-2,10.6-3.8,15.9-5.8 c0.9-0.3,1.8-0.7,2.6-1c1.3-0.5,2-1.9,1.6-3.2c-0.3-1-1.3-1.7-2.4-1.7C177.1,97.1,176.8,97.1,176.5,97.2L176.5,97.2L176.5,97.2z"/><path fill="inherit" d="M165.4,82.8c-0.4,0.3-0.7,0.8-0.7,1.3c0,0.1,0,0.2,0,0.3c-0.1,0.4-0.1,0.9,0.1,1.3c0.3,1.3,1,2.6,1.7,3.7 c0.7,1.2,1.3,2.4,2,3.6c1.3,2.2,2.6,4.4,4,6.6c0.7,1.2,2.3,1.5,3.5,0.7c1.2-0.8,1.4-2.3,0.7-3.5c-1.8-2.9-3.6-5.8-5.2-8.8 c1,0.3,2,0.6,2.9,0.9c1.3,0.4,2.7,0.7,4,1c1.4,0.3,2.9,0.6,4.4,0.8c1.3,0.2,2.7-0.6,2.9-2c0.3-1.3-0.6-2.7-2-2.9 c-0.8-0.1-1.7-0.3-2.5-0.4c-0.6-0.1-1.1-0.2-1.7-0.3c-1.3-0.3-2.6-0.6-3.9-1c-2.4-0.7-4.9-1.4-7.3-2.1c-0.2-0.1-0.4-0.1-0.6-0.1 C166.8,81.9,166,82.3,165.4,82.8L165.4,82.8L165.4,82.8z"/><path fill="inherit" d="M0.8,2.3C0.6,3.9,0.5,5.4,0.3,7C0.1,9.6-0.1,12.2,0,14.8c1.7-0.4,3.3-0.8,5-1.3c0-2.1,0.2-4.3,0.4-6.4 c0.1-1.4,0.2-2.9,0.4-4.3C5.9,1.4,4.8,0.1,3.5,0C3.4,0,3.3,0,3.2,0C2,0,0.9,1,0.8,2.3L0.8,2.3L0.8,2.3z"/><path fill="inherit" d="M0.4,18.3c0.3,1.3,0.7,2.7,1.1,4c0.6,2,1.3,4.1,2,6C4.2,30.2,5,32,5.9,33.8c0.3-0.1,0.5-0.2,0.8-0.2 c0.7-0.2,1.4-0.4,2.1-0.6c0.6-0.2,1.2-0.3,1.7-0.4c0.1,0,0.2-0.1,0.4-0.1c-0.5-0.9-0.9-1.8-1.4-2.7c-1.2-2.4-2.1-4.9-2.9-7.5 c0.1,0.2,0.1,0.4,0.2,0.6C6.2,20.9,5.6,19,5.3,17C3.6,17.5,2,17.9,0.4,18.3L0.4,18.3L0.4,18.3z"/><path fill="inherit" d="M12.4,35.6c-0.9,0.2-1.9,0.4-2.8,0.7c-0.6,0.2-1.3,0.4-1.9,0.6C8,37.4,8.4,38,8.7,38.5c2,3.2,4.3,6.3,6.9,9 c1.2,1.3,2.5,2.5,3.9,3.6c0.6-0.6,1.2-1.3,1.8-1.9c0.5-0.6,1.1-1.2,1.5-1.8c0,0,0,0,0,0c-0.6-0.5-1.2-1-1.8-1.5 c-3-2.9-5.6-6.2-7.9-9.6c-0.1-0.2-0.3-0.4-0.4-0.7C12.6,35.6,12.5,35.6,12.4,35.6L12.4,35.6L12.4,35.6z"/><path fill="inherit" d="M89.1,40c-1.8,0.2-3.6,0.4-5.4,0.7c-1.8,0.3-3.6,0.9-5.4,1.5c0.8,1.5,1.5,3,2.3,4.5c0.3-0.1,0.6-0.2,0.9-0.3 c2-0.6,4.1-1,6.2-1.2c2.1-0.3,4.3-0.5,6.4-0.6c0,0,0.1,0,0.1,0c0,0,0.1,0,0.1,0c1,0,2,0,3.1,0c0-0.2,0-0.4,0-0.6c0-0.7,0-1.4,0-2.2 c0-0.7-0.1-1.5-0.1-2.2c0,0,0,0-0.1,0C94.6,39.5,91.8,39.7,89.1,40L89.1,40L89.1,40z M94.6,44.6c-0.1,0-0.2,0-0.3,0 C94.5,44.6,94.5,44.6,94.6,44.6L94.6,44.6L94.6,44.6z"/><path fill="inherit" d="M100.9,40.7c0.1,1.2,0.1,2.4,0,3.5c0,0.1,0,0.3,0,0.4c1.3,0.1,2.6,0.2,3.9,0.3c3.6,0.3,7.3,0.9,10.8,1.7 c0.4,0.1,0.9,0.2,1.3,0.3c0.1-0.2,0.1-0.4,0.2-0.7c0.3-0.8,0.6-1.7,0.9-2.5c0.2-0.5,0.4-1,0.5-1.5c-5.7-1.5-11.6-2.3-17.5-2.6 c-0.1,0-0.2,0-0.3,0C100.8,40,100.9,40.4,100.9,40.7L100.9,40.7L100.9,40.7z"/><path fill="inherit" d="M121.6,44.3c-0.4,1.2-0.9,2.4-1.3,3.7c3.9,1.3,7.7,2.9,11.3,4.8c1.1,0.6,2.1,1.2,3.1,1.8c0.4-0.5,0.7-1,1.1-1.5 c0.6-0.9,1.2-1.7,1.8-2.6c-0.8-0.5-1.7-1-2.5-1.4c-3.5-1.9-7.1-3.5-10.8-4.9c-0.8-0.3-1.5-0.5-2.3-0.8 C121.8,43.6,121.7,43.9,121.6,44.3L121.6,44.3L121.6,44.3z"/><path fill="inherit" d="M138.6,55c-0.3,0.5-0.6,0.9-1,1.4c0.5,0.3,1,0.7,1.5,1c2.4,1.7,4.7,3.6,6.9,5.7c1.9,1.8,3.7,3.6,5.5,5.6 c0.1-0.1,0.2-0.2,0.3-0.3c0.7-0.8,1.4-1.6,2.2-2.3c0.4-0.3,0.7-0.7,1-1c-0.6-0.7-1.3-1.3-1.9-2c-1.3-1.4-2.7-2.7-4.2-4 c-1.4-1.3-2.9-2.6-4.5-3.8c-1.3-1-2.7-2-4.1-2.9C139.9,53.1,139.3,54.1,138.6,55L138.6,55L138.6,55z"/><path fill="inherit" d="M155.8,69.1C155.8,69.1,155.8,69.1,155.8,69.1c-0.6,0.7-1.2,1.3-1.8,2c1.2,1.3,2.3,2.6,3.5,3.9c0.9,1,2.5,1.2,3.5,0.3 c1-0.9,1.2-2.5,0.3-3.5c-1.3-1.4-2.5-2.9-3.8-4.3C156.9,68.1,156.3,68.6,155.8,69.1L155.8,69.1L155.8,69.1z"/><path fill="inherit" d="M69,48.2c-1.2,1.3-2.1,2.8-2.9,4.4c-0.8,1.6-1.3,3.2-1.7,4.8c-0.7,0-1.5,0-2.2,0c0.3,1.6,0.6,3.3,0.6,5c0.4,0,0.8,0,1.1,0 c0,0.4,0,0.7,0,1.1c0,0.5,0.1,0.9,0.1,1.4c0.1,0,0.3,0,0.4,0c1.2-0.1,2.3-0.2,3.5-0.2c0.4,0,0.7,0,1.1,0c-0.1-0.5-0.1-1.1-0.2-1.7 c0-0.1,0-0.3,0-0.4c2.6,0,5.3,0.1,7.9,0.3c1.3,0.1,2.5,0.3,3.8,0.4c0-0.9,0-1.8,0-2.7c0-0.6,0.1-1.2,0.1-1.8c0-0.2,0-0.3,0-0.5 c-1.5-0.2-2.9-0.4-4.4-0.5c-1.8-0.1-3.5-0.2-5.3-0.2c-0.5,0-1,0-1.6,0c0.3-1,0.7-2,1.2-3c0.6-1.2,1.4-2.3,2.2-3.3 c0.8-0.8,1.7-1.5,2.6-2.1c0.6-0.4,1.3-0.7,2-1.1c-0.8-1.5-1.5-3-2.3-4.5C72.9,44.7,70.7,46.2,69,48.2L69,48.2L69,48.2z"/><path fill="inherit" d="M67.9,68.1c-1.1,0.1-2.2,0.2-3.3,0.3c0.1,0.2,0.1,0.5,0.2,0.7c0.5,1.8,1.2,3.5,2,5.2c0.9,1.7,2,3.3,3.2,4.7 c1.1,1.3,2.3,2.4,3.6,3.5c0.5-0.9,1-1.7,1.5-2.6c0.3-0.6,0.6-1.3,1-1.9c0,0-0.1,0-0.1-0.1c-1.5-1.4-2.8-2.9-4-4.6 c-0.9-1.5-1.6-3.1-2.2-4.8c0-0.1-0.1-0.3-0.1-0.4C69.1,68,68.5,68.1,67.9,68.1L67.9,68.1L67.9,68.1z"/><path fill="inherit" d="M78,81.8c-0.5,0.9-1,1.8-1.6,2.7c0.7,0.4,1.4,0.8,2.1,1.2c3.4,1.8,7,3.1,10.8,3.9c0.8,0.2,1.6,0.3,2.5,0.3 c-0.3-0.9-0.6-1.9-0.9-2.8c-0.2-0.7-0.4-1.4-0.5-2.1c0-0.1,0-0.2-0.1-0.3c-0.5-0.1-1-0.2-1.4-0.3c-2.7-0.7-5.3-1.7-7.8-3 c-0.8-0.4-1.5-0.9-2.3-1.4C78.6,80.7,78.3,81.3,78,81.8L78,81.8L78,81.8z"/><path fill="inherit" d="M100.7,75.9c0.1,0.6,0.2,1.2,0.3,1.8c0,0.8-0.1,1.6-0.2,2.4c-0.2,0.6-0.4,1.2-0.6,1.7c-0.2,0.4-0.5,0.7-0.8,1.1 c-0.5,0.5-1,0.9-1.6,1.3c-0.4,0.2-0.8,0.4-1.2,0.6c-0.5,0.1-1,0.2-1.5,0.2c-0.1,0-0.3,0-0.4,0c-0.2,0-0.4,0-0.6,0 c0,0.2,0.1,0.4,0.1,0.6c0.1,0.5,0.3,1,0.4,1.5c0.1,0.5,0.3,1,0.4,1.5c0.2,0.5,0.3,0.9,0.5,1.4c0.6,0,1.3-0.1,1.9-0.2 c1-0.2,1.9-0.6,2.8-1.2c1.5-0.9,2.8-2.1,3.9-3.6c1.1-1.5,1.6-3.4,1.8-5.1c0.3-1.6,0.1-3.3-0.2-4.9 C103.9,75.3,102.3,75.6,100.7,75.9L100.7,75.9L100.7,75.9z"/><path fill="inherit" d="M84.2,59.1c0,0.6-0.1,1.2-0.1,1.8c0,1,0,1.9,0,2.9c0.8,0.1,1.5,0.3,2.2,0.4c1.2,0.3,2.4,0.6,3.5,1.1c1,0.4,2,0.8,2.9,1.3 c1.5,0.8,3,1.8,4.3,2.9c0.7,0.7,1.3,1.4,1.9,2.2c0.2,0.3,0.3,0.6,0.5,0.9c1.7-0.3,3.4-0.6,5.1-1c0-0.1-0.1-0.2-0.1-0.2 c-0.6-1.4-1.5-2.7-2.4-3.9c-0.9-1.2-2.2-2.2-3.4-3.1c-1.2-0.9-2.4-1.6-3.7-2.3c-1.4-0.7-2.7-1.3-4.2-1.8c-2.1-0.7-4.3-1.2-6.5-1.6 C84.2,58.9,84.2,59,84.2,59.1L84.2,59.1L84.2,59.1z"/><path fill="inherit" d="M45.7,59c-0.1,0.9-0.3,1.7-0.5,2.6c0.2,0,0.5,0.1,0.7,0.1c3.3,0.4,6.6,0.7,10,0.7c1.1,0,2.2,0,3.3,0c0-0.2,0-0.3,0-0.5 c-0.1-1.5-0.3-3-0.6-4.5c-2.8,0-5.6-0.1-8.4-0.3c-1.3-0.1-2.7-0.3-4-0.4C46,57.4,45.9,58.2,45.7,59L45.7,59L45.7,59z"/><path fill="inherit" d="M24.5,50.9c-0.7,0.8-1.4,1.6-2.2,2.4c0.7,0.5,1.3,0.9,2,1.3c5.3,3.3,11.4,5.3,17.5,6.5c0.1-0.8,0.3-1.6,0.4-2.4 c0.1-0.8,0.3-1.7,0.4-2.5c-0.8-0.1-1.6-0.3-2.3-0.5c-3.8-0.9-7.6-2.2-11.1-4c-1.2-0.7-2.4-1.4-3.6-2.2C25.3,50,24.9,50.4,24.5,50.9 L24.5,50.9L24.5,50.9z"/><path fill="inherit" d="M94.3,44.6C94.2,44.6,94.2,44.6,94.3,44.6C94.2,44.6,94.3,44.6,94.3,44.6C94.3,44.6,94.3,44.6,94.3,44.6L94.3,44.6 L94.3,44.6z"/><path fill="inherit" d="M222.4,119.5c-1.3,0.4-2.1,1.8-1.7,3.1c0.3,0.7,0.5,1.5,0.7,2.2c0.1,0.2,0.1,0.3,0.2,0.5c0.1,0.6,0.2,1.1,0.4,1.7 c0.3,0.9,1,1.5,1.8,1.7c0.1,0,0.1,0,0.2,0c0.2,0.1,0.5,0.1,0.7,0.1c0.2,0,0.4,0,0.6-0.1c1.1-0.3,2-1.3,1.9-2.5 c0-0.9-0.3-1.8-0.6-2.6c0-0.1-0.1-0.2-0.1-0.3c-0.2-0.5-0.3-1.1-0.6-1.6c0-0.1-0.1-0.1-0.1-0.2c-0.1-0.1-0.2-0.3-0.2-0.4 c0-0.1-0.1-0.2-0.1-0.2c0,0,0,0,0,0c-0.4-0.9-1.3-1.5-2.3-1.5C222.9,119.4,222.6,119.5,222.4,119.5L222.4,119.5L222.4,119.5z"/></g></svg>