<?xml version="1.0" encoding="UTF-8"?><svg xmlns="http://www.w3.org/2000/svg" xmlns:xlink="http://www.w3.org/1999/xlink" contentScriptType="text/ecmascript" fill="#000000" width="474.7" zoomAndPan="magnify" contentStyleType="text/css" viewBox="-1.4 -0.0 474.7 238.1" height="238.1" preserveAspectRatio="xMidYMid meet" version="1"><g id="change1_1"><path fill="#f59921" d="M441.57,235.62c-2.75,0-4.16-7.92-4.84-11.73c-0.26-1.47-0.47-2.64-0.69-3.25 c-0.86-2.6-21.23-121.65-22.57-130.56l-0.09-0.61l-1.28,0.03c-0.94,0.04-1.89,0.1-2.83,0.16c-0.97,0.07-1.93,0.15-2.9,0.23 c-2.56,0.21-5.2,0.43-7.79,0.43c-0.33,0-0.67,0-1-0.01l-1.18,0.06l-0.07,0.58c-0.05,0.43-0.09,0.9-0.13,1.38l-0.05,0.59 c-0.28,3.15-0.58,6.3-0.88,9.44c-0.39,4.14-0.8,8.42-1.15,12.64c-0.24,2.91-0.61,6.39-0.96,9.76c-0.22,2.13-0.44,4.2-0.62,6.03 c-0.93,9.64-4.41,44.3-5,46.19c-0.25,0.79-0.97,1.28-1.9,1.28c-1.21-0.04-1.82-1.37-2.09-2.16c-0.43-1.27-0.75-3.26-1.16-7.09 c-0.67-6.38-0.65-12.4-0.63-18.79c0.01-3.27,0.02-6.66-0.07-10.07l-0.16-5.84c-0.32-11.46-0.66-23.31-0.36-34.97 c0.03-1.07,0.09-6.42,0.12-8.32l0.01-0.7l-8.96-0.15c-1.01-0.02-2.01-0.03-3.02-0.03l-0.74,0c-2.71-0.01-5.51-0.01-8.23-0.26 c-4.88-0.45-9.84-0.48-14.63-0.51c-3.54-0.02-7.19-0.05-10.78-0.24c-10.02-0.53-20.86-0.79-33.13-0.79 c-11.5,0-23.06,0.22-33.92,0.45c-8.56,0.18-21.29,0.27-37.83,0.27c-35.01,0-80.96-0.41-111.36-0.68c-9.23-0.08-17.2-0.15-23.24-0.2 l-0.71-0.01l0,0.71c0.02,3.03-0.02,6.75-0.07,10.7c-0.08,6.82-0.17,14.55,0.07,19.93c0.42,9.03,0.14,35.73-0.1,42.97l-0.03,1.05 c-0.2,6.31-0.42,13.46-2.83,13.85c-0.12,0.02-0.24,0.03-0.35,0.03c-2.55,0-3.2-5.35-3.48-7.64c-0.44-3.61-0.83-7.29-1.21-10.84 c-0.4-3.73-0.81-7.58-1.27-11.37c-1.01-8.28-1.75-15.73-2.26-22.77c-0.68-9.49-1.34-17.46-2.31-25.48 c-0.17-1.44-0.27-2.92-0.36-4.36c-0.13-2.02-0.26-4.11-0.62-6.16l-0.11-0.61l-0.62,0.04c-0.54,0.03-1.34,0.05-2.37,0.05 c-3.46,0-8.92-0.17-12.91-0.3c-2.36-0.08-4.23-0.13-4.93-0.13l-2.58-0.2l-0.11,0.63c-1.14,6.54-3.08,17.33-3.76,20.3 c-0.67,2.89-2.39,12.15-3.9,20.32c-1.22,6.57-2.38,12.78-2.84,14.95c-0.81,3.78-8.43,41.5-10.68,53.93 c-2.64,14.6-8.63,36.68-11.63,36.68c-0.03,0-0.07-0.01-0.1-0.02c-1.31-0.46-2.58-1.44-2.56-7.9c0.02-4.88,1-14.21,1.42-18.19 l0.15-1.43c1-10,4.81-41.78,7.05-58.2c1.02-7.46,6.86-58.02,7.19-61.77l0.1-1.06l-0.64-0.12c-1.03-0.19-1.98-0.31-2.9-0.43 c-0.81-0.11-1.61-0.21-2.43-0.35c-5.11-0.89-10.58-1.99-15.88-3.96C9.45,79.06,5.55,75.73,2.97,70.9 c-3.48-6.54-2.09-14.7-1.42-16.19c1.57-5.36,10.56-12.44,12.15-13.52c0.56-0.44,10.13-6.66,12.14-7.96c0.34-0.24,0.77-0.5,1.17-0.74 c0.45-0.27,0.84-0.51,1.07-0.69c0.38-0.28,5.56-3.44,6.71-4.1c1.05-0.6,2.1-1.21,3.16-1.8c2.31-1.3,4.35-2.4,6.24-3.36l0.14-0.07 c1.08-0.54,2.16-1.07,3.26-1.58l2.94-1.64c8.12-4.49,16.72-7.49,24.8-10.06c6.39-2.04,13.32-3.61,21.83-4.95 c7.09-1.12,14.34-1.68,21.58-1.68c2.87,0,5.78,0.09,8.66,0.26c4.08,0.25,8.23,0.34,12.25,0.43c2.01,0.04,4.01,0.09,6.01,0.15 c3.35,0.1,6.69,0.25,10.04,0.39c6.33,0.27,12.88,0.56,19.32,0.56c0.82,0,1.63,0,2.45-0.01c13.06-0.15,26.34-0.56,39.18-0.96 c5.63-0.17,11.27-0.35,16.9-0.5c4.33-0.12,8.74-0.3,13-0.47c7.42-0.3,15.1-0.61,22.64-0.61c1.65,0,3.3,0.01,4.95,0.05 c0.51,0.01,1.02,0.03,1.53,0.06l0.71,0.03l9.87-0.01c1.08-0.02,2.15-0.03,3.22-0.03c2.65,0,5.34,0.06,7.94,0.12 c2.61,0.06,5.31,0.12,7.96,0.12c0.58,0,1.17,0,1.75-0.01c6.84-0.08,13.78-0.41,20.5-0.74c4-0.19,8.14-0.39,12.21-0.54 c2.59-0.09,5.29-0.14,8.24-0.14c2.13,0,4.27,0.02,6.4,0.06c1.89,0.03,3.78,0.09,5.67,0.16c2.03,0.08,4.06,0.18,6.08,0.3 c3.47,0.2,7.03,0.46,10.91,0.78l7.75,0.8l0,0.17l0.42,0c0.78,0,1.5,0.04,2.2,0.11c3.5,0.32,7.07,0.5,10.51,0.67 c6.32,0.32,12.85,0.65,19.18,1.84c5.15,0.97,10.16,3.45,15.31,7.58c8.89,7.13,17.77,15.91,27.95,27.64 c0.42,0.48,0.82,0.98,1.22,1.48c1.21,1.55,2.26,3.18,3.13,4.84c0,0.02,0.02,0.07,0.56,0.9h-0.01l0.71,1.09 c0.03,0.04,0.06,0.1,0.11,0.2l1.79,3.05l0.09,0.08c1.51,1.25,1.97,3.06,2.46,4.97l0.1,0.39c1.92,7.41-1.61,15.72-8.38,19.76 c-3.79,2.26-7.54,4.39-11.66,5.54c-2.07,0.58-9.29,2.13-17.34,3.62l-0.63,0.12l0.06,0.64c2.27,24.35,9.29,104.77,9.98,120.3 c0.26,5.88,0.67,10.65,1,14.48c0.72,8.47,1.05,12.34-1.46,13.27C441.99,235.58,441.77,235.62,441.57,235.62L441.57,235.62z"/></g><g id="change2_1"><path fill="#3f3a6d" d="M95.47,88.92c0.06,8.4-0.38,22.21,0,30.6c0.43,9.27,0.13,36.18-0.1,43.02c-0.24,7.53-0.33,15.07-3.45,15.57 c-3.56,0.57-4.3-5.52-4.63-8.22c-0.9-7.39-1.57-14.82-2.48-22.21c-0.93-7.58-1.72-15.18-2.26-22.8c-0.61-8.5-1.28-17-2.3-25.45 c-0.42-3.49-0.36-7.01-0.97-10.48c1.5-0.03,3-0.06,4.51-0.09C89.94,88.77,95.46,87.74,95.47,88.92z M392.35,90.56 c-3.34-0.04-8.41-0.12-11.74-0.2c0,0-0.09,7.68-0.13,8.99c-0.35,13.62,0.16,27.23,0.52,40.84c0.26,9.85-0.34,19.11,0.7,28.92 c0.39,3.69,0.72,5.85,1.19,7.24c0.4,1.18,1.21,2.59,2.65,2.63c1.28,0.04,2.32-0.67,2.67-1.78c0.63-2.04,4.27-38.57,5.02-46.33 c0.46-4.74,1.19-11.06,1.58-15.81c0.62-7.37,1.38-14.72,2.03-22.08c0.08-0.94,0.13-1.91,0.29-2.62 C397.41,89.96,394.09,90.58,392.35,90.56z M42.77,83.36c-1.09-0.08-4.62-0.63-6.35-0.78c0.01-0.08-0.36,3.38-0.45,4.36 c-0.31,3.54-6.13,53.98-7.18,61.73c-2.18,15.99-6.03,47.93-7.06,58.22c-0.25,2.48-1.55,14.02-1.57,19.69 c-0.02,6.3,1.18,7.91,3.03,8.56c4.43,1.54,11.16-28.97,12.65-37.2c2.23-12.35,9.8-49.82,10.68-53.91c1.06-4.93,5.56-30.1,6.75-35.26 c0.91-3.95,4.03-21.66,4.44-24.28C52.29,84.07,48.19,83.73,42.77,83.36z M412.71,89.68c0.46,3.92,21.8,128.71,22.67,131.2 c0.89,2.53,1.97,17.17,7.07,15.28c4.3-1.59,1.79-8.8,0.92-28.44c-0.72-16.11-8.19-101.45-10.16-122.23 C425.97,86.78,420.04,89.02,412.71,89.68z"/></g><g id="change3_1"><path fill="#f4c799" d="M17.45,62.47c7.46,2.07,15.11,2.92,22.82,3.48c13.84,1.01,27.71,1.05,41.56,1.54 c15.55,0.56,31.1,1.15,46.64,1.88c15.48,0.73,30.95,1.45,46.44,1.94c15.62,0.49,31.23,0.92,46.86,1.18c12.86,0.21,25.7,0,38.54-0.73 c8.7-0.49,17.43-0.79,26.13-1.36c9.22-0.6,18.62,5.22,27.83,4.69c15.04-0.87,29.75,0.32,44.81,0.03c7.78-0.15,16.49,0.14,24.27,0.04 c7.78-0.1,23.02,3.68,23.02-1.15c0.88-0.01,4.6,0.07,4.84,0.08c0.26-0.01,1.23-0.72,1.49-0.73c1.53,0.01,12.35-3.42,13.87-3.41 c-1.72-0.53-14.25-2.86-16.02-3.13c-0.63-0.1-1.26-0.19-1.89-0.27c-0.96-0.12-1.93-0.23-2.89-0.35c-0.48-0.06-0.96-0.12-1.44-0.18 c-8.33-1.08-16.67-2.11-25.02-2.94c-7.11-0.71-14.24-1.13-21.37-1.64c-11.95-0.87-23.91-1.32-35.89-1.62 c-3.07-0.08-6.14-0.18-9.21-0.27c-14.18-0.42-28.37-0.45-42.56-0.32c-9.41,0.08-18.82,0.36-28.22,0.79 c-8.89,0.4-17.79,0.78-26.69,0.99c-0.83,0.02-2.33,0.47-2.32-0.77c0.01-1.21,1.5-0.7,2.34-0.74c11.65-0.5,23.31-1.01,34.96-1.41 c5.58-0.19,11.17-0.29,16.75-0.37c11.61-0.16,23.23-0.14,34.85-0.01c10.35,0.12,20.7,0.37,31.05,0.76 c9.46,0.36,18.92,0.83,28.36,1.52c18.57,1.36,37.08,3.33,55.48,6.25c2.9,0.46,5.85,0.67,8.67,1.6c7.74,0.41,15.3-1.03,22.85-2.4 c3.46-0.63,6.76-1.81,10-3.15c1.03-0.43,1.98-0.97,2.85-1.61c0.87-0.64,1.67-1.38,2.41-2.2c-0.95-0.31-1.9-0.58-2.86-0.83 c-1.81-0.47-3.63-0.85-5.47-1.21c-1.68-0.33-3.37-0.64-5.05-0.98c-15.61-3.18-31.32-5.79-47.12-7.81 c-8.95-1.15-17.92-2.09-26.92-2.83c-9.18-0.75-18.37-1.4-27.57-1.89c-9.02-0.48-18.03-0.82-27.05-1.14 c-15.62-0.56-31.24-0.49-46.86-0.8c-21.78-0.43-43.56-0.21-65.34-0.2c-9.29,0.01-18.58,0.39-27.86,0.18 c-18.14-0.43-36.28,0.03-54.42-0.38c-17.2-0.4-34.39-0.31-51.59-0.22c-8.91,0.05-17.83,0.01-26.72,0.42 c-8.34,0.38-16.69,0.09-25.03,0.4c-3.44,0.13-7.02,0.33-10.47-0.58c-0.87,0.6-10.72,8.06-12.4,13.82c0.64,0.09,1.22,0.32,1.67,0.79 C6.68,59.41,12.06,60.97,17.45,62.47z M181.81,60.26c-2.94,0.02-5.88,0.01-8.82,0.01c-1.51,0.44-3,0.29-4.49,0.01 c-0.49-0.09-1.09-0.11-1.07-0.79c0.02-0.7,0.62-0.76,1.11-0.68c4.44,0.8,8.88-0.33,13.31-0.06c0.58,0.04,1.46-0.15,1.43,0.75 C183.27,60.34,182.41,60.26,181.81,60.26z M72.38,54.48c0.16-0.63,0.74-0.51,1.26-0.46c4.56,0.43,9.13,0.71,13.71,0.52 c8.76-0.36,17.53-0.66,26.28-1.37c4.56-0.37,9.13-0.54,13.7-0.83c7.5-0.47,15-0.98,22.51-1.44c4.82-0.3,9.63-0.54,14.45-0.81 c8.63-0.48,17.26-0.99,25.9-1.44c2.75-0.14,5.51-0.29,8.26-0.36c8.59-0.24,17.16-0.73,25.75-0.92c8.96-0.2,17.93-0.45,26.89-0.75 c3.76-0.13,7.52-0.24,11.28-0.25c0.62,0,1.64-0.28,1.63,0.71c-0.01,0.93-1,0.75-1.65,0.76c-6.21,0.15-12.42,0.16-18.62,0.45 c-7.96,0.37-15.93,0.18-23.88,0.56c-10.51,0.53-21.03,1.06-31.54,1.58c-5.57,0.28-11.14,0.49-16.71,0.81 c-7.76,0.44-15.51,0.94-23.26,1.42c-4.38,0.27-8.75,0.54-13.13,0.82c-7.63,0.48-15.26,0.98-22.88,1.45 c-4.63,0.28-9.26,0.66-13.89,0.75c-5.2,0.1-10.4,0.66-15.61,0.42c-2.82-0.13-5.64-0.25-8.45-0.39c-0.37-0.02-0.75-0.1-1.1-0.22 C72.79,55.33,72.23,55.11,72.38,54.48z M18.5,50.99c0.2-0.53,0.68-0.46,1.12-0.34c3.72,1,7.55,1.08,11.36,1.36 c4.44,0.33,8.87,0.72,13.32,0.68c6.58-0.05,13.17,0.25,19.74-0.37c0.71-0.07,1.95-0.68,2.02,0.48c0.07,1.08-1.25,0.93-2.08,1.03 c-3.99,0.48-8.01,0.42-12.02,0.41c-0.82,0-1.63,0-2.45,0c-9.35,0.14-18.66-0.43-27.93-1.55c-0.8-0.1-1.6-0.31-2.37-0.57 C18.75,51.97,18.27,51.61,18.5,50.99z M33.4,31.94c3.2,0.26,6.41,0.34,9.62,0.38c9.48,0.11,18.97,0.26,28.43-0.06 c12.55-0.42,25.11,0.05,37.65-0.36c11.61-0.38,23.22-0.04,34.83-0.34c13.8-0.36,27.6-0.49,41.4-0.77 c13.67-0.28,27.35-0.42,41.02-0.77c11.67-0.3,23.35,0.01,35.01-0.35c6.97-0.22,13.94-0.37,20.89-0.17 c9.23,0.26,18.45,0.1,27.67,0.33c10.4,0.27,20.81,0.59,31.2,1.15c15.83,0.85,31.65,1.98,47.41,3.78 c25.11,2.87,50.09,6.64,74.84,11.83c0.67,0.14,1.37,0.13,2.05,0.19c-0.92-1.74-2-3.39-3.2-4.94c-0.4-0.52-0.82-1.02-1.24-1.51 c-8.64-9.95-17.75-19.47-28.04-27.72c-4.59-3.68-9.68-6.6-15.62-7.72c-9.83-1.85-19.84-1.62-29.75-2.52 c-1.01-0.1-2.01-0.13-3.01-0.1c-3.01,0.08-5.98,0.62-8.98,0.86c-6.5,0.52-13,0.82-19.51,1.1c-12.17,0.54-24.34,0.36-36.5,0.26 c-9.96-0.08-19.91-0.53-29.84-1.39c-4.49-0.39-9.01-0.51-13.35-1.89c-0.75-0.03-1.5-0.07-2.25-0.09 c-13.56-0.27-27.08,0.67-40.62,1.04c-18.69,0.51-37.38,1.24-56.07,1.46c-10.59,0.12-21.18-0.6-31.78-0.93 c-6.08-0.19-12.17-0.21-18.24-0.58c-10.19-0.62-20.35-0.16-30.39,1.42C89.66,4.71,82.3,6.23,75.12,8.52 c-8.58,2.73-17.02,5.75-24.92,10.12c1.08,1.21,2.64,0.97,3.97,1.16c7.38,1.06,14.82,1.62,22.27,2.05 c12.15,0.7,24.32,0.84,36.48,1.25c15.13,0.51,30.24-0.18,45.36-0.27c11.79-0.07,23.57-0.75,35.37-0.62c1.25,0.01,2.5-0.1,3.75-0.2 c0.48-0.03,0.95-0.03,1.08,0.48c0.13,0.52-0.31,0.76-0.73,0.95c-0.71,0.33-1.47,0.28-2.22,0.28c-5.84,0.01-11.68-0.14-17.51,0.07 c-13.48,0.47-26.97,0.54-40.45,0.81c-7.22,0.14-14.43,0.26-21.65,0.18c-9.41-0.1-18.82-0.28-28.21-0.75 c-11.89-0.6-23.8-1.03-35.58-2.97c-1.61-0.26-3.21-0.54-4.82-0.81c-1.1,0.51-2.19,1.04-3.28,1.59c-0.05,0.02-0.09,0.05-0.14,0.07 c-2.12,1.07-4.2,2.21-6.27,3.37c-1.06,0.59-2.11,1.2-3.16,1.8c-1.15,0.66-6.54,3.94-6.79,4.15c0,0,0,0,0,0 C29.57,31.56,31.48,31.79,33.4,31.94z M355.07,12.55c0.3-0.07,0.62-0.07,0.93-0.07c7.35,0.15,17.75,0.07,18.72-0.06l0.49,0.12 c2.64,0,5.57-0.45,8.21-0.42c0.66,0.01,1.61-0.07,1.54,0.89c-0.06,0.81-0.97,0.55-1.56,0.62c-0.19,0.02-0.38,0.01-0.56,0.01 c-9.21-0.13-18.4,0.23-27.6,0.53c-0.59,0.02-1.25,0.06-1.34-0.66C353.82,12.79,354.53,12.67,355.07,12.55z M356.85,20.81 c8.14,0.4,16.27,0.88,24.39,1.5c7.81,0.59,15.6,1.44,23.4,2.11c2.12,0.18,4.26,0.12,6.39,0.23c0.64,0.03,1.6,0.02,1.44,1.02 c-0.12,0.79-0.95,0.63-1.56,0.6c-9.91-0.36-19.72-1.72-29.6-2.4c-7.31-0.51-14.64-0.82-21.96-1.22c-8.76-0.48-17.51-1.07-26.28-1.41 c-7.83-0.31-15.68-0.38-23.52-0.48c-13.05-0.17-26.1-0.27-39.15-0.41c-0.81-0.01-1.62-0.17-2.42-0.3c-0.54-0.09-1.27-0.15-1.13-0.94 c0.13-0.73,0.86-0.62,1.4-0.59c1.12,0.06,2.24,0.27,3.37,0.29c3.45,0.05,6.9,0.02,10.36,0.06c12.99,0.13,25.98,0.11,38.97,0.44 C332.93,19.6,344.89,20.22,356.85,20.81z M244.26,11.14c0.15-0.69,0.89-0.57,1.44-0.51c6.44,0.65,12.89,0.67,19.35,0.66 c10.17-0.01,20.33-0.08,30.5,0.07c9.41,0.14,18.81,0.37,28.22,0.38c1.25,0,2.5,0.19,3.74,0.32c0.63,0.07,1.68-0.2,1.63,0.75 c-0.05,1.04-1.13,0.66-1.68,0.74c-4.64-0.59-9.17-0.21-13.68-0.34c-19.51-0.55-39.02-0.28-58.53-0.48 c-3.24-0.03-6.52-0.03-9.74-0.61C244.93,12.02,244.06,12.07,244.26,11.14z M227.55,11.69c0.8,0.23,2.1-0.34,2.18,0.85 c0.07,1-1.12,1-1.89,0.9c-0.8-0.1-2.1,0.11-2.15-0.96C225.63,11.28,226.88,11.87,227.55,11.69z M166.99,14.31 c-10.9,0-18.69,0.09-26.47-0.03c-10.28-0.17-20.57-0.36-30.84-0.85c-4-0.19-8.02-0.01-12.02-0.54c-1.4-0.19-2.86,0.19-4.3,0.28 c-0.44,0.03-0.96-0.01-1-0.59c-0.03-0.53,0.44-0.76,0.88-0.81c1.49-0.18,3.01-0.52,4.48-0.41c8.44,0.67,16.91,0.71,25.37,0.99 c23.02,0.76,46.06,0.52,69.09,0.34c5.63-0.05,11.29-0.01,16.91-0.62c0.43-0.05,0.89-0.05,1.32,0.01c0.61,0.09,1.64-0.3,1.61,0.73 c-0.03,0.91-1.01,0.73-1.67,0.76C194.87,14.27,179.37,14.47,166.99,14.31z M14.83,39.49c2.74-2.24,10.01-6.45,10.64-6.86 c5.65,0.81,11.34,1.18,17.05,1.24c15.19,0.14,30.37,0,45.56-0.32c12.49-0.27,24.97,0.18,37.46-0.31 c10.03-0.39,20.08,0.12,30.11-0.39c6.83-0.35,13.67-0.15,20.51-0.32c13.54-0.33,27.1-0.42,40.64-0.81 c8.22-0.24,16.44-0.23,24.66-0.29c21.34-0.15,42.67-0.37,64.01,0.17c13.98,0.35,27.95,0.79,41.92,1.56 c9.33,0.52,18.64,1.21,27.94,2.05c11.42,1.03,22.81,2.39,34.17,3.98c14.6,2.04,29.14,4.37,43.62,7.11 c4.36,0.82,8.65,2.07,13.11,2.38c0.41-0.07,0.36-0.12,0.59,0.33c0.57,0.97,1.14,1.93,1.71,2.9c-1.42,1.59-2.13,3.71-3.82,5.09 c-0.41-0.15-0.8-0.34-1.22-0.44c-17.27-3.85-34.67-6.95-52.19-9.48c-14.9-2.15-29.87-3.63-44.87-4.76 c-11.37-0.86-22.77-1.4-34.16-1.92c-8.58-0.39-17.18-0.62-25.77-0.74c-10.35-0.14-20.71-0.3-31.06-0.38 c-49.78-0.36-99.56,0.21-149.34-0.4c-28.99-0.35-57.99-0.27-86.98,0.6C31.03,39.7,22.93,39.49,14.83,39.49z M297.83,2.2 c-3.87-0.2-7.72-0.65-11.58-0.99c6.96-0.15,13.93,0.27,20.88,0.19c10.9-0.12,21.79-0.89,32.69-1.27c4.89-0.17,9.79-0.16,14.68-0.07 c1.9,0.03,3.79,0.09,5.68,0.16c2.03,0.08,4.07,0.18,6.1,0.3c3.64,0.21,7.29,0.48,10.93,0.78c-1.3,0.19-2.59,0.48-3.9,0.54 c-8.12,0.41-16.25,0.96-24.38,1.11C331.89,3.26,314.85,3.09,297.83,2.2z"/></g><g id="change1_2"><path fill="#f59921" d="M25.47,32.63C25.47,32.63,25.47,32.63,25.47,32.63c0.66-0.47,1.79-1.08,2.19-1.39l0,0 c1.91,0.32,3.82,0.55,5.74,0.7c3.2,0.26,6.41,0.34,9.62,0.38c9.48,0.11,18.97,0.26,28.43-0.06c12.55-0.42,25.11,0.05,37.65-0.36 c11.61-0.38,23.22-0.04,34.83-0.34c13.8-0.36,27.6-0.49,41.4-0.77c13.67-0.28,27.35-0.42,41.02-0.77 c11.67-0.3,23.35,0.01,35.01-0.35c6.97-0.22,13.94-0.37,20.89-0.17c9.23,0.26,18.45,0.1,27.67,0.33c10.4,0.27,20.81,0.59,31.2,1.15 c15.83,0.85,31.65,1.98,47.41,3.78c25.11,2.87,50.09,6.64,74.84,11.83c0.67,0.14,1.37,0.13,2.05,0.19c0,0,0,0,0,0 c0.05,0.14,1.23,1.91,1.23,1.93c-4.46-0.31-9.19-1.62-13.55-2.44c-14.48-2.73-29.02-5.07-43.62-7.11 c-11.36-1.59-22.75-2.95-34.17-3.98c-9.3-0.84-18.61-1.53-27.94-2.05c-13.96-0.78-27.93-1.21-41.92-1.56 c-21.34-0.53-42.68-0.32-64.01-0.17c-8.22,0.06-16.44,0.05-24.66,0.29c-13.55,0.4-27.1,0.48-40.64,0.81 c-6.84,0.17-13.68-0.03-20.51,0.32c-10.04,0.51-20.09,0-30.11,0.39c-12.49,0.49-24.98,0.05-37.46,0.31 C72.9,33.87,57.71,34,42.52,33.87C36.81,33.82,31.12,33.45,25.47,32.63z M23.78,41.19c8.34-0.31,16.68-0.02,25.03-0.4 c8.89-0.41,17.82-0.37,26.72-0.42c17.2-0.09,34.39-0.18,51.59,0.22c18.13,0.42,36.28-0.04,54.42,0.38 c9.28,0.22,18.58-0.17,27.86-0.18c21.78-0.01,43.56-0.23,65.34,0.2c15.62,0.31,31.24,0.24,46.86,0.8 c9.02,0.32,18.04,0.66,27.05,1.14c9.2,0.49,18.38,1.14,27.57,1.89c9,0.74,17.97,1.68,26.92,2.83c15.8,2.03,31.51,4.64,47.12,7.81 c1.68,0.34,3.37,0.65,5.05,0.98c1.83,0.36,3.66,0.74,5.47,1.21c0.96,0.25,1.91,0.52,2.86,0.83c0.36-0.5,0.72-1,1.08-1.5 c-0.41-0.15-0.8-0.34-1.22-0.44c-17.27-3.85-34.67-6.95-52.19-9.48c-14.9-2.15-29.87-3.63-44.87-4.76 c-11.37-0.86-22.77-1.4-34.16-1.92c-8.58-0.39-17.18-0.62-25.77-0.74c-10.35-0.14-20.71-0.3-31.06-0.38 c-49.78-0.36-99.56,0.21-149.34-0.4c-18.05-0.22-35.55-0.19-54.13-0.08c-11.04,0.07-21.39,0.25-32.85,0.68 c-8.17,0.3-19.84,0.05-24.29,0.03c-0.08,0-1.11,0.76-1.51,1.11C16.76,41.52,20.34,41.32,23.78,41.19z M52.12,21.07 C63.9,23,75.82,23.44,87.7,24.03c9.39,0.47,18.81,0.64,28.21,0.75c7.21,0.08,14.43-0.04,21.65-0.18 c13.48-0.26,26.97-0.34,40.45-0.81c5.83-0.2,11.68-0.05,17.51-0.07c0.75,0,1.51,0.05,2.22-0.28c0.41-0.19,0.86-0.44,0.73-0.95 c-0.13-0.52-0.61-0.52-1.08-0.48c-1.25,0.09-2.5,0.21-3.75,0.2c-11.8-0.13-23.58,0.55-35.37,0.62c-15.12,0.09-30.23,0.79-45.36,0.27 c-12.16-0.41-24.32-0.55-36.48-1.25c-7.45-0.43-14.88-0.99-22.27-2.05c-1.33-0.19-2.89,0.05-3.97-1.16 c-0.96,0.54-1.92,1.08-2.89,1.62C48.91,20.53,50.52,20.8,52.12,21.07z M289.76,3.12c9.93,0.86,19.89,1.3,29.84,1.39 c12.17,0.1,24.33,0.28,36.5-0.26c6.51-0.29,13.01-0.58,19.51-1.1c2.99-0.24,5.97-0.78,8.98-0.86c1-0.03,2.01,0,3.02,0.1 c-3.46-0.36-6.93-0.72-10.41-1.07c-1.3,0.19-2.59,0.48-3.9,0.54c-8.12,0.41-16.25,0.96-24.38,1.11c-17.04,0.3-34.08,0.13-51.1-0.76 c-3.87-0.2-7.72-0.65-11.58-0.99c-3.28,0-6.56,0.01-9.84,0.01c0,0,0,0,0,0C280.75,2.61,285.27,2.73,289.76,3.12z M361.37,60 c-9.44-0.69-18.9-1.16-28.36-1.52c-10.34-0.39-20.7-0.65-31.05-0.76c-11.61-0.13-23.23-0.15-34.85,0.01 c-5.58,0.08-11.17,0.18-16.75,0.37c-11.66,0.4-23.31,0.91-34.96,1.41c-0.84,0.04-2.33-0.47-2.34,0.74 c-0.01,1.24,1.49,0.79,2.32,0.77c8.9-0.21,17.8-0.59,26.69-0.99c9.4-0.43,18.81-0.71,28.22-0.79c14.18-0.13,28.37-0.1,42.56,0.32 c3.07,0.09,6.15,0.2,9.21,0.27c11.98,0.3,23.94,0.75,35.89,1.62c7.12,0.52,14.26,0.94,21.37,1.64c8.36,0.83,16.7,1.86,25.02,2.94 c0.48,0.06,0.96,0.12,1.44,0.18c0.96,0.12,1.93,0.23,2.89,0.35c0.63,0.08,1.26,0.17,1.89,0.27c1.77,0.27,10.24,2.11,11.96,2.64 c2.76,0.4,22.37,0.14,3.81-2.27c-3-0.37-6.58-0.49-9.48-0.95C398.46,63.33,379.95,61.35,361.37,60z M73.27,55.49 c0.35,0.12,0.73,0.2,1.1,0.22c2.82,0.14,5.64,0.26,8.45,0.39c5.21,0.24,10.4-0.33,15.61-0.42c4.63-0.09,9.26-0.46,13.89-0.75 c7.63-0.47,15.26-0.97,22.88-1.45c4.38-0.28,8.75-0.55,13.13-0.82c7.75-0.48,15.51-0.98,23.26-1.42c5.57-0.31,11.14-0.53,16.71-0.81 c10.51-0.52,21.03-1.05,31.54-1.58c7.96-0.38,15.93-0.19,23.88-0.56c6.2-0.29,12.41-0.3,18.62-0.45c0.65-0.02,1.64,0.16,1.65-0.76 c0.01-1-1.02-0.71-1.63-0.71c-3.76,0-7.52,0.12-11.28,0.25c-8.96,0.3-17.93,0.56-26.89,0.75c-8.59,0.19-17.17,0.68-25.75,0.92 c-2.75,0.08-5.51,0.22-8.26,0.36c-8.63,0.45-17.26,0.96-25.9,1.44c-4.82,0.27-9.64,0.51-14.45,0.81c-7.5,0.46-15,0.97-22.51,1.44 c-4.57,0.29-9.14,0.46-13.7,0.83c-8.75,0.71-17.52,1.01-26.28,1.37c-4.58,0.19-9.15-0.09-13.71-0.52c-0.52-0.05-1.1-0.17-1.26,0.46 C72.23,55.11,72.79,55.33,73.27,55.49z M19.21,52.13c0.76,0.26,1.57,0.47,2.37,0.57c9.28,1.12,18.59,1.69,27.93,1.55 c0.82,0,1.63,0,2.45,0c4.01,0,8.03,0.06,12.02-0.41c0.84-0.1,2.15,0.05,2.08-1.03c-0.07-1.16-1.31-0.55-2.02-0.48 c-6.57,0.62-13.16,0.31-19.74,0.37c-4.45,0.04-8.88-0.35-13.32-0.68c-3.81-0.29-7.64-0.36-11.36-1.36 c-0.45-0.12-0.93-0.19-1.12,0.34C18.27,51.61,18.75,51.97,19.21,52.13z M181.86,58.76c-4.44-0.27-8.87,0.85-13.31,0.06 c-0.49-0.09-1.09-0.02-1.11,0.68c-0.02,0.69,0.58,0.7,1.07,0.79c1.48,0.28,2.98,0.43,4.49-0.01c2.94,0,5.88,0.01,8.82-0.01 c0.6,0,1.46,0.08,1.48-0.75C183.32,58.61,182.44,58.79,181.86,58.76z M282,18.86c-3.45-0.03-6.9-0.01-10.36-0.06 c-1.12-0.02-2.24-0.22-3.37-0.29c-0.54-0.03-1.27-0.14-1.4,0.59c-0.14,0.79,0.59,0.85,1.13,0.94c0.8,0.13,1.61,0.29,2.42,0.3 c13.05,0.15,26.1,0.25,39.15,0.41c7.84,0.1,15.68,0.18,23.52,0.48c8.76,0.34,17.52,0.93,26.28,1.41c7.32,0.4,14.65,0.71,21.96,1.22 c9.87,0.68,19.69,2.04,29.6,2.4c0.61,0.03,1.44,0.19,1.56-0.6c0.15-1-0.8-0.98-1.44-1.02c-2.13-0.11-4.27-0.05-6.39-0.23 c-7.8-0.67-15.59-1.51-23.4-2.11c-8.12-0.62-16.26-1.1-24.39-1.5c-11.96-0.59-23.92-1.21-35.89-1.51 C307.98,18.97,294.99,18.98,282,18.86z M212.02,12.8c0.03-1.03-1-0.64-1.61-0.73c-0.43-0.06-0.88-0.06-1.32-0.01 c-5.62,0.61-11.29,0.58-16.91,0.62c-23.03,0.19-46.07,0.42-69.09-0.34c-8.46-0.28-16.92-0.32-25.37-0.99 c-1.48-0.12-2.99,0.23-4.48,0.41c-0.44,0.05-0.91,0.28-0.88,0.81c0.04,0.58,0.57,0.62,1,0.59c1.44-0.09,2.91-0.47,4.3-0.28 c4,0.54,8.02,0.35,12.02,0.54c10.27,0.49,20.56,0.68,30.84,0.85c7.78,0.13,15.57,0.03,26.47,0.03c12.38,0.16,27.87-0.04,43.36-0.75 C211.01,13.53,211.99,13.71,212.02,12.8z M245.51,12.12c3.22,0.59,6.51,0.58,9.74,0.61c19.51,0.2,39.02-0.08,58.53,0.48 c4.51,0.13,9.03-0.25,13.68,0.34c0.55-0.08,1.63,0.3,1.68-0.74c0.05-0.95-1-0.68-1.63-0.75c-1.25-0.14-2.5-0.32-3.74-0.32 c-9.41-0.01-18.82-0.23-28.22-0.38c-10.16-0.15-20.33-0.09-30.5-0.07c-6.46,0.01-12.91-0.01-19.35-0.66 c-0.55-0.06-1.29-0.18-1.44,0.51C244.06,12.07,244.93,12.02,245.51,12.12z M355.25,14.18c9.2-0.3,18.4-0.67,27.6-0.53 c0.19,0,0.38,0.02,0.56-0.01c0.58-0.07,1.5,0.19,1.56-0.62c0.07-0.97-0.88-0.89-1.54-0.89c-2.69-0.03-20.98,0.36-27.43,0.37 c-0.31,0-0.63,0-0.93,0.07c-0.54,0.12-1.24,0.24-1.16,0.96C354,14.23,354.66,14.19,355.25,14.18z M227.84,13.45 c0.77,0.09,1.96,0.09,1.89-0.9c-0.08-1.19-1.38-0.63-2.18-0.85c-0.67,0.18-1.92-0.41-1.86,0.8 C225.75,13.56,227.05,13.35,227.84,13.45z M468.53,51.89c-1.42,1.59-2.39,3.06-3.82,5.09c-0.36,0.5-0.72,1-1.08,1.5l0,0 c-0.74,0.82-1.54,1.56-2.41,2.2c-0.87,0.64-1.81,1.18-2.85,1.61c-3.24,1.34-6.54,2.52-10,3.15c-7.56,1.37-33.24,4.64-37.55,4.52 c-28.38,1.77-39.99,0.9-56.93,1.59c-9.22,0.38-58.25-1.76-67.46-1.15c-8.7,0.57-17.42,0.86-26.13,1.36 c-12.85,0.73-25.68,0.95-38.54,0.73c-15.62-0.26-31.24-0.69-46.86-1.18c-15.49-0.48-30.97-1.21-46.44-1.94 c-15.54-0.73-31.09-1.32-46.64-1.88c-13.85-0.5-27.72-0.53-41.56-1.54c-7.71-0.56-15.36-1.41-22.82-3.48 c-5.39-1.5-10.78-3.06-14.87-7.26c-0.45-0.47-1.03-0.7-1.67-0.79c-0.65,1.45-2.28,9.83,1.44,16.81c2.77,5.2,6.9,8.5,12.32,10.51 c5.2,1.93,10.56,3.04,16,3.99c1.98,0.35,3.78,0.45,6.01,0.91c3.03,0.59,4.05,0.58,6.08,0.72c5.42,0.37,10.83,0.81,16.24,1.22 c2.16,0,16.38,0.6,20.27,0.39c1.5-0.03,3-0.07,4.51-0.09c10.9-0.13,140.82,1.57,184.13,0.65c22.32-0.47,44.67-0.85,66.99,0.34 c8.45,0.45,16.93-0.03,25.38,0.74c2.99,0.27,6.01,0.26,9.03,0.26c1.01,0,2.01,0.01,3.02,0.03l0,0c3.34,0.05,6.67,0.11,10.01,0.17 c3.34,0.05,6.67,0.1,10.01,0.14c1.74,0.02,3.48-0.13,5.22-0.2c3.93,0.09,7.84-0.37,11.76-0.65c0.93-0.07,1.87-0.13,2.8-0.16 c0.69-0.03,1.39-0.04,2.09-0.04c7.37-0.19,32.29-5.21,36.58-6.41c4.22-1.18,8.05-3.35,11.83-5.61c6.98-4.16,10.74-12.67,8.7-20.53 C470.79,55.54,470.33,53.37,468.53,51.89z"/></g></svg>