<?xml version="1.0" encoding="UTF-8"?><svg xmlns="http://www.w3.org/2000/svg" xmlns:xlink="http://www.w3.org/1999/xlink" contentScriptType="text/ecmascript" fill="#000000" width="98.2" zoomAndPan="magnify" contentStyleType="text/css" viewBox="-10.8 -2.4 98.2 88.0" height="88" preserveAspectRatio="xMidYMid meet" version="1"><g><g id="change1_1"><path fill="#99b0dc" d="M9.2,66.5c-20-22-5-58.3,22.2-65.3c13.8-3.6,28.1,0.9,39.3,9.2c9.1,6.8,16.7,16.2,16,29.9 c-0.3,6.4-9,2.9-9.4-3.5C76.7,26,67.9,20.6,62.6,17c-8.6-5.9-19.4-8.8-29.7-5.9c-17.6,5-28.7,27-19.9,43.7 c8.4,15.8,36.7,20.3,47.5,4.5c7.8-11.3-1.5-26.5-14.1-28.7c-6.2-1.1-12.3,2.4-14.4,8.4c-1.5,4.1-0.2,10.4,5.1,10.8 c2.3,0.2,7.8-3.6,3.4-3.5c-6.4,0-5.4-9.9,1-10c7.7-0.1,12.6,6.8,9.9,14.1c-2.8,7.6-11.6,11.2-19.1,8.5c-15.9-5.6-12.4-27-0.6-34.9 C50.2,11.8,75,32,73.5,52.2C71,83.1,26.5,85.6,9.2,66.5z"/></g><g id="change2_1"><path fill="#ffffff" opacity="0.08" d="M42.1,4.1c0.3,0.1,0.6,0.1,0.8-0.1c0.7-0.6,0.9-1.3,0.7-2.1 c-0.2-0.7-0.8-1.1-1.6-1.1c-0.5,0-1,0.3-1.1,0.8C40.5,2.6,40.9,3.6,42.1,4.1z M41.7,3.3c0.2-0.1,0.3,0,0.3,0.1s-0.1,0.3-0.3,0.3 c-0.2,0-0.3-0.1-0.3-0.1C41.4,3.5,41.6,3.4,41.7,3.3z M40.8,2.7c0-0.1,0.1-0.2,0.3-0.3c0.2-0.1,0.3,0,0.3,0.1s-0.1,0.3-0.3,0.3 C41,2.8,40.8,2.7,40.8,2.7z M63.1,43.5c0-0.5,0.7-1,1.3-0.9c0.7,0.1,1.2,0.5,1.2,1.1c-0.2,0-0.3,0.1-0.4,0.3 c-0.1,0.2,0,0.3,0.3,0.3c0,0,0,0,0,0c-0.2,0.4-0.7,0.7-1.2,0.7C63.7,45,63,44.2,63.1,43.5z M36.6,1.7C36.6,1.7,36.6,1.7,36.6,1.7 C36.6,1.7,36.6,1.7,36.6,1.7C36.6,1.7,36.6,1.7,36.6,1.7z M80.5,33.7c-0.2,0-0.3-0.1-0.3-0.1s0.1-0.2,0.3-0.3 c0.2-0.1,0.3,0,0.3,0.1S80.7,33.7,80.5,33.7z M72.6,50c0.1-0.1,0.1-0.2,0.2-0.4c-0.1,0-0.2-0.1-0.2-0.2c0-0.4,0.4-0.6,0.8-0.6 c0,0.7,0,1.4,0,2.2c-0.2,0-0.4,0-0.6-0.1C72.5,50.9,72.4,50.4,72.6,50z M82.9,43.1c-0.2,0-0.3-0.1-0.3-0.3c0-0.2,0.1-0.3,0.3-0.3 c0.2,0,0.3,0.1,0.3,0.3C83.2,43,83.1,43.1,82.9,43.1z M47.5,56.3c-0.1-0.1-0.2-0.3-0.1-0.4c0.1-0.2,0.3-0.4,0.5-0.5 c0.3,0,0.4,0,0.6,0.1C48.1,55.7,47.8,56,47.5,56.3z M78.8,37C78.8,36.9,78.8,36.9,78.8,37c-0.3-0.3-0.1-0.5,0.9-0.7 c0.4-0.1,0.6-0.1,0.7,0c0.5,0,0.9,0.3,1,0.8c0.1,0.3,0.1,0.6,0.2,0.8c-0.1,0.2-0.1,0.5-0.2,0.6c-0.7,0.5-1.4,0.6-2.2,0.4 c-0.1,0-0.2-0.1-0.2-0.2c-0.3-0.4-0.4-0.9-0.3-1.4C78.7,37.1,78.8,37,78.8,37z M4.1,31.9c-0.3,0.1-0.6,0-0.8-0.1 c-0.3-0.1-0.4-0.7-0.2-1c0.3-0.6,1-0.9,1.7-0.6c0.1,0.1,0.2,0.3,0.3,0.4C5,30.8,5,31,5,31.2C4.8,31.6,4.5,31.8,4.1,31.9z M10.7,50.8c-0.8,0.1-1.5-0.9-1.2-1.6c0.1-0.2,0.2-0.3,0.4-0.4c0.3-0.1,0.6-0.1,0.9-0.1c0.1,0.6,0.3,1.2,0.5,1.8 C11.1,50.6,10.9,50.7,10.7,50.8z M75.4,23.6C75.4,23.6,75.4,23.6,75.4,23.6C75.3,23.6,75.3,23.5,75.4,23.6 C75.3,23.5,75.4,23.6,75.4,23.6z M82.1,27.4c0.2-0.2,0.5-0.3,0.8-0.4c0.2-0.1,0.4,0,0.7,0c0.1,0,0.4,0.1,0.7,0.2 c0.3,0.1,0.5,0.6,0.3,1c-0.4,1-1.7,1.2-2.4,0.3C82,28.2,81.9,27.5,82.1,27.4z M82.1,26c0.1-0.3,0.3-0.6,0.5-0.7 c0.3-0.1,0.4,0.1,0.3,0.4c-0.1,0.3-0.3,0.6-0.5,0.7C82.1,26.4,82,26.3,82.1,26z M84.9,31.6c-0.4,0-0.7-0.1-0.6-0.3 c0.1-0.1,0.3-0.2,0.6-0.3c0-0.2,0.1-0.3,0.2-0.5c0.1-0.2,0.3-0.4,0.4-0.6c0.2,0.7,0.4,1.4,0.5,2.1c-0.2,0-0.3-0.1-0.5-0.1 c-0.2-0.1-0.4-0.2-0.5-0.4C85,31.6,85,31.6,84.9,31.6z M79,30.9c0.2-0.2,0.4-0.3,0.6-0.4c0-0.5,0.1-0.6,0.6-0.7 c0.5-0.1,0.7,0,0.7,0.5c0,0.1,0,0.2,0,0.3c0.2,0.1,0.3,0.2,0.5,0.4c0.1,0.1,0.2,0.3,0.3,0.5c0.4,0.6,1,0.9,1.8,0.9 c0.2,0,0.4,0,0.8,0.1c0.2,0.4,0.3,0.7,0.4,1c0.1,0.6,0.3,1.1,0.6,1.5c0.1,0,0.1,0.1,0.2,0.2c0.2,0.2,0.5,0.5,0.9,0.6 c0.1,0,0.2,0.1,0.3,0.2c0.1,0.7,0.1,1.5,0.1,2.2c-0.1,0.1-0.3,0.2-0.5,0.3c-0.2,0.1-0.4,0.1-0.6,0.2c-0.1,0.3-0.5,0.4-0.8,0.3 c0,0,0,0,0,0c-0.1,0.1-0.3,0.3-0.3,0.5c0.1,0.6,0.3,1.2,0.5,1.7c0.2,0.5,0.6,0.8,1.2,0.8c0,0,0.1,0,0.1,0c-0.3,0.8-0.9,1.3-1.5,1.6 c-0.4-0.8-0.9-1.3-1.7-1.7c-0.2-0.1-0.4-0.4-0.5-0.6c-0.2,0-0.3-0.1-0.2-0.3c0,0,0-0.1,0.1-0.1c-0.1-0.5,0-1,0.1-1.4 c0.2-0.4,0.6-0.5,0.9-0.7c0.8-0.3,1-1.4,0.8-2.1c0,0-0.1,0.1-0.2,0.1c-0.2,0-0.3-0.1-0.3-0.3c0-0.1,0.1-0.2,0.2-0.3 c-0.1-0.2-0.3-0.3-0.4-0.4c-1-0.5-1.6-1.1-2-2.1c-0.2-0.6-0.8-0.8-1.4-1c-0.7-0.2-1.5,0.3-1.7,0.9c-0.1,0.4-0.1,0.8-0.2,1.2 c-0.1,0.6-0.5,1-1,1c0,0-0.1,0-0.1,0c-0.2-1.5-0.5-2.8-0.9-4.1c0.1,0.1,0.1,0.1,0.2,0.1c0.6,0.4,1.5,0.3,1.9-0.1 C78.6,31.4,78.8,31.2,79,30.9z M75.4,23.6L75.4,23.6C75.4,23.5,75.4,23.5,75.4,23.6C75.4,23.5,75.4,23.6,75.4,23.6z M76.2,23.5 c-0.3,0-0.6,0-0.8,0.1c-0.3-0.5-0.1-1.1-0.1-1.7c0.1-0.7,0.5-1.1,1.1-1.3c0.7-0.2,1.6-0.2,1.9,0.8c0.2,0.8,0.7,1.4,1.5,1.7 c0.5,0.2,0.9,0.7,1.4,1.1c0.4,0.4,0.3,1.2-0.1,1.6c-0.2,0.2-0.5,0.3-0.8,0.3c0,0-0.1,0-0.1,0.1c-0.3,0.2-0.8,0.3-1,0.3 c-0.5-0.2-0.3-0.5,0.1-0.6c0,0-0.1-0.1-0.1-0.1c-0.2-0.3-0.4-0.7-0.5-1C78.2,23.6,77.3,23.3,76.2,23.5z M11.6,14.7 c-0.2-0.3-0.5-0.4-0.8-0.4c0.5-0.6,1.1-1.2,1.6-1.8c0.2,0.7,0.6,1.2,1.4,1.4c0.2,0,0.4,0.1,0.6,0.2c0.6,0.2,1,0.6,1.2,1.2 c0.2,0.5,0.3,0.9,0.5,1.4c0.7,0.4,1.5,0.7,2.1,1.1c0.1,0.1,0.1,0.2,0.2,0.3c0.1,0,0.2-0.1,0.3-0.1c0.6,0,0.6,0,0.1,0.6 c0,0.1-0.1,0.1-0.1,0.2c0.1,0.1,0.1,0.3,0.2,0.4c0.1,0.2,0.2,0.3,0.4,0.4c-0.2,0.2-0.5,0.5-0.7,0.7c-0.2-0.2-0.4-0.3-0.7-0.3 c-0.2,0-0.4,0-0.6,0c-1.5-0.2-1.6-0.4-2-2.1c-0.1-0.6-0.3-0.8-1-0.9c-0.2,0-0.4,0-0.6,0c-0.8,0-1.3-0.3-1.6-1.1 C12.1,15.4,11.9,15,11.6,14.7z M9.3,45.2c-0.2,0-0.3-0.1-0.3-0.3c0-0.2,0.2-0.3,0.5-0.3c0.3,0,0.4,0.1,0.3,0.3 C9.7,45.1,9.5,45.2,9.3,45.2z M72.8,12.8c-0.3-0.4-0.5-0.8-0.8-1.3c0-0.1-0.1-0.1-0.1-0.1c0.8,0.6,1.5,1.2,2.2,1.9 C73.7,13.4,73.1,13.2,72.8,12.8z M3.7,25.6C4,24.8,4.4,24,4.8,23.2c0.1,0,0.2,0.1,0.3,0.2c0.2,0.2,0.3,0.5,0.4,0.6 C5.5,25,4.5,25.8,3.7,25.6z M6.6,21.9c0.2,0,0.3,0.1,0.3,0.3s-0.1,0.3-0.3,0.3s-0.3-0.1-0.3-0.3S6.4,21.9,6.6,21.9z M68.4,54.6 c0-0.4,0.6-0.7,1.1-0.5c0.2,0.1,0.4,0.3,0.3,0.5C69.5,55,68.4,55,68.4,54.6z M6.8,21.7c0-0.7,0.4-1,1-1.1c0.4,0,0.8,0.2,0.8,0.6 c0.1,0.6-0.3,1.2-0.9,1.3C7.3,22.5,6.8,22.1,6.8,21.7z M74.8,21.6c-0.2,0-0.3-0.1-0.3-0.3c0-0.2,0.1-0.3,0.3-0.3 c0.2,0,0.3,0.1,0.3,0.3C75.1,21.5,74.9,21.6,74.8,21.6z M72.3,24.2c0-0.1,0-0.3,0.1-0.4c-0.2-0.2-0.1-0.4,0.4-0.6 c0.3-0.1,0.4-0.3,0.3-0.5c-0.1-0.2,0-0.4,0.1-0.5c0.2-0.1,0.3,0.2,0.3,0.7c0,0.1,0,0.3,0,0.4c0.6,0,1.2,0,1.8,0.1 c0,0.3,0,0.5,0,0.8c0.1,0,0.1-0.1,0.2-0.1c0.2,0,0.5,0.2,0.5,0.5c0,0.2-0.2,0.5-0.5,0.5c0,0-0.1,0-0.1,0c0.1,0.4,0.4,0.7,0.8,1 c0.6,0.4,1.2,0.8,1.7,1.2c0.5,0.4,0.4,1.2-0.1,1.5c-1.1,0.7-2.3,0.3-2.5-1c-0.1-0.9-0.5-1.4-1.3-1.8c-0.4-0.1-0.7-0.4-1-0.6 C72.6,25.2,72.4,24.8,72.3,24.2z M70.2,61.3c0,0.2-0.1,0.3-0.3,0.3c-0.2,0-0.3-0.2-0.3-0.5c0-0.3,0.1-0.4,0.3-0.3 C70.1,60.9,70.2,61.1,70.2,61.3z M4.7,39.5c0.3,0,0.4,0.1,0.3,0.3c-0.1,0.2-0.3,0.3-0.5,0.3s-0.3-0.1-0.3-0.3 C4.2,39.6,4.4,39.5,4.7,39.5z M5,38.3c-0.2-0.1-0.4-0.1-0.5-0.3c-0.2-0.2-0.5-0.4-0.3-0.8c0.1-0.1,0.3-0.3,0.4-0.3 C5,36.8,5.2,37,5.4,37.3c0.1,0.1,0.2,0.3,0.2,0.5C5.7,38.1,5.3,38.4,5,38.3z M71.1,61.6c-0.1-0.2-0.3-0.4-0.5-0.6 c-0.3-0.2-0.5-0.2-0.8-0.4c-0.3-0.1-0.5-0.3-0.7-0.6c-0.2,0-0.4-0.1-0.4-0.3c0-0.1,0.1-0.2,0.2-0.3c0-0.3,0-0.5,0.1-0.9 c0.1-0.4,0.4-0.7,0.8-0.8c0.3,0,0.6-0.1,0.9-0.1c1.4,0,1.4,0,1.6-1.5c0-0.2,0-0.4,0.1-0.6c0.1-0.4,0.3-0.6,0.6-0.8 c-0.2,0-0.4-0.1-0.9-0.3c-0.2-0.1-0.4-0.2-0.5-0.2c-0.4,0.3-1,0.3-1.5-0.1c-0.8-0.6-0.8-1.7,0-2.2c0.2-0.1,0.3-0.2,0.5-0.2 c0.9-0.3,1.6,0.2,1.6,1.1c0,0.1,0,0.2,0,0.2c0.3,0,0.5,0.3,0.5,0.7c0,0.2,0.1,0.4,0.3,0.4c0.1,0,0.2,0.1,0.2,0.1 C72.8,57,72.1,59.4,71.1,61.6z M71.4,13.1c-0.1,0.2-0.3,0.5-0.5,0.5c-0.2,0.1-0.3,0-0.3-0.3c0.1-0.2,0.3-0.5,0.5-0.5 C71.4,12.8,71.5,12.9,71.4,13.1z M73.3,15.5c0.2,0,0.3,0.1,0.3,0.3c0,0.2-0.1,0.3-0.3,0.3c-0.2,0-0.3-0.1-0.3-0.3 C72.9,15.6,73.1,15.5,73.3,15.5z M9.9,54.6c0,0.2-0.1,0.3-0.3,0.3s-0.3-0.1-0.3-0.3s0.1-0.3,0.3-0.3S9.9,54.4,9.9,54.6z M68.5,20.7 c-0.1-0.3-0.3-0.6-0.6-0.7c-0.6-0.3-1.3-0.6-1.7-1.1c-0.3-0.4-0.4-1,0-1.4c0.4-0.5,1.1-0.6,1.6-0.2c0.2,0.1,0.3,0.3,0.4,0.5 c0-0.1,0.1-0.2,0.3-0.3c0.2-0.1,0.3,0,0.3,0.1c0,0.2-0.1,0.3-0.3,0.3c-0.1,0-0.1,0-0.2,0c0.2,0.4,0.3,0.7,0.4,1.2 c0.2,0.7,0.5,0.9,1.3,0.9c0.3,0,0.6,0,0.9-0.1c0.5-0.1,0.8-0.5,0.9-1c0.1-0.9-0.2-1.7-1-1.9c-1-0.3-1.8-0.8-2.2-1.8 c-0.3-0.6-0.7-1.1-1.3-1.6c-0.8-0.7-0.6-1.9,0.2-2.6c0.1-0.1,0.2-0.1,0.3-0.2c0.7-0.3,1.1-0.8,1.2-1.5c0.6,0.4,1.1,0.8,1.7,1.2 c0.2,0.2,0.5,0.4,0.7,0.6c-0.5-0.2-1.2-0.2-1.7,0.1c-0.5,0.3-0.7,1.2-0.3,1.6c0.3,0.3,0.5,0.6,0.9,0.8c0.9,0.4,1.4,1.1,1.7,2 c0.1,0.4,0.3,0.7,0.6,1.2c0.6,0.2,1.3,0.4,1.9,0.6c0.7,0.2,0.9,0.6,0.9,1.4c0,0.8-0.3,1.2-0.9,1.3c-0.5,0.1-1,0.2-1.4,0.4 c-0.4,0.1-0.7,0.4-0.8,0.8C72,21.6,72,22,71.9,22.3C71.7,22.8,71.4,23,71,23c-0.2,0-0.4,0-0.6-0.1c-0.6-0.6-1.2-1.1-1.8-1.6 c0-0.1,0-0.1,0-0.2c0,0-0.1,0-0.1,0c-0.1-0.1-0.3-0.2-0.4-0.3C68.1,20.8,68.3,20.7,68.5,20.7z M44.3,43.4c0.1-0.2,0.3-0.3,0.5-0.2 c0.2,0.1,0.2,0.3,0,0.5C44.4,44.2,44,43.9,44.3,43.4z M62.3,38.2c0.2,0,0.3,0.1,0.3,0.3s-0.1,0.3-0.3,0.3c-0.2,0-0.3-0.1-0.3-0.3 S62.2,38.2,62.3,38.2z M13.1,61.3c0.2,0,0.3,0.3,0.2,0.7c-0.1,0.5-0.3,0.7-0.7,0.6c-0.3-0.1-0.6-0.3-0.6-0.4 C12.1,61.9,12.8,61.3,13.1,61.3z M39,52.9c0.1-0.2,0.3-0.3,0.5-0.4c-0.4,0-0.8-0.1-0.8-0.2c0-0.3,1.2-0.7,1.6-0.5 c0.1,0.1,0.2,0.3,0.1,0.4c-0.1,0.1-0.4,0.2-0.7,0.3c0.2,0.1,0.4,0.2,0.5,0.3c0.1,0.1,0.2,0.3,0.2,0.5c0,0.1-0.2,0.3-0.4,0.3 c-0.2,0-0.4,0-0.6,0C39.1,53.4,38.9,53.1,39,52.9z M59,6.3c-0.2-0.1-0.2-0.3-0.1-0.5c0.1-0.2,0.3-0.2,0.5-0.1s0.2,0.3,0.1,0.5 C59.4,6.3,59.2,6.4,59,6.3z M50.8,69.4c0.3,0,0.6,0.1,0.6,0.3c0,0.2-0.3,0.3-0.6,0.3c-0.3,0-0.6-0.1-0.6-0.3 C50.2,69.6,50.5,69.4,50.8,69.4z M37.1,49.9c0,0,0.1,0,0.1,0c0,0.5-0.3,1-0.8,1.2c-0.1,0-0.2,0-0.4,0.1c0,0-0.1,0-0.2-0.1 c-0.1,0.1-0.2,0.1-0.4,0.1c-0.3,0-0.4-0.1-0.3-0.3c0,0,0.1-0.1,0.1-0.1c-0.2-0.3-0.4-0.6-0.6-1c-0.1-0.2,0-0.4,0-0.6 C35.5,49.6,36.2,49.9,37.1,49.9z M57.4,9.9c-0.2-0.4-0.1-1,0.3-1.3c0.2-0.2,0.5-0.3,0.6-0.3c0.1,0,0.3,0,0.4,0c0,0,0,0,0,0 c0.2-0.3,0.5-0.6,0.6-0.6c0.2,0,0.3,0.3,0.3,0.8c0,0.5,0,0.7-0.2,0.7c0,0.2-0.1,0.3-0.2,0.4c-0.2,0.2-0.4,0.4-0.6,0.6 c-0.3,0.2-0.7,0.1-1,0c-0.1,0.2-0.3,0.4-0.5,0.5c-0.2,0.1-0.3,0-0.3-0.3C57,10.2,57.2,10,57.4,9.9z M59.5,25.6 c0.2,0.1,0.4,0.3,0.6,0.4C59.8,26.2,59.4,25.9,59.5,25.6z M62.3,28.2c0,0.2-0.1,0.3-0.3,0.3c-0.2,0-0.3-0.1-0.3-0.1 c0-0.1,0.1-0.2,0.3-0.3C62.2,28,62.3,28,62.3,28.2z M60.8,27.4c-0.1,0.2-0.4,0.5-0.7,0.5c-0.3,0.1-0.5,0-0.4-0.3 c0.1-0.2,0.4-0.5,0.7-0.5C60.7,27,60.8,27.1,60.8,27.4z M62.9,46.2c0,0.1,0.1,0.3,0.2,0.4c0.6,1,2.3,1.1,2.7,0.1 c0.4-1,1.1-1.6,2.2-1.8c0.1,0,0.2-0.1,0.3-0.1c0.1-0.1,0.2-0.1,0.3-0.2c0.1,0,0.3,0.1,0.4,0.1c0.4,0,0.8-0.1,0.8-0.3 S69.3,44,68.9,44c0,0,0,0,0,0c0.1-0.2,0.1-0.5,0.1-0.8c-0.1-0.5-0.2-1-0.8-1.2c-1.1-0.3-1.9-0.9-2.4-2c-0.3-0.8-1.3-0.9-2.1-0.8 c-0.4,0.1-0.7,0.4-0.8,0.8c-0.1,0.5-0.1,1-0.2,1.5c0,0.2-0.2,0.3-0.4,0.4c-0.2,0.2-0.5,0.2-0.7,0.3C62.1,43.6,62.5,44.9,62.9,46.2z M64.4,42.6c0.7,0.1,1.2,0.5,1.2,1.1c-0.2,0-0.3,0.1-0.4,0.3c-0.1,0.2,0,0.3,0.3,0.3c0,0,0,0,0,0c-0.2,0.4-0.7,0.7-1.2,0.7 c-0.7,0-1.3-0.7-1.2-1.4C63.1,43.1,63.8,42.6,64.4,42.6z M58.6,68.5c-0.1-0.2,0-0.3,0.1-0.3c0.2,0,0.3,0.1,0.3,0.3 c0,0.2-0.1,0.3-0.1,0.3C58.8,68.8,58.7,68.7,58.6,68.5z M60.4,73.4c-0.4,0.2-0.7,0.4-1.1,0.6c-0.2-0.2-0.4-0.4-0.7-0.5 c-0.3-0.1-0.6-0.1-0.9-0.2c-0.6-0.2-1-0.7-1.2-1.3c0,0,0,0,0,0c-0.6,0.2-1-0.4-0.6-0.9c0.2-0.2,0.6-0.5,0.8-0.5 c0.1,0,0.2,0,0.3,0.1c0.6-0.3,1.2-0.2,1.5,0.3c0,0,0.1-0.1,0.2-0.1c0.2,0,0.3,0.1,0.3,0.3c0,0.1-0.1,0.2-0.2,0.3 c0.1,0.2,0.2,0.4,0.3,0.6C59.4,73.1,59.6,73.3,60.4,73.4z M54.4,76.2c-0.3,0.1-0.5,0.2-0.8,0.3c0,0,0,0,0-0.1 c0-0.2,0.2-0.3,0.5-0.3C54.1,76.1,54.3,76.2,54.4,76.2z M49.1,71.8c-0.2,0.1-0.4-0.1-0.4-0.4s0.2-0.5,0.5-0.5 C49.7,71,49.7,71.6,49.1,71.8z M61.8,64.5C61.8,64.6,61.8,64.6,61.8,64.5C61.8,64.6,61.8,64.6,61.8,64.5 C61.8,64.6,61.8,64.6,61.8,64.5z M61.8,64.6C61.8,64.6,61.8,64.6,61.8,64.6C61.8,64.6,61.8,64.6,61.8,64.6L61.8,64.6z M61.8,64.5 c-0.3-0.6-1-0.5-1.4-0.9c-0.4-0.3-0.6-0.9-0.5-1.3c0.1-0.4,0.3-0.7,0.6-0.8c0-0.2,0.1-0.3,0.3-0.3c0.1,0,0.2,0,0.2,0.1 c0.3,0,0.7,0.2,0.8,0.4c0,0,0,0.1,0,0.1c0.2-0.1,0.4-0.3,0.6-0.4c0.6-0.3,0.5,0.3-0.2,0.8c-0.1,0.1-0.2,0.1-0.3,0.2 C62.3,63.2,62.3,63.9,61.8,64.5z M60.1,69.4C60.1,69.4,60.1,69.4,60.1,69.4c-0.2-0.1-0.3-0.3-0.4-0.6c-0.2-0.7,0-1.2,0.5-1.5 c0.4-0.2,0.9-0.4,1.3-0.7c0.3-0.2,0.5-0.6,0.6-1c0.1-0.4,0-0.8-0.3-1.1c1.2-0.7,2.2-0.1,3.2,0.5c0.2,0.2,0.5,0.4,0.6,0.6 c0.3,0.6,0.6,0.9,1.1,1.2c0.3-0.1,0.7-0.1,0.9,0c0.1,0.1,0.2,0.1,0.2,0.2c-1.4,1.8-3.1,3.3-4.9,4.7c0-0.1,0.1-0.1,0.1-0.2 c-0.2,0-0.4-0.2-0.5-0.3c-0.1-0.2,0.1-0.3,0.4-0.3c0.1,0,0.3,0,0.4,0.1c0,0,0-0.1,0.1-0.1c0.4-0.5,1.1-0.8,1.6-1.3 c0.4-0.4,0.5-1,0.3-1.7c-0.3-0.8-1.1-1-1.7-0.4c-0.2,0.2-0.4,0.4-0.5,0.6c0.1,0.1,0.1,0.2,0,0.4c-0.1,0.2-0.2,0.5-0.3,0.5 c-0.1,0-0.1-0.2-0.1-0.4c-0.1,0.1-0.1,0.2-0.2,0.3c-0.4,0.5-1,0.6-1.6,0.6c-0.1,0-0.1,0-0.1,0c0,0,0,0.1,0,0.1 c-0.1,0.2-0.4,0.3-0.8,0.3c-0.3,0-0.6-0.1-0.6-0.3C59.3,69.6,59.7,69.4,60.1,69.4z M10.1,46.8c-0.1-0.2-0.1-0.4,0.1-0.5 c0,0.2,0.1,0.4,0.1,0.6C10.3,46.9,10.2,46.9,10.1,46.8z M64,50.1c-0.2,0-0.5-0.1-0.5-0.3s0.2-0.3,0.5-0.3c0.2,0,0.5,0.1,0.5,0.3 S64.3,50.1,64,50.1z M3,42.5c-0.5,0-0.5,0-0.1-0.3c0.2-0.2,0.6-0.3,0.7-0.3c0.1,0,0.2,0.1,0.1,0.3C3.6,42.3,3.3,42.5,3,42.5z M50.5,41C50.4,41,50.4,41,50.5,41c0.1,0,0.1,0.2,0.2,0.3C50.6,41.2,50.5,41.1,50.5,41z M50.4,52.6C50.5,52.6,50.5,52.6,50.4,52.6 C50.5,52.6,50.5,52.6,50.4,52.6z M50.8,43.4c0.2,0,0.3,0.1,0.3,0.3c0,0.2-0.1,0.3-0.3,0.3c-0.2,0-0.3-0.1-0.3-0.3 C50.5,43.5,50.7,43.4,50.8,43.4z M3.4,37.7C3,38,2.9,38,2.6,37.7c-0.3-0.3-0.3-0.4,0.1-0.7c0.2-0.2,0.6-0.3,0.8-0.3 C4,36.7,4,37.2,3.4,37.7z M51.5,46.2c0.2,0,0.4,0.2,0.7,0.4c0,0.3,0,0.7-0.1,1.1c0,0-0.1,0-0.1,0c-0.2,0.2-0.4,0.3-0.6,0.2 c-0.3,0-0.6-0.4-0.6-0.8c0-0.1,0-0.2,0.1-0.3C50.8,46.3,51.1,46.1,51.5,46.2z M44.2,51.3c0-0.2,0.2-0.3,0.5-0.3 c0.2,0,0.5,0.1,0.5,0.3s-0.2,0.3-0.5,0.3C44.4,51.6,44.2,51.4,44.2,51.3z M45.1,53.4c-0.3-0.3-0.4-0.8-0.2-1.1 c0.1-0.2,0.2-0.4,0.4-0.4c1.3-0.4,1.8-1.4,2-2.6c0.1-0.6,0.8-0.8,1.4-0.6c0.2-0.2,0.5-0.3,0.6-0.2c0.2,0.1,0.1,0.4-0.1,0.6 c0.1,0.1,0.2,0.3,0.3,0.5c0.3,0.8-0.1,1.6-1,1.8c-0.3,0.1-0.6,0.1-0.9,0.2c-0.2,0-0.4,0.2-0.5,0.2c-0.3,0.5-0.5,1.1-0.8,1.6 C46.2,53.7,45.5,53.7,45.1,53.4z M48.3,42.2c-0.1,0.2-0.4,0.5-0.7,0.5c-0.3,0.1-0.5,0-0.4-0.3c0.1-0.2,0.4-0.5,0.7-0.5 C48.3,41.9,48.4,42,48.3,42.2z M69.9,63.9c-0.4,0.7-0.8,1.3-1.2,1.9c0-0.1,0-0.2,0-0.3c0-0.4-0.2-0.8-0.5-1.1l0,0l0,0 c-0.1-0.1-0.3-0.2-0.5-0.3c-0.1,0-0.2-0.1-0.3-0.1c-0.9-0.3-1.5-0.9-1.6-1.9c0-0.3-0.1-0.5-0.2-0.7c-0.1,0-0.2,0-0.3,0 c-0.1-0.1-0.2-0.2-0.1-0.4c-0.2-0.1-0.4-0.2-0.7-0.3c-0.3-0.1-0.6-0.1-0.9-0.2c-0.4-0.1-0.7-0.4-0.9-0.7c-0.1-0.3-0.2-0.5-0.4-0.8 c-0.2-0.5-0.5-0.8-0.9-1.1c0.4-0.7,0.7-1.5,1-2.3c0.1,0.3,0.2,0.6,0.3,0.9c0.2,0.6,0.6,1,1.2,1.2c0.3,0.1,0.6,0.2,0.8,0.3 c0.3,0.1,0.5,0.2,0.7,0.4c0.1-0.1,0.2-0.3,0.2-0.3c0.2,0,0.4,0.2,0.6,0.3c-0.1,0.3-0.2,0.5-0.3,0.6c-0.1-0.1-0.2-0.1-0.3-0.2 c0,0.1,0.1,0.1,0.1,0.2c0.1,0.2,0.2,0.4,0.2,0.5c0.3,0.7,0.8,1,1.6,1.1c0-0.1,0-0.1,0-0.2c0,0,0.2-0.1,0.2-0.1 c0,0.1,0.1,0.2,0.1,0.3c0,0,0,0,0,0c0.6,0.1,0.8,0.4,0.8,1.1c0,0.4,0,0.8,0,1.2C68.9,63.7,69.3,64,69.9,63.9z M48.7,42.2 c0.7,0,1.4,0.4,1.4,1c0.1,0.4,0,0.8,0,1.2c0,0.3-0.5,0.7-0.9,0.7c-0.9,0.1-1.6-0.4-1.5-1.4c0-0.4,0.1-0.8,0.3-1.1 C48.2,42.4,48.5,42.3,48.7,42.2z M14.9,71.5c0.1-0.4,0.5-0.8,0.8-0.6c0.4,0.2,0.3,0.6-0.2,1c0,0,0,0,0,0 C15.3,71.7,15.1,71.6,14.9,71.5z M63.6,63.3c0.2,0.1,0.2,0.3,0,0.5c-0.4,0.4-0.8,0.1-0.5-0.4C63.2,63.2,63.4,63.2,63.6,63.3z M43.5,46.3c0.4-0.2,0.8-0.3,1-0.2c0.1-0.2,0.3-0.3,0.6-0.3c0.7-0.1,1.2,0.1,1.6,0.6c0-0.7,0.5-0.6,0.7,0.2 c0.2,0.6,0.2,0.6,0.7,0.2c0.3-0.3,0.7-0.4,0.8-0.3c0.3,0.3,0.2,0.9-0.1,1.2c-0.4,0.2-1.3-0.1-1.8-0.5c0.1,0.2,0.1,0.4,0.1,0.7 c-0.1,0.1-0.1,0.3-0.2,0.4c0.1,0,0.1,0.1,0.2,0.1c0.2,0.2,0,0.7-0.4,0.7c-0.1,0-0.3-0.2-0.3-0.5c0-0.1,0-0.2,0.1-0.3 c-0.8,0.1-1.6-0.3-2-1c-0.1,0.2-0.3,0.4-0.4,0.4c-0.2,0.1-0.6-0.1-0.9-0.4C42.7,46.7,42.7,46.6,43.5,46.3z M12.5,65.2 c-0.1-0.5,0.2-0.9,0.8-1c0.2,0,0.4-0.1,0.6-0.1c1,0,1.6,0.6,1.6,1.7c0,0.1,0,0.2,0,0.2c0,0.7-0.7,1.2-1.4,1 C13.1,66.9,12.6,66.2,12.5,65.2z M80.2,41.9c-0.3,0-0.5-0.1-0.4-0.3c0.1-0.2,0.4-0.3,0.6-0.3c0.2,0,0.4,0.1,0.4,0.3 C80.8,41.7,80.5,41.9,80.2,41.9z M0.9,34.4C0.9,34.4,0.9,34.4,0.9,34.4C0.9,34,1,33.7,1.1,33.3C1.4,33.1,1.7,33,2,33 c0.2,0,0.6,0.2,0.7,0.4c0.1,0.2,0.1,0.6-0.1,0.8c-0.2,0.3-0.5,0.6-1.1,0.5C1.4,34.6,1.1,34.5,0.9,34.4z M47.5,54.6 c0,0.4-1.5,0.8-1.8,0.5c-0.2-0.2-0.1-0.4,0.9-0.6C47.1,54.4,47.5,54.4,47.5,54.6z M63.1,53c0,0,0-0.1,0-0.1c0-0.1,0-0.2,0.1-0.3 c0.1-0.4,0.5-0.7,1-0.8c0.9-0.2,1.6,0.3,1.6,1.2c0,0.5-0.4,1-0.8,1.1c-0.2,0-0.4,0-0.6,0C63.6,54.1,63.2,53.7,63.1,53z M63.1,47.5 c0.5,0.5,0.9,1,1.5,1.6c-0.4,0.3-0.8,0.5-1.3,0.6C63.3,48.9,63.2,48.2,63.1,47.5z M15.1,21.3c0,0.6-0.5,1.1-1.1,1.2 c-0.6,0-1-0.4-1.1-1.1c-0.1-0.8,0.5-1.4,1.2-1.3C14.7,20.1,15.1,20.7,15.1,21.3z M56.4,33c0.2,0.2-0.8,1.1-1.4,1.5 c-0.2-0.1-0.3-0.2-0.5-0.4c0-0.2,0.1-0.4,0.3-0.7C55.1,32.8,56,32.6,56.4,33z M65.9,36.6c0-0.1,0.1-0.3,0.1-0.4 c0.1-0.2,0.2-0.4,0.4-0.4c0.6-0.2,1.2-0.3,1.7-0.5c0.2-0.1,0.3-0.2,0.5-0.4c0.3,0.5,0.6,1,0.9,1.5c-0.2,0.2-0.3,0.4-0.4,0.7 c-0.1,0.4-0.2,0.8-0.4,1.1c-0.3,0.6-1.5,1-2.1,0.7c-0.2-0.1-0.3-0.2-0.4-0.4c-0.2-0.3-0.3-0.7-0.4-1.1 C65.3,37.3,65.3,37.2,65.9,36.6z M67.5,40.6c0,0.2-0.1,0.4-0.3,0.5c-0.2,0.1-0.3,0.1-0.3-0.1s0.1-0.4,0.3-0.5 C67.4,40.4,67.5,40.5,67.5,40.6z M65.8,31.1c0.4,0.4,0.7,0.9,1.1,1.3C66.3,32.3,65.9,31.8,65.8,31.1z M43.5,39.3c0,0,0-0.1,0-0.1 C43.5,39.2,43.5,39.2,43.5,39.3C43.5,39.2,43.5,39.3,43.5,39.3z M53.8,33.6c-0.1-0.1-0.2-0.1-0.3-0.2 C53.7,33.5,53.7,33.5,53.8,33.6z M43.5,39.3L43.5,39.3C43.5,39.2,43.5,39.3,43.5,39.3C43.5,39.3,43.5,39.3,43.5,39.3z M63.9,31 c0-0.2,0.2-0.3,0.5-0.3c0.2,0,0.5,0.1,0.5,0.3s-0.2,0.3-0.5,0.3C64.1,31.3,63.9,31.1,63.9,31z M43.7,39.8c0-0.2-0.1-0.3-0.1-0.5 c0.2-0.1,0.5-0.2,0.7-0.2c-0.1-0.1-0.1-0.2-0.1-0.3c0-0.2,0.1-0.5,0.3-0.5c0.2,0,0.3,0.2,0.3,0.5c0,0.1,0,0.2-0.1,0.3 c0.3,0,0.5,0,0.8,0.1c0.2,0,0.3,0.1,0.4,0.1c0.1,0,0.2-0.1,0.2-0.1c0.2,0,0.5,0.1,0.5,0.3c0,0.1-0.1,0.2-0.1,0.2 c0.1,0.1,0.1,0.1,0.2,0.2c0.1,0.2,0.2,0.6,0.1,0.9c0.1,0,0.1,0,0.2,0.1c0.3,0.2,0.2,0.3,0,0.6c-0.3,0.3-0.5,0.3-0.7,0.1 c-0.1-0.1-0.1-0.2-0.1-0.2c-0.6,0.3-1.3,0.6-1.7,1c-0.5,0.4-0.6,1.2-1,1.8c-0.2,0.3-0.6,0.5-0.9,0.8c-0.5,0.3-1.2,0-1.4-0.6 c-0.2-0.7,0-1.5,0.5-1.9c0.4-0.3,0.9-0.4,1.3-0.7C43.6,41.3,43.9,40.7,43.7,39.8z M59.9,10.8c0,0.3-0.1,0.5-0.3,0.5 c-0.2,0-0.3-0.1-0.3-0.3s0.1-0.4,0.3-0.5C59.8,10.4,59.9,10.5,59.9,10.8z M61.1,4.7c0.5,0.3,1.1,0.5,1.6,0.8 c0.1,0.4,0.1,0.8,0.2,1.2C63,7.1,63.4,7.4,64,7.5c0.6,0,1.1-0.1,1.4-0.5c0.4,0.3,0.9,0.5,1.3,0.8C66.2,8,65.9,8.5,65.9,9 c0,0.3,0,0.6-0.1,0.9c-0.1,0.5-0.5,0.8-1,0.9c-0.3,0.1-0.6,0.1-0.8,0.1c-0.7,0-1.2-0.3-1.2-0.8c-0.2-1.3-0.7-2.2-1.9-2.8 c-0.5-0.2-0.6-0.8-0.6-1.3C60.2,5.4,60.5,5,61.1,4.7z M61.4,10.2c0.2-0.2,0.6-0.5,0.8-0.5c0.4,0,0.4,0.1,0.1,0.5 c-0.2,0.2-0.6,0.5-0.8,0.5C61.2,10.7,61.1,10.6,61.4,10.2z M5.4,56.6C5.5,56.3,5.7,56,6,55.9c0.3-0.1,0.4,0.1,0.3,0.4 c-0.1,0.3-0.3,0.6-0.5,0.7C5.5,57,5.4,56.9,5.4,56.6z M67,56.9c0.1,0.1,0.1,0.3,0,0.5c-0.2,0.4-1,0.3-1,0C66,57,66.8,56.7,67,56.9z M40.9,36.5c0.2,0,0.4,0,0.6,0c0.4,0,0.9,0,1.3,0.1c0.1,0.1,0.1,0.1,0.2,0.2c0,0.1,0.1,0.1,0.1,0.2c0.1-0.1,0.2-0.2,0.4-0.3 c0.6,0.1,1.1,0.2,1.6,0.4c-0.2,0.1-0.4,0.2-0.7,0.3c-0.6,0.2-0.9,0.2-1.2,0.1c0.2,0.6,0.2,1.2,0.2,1.8c-0.5-0.4-1.1-0.3-1.6-0.4 c-0.5-0.2-0.8-0.5-1.1-1C40.6,37.3,40.7,36.8,40.9,36.5z M58.2,14.2c0-0.1,0-0.1,0-0.2c0-0.2,0.4-0.3,2.1-0.6 c-0.5-0.3-0.7-0.9-0.5-1.6c0.1-0.3,0.3-0.6,0.5-0.7c0.5-0.3,1.1-0.3,1.7-0.1c0.4,0.1,0.7,0.5,0.7,0.9c0.1,0.9,0.7,1.4,1.6,1.5 c0.2,0,0.4,0.1,0.6,0.1c0.8,0.2,1,0.7,0.9,1.6c-0.1,0.8-0.5,1.3-1.3,1.4c-0.4,0.1-0.8,0.1-1.2,0c-0.3-0.1-0.6-0.3-0.6-0.5 c-0.1-0.9-0.5-1.5-1.1-1.9c0,0-0.1,0-0.1,0c-0.2-0.1-0.9-0.1-1.6,0.2c-0.5,0.2-0.8,0.2-1.1,0.3c0.1,0.1,0.2,0.2,0.3,0.3 c-0.3-0.2-0.7-0.4-1-0.5C58,14.2,58.1,14.2,58.2,14.2z M6.1,47.3c-0.1-0.5,0-1,0.2-1.4c0.2-0.5,0.9-0.8,1.5-0.7 c0.6,0.1,1,0.6,1,1.2c0,0.1,0,0.2,0,0.3c0,1-0.5,1.4-1.4,1.5c-0.2,0-0.4,0-0.6-0.1C6.5,48.1,6.2,47.7,6.1,47.3z M63.2,28.5 c0.3,0.3,0.6,0.6,0.9,0.9C63.6,29.3,63.3,29,63.2,28.5z M40.4,53.6c0.3,0.3,0.2,0.7-0.3,0.7c-0.2,0-0.5-0.1-0.5-0.3 C39.6,53.6,40.1,53.4,40.4,53.6z M33.3,48.1c0.2,0.2,0.3,0.3,0.5,0.5c-0.1,0.2-0.3,0.3-0.6,0.3c-0.5,0-0.6-0.1-0.3-0.5 C33.1,48.3,33.2,48.2,33.3,48.1z M39.9,49.1C39.9,49.1,39.9,49.1,39.9,49.1c0-0.1,0.1-0.1,0.3-0.2C40.2,49.1,40.1,49.1,39.9,49.1z M38.4,37.4c0.6-0.4,1.3-0.7,2.1-0.9c0,0.1-0.2,0.2-0.5,0.5C39.2,37.7,38.6,37.8,38.4,37.4z M39.3,58.8c0-0.6,0.3-0.8,0.9-0.5 c0.8,0.4,0.7,0.9-0.2,0.9C39.7,59.1,39.3,59,39.3,58.8z M40.6,50c0-0.1,0-0.1,0-0.2c0-0.1,0.1-0.2,0.1-0.3c0.2-0.5,0.8-0.9,1.4-0.9 c0.5,0,1.1,0.5,1.2,1.1c0.2,0.6-0.2,1.3-0.7,1.5c-0.6,0.2-1.1,0.4-1.7,0.2C40.7,51.3,40.6,50.6,40.6,50z M42.3,41.6 c-0.1,0-0.3-0.2-0.3-0.5c0-0.5,0.3-0.6,0.7-0.3C43,41.1,42.7,41.6,42.3,41.6z M45,58c-0.4,0.2-0.8,0.4-1.3,0.6 c0-0.1,0.1-0.2,0.1-0.3c0.1-0.2,0.5-0.3,0.7-0.4C44.7,58,44.9,58,45,58z M41.2,54.9c0-0.2,0.2-0.3,0.4-0.4c1.4-0.1,2.3,0.8,2.1,2.1 c-0.1,0.3-0.5,0.7-0.8,0.7C41.6,57.1,40.9,56.1,41.2,54.9z M42.7,53.4c0.2,0,0.2,0.1,0.1,0.3c-0.1,0.2-0.3,0.3-0.5,0.3 s-0.2-0.1-0.1-0.3C42.3,53.5,42.5,53.4,42.7,53.4z M40.5,51c0,0.2-0.1,0.3-0.3,0.3c-0.2,0-0.3-0.1-0.3-0.3c0-0.2,0.1-0.3,0.3-0.3 C40.4,50.7,40.5,50.8,40.5,51z M1.8,53.2c0,0.1-0.1,0.1-0.2,0.2c-0.1-0.4-0.2-0.8-0.3-1.2c0.2,0.1,0.3,0.2,0.4,0.3 C1.9,52.6,1.9,53,1.8,53.2z M39.7,56.4c0.1-0.2,0.4-0.5,0.7-0.5c0.3-0.1,0.5,0,0.4,0.3c-0.1,0.2-0.4,0.5-0.7,0.5 C39.8,56.7,39.6,56.6,39.7,56.4z M7,58c0,0,0.1,0,0.1,0c-0.3-0.1-0.5-0.2-0.5-0.4c0-0.5,0.9-0.6,1.3-0.2c0.2,0.2,0.2,0.3,0.2,0.4 c0.5-0.1,0.9-0.3,1.2-0.8c0.3-0.5,0.6-1,1.1-1.4c0.4-0.2,1-0.2,1.3,0.2c0.1,0.1,0.1,0.4,0.2,0.5c-0.1,0.2-0.1,0.4-0.3,0.5 c-0.2,0.2-0.4,0.4-0.7,0.5c-0.9,0.3-1.6,0.8-2,1.7c-0.1,0.3-0.4,0.5-0.6,0.6C8,59.9,7.6,60,7.2,59.8c-0.5-0.2-0.8-0.7-0.7-1.2 C6.6,58.4,6.7,58.1,7,58z M8.4,65.6c-0.4-0.4-0.8-0.9-1.1-1.3c0.2,0,0.3,0,0.5,0c0.4,0.1,0.7,0.4,0.8,0.8 C8.5,65.2,8.5,65.4,8.4,65.6C8.4,65.6,8.4,65.6,8.4,65.6z M66.4,52.2c0.1-0.2,0.3-0.3,0.5-0.3s0.3,0.1,0.3,0.3 c0,0.2-0.2,0.3-0.5,0.3C66.5,52.5,66.3,52.4,66.4,52.2z M39.7,46.3c-0.6-0.1-1.1-0.2-1.5-0.5c0.4-0.2,0.7-0.2,1.1,0.1 C39.4,46.1,39.6,46.2,39.7,46.3z M40.3,41.1c-0.2,0.5-0.6,0.8-1.1,0.9c-0.5,0.1-1-0.2-1.2-0.6c-0.4-0.7-0.3-1.4,0.2-1.9 c0.2-0.2,0.5-0.2,0.7-0.3C39.9,39.2,40.6,40.5,40.3,41.1z M36.9,44.7c-0.4-0.5-0.6-1.1-0.7-1.7c0,0,0,0,0,0 c0.2,0.1,0.4,0.1,0.5,0.3C37.1,43.6,37.2,44.3,36.9,44.7z M4.1,56c0-0.2,0.1-0.5,0.2-0.8c0.3,0.3,0.5,0.5,0.6,0.7 c0.1,0.2,0,0.4-0.2,0.4C4.4,56.4,4.1,56.3,4.1,56z M2.7,52.2c0-0.2,0.2-0.3,0.5-0.3s0.5,0.1,0.5,0.3c0,0.2-0.2,0.3-0.5,0.3 S2.7,52.3,2.7,52.2z M76.1,15.3c-0.1-0.1-0.2-0.3-0.2-0.4c0.2,0.2,0.5,0.4,0.7,0.7C76.4,15.6,76.2,15.5,76.1,15.3z M1,47.7 c-0.6-0.4-0.6-1.1,0-1.4c0.2-0.1,0.4-0.2,0.5-0.2c0.4-0.1,0.8,0.2,0.8,0.8C2.2,47,2,47.4,1.8,47.7C1.6,47.9,1.3,47.8,1,47.7z M14.5,71.2c-0.4-0.3-0.7-0.5-1.1-0.8c0-0.1,0-0.1,0-0.2c0-0.2,0.3-0.5,0.5-0.8c0.2,0.3,0.4,0.5,0.5,0.7 C14.5,70.5,14.7,70.8,14.5,71.2z M77.8,25.5c0.2,0,0.3,0.1,0.3,0.3s-0.1,0.3-0.3,0.3c-0.2,0-0.3-0.1-0.3-0.3S77.6,25.5,77.8,25.5z M74.8,16.1c0.4-0.1,1-0.2,1.3-0.3c0.8,0,0.5,0.7-0.4,0.8c-0.4,0.1-0.9,0-1.2-0.1C74.1,16.4,74.1,16.3,74.8,16.1z M76.2,31.5 c-0.1-0.2-0.1-0.4-0.2-0.5c0.2,0,0.4,0,0.5,0h0.8l-0.9,0.5C76.4,31.5,76.3,31.5,76.2,31.5z M2.1,47.3c0-0.2,0.3-0.3,0.6-0.3 c0.3,0,0.6,0.1,0.6,0.3S3,47.6,2.7,47.6C2.3,47.6,2.1,47.5,2.1,47.3z M11.5,68.7c0,0,0,0.1,0,0.1c-0.1-0.1-0.2-0.2-0.3-0.2 C11.3,68.6,11.4,68.7,11.5,68.7z M81.4,28.9c0-0.2,0.2-0.3,0.5-0.3c0.2,0,0.5,0.1,0.5,0.3c0,0.2-0.2,0.3-0.5,0.3 C81.6,29.2,81.4,29,81.4,28.9z M11.8,53.1c0-0.1,0.2-0.4,0.3-0.4c0,0,0,0,0,0c0.3,0.6,0.5,1.2,0.8,1.8c-0.3-0.1-0.5-0.2-0.6-0.4 c-0.1-0.2-0.1-0.3-0.1-0.5c-0.1,0-0.1,0-0.2,0C11.9,53.5,11.8,53.2,11.8,53.1z M78.6,37.7c0.2,0,0,0.2-0.3,0.4 c-0.3,0.2-0.6,0.3-0.7,0.3c0-0.1,0-0.1,0-0.2C77.6,38,78.2,37.7,78.6,37.7z M81.1,23.7c0-0.4,0.9-0.7,1.2-0.5 c0.5,0.3,0.3,0.7-0.5,0.7C81.5,24,81.1,23.9,81.1,23.7z M10.5,60c0,0.2-0.1,0.3-0.3,0.3c-0.2,0-0.3-0.1-0.3-0.1s0.1-0.2,0.3-0.3 C10.4,59.8,10.5,59.9,10.5,60z M78.3,40.2c-0.2-0.3-0.3-0.6-0.4-0.9c0,0,0,0,0,0C78.1,39.4,78.3,39.8,78.3,40.2z M84,26 c0.1,0.1,0.1,0.3,0.2,0.4c-0.2-0.1-0.3-0.1-0.3-0.3C83.9,26.1,83.9,26,84,26z M76.9,18.9c0-0.2,0.1-0.3,0.3-0.3 c0.2,0,0.3,0.1,0.3,0.3c0,0.2-0.1,0.3-0.3,0.3C77,19.2,76.9,19,76.9,18.9z M79.4,19.1c-0.2-0.2-0.2-0.4-0.2-0.6 c0.3,0.4,0.6,0.8,0.9,1.2c0,0,0,0,0,0C79.9,19.5,79.6,19.3,79.4,19.1z M69.6,11.3c0.2,0,0.3,0.1,0.3,0.1c0,0.1-0.1,0.2-0.3,0.3 c-0.2,0.1-0.3,0-0.3-0.1C69.3,11.4,69.4,11.3,69.6,11.3z M3.7,48.8c-0.1,0.2-0.3,0.3-0.5,0.3S3,49,3.1,48.8 c0.1-0.2,0.3-0.3,0.5-0.3C3.8,48.5,3.8,48.7,3.7,48.8z M67.3,58.6c0.1-0.2,0.3-0.3,0.5-0.2c0.2,0.1,0.2,0.3,0,0.5 C67.4,59.3,67,59,67.3,58.6z M70.6,45.1c0.6,0,1,0.3,1,0.8c0,0.7-0.6,1.3-1.2,1.3c-0.5,0-0.9-0.4-1-0.8c0-0.1,0-0.2,0-0.3 c0,0,0,0,0,0c-0.2,0-0.3-0.1-0.3-0.1s0.1-0.2,0.3-0.3c0.1,0,0.1-0.1,0.2,0C69.7,45.3,70.1,45.1,70.6,45.1z M81.4,39.2 c0-0.2,0.1-0.3,0.3-0.3c0.2,0,0.5-0.1,0.8-0.2c0.4-0.1,0.5-0.1,0.4,0.2C82.7,39.4,81.4,39.7,81.4,39.2z M67.4,56.3 c-0.2,0.1-0.3,0-0.3-0.3c0-0.1,0.1-0.2,0.2-0.1c0.1,0,0.1,0.1,0.2,0.2C67.4,56.1,67.4,56.3,67.4,56.3z M5.5,51.6 c-0.3,0-0.4-0.1-0.3-0.3C5.4,51.1,5.5,51,5.7,51S6,51.1,6,51.3C6,51.4,5.8,51.6,5.5,51.6z M4.8,60.1c0-0.2,0.1-0.3,0.3-0.3 s0.3,0.1,0.3,0.3c0,0.2-0.1,0.3-0.3,0.3S4.8,60.2,4.8,60.1z M4,49.6c0-0.4,0.2-0.8,0.6-0.7c0.2,0,0.4,0.3,0.5,0.4 c0,0.6-0.2,0.9-0.6,0.9C4.3,50.1,4,49.9,4,49.6z M69.4,49.1c0.4,0.4,0.2,0.7-0.6,0.7c-0.1,0-0.2,0-0.2,0c0,0.1,0,0.1,0,0.2 c0.1,0.5-0.3,1-0.8,1.1c-0.5,0.1-1-0.2-1.2-0.6c-0.2-0.6,0-1.4,0.5-1.9c0.1-0.1,0.2-0.1,0.3-0.1c0.2,0.1,0.4,0.1,0.5,0.2 c0.1,0.1,0.2,0.2,0.3,0.4C68.6,48.8,69.2,48.8,69.4,49.1z M66.6,8.5c0,0.2-0.1,0.3-0.3,0.3c-0.2,0-0.3-0.1-0.3-0.1s0.1-0.2,0.3-0.3 C66.5,8.3,66.6,8.4,66.6,8.5z M71.1,18.6c-0.3-0.3-0.3-0.5,0-0.7c0.3-0.3,0.4-0.2,0.4,0.4C71.4,18.8,71.4,18.9,71.1,18.6z M67.7,56.3c-0.1-0.1-0.1-0.1-0.1-0.2c0.1,0,0.2-0.1,0.3-0.1c0,0.1,0,0.2,0,0.2C67.8,56.3,67.8,56.3,67.7,56.3z M4.2,45 c-0.2-0.1-0.4-0.1-0.5-0.2c-0.1-0.2-0.2-0.3-0.3-0.5c0,0,0,0,0,0c-0.2,0-0.3-0.1-0.3-0.1c0-0.1,0.1-0.2,0.2-0.2 c0-0.2-0.1-0.5,0-0.7c0.1-0.4,0.6-0.8,1-0.9c0.5,0,1,0.1,1.3,0.4c0.2,0.2,0.3,0.6,0.2,0.8C5.6,44.3,5,44.8,4.2,45z M66.7,10.1 c0.3,0,0.5,0.2,0.4,0.3c-0.1,0.2-0.2,0.3-0.4,0.3c-0.2,0-0.3-0.2-0.4-0.3C66.3,10.2,66.5,10.1,66.7,10.1z M64.8,17.9 c0,0.1-0.1,0.3-0.2,0.5c-0.2-0.2-0.5-0.3-0.7-0.5c0-0.3,0.2-0.5,0.4-0.5C64.6,17.3,64.8,17.6,64.8,17.9z M69.3,41.3 c0.2,0,0.3,0.1,0.3,0.3c0,0.2-0.1,0.3-0.1,0.3c-0.1,0-0.2-0.1-0.3-0.3C69.1,41.4,69.1,41.3,69.3,41.3z M69.3,39.6 c0.1-0.5,0.3-0.9,0.9-1.1c0.1,0,0.3-0.1,0.5-0.1c0.9,1.9,1.7,3.8,2.2,5.9c-0.4-0.3-0.7-0.7-0.8-1.3c-0.1-0.3-0.5-0.6-0.9-0.8 c0,0,0,0-0.1,0c-0.1,0-0.2,0-0.3,0c-0.6,0-0.8-0.1-0.6-0.4c-0.6-0.3-0.8-0.9-0.8-1.6C69.3,40,69.3,39.8,69.3,39.6z M61.4,35.8 c0-0.4,0.6-0.7,1.1-0.5c0.2,0.1,0.4,0.3,0.3,0.5C62.6,36.2,61.4,36.2,61.4,35.8z M52.4,11.9c-0.2-0.1-0.5-0.2-0.7-0.2 c0.1,0,0.2-0.1,0.3-0.1C52.6,11.6,52.8,11.7,52.4,11.9z M34.7,9.9c0.2-0.1,0.3-0.1,0.4-0.1c0.1,0,0.2,0.1,0.2,0.3 c0,0.1-0.1,0.2-0.1,0.3c0.1,0,0.2,0,0.3,0.1c0.4,0,0.8,0,1.2-0.1c0.3-0.1,0.6-0.3,0.7-0.5c0.3-0.5,0.5-1.1,0.7-1.6 c0.3-0.7,1-0.6,1.5-0.4c0.6,0.3,0.9,0.7,0.9,1.5c0,0.2-0.1,0.5-0.3,0.7c-2.2,0.1-4.4,0.4-6.6,0.9c-0.4-0.3-0.8-0.5-1.3-0.7 c-0.2-0.1-0.3-0.3-0.4-0.4c-0.6-0.7-0.4-1.5,0.4-2c0.2-0.1,0.4-0.2,0.6-0.2c0.4-0.1,1.1,0.3,1.2,0.6c0.1,0.5,0.2,1,0.4,1.4 C34.7,9.8,34.7,9.9,34.7,9.9z M53.4,12.2c0.2-1.1,0.9-1.7,1.9-1.8c0.5,0,0.9,0.3,1,0.8c0,0,0,0,0,0c0.3,0,0.6,0.1,0.6,0.3 c0,0.2-0.3,0.3-0.6,0.3c0,0,0,0-0.1,0c-0.1,0.5-0.3,0.9-0.7,1.2C54.9,12.8,54.2,12.5,53.4,12.2z M50.5,7.6c0,0.2-0.1,0.3-0.3,0.3 c-0.2,0-0.3-0.1-0.3-0.3s0.1-0.3,0.3-0.3C50.4,7.3,50.5,7.5,50.5,7.6z M54.7,5.5c0.1,0,0.1,0.1,0.1,0.2c0,0.1,0,0.2-0.1,0.2 c-0.2,0.1-0.3,0-0.2-0.3C54.5,5.6,54.6,5.5,54.7,5.5z M8.1,55.8c0.2,0,0.3,0.1,0.3,0.3c0,0.2-0.2,0.3-0.5,0.3 c-0.3,0-0.4-0.1-0.3-0.3C7.8,55.9,8,55.8,8.1,55.8z M50.9,11.4c-0.3-0.1-0.6-0.2-0.9-0.3c0.1-0.4,0.4-0.7,0.6-0.7 c0.4-0.1,0.5,0.1,0.5,0.6C51.1,11.2,51,11.3,50.9,11.4z M8.2,53.9c-0.6,0.1-1.2-0.4-1.2-1c0-0.2,0-0.3,0.1-0.4 c-0.3,0-0.5-0.1-0.4-0.3c0.1-0.2,0.4-0.3,0.6-0.3c0.1,0,0.2,0,0.3,0.1c0.1-0.1,0.3-0.1,0.5-0.1c0.6,0,1.1,0.6,1,1.1 C9.1,53.5,8.7,53.8,8.2,53.9z M11.2,61.9C11.2,61.9,11.1,61.9,11.2,61.9c0.4,0.1,0.6,0.4,0.7,0.8c0,0.1,0,0.2,0.1,0.3 c0,0.4-0.2,0.9-0.5,1c-0.4,0.2-1.1-0.1-1.3-0.4c-0.2-0.4-0.2-0.7,0-1.1c0.1-0.2,0.2-0.3,0.4-0.4c0,0-0.1-0.1-0.1-0.1 c-0.1-0.2,0-0.3,0.3-0.3S11.2,61.7,11.2,61.9z M42.8,26.6c-0.3-0.1-0.7-0.2-0.9-0.2c-0.5,0-0.6-0.8-0.2-1.1 c0.2-0.1,0.6,0.1,0.9,0.3C43.3,26.4,43.4,26.9,42.8,26.6z M7.2,32.2c0,0.2-0.1,0.3-0.3,0.3s-0.3-0.1-0.3-0.3s0.1-0.3,0.3-0.3 S7.2,32,7.2,32.2z M46.3,10.4c-0.3,0-0.5-0.1-0.8-0.1c0-0.1,0.2-0.2,0.4-0.2C46,10.1,46.2,10.2,46.3,10.4z M35.5,8.6 c0.2,0,0.5,0.1,0.5,0.3s-0.2,0.3-0.5,0.3c-0.2,0-0.5-0.1-0.5-0.3S35.3,8.6,35.5,8.6z M41.4,3.6c0-0.1,0.1-0.2,0.3-0.3 c0.2-0.1,0.3,0,0.3,0.1s-0.1,0.3-0.3,0.3C41.6,3.7,41.4,3.7,41.4,3.6z M36.6,1.7C36.6,1.7,36.6,1.7,36.6,1.7 C36.6,1.7,36.6,1.7,36.6,1.7C36.6,1.7,36.6,1.7,36.6,1.7C36.6,1.7,36.6,1.7,36.6,1.7z M41.1,2.8c-0.2,0-0.3-0.1-0.3-0.1 s0.1-0.2,0.3-0.3c0.2-0.1,0.3,0,0.3,0.1S41.3,2.8,41.1,2.8z M36.6,2.9c-0.2,0.3-0.3,0.6-0.2,0.8c0.1,0.2,0,0.4-0.3,0.5 c-0.6,0.2-0.9,0-0.6-0.6c0.1-0.2,0.3-0.5,0.3-0.7c0-0.2,0.3-0.3,0.6-0.4C36.9,2.5,37,2.5,36.6,2.9z M35.2,6.4 c0.3,0.2,0.7,0.4,1.1,0.5c0.7,0.2,1.2-0.1,1.4-0.8c0.1-0.4,0.1-0.8,0.2-1.2c0.2-0.6,0.9-0.9,1.5-0.6c0.3,0.2,0.7,0.4,0.9,0.7 c0.2,0.3,0.3,0.7,0.5,1.1c0.4,0.8,1.3,1,2,0.6c0.2-0.1,0.6-0.3,0.6-0.6c0.2-0.8,0.6-1.4,1.2-1.9c0.1,0,0.2,0,0.3,0 c0.7,0,1-0.4,0.5-0.7c0.1,0,0.1-0.1,0.2-0.1c0.1,0,0.1-0.2,0.2-0.2c0.4-0.5,0.4-1.5,0-1.9c-0.4-0.4-0.8-0.8-1.2-1.2 C43.2,0,41.8,0,40.4,0c-0.6,0.7-1.5,1-2.4,1.1c-0.5,0.1-0.9,0.3-1.3,0.6c0,0,0,0,0,0c0.2,0.2,0.4,0.4,0.5,0.7 c0.4,1.1,0.2,1.5-0.8,1.8c-0.4,0.1-0.8,0.2-1.1,0.4C34.6,5,34.6,6,35.2,6.4z M40.8,1.4C41,0.9,41.5,0.6,42,0.7 c0.8,0.1,1.4,0.5,1.6,1.1c0.3,0.8,0,1.5-0.7,2.1c-0.3,0.2-0.6,0.3-0.8,0.1C40.9,3.6,40.5,2.6,40.8,1.4z M26.6,29.1 c0.4-0.6,0.9-1.1,1.4-1.6c0,0.1,0,0.2,0,0.2c0,0.8-0.5,1.4-1.1,1.4C26.8,29.2,26.7,29.1,26.6,29.1z M7.1,33.5 c0.3-0.1,0.6,0,0.8,0.2c0.2,0.2,0.3,0.5,0.1,0.7c-0.1,0.1-0.3,0.2-0.5,0.3c-0.2-0.2-0.4-0.3-0.6-0.5C6.7,34,6.9,33.6,7.1,33.5z M10.8,21.9c0.2,0,0.3,0.1,0.3,0.3c0,0.2-0.1,0.3-0.1,0.3c-0.1,0-0.2-0.1-0.3-0.3C10.6,22,10.7,21.9,10.8,21.9z M49.3,73.7 c0-0.4,0.6-0.7,0.9-0.5c0.2,0.1,0.2,0.3,0.1,0.5C50.1,74,49.3,74,49.3,73.7z M9.6,34.8c-0.2-0.1-0.2-0.2,0.2-0.2 c0.3,0,0.5,0.1,0.4,0.2C10.1,34.9,9.8,34.9,9.6,34.8z M9.3,19.4c0-0.2,0-0.3,0-0.5C9.2,19,9,19.1,8.9,19.1 c-0.3-1.7,0.4-2.7,1.5-3.8c0.5,0.4,0.9,0.8,1.4,1.2c-0.2,0.4-0.4,0.7-0.6,0.9c0.3,0.3,0.6,0.8,0.5,1.4c-0.1,0.5-0.3,0.8-0.7,0.9 c-0.4,0.1-0.8,0.1-1.2,0.1C9.6,20,9.3,19.7,9.3,19.4z M14.1,26.6c-0.4,0.7-0.8,1.4-1.1,2.1c-0.2-0.3-0.4-0.7-0.4-1.2 c0-0.4,0.4-1.1,0.8-1.1C13.7,26.4,13.9,26.5,14.1,26.6z M11.8,28.9c0-0.2,0.1-0.3,0.3-0.3c0.2,0,0.3,0.1,0.3,0.1s-0.1,0.2-0.3,0.3 C11.9,29.1,11.8,29,11.8,28.9z M24.1,33.1c0.2-0.5,0.5-1,0.8-1.5c0,0.1,0.1,0.2,0.1,0.2c0,0,0.1,0,0.1,0c0.5,0,0.6,0.1,0.2,0.3 c0,0,0,0-0.1,0c0.3,0.3,0.7,0.3,1.2,0.2c0.4-0.1,0.8-0.3,1-0.5c0.1-0.1,0.2-0.3,0.3-0.5c0,0,0-0.1,0-0.1c0-0.2,0.1-0.3,0.3-0.3 c0.1-0.1,0.1-0.2,0.2-0.3c0.4-0.6,1.5-0.7,2.1-0.2c0.5,0.4,0.6,1.2,0.2,1.6c0,0,0,0-0.1,0.1c0,0.1-0.1,0.3-0.3,0.3 c-0.1,0.1-0.1,0.1-0.2,0.2c-0.8,0.5-1.4,1-1.9,1.8c-0.5,0.8-1.2,0.9-2.1,0.7c-0.5-0.1-0.8-0.4-1.1-0.9 C24.7,33.8,24.5,33.4,24.1,33.1z M11.8,27c-0.3,0-0.6-0.1-0.6-0.1s0.3-0.2,0.6-0.3c0.3-0.1,0.6,0,0.6,0.1 C12.4,26.9,12.1,27,11.8,27z M10.2,36c0.1,0,0.2,0,0.4,0c-0.2,0.8-0.3,1.5-0.4,2.3c-0.3-0.3-0.6-0.7-0.8-1.1 C9.1,36.6,9.6,36,10.2,36z M31.2,24.6c0.2-0.1,0.3-0.3,0.5-0.4c0.3-0.2,0.5-0.3,0.8-0.5c0.5,0-0.1,0.8-0.8,0.8 C31.4,24.6,31.2,24.6,31.2,24.6z M6.5,39.6c0.1-0.2,0.4-0.3,0.6-0.5c1.1,0,1.8,0.9,1.4,1.8c-0.3,0.7-0.8,1.1-1.6,1 c-0.2,0-0.4-0.2-0.4-0.3C6.2,41,6.2,40.3,6.5,39.6z M1,44.6c0.3,0,0.5,0.1,0.4,0.2c-0.1,0.1-0.4,0.1-0.6,0 C0.5,44.7,0.6,44.7,1,44.6z M7.2,37c0.3,0,0.6,0.1,0.6,0.3c0,0.3-1.2,0.8-1.4,0.5C6.1,37.5,6.6,37,7.2,37z M31.1,24.6 c0,0.3-0.2,0.6-0.4,0.8c0,0-0.1,0-0.1,0.1c0,0.2-0.1,0.3-0.3,0.3c-0.1,0-0.1,0-0.1,0c-0.2,0.1-0.4,0.1-0.6,0.1 C30,25.4,30.5,25,31.1,24.6z M37,0.2c-0.1,0.5-0.3,1-0.4,1.4c0-0.3-0.2-0.5-0.5-0.6c-0.3-0.1-0.6-0.4-0.7-0.6 C36,0.4,36.5,0.3,37,0.2z M1.6,41.5c-0.7,0-1.1-0.4-1.1-1.1c0-0.8,0.5-1.5,1.1-1.4c0.7,0.1,1.1,0.7,1.2,1.5 C2.8,41.1,2.3,41.5,1.6,41.5z M7.1,29.4c-0.6-0.1-0.8-0.6-0.8-1.1c-0.1-0.6,0.1-1.2,0.6-1.6c0.4-0.3,1.3-0.3,1.7,0 C8.7,26.8,8.9,27,9,27.1c0.2,0.4,0.3,0.7,0.4,1.1c0,0.1,0,0.1,0.1,0.2c0,0,0,0,0.1-0.1c0.3-0.2,0.7-0.4,0.8-0.4 c0.4,0,0.1,0.7-0.5,1c0,0-0.1,0-0.1,0.1c0.2,0.2,0.4,0.4,0.7,0.5c0.8,0.4,1.3,0.9,1.6,1.6c-0.2,0.5-0.4,1.1-0.6,1.6 c-0.6-0.2-1.1-0.3-1.7-0.4c-0.1-0.2-0.3-0.3-0.4-0.5C9.2,30.5,8.5,29.7,7.1,29.4z M43.5,75c-0.1,0.1-0.3,0.4-0.5,0.6 c-1,0.5-2.1-0.3-2-1.3c0-0.2,0.2-0.6,0.4-0.7C42.3,73.1,43.5,73.9,43.5,75z M32.7,25.2c0.2,0,0.3,0.1,0.3,0.3 c0,0.2-0.1,0.3-0.3,0.3s-0.3-0.1-0.3-0.3C32.4,25.3,32.5,25.2,32.7,25.2z M31.4,30.4c0,0.2-0.2,0.3-0.5,0.3c-0.2,0-0.5-0.1-0.5-0.1 c0-0.1,0.2-0.2,0.5-0.3C31.2,30.2,31.4,30.2,31.4,30.4z M31.9,34.6c0.1-0.1,0.2-0.2,0.4-0.3c0-0.3,0.1-0.6,0.3-0.8 c0.6-0.5,1.5-0.3,1.7,0.3c0.1,0.3,0.2,0.7,0.2,1c-0.1,0.1-0.2,0.3-0.4,0.4c-0.5-0.1-0.9-0.2-1.4-0.4c-0.1,0-0.2-0.1-0.2-0.1 c-0.1,0.1-0.2,0.1-0.3,0.1C31.9,34.9,31.8,34.8,31.9,34.6z M32.6,27.7C32.6,27.7,32.7,27.7,32.6,27.7 C32.7,27.7,32.7,27.7,32.6,27.7C32.7,27.7,32.7,27.7,32.6,27.7c0.1,0,0.2,0,0.2,0c0.2,0,0.3,0.1,0.3,0.2c0,0,0,0,0,0 c0.3,0.4,0.2,0.9-0.2,1.3c0,0,0,0,0,0c0,0,0,0,0,0c0,0.2-0.2,0.3-0.5,0.3c-0.3,0-0.4-0.1-0.3-0.3c0,0,0.1-0.1,0.1-0.1 c-0.2-0.2-0.2-0.6-0.2-0.9C32.2,27.9,32.3,27.7,32.6,27.7z M31.1,37c0,0.1-0.1,0.2-0.1,0.2c0,0.6-0.7,1.1-1.2,1 c-0.2,0-0.4-0.2-0.4-0.3c-0.1-0.2-0.1-0.4-0.1-0.6c-0.3-0.1-0.2-0.3,0.2-0.5c0,0,0,0,0,0c0.2-0.3,0.6-0.5,1.1-0.4 c0,0,0.1,0.1,0.2,0.2C31,36.6,31.1,36.7,31.1,37z M30.1,52.1c-0.2-0.2,0.6-1.4,1-1.4c0.2,0,0.4,0.1,0.4,0.2 C31.4,51.2,30.2,52.3,30.1,52.1z M29,46.1c0,0.2-0.1,0.3-0.3,0.3c-0.2,0-0.3-0.1-0.3-0.1s0.1-0.2,0.3-0.3 C28.9,45.9,29,45.9,29,46.1z M29.6,42.7c0.4,0,0.8,0.2,1.1,0.5c0.4,0.5,0.3,1.2-0.3,1.5c-0.6,0.3-1.4,0-1.8-0.6 C28.3,43.3,28.8,42.6,29.6,42.7z M37.7,56.4c-0.1-0.2,0-0.3,0.1-0.5c0.2-0.1,0.3,0,0.3,0.3C38.1,56.8,37.9,56.9,37.7,56.4z M49.7,0.9c0.3,0.1,0.7,0.1,1,0.2c-0.1,0.1-0.3,0.2-0.5,0.2C49.8,1.3,49.7,1.1,49.7,0.9z M49,77.7c-0.2,0-0.4,0.1-0.5,0.1 c0-0.1,0-0.1,0-0.2c0.1-0.2,0.3-0.5,0.5-0.5c0.2-0.1,0.4,0,0.3,0.3C49.2,77.5,49.1,77.6,49,77.7z M44.1,72.1 c-0.1-0.8,0.4-1.5,1-1.6c0.7-0.1,1.5,0.7,1.6,1.4c0.1,0.6-0.4,1.2-0.9,1.3C44.9,73.5,44.2,72.9,44.1,72.1z M42.3,59.2 c-0.2,0.1-0.4,0.1-0.6,0.2c0,0,0,0,0,0c0-0.1,0.1-0.2,0.3-0.3C42.2,58.9,42.4,58.9,42.3,59.2C42.4,59.1,42.3,59.2,42.3,59.2z M28.7,44.6c0,0.1-0.3,0.3-0.6,0.3s-0.6-0.1-0.6-0.1s0.3-0.2,0.6-0.3S28.7,44.5,28.7,44.6z M47.2,68.3c0.5-0.1,1-0.3,1.6-0.4 c0.3,0.1,0.6,0.3,0.8,0.7c0.2,0.3,0.3,0.7,0.5,1.1c0.2,0.5,0.6,0.7,1.2,0.7c0.6,0,1.2-0.1,1.5-0.7c0.2-0.5,0.4-0.9,0.6-1.4 c0.2-0.3,0.4-0.6,0.6-0.7c-0.1,0-0.3,0.1-0.5,0.1c-0.4,0-0.8-0.1-0.8-0.2c0-0.2,0.3-0.3,0.8-0.3c0.4,0,0.8,0.1,0.8,0.2 c0,0,0,0.1,0,0.1c0.2-0.1,0.3-0.1,0.5-0.1c0.3,0,0.6,0,0.9-0.1c0.5-0.1,0.8-0.4,1-0.8c-0.2,0.1-0.3,0-0.3-0.2 c0-0.2,0.1-0.3,0.3-0.3c0.1,0,0.1,0,0.2,0c0.1-0.3,0.3-0.7,0.4-1c0.2-0.4,0.9-0.5,1.3-0.2c0.6,0.4,0.9,1.2,0.6,1.8 c0.1,0,0.2-0.1,0.2-0.1c0.1,0.1,0.2,0.3,0.3,0.4c-0.4,0.6-0.9,1.2-1.3,1.8c0,0-0.4-0.1-0.3-0.2c0-0.4,0-0.8,0.2-1.1 c0,0-0.1,0-0.1,0.1c-0.3,0.2-0.7,0.5-0.9,0.8c-1.1,1.3-2.1,2.2-3.1,2.7c0,0,0,0-0.1,0c0.9-0.1,0.9,0,0.7,1 c-0.1,0.5-0.7,0.8-1.2,0.7c0.1,0.1,0.1,0.2,0.2,0.4c0.2,0.2,0.4,0.4,0.7,0.6c0.4,0.3,0.9,0.6,1.3,0.9c0.2,0,0.4,0.1,0.4,0.3 c0.2,0.1,0.1,0.7-0.2,0.7c-0.3,0.1-0.6,0.2-0.7,0.2c-0.7,0-1.2-0.1-1.5-0.5c-0.6-0.9-1.3-1.5-2.3-1.8c-0.6-0.2-1-0.6-1.2-1.2 c-0.3-1-0.8-1.8-2-2c-0.3-0.1-0.5-0.3-0.7-0.5c0,0,0,0,0,0c0,0,0,0.1,0,0.1c-0.1,0.2,0,0.5,0.1,0.6c0.4,0.2,0.4,1.1,0,1.1 c-0.2,0-0.3-0.3-0.3-0.6c0-0.4-0.2-0.6-0.8-0.6c-0.9,0-1-0.8-0.2-1.1c0.4-0.1,0.7-0.1,0.9,0C47.1,68.7,47.1,68.5,47.2,68.3z M37.6,22c0-0.2,0-0.5,0.1-0.7c0.9-0.3,1.9-0.5,2.8-0.7c0.1,0.1,0.2,0.3,0.3,0.5c0,0.2,0.1,0.4,0.2,0.6c0.2,0.7,0.7,1.1,1.4,1.4 c0.7,0.3,0.8,0.8,0.7,1.4c0,0.2-0.2,0.5-0.3,0.5c-0.3,0-0.6,0-0.8-0.1c-0.7-0.4-0.8-1.4-1.6-1.6c-0.7-0.2-1.3-0.3-2-0.4 C37.8,22.9,37.6,22.5,37.6,22z M36.6,1.7C36.6,1.7,36.6,1.7,36.6,1.7L36.6,1.7C36.6,1.7,36.6,1.7,36.6,1.7z M44.7,7.6 c1.2-0.2,2-0.7,2.3-2c0.2-0.7,0.7-1.2,1.4-1.4C49.4,4,50,3.4,50.3,2.5c0.2-0.6,0.6-1,1.1-1.2c0.7,0.2,1.4,0.4,2.1,0.6 c-0.1,0.2-0.2,0.5-0.2,0.8c0,0.3,0,0.6-0.1,0.9C53,3.8,52.8,4,52.6,4.2c-0.1,0.1-0.4,0.1-0.6,0.1c-1.5,0.1-1.8,0.2-1.9,1.3 c0,0,0-0.1,0.1-0.1c0.2-0.2,0.5-0.2,0.7-0.1c0.2,0.1,0.3,0.3,0.1,0.5c-0.2,0.2-0.5,0.2-0.7,0.1c-0.1,0-0.1-0.1-0.2-0.2 c0,0.1,0,0.2,0,0.3c0,0.2,0,0.4-0.1,0.6c-0.1,0.5-0.4,0.9-1,1c-0.1,0-0.2,0-0.4,0.1c0.1,0.1,0.1,0.2,0,0.4 c-0.1,0.3-0.4,0.6-0.7,0.7c-0.4,0.1-0.5-0.1-0.5-0.5c0-0.2,0.1-0.3,0.2-0.4c-0.5,0.1-0.9,0.4-1.2,0.8c-0.3,0.3-0.6,0.5-1,0.7 c-0.5,0.3-1.5,0-1.5-0.9c0-0.2,0.1-0.4,0.2-0.5C44.3,7.8,44.5,7.7,44.7,7.6z M48.4,3.2c0,0.3-0.2,0.5-0.5,0.5 c-0.5,0-0.5-0.7,0.1-0.8C48.3,2.8,48.4,3,48.4,3.2z M26.9,46.2c0.1,0.1,0.5,0.1,0.6,0.3c0.1,0.1,0.2,0.2,0.3,0.3 c0.3-0.2,0.5-0.2,1.2-0.2c-0.3,0.4-0.5,0.7-0.7,0.8c0.2,0.3,0.5,0.6,0.7,0.8c0.6,0,0.6,0.1,0.3,0.3c0.1,0.1,0.2,0.2,0.4,0.3 c0.1,0.1,0.2,0.3,0.3,0.5c0.1,0.2,0.1,0.5,0,0.5c-0.2,0.2-0.5,0.3-0.7,0.4c-0.2,0-0.4-0.1-0.5-0.2c-0.1-0.1-0.3-0.2-0.4-0.4 c0,0-0.1,0.1-0.1,0.1c-0.4,0.9-1.4,0.5-1.5-0.7c0-0.3,0-0.5,0.1-0.6c-0.3-0.2-0.6-0.4-0.9-0.6c-0.2-0.2-0.3-0.8-0.2-1.1 C26,46.4,26.4,46.2,26.9,46.2z M34.4,69.1c0-0.1-0.1-0.3-0.1-0.4c1.1,0.2,2.1,0.3,3.2,0.4c0,0.2,0,0.3,0.1,0.5 c0.1,0.1,0.2,0.1,0.2,0.2c0,0,0,0.1-0.1,0.1c0.4,0.6,1.1,0.7,1.9,0.7c0.1,0,0.2,0,0.3,0.1c0.4,0.1,0.7,0.4,0.7,0.8 c0,0.2,0,0.4,0,0.7c-0.1,0.2-0.1,0.5-0.2,0.8c-0.1,0.1-0.3,0.2-0.5,0.2c-0.3,0-0.6-0.1-0.8-0.3c-0.3-0.2-0.7-0.5-0.9-0.8 c-0.7-1.1-1.7-1.7-2.9-1.9C34.9,70,34.6,69.6,34.4,69.1z M52.4,26.3c-0.1-0.1,0.1-0.3,0.5-0.5c0.5-0.2,0.6-0.3,0.6,0 C53.6,26.2,52.7,26.6,52.4,26.3z M41,69.5c-0.1-0.1-0.1-0.3-0.2-0.4c0.9,0,1.8-0.1,2.7-0.2c-0.1,0.1-0.2,0.2-0.3,0.4 c-0.3,0.4-0.8,0.5-1.2,0.8c-0.1,0.1-0.4,0-0.5-0.1c-0.3,0-0.6-0.1-0.6-0.3C40.8,69.7,40.9,69.6,41,69.5z M42.7,27.5 c0.2,0.1,0.2,0.3-0.1,0.5c-0.5,0.3-1.2,0.3-1.2,0C41.4,27.6,42.3,27.3,42.7,27.5z M46.5,78.1c-0.6,0.1-1.2,0.2-1.8,0.2 c0.1-0.4,0.4-0.8,0.8-0.8C45.9,77.6,46.3,77.8,46.5,78.1z M47.4,26.1c-0.1-0.2,0-0.3,0.1-0.3c0.2,0,0.3,0.1,0.3,0.3 c0,0.2-0.1,0.3-0.1,0.3C47.6,26.4,47.5,26.3,47.4,26.1z M37.4,59.9c-0.3,0-0.7,0-1,0c0.1-0.1,0.3-0.2,0.5-0.2 C37.2,59.7,37.3,59.8,37.4,59.9z M40.9,76c0.1,0.1,0,0.3-0.2,0.5c-0.6,0.4-0.8,0.3-0.8-0.2C39.9,75.8,40.6,75.6,40.9,76z M25,47.5 c-0.2-0.1-0.2-0.2,0.2-0.2c0.3,0,0.5,0.1,0.4,0.2C25.5,47.6,25.2,47.6,25,47.5z M30,55.6c0.2,0.1,0.3,0.4,0.5,0.6 c0.1,0,0.2-0.1,0.4-0.1c0.6,0,0.8,0.3,0.4,0.7c-0.2,0.2-0.8,0-1-0.3c-0.1,0.1-0.2,0.2-0.3,0.3c-0.2,0.1-0.6-0.2-0.6-0.5 C29.3,55.9,29.8,55.4,30,55.6z M34.5,34c0-0.2,0.1-0.4,0.3-0.5c0.2-0.1,0.3-0.1,0.3,0.1S35,34,34.8,34.2 C34.6,34.3,34.5,34.2,34.5,34z M26.9,54.4c-0.4,0.1-0.8,0.1-1.2,0.2c-0.1,0-0.2,0-0.3-0.1c-0.1-0.1-0.2-0.3-0.3-0.4 c0-0.1,0-0.2,0-0.2c0-0.2,0-0.4,0-0.8c0.1-0.3,0.2-0.8,0.3-1.3c0.1-0.2,0.2-0.3,0.5-0.4c0-0.1-0.1-0.1-0.1-0.2 c0-0.3,0.2-0.5,0.5-0.5c0.4,0,0.5,0.4,0.2,0.7c0.6,0.1,1,0.4,1.3,0.9C28.2,53.1,27.8,54.1,26.9,54.4z M22.3,48.8 c0.2-0.1,0.4-0.2,0.6-0.2c0.7,0,1.2,0.2,1.5,0.8c0.2,0.4,0.1,1.2-0.2,1.4c-0.3,0.2-0.6,0.4-0.9,0.5C22.9,50.6,22.6,49.7,22.3,48.8z M32.4,59.1C32.3,59.1,32.3,59.1,32.4,59.1c-0.1-0.3-0.1-0.5,0.1-0.7c0.1-0.1,0.3-0.2,0.5-0.3c0.7,0,1.3,0.6,1.4,1.2 c0,0.1,0,0.2-0.1,0.3C33.6,59.5,33,59.3,32.4,59.1z M54.3,29.2c-0.1-0.2,0-0.3,0.3-0.3c0.3,0,0.5,0.1,0.5,0.3 c0,0.2-0.1,0.3-0.3,0.3S54.4,29.3,54.3,29.2z M55.5,27.9c-0.3,0-0.4-0.1-0.3-0.3c0.1-0.2,0.3-0.3,0.5-0.3s0.3,0.1,0.3,0.3 C56,27.8,55.8,27.9,55.5,27.9z M10.3,25.7c0,0-0.1,0-0.1-0.1c0.1,0.1,0.1,0.2,0.1,0.3c0,0.2-0.1,0.5-0.3,0.5 c-0.2,0-0.3-0.2-0.3-0.5c0-0.2,0.1-0.4,0.3-0.5c-0.2-0.2-0.4-0.6-0.4-0.9c0-0.6,0.4-1,0.8-1.1c0.6-0.1,1.1,0.5,1.1,1.1 C11.5,25.2,10.8,25.8,10.3,25.7z M44.3,10.1c-0.1,0-0.3,0-0.4,0c0,0,0,0,0,0c0-0.2,0.1-0.3,0.3-0.3c0.2,0,0.3,0.1,0.3,0.1 C44.5,10,44.4,10,44.3,10.1z M24.7,73c0.6-0.3,0.5-1,0.9-1.4c0.3-0.3,0.6-0.5,1-0.4c0.1-0.1,0.2-0.2,0.4-0.2c0.2,0,0.5,0.1,0.5,0.3 c0,0.1-0.1,0.2-0.1,0.2c0.1,0.1,0.2,0.1,0.3,0.2c0.4,0.4,0.2,1.3-0.4,1.4C26.4,73.4,25.5,73.5,24.7,73z M38.7,0.1 c0.3,0,0.6,0,0.9,0c0,0,0,0,0,0c0,0.2-0.3,0.3-0.7,0.3C38.4,0.4,38.4,0.3,38.7,0.1z M43.6,8.9c-0.2,0-0.3-0.2-0.3-0.5 S43.4,8,43.6,8c0.2,0,0.3,0.2,0.3,0.5S43.7,8.9,43.6,8.9z M39.5,59.5c-0.1,0.1-0.1,0.2-0.1,0.3c-0.3,0-0.7,0.1-1,0.1 c0-0.2,0-0.3,0-0.5c0.1-0.3,0.3-0.6,0.6-0.4C39.1,59.1,39.3,59.3,39.5,59.5z M35.8,54c-0.6,0.2-0.7,0.2-1.8-0.4c0,0,0,0,0,0 c-0.1,0.2-0.3,0.3-0.5,0.4c-0.4,0.2-0.7,0.3-1.1,0.4c-0.9,0.3-1.4-0.1-1.3-1c0-0.2,0-0.4,0.1-0.6c0.1-0.8,0.5-1.2,1.1-1.2 c0.7-0.1,1.4,0.1,1.8,0.8c0.1,0.2,0.2,0.3,0.2,0.5c0.2-0.3,0.3-0.7,0.5-1c1.1-0.4,2.1-0.4,3.3-0.1C37.9,53.3,36.7,53.6,35.8,54z M25.1,3.5C25.1,3.5,25.1,3.5,25.1,3.5c0.7-0.3,1.5-0.7,2.2-0.9c0.3,0.5,0.3,1.2-0.1,1.4c0,0,0,0,0,0c0,0,0,0,0,0 c0.1,0-0.1,0.2-0.4,0.3c-0.5,0.3-2.1,0.1-2.1-0.3c0-0.1,0.2-0.1,0.5-0.1C25.2,3.8,25.1,3.7,25.1,3.5z M36,57.5 c-0.4,0-0.8-0.3-0.8-0.7C35.1,56.5,35,56.1,35,56c0-0.7,0.1-1.1,0.5-1.2c0.3-0.1,0.8-0.1,1.1,0.1c0.8,0.4,1,1.5,0.4,2.3 C36.8,57.4,36.4,57.5,36,57.5z M34.8,58.5c-0.2,0-0.3-0.3-0.3-0.6c0-0.5,0.1-0.6,0.5-0.3C35.4,58,35.3,58.5,34.8,58.5z M24.3,76.1 c-0.7-0.2-1.4-0.5-2.1-0.8c0-0.2,0.1-0.5,0.3-0.7c0.3-0.3,0.7-0.5,1.1-0.7c0.1-0.1,0.3-0.2,0.6-0.2c0,0,0.1,0,0.1,0 c0.3-0.1,0.4-0.3,0.5-0.6c0.1,0.7,0.3,1.5,0.2,2.3C24.9,75.7,24.6,75.9,24.3,76.1z M22.4,43.1c0.4-0.3,0.8-0.6,1.2-0.8 c0.7-0.3,1.1-0.8,1.3-1.5c0.1-0.5,0.2-1,0.6-1.3c0.2-0.2,0.5-0.3,0.7-0.4c0.3,0.1,0.5,0.1,0.6,0.2c0.6,0.5,0.8,1.7,0.3,2.2 c-0.2,0.3-0.6,0.5-1,0.6c-0.7,0.3-1.1,0.7-1.2,1.5c0,0.3-0.1,0.6-0.3,0.8c-0.4,0.7-1.7,0.9-2.3,0.3C21.9,44.3,21.9,43.5,22.4,43.1z M39,77.6c0-0.3,0.3-0.5,0.6-0.5c0,0,0,0,0,0c0.1-0.1,0.2-0.2,0.3-0.3c0.1,0.1,0.3,0.1,0.4,0.2c0,0.1-0.1,0.2-0.1,0.2 c0,0,0.1,0,0.1,0c0.5,0.2,0.6,0.3,0.2,0.5C40,78,39,78,39,77.6z M38.7,78.5c-0.1-0.1-0.1-0.2-0.2-0.3c0.2,0,0.3-0.1,0.5-0.1 c0.1,0,0.1,0.1,0.2,0.2C39,78.4,38.9,78.5,38.7,78.5z M24.7,73C24.7,73,24.7,73,24.7,73C24.7,73,24.7,72.9,24.7,73 C24.7,73,24.7,73,24.7,73z M37.8,74.3c-0.5,0.3-0.6,0.2-0.6-0.2c0-0.5,0.7-0.6,1.5-0.1c0.3,0.2,0.5,0.4,0.4,0.6 c-0.3,0.4-0.8,0.3-0.8-0.2C38.4,74,38.3,74,37.8,74.3z M41.3,8.3c-0.5,0-0.5-0.7,0.1-0.8c0.2-0.1,0.4,0.1,0.4,0.4 C41.7,8,41.5,8.3,41.3,8.3z M22.9,37.7c0,0-0.1-0.2-0.1-0.2c0.1-0.2,0.2-0.3,0.4-0.2c0.1,0,0.1,0.1,0.2,0.2 C23.2,37.6,23.1,37.7,22.9,37.7z M25.1,36.7c0,0,0-0.1-0.1-0.1c0.1,0,0.1,0,0.2-0.1c0,0,0.1,0.1,0.1,0.1c0.5-0.1,1-0.1,1.1,0 c0.1,0.1,0.1,0.2,0,0.4c-0.2,0.3-2.2,0.3-2.2,0C24.2,36.9,24.6,36.8,25.1,36.7z M18.2,15.9c0.1-0.2,0.3-0.3,0.5-0.2 c0.2,0.1,0.2,0.3,0,0.5C18.4,16.6,18,16.3,18.2,15.9z M18.9,8.6c0.3-0.6,0.9-0.8,1.5-0.8c0.6,0,1.2,0.1,1.5,0.7 c0,0.1,0,0.1,0.1,0.1c0.4-0.2,1.1-0.4,1.5-0.4c0.2,0,0.4,0.1,0.4,0.3c0,0.2-1,0.5-1.7,0.6c0.3,0.7,0.8,1.3,1.4,1.8 c0.3,0.2,0.3,0.7,0.4,0.8c0,0.4-0.2,0.8-0.4,1c0,0,0,0,0.1,0.1c0.3,0.5,0.5,1,0.7,1.5c-0.1,0.1-0.3,0.3-0.4,0.4 c-0.5-0.3-1-0.5-1.4-0.9c-0.3-0.2-0.4-0.6-0.3-1c-0.1,0-0.1-0.1-0.2-0.2c-0.6-0.9-1.5-1.6-2.5-2.1C18.7,10.2,18.5,9.4,18.9,8.6z M51.6,7.9c1.5,0,1.8,1.2,1.4,2.1c-0.1,0.3-0.6,0.5-1,0.4c-0.8-0.1-1.4-0.6-1.7-1.3c-0.1-0.3,0.1-0.9,0.4-1 C51.1,8,51.5,7.9,51.6,7.9z M49.1,10.9c-0.2-0.1-0.5-0.1-0.7-0.2C48.6,10.6,48.9,10.7,49.1,10.9z M43,22.8c0,0.2-0.2,0.3-0.5,0.3 c-0.2,0-0.5-0.1-0.5-0.3c0-0.2,0.2-0.3,0.5-0.3C42.7,22.5,43,22.6,43,22.8z M48.4,10.4c-0.2,0-0.2-0.1-0.1-0.3 c0.1-0.2,0.3-0.3,0.5-0.3c0.2,0,0.2,0.1,0.1,0.3C48.8,10.3,48.6,10.4,48.4,10.4z M19.1,15.4c-0.2-0.6,0-1.2,0.6-1.5 c0,0,0.1,0,0.1-0.1c0-0.1,0.1-0.1,0.2-0.2c0.2-0.2,0.5-0.5,0.6-0.5c0.1,0,0.2,0.1,0.2,0.3c0.3,0,0.7,0.2,0.7,0.6c0,0,0,0.1,0,0.1 c0.1,0,0.3-0.1,0.5-0.1c0.5,0,0.9,0.1,0.9,0.3s-0.4,0.3-0.9,0.3c-0.2,0-0.3,0-0.5,0c0,0.6-0.1,1.1-0.5,1.5C21,17,20.2,17.2,20,16.4 C19.5,16.2,19.2,15.9,19.1,15.4z M52.3,6.3c-0.2-0.1-0.2-0.2,0.2-0.2c0.3,0,0.5,0.1,0.4,0.2C52.8,6.4,52.5,6.4,52.3,6.3z M14.5,24.6c0,0.2-0.2,0.3-0.5,0.3s-0.5-0.1-0.5-0.3c0-0.2,0.2-0.3,0.5-0.3S14.5,24.5,14.5,24.6z M39.7,29c-0.4-0.1-0.8-0.2-1-0.5 c-0.3-0.3-0.4-0.7-0.3-1.1c0.2-0.5,0.6-0.8,1.2-0.8c0.4,0,0.7,0.2,0.8,0.6c0.1,0.4,0.1,0.8,0.1,1.2C40.5,28.7,40.1,29,39.7,29z M57,32.3c0.1,0,0.2,0.1,0.2,0.1c0.8,0.2,1.4,0,1.8-0.7c0.3-0.6,0.2-1.5-0.4-1.9c-0.8-0.6-1.5-1.3-2-2.2c-0.3-0.5-0.7-1-1.3-1.2 c-0.8-0.3-1.3-0.9-1.6-1.7c-0.1-0.2-0.2-0.4-0.3-0.5c-0.6-0.1-0.9-0.4-0.7-0.8c-0.3-0.2-0.6-0.3-0.9-0.5c-0.4-0.1-0.7-0.3-1.1-0.5 c-0.2-0.2-0.5-0.4-0.6-0.7c0-0.2-0.1-0.5-0.2-0.6c1.2,0.3,2.4,0.7,3.5,1.2c0.2,0.4,0.6,0.6,1,0.6c0.2,0,0.3,0,0.5,0 c0.5,0.2,0.9,0.5,1.4,0.7c0.1,0.3,0.2,0.7,0.2,1c0.1,0.6,0.4,1.2,1,1.4c1,0.4,1.6,1.1,2,2.1c0.3,0.7,0.8,1.1,1.5,1.4 c0.7,0.4,1.4,0.8,1.6,1.7c0.1,0.5,0.6,0.8,1,1c0.3,0.2,0.8,0.2,1.1,0.5c0,0,0,0,0.1,0.1c0.2,0,0.2,0.1,0.3,0.3 c0.2,0.3,0.3,0.6,0.3,0.9c0,0.6-0.3,1.1-0.9,1.4c-0.3,0.1-0.9,0.1-1.1-0.2c-0.4-0.5-0.6-1-1-1.5c-0.5-0.7-1.3-0.9-2.1-0.7 c-0.1,0-0.1,0.1-0.2,0.1c0,0.1-0.1,0.2-0.2,0.2c-0.1,0.2-0.2,0.4-0.2,0.6c0.1,0.6,0.4,1.2,0.9,1.5c0.5,0.4,1,0.6,1.4,1.1 c0.3,0.5,0.3,1,0,1.4c-0.3,0.5-1,0.8-1.5,0.6c-0.1,0-0.1-0.1-0.2-0.1c0,0,0,0.1,0,0.1c0,0.3-0.2,0.5-0.5,0.6 c-0.1-0.2-0.3-0.4-0.4-0.6c0.2-0.3,0.4-0.5,0.6-0.5c-0.1-0.2-0.2-0.5-0.3-0.8c-0.1-0.7-0.5-1.1-1.1-1.5c0,0.1,0,0.1,0,0.2 c0,0.7-0.1,0.9-0.6,1c-0.3-0.3-0.6-0.6-0.9-0.9c0.1-0.5,0.2-0.7,0.3-0.9C56.4,34.7,56.3,33.7,57,32.3z M24.7,73 C24.7,73,24.7,73,24.7,73C24.7,73,24.7,73,24.7,73L24.7,73z M35.4,25.9c-0.4-0.4-0.4-1.1-0.1-1.6c0.3-0.4,0.7-0.7,1.2-0.8 c0.5-0.1,1,0.2,1,0.8c0,0.2,0,0.4,0,0.7c0,0.4-0.2,0.9-0.8,1.1C36.3,26.3,35.8,26.3,35.4,25.9z M57,32.3L57,32.3 C57.1,32.3,57,32.3,57,32.3C57,32.3,57,32.3,57,32.3z M35.8,29.6c0.8,0,1.4,0.4,1.6,1c0.2,0.7-0.1,1.6-0.6,1.8 c-0.9,0.3-1.6,0.1-2-0.7c-0.1-0.2-0.1-0.3-0.2-0.5c-0.1-0.1-0.1-0.1-0.1-0.2c0-0.1,0-0.1,0.1-0.1C34.5,30.1,35.1,29.5,35.8,29.6z M57,32.3C57,32.3,57,32.3,57,32.3C57,32.3,57,32.2,57,32.3C57.1,32.2,57,32.3,57,32.3z M41.5,21.3c-0.1-0.3,0-0.4,0.6-0.2 c0.4,0.1,0.9,0.2,1.1,0.2c0.2,0,0.4,0.1,0.4,0.3C43.6,22,41.7,21.8,41.5,21.3z M43.8,30.5c-1.1,0-2.1,0.2-3.2,0.5 c0-0.4,0.1-0.7,0.2-1.1c0.1-0.2,0.3-0.3,0.4-0.4c0.2-0.1,0.4-0.1,0.6-0.2c0.8-0.2,1.4-0.7,1.8-1.4c0.2-0.3,0.4-0.7,0.6-1 c0.4-0.5,1-0.7,1.6-0.6c0.3,0,0.9,0.3,0.9,0.6c0,0.1,0,0.2,0.1,0.4c0.2,0,0.3,0.1,0.3,0.3c0,0.1-0.1,0.2-0.2,0.3c0,0.1,0,0.2,0,0.3 c0.2,0.9,0.8,1.4,2,1.2c0.1,0,0.3-0.1,0.4-0.2c0,0,0,0,0,0c0-0.1,0.1-0.1,0.2-0.2c0,0,0.1-0.1,0.1-0.1c0.5-0.8,0.3-2.1-0.3-2.8 c-0.1-0.1-0.3-0.3-0.5-0.4c-0.7-0.4-1.2-1-1.4-1.8c-0.1-0.3-0.3-0.5-0.5-0.7c-0.8-0.1-1.6-0.1-2.4-0.2c-0.3,0-0.7-0.5-0.8-0.8 c0-0.4,0-0.8,0.1-1.2c0-0.2,0.1-0.4,0.2-0.6c0.7,0,1.4,0,2.2,0.1c0.3,0.5,0.5,1,0.8,1.5c0.2,0.3,0.5,0.8,0.8,0.9 c1.2,0.2,1.6,1.1,2,2c0.3,0.6,0.7,1,1.3,1.2c1.1,0.4,1.9,1,2.2,2.2c0.1,0.6,0.5,1,1.2,1.2c1.1,0.3,1.6,1.2,1.9,2.2 c0.4-0.2,1.1-0.4,1.7-0.4c0.6,0,0.6,0,0,0.4c-0.4,0.3-1,0.4-1.5,0.4c0,0,0.1,0.1,0.1,0.1c-0.8,0.3-1.7,0.1-2.5,0.2 c-0.4,0.1-0.9,0.4-1,0.9c-0.5-0.3-1-0.6-1.6-0.9c0.2-0.1,0.3-0.2,0.5-0.4c-0.3-0.1-0.4-0.2-0.2-0.4c0.1-0.1,0.4-0.1,0.7,0 c0.4-0.4,0.5-0.9,0.4-1.5c-0.1-0.3-0.3-0.5-0.6-0.6c-0.4-0.1-0.8-0.1-1.2-0.1c-0.5,0-1,0.2-1.3,0.7c-0.3,0.4-0.6,0.8-0.9,1.2 c-0.6-0.2-1.3-0.4-2-0.5c-0.1-0.1-0.1-0.2-0.2-0.3c-0.3-0.6-0.6-1-1-1.1c-0.2,0-0.4,0.1-0.8,0.1c-0.3,0-0.5,0-0.7-0.1 c-0.3,0.1-0.6,0.3-0.7,0.7C43.9,30.3,43.8,30.4,43.8,30.5z M13.8,59.2c0-0.1,0.1-0.1,0.2-0.1c0.1,0.2,0.1,0.3,0.2,0.5 c-0.1,0.1-0.1,0.2-0.2,0.2C13.8,59.9,13.6,59.5,13.8,59.2z M27.4,13.2c0.5-0.3,0.5-1.2,0.1-1.6c-0.3-0.4-0.7-0.7-1.1-1 c-1-0.7-1.3-1.7-1.4-2.8c0-0.2,0.2-0.5,0.3-0.7c0.8,0.3,1.6,0.6,2.5,0.9c0.1,0.3,0.3,0.6,0.4,0.8c0.3,0.9,0.7,1.6,1.6,2 c0.3,0.2,0.6,0.5,0.9,0.7c0.1,0.1,0.1,0.2,0.2,0.2c-1.6,0.6-3.2,1.4-4.7,2.3c0,0,0.1-0.1,0.1-0.1C26.6,13.7,27,13.5,27.4,13.2z M25.2,7C25.3,7,25.3,7,25.2,7C25.3,7,25.3,7,25.2,7C25.3,7,25.3,7,25.2,7z M17.5,62c0.4,0.2,0,0.7-0.5,0.7c-0.4,0-0.4-0.1-0.1-0.5 C17.1,62.1,17.4,62,17.5,62z M25.2,7c-0.9,0.5-1.8,0.4-2.7,0c-0.5-0.2-0.7-1-0.4-1.5c0.3-0.5,0.8-0.8,1.4-1c0.3-0.1,0.9,0.1,1,0.4 c0.1,0.4,0.2,0.7,0.3,1.1C24.8,6.5,24.9,6.8,25.2,7z M28.2,69.2c-0.1-0.3-0.1-0.6-0.2-0.9c-0.3-0.9-0.8-1.2-1.8-1.1 c-0.6,0.1-1,0.4-1.1,0.9c-0.1,0.5-0.1,1-0.2,1.5c-0.1,0.3-0.5,0.7-0.9,0.6c-0.4,0-0.8,0-1.2-0.1c-0.4-0.1-0.7-0.4-0.8-0.8 c-0.1-0.4,0.1-0.8,0.4-1.1c0.7-0.4,1.4-0.7,2.1-1.2c0.2-0.1,0.4-0.5,0.4-0.7c0-0.2,0.1-0.4,0-0.6c1.5,0.7,3.1,1.3,4.7,1.9 c0.1,0.1,0.2,0.2,0.3,0.3c0.4,0.3,0.5,0.9,0.4,1.4c-0.2,0.5-0.6,0.8-1.1,0.8c-0.2,0-0.5-0.1-0.7-0.2c-0.3,0.3-1.3,0.4-1.3,0 C27.2,69.4,27.7,69.1,28.2,69.2z M21.9,66.1c0.3,0,0.5,0.1,0.4,0.2c-0.1,0.1-0.4,0.1-0.6,0C21.4,66.2,21.5,66.2,21.9,66.1z M18.7,69.7c0.3,0,0.5,0.1,0.4,0.3c-0.1,0.2-0.4,0.3-0.6,0.3s-0.4-0.1-0.4-0.3C18.1,69.9,18.4,69.7,18.7,69.7z M19.6,65.2 c-0.2,0-0.3-0.1-0.3-0.3c0-0.2,0.1-0.3,0.3-0.3c0.2,0,0.3,0.1,0.3,0.3C19.9,65.1,19.8,65.2,19.6,65.2z M32.9,11.1 c-0.3,0.1-0.6,0.2-0.9,0.3c0.1-0.1,0.2-0.3,0.4-0.3c0.2-0.1,0.4,0,0.8,0C33.1,11.1,33,11.1,32.9,11.1z M34.5,72.1 c0-0.4,1.2-1.5,1.6-1.5c0.1,0,0.2,0.4,0.2,0.8c-0.1,0.7-0.3,0.9-0.9,0.9C34.8,72.5,34.5,72.4,34.5,72.1z M17.5,8.9 c-0.1,0.2-0.2,0.4-0.3,0.3c-0.4,0-0.3-0.5,0.1-0.6C17.5,8.5,17.6,8.6,17.5,8.9z M17.4,14c0.3,0,0.4,0.1,0.3,0.3 c-0.1,0.2-0.3,0.3-0.5,0.3s-0.3-0.1-0.3-0.3C16.9,14.1,17.1,14,17.4,14z M3,28.5c0.2,0,0.3,0.1,0.3,0.3c0,0.2-0.1,0.3-0.1,0.3 c-0.1,0-0.2-0.1-0.3-0.3C2.7,28.7,2.8,28.5,3,28.5z M14.4,10.6c0.4-0.4,0.8-0.8,1.3-1.1c0.4,0.7,1.2,0.9,1.8,1.4 c0.4,0.3,0.4,1.1,0,1.6c-0.2,0.2-0.6,0.2-0.8,0.1c-0.1-0.1-0.2-0.1-0.2-0.2c-0.1-0.1-0.2-0.2-0.3-0.3c-0.2,0.3-0.8,0.5-1.3,0.3 c0,0-0.1,0-0.1-0.1c0,0,0,0,0.1,0.1c-0.4,0.1-0.7,0.3-0.8,0.2c-0.4-0.2-0.7-0.4-0.9-0.8c0.2-0.2,0.4-0.4,0.6-0.6 c0.2,0.3,0.5,0.5,0.7,0.7c0-0.3,0.3-0.6,0.9-0.6c0.1,0,0.1,0,0.2,0C15.3,11,14.9,10.7,14.4,10.6z M21.5,17.4 C21.5,17.4,21.5,17.4,21.5,17.4C21.5,17.4,21.5,17.4,21.5,17.4C21.5,17.4,21.5,17.4,21.5,17.4z M25.3,7C25.3,7,25.3,7,25.3,7 C25.3,7,25.3,7,25.3,7L25.3,7z M30.8,4c0-0.2,0.4-0.3,0.9-0.3c0.3,0,0.4,0,0.6,0.1c-0.2-0.1-0.4-0.3-0.5-0.5 c-0.1-0.3-0.2-0.6-0.2-0.9c0-0.4-0.1-0.8-0.1-1.3c0.3-0.1,0.6-0.1,1-0.2c0.3,0.1,0.6,0.1,0.9,0.2c0.1,0,0.1,0.1,0.1,0.1 C33.8,1.1,34.2,1,34.4,1c0.2,0,0.4,0.1,0.4,0.3c0,0.2-0.4,0.4-0.7,0.5c0.1,0.2,0.1,0.4,0.1,0.6c0,0.6-0.2,1.2-0.8,1.5 c-0.3,0.1-0.6,0.1-0.9,0c0,0,0.1,0.1,0,0.2c-0.1,0.2-0.5,0.3-0.9,0.3C31.2,4.3,30.8,4.2,30.8,4z M24.6,13.7c-0.1-0.2,0-0.3,0.1-0.3 s0.3,0.1,0.3,0.3c0,0.2-0.1,0.3-0.1,0.3C24.9,14,24.7,13.9,24.6,13.7z M19.6,66.3c0-0.2,0.2-0.5,0.5-0.5s0.5,0.2,0.5,0.5 s-0.2,0.5-0.5,0.5S19.6,66.5,19.6,66.3z M33.7,71.8c0.3,0.3,0.3,0.8,0,1c-0.2,0.1-0.5,0.2-0.8,0.4c-0.2-0.2-0.4-0.3-0.5-0.5 c-0.2-0.3,0.1-0.8,0.4-1C33,71.4,33.4,71.5,33.7,71.8z M37.2,76C37.2,76,37.2,76,37.2,76c0,0.2-0.1,0.4-0.5,0.6 c-0.7,0.3-0.7,0.2-0.7-0.3c0,0,0,0,0,0c-0.1,0-0.3-0.1-0.4-0.2c-0.5-0.4-0.7-1.3-0.4-1.9c0.1-0.2,0.4-0.3,0.6-0.4 c0.7,0.1,1.2,0.3,1.5,0.9C37.6,75,37.5,75.6,37.2,76z M56.5,2.9C56.5,2.8,56.5,2.8,56.5,2.9c1.1,0.3,2.1,0.7,3.1,1.1 c-0.1,0.2-0.4,0.3-0.9,0.3c-0.4,0-0.8,0-0.9-0.1c-0.1,0-0.1,0-0.2,0C57,4.2,56.5,3.6,56.5,2.9z M30.9,74.1c0.2,0.1,0.2,0.5,0.3,0.6 c0,0.2,0,0.3,0,0.4c-0.1,0.6-0.5,0.8-1,0.7c-0.1,0-0.2-0.1-0.3-0.1c-0.3-0.2-0.7-0.7-0.6-0.9c0.1-0.2,0.3-0.5,0.5-0.6 C30.2,73.9,30.6,73.8,30.9,74.1z M30.2,1.6C30.2,1.6,30.2,1.6,30.2,1.6c0.1,0,0.1-0.1,0.2-0.1C30.4,1.6,30.3,1.6,30.2,1.6z M16.3,70.4l0.2-0.1l0,0.2L16.3,70.4z M34.3,77.6c0.1-0.2,0.5-0.3,0.9-0.3c0.4,0,0.7,0.1,0.6,0.3c-0.1,0.2-0.5,0.3-0.9,0.3 C34.5,77.9,34.2,77.8,34.3,77.6z M16.2,69.4c-0.3-0.6-0.3-1.1-0.1-1.7c0.1-0.2,0.3-0.3,0.5-0.3c0,0,0-0.1,0-0.1 c0-0.2,0.3-0.3,0.6-0.3c0.3,0,0.5,0.1,0.4,0.3c-0.1,0.1-0.2,0.2-0.3,0.2c0.4,0.3,0.6,0.6,0.6,1.1c0,0.2,0,0.4-0.1,0.5 c-0.2,0.2-0.4,0.4-0.6,0.6C17,70,16.3,69.7,16.2,69.4z M21.8,71.3c0-0.2,0.3-0.3,0.6-0.3s0.5,0.1,0.4,0.3c-0.1,0.2-0.4,0.3-0.6,0.3 S21.8,71.4,21.8,71.3z M29.9,4.3c-0.2,0-0.3-0.2-0.3-0.5c0-0.2,0.1-0.5,0.3-0.5s0.3,0.2,0.3,0.5C30.2,4.1,30.1,4.3,29.9,4.3z M28.4,74c0-0.2,0.2-0.3,0.5-0.3c0.3,0,0.4,0.1,0.3,0.3c-0.1,0.2-0.3,0.3-0.5,0.3S28.4,74.2,28.4,74z M29.6,10.4 c0-0.2,0.2-0.3,0.5-0.3c0.2,0,0.5,0.1,0.5,0.3c0,0.2-0.2,0.3-0.5,0.3C29.8,10.7,29.6,10.5,29.6,10.4z M29.4,5 c0.4-0.1,0.8,0.2,0.9,0.5c0.2,0.5,0.1,1-0.2,1.4c-0.1,0.1-0.3,0.3-0.5,0.3c-0.5,0.1-0.9-0.4-1.1-1.2C28.5,5.5,28.9,5,29.4,5z M34,69.4c-0.2,0.3-2,0.6-2,0.3c0-0.2,1.1-0.6,1.8-0.6C34,69.1,34.1,69.3,34,69.4z M27.1,76.8c0.1,0,0.2,0.1,0.3,0.2 c-0.4-0.1-0.7-0.2-1.1-0.3C26.6,76.7,26.9,76.7,27.1,76.8z M14.1,10.9C14.1,10.9,14.1,10.9,14.1,10.9 C14.1,10.9,14.1,10.9,14.1,10.9z M31.2,77.9c-0.3-0.1-0.6-0.1-0.8-0.2c0,0,0-0.1,0-0.1c0.1-0.2,0.5-0.3,0.8-0.3c0.1,0,0.1,0,0.2,0 c0,0,0-0.1,0-0.1c0.1-0.2,0.4-0.3,0.6-0.5c0.9,0.1,1.6,0.5,1.9,1.2c0,0.1,0.1,0.2,0.1,0.3C33.1,78.2,32.2,78,31.2,77.9 C31.3,77.9,31.3,77.9,31.2,77.9C31.3,77.9,31.2,77.9,31.2,77.9z"/></g></g></svg>