<?xml version="1.0" encoding="UTF-8"?><svg xmlns="http://www.w3.org/2000/svg" xmlns:xlink="http://www.w3.org/1999/xlink" contentScriptType="text/ecmascript" zoomAndPan="magnify" contentStyleType="text/css" id="Layer_1" version="1.1" xml:space="preserve" width="139.8" fill="#000000" preserveAspectRatio="xMidYMid meet" viewBox="28.7 43.6 139.8 137.1" height="137.1" x="0" y="0"><g id="change1_1"><path fill="#b6dbcb" d="M29.8,89.6c-1.1-10.5,7.4-20.2,17.3-24c9.9-3.8,20.8-3.1,31.4-2.4s21.5,1.5,31.4-2.3 c6.9-2.6,12.9-7.2,19.3-10.9c6.4-3.7,13.9-6.4,21.1-4.9c11.4,2.5,18.2,15.4,16.9,27c-1.3,11.6-8.7,21.6-17.2,29.5 c-3.2,3-6.7,5.9-9,9.7c-3.8,6.5-3.4,14.4-3.8,21.9c-0.5,12.5-3.3,24.9-8.1,36.4c-1.3,3.1-2.9,6.3-5.7,8.2c-2.4,1.6-5.5,2.1-8.4,2.3 c-7.5,0.6-15,0-22.3-1.6c-6.2-1.4-12.2-3.6-17.5-7c-11-7.1-12.8-19.5-9.1-32.1c8.5-29-25.1-20.8-30.1-32.9 C34.2,102,31.3,96.2,29.8,89.6"/></g></svg>