<?xml version="1.0" encoding="UTF-8"?><svg xmlns="http://www.w3.org/2000/svg" xmlns:xlink="http://www.w3.org/1999/xlink" contentScriptType="text/ecmascript" fill="#000000" width="359" zoomAndPan="magnify" contentStyleType="text/css" viewBox="0.0 -3.0 359.0 448.4" height="448.4" preserveAspectRatio="xMidYMid meet" version="1"><g data-name="Layer 5"><g id="change1_1"><path fill="#231f20" d="M358.8,434,304.87,291h0a1.77,1.77,0,0,0-2.27-1,1.75,1.75,0,0,0-1,2.26l39.07,103.57H268.94l-12.65-33.88L282.39,292a1.76,1.76,0,0,0-1-2.26,1.77,1.77,0,0,0-2.26,1L254.41,356.9l-24.75-66.29a1.75,1.75,0,0,0-.92-1,1.73,1.73,0,0,0-1.34,0,1.77,1.77,0,0,0-1,2.26l26.18,70.09L239.9,395.78H168.29l38.88-104.13a1.76,1.76,0,0,0,0-1.35,1.79,1.79,0,0,0-1-.92,1.76,1.76,0,0,0-2.26,1L164.51,395.85a1.76,1.76,0,0,0-1.25,1.68,1.79,1.79,0,0,0,.27,1L150,434.85a1.77,1.77,0,0,0,1,2.27,1.79,1.79,0,0,0,2.25-1L167,399.29h71.61l-13.43,36a1.78,1.78,0,0,0,1,2.27,1.81,1.81,0,0,0,.61.1,1.78,1.78,0,0,0,1.65-1.14l13.88-37.19,24.16,0,13.8,36.95a1.78,1.78,0,0,0,2.26,1,1.76,1.76,0,0,0,1-2.26l-13.33-35.72H342l13.54,35.88a1.77,1.77,0,0,0,1.64,1.14A1.75,1.75,0,0,0,358.8,434Zm-93.63-38.19H243.65L254.41,367Z"/></g><g id="change2_1"><path fill="#eb8b8f" d="M338.63,280.78a10.3,10.3,0,0,1-10.11,10.48H173.1a10.49,10.49,0,0,1,0-21H328.52a10.3,10.3,0,0,1,10.11,10.48Z"/></g><g id="change2_2"><path fill="#eb8b8f" d="M326.77,250.67H241a10.4,10.4,0,0,1-10.4-10.4V105.35A10.4,10.4,0,0,1,241,95h85.81a10.4,10.4,0,0,1,10.4,10.4V240.27A10.4,10.4,0,0,1,326.77,250.67Z" fill-rule="evenodd"/></g><g id="change1_2"><path fill="#231f20" d="M325.88,105.13h-1.44a.82.82,0,0,1,.05-.28.72.72,0,0,1,1.33,0A.64.64,0,0,1,325.88,105.13ZM318,98.65a.72.72,0,1,0-.72-.72A.72.72,0,0,0,318,98.65Zm14.4,0a.72.72,0,1,0-.72-.72A.72.72,0,0,0,332.36,98.65Zm-20.88,6.48a.72.72,0,0,0-.22-.51.71.71,0,0,0-.5-.21v.72Zm13.68,28.08a.73.73,0,0,0-.67.44.82.82,0,0,0-.05.28h1.44a.64.64,0,0,0-.06-.28A.72.72,0,0,0,325.16,133.21Zm0-14.4a.72.72,0,1,0,0,1.44.72.72,0,1,0,0-1.44Zm-7.2,8.64a.72.72,0,1,0-.72-.72A.72.72,0,0,0,318,127.45Zm14.4,0a.72.72,0,1,0-.72-.72A.72.72,0,0,0,332.36,127.45Zm-15.12-15.12a.72.72,0,1,0,.72-.72A.72.72,0,0,0,317.24,112.33Zm15.12.72a.72.72,0,1,0,0-1.44.72.72,0,1,0,0,1.44Zm-20.88,20.88a.72.72,0,0,0-.22-.51.71.71,0,0,0-.5-.21v.72ZM311.26,119a.71.71,0,0,0-.5-.21v1.44a.71.71,0,0,0,.5-.21.7.7,0,0,0,0-1Zm13.9-13.17a.73.73,0,0,0,.72-.72h-1.44A.72.72,0,0,0,325.16,105.85Zm-14.4-.72v.72a.71.71,0,0,0,.5-.21.73.73,0,0,0,.22-.51ZM325.16,162a.73.73,0,0,0-.67.44.82.82,0,0,0-.05.28h1.44a.64.64,0,0,0-.06-.28A.72.72,0,0,0,325.16,162Zm0-13a.72.72,0,1,0,0-1.44.72.72,0,1,0,0,1.44Zm-6.48,6.48a.72.72,0,1,0-.72.72A.72.72,0,0,0,318.68,155.53Zm13.68.72a.72.72,0,1,0,0-1.44.72.72,0,1,0,0,1.44ZM318,140.41a.72.72,0,0,0,0,1.44.72.72,0,0,0,0-1.44Zm14.4,1.44a.72.72,0,1,0,0-1.44.72.72,0,1,0,0,1.44Zm-21.1,20.37a.71.71,0,0,0-.5-.21v.72h.72a.72.72,0,0,0-.22-.51Zm0-13.38a.7.7,0,0,0,0-1,.71.71,0,0,0-.5-.21v1.44A.71.71,0,0,0,311.26,148.84Zm13.23-14.63a.72.72,0,0,0,1.33,0,.67.67,0,0,0,.06-.28h-1.44A.87.87,0,0,0,324.49,134.21Zm-13.73-.28v.72a.71.71,0,0,0,.5-.21.87.87,0,0,0,.16-.23.67.67,0,0,0,.06-.28Zm14.4,56.88a.72.72,0,0,0-.72.72h1.44A.72.72,0,0,0,325.16,190.81Zm0-14.4a.72.72,0,1,0,0,1.44.72.72,0,1,0,0-1.44Zm-6.48,7.92a.72.72,0,1,0-.72.72A.72.72,0,0,0,318.68,184.33Zm13.68.72a.72.72,0,0,0,0-1.44.72.72,0,0,0,0,1.44ZM318,169.21a.72.72,0,0,0,0,1.44.72.72,0,0,0,0-1.44Zm14.4,1.44a.72.72,0,1,0,0-1.44.72.72,0,1,0,0,1.44Zm-20.88,20.88a.73.73,0,0,0-.22-.51.71.71,0,0,0-.5-.21v.72Zm-.22-14.91a.71.71,0,0,0-.5-.21v1.44a.71.71,0,0,0,.5-.21.7.7,0,0,0,0-1Zm13.9-13.17a.73.73,0,0,0,.72-.72h-1.44A.72.72,0,0,0,325.16,163.45Zm-14.4-.72v.72a.71.71,0,0,0,.5-.21.73.73,0,0,0,.22-.51Zm15.06,57.32a.72.72,0,0,0-1.33,0,.82.82,0,0,0-.05.28h1.44A.64.64,0,0,0,325.82,220.05Zm-.66-13.4a.72.72,0,0,0,0-1.44.72.72,0,0,0,0,1.44Zm-7.2,5.76a.72.72,0,1,0,0,1.44.72.72,0,1,0,0-1.44Zm14.4,1.44a.72.72,0,0,0,0-1.44.72.72,0,0,0,0,1.44ZM318,198a.72.72,0,1,0,0,1.44.72.72,0,1,0,0-1.44Zm14.4,1.44a.72.72,0,0,0,0-1.44.72.72,0,0,0,0,1.44Zm-21.1,20.37a.71.71,0,0,0-.5-.21v.72h.72a.72.72,0,0,0-.22-.51Zm0-14.4a.71.71,0,0,0-.5-.21v1.44a.71.71,0,0,0,.5-.21.7.7,0,0,0,0-1Zm13.23-13.61a.72.72,0,0,0,1.33,0,.67.67,0,0,0,.06-.28h-1.44A.87.87,0,0,0,324.49,191.81Zm-13.73-.28v.72a.71.71,0,0,0,.5-.21.87.87,0,0,0,.16-.23.67.67,0,0,0,.06-.28Zm14.4,56.88a.72.72,0,0,0-.72.72h1.44A.72.72,0,0,0,325.16,248.41Zm0-14.4a.72.72,0,0,0,0,1.44.72.72,0,0,0,0-1.44Zm-6.48,7.92a.72.72,0,1,0-.72.72A.72.72,0,0,0,318.68,241.93Zm13.68-.72a.72.72,0,0,0,0,1.44.72.72,0,0,0,0-1.44ZM318,226.81a.72.72,0,1,0,0,1.44.72.72,0,1,0,0-1.44Zm14.4,0a.72.72,0,0,0,0,1.44.72.72,0,0,0,0-1.44Zm-21.1,21.81a.71.71,0,0,0-.5-.21v.72h.72A.73.73,0,0,0,311.26,248.62Zm0-14.4a.71.71,0,0,0-.5-.21v1.44a.71.71,0,0,0,.5-.21.7.7,0,0,0,0-1Zm13.18-13.89a.72.72,0,1,0,1.44,0Zm-13.68,0v.72a.71.71,0,0,0,.5-.21.73.73,0,0,0,.22-.51Zm14.4,29.52a.73.73,0,0,0,.72-.72h-1.44A.72.72,0,0,0,325.16,249.85Zm-14.4-.72v.72a.71.71,0,0,0,.5-.21.73.73,0,0,0,.22-.51Zm0-144.72a.73.73,0,0,0-.67.44.82.82,0,0,0,0,.28h.72Zm-13.74.44a.72.72,0,0,0-1.33,0,.82.82,0,0,0-.05.28h1.44A.64.64,0,0,0,297,104.85Zm-7.86-6.2a.72.72,0,1,0-.72-.72A.72.72,0,0,0,289.16,98.65Zm14.4,0a.72.72,0,1,0-.72-.72A.72.72,0,0,0,303.56,98.65Zm-20.88,6.48a.64.64,0,0,0-.06-.28.72.72,0,0,0-.66-.44v.72Zm28.08,28.08a.73.73,0,0,0-.67.44.82.82,0,0,0,0,.28h.72Zm-13.74.44a.72.72,0,0,0-1.33,0,.82.82,0,0,0-.05.28h1.44A.64.64,0,0,0,297,133.65Zm13-14.12a.72.72,0,0,0,.72.72v-1.44A.72.72,0,0,0,310,119.53Zm-13.68-.72a.72.72,0,1,0,0,1.44.72.72,0,1,0,0-1.44Zm-7.2,8.64a.72.72,0,1,0-.72-.72A.72.72,0,0,0,289.16,127.45Zm14.4,0a.72.72,0,1,0-.72-.72A.72.72,0,0,0,303.56,127.45Zm-15.12-15.12a.72.72,0,1,0,.72-.72A.72.72,0,0,0,288.44,112.33Zm14.4,0a.72.72,0,1,0,.72-.72A.72.72,0,0,0,302.84,112.33Zm-20.16,21.6a.64.64,0,0,0-.06-.28.72.72,0,0,0-.66-.44v.72ZM282,118.81v1.44a.72.72,0,0,0,0-1.44Zm28.8-13v-.72H310A.72.72,0,0,0,310.76,105.85Zm-14.4,0a.73.73,0,0,0,.72-.72h-1.44A.72.72,0,0,0,296.36,105.85Zm-14.4,0a.73.73,0,0,0,.72-.72H282ZM310.76,162a.73.73,0,0,0-.67.44.82.82,0,0,0,0,.28h.72Zm-13.68.72a.64.64,0,0,0-.06-.28.72.72,0,0,0-1.33,0,.82.82,0,0,0-.05.28Zm13.68-13.68v-1.44a.72.72,0,0,0,0,1.44Zm-14.4,0a.72.72,0,1,0,0-1.44.72.72,0,1,0,0,1.44Zm-7.2,7.2a.72.72,0,1,0,0-1.44.72.72,0,1,0,0,1.44Zm14.4,0a.72.72,0,1,0,0-1.44.72.72,0,1,0,0,1.44Zm-14.4-14.4a.72.72,0,1,0,0-1.44.72.72,0,1,0,0,1.44Zm14.4,0a.72.72,0,1,0,0-1.44.72.72,0,1,0,0,1.44Zm-20.88,20.88a.64.64,0,0,0-.06-.28A.72.72,0,0,0,282,162v.72Zm0-14.4a.72.72,0,0,0-.72-.72v1.44A.73.73,0,0,0,282.68,148.33Zm28.08-13.68v-.72H310a.87.87,0,0,0,0,.28A.73.73,0,0,0,310.76,134.65Zm-14.4,0a.72.72,0,0,0,.66-.44.67.67,0,0,0,.06-.28h-1.44a.87.87,0,0,0,.05.28A.73.73,0,0,0,296.36,134.65Zm-14.4,0a.72.72,0,0,0,.66-.44.67.67,0,0,0,.06-.28H282Zm28.8,56.16a.72.72,0,0,0-.72.72h.72Zm-14.4,0a.72.72,0,0,0-.72.72h1.44A.72.72,0,0,0,296.36,190.81ZM310,177.13a.72.72,0,0,0,.72.72v-1.44A.72.72,0,0,0,310,177.13Zm-13.68-.72a.72.72,0,1,0,0,1.44.72.72,0,1,0,0-1.44Zm-7.2,7.2a.72.72,0,1,0,0,1.44.72.72,0,1,0,0-1.44Zm14.4,0a.72.72,0,1,0,0,1.44.72.72,0,1,0,0-1.44Zm-14.4-14.4a.72.72,0,1,0,0,1.44.72.72,0,1,0,0-1.44Zm14.4,0a.72.72,0,1,0,0,1.44.72.72,0,1,0,0-1.44Zm-20.88,22.32a.72.72,0,0,0-.72-.72v.72ZM282,176.41v1.44a.72.72,0,0,0,0-1.44ZM310,162.73a.72.72,0,0,0,.72.72v-.72Zm-13.68.72a.73.73,0,0,0,.72-.72h-1.44A.72.72,0,0,0,296.36,163.45Zm-14.4,0a.73.73,0,0,0,.72-.72H282Zm28.8,56.16a.73.73,0,0,0-.67.44.82.82,0,0,0,0,.28h.72Zm-14.4,0a.73.73,0,0,0-.67.44.82.82,0,0,0-.05.28h1.44a.64.64,0,0,0-.06-.28A.72.72,0,0,0,296.36,219.61ZM310,205.93a.72.72,0,0,0,.72.72v-1.44A.72.72,0,0,0,310,205.93Zm-13.68-.72a.72.72,0,1,0,0,1.44.72.72,0,1,0,0-1.44Zm-7.2,7.2a.72.72,0,1,0,0,1.44.72.72,0,1,0,0-1.44Zm14.4,0a.72.72,0,0,0,0,1.44.72.72,0,0,0,0-1.44ZM289.16,198a.72.72,0,1,0,0,1.44.72.72,0,1,0,0-1.44Zm14.4,0a.72.72,0,1,0,0,1.44.72.72,0,1,0,0-1.44ZM282,219.61v.72h.72a.64.64,0,0,0-.06-.28A.72.72,0,0,0,282,219.61Zm0-14.4v1.44a.72.72,0,0,0,0-1.44ZM310,191.53a.87.87,0,0,0,0,.28.73.73,0,0,0,.67.44v-.72Zm-14.4,0a.87.87,0,0,0,.05.28.72.72,0,0,0,1.33,0,.67.67,0,0,0,.06-.28Zm-13.68,0v.72a.72.72,0,0,0,.66-.44.67.67,0,0,0,.06-.28Zm28.8,56.88a.72.72,0,0,0-.72.72h.72Zm-14.4,0a.72.72,0,0,0-.72.72h1.44A.72.72,0,0,0,296.36,248.41ZM310,234.73a.72.72,0,0,0,.72.72V234A.72.72,0,0,0,310,234.73ZM296.36,234a.72.72,0,0,0,0,1.44.72.72,0,0,0,0-1.44Zm-6.48,7.92a.72.72,0,1,0-.72.72A.72.72,0,0,0,289.88,241.93Zm14.4,0a.72.72,0,1,0-.72.72A.72.72,0,0,0,304.28,241.93Zm-15.12-15.12a.72.72,0,0,0,0,1.44.72.72,0,0,0,0-1.44Zm14.4,0a.72.72,0,0,0,0,1.44.72.72,0,0,0,0-1.44ZM282,248.41v.72h.72A.72.72,0,0,0,282,248.41Zm0-14.4v1.44a.72.72,0,1,0,0-1.44ZM310,220.33a.72.72,0,0,0,.72.72v-.72Zm-13.68.72a.73.73,0,0,0,.72-.72h-1.44A.72.72,0,0,0,296.36,221.05Zm-14.4,0a.73.73,0,0,0,.72-.72H282ZM310,249.13a.72.72,0,0,0,.72.72v-.72Zm-13.68.72a.73.73,0,0,0,.72-.72h-1.44A.72.72,0,0,0,296.36,249.85Zm-14.4,0a.73.73,0,0,0,.72-.72H282Zm0-145.44a.73.73,0,0,0-.67.44.82.82,0,0,0-.05.28H282Zm-13.74.44a.72.72,0,0,0-1.33,0,.82.82,0,0,0-.05.28h1.44A.82.82,0,0,0,268.22,104.85Zm-7.86-6.2a.72.72,0,1,0-.72-.72A.72.72,0,0,0,260.36,98.65Zm14.4,0a.72.72,0,1,0-.72-.72A.72.72,0,0,0,274.76,98.65Zm-20.88,6.48a.82.82,0,0,0-.06-.28.72.72,0,0,0-.66-.44v.72ZM282,133.21a.73.73,0,0,0-.67.44.82.82,0,0,0-.05.28H282Zm-13.74.44a.72.72,0,0,0-1.33,0,.82.82,0,0,0-.05.28h1.44A.82.82,0,0,0,268.22,133.65Zm13-14.12a.72.72,0,0,0,.72.72v-1.44A.72.72,0,0,0,281.24,119.53Zm-13.68-.72a.72.72,0,1,0,0,1.44.72.72,0,1,0,0-1.44Zm-7.2,8.64a.72.72,0,1,0-.72-.72A.72.72,0,0,0,260.36,127.45Zm14.4,0a.72.72,0,1,0-.72-.72A.72.72,0,0,0,274.76,127.45Zm-15.12-15.12a.72.72,0,1,0,.72-.72A.72.72,0,0,0,259.64,112.33Zm14.4,0a.72.72,0,1,0,.72-.72A.72.72,0,0,0,274,112.33Zm-20.88,20.88v.72h.72a.82.82,0,0,0-.06-.28A.72.72,0,0,0,253.16,133.21Zm.72-13.68a.72.72,0,0,0-.72-.72v1.44A.73.73,0,0,0,253.88,119.53ZM282,105.85v-.72h-.72A.72.72,0,0,0,282,105.85Zm-14.4,0a.73.73,0,0,0,.72-.72h-1.44A.72.72,0,0,0,267.56,105.85Zm-14.4,0a.73.73,0,0,0,.72-.72h-.72ZM282,162.73V162a.73.73,0,0,0-.67.44.82.82,0,0,0-.05.28Zm-13.68,0a.82.82,0,0,0-.06-.28.72.72,0,0,0-1.33,0,.82.82,0,0,0-.05.28ZM282,149.05v-1.44a.72.72,0,0,0,0,1.44Zm-14.4,0a.72.72,0,1,0,0-1.44.72.72,0,1,0,0,1.44Zm-7.2,7.2a.72.72,0,1,0,0-1.44.72.72,0,1,0,0,1.44Zm14.4,0a.72.72,0,0,0,0-1.44.72.72,0,0,0,0,1.44Zm-14.4-14.4a.72.72,0,1,0,0-1.44.72.72,0,1,0,0,1.44Zm14.4,0a.72.72,0,0,0,0-1.44.72.72,0,0,0,0,1.44Zm-20.88,20.88a.82.82,0,0,0-.06-.28.72.72,0,0,0-.66-.44v.72Zm0-14.4a.72.72,0,0,0-.72-.72v1.44A.73.73,0,0,0,253.88,148.33ZM282,134.65v-.72h-.72a.87.87,0,0,0,.05.28A.73.73,0,0,0,282,134.65Zm-14.4,0a.72.72,0,0,0,.66-.44.88.88,0,0,0,.06-.28h-1.44a.87.87,0,0,0,.05.28A.73.73,0,0,0,267.56,134.65Zm-14.4,0a.72.72,0,0,0,.66-.44.88.88,0,0,0,.06-.28h-.72ZM282,190.81a.72.72,0,0,0-.72.72H282Zm-14.4,0a.72.72,0,0,0-.72.72h1.44A.72.72,0,0,0,267.56,190.81Zm13.68-13.68a.72.72,0,0,0,.72.72v-1.44A.72.72,0,0,0,281.24,177.13Zm-13.68-.72a.72.72,0,1,0,0,1.44.72.72,0,1,0,0-1.44Zm-7.2,7.2a.72.72,0,1,0,0,1.44.72.72,0,1,0,0-1.44Zm14.4,0a.72.72,0,0,0,0,1.44.72.72,0,0,0,0-1.44Zm-14.4-14.4a.72.72,0,1,0,0,1.44.72.72,0,1,0,0-1.44Zm14.4,0a.72.72,0,0,0,0,1.44.72.72,0,0,0,0-1.44Zm-20.88,22.32a.72.72,0,0,0-.72-.72v.72Zm0-14.4a.72.72,0,0,0-.72-.72v1.44A.73.73,0,0,0,253.88,177.13Zm27.36-14.4a.72.72,0,0,0,.72.72v-.72Zm-13.68.72a.73.73,0,0,0,.72-.72h-1.44A.72.72,0,0,0,267.56,163.45Zm-14.4,0a.73.73,0,0,0,.72-.72h-.72ZM282,219.61a.73.73,0,0,0-.67.44.82.82,0,0,0-.05.28H282Zm-14.4,0a.73.73,0,0,0-.67.44.82.82,0,0,0-.05.28h1.44a.82.82,0,0,0-.06-.28A.72.72,0,0,0,267.56,219.61Zm13.68-13.68a.72.72,0,0,0,.72.72v-1.44A.72.72,0,0,0,281.24,205.93Zm-13.68-.72a.72.72,0,1,0,0,1.44.72.72,0,1,0,0-1.44Zm-7.2,7.2a.72.72,0,1,0,0,1.44.72.72,0,1,0,0-1.44Zm14.4,0a.72.72,0,0,0,0,1.44.72.72,0,0,0,0-1.44ZM260.36,198a.72.72,0,1,0,0,1.44.72.72,0,1,0,0-1.44Zm14.4,0a.72.72,0,0,0,0,1.44.72.72,0,0,0,0-1.44Zm-21.6,21.6v.72h.72a.82.82,0,0,0-.06-.28A.72.72,0,0,0,253.16,219.61Zm0-14.4v1.44a.72.72,0,0,0,0-1.44Zm28.08-13.68a.87.87,0,0,0,.05.28.73.73,0,0,0,.67.44v-.72Zm-14.4,0a.87.87,0,0,0,.05.28.72.72,0,0,0,1.33,0,.88.88,0,0,0,.06-.28Zm-13.68,0v.72a.72.72,0,0,0,.66-.44.88.88,0,0,0,.06-.28ZM282,248.41a.72.72,0,0,0-.72.72H282Zm-14.4,0a.72.72,0,0,0-.72.72h1.44A.72.72,0,0,0,267.56,248.41Zm13.68-13.68a.72.72,0,0,0,.72.72V234A.72.72,0,0,0,281.24,234.73ZM267.56,234a.72.72,0,1,0,0,1.44.72.72,0,1,0,0-1.44Zm-6.48,7.92a.72.72,0,1,0-.72.72A.72.72,0,0,0,261.08,241.93Zm14.4,0a.72.72,0,1,0-.72.72A.72.72,0,0,0,275.48,241.93Zm-15.12-15.12a.72.72,0,1,0,0,1.44.72.72,0,1,0,0-1.44Zm14.4,0a.72.72,0,0,0,0,1.44.72.72,0,0,0,0-1.44Zm-21.6,21.6v.72h.72A.72.72,0,0,0,253.16,248.41Zm0-14.4v1.44a.72.72,0,0,0,0-1.44Zm28.08-13.68a.72.72,0,0,0,.72.72v-.72Zm-13.68.72a.73.73,0,0,0,.72-.72h-1.44A.72.72,0,0,0,267.56,221.05Zm-14.4,0a.73.73,0,0,0,.72-.72h-.72Zm28.08,28.08a.72.72,0,0,0,.72.72v-.72Zm-13.68.72a.73.73,0,0,0,.72-.72h-1.44A.72.72,0,0,0,267.56,249.85Zm-14.4,0a.73.73,0,0,0,.72-.72h-.72Zm0-144.72v-.72a.93.93,0,0,0-.29,0,.76.76,0,0,0-.38.39.82.82,0,0,0-.05.28Zm-13.74-.28a.72.72,0,0,0-1.33,0,.82.82,0,0,0-.05.28h1.43A.82.82,0,0,0,239.42,104.85Zm6.54-6.2a.72.72,0,1,0-.72-.72A.72.72,0,0,0,246,98.65Zm7.2,34.56a.93.93,0,0,0-.29,0,.76.76,0,0,0-.38.39.82.82,0,0,0-.05.28h.72Zm-13.74.44a.72.72,0,0,0-1.33,0,.82.82,0,0,0-.05.28h1.43A.82.82,0,0,0,239.42,133.65Zm13.45-13.46a.72.72,0,0,0,.29.06v-1.44a.93.93,0,0,0-.29,0,.73.73,0,0,0-.43.67A.72.72,0,0,0,252.87,120.19Zm-14.11-1.38a.72.72,0,1,0,.71.72A.72.72,0,0,0,238.76,118.81Zm-7.2,7.2a.72.72,0,1,0,.72.72A.72.72,0,0,0,231.56,126Zm14.4,1.44a.72.72,0,1,0-.72-.72A.72.72,0,0,0,246,127.45Zm-14.4-15.84a.72.72,0,0,0,0,1.44.72.72,0,0,0,0-1.44Zm13.68.72a.72.72,0,1,0,.72-.72A.72.72,0,0,0,245.24,112.33Zm7.2-7.2a.72.72,0,0,0,.72.72v-.72Zm-13.68.72a.72.72,0,0,0,.71-.72H238A.72.72,0,0,0,238.76,105.85ZM253.16,162a.93.93,0,0,0-.29.05.73.73,0,0,0-.38.39.82.82,0,0,0-.05.28h.72Zm-13.74.44a.72.72,0,0,0-1.33,0,.82.82,0,0,0-.05.28h1.43A.82.82,0,0,0,239.42,162.45ZM252.87,149a.72.72,0,0,0,.29.06v-1.44a.93.93,0,0,0-.29,0,.73.73,0,0,0-.43.67A.72.72,0,0,0,252.87,149Zm-14.11-1.38a.72.72,0,1,0,.71.72A.72.72,0,0,0,238.76,147.61Zm-7.2,7.2a.72.72,0,1,0,0,1.44.72.72,0,1,0,0-1.44Zm14.4,1.44a.72.72,0,0,0,0-1.44.72.72,0,0,0,0,1.44Zm-14.4-15.84a.72.72,0,0,0,0,1.44.72.72,0,0,0,0-1.44Zm13.68.72a.72.72,0,1,0,.72-.72A.72.72,0,0,0,245.24,141.13Zm7.2-7.2a.87.87,0,0,0,.05.28.71.71,0,0,0,.38.38.72.72,0,0,0,.29.06v-.72Zm-13.68.72a.72.72,0,0,0,.66-.44.87.87,0,0,0,.05-.28H238a.87.87,0,0,0,.05.28A.73.73,0,0,0,238.76,134.65Zm14.4,56.16a.93.93,0,0,0-.29.05.73.73,0,0,0-.43.67h.72Zm-14.4,0a.72.72,0,0,0-.72.72h1.43A.71.71,0,0,0,238.76,190.81Zm14.11-13a.72.72,0,0,0,.29.06v-1.44a.93.93,0,0,0-.29.05.73.73,0,0,0-.43.67A.72.72,0,0,0,252.87,177.79Zm-14.11-1.38a.72.72,0,1,0,.71.72A.72.72,0,0,0,238.76,176.41Zm-7.2,7.2a.72.72,0,1,0,0,1.44.72.72,0,1,0,0-1.44Zm14.4,1.44a.72.72,0,0,0,0-1.44.72.72,0,0,0,0,1.44Zm-14.4-15.84a.72.72,0,0,0,0,1.44.72.72,0,0,0,0-1.44Zm13.68.72a.72.72,0,1,0,.72-.72A.72.72,0,0,0,245.24,169.93Zm7.63-6.54a.72.72,0,0,0,.29.06v-.72h-.72A.72.72,0,0,0,252.87,163.39Zm-14.11.06a.72.72,0,0,0,.71-.72H238A.72.72,0,0,0,238.76,163.45Zm14.4,56.16a.93.93,0,0,0-.29,0,.73.73,0,0,0-.38.39.82.82,0,0,0-.05.28h.72Zm-13.74.44a.72.72,0,0,0-1.33,0,.82.82,0,0,0-.05.28h1.43A.82.82,0,0,0,239.42,220.05Zm13.45-14.79a.73.73,0,0,0,0,1.33.72.72,0,0,0,.29.06v-1.44A.93.93,0,0,0,252.87,205.26Zm-14.11,0a.72.72,0,1,0,.71.72A.72.72,0,0,0,238.76,205.21Zm-7.2,7.2a.72.72,0,0,0,0,1.44.72.72,0,0,0,0-1.44Zm14.4,1.44a.72.72,0,0,0,0-1.44.72.72,0,0,0,0,1.44ZM231.56,198a.72.72,0,1,0,0,1.44.72.72,0,1,0,0-1.44Zm13.68.72A.72.72,0,1,0,246,198,.72.72,0,0,0,245.24,198.73Zm7.2-7.2a.87.87,0,0,0,.05.28.71.71,0,0,0,.38.38.72.72,0,0,0,.29.06v-.72Zm-13.68.72a.72.72,0,0,0,.66-.44.87.87,0,0,0,.05-.28H238a.87.87,0,0,0,.05.28A.73.73,0,0,0,238.76,192.25Zm14.4,56.16a.93.93,0,0,0-.29.05.73.73,0,0,0-.43.67h.72Zm-14.4,0a.72.72,0,0,0-.72.72h1.43A.71.71,0,0,0,238.76,248.41Zm14.11-14.35a.73.73,0,0,0,0,1.33.72.72,0,0,0,.29.06V234A.93.93,0,0,0,252.87,234.06ZM238.76,234a.72.72,0,1,0,.71.72A.72.72,0,0,0,238.76,234Zm-7.2,7.2a.72.72,0,0,0,0,1.44.72.72,0,0,0,0-1.44Zm15.12.72a.72.72,0,1,0-.72.72A.72.72,0,0,0,246.68,241.93Zm-15.12-15.12a.72.72,0,1,0,0,1.44.72.72,0,1,0,0-1.44Zm14.4,0a.72.72,0,0,0,0,1.44.72.72,0,0,0,0-1.44Zm6.48-6.48a.73.73,0,0,0,.43.66.72.72,0,0,0,.29.06v-.72Zm-13.68.72a.72.72,0,0,0,.71-.72H238A.72.72,0,0,0,238.76,221.05Zm13.68,28.08a.73.73,0,0,0,.43.66.72.72,0,0,0,.29.06v-.72Zm-13.68.72a.72.72,0,0,0,.71-.72H238A.72.72,0,0,0,238.76,249.85Z"/></g><g id="change1_3"><path fill="#231f20" d="M222.23,42.55c-2.7-10-5.94,10.59-15.27,8,0,0-22.08-4.78-35.84-11.13-21.79-10.06-4.44-33,12-28.84C192.89-3,208-2.93,211.44,7.46c27.95-.86,33.75,14.36,16,37.22Z"/></g><g id="change3_1"><path fill="#f4c799" d="M234.94,80.21a24.93,24.93,0,0,1-16.75,11.42c-11.61,2-16.84-3.19-16.84-3.19l.29-14.94c-30.25-.24-21.75-44.91-21.75-44.91,2.81-.51,7.47-7.85,7.47-7.85,10.15,9.71,20.19,5.15,20.19,5.15l7.3,10.56c6.16-3.77,12.79-4,14.14,2s-4.84,10.11-4.84,10.11Z"/></g><g id="change2_3"><path fill="#eb8b8f" d="M206.9,44.51a3.24,3.24,0,1,1-3-3.44A3.23,3.23,0,0,1,206.9,44.51Z"/></g><g id="change1_4"><path fill="#231f20" d="M215.39,60.9a17.77,17.77,0,0,1-2.91,7.66c-2.4,8.67-11,15.34-11,15.34L201.12,74a.75.75,0,0,1-.23-.56.79.79,0,0,1,.77-.73c.42,0,10.36.18,12.25-12.07a.75.75,0,0,1,1.48.22ZM184.47,35.56c.54-.5,1-1.27.71-1.94a1.38,1.38,0,0,0-1-.72,4.58,4.58,0,0,0-1.43-.08h-.06a8.23,8.23,0,0,0-1.31.16,6.88,6.88,0,0,0-2.37,1.23,2.85,2.85,0,0,0-1,1.08,1.38,1.38,0,0,0,.11,1.39,1.86,1.86,0,0,0,1.31.56A6.44,6.44,0,0,0,184.47,35.56Zm11.9,1.15a6.8,6.8,0,0,0-2.2-2,3.72,3.72,0,0,0-1.42-.41,2.4,2.4,0,0,0-1.13.08,1.58,1.58,0,0,0-.81,1.74,3.37,3.37,0,0,0,1.06,1.75,8.33,8.33,0,0,0,2.56,1.71,2.12,2.12,0,0,0,2.25,0,1.55,1.55,0,0,0,.39-1.43A3.48,3.48,0,0,0,196.37,36.71Zm-9.55,11.94a.8.8,0,0,1-.56-.4c-1.19-1.78-.31-7.37.13-9.38a.75.75,0,0,0-1.46-.32c-.18.8-1.68,7.91.09,10.53a2.31,2.31,0,0,0,1.55,1.05h.13a.75.75,0,0,0,.12-1.49Zm7.75-4.18a.75.75,0,0,0-.69.8c.19,2.67-.35,4.72-1.62,6.1a6.29,6.29,0,0,1-4.13,1.89.75.75,0,0,0-.75.75.76.76,0,0,0,.75.75h0a7.71,7.71,0,0,0,5.21-2.36c1.57-1.7,2.25-4.14,2-7.24A.74.74,0,0,0,194.57,44.47Zm-13.7-4.33a1.21,1.21,0,1,0-.16,2.42,1.21,1.21,0,0,0,.16-2.42Zm10.06,3a1.21,1.21,0,1,0-1.12-1.29A1.2,1.2,0,0,0,190.93,43.14ZM226.45,39c-2.9-.9-5.2-.79-6.85.32a5.31,5.31,0,0,0-2.22,3.74.75.75,0,0,0,.68.81h.06a.74.74,0,0,0,.75-.68,3.85,3.85,0,0,1,1.57-2.63c1.25-.84,3.12-.89,5.57-.13a.75.75,0,1,0,.44-1.43Z"/></g><g id="change3_2"><path fill="#f4c799" d="M172.27,245.46h0a21.28,21.28,0,0,1-31.22.28c-16-17-37.09-39.63-52.57-56.36a33.48,33.48,0,0,1-7.3-2.94c-8.54-4.39-17.7-11.93-21-14.83-1.69-1.58.33-4.08,1.9-3.54,1.35.45,2.67,1.12,4,1.65-.27-.31-4.08-2-6.64-4-1-.7-1.63-1.36-1.74-2a2.74,2.74,0,0,1,1.37-2.45c1.11-.52,3.09.7,3.34.4l.23.14c.34.23.34.21,0,0s-1.36-1-2.79-2.11c-1.95-1.53-.12-4.79,2.75-4.11,3.7.95,13.18,7.74,14.86,7.6,0,0-9.15-5.74-11.57-7.59a2.7,2.7,0,0,1,2.6-4.66c1.62.58,14.23,8.28,21.11,11.35,0,0-5.08-12.07-3.23-14.11,1-1.18,2.73-1.75,4-.73,3.21,2.59,7.56,10.36,12.17,16.17,3.76,2.58,38.78,26.82,68.2,52.92a20.46,20.46,0,0,1,1.42,29Z" fill-rule="evenodd"/></g><g id="change4_1"><path fill="#87bfa8" d="M114.87,163.59,88.73,195.71l56.74,54.76a23,23,0,0,0,33.08-1.14l0-.06a23,23,0,0,0-2.12-32.89Z" fill-rule="evenodd"/></g><g id="change4_2"><path fill="#87bfa8" d="M185.13,230.24a32.8,32.8,0,0,1-31.7,12.68c-7.66-1.42-10.05-5-14.32-11.44s-5.18-14.34-3.92-22c7.39-45,13.81-81.86,18.31-92.91,3.5-8.45,12.59-14.82,22-16.53l25.8-9.94L200,82.92l34-7.62L238,89.93l30.1,11.3,1.72,30.15,9.39,96.77Z" fill-rule="evenodd"/></g><g id="change2_4"><path fill="#eb8b8f" d="M132.68,148.54l4.39-5.89s44.44,4.12,54.7,14.15c0,0,15-10.13,46.11-15.73l8.16,10-3,39-49.8,12.58-50.49-10.24Z" fill-rule="evenodd"/></g><g id="change1_5"><path fill="#231f20" d="M244.35,195.29l-47.44,12.15v.43a.34.34,0,0,1-.34.34H186.2a.35.35,0,0,1-.35-.34v-.35l-50.61-12-5.43-50.08,56.1,12.29a.33.33,0,0,1,.29-.17h9.92l52.24-12Z"/></g><g id="change2_5"><path fill="#eb8b8f" d="M164.36,168.57h-.07l-27.47-5.9a.35.35,0,0,1-.27-.29l-1.47-11.68a.36.36,0,0,1,.11-.3.33.33,0,0,1,.31-.08l28.8,6.74a.34.34,0,0,1,.26.33l.14,10.84a.33.33,0,0,1-.12.27A.35.35,0,0,1,164.36,168.57ZM137.21,162,164,167.8l-.13-10.14-28-6.57Zm44.52,26h-.08l-43.47-9.37a.35.35,0,0,1-.27-.3l-1.47-11.67a.35.35,0,0,1,.11-.3.32.32,0,0,1,.31-.08l44.8,10.21a.36.36,0,0,1,.27.33l.14,10.84a.34.34,0,0,1-.13.27A.34.34,0,0,1,181.73,188Zm-43.17-10,42.82,9.23-.14-10.14-44.06-10Zm62.67,1.54,39.77-9,1.45-18.65-41.51,10.51Z"/></g><g id="change3_3"><path fill="#f4c799" d="M88.87 391.71L49.73 378.69 35.39 415.91 74.52 428.93 88.87 391.71z" fill-rule="evenodd"/></g><g id="change3_4"><path fill="#f4c799" d="M164.05 338.99L123.42 353.09 135.22 392.96 175.83 378.86 164.05 338.99z" fill-rule="evenodd"/></g><g id="change1_6"><path fill="#231f20" d="M80.79,411.61l-4.57,27.65h.39v6.16H0v-6.16H.68A12.3,12.3,0,0,1,7,426.88L37,410.67c.5.54,9.1,4.44,14,4.24,10.35-.41,12-4.82,17.53-4.94C76,409.8,81.26,411.62,80.79,411.61Zm104.4-22.88-.35.22-11.57-26.83c.29-.18-7.42,1.29-9.67,6.08-1.31,2.78-4,10-11.45,15.8-10.27,7.91-18.67,4.11-18.67,4.11l-16.32,29.12a12.57,12.57,0,0,0,1.23,14.07l.19.22-.58.38,3.47,5.4,67.19-43.17Z" fill-rule="evenodd"/></g><g id="change4_3"><path fill="#87bfa8" d="M277.47,267.56a31.22,31.22,0,0,1-30.91,24.35,30.15,30.15,0,0,1-8.11,1l-80-1C162,304.94,165.35,317,167.84,326c2.75,9.95,4.48,16.24,4.48,16.24l-60.25,17.11L108.4,346c-3.44,12-6.61,23-9,31.43L94,396.26,36.09,380s8.65-29.88,17.52-61c6.38-22.33,13.24-46.5,18-63.66a36,36,0,0,1,1.72-4.8,29.91,29.91,0,0,1,5.79-9.42l-.7-2.42a31.38,31.38,0,0,1-1.16-6.48,31.22,31.22,0,0,1,25.69-33.66,30.53,30.53,0,0,1,16.14,1.2l119.51,27,38.64.53v25.39A31.17,31.17,0,0,1,277.47,267.56Z" fill-rule="evenodd"/></g><g id="change3_5"><path fill="#f4c799" d="M229.41,219l-24.71,4s-21.77-.35-25.92-.79c-12-1.12-9.75-5.39-9.75-5.39l9.35.71s-12.57-.72-15.13-1.8c-1.31-.52-1.23-4.06,0-4.38,3-.74,6.71.35,16.83.42,0,0-13-.34-18.85-1.11-3.13-.4-1-6.07.13-6.06,4.75-.11,19.47.49,21.86,0,0,0,1.28.1-2.14-1.05-4.37-1.52-11.33-3.1-13.58-4.59-1.55-1-1.29-3.52,0-5.07.71-.94,2-1.58,8,.25s10.08,4,19.26,3.46a14,14,0,0,0-2.59-5.27c-2.72-3.86-5.58-9.13-.64-11.8,1.26-.66,4.74,5.17,13.24,9.78,3.7,2,11,5.54,13.74,8.53,5,5.35,3.47,11.71,6.48,12.29Z" fill-rule="evenodd"/></g><g id="change3_6"><path fill="#f4c799" d="M317.21,202.17c.3-6.52-4.43-12-9.12-16.57s-10.94-5.32-17.34-4.66c-11.9,1.24-62.77,12.62-79.62,14.84-.11,0-8.22,27.09-8.22,27.09s40.11.62,87.34,2.24c13.94.5,26.3-8.79,27-22.94Z" fill-rule="evenodd"/></g><g id="change4_4"><path fill="#87bfa8" d="M316,216.21a24.52,24.52,0,0,1-21.53,13.09l-80.73.7-1-40.64L263.13,183c-8.62-17.77-17.84-36.89-24.82-50.74a20.77,20.77,0,0,1-.83-16.92A22.21,22.21,0,0,1,249.69,103l2.48-1a24,24,0,0,1,17.68-.27,22.35,22.35,0,0,1,12.57,11.84c10.06,23.12,26.27,60.4,36,82.65A20,20,0,0,1,316,216.21Z" fill-rule="evenodd"/></g><g id="change1_7"><path fill="#231f20" d="M109.83,346.4a1,1,0,0,1-.69,1.23.84.84,0,0,1-.27,0,1,1,0,0,1-1-.73L77.42,239.06a1,1,0,0,1,.69-1.23,1,1,0,0,1,1.23.69Zm41.86-82.6a1,1,0,1,0-1.92.53l21.59,78.15a1,1,0,0,0,1,.73.84.84,0,0,0,.27,0,1,1,0,0,0,.7-1.23Zm61.08-73.7,54.33-6.4a.77.77,0,0,0,.55-.36.74.74,0,0,0,.06-.65l-19.38-52.16a.75.75,0,0,0-1-.44.76.76,0,0,0-.44,1L266,182.32l-53.38,6.29a.75.75,0,0,0,.09,1.5ZM79.47,177.75a.75.75,0,0,0,.35-1.42c-6.06-3.12-14.78-7.94-14.87-8a.75.75,0,0,0-1,.29.75.75,0,0,0,.3,1c.08,0,8.82,4.88,14.9,8A.72.72,0,0,0,79.47,177.75Zm4.1-5.77a.75.75,0,0,0,.19-1.48C75.4,168.32,63,161.06,62.85,161a.75.75,0,0,0-1,.27.74.74,0,0,0,.27,1c.52.31,12.73,7.44,21.29,9.68ZM70.32,159.76c.49.32,12.08,7.9,19,10a.52.52,0,0,0,.21,0,.76.76,0,0,0,.72-.54.75.75,0,0,0-.51-.93c-6.7-2-18.47-9.69-18.59-9.77a.75.75,0,0,0-1,.21A.75.75,0,0,0,70.32,159.76Zm122.86,49.43c-12.2,2.55-28.45.94-28.61.92a.75.75,0,1,0-.15,1.49c.09,0,5.28.53,12,.53a86.77,86.77,0,0,0,17.07-1.47.75.75,0,0,0-.31-1.47Zm-.35,7.07c-8.17,1.45-23.56-.27-23.72-.28a.75.75,0,0,0-.17,1.49c.45.05,7.9.88,15.21.88a53,53,0,0,0,8.94-.62.75.75,0,1,0-.26-1.47ZM140,194.62a68.6,68.6,0,0,0-46.5,6.45,1,1,0,0,0,.53,1.86,1,1,0,0,0,.52-.15,66.44,66.44,0,0,1,45-6.2,1,1,0,1,0,.42-2ZM279.24,227.4l-64.71-4.5-.82-28.34a.74.74,0,0,0-.77-.73.76.76,0,0,0-.73.77l.84,29a.75.75,0,0,0,.7.73l65.39,4.55h.05a.75.75,0,0,0,.05-1.5Z"/></g><g id="change1_8"><path fill="#231f20" d="M282,277.21a.73.73,0,0,0-.67.44.82.82,0,0,0-.05.28H282Z"/></g><g id="change1_9"><path fill="#231f20" d="M325.82,277.65a.64.64,0,0,1,.06.28h-1.44a.82.82,0,0,1,.05-.28.72.72,0,0,1,1.33,0Zm6.54,6.76a.72.72,0,0,0,0,1.44.72.72,0,0,0,0-1.44Zm-7.2-5.76a.73.73,0,0,0,.72-.72h-1.44A.72.72,0,0,0,325.16,278.65Zm-7.2-7.2a.73.73,0,0,0,.72-.72.71.71,0,0,0-.16-.43h-1.13a.7.7,0,0,0-.15.43A.72.72,0,0,0,318,271.45Zm14.4,0a.73.73,0,0,0,.43-.16,9.42,9.42,0,0,0-1.14-.47A.72.72,0,0,0,332.36,271.45Zm-21.1,6a.71.71,0,0,0-.5-.21v.72h.72a.72.72,0,0,0-.22-.51Zm6.7,7a.72.72,0,0,0,0,1.44.72.72,0,0,0,0-1.44Zm-7.2-6.48v.72a.71.71,0,0,0,.5-.21.76.76,0,0,0,.22-.51Zm0-.72a.73.73,0,0,0-.67.44.82.82,0,0,0,0,.28h.72Zm-14.4,0a.73.73,0,0,0-.67.44.82.82,0,0,0-.05.28h1.44a.64.64,0,0,0-.06-.28A.72.72,0,0,0,296.36,277.21Zm-7.2-5.76a.73.73,0,0,0,.72-.72.71.71,0,0,0-.16-.43h-1.13a.7.7,0,0,0-.15.43A.72.72,0,0,0,289.16,271.45Zm14.4,0a.73.73,0,0,0,.72-.72.71.71,0,0,0-.16-.43H303a.7.7,0,0,0-.15.43A.72.72,0,0,0,303.56,271.45Zm-14.4,13a.72.72,0,0,0,0,1.44.72.72,0,0,0,0-1.44Zm14.4,0a.72.72,0,0,0,0,1.44.72.72,0,0,0,0-1.44Zm6.48-6.48a.72.72,0,0,0,.72.72v-.72Zm-13.68.72a.73.73,0,0,0,.72-.72h-1.44A.72.72,0,0,0,296.36,278.65ZM282,277.21v.72h.72a.64.64,0,0,0-.06-.28A.72.72,0,0,0,282,277.21Zm0,1.44a.73.73,0,0,0,.72-.72H282Zm-7.2,5.76a.72.72,0,0,0,0,1.44.72.72,0,0,0,0-1.44Z"/></g><g id="change1_10"><path fill="#231f20" d="M281.24,277.93a.72.72,0,0,0,.72.72v-.72Z"/></g></g></svg>