<?xml version="1.0" encoding="UTF-8"?><svg xmlns="http://www.w3.org/2000/svg" xmlns:xlink="http://www.w3.org/1999/xlink" contentScriptType="text/ecmascript" fill="#000000" width="379.1" zoomAndPan="magnify" contentStyleType="text/css" viewBox="-10.4 -6.9 379.1 481.4" height="481.4" data-name="Layer 1" preserveAspectRatio="xMidYMid meet" version="1"><g id="change1_1"><path fill="#3f3a6d" d="M256.9,48.38s19.4,83.76,22.19,94.44c5.61,21.46,17.58,50.85,28.74,81,5.66,15.27,11.76,7-3.88,13.68s-182,12.78-202.33-15.41c-15.3-21.26,21.5-8.71,24.82-37.34C132.58,131.72,147.38,59,147.38,59Z"/></g><g id="change2_1"><path fill="#f4c799" d="M267.09,173s1.67,38-65.86,38-61.29-41.8-61.29-41.8l36.38-13.39-.24-35.19h.27a58.82,58.82,0,0,1-15-26,14.24,14.24,0,0,1-2.94.32,13.61,13.61,0,1,1,0-27.22c.23,0,.45,0,.68,0,3-28.24,22.4-50,45.93-50,23.77,0,43.35,22.25,46,50.91a13.43,13.43,0,0,1,2.64-.26,13.61,13.61,0,1,1-5,26.28,58.3,58.3,0,0,1-16.45,27.31l.23,33Z"/></g><g id="change3_1"><path fill="#efa54f" d="M186.5,91.9a5.24,5.24,0,1,1-4.68-5.75A5.25,5.25,0,0,1,186.5,91.9Z"/></g><g id="change1_2"><path fill="#3f3a6d" d="M194.12.64c54.2-7.55,64.25,54,64.25,54-2.56.76-6.94,13.69-6.94,13.69s-8.84-23.89-12.55-23c-50.33,11.93-65.69-7.48-65.69-7.48-7.38,13.25-12,32.72-12,32.72l-14.08-2.5S143.15,7.75,194.12.64Z"/></g><g id="change2_2"><path fill="#f4c799" d="M357.5,428.65c1.12,15.63-4.46,35.72-29,38s-30.14-26.79-30.14-26.79S356.39,413,357.5,428.65Z"/></g><g id="change3_2"><path fill="#efa54f" d="M368.67,425.3c-24.32,26.27-84.33,15.4-84.33,15.4l-.9-28.51c-60.3,20.94-193.6-.71-193.6-.71l3.5-29.34L52,399.6,38.5,471.72C-10.41,469.84-3.24,371,8.94,346.94s53.94-38.1,58.51-51.61,11.43-73.22,18.83-95.75,53.66-30.4,53.66-30.4l6.69,7.87a77,77,0,0,0,120.46-4h0s26.33,9.95,50.07,40S368.67,425.3,368.67,425.3Z"/></g><g id="change4_1"><path fill="#231f20" d="M118.33,288.83a1.23,1.23,0,0,1-.27,0,1.68,1.68,0,0,1-1.39-1.93l5-30.93a1.68,1.68,0,1,1,3.32.54l-5,30.93A1.68,1.68,0,0,1,118.33,288.83Z"/></g><g id="change4_2"><path fill="#231f20" d="M283.44,413.87a1.69,1.69,0,0,1-1.68-1.59l-8-150.77a1.68,1.68,0,0,1,3.35-.18l8.05,150.77a1.67,1.67,0,0,1-1.59,1.76Z"/></g><g id="change4_3"><path fill="#231f20" d="M233.35,64.79a3.32,3.32,0,0,1-.5,3.14c-1.12,1.27-3.15,1.11-4.77.62a17.81,17.81,0,0,1-5.81-3.06A7.21,7.21,0,0,1,219.62,62,3.36,3.36,0,0,1,221,58.15a5.21,5.21,0,0,1,2.38-.44,8.13,8.13,0,0,1,3.1.56A14.56,14.56,0,0,1,231.55,62,7.3,7.3,0,0,1,233.35,64.79Zm-54.17,3.76A17.71,17.71,0,0,0,185,65.49,7.23,7.23,0,0,0,187.65,62a3.38,3.38,0,0,0-1.34-3.88,5.21,5.21,0,0,0-2.38-.44,8.13,8.13,0,0,0-3.1.56A14.65,14.65,0,0,0,175.71,62a7.3,7.3,0,0,0-1.8,2.76,3.3,3.3,0,0,0,.51,3.14C175.53,69.2,177.56,69,179.18,68.55Zm44.34,20.34a1.14,1.14,0,0,0-1.55.45c-3.45,6.31-7.84,9.56-13.05,9.66a1.15,1.15,0,0,0,0,2.29h0c4.18-.08,10.18-2,15-10.85A1.14,1.14,0,0,0,223.52,88.89ZM183.15,71.53a2.57,2.57,0,1,0,2.31,2.82A2.56,2.56,0,0,0,183.15,71.53Zm38.88,0a2.57,2.57,0,1,0,2.3,2.82A2.56,2.56,0,0,0,222,71.53ZM206.31,90.27h.17a1.14,1.14,0,0,0,.17-2.27,3.6,3.6,0,0,1-2.44-1.59C200.5,81.3,202.8,67.14,202.82,67a1.14,1.14,0,1,0-2.25-.37c-.1.62-2.48,15.23,1.79,21.13A5.86,5.86,0,0,0,206.31,90.27Zm2.53,38.05c-14.76,5.41-27.16-3.55-31.81-7.65a1.14,1.14,0,0,0-1.61.1,1.43,1.43,0,0,0-.12.21l-.08-.09v.24a1.08,1.08,0,0,0,0,.77v20.25s7-2,22.05-9.93c.72.05,1.44.08,2.18.08a29.53,29.53,0,0,0,10.17-1.83,1.14,1.14,0,0,0-.78-2.15Zm53.52-50.13c-2.23-1.78-4.4-2.44-6.46-2-3.23.77-4.79,4.15-4.86,4.29a1.15,1.15,0,0,0,.57,1.51,1.1,1.1,0,0,0,.47.1,1.14,1.14,0,0,0,1-.67s1.19-2.5,3.32-3c1.32-.32,2.84.19,4.5,1.52a1.14,1.14,0,0,0,1.42-1.79Zm-106.3-2c-2.05-.49-4.22.17-6.45,2A1.14,1.14,0,0,0,151,80c1.65-1.32,3.17-1.83,4.49-1.52,2.14.5,3.32,3,3.33,3a1.13,1.13,0,0,0,1,.66,1.1,1.1,0,0,0,.47-.1,1.15,1.15,0,0,0,.57-1.51C160.86,80.39,159.3,77,156.06,76.24Z"/></g><g id="change5_1"><path fill="#fdfdfb" d="M252.73,67.62a1.5,1.5,0,0,0-2-.56l-13.57,7.7c0-.35,0-.69,0-1v-7a1.5,1.5,0,0,0-1.5-1.5H210.55a1.5,1.5,0,0,0-1.5,1.5v7a14.24,14.24,0,0,0,.17,2.08H197a13,13,0,0,0,.18-2.08v-7a1.5,1.5,0,0,0-1.5-1.5H170.53a1.5,1.5,0,0,0-1.5,1.5v7c0,.17,0,.34,0,.51l-9.74-7.69a1.5,1.5,0,1,0-1.86,2.35l12.15,9.59a1.93,1.93,0,0,0,.34.19,14,14,0,0,0,26.24.13H210a14,14,0,0,0,26.23-.13,1,1,0,0,0,.16-.06l15.76-8.94A1.5,1.5,0,0,0,252.73,67.62ZM183.09,84.78A11.07,11.07,0,0,1,172,73.72V68.25h22.12v5.47A11.08,11.08,0,0,1,183.09,84.78Zm51.08-11.06a11.06,11.06,0,1,1-22.12,0V68.25h22.12Z"/></g><g id="change1_3"><path fill="#3f3a6d" d="M57.51,268.35C68.36,268,116,263.9,136,261.58s20.89,6.66,22.25,19.63,10.38,115.24,13.38,142.47c2.77,25.08-7.94,22.85-15.88,24.79s-38,3.81-60.11,6.38c-21.41,2.5-26.77-3.78-31.61-22.57S43,296.3,41.74,285.88C40.59,276.74,46.67,268.74,57.51,268.35Z"/></g><g id="change2_3"><path fill="#f4c799" d="M164.59,364.65a2.16,2.16,0,0,1-2.16,2.16,2.16,2.16,0,0,1-2.16-2.16,2.15,2.15,0,0,1,.95-1.79,2.11,2.11,0,0,1,1.21-.37A2.16,2.16,0,0,1,164.59,364.65Zm3.2,20.48a2.1,2.1,0,0,0-.32,1.12,2.12,2.12,0,0,0,.56,1.44Zm-5.36,6.16a2.11,2.11,0,0,0-1.21.37,2.15,2.15,0,0,0-.95,1.79,2.16,2.16,0,1,0,2.16-2.16Zm0-14.4a2.11,2.11,0,0,0-1.21.37,2.15,2.15,0,0,0-.95,1.79,2.16,2.16,0,1,0,2.16-2.16Zm7.2,40.32a2.17,2.17,0,0,0,1.23-.39c-.12-1.19-.25-2.44-.38-3.76a2.19,2.19,0,0,0-.85-.17,2.16,2.16,0,0,0,0,4.32Zm-.16-14.42c-.13-1.37-.27-2.78-.41-4.22a2.15,2.15,0,0,0,.41,4.22Zm-7,17.3a2.11,2.11,0,0,0-1.21.37,2.15,2.15,0,0,0-.95,1.79,2.16,2.16,0,1,0,2.16-2.16Zm0-14.4a2.11,2.11,0,0,0-1.21.37,2.15,2.15,0,0,0-.95,1.79,2.16,2.16,0,1,0,2.16-2.16Zm5,38.16a2,2,0,0,0,.2.89,10,10,0,0,0,2.35-3,2.58,2.58,0,0,0-.39,0A2.16,2.16,0,0,0,167.47,443.85Zm2.16-16.56a2.16,2.16,0,1,0,2.16,2.16A2.16,2.16,0,0,0,169.63,427.29Zm-7.2,7.2a2.11,2.11,0,0,0-1.21.37,2.16,2.16,0,0,0,0,3.58,2.19,2.19,0,0,0,1.21.37,2.16,2.16,0,0,0,0-4.32ZM148,276.08a2.17,2.17,0,1,0,2.16,2.16A2.16,2.16,0,0,0,148,276.08Zm-.63-14.29a2.16,2.16,0,1,0,2.31.71A15.32,15.32,0,0,0,147.4,261.79Zm-6.57,7.1A2.16,2.16,0,1,0,143,271,2.15,2.15,0,0,0,140.83,268.89Zm14.4,4.31a2.12,2.12,0,0,0,1.72-.87,21,21,0,0,0-1-3.31,2.15,2.15,0,1,0-.72,4.18Zm-21.6,2.88a2.17,2.17,0,1,0,2.16,2.16A2.16,2.16,0,0,0,133.63,276.08Zm.58-14.31-.58.07-1,.11-.19.1a2.17,2.17,0,1,0,1.79-.28ZM148,304.89a2.16,2.16,0,1,0,2.16,2.16A2.15,2.15,0,0,0,148,304.89Zm0-14.41a2.17,2.17,0,1,0,2.16,2.16A2.16,2.16,0,0,0,148,290.48Zm-7.2,7.21a2.16,2.16,0,1,0,2.16,2.15A2.15,2.15,0,0,0,140.83,297.69Zm14.4,0a2.16,2.16,0,1,0,2.16,2.15A2.15,2.15,0,0,0,155.23,297.69Zm-14.4-14.4a2.16,2.16,0,1,0,2.16,2.16A2.15,2.15,0,0,0,140.83,283.29Zm14.4,0a2.16,2.16,0,1,0,2.16,2.16A2.15,2.15,0,0,0,155.23,283.29Zm-21.6,21.6a2.16,2.16,0,0,0-1.21.36,2.16,2.16,0,1,0,3.37,1.8A2.16,2.16,0,0,0,133.63,304.89Zm0-14.41a2.17,2.17,0,1,0,2.16,2.16A2.16,2.16,0,0,0,133.63,290.48ZM148,333.69a2.16,2.16,0,1,0,2.16,2.16A2.15,2.15,0,0,0,148,333.69Zm13.19-10.45a2.19,2.19,0,0,0,.9.34c-.12-1.41-.25-2.81-.38-4.17a2.45,2.45,0,0,0-.52.24,2.17,2.17,0,0,0,0,3.59ZM148,319.29a2.16,2.16,0,1,0,2.16,2.16A2.15,2.15,0,0,0,148,319.29Zm-7.2,7.2a2.16,2.16,0,1,0,2.16,2.15A2.15,2.15,0,0,0,140.83,326.49Zm14.4,0a2.16,2.16,0,1,0,2.16,2.15A2.15,2.15,0,0,0,155.23,326.49Zm-14.4-14.4a2.16,2.16,0,1,0,2.16,2.16A2.15,2.15,0,0,0,140.83,312.09Zm14.4,0a2.16,2.16,0,1,0,2.16,2.16A2.15,2.15,0,0,0,155.23,312.09Zm-21.6,21.6a2.16,2.16,0,0,0-1.21.36,2.16,2.16,0,1,0,3.37,1.8A2.16,2.16,0,0,0,133.63,333.69Zm0-14.4a2.16,2.16,0,0,0-1.21.36,2.16,2.16,0,1,0,3.37,1.8A2.16,2.16,0,0,0,133.63,319.29Zm27-12.24c0-.34-.06-.67-.1-1a2.25,2.25,0,0,0-.25,1,2.15,2.15,0,0,0,.47,1.33C160.7,307.93,160.66,307.48,160.62,307.05ZM148,362.49a2.16,2.16,0,1,0,2.16,2.16A2.15,2.15,0,0,0,148,362.49ZM161.22,352a2.19,2.19,0,0,0,1.21.37,2.16,2.16,0,0,0,2.14-2l-.06-.67a2.15,2.15,0,0,0-2.08-1.62,2.16,2.16,0,0,0-1.21,4Zm-13.19-4a2.16,2.16,0,1,0,2.16,2.16A2.15,2.15,0,0,0,148,348.09Zm-7.2,7.2a2.16,2.16,0,1,0,2.16,2.16A2.15,2.15,0,0,0,140.83,355.29Zm14.4,0a2.16,2.16,0,1,0,2.16,2.16A2.15,2.15,0,0,0,155.23,355.29Zm-14.4-14.4a2.16,2.16,0,1,0,2.16,2.16A2.15,2.15,0,0,0,140.83,340.89Zm14.4,0a2.16,2.16,0,1,0,2.16,2.16A2.15,2.15,0,0,0,155.23,340.89Zm-21.6,21.6a2.09,2.09,0,0,0-1.21.37,2.15,2.15,0,0,0-.95,1.79,2.16,2.16,0,1,0,2.16-2.16Zm0-14.4a2.16,2.16,0,0,0-1.21.36,2.16,2.16,0,1,0,3.37,1.8A2.16,2.16,0,0,0,133.63,348.09Zm27.59-10.45a2.13,2.13,0,0,0,2.2.12l-.18-1.91-.18-2.06a2.16,2.16,0,0,0-1.84,3.85ZM148,391.29a2.16,2.16,0,1,0,2.16,2.16A2.15,2.15,0,0,0,148,391.29Zm0-14.4a2.16,2.16,0,1,0,2.16,2.16A2.15,2.15,0,0,0,148,376.89Zm-7.2,7.2a2.16,2.16,0,1,0,2.16,2.16A2.15,2.15,0,0,0,140.83,384.09Zm14.4,0a2.16,2.16,0,1,0,2.16,2.16A2.15,2.15,0,0,0,155.23,384.09Zm-14.4-14.4a2.16,2.16,0,1,0,2.16,2.16A2.15,2.15,0,0,0,140.83,369.69Zm14.4,0a2.16,2.16,0,1,0,2.16,2.16A2.15,2.15,0,0,0,155.23,369.69Zm-21.6,21.6a2.09,2.09,0,0,0-1.21.37,2.15,2.15,0,0,0-.95,1.79,2.16,2.16,0,1,0,2.16-2.16Zm0-14.4a2.09,2.09,0,0,0-1.21.37,2.15,2.15,0,0,0-.95,1.79,2.16,2.16,0,1,0,2.16-2.16Zm14.4,43.2a2.16,2.16,0,1,0,2.16,2.16A2.15,2.15,0,0,0,148,420.09Zm0-14.4a2.16,2.16,0,1,0,2.16,2.16A2.15,2.15,0,0,0,148,405.69Zm-7.2,7.2a2.16,2.16,0,1,0,2.16,2.16A2.16,2.16,0,0,0,140.83,412.89Zm14.4,0a2.16,2.16,0,1,0,2.16,2.16A2.16,2.16,0,0,0,155.23,412.89Zm-14.4-14.4a2.16,2.16,0,1,0,2.16,2.16A2.16,2.16,0,0,0,140.83,398.49Zm14.4,0a2.16,2.16,0,1,0,2.16,2.16A2.16,2.16,0,0,0,155.23,398.49Zm-21.6,21.6a2.09,2.09,0,0,0-1.21.37,2.15,2.15,0,0,0-.95,1.79,2.16,2.16,0,1,0,2.16-2.16Zm0-14.4a2.09,2.09,0,0,0-1.21.37,2.15,2.15,0,0,0-.95,1.79,2.16,2.16,0,1,0,2.16-2.16Zm12.57,44.22c1.19-.13,2.3-.27,3.34-.4a2.11,2.11,0,0,0-1.51-.62A2.15,2.15,0,0,0,146.2,449.91ZM148,434.49a2.16,2.16,0,1,0,2.16,2.16A2.16,2.16,0,0,0,148,434.49Zm-7.2,7.2a2.16,2.16,0,1,0,2.16,2.16A2.16,2.16,0,0,0,140.83,441.69Zm14.4,0a2.16,2.16,0,1,0,2.16,2.16A2.16,2.16,0,0,0,155.23,441.69Zm-14.4-14.4a2.16,2.16,0,1,0,2.16,2.16A2.16,2.16,0,0,0,140.83,427.29Zm14.4,0a2.16,2.16,0,1,0,2.16,2.16A2.16,2.16,0,0,0,155.23,427.29Zm-21.6,21.6a2.09,2.09,0,0,0-1.21.37,2.16,2.16,0,0,0-.95,1.79,1.84,1.84,0,0,0,0,.33l2.13-.2,1.4-.13.75-.07A2.15,2.15,0,0,0,133.63,448.89Zm0-14.4a2.09,2.09,0,0,0-1.21.37,2.16,2.16,0,1,0,1.21-.37Zm-14.4-158.41a2.17,2.17,0,1,0,2.16,2.16A2.16,2.16,0,0,0,119.23,276.08Zm-2.13-12.55a1.63,1.63,0,0,0,0,.31,2.16,2.16,0,1,0,4.32,0,2.08,2.08,0,0,0-.13-.71ZM112,268.89a2.16,2.16,0,1,0,2.16,2.15A2.15,2.15,0,0,0,112,268.89Zm14.4,0a2.16,2.16,0,1,0,2.16,2.15A2.15,2.15,0,0,0,126.43,268.89Zm-21.6,7.19a2.17,2.17,0,1,0,1.79,1A2.16,2.16,0,0,0,104.83,276.08Zm14.4,28.81a2.16,2.16,0,1,0,2.16,2.16A2.15,2.15,0,0,0,119.23,304.89Zm0-14.41a2.17,2.17,0,1,0,2.16,2.16A2.16,2.16,0,0,0,119.23,290.48Zm-7.2,7.21a2.16,2.16,0,1,0,2.16,2.15A2.15,2.15,0,0,0,112,297.69Zm14.4,0a2.16,2.16,0,1,0,2.16,2.15A2.15,2.15,0,0,0,126.43,297.69ZM112,283.29a2.16,2.16,0,1,0,2.16,2.16A2.15,2.15,0,0,0,112,283.29Zm14.4,0a2.16,2.16,0,1,0,2.16,2.16A2.15,2.15,0,0,0,126.43,283.29Zm-21.6,21.6a2.16,2.16,0,0,0-1.21.36,2.16,2.16,0,1,0,3,3,2.16,2.16,0,0,0-1.79-3.36Zm0-14.41a2.17,2.17,0,1,0,1.79,1A2.16,2.16,0,0,0,104.83,290.48Zm14.4,43.21a2.16,2.16,0,1,0,2.16,2.16A2.15,2.15,0,0,0,119.23,333.69Zm0-14.4a2.16,2.16,0,1,0,2.16,2.16A2.15,2.15,0,0,0,119.23,319.29Zm-7.2,7.2a2.16,2.16,0,1,0,2.16,2.15A2.15,2.15,0,0,0,112,326.49Zm14.4,0a2.16,2.16,0,1,0,2.16,2.15A2.15,2.15,0,0,0,126.43,326.49ZM112,312.09a2.16,2.16,0,1,0,2.16,2.16A2.15,2.15,0,0,0,112,312.09Zm14.4,0a2.16,2.16,0,1,0,2.16,2.16A2.15,2.15,0,0,0,126.43,312.09Zm-21.6,21.6a2.16,2.16,0,0,0-1.21.36,2.16,2.16,0,1,0,3,3,2.16,2.16,0,0,0-1.79-3.36Zm0-14.4a2.16,2.16,0,0,0-1.21.36,2.16,2.16,0,1,0,3,3,2.16,2.16,0,0,0-1.79-3.36Zm14.4,43.2a2.16,2.16,0,1,0,2.16,2.16A2.15,2.15,0,0,0,119.23,362.49Zm0-14.4a2.16,2.16,0,1,0,2.16,2.16A2.15,2.15,0,0,0,119.23,348.09Zm-7.2,7.2a2.16,2.16,0,1,0,2.16,2.16A2.15,2.15,0,0,0,112,355.29Zm14.4,0a2.16,2.16,0,1,0,2.16,2.16A2.15,2.15,0,0,0,126.43,355.29ZM112,340.89a2.16,2.16,0,1,0,2.16,2.16A2.15,2.15,0,0,0,112,340.89Zm14.4,0a2.16,2.16,0,1,0,2.16,2.16A2.15,2.15,0,0,0,126.43,340.89Zm-21.6,21.6a2.09,2.09,0,0,0-1.21.37,2.15,2.15,0,0,0-1,1.79,2.16,2.16,0,1,0,4-1.21A2.15,2.15,0,0,0,104.83,362.49Zm0-14.4a2.16,2.16,0,0,0-1.21.36,2.16,2.16,0,1,0,3,3,2.16,2.16,0,0,0-1.79-3.36Zm14.4,43.2a2.16,2.16,0,1,0,2.16,2.16A2.15,2.15,0,0,0,119.23,391.29Zm0-14.4a2.16,2.16,0,1,0,2.16,2.16A2.15,2.15,0,0,0,119.23,376.89Zm-7.2,7.2a2.16,2.16,0,1,0,2.16,2.16A2.15,2.15,0,0,0,112,384.09Zm14.4,0a2.16,2.16,0,1,0,2.16,2.16A2.15,2.15,0,0,0,126.43,384.09ZM112,369.69a2.16,2.16,0,1,0,2.16,2.16A2.15,2.15,0,0,0,112,369.69Zm14.4,0a2.16,2.16,0,1,0,2.16,2.16A2.15,2.15,0,0,0,126.43,369.69Zm-21.6,21.6a2.09,2.09,0,0,0-1.21.37,2.15,2.15,0,0,0-1,1.79,2.16,2.16,0,0,0,4,1.21,2.21,2.21,0,0,0,.37-1.21,2.16,2.16,0,0,0-2.16-2.16Zm0-14.4a2.09,2.09,0,0,0-1.21.37,2.15,2.15,0,0,0-1,1.79,2.16,2.16,0,1,0,4-1.21A2.15,2.15,0,0,0,104.83,376.89Zm14.4,43.2a2.16,2.16,0,1,0,2.16,2.16A2.15,2.15,0,0,0,119.23,420.09Zm0-14.4a2.16,2.16,0,1,0,2.16,2.16A2.15,2.15,0,0,0,119.23,405.69Zm-7.2,7.2a2.16,2.16,0,1,0,2.16,2.16A2.16,2.16,0,0,0,112,412.89Zm14.4,0a2.16,2.16,0,1,0,2.16,2.16A2.16,2.16,0,0,0,126.43,412.89ZM112,398.49a2.16,2.16,0,1,0,2.16,2.16A2.16,2.16,0,0,0,112,398.49Zm14.4,0a2.16,2.16,0,1,0,2.16,2.16A2.16,2.16,0,0,0,126.43,398.49Zm-21.6,21.6a2.09,2.09,0,0,0-1.21.37,2.15,2.15,0,0,0-1,1.79,2.16,2.16,0,1,0,2.16-2.16Zm0-14.4a2.09,2.09,0,0,0-1.21.37,2.15,2.15,0,0,0-1,1.79,2.16,2.16,0,1,0,2.16-2.16Zm14.4,43.2a2.16,2.16,0,0,0-2.16,2.16,2.14,2.14,0,0,0,.68,1.57l3.21-.29a2.12,2.12,0,0,0,.43-1.28A2.16,2.16,0,0,0,119.23,448.89Zm0-14.4a2.16,2.16,0,1,0,2.16,2.16A2.16,2.16,0,0,0,119.23,434.49Zm-7.2,7.2a2.16,2.16,0,1,0,2.16,2.16A2.16,2.16,0,0,0,112,441.69Zm14.4,0a2.16,2.16,0,1,0,2.16,2.16A2.16,2.16,0,0,0,126.43,441.69ZM112,427.29a2.16,2.16,0,1,0,2.16,2.16A2.16,2.16,0,0,0,112,427.29Zm14.4,0a2.16,2.16,0,1,0,2.16,2.16A2.16,2.16,0,0,0,126.43,427.29Zm-21.6,21.6a2.09,2.09,0,0,0-1.21.37,2.16,2.16,0,1,0,3,3,2.16,2.16,0,0,0-1.79-3.37Zm0-14.4a2.09,2.09,0,0,0-1.21.37,2.16,2.16,0,1,0,3,3,2.16,2.16,0,0,0-1.79-3.37ZM90.43,276.08a2.17,2.17,0,1,0,2.16,2.16A2.16,2.16,0,0,0,90.43,276.08Zm13.19-10.44a2.18,2.18,0,0,0,3-.59,2.2,2.2,0,0,0,.26-.56l-2,.18-1.91.18A2.31,2.31,0,0,0,103.62,265.64Zm-12.49.24-1.06.09a2.1,2.1,0,0,0,.36,0A2.34,2.34,0,0,0,91.13,265.88Zm-7.9,3A2.16,2.16,0,1,0,85.39,271,2.15,2.15,0,0,0,83.23,268.89Zm14.4,0A2.16,2.16,0,1,0,99.79,271,2.15,2.15,0,0,0,97.63,268.89ZM76,276.08a2.19,2.19,0,1,0,1.52.64A2.16,2.16,0,0,0,76,276.08Zm14.4,28.81a2.16,2.16,0,1,0,2.16,2.16A2.15,2.15,0,0,0,90.43,304.89Zm0-14.41a2.17,2.17,0,1,0,2.16,2.16A2.16,2.16,0,0,0,90.43,290.48Zm-7.2,7.21a2.16,2.16,0,1,0,2.16,2.15A2.15,2.15,0,0,0,83.23,297.69Zm14.4,0a2.16,2.16,0,1,0,2.16,2.15A2.15,2.15,0,0,0,97.63,297.69Zm-14.4-14.4a2.16,2.16,0,1,0,2.16,2.16A2.15,2.15,0,0,0,83.23,283.29Zm14.4,0a2.16,2.16,0,1,0,2.16,2.16A2.15,2.15,0,0,0,97.63,283.29ZM76,304.89a2.16,2.16,0,0,0-1.21.36,2.17,2.17,0,0,0,1.21,4,2.16,2.16,0,0,0,0-4.32Zm0-14.41a2.19,2.19,0,1,0,1.52.64A2.16,2.16,0,0,0,76,290.48Zm14.4,43.21a2.16,2.16,0,1,0,2.16,2.16A2.15,2.15,0,0,0,90.43,333.69Zm0-14.4a2.16,2.16,0,1,0,2.16,2.16A2.15,2.15,0,0,0,90.43,319.29Zm-7.2,7.2a2.16,2.16,0,1,0,2.16,2.15A2.15,2.15,0,0,0,83.23,326.49Zm14.4,0a2.16,2.16,0,1,0,2.16,2.15A2.15,2.15,0,0,0,97.63,326.49Zm-14.4-14.4a2.16,2.16,0,1,0,2.16,2.16A2.15,2.15,0,0,0,83.23,312.09Zm14.4,0a2.16,2.16,0,1,0,2.16,2.16A2.15,2.15,0,0,0,97.63,312.09ZM76,333.69a2.16,2.16,0,0,0-1.21.36A2.17,2.17,0,0,0,76,338a2.16,2.16,0,0,0,0-4.32Zm0-14.4a2.16,2.16,0,0,0-1.21.36,2.17,2.17,0,0,0,1.21,4,2.16,2.16,0,0,0,0-4.32Zm14.4,43.2a2.16,2.16,0,1,0,2.16,2.16A2.15,2.15,0,0,0,90.43,362.49Zm0-14.4a2.16,2.16,0,1,0,2.16,2.16A2.15,2.15,0,0,0,90.43,348.09Zm-7.2,7.2a2.16,2.16,0,1,0,2.16,2.16A2.15,2.15,0,0,0,83.23,355.29Zm14.4,0a2.16,2.16,0,1,0,2.16,2.16A2.15,2.15,0,0,0,97.63,355.29Zm-14.4-14.4a2.16,2.16,0,1,0,2.16,2.16A2.15,2.15,0,0,0,83.23,340.89Zm14.4,0a2.16,2.16,0,1,0,2.16,2.16A2.15,2.15,0,0,0,97.63,340.89ZM76,362.49a2.09,2.09,0,0,0-1.21.37,2.15,2.15,0,0,0-.95,1.79A2.16,2.16,0,0,0,76,366.81a2.12,2.12,0,0,0,1.52-.64A2.16,2.16,0,0,0,76,362.49Zm0-14.4a2.16,2.16,0,0,0-1.21.36,2.17,2.17,0,0,0,1.21,4,2.16,2.16,0,0,0,0-4.32Zm14.4,43.2a2.16,2.16,0,1,0,2.16,2.16A2.15,2.15,0,0,0,90.43,391.29Zm0-14.4a2.16,2.16,0,1,0,2.16,2.16A2.15,2.15,0,0,0,90.43,376.89Zm-7.2,7.2a2.16,2.16,0,1,0,2.16,2.16A2.15,2.15,0,0,0,83.23,384.09Zm14.4,0a2.16,2.16,0,1,0,2.16,2.16A2.15,2.15,0,0,0,97.63,384.09Zm-14.4-14.4a2.16,2.16,0,1,0,2.16,2.16A2.15,2.15,0,0,0,83.23,369.69Zm14.4,0a2.16,2.16,0,1,0,2.16,2.16A2.15,2.15,0,0,0,97.63,369.69ZM76,391.29a2.09,2.09,0,0,0-1.21.37,2.15,2.15,0,0,0-.95,1.79A2.16,2.16,0,0,0,76,395.61a2.15,2.15,0,0,0,1.52-.63,2.2,2.2,0,0,0,.64-1.53A2.17,2.17,0,0,0,76,391.29Zm0-14.4a2.09,2.09,0,0,0-1.21.37,2.15,2.15,0,0,0-.95,1.79A2.16,2.16,0,0,0,76,381.21a2.12,2.12,0,0,0,1.52-.64A2.16,2.16,0,0,0,76,376.89Zm14.4,43.2a2.16,2.16,0,1,0,2.16,2.16A2.15,2.15,0,0,0,90.43,420.09Zm0-14.4a2.16,2.16,0,1,0,2.16,2.16A2.15,2.15,0,0,0,90.43,405.69Zm-7.2,7.2a2.16,2.16,0,1,0,2.16,2.16A2.16,2.16,0,0,0,83.23,412.89Zm14.4,0a2.16,2.16,0,1,0,2.16,2.16A2.16,2.16,0,0,0,97.63,412.89Zm-14.4-14.4a2.16,2.16,0,1,0,2.16,2.16A2.16,2.16,0,0,0,83.23,398.49Zm14.4,0a2.16,2.16,0,1,0,2.16,2.16A2.16,2.16,0,0,0,97.63,398.49ZM76,420.09a2.09,2.09,0,0,0-1.21.37,2.15,2.15,0,0,0-.95,1.79A2.16,2.16,0,0,0,76,424.41a2.15,2.15,0,0,0,1.52-.63,2.15,2.15,0,0,0,0-3.06A2.15,2.15,0,0,0,76,420.09Zm0-14.4a2.09,2.09,0,0,0-1.21.37,2.15,2.15,0,0,0-.95,1.79A2.16,2.16,0,0,0,76,410a2.15,2.15,0,0,0,1.52-.63,2.2,2.2,0,0,0,.64-1.53A2.17,2.17,0,0,0,76,405.69Zm14.4,43.2a2.16,2.16,0,1,0,2.16,2.16A2.16,2.16,0,0,0,90.43,448.89Zm0-14.4a2.16,2.16,0,1,0,2.16,2.16A2.16,2.16,0,0,0,90.43,434.49Zm-7.2,7.2a2.16,2.16,0,1,0,2.16,2.16A2.16,2.16,0,0,0,83.23,441.69Zm14.4,0a2.16,2.16,0,1,0,2.16,2.16A2.16,2.16,0,0,0,97.63,441.69Zm-14.4-14.4a2.16,2.16,0,1,0,2.16,2.16A2.16,2.16,0,0,0,83.23,427.29Zm14.4,0a2.16,2.16,0,1,0,2.16,2.16A2.16,2.16,0,0,0,97.63,427.29ZM76,448.89a2.09,2.09,0,0,0-1.21.37,2.16,2.16,0,0,0-.95,1.79,2.27,2.27,0,0,0,.16.83,15.46,15.46,0,0,0,2,1.22l.17.09a2.12,2.12,0,0,0,1.35-.61A2.16,2.16,0,0,0,76,448.89Zm0-14.4a2.09,2.09,0,0,0-1.21.37,2.15,2.15,0,1,0,1.21-.37ZM61.63,276.08a2.17,2.17,0,1,0,2.16,2.16A2.16,2.16,0,0,0,61.63,276.08Zm-7.2-7.19A2.16,2.16,0,1,0,56.59,271,2.15,2.15,0,0,0,54.43,268.89Zm14.4,0A2.16,2.16,0,1,0,71,271,2.15,2.15,0,0,0,68.83,268.89Zm-21.6,7.19a2.19,2.19,0,1,0,1.52.64A2.16,2.16,0,0,0,47.23,276.08Zm14.4,28.81a2.16,2.16,0,1,0,2.16,2.16A2.15,2.15,0,0,0,61.63,304.89Zm0-14.41a2.17,2.17,0,1,0,2.16,2.16A2.16,2.16,0,0,0,61.63,290.48Zm-7.2,7.21a2.16,2.16,0,1,0,2.16,2.15A2.15,2.15,0,0,0,54.43,297.69Zm14.4,0A2.16,2.16,0,1,0,71,299.84,2.15,2.15,0,0,0,68.83,297.69Zm-14.4-14.4a2.16,2.16,0,1,0,2.16,2.16A2.15,2.15,0,0,0,54.43,283.29Zm14.4,0A2.16,2.16,0,1,0,71,285.45,2.15,2.15,0,0,0,68.83,283.29Zm-21.6,21.6a2.16,2.16,0,0,0-1.21.36,2.17,2.17,0,0,0,1.21,4,2.16,2.16,0,0,0,0-4.32Zm0-14.41a2.19,2.19,0,1,0,1.52.64A2.16,2.16,0,0,0,47.23,290.48Zm14.4,43.21a2.16,2.16,0,1,0,2.16,2.16A2.15,2.15,0,0,0,61.63,333.69Zm0-14.4a2.16,2.16,0,1,0,2.16,2.16A2.15,2.15,0,0,0,61.63,319.29Zm-7.2,7.2a2.16,2.16,0,1,0,2.16,2.15A2.15,2.15,0,0,0,54.43,326.49Zm14.4,0A2.16,2.16,0,1,0,71,328.64,2.15,2.15,0,0,0,68.83,326.49Zm-14.4-14.4a2.16,2.16,0,1,0,2.16,2.16A2.15,2.15,0,0,0,54.43,312.09Zm14.4,0A2.16,2.16,0,1,0,71,314.25,2.15,2.15,0,0,0,68.83,312.09ZM48.38,334c.09.6.18,1.21.26,1.82s.14.94.2,1.41a2.11,2.11,0,0,0,.55-1.41,2.16,2.16,0,0,0-.64-1.53A1.76,1.76,0,0,0,48.38,334Zm-1.15-14.74a2.27,2.27,0,0,0-.9.19c.19,1.35.38,2.71.58,4.09a1.65,1.65,0,0,0,.32,0,2.16,2.16,0,0,0,0-4.32Zm14.4,43.2a2.16,2.16,0,1,0,2.16,2.16A2.15,2.15,0,0,0,61.63,362.49Zm0-14.4a2.16,2.16,0,1,0,2.16,2.16A2.15,2.15,0,0,0,61.63,348.09Zm-7.2,7.2a2.16,2.16,0,1,0,2.16,2.16A2.15,2.15,0,0,0,54.43,355.29Zm14.4,0A2.16,2.16,0,1,0,71,357.45,2.15,2.15,0,0,0,68.83,355.29Zm-14.4-14.4a2.16,2.16,0,1,0,2.16,2.16A2.15,2.15,0,0,0,54.43,340.89Zm14.4,0A2.16,2.16,0,1,0,71,343.05,2.15,2.15,0,0,0,68.83,340.89Zm-7.2,50.4a2.16,2.16,0,1,0,2.16,2.16A2.15,2.15,0,0,0,61.63,391.29Zm0-14.4a2.16,2.16,0,1,0,2.16,2.16A2.15,2.15,0,0,0,61.63,376.89Zm-5.41,10.56a2.18,2.18,0,0,0,.37-1.2,2.14,2.14,0,0,0-.81-1.67C55.93,385.54,56.08,386.5,56.22,387.45Zm12.61-3.36A2.16,2.16,0,1,0,71,386.25,2.15,2.15,0,0,0,68.83,384.09Zm-14.4-14.4a2.15,2.15,0,0,0-.85.17c.2,1.38.4,2.75.61,4.12l.24,0a2.16,2.16,0,1,0,0-4.32Zm14.4,0A2.16,2.16,0,1,0,71,371.85,2.15,2.15,0,0,0,68.83,369.69Zm-7.2,50.4h-.11c.13.74.26,1.46.39,2.15l.38,2a2.15,2.15,0,0,0-.66-4.2Zm0-14.4a2.16,2.16,0,1,0,2.16,2.16A2.15,2.15,0,0,0,61.63,405.69Zm7.2,7.2A2.16,2.16,0,1,0,71,415.05,2.16,2.16,0,0,0,68.83,412.89Zm0-14.4A2.16,2.16,0,1,0,71,400.65,2.16,2.16,0,0,0,68.83,398.49Zm0,43.2a2.14,2.14,0,0,0-1.61.73A32.25,32.25,0,0,0,69,446a2.16,2.16,0,0,0-.12-4.31Zm0-14.4A2.16,2.16,0,1,0,71,429.45,2.16,2.16,0,0,0,68.83,427.29ZM41.74,285.88c0,.2.06.46.09.75a2.12,2.12,0,0,0-.22-2.64A17.49,17.49,0,0,0,41.74,285.88Z"/></g><g id="change5_2"><path fill="#fdfdfb" d="M131.59,272.53c7.48-1.09,15.22-3.33,16.39,9.06s3.65,58,6.56,92.7,4.26,44.93,5,53.45,2.33,7.75-15.3,9.69S93.53,445,88.5,445.56s-12-1.93-13-9.29S55.79,306.79,54.05,294.78,56,278.44,72.71,276.93C91.43,275.25,122.3,273.88,131.59,272.53Z"/></g><g id="change3_3"><path fill="#efa54f" d="M107.15,295.67c1.82-3.1,3.57-1.55,7,1.94s14.53,13.75,16.47,16.65,1,7.56-4.07,7.75-40.28,4.65-43.77,4.84S78,322.79,79,319.49s32.41-5.35,36.69-6.17c2.83-.53-10.5-8.93-10.53-12.22A8.32,8.32,0,0,1,107.15,295.67Zm7,51.59c4.74-.5,12,.82,9.49,6.11-3.13,6.55-26.73-10.07-28.67-11.62s-9.87-.77-11.23,3.88,1.79,24.62,3.14,25.78,8.53,1.75,9.88,0-4.11-16.49-2-16.68,16.46,9.1,22.27,10.84,20.14,1,18.4-14.52-18.4-12.59-21.5-11.62C113.93,339.43,111.21,347.57,114.13,347.26ZM127,379.14c-3.1,2.9-6.2,6.19-3.68,7.74s9.62,4,8.09,9.06c-2.06,6.87-9.1,2.13-12.2-1s-.86-4.46-5.31-3.3-1.33,3.67-4.36,8.62c-4.22,6.88-13.26,1.85-12.76-2.69.76-6.8,4.27-7.51,5.44-9.15s-2.13-8.6-4.26-7.64a19.76,19.76,0,0,0-9.35,21.52c2.46,11.32,15.48,12.43,21,9.53a13.73,13.73,0,0,0,6.65-8.72s8.87,6,17.83,2.1,8.49-14.79,3.92-19.95C132.52,379.14,127,379.14,127,379.14Z"/></g><g id="change2_4"><path fill="#f4c799" d="M52,398.94s43.29-23.92,52.62-17.1S80,404.8,85.56,416.58s63.5-27.39,70.62-18.12-14.29,18.59-14.29,18.59,10-.41,6.15,5.21S94.89,474.45,41.62,455Z"/></g><g id="change4_4"><path fill="#231f20" d="M101.17,436.25a1.68,1.68,0,0,1-.45-3.3c.25-.07,25.09-7,40.22-17.29a1.68,1.68,0,1,1,1.89,2.79c-15.6,10.55-40.17,17.45-41.21,17.74A1.74,1.74,0,0,1,101.17,436.25Z"/></g></svg>