<?xml version="1.0" encoding="UTF-8"?><svg xmlns="http://www.w3.org/2000/svg" xmlns:xlink="http://www.w3.org/1999/xlink" contentScriptType="text/ecmascript" fill="#000000" width="87" zoomAndPan="magnify" contentStyleType="text/css" viewBox="10.5 7.8 87.0 60.6" height="60.6" preserveAspectRatio="xMidYMid meet" version="1"><g fill="#eb8b8f" id="change1_1"><path fill="inherit" d="M12.5,21.7c-0.9,0.3-1.5,0.9-1.8,1.8c-0.2,0.8,0,1.5,0.2,2.3c0.3,1.1,0.7,2.1,1,3.1 c0.8,2.3,1.7,4.5,2.8,6.6c1,2.1,2.1,4.2,3.4,6.3c0.6,1,1.2,1.9,1.8,2.9c0.6,1,1.1,2,1.7,3c1.2,2.1,2.5,4.3,3.8,6.4 c1.3,2,2.7,3.9,4.2,5.8c0.9,1.2,1.8,2.5,2.7,3.7c1,1.3,2,2.6,3.1,3.8c0.9,1,2.6,0.9,3.5,0c0.3-0.3,0.5-0.7,0.6-1.1 c0.2-0.5,0.3-1.1,0.1-1.6c-0.2-0.5-0.3-0.9-0.5-1.4c0,0.1,0.1,0.2,0.1,0.3c-0.2-0.4-0.3-0.7-0.5-1.1l0.2,0.6c-0.4-1-0.9-2-1.3-3 c-0.1-0.1-0.1-0.3-0.2-0.4c0,0,0,0.1,0,0.1c-0.2-0.5-0.5-1-0.7-1.5c0,0.1,0,0.1,0.1,0.2c-0.1-0.2-0.2-0.5-0.3-0.7 c-1.5-3.6-3.2-7.1-5.3-10.3c-0.6-1-1.3-2-2-3c-0.7-1-1.2-2.1-1.9-3.1c-0.6-1.1-1.2-2.2-1.8-3.2c-0.6-1.1-1.3-2.1-2-3.1 c-0.7-1.1-1.3-2.1-2-3.2c-0.7-1-1.4-2.1-2-3.1c-0.6-1-1.2-2-1.9-2.9c-0.4-0.6-0.9-1.3-1.4-1.9c-0.2-0.2-0.4-0.5-0.6-0.7 c-0.3-0.4-0.8-0.7-1.2-1c-0.4-0.3-0.9-0.4-1.5-0.4C12.9,21.6,12.7,21.7,12.5,21.7"/><path fill="inherit" d="M42,8.1c-0.5,0.2-0.9,0.7-1.2,1.2c-0.3,0.5-0.4,1.1-0.6,1.7c-0.2,0.8-0.3,1.5-0.3,2.3 c-0.2,2.4-0.3,4.7-0.3,7.1c0,1.3,0,2.5,0.1,3.8c0,1.3,0.1,2.6,0.2,4c0.1,1.3,0.1,2.5,0.2,3.8c0.1,1.2,0.2,2.5,0.3,3.7 c0.3,2.8,0.6,5.7,1,8.5c0.2,1.5,0.3,3,0.5,4.4c0.2,1.3,0.4,2.7,0.6,4c0.3,2.1,0.5,4.2,0.8,6.4c0.1,1.1,0.3,2.2,0.5,3.3 c0.1,0.5,0.4,0.9,0.8,1.2c0,0.1,0.1,0.1,0.1,0.2c0,0,0,0,0-0.1c0,0,0,0.1,0,0.1c0,0,0,0.1,0,0.1c0,0.1,0.1,0.2,0.1,0.3 c0,0,0,0.1,0,0.1c0,0,0-0.1,0-0.1c0.1,0.3,0.3,0.5,0.5,0.8c0.5,0.5,1.1,0.7,1.8,0.8c0.9,0,1.7-0.5,2.2-1.3c0.3-0.5,0.3-1,0.4-1.5 c0.1-0.6,0.1-1.2,0.1-1.8c0-1-0.1-1.9-0.1-2.9c-0.1-1.2,0-2.4,0-3.6c0-2.3,0-4.5-0.1-6.8c-0.1-2.3-0.3-4.6-0.3-6.8 c0-2.4,0-4.9-0.1-7.3c-0.1-2.5,0-5-0.2-7.5c-0.1-2.6-0.4-5.2-0.7-7.8c-0.4-2.7-0.9-5.4-2-8c-0.4-0.9-0.8-1.7-1.6-2.2 c-0.4-0.2-0.9-0.3-1.3-0.3C42.8,7.8,42.4,7.9,42,8.1 M49.1,61.8C49.2,61.8,49.2,61.8,49.1,61.8C49.2,61.8,49.2,61.8,49.1,61.8"/><path fill="inherit" d="M70,15c-0.4,0.5-0.7,0.9-1.1,1.4c-1.4,2-2.2,4.3-3.3,6.5c-0.6,1.3-1.2,2.6-1.8,3.9 c-0.5,1.1-0.9,2.3-1.3,3.4c-0.8,2.4-1.5,4.8-2.2,7.2c-0.7,2.4-1.4,4.8-2.3,7.1c-0.9,2.3-1.9,4.6-2.5,6.9c-0.5,1.9-0.9,3.8-1.3,5.7 c-0.3,1.8-0.8,3.6-1.2,5.4c-0.3,1.3,0.4,2.7,1.7,3c0.3,0.1,0.6,0.1,0.9,0.1c1,0.3,2.1-0.2,2.7-1.1c0.1-0.2,0.2-0.3,0.2-0.5 c0.3-0.6,0.6-1.2,0.9-1.8c0.5-1.1,1.1-2.2,1.6-3.3c0,0,0,0,0,0c1.7-4,3.6-7.9,5-12c0.7-2,1.3-4,1.9-6c0.8-2.4,1.6-4.8,2.4-7.2 c0.8-2.3,1.7-4.5,2.3-6.8c0.4-1.3,0.7-2.6,1.1-4c0.3-1.1,0.6-2.3,0.7-3.4c0.1-0.7,0.2-1.4,0.2-2.1c0-1.4-0.5-2.9-2-3.3 c-0.2-0.1-0.4-0.1-0.7-0.1C71.3,13.9,70.6,14.3,70,15 M54.3,61.9C54.3,61.9,54.3,61.9,54.3,61.9C54.3,62,54.3,62,54.3,61.9 C54.3,62,54.3,61.9,54.3,61.9"/><path fill="inherit" d="M93.2,31.8c-0.2,0.1-0.4,0.3-0.7,0.5c-0.4,0.3-0.8,0.6-1.2,0.9c-1,0.7-2.1,1.5-3,2.3 c-1.9,1.6-3.6,3.5-5.3,5.4c-1.6,1.8-3.4,3.5-5.1,5.2c-1.8,1.8-3.6,3.7-5.2,5.7c-1.7,2.1-3.3,4.3-4.9,6.4c-1.5,1.9-2.9,3.8-4.2,5.8 c-0.7,1.1-0.3,2.5,0.7,3.2c0.1,0.2,0.2,0.3,0.3,0.4c0.6,0.6,1.5,0.8,2.4,0.6c0.5-0.1,0.8-0.4,1.2-0.7c0.2-0.1,0.3-0.3,0.4-0.4 c0.2-0.2,0.4-0.4,0.7-0.6c0.3-0.3,0.7-0.5,1-0.8c0,0-0.1,0.1-0.1,0.1c0,0,0.1-0.1,0.1-0.1c0.1-0.1,0.2-0.2,0.4-0.3 c-0.1,0.1-0.2,0.2-0.3,0.3c0.5-0.4,1-0.8,1.6-1.2c0,0-0.1,0.1-0.1,0.1c0.6-0.5,1.2-1,1.8-1.6c0.8-0.8,1.6-1.6,2.4-2.3 c0.8-0.7,1.6-1.4,2.4-2.2c0.8-0.8,1.6-1.7,2.4-2.5c1.6-1.7,3.1-3.5,4.6-5.2c1.6-1.8,3.3-3.5,4.9-5.4c0.9-1.1,1.8-2.2,2.6-3.4 c0.8-1.1,1.5-2.2,2.2-3.3c0.6-1,1.1-2,1.6-3.1c0.4-0.8,0.7-1.7,0.5-2.6c-0.2-0.9-0.9-1.5-1.8-1.8c-0.2-0.1-0.4-0.1-0.7-0.1 C94.2,31.4,93.7,31.5,93.2,31.8"/></g></svg>