<?xml version="1.0" encoding="UTF-8"?><svg xmlns="http://www.w3.org/2000/svg" xmlns:xlink="http://www.w3.org/1999/xlink" contentScriptType="text/ecmascript" fill="#e25a1c" width="66.3" zoomAndPan="magnify" contentStyleType="text/css" viewBox="-7.9 -4.6 66.3 69.2" height="69.2" preserveAspectRatio="xMidYMid meet" version="1">
 <g id="change1_1"><path fill="inherit" d="m42.915 42.1l-0.303-0.644-6.62-12.55c-0.224-0.42-0.196-0.67 0.1-1.027l10.473-12.3c0.122-0.144 0.233-0.298 0.28-0.554l-3.058 0.8-12.7 3.375c-0.394 0.106-0.573-0.01-0.77-0.336l-7.212-12.016c-0.125-0.208-0.26-0.4-0.525-0.585l-0.582 3.207-2.013 11.33-0.208 1.224c-0.034 0.4-0.234 0.534-0.586 0.645l-14.951 4.725c-0.22 0.07-0.432 0.158-0.667 0.372l12.3 4.884-0.36 0.283-7.653 4.947a0.81 0.81 0 0 1 -0.887 0.072l-9.146-4.076c-1.368-0.6-2.6-1.423-3.558-2.595-2.167-2.65-1.74-5.667 1.148-7.5 0.945-0.603 2.018-1.055 3.088-1.404l14.686-4.665c0.4-0.128 0.6-0.312 0.677-0.757l2-11.33c0.364-2.018 0.558-4.1 1.54-5.938 0.377-0.7 0.83-1.408 1.367-2.004 1.945-2.16 4.66-2.242 6.716-0.186 0.694 0.694 1.3 1.513 1.807 2.353l6.702 11.136c0.262 0.44 0.5 0.53 0.984 0.4l16.416-4.361c1.128-0.298 2.27-0.407 3.427-0.2 2.52 0.472 3.623 2.4 2.77 4.826-0.388 1.1-1.058 2.047-1.8 2.932l-11.457 13.467c-0.313 0.366-0.32 0.63-0.103 1.04l6.822 12.934c0.544 1.032 0.96 2.103 0.97 3.288 0.027 2.696-1.944 4.902-4.623 5.294-1.5 0.22-2.894-0.1-4.3-0.534l-10.3-3.133c-0.318-0.095-0.44-0.22-0.496-0.563l-1.242-7.24c-0.012-0.066 0.008-0.138 0.018-0.286l11.82 3.26" fill-rule="evenodd"/></g>
 <g id="change1_2"><path fill="inherit" d="m15.863 32.65l2.18 0.95-2.423 19.3 13.244-14.68 2.233 0.627 2.75 8.36-3.574-1.26-9.248 9.984s-4.136 4.282-6.378 3.56-4.134-2.72-4.344-6.292-1.156-13.77-1.156-13.77l-4.52-3.258z"/></g>
 <g id="change1_3"><path fill="inherit" d="m9.146 39.43s-1.996 22.073 1.892 22.808-0.42-0.105-0.42-0.105 2.207 2.523 10.93-6.832l8.724-9.354-17.448 10.3c0.42-0.526 2.207-18.394 2.207-18.394z"/></g>
</svg>