<?xml version="1.0" encoding="UTF-8"?><svg xmlns="http://www.w3.org/2000/svg" xmlns:xlink="http://www.w3.org/1999/xlink" contentScriptType="text/ecmascript" fill="#000000" width="126.3" zoomAndPan="magnify" contentStyleType="text/css" viewBox="-0.0 -0.1 126.3 125.5" height="125.5" preserveAspectRatio="xMidYMid meet" version="1"><g id="change1_1"><path fill="#eb8b8f" d="M125.7466,58.1658c-0.0686,0.0146-0.1412,0.0234-0.2079,0.0442c-1.5258,0.4747-3.1958,0.6789-4.757,1.0105 c-3.3403,0.7095-6.6805,1.4191-10.0208,2.1287c-7.7153,1.6389-15.4307,3.278-23.146,4.9169 c7.8055,4.8458,15.611,9.6915,23.4166,14.5373c3.5217,2.1863,7.0433,4.3726,10.565,6.5589 c0.2715,0.1685,0.4176,0.5705,0.2242,0.8551c-3.3452,4.922-6.6904,9.844-10.0356,14.7661 c-0.1826,0.2687-0.5582,0.4171-0.8551,0.2242c-0.0588-0.0382-0.1164-0.0831-0.1783-0.1158c-1.414-0.7465-2.739-1.7792-4.0782-2.6492 c-2.8637-1.86-5.7274-3.7203-8.591-5.5804c-6.4175-4.1686-12.8348-8.3372-19.2521-12.5057 c2.5515,8.6617,5.1028,17.3232,7.6541,25.9849c1.1713,3.9762,2.3425,7.9524,3.5137,11.9286 c0.0939,0.3186-0.1131,0.6879-0.4365,0.7688c-5.7733,1.4441-11.5468,2.8883-17.32,4.3324c-0.3276,0.082-0.6785-0.1052-0.7688-0.4365 c-0.0185-0.0679-0.0323-0.139-0.0559-0.2052c-0.5383-1.5125-0.8566-3.1447-1.2782-4.6922 c-0.8975-3.2947-1.7951-6.5895-2.6926-9.8842c-2.1473-7.8829-4.2949-15.7659-6.4423-23.6489 c-4.4378,8.1437-8.8755,16.2873-13.3132,24.431c-1.9834,3.6397-3.9669,7.2795-5.9503,10.9193 c-0.1604,0.2944-0.572,0.394-0.855,0.2242c-5.1036-3.0612-10.2072-6.1224-15.3106-9.1836 c-0.2922-0.1752-0.3932-0.5596-0.2242-0.8551c0.035-0.0611,0.0753-0.1212,0.1056-0.1846c0.692-1.4494,1.6174-2.8285,2.414-4.2217 c1.6951-2.9643,3.3902-5.9286,5.0853-8.8931c4.5264-7.916,9.0529-15.8318,13.5794-23.7479c-0.501,0.1064-1.002,0.2128-1.503,0.3193 c-9.7031,2.0612-19.4062,4.1225-29.1093,6.1837c-4.0588,0.8623-8.1176,1.7245-12.1764,2.5867 c-0.0651,0.0139-0.1219,0.0056-0.1804,0.002c-0.2624,0.0215-0.5217-0.1008-0.5884-0.4385 C1.9894,78.6455,1.0017,73.645,0.014,68.6445c-0.0634-0.3209,0.0906-0.6879,0.4365-0.7688c0.0683-0.016,0.1403-0.0266,0.2068-0.0484 c1.5197-0.4973,3.1748-0.7427,4.73-1.1065c3.3495-0.7836,6.6993-1.5673,10.0489-2.3509c8.75-2.0471,17.5001-4.0942,26.2501-6.1413 c-8.3036-5.3939-16.6072-10.7877-24.9109-16.1815c-3.4797-2.2603-6.9594-4.5207-10.4391-6.781 c-0.0632-0.041-0.1043-0.092-0.1456-0.1426c-0.1829-0.174-0.2634-0.4368-0.0786-0.7126c2.8375-4.2343,5.6749-8.4686,8.5124-12.7029 c0.1841-0.2747,0.5555-0.4102,0.8551-0.2242c0.0595,0.037,0.118,0.0802,0.1804,0.112c1.4256,0.7262,2.7693,1.7192,4.1271,2.5622 c2.9226,1.8144,5.8453,3.6289,8.768,5.4433c6.799,4.2209,13.598,8.4418,20.397,12.6627 c-2.3298-8.5523-4.6595-17.1046-6.9893-25.6569c-1.0906-4.0035-2.1812-8.007-3.2718-12.0105 c-0.0415-0.1524-0.0176-0.2809,0.0314-0.394c0.0548-0.1696,0.1781-0.3162,0.4051-0.3746c4.9366-1.2692,9.873-2.5385,14.8097-3.8076 c0.3326-0.0855,0.6722,0.1086,0.7688,0.4365c0.0199,0.0674,0.0355,0.1379,0.06,0.2037c0.5605,1.5049,0.9192,3.1205,1.3726,4.6598 c0.972,3.2999,1.944,6.5998,2.916,9.8997c2.4546,8.3331,4.9092,16.6663,7.3638,24.9995 c4.8881-8.5484,9.7763-17.0969,14.6644-25.6453c2.0597-3.6021,4.1195-7.2041,6.1792-10.8062 c0.0888-0.1553,0.2132-0.2363,0.3455-0.2742c0.0106-0.0042,0.02-0.0096,0.0308-0.0131c0.0204-0.0046,0.0403-0.0047,0.061-0.0069 c0.1294-0.0264,0.2706-0.017,0.4178,0.0699c4.3881,2.5932,8.7763,5.1864,13.1644,7.7796c0.2981,0.1761,0.3863,0.5576,0.2242,0.8551 c-0.0336,0.0618-0.0722,0.1226-0.1016,0.1865c-0.6709,1.4599-1.5562,2.8558-2.3244,4.2656 c-1.6461,3.0208-3.2921,6.0414-4.9382,9.0621c-4.2186,7.7416-8.4371,15.4831-12.6558,23.2246 c9.4916-2.2206,18.9835-4.4411,28.4751-6.6617c4.0361-0.9443,8.0723-1.8885,12.1084-2.8328 c0.3073-0.0719,0.7038,0.0958,0.7688,0.4365c1.115,5.8459,2.23,11.6917,3.345,17.5375 C126.2433,57.7124,126.0954,58.0917,125.7466,58.1658z"/></g></svg>