<?xml version="1.0" encoding="UTF-8"?><svg xmlns="http://www.w3.org/2000/svg" xmlns:xlink="http://www.w3.org/1999/xlink" contentScriptType="text/ecmascript" fill="#000000" width="396.9" zoomAndPan="magnify" contentStyleType="text/css" viewBox="-0.0 -2.6 396.9 129.6" height="129.6" preserveAspectRatio="xMidYMid meet" version="1"><g id="change1_1"><path fill="#3f3a6d" d="M374.7189,48.4678c-15.6298-14.4547-38.1308-18.066-58.4074-13.4691 c-1.4318,0.3246-2.8729,0.6976-4.3158,1.1083c-6.0338-6.778-13.6194-12.192-21.9337-15.4928 c-16.9221-6.7182-36.2042-5.2469-52.9425,1.2797c-1.8581,0.7245-3.6928,1.5228-5.5062,2.3727 c-9.7023-9.6223-21.8574-16.8536-34.8354-20.8841c-19.1525-5.9481-39.6319-3.8953-57.5679,4.9294 c-5.6151,2.7627-10.9376,6.1344-15.8729,10.0098c-3.8409-1.5608-7.8765-2.6613-11.9708-3.3156 c-20.4108-3.2617-41.8673,3.4581-59.0652,14.2834c-17.7452,11.1697-32.4854,27.374-41.8719,46.1288 C5.011,86.244,1.6348,97.8844,0.0082,109.8651c-0.0535,0.3937,0.1535,0.7912,0.6027,0.7912c5,0,10,0,15,0 c0.0284,0,0.0482-0.0121,0.0745-0.0151c0.2498,0.0113,0.4833-0.1147,0.5282-0.4438C20.2143,80.895,39.658,55.1188,65.1844,40.7703 c13.2693-7.4587,29.5519-12.5308,44.8484-9.6602c-5.1141,5.9951-9.4692,12.6284-12.8486,19.7216 c-8.6189,18.0908-11.9317,41.6054-1.0576,59.5172c4.8814,8.0407,12.486,14.249,21.992,15.5371 c8.6688,1.1746,17.476-1.7627,24.2072-7.2273c8.2596-6.7053,12.5034-16.653,13.4651-27.0916 c0.5443-5.9076,0.1282-11.8248-0.5978-17.6967c-0.7908-6.3956-1.6384-12.7999-3.1056-19.0815 c-2.3707-10.1508-6.4906-19.7939-14.062-27.0706c6.5374-4.3557,13.764-7.6498,21.4172-9.4886 c20.132-4.8369,42.218,1.109,57.6623,14.5933c-8.4502,6.1464-15.7748,13.8184-21.1254,22.7842 c-5.2803,8.8482-8.7699,19.0642-7.4493,29.4735c1.3343,10.517,7.8009,19.9892,17.1005,25.1032 c8.1924,4.5052,18.2704,5.0873,26.6689,0.7919c7.6598-3.9176,13.0683-11.2105,16.3588-18.9984 c7.4826-17.7098,4.0393-38.1181-6.0395-54.0743c-0.0959-0.1519-0.2018-0.2971-0.2988-0.4482 c6.9175-2.861,14.2697-4.6182,21.7081-4.9197c7.8372-0.3177,15.8369,0.9847,22.924,4.4355 c3.1481,1.5329,6.0599,3.5093,8.7052,5.7974c-11.5583,6.3492-21.3214,15.8697-24.9675,28.6631 c-3.061,10.7407-0.2089,21.9877,8.1202,29.5486c7.2134,6.5481,17.4491,9.3326,26.7434,5.8513 c15.5003-5.8058,21.6113-25.3892,20.1329-40.5478c-0.5321-5.4561-2.0167-10.7462-4.2559-15.7131 c21.0174-3.8605,46.044,3.8428,52.7608,26.1284c2.3144,7.6789,2.103,15.7491-1.528,22.9937 c-0.1513,0.3018-0.0826,0.6758,0.2242,0.8551c4.3174,2.5236,8.6347,5.0472,12.9521,7.5708c0.2786,0.1629,0.702,0.0776,0.8551-0.2242 C396.8197,87.9421,390.881,63.4148,374.7189,48.4678z M305.8981,55.8606c2.834,5.6094,4.5421,12.0967,3.7958,18.3134 c-0.6809,5.6714-3.3587,12.0151-7.8512,15.7074c-2.087,1.7151-4.7079,2.684-7.394,1.977c-3.1931-0.8404-5.9599-3.6397-7.5421-6.443 c-3.2758-5.8038-0.5004-12.2218,3.3179-16.981C294.4476,63.1707,299.8837,58.9572,305.8981,55.8606z M221.1584,50.8777 c2.1602-1.9615,4.453-3.804,6.8544-5.5101c1.9232,2.9724,3.5909,6.1345,4.9426,9.4829c4.8424,11.9959,5.4357,27.483-3.4703,37.8717 c-3.8859,4.5329-9.3904,6.3454-14.9902,3.808c-5.6891-2.5779-9.4536-7.5941-9.8329-13.8723 C203.9136,70.2761,212.4867,58.7519,221.1584,50.8777z M125.5637,38.1431c3.0022,2.5953,5.4493,5.831,7.2305,9.6561 c2.9572,6.3506,4.1719,13.4505,5.4667,20.2916c2.2045,11.6476,4.3984,26.9713-4.4371,36.5493 c-5.062,5.4874-12.5302,7.5853-18.7208,2.6809c-5.7579-4.5616-8.6762-12.1165-9.4516-19.2314 c-1.7775-16.3095,5.7383-33.1267,15.9328-45.49C122.8495,41.065,124.1797,39.5794,125.5637,38.1431z"/></g></svg>