<?xml version="1.0" encoding="UTF-8"?><svg xmlns="http://www.w3.org/2000/svg" xmlns:xlink="http://www.w3.org/1999/xlink" contentScriptType="text/ecmascript" fill="#000000" width="333.6" zoomAndPan="magnify" contentStyleType="text/css" viewBox="-0.1 -0.1 333.6 126.6" height="126.6" preserveAspectRatio="xMidYMid meet" version="1"><g id="change1_1"><path fill="#99b0dc" d="M296.4295,82.8655c-22.0903,19.4889-48.5296,34.9528-77.8784,39.8962 c-16.5722,2.7913-33.423,3.8125-50.2156,3.7157c-15.3921-0.0887-30.8883-0.9101-46.1453-3.0114 c-24.8856-3.4274-49.6295-10.6182-71.4738-23.2243C28.9491,87.68,10.774,69.4807,0.0741,46.5843 c-0.1395-0.2985-0.0914-0.6831,0.2242-0.8551c6.5855-3.5891,13.1711-7.1779,19.7567-10.7669 c0.2746-0.1497,0.709-0.0879,0.8551,0.2242c1.1189,2.3903,2.327,4.7361,3.6403,7.0256 c10.5923,18.4656,27.3443,32.6755,46.2132,42.2032c22.4071,11.3143,47.535,15.7607,72.3934,17.2879 c25.7291,1.5807,52.3552,2.2367,77.6434-3.566c22.6624-5.2001,43.048-17.8048,60.1685-33.2549 c16.4414-14.8373,31.4308-35.5928,27.3822-58.9671c-0.0087-0.0502,0.002-0.0927,0.0035-0.139 c-0.0306-0.2711,0.0885-0.5493,0.433-0.6299c7.3043-1.7101,14.6086-3.42,21.9131-5.1302c0.3033-0.071,0.7088,0.0949,0.7688,0.4365 c0.5939,3.3825,0.9758,6.7963,1.095,10.2294C333.5549,39.2022,317.1103,64.6201,296.4295,82.8655z"/></g></svg>