<?xml version="1.0" encoding="UTF-8"?><svg xmlns="http://www.w3.org/2000/svg" xmlns:xlink="http://www.w3.org/1999/xlink" contentScriptType="text/ecmascript" fill="#000000" width="57.8" zoomAndPan="magnify" contentStyleType="text/css" viewBox="-0.0 -0.0 57.8 54.7" height="54.7" preserveAspectRatio="xMidYMid meet" version="1"><g id="change1_1"><path fill="#ffe8e5" d="M57.49,29.683a11.851,11.851,0,0,0-1.508-3.411,10.8,10.8,0,0,1-1.918-4.24c-.063-.349-.133-.7-.2-1.051-.07-.394-.122-.792-.2-1.186-.19-.962-.376-1.925-.587-2.883a14.43,14.43,0,0,0-.476-1.669,18.3,18.3,0,0,0-2.081-3.883,12.51,12.51,0,0,1-1.765-3.727A5.6,5.6,0,0,0,47.394,5.2,12.151,12.151,0,0,0,45.77,3.809c-.68-.505-1.4-.951-2.114-1.412-.792-.509-1.721-.736-2.516-1.237A2.055,2.055,0,0,0,40.5.981C39.278.706,38.041.535,36.8.357A8.332,8.332,0,0,0,34.139.338,2.756,2.756,0,0,1,33.08.346,8.921,8.921,0,0,0,30.148.231a3.315,3.315,0,0,1-1.709-.16A.789.789,0,0,0,28.049,0a18.522,18.522,0,0,1-3.2.015,1.241,1.241,0,0,0-.264.029,39.779,39.779,0,0,0-4.1.666,19.072,19.072,0,0,0-2.564.75c-1.167.446-2.293.992-3.452,1.453A13.615,13.615,0,0,0,11.743,4.34q-.608.418-1.249.781a22.217,22.217,0,0,0-2.746,1.91,32.024,32.024,0,0,0-4.035,4.091,2.773,2.773,0,0,0-.312.435c-.491.8-.959,1.613-1.464,2.4A11.33,11.33,0,0,0,.58,17.435,26.019,26.019,0,0,0,0,22.348a2.893,2.893,0,0,0,.019.535C.242,24.34.4,25.8.692,27.249c.4,1.974,1.04,3.88,1.609,5.805.238.814.516,1.616.8,2.415.179.5.379,1,.606,1.486.6,1.3,1.215,2.587,1.828,3.873a10.153,10.153,0,0,0,.944,1.616c.717.97,1.405,1.962,2.126,2.924.457.606.944,1.19,1.442,1.762a21.6,21.6,0,0,0,4.537,3.939,24.974,24.974,0,0,0,4.953,2.642,12.668,12.668,0,0,0,4.831.959c.847-.03,1.694-.008,2.545-.008v.026c.937-.015,1.873-.037,2.813-.048a18.554,18.554,0,0,0,4.493-.632,30.054,30.054,0,0,1,4.868-.9,38.936,38.936,0,0,0,4.478-.784c1.219-.257,2.415-.625,3.623-.952a6.4,6.4,0,0,0,2.5-1.244,6.87,6.87,0,0,0,2.018-2.286,5.988,5.988,0,0,1,.486-.8A39.227,39.227,0,0,0,55.049,41.9a13.961,13.961,0,0,0,.988-3.051c.075-.349.149-.7.2-1.052a34.607,34.607,0,0,1,1.249-5.477A4.252,4.252,0,0,0,57.49,29.683Z"/></g></svg>