<?xml version="1.0" encoding="UTF-8"?><svg xmlns="http://www.w3.org/2000/svg" xmlns:xlink="http://www.w3.org/1999/xlink" contentScriptType="text/ecmascript" fill="#000000" width="177.1" zoomAndPan="magnify" contentStyleType="text/css" viewBox="-0.9 -1.8 177.1 169.7" height="169.7" preserveAspectRatio="xMidYMid meet" version="1"><g id="change1_1"><path fill="#eb8b8f" d="M174.0238,127.0789c-2.2741,7.9417-7.5681,14.6042-14.7172,18.7222 c-13.7509,7.9207-32.9778,6.546-44.3943-4.8365c-0.7279,8.1719-5.728,15.3522-12.361,20.0374 c-7.4023,5.2285-16.6649,6.9083-25.5832,6.5015c-4.7705-0.2176-9.5121-1.0024-14.1464-2.137 c-4.2579-1.0425-8.5308-2.3912-12.304-4.6718c-14.4401-8.7274-13.0087-27.3013-10.6948-41.8019 c-8.574,0.2575-17.6439,0.0334-25.6599-3.2968c-7.4474-3.094-12.7849-9.224-13.8932-17.3458 c-1.1523-8.4457,1.5366-17.4834,5.2307-25.027c3.0434-6.2147,7.4391-11.7326,13.1759-15.6575 c6.2281-4.261,13.5999-6.291,21.0529-6.9418c-4.4951-8.0029-5.5739-17.7508-2.9935-26.5652 C41.3332,8.3545,57.509-1.7611,73.6081,0.2552c16.8776,2.1139,30.1831,15.0513,41.5836,26.6002 c0.1581,0.1601,0.1953,0.3426,0.1657,0.5126l2.2311,0.2598c0.0062-0.1805,0.0884-0.3562,0.3021-0.468 c7.4885-3.9211,15.672-6.9273,24.0559-8.1636c6.7806-0.9999,14.3713-0.9194,20.3578,2.8543 c3.3098,2.0864,5.5681,5.1857,7.4362,8.5706c2.1695,3.9309,3.5965,8.237,4.0226,12.7141 c1.5074,15.8365-9.2911,28.6839-18.1489,40.5746c8.0566,3.8752,14.0051,11.1091,17.1608,19.4029 C175.6573,110.6878,176.264,119.2554,174.0238,127.0789z"/></g><g id="change2_1"><path fill="#fdfdfb" d="M126.4735,77.4776c-0.0101,1.5253-0.1516,3.0452-0.4415,4.5434 c-2.6579,13.7338-16.3226,22.2466-29.2931,24.3004c-14.0553,2.2256-30.2628-1.9614-39.1842-13.6613 c-3.8239-5.0147-5.857-11.3052-5.1866-17.6202c0.6639-6.2538,3.8197-11.9294,8.3157-16.2572 c10.6898-10.2897,27.4567-13.0019,41.4183-8.9547c12.5311,3.6325,24.2787,13.7429,24.3713,27.6488 C126.4734,77.4771,126.4735,77.4773,126.4735,77.4776z"/></g></svg>