<?xml version="1.0" encoding="UTF-8"?><svg xmlns="http://www.w3.org/2000/svg" xmlns:xlink="http://www.w3.org/1999/xlink" contentScriptType="text/ecmascript" fill="#000000" width="175" zoomAndPan="magnify" contentStyleType="text/css" viewBox="-0.4 -1.3 175.0 178.6" height="178.6" preserveAspectRatio="xMidYMid meet" version="1"><g id="change1_1"><path fill="#99b0dc" d="M174.5,92.6c0.1,8.4-2.9,16.5-8.4,22.9c-10.4,12.2-27,17.1-41.9,21.1c-0.2,0.1-0.4,0-0.5-0.1l-1.3,1.8 c0.2,0.1,0.3,0.3,0.3,0.5c-0.3,9.1-4,18-9.7,25c-5,6.3-12.1,11.3-20.2,12.5c-7.2,1-15.2,0.4-21.5-3.6c-9.9-6.4-12.1-18.6-16.4-28.7 c-7.8,5.4-17.6,6.9-26.9,5.2c-8.4-1.6-16.4-5.9-21.9-12.5c-2.6-3.1-4.8-6.8-5.7-10.9c-0.8-3.8-0.5-7.8,0.6-11.5 c2.4-8.6,8.2-16.2,14.8-22.1c6.2-5.7,13.7-10.5,21.8-12.8c-3.9-2.4-7.6-5-11-8c-3.9-3.4-7.6-7.2-10.2-11.6 c-2.2-3.8-2.9-7.8-3.2-12.2c-0.2-4.6,0.2-9.4,1.6-13.8c2.9-8.9,9.9-16.2,18.8-19c3.6-1.1,7.3-1.6,11-2.2c4.7-0.8,9.6-0.7,14.3,0.4 c8.4,2.1,15.3,7.6,21.9,12.9c3.8-7.3,8.3-14.8,14.7-20.2c5.6-4.7,12.8-7,20-5.1c8,2.1,14.7,8.4,19.7,14.7c4.7,5.9,8.2,12.9,9.2,20.4 c1.1,8.1-0.7,16.1-4.1,23.5c9.1,0,18,3.8,24.4,10.2C171,75.6,174.4,84,174.5,92.6z"/></g><g id="change2_1"><path fill="#ffe8e5" d="M135.2,79.8c0,1.9-0.2,3.8-0.5,5.6c-2.8,16.4-17.5,28-33.3,30.7C84.9,119.1,66.7,113.1,57,99 c-4.4-6.4-6.6-14.3-5.9-22.1c0.7-7.7,4.2-14.9,9.4-20.6c11.7-12.6,30.9-16.6,47.1-11.3C122.8,49.9,135.1,63.3,135.2,79.8z"/></g></svg>