<?xml version="1.0" encoding="UTF-8"?><svg xmlns="http://www.w3.org/2000/svg" xmlns:xlink="http://www.w3.org/1999/xlink" contentScriptType="text/ecmascript" fill="#000000" width="126.1" zoomAndPan="magnify" contentStyleType="text/css" viewBox="0.0 0.0 126.1 125.7" height="125.7" preserveAspectRatio="xMidYMid meet" version="1"><g id="change1_1"><path fill="#efa54f" d="M125.9585,73.8806c-1.1888,3.1232-2.3775,6.2463-3.5663,9.3695c-0.1188,0.3122-0.422,0.5375-0.7688,0.4365 c-0.0674-0.0196-0.1353-0.0453-0.2039-0.0594c-1.5687-0.32-3.1285-0.911-4.6641-1.3581c-3.3029-0.9617-6.6058-1.9235-9.9087-2.8852 c-5.8721-1.7098-11.7443-3.4197-17.6164-5.1296c5.7813,5.1276,11.5627,10.2554,17.3441,15.383 c3.1043,2.7533,6.2086,5.5066,9.3129,8.2599c0.2097,0.186,0.2319,0.412,0.1561,0.6077c-0.0255,0.0952-0.0694,0.1894-0.1562,0.2762 c-2.3629,2.3629-4.7259,4.7259-7.0889,7.0889c-0.2545,0.2545-0.6268,0.2188-0.8839,0c-0.0537-0.0457-0.1057-0.0947-0.1617-0.1376 c-3.9992-3.0621-7.7248-6.5734-11.5593-9.8364c-3.5629-3.0318-7.1257-6.0637-10.6886-9.0955 c2.8868,5.524,5.7735,11.048,8.6603,16.5719c1.9219,3.6775,3.8437,7.355,5.7655,11.0325c0.035,0.0669,0.0458,0.1316,0.0569,0.196 c0.0856,0.2452,0.0309,0.5189-0.2811,0.6589c-3.049,1.3678-6.098,2.7357-9.147,4.1035c-0.3014,0.1353-0.6803,0.0942-0.8551-0.2242 c-0.0338-0.0615-0.0636-0.1278-0.1022-0.1862c-0.8831-1.3353-1.5681-2.8564-2.3377-4.2583 c-1.6555-3.0156-3.3109-6.0311-4.9664-9.0467c-3.9839-7.2571-7.9679-14.5144-11.9519-21.7716 c0.7745,9.6179,1.549,19.2357,2.3234,28.8535c0.3327,4.1317,0.6654,8.2635,0.9981,12.3952c0.0272,0.338-0.3072,0.625-0.625,0.625 c-4.1967,0-8.3933,0-12.5899,0c-0.355,0-0.6048-0.2877-0.625-0.625c-0.0042-0.0705-0.0043-0.1423-0.0127-0.2123 c-0.1916-1.6001-0.1946-3.2468-0.2909-4.8545c-0.2043-3.4087-0.4085-6.8174-0.6128-10.2261 c-0.2109-3.519-0.4218-7.038-0.6326-10.557c-1.3221,4.5405-2.6442,9.0809-3.9663,13.6215 c-1.1588,3.9798-2.3177,7.9597-3.4765,11.9395c-0.0873,0.2999-0.4497,0.558-0.7688,0.4365 c-3.9221-1.4929-7.8442-2.9857-11.7663-4.4786c-0.3066-0.1167-0.5445-0.4245-0.4365-0.7688c0.021-0.067,0.0486-0.1345,0.0636-0.2029 c0.3427-1.5629,0.9768-3.1154,1.455-4.6404c1.0217-3.2583,2.0433-6.5167,3.065-9.7751c1.5948-5.0864,3.1897-10.1728,4.7845-15.2592 c-4.2281,4.9686-8.4562,9.9373-12.6842,14.9059c-2.6863,3.1568-5.3727,6.3137-8.059,9.4705c-0.2195,0.258-0.6593,0.2246-0.8839,0 c-2.9675-2.9675-5.9349-5.9349-8.9024-8.9024c-0.2506-0.2506-0.224-0.6314,0-0.8839c0.0468-0.0528,0.0974-0.1037,0.1411-0.1591 c0.9985-1.2655,2.1578-2.4329,3.2269-3.6383c2.2659-2.5547,4.5317-5.1095,6.7975-7.6642c2.3394-2.6376,4.6786-5.2751,7.0179-7.9127 c-4.1433,2.2745-8.2866,4.5491-12.4299,6.8237c-3.6336,1.9947-7.2672,3.9895-10.9008,5.9842 c-0.2702,0.1484-0.7143,0.0897-0.8551-0.2242c-1.7177-3.829-3.4355-7.6579-5.1532-11.4869C4.4146,86.1642,4.45,85.773,4.7716,85.605 c0.0622-0.0325,0.1295-0.0607,0.1885-0.0985c1.3473-0.863,2.8937-1.5122,4.3101-2.2524c3.0265-1.5816,6.0529-3.1632,9.0794-4.7448 c6.3957-3.3423,12.7914-6.6846,19.1872-10.027c-8.1722,0.6581-16.3444,1.3161-24.5166,1.9742 c-4.1317,0.3327-8.2635,0.6654-12.3952,0.9981C0.287,71.4818,0,71.1474,0,70.8296c0-4.1967,0-8.3932,0-12.5899 c0-0.355,0.2877-0.6048,0.6248-0.6251c0.0705-0.0042,0.1423-0.0043,0.2123-0.0127c1.6001-0.1916,3.2468-0.1946,4.8545-0.2909 c3.4087-0.2043,6.8174-0.4085,10.2261-0.6128c3.5992-0.2157,7.1984-0.4313,10.7975-0.647 c-4.3582-1.269-8.7164-2.5381-13.0746-3.8071c-3.9798-1.1588-7.9597-2.3176-11.9395-3.4765 c-0.2999-0.0873-0.558-0.4497-0.4365-0.7688c1.4929-3.9221,2.9857-7.8442,4.4786-11.7664c0.1167-0.3066,0.4245-0.5445,0.7688-0.4365 c0.067,0.021,0.1345,0.0486,0.2029,0.0636c1.5629,0.3427,3.1154,0.9768,4.6404,1.455c3.2583,1.0217,6.5167,2.0433,9.7751,3.065 c5.1846,1.6257,10.3692,3.2513,15.5538,4.877c-4.8076-4.0911-9.6152-8.1822-14.4229-12.2733 c-3.1568-2.6863-6.3137-5.3727-9.4705-8.059c-0.258-0.2195-0.2246-0.6593,0-0.8839c2.9675-2.9675,5.9349-5.9349,8.9024-8.9024 c0.2506-0.2506,0.6314-0.224,0.8839,0c0.0528,0.0468,0.1037,0.0974,0.1591,0.1411c1.2655,0.9985,2.4329,2.1578,3.6383,3.2269 c2.5547,2.2659,5.1095,4.5317,7.6642,6.7975c2.6976,2.3926,5.3953,4.7852,8.0928,7.1777 c-2.1832-3.9769-4.3664-7.9538-6.5496-11.9307c-1.9948-3.6336-3.9895-7.2672-5.9843-10.9008 c-0.1484-0.2702-0.0896-0.7144,0.2242-0.8551c3.829-1.7177,7.6579-3.4354,11.4869-5.1532c0.2959-0.1328,0.6871-0.0974,0.8551,0.2242 c0.0325,0.0622,0.0607,0.1295,0.0985,0.1885c0.863,1.3473,1.5122,2.8937,2.2524,4.3101c1.5816,3.0265,3.1632,6.0529,4.7448,9.0794 c1.5494,2.9648,3.0989,5.9297,4.6483,8.8947c-0.2654-4.4291-0.5308-8.8583-0.7963-13.2875 c-0.2482-4.142-0.4964-8.2839-0.7446-12.4259c-0.0167-0.2792,0.1268-0.4544,0.3183-0.5392C52.771,0.036,52.8688,0,52.9921,0 c3.3418,0,6.6835,0,10.0253,0c0.3606,0,0.5978,0.2881,0.625,0.625c0.0056,0.0703,0.0076,0.1418,0.017,0.2119 C63.8743,2.434,63.92,4.0734,64.0493,5.679c0.2761,3.429,0.5522,6.858,0.8283,10.287c0.3824,4.7491,0.7648,9.4983,1.1473,14.2474 c1.8102-5.7734,3.6205-11.5469,5.4308-17.3203c1.2415-3.9594,2.4829-7.9187,3.7244-11.878 c0.0261-0.0832,0.0677-0.1479,0.1135-0.2061c0.1219-0.2134,0.3506-0.3464,0.6553-0.2304c3.1232,1.1888,6.2463,2.3775,9.3695,3.5663 c0.3122,0.1188,0.5375,0.422,0.4365,0.7688c-0.0196,0.0674-0.0454,0.1353-0.0594,0.2039c-0.32,1.5687-0.911,3.1285-1.3581,4.6641 c-0.9617,3.3029-1.9235,6.6058-2.8852,9.9087c-1.7402,5.9763-3.4804,11.9527-5.2206,17.9291 c4.9902-5.6264,9.9804-11.2527,14.9706-16.8792c2.7533-3.1043,5.5066-6.2086,8.2599-9.3129 c0.1863-0.2101,0.4127-0.2322,0.6086-0.1559c0.0948,0.0256,0.1887,0.0696,0.2753,0.1561c2.3629,2.3629,4.7259,4.7259,7.0889,7.0889 c0.2545,0.2545,0.2188,0.6268,0,0.8839c-0.0457,0.0537-0.0947,0.1057-0.1376,0.1617c-3.0621,3.9991-6.5734,7.7248-9.8364,11.5593 c-3.088,3.6288-6.1758,7.2576-9.2638,10.8864c5.3604-2.8013,10.7208-5.6025,16.0811-8.4038 c3.6775-1.9219,7.355-3.8437,11.0325-5.7655c0.0667-0.0349,0.1311-0.0455,0.1953-0.0568c0.2455-0.0861,0.5196-0.0314,0.6597,0.2809 c1.3679,3.049,2.7357,6.098,4.1035,9.147c0.1353,0.3015,0.0942,0.6803-0.2242,0.8551c-0.0615,0.0338-0.1277,0.0636-0.1862,0.1022 c-1.3353,0.8831-2.8564,1.5681-4.2583,2.3377c-3.0156,1.6555-6.0311,3.3109-9.0467,4.9664 c-3.9504,2.1687-7.9009,4.3373-11.8514,6.506c5.9988-0.3595,11.9976-0.7189,17.9965-1.0784 c4.142-0.2482,8.2839-0.4964,12.4259-0.7446c0.2798-0.0167,0.4551,0.1273,0.5398,0.3193c0.0494,0.0853,0.0851,0.183,0.0851,0.3058 c0,3.3418,0,6.6835,0,10.0253c0,0.3607-0.2882,0.5979-0.625,0.625c-0.0703,0.0056-0.1419,0.0076-0.2117,0.017 c-1.5971,0.2149-3.2365,0.2606-4.8421,0.3899c-3.4289,0.2762-6.8579,0.5523-10.2869,0.8284 c-4.6627,0.3754-9.3254,0.7509-13.9882,1.1263c5.9493,1.8654,11.8988,3.7309,17.8481,5.5963 c3.9594,1.2415,7.9187,2.483,11.8781,3.7244c0.0836,0.0262,0.1486,0.0679,0.2069,0.1139 C125.9419,73.3478,126.0743,73.5763,125.9585,73.8806z"/></g></svg>