<?xml version="1.0" encoding="UTF-8"?><svg xmlns="http://www.w3.org/2000/svg" xmlns:xlink="http://www.w3.org/1999/xlink" contentScriptType="text/ecmascript" fill="#000000" width="98.9" zoomAndPan="magnify" contentStyleType="text/css" viewBox="-0.9 -0.2 98.9 41.9" height="41.9" preserveAspectRatio="xMidYMid meet" version="1"><g data-name="Layer 2"><g data-name="Layer 1"><g id="change1_1"><path fill="#ffe8e5" d="M96.46,5.61C95.53.43,91.86,0,87,0,82.85.05,76.69.63,69.16.87,59,1.23,64-.21,28.94,1c-10.12.35-24-.36-26.62,3.4a5.13,5.13,0,0,0-1,2.21C-.9,14.31.26,24,.76,30.16c.74,11.49,6.07,8.21,42.61,7.08,10.13-.32,18.16-.15,28.8-1.08,3.65-.32,18-1.82,21.32-3.28A5.15,5.15,0,0,0,96,31a13.62,13.62,0,0,0,.76-1.21,10.36,10.36,0,0,0,.83-3C98,22.22,96.92,8.07,96.46,5.61Z"/></g></g></g></svg>