<?xml version="1.0" encoding="UTF-8"?><svg xmlns="http://www.w3.org/2000/svg" xmlns:xlink="http://www.w3.org/1999/xlink" contentScriptType="text/ecmascript" fill="#000000" width="454.2" zoomAndPan="magnify" contentStyleType="text/css" viewBox="-0.0 0.0 454.2 464.3" height="464.3" preserveAspectRatio="xMidYMid meet" version="1"><g><g id="change1_27"><path fill="#3f3a6d" d="M241.2461 49.5869L241.2461 87.7002 225.8218 90.3242 223.5933 52.022z"/></g><g id="change1_2"><path fill="#3f3a6d" d="M194.5498,36.8062c0,0,36.7275-14.1655,71.3569-2.623l-3.6733,18.3633c0,0-39.876,1.5747-61.3877,8.3955 L194.5498,36.8062z"/></g><g id="change1_17"><path fill="#3f3a6d" d="M114.9365,446.9785c0.0029,9.6841-7.1367,16.0938-15.5063,15.7695 c-10.541-0.4087-15.5059-7.2661-15.5059-15.6436c0-8.376,6.7896-15.418,15.167-15.418 C107.4673,431.6865,114.9336,437.2988,114.9365,446.9785z"/></g><g id="change1_15"><path fill="#3f3a6d" d="M124.0918,392.5557c0,0-36.7271,49.5825-28.333,57.3218c15.6611,14.4385,48.0083-44.5991,48.0083-44.5991 L124.0918,392.5557z"/></g><g id="change1_13"><path fill="#3f3a6d" d="M336.5327,444.4868c-0.0034,9.6841,7.1372,16.0938,15.5068,15.77 c10.54-0.4097,15.5063-7.2666,15.5063-15.6445c0-8.3755-6.7905-15.4175-15.167-15.4175 C344.0029,429.1948,336.5361,434.8076,336.5327,444.4868z"/></g><g id="change1_31"><path fill="#3f3a6d" d="M327.3774,390.0635c0,0,36.729,49.5825,28.3335,57.3223c-15.6611,14.4385-48.0088-44.5991-48.0088-44.5991 L327.3774,390.0635z"/></g><g id="change1_25"><path fill="#3f3a6d" d="M126.0591 83.5073L142.5869 112.2432 126.0591 127.9341 107.9575 94.1411z"/></g><g id="change1_20"><path fill="#3f3a6d" d="M341.4224 88.6567L325.4434 117.7012 303.4517 111.7217 322.9355 78.7065z"/></g><g id="change2_3"><path fill="#99b0dc" d="M402.3047,257.5532c0.0366,110.2095-81.2178,183.1582-176.4819,179.4673 C105.8594,432.3735,49.3413,354.3154,49.3413,258.98c0-95.3359,77.2842-175.4727,172.6206-175.4727 C317.2969,83.5073,402.2676,147.376,402.3047,257.5532z"/></g><g id="change1_3"><path fill="#3f3a6d" d="M100.5347,20.1426c0.0039,12.7554-9.4004,21.1992-20.4258,20.7715 c-13.8843-0.5381-20.4253-9.5718-20.4253-20.6055S68.6279,0,79.6616,0C90.6958,0,100.5298,7.3921,100.5347,20.1426z"/></g><g id="change1_6"><path fill="#3f3a6d" d="M389.3726,28.7998c0.0044,12.7554-9.3999,21.1992-20.4258,20.7715 C355.0625,49.0337,348.521,40,348.521,28.9658c0-11.0337,8.9448-20.3086,19.9785-20.3086S389.3682,16.0488,389.3726,28.7998z"/></g><g id="change3_1"><path fill="#fdfdfb" d="M357.7925,258.2524c0.0278,82.4131-60.7334,136.9639-131.9697,134.2031 c-89.707-3.4741-131.9702-61.8457-131.9702-133.1362c0-71.29,57.7925-131.2148,129.083-131.2148 C294.2256,128.1045,357.7646,175.8643,357.7925,258.2524z"/></g><g id="change4_2"><path fill="#eb8b8f" d="M243.8262,263.1416c0.0029,9.335-6.8799,15.5146-14.9482,15.2012 c-10.1621-0.3936-14.9487-7.0054-14.9487-15.0796c0-8.0762,6.5464-14.8643,14.6216-14.8643 C236.6255,248.3989,243.8228,253.8096,243.8262,263.1416z"/></g><g id="change2_2"><path fill="#99b0dc" d="M69.5796,127.9341c0,0,98.3394-62.6572,108.2173-71.5854c9.8789-8.9272-37.4805-52.0986-83.5552-29.332 C48.1685,49.7852,33.4331,111.8091,69.5796,127.9341z"/></g><g id="change2_1"><path fill="#99b0dc" d="M389.9644,121.1211c0,0-105.3101-50.062-116.2139-57.7046 c-10.9033-7.6426,30.7754-56.3213,79.3037-39.4048C401.582,40.9282,423.8496,100.665,389.9644,121.1211z"/></g><g id="change4_3"><path fill="#eb8b8f" d="M223.1904,270.4771c0,0-34.7734,39.2681-38.1587,48.5986c-3.3857,9.3306-1.231,11.6636,0,11.9561 c1.231,0.292,8.6162-0.8765,14.4634-7.8735s29.3818-52.6812,29.3818-52.6812H223.1904z"/></g><g id="change4_1"><path fill="#eb8b8f" d="M220.1274 214.9829L226.2925 259.3188 235.8682 256.1704 234.5562 217.3442z"/></g><g id="change1_23"><path fill="#3f3a6d" d="M147.3623,218.1313c0,0-0.0005,0-0.001,0c-6.9038-0.001-14.4927-5.3276-18.4556-12.9531 c-4.1108-7.9111-3.5869-16.5542,1.4399-23.7129c3.8789-5.5254,8.2739-6.6851,11.2769-6.6851 c8.4697,0,15.311,8.7412,16.0635,9.7373l0.0923,0.1284c7.6548,11.2749,7.1816,18.8701,5.437,23.2554 c-1.9834,4.9858-6.6216,8.5122-13.0601,9.9307C149.2559,218.0308,148.3164,218.1313,147.3623,218.1313z M141.6226,181.0767 c-2.228,0-4.2314,1.3101-6.1245,4.0073c-4.9697,7.0776-2.7627,13.8091-1.0049,17.1904c2.8779,5.5396,8.2905,9.5601,12.8687,9.5605 c0.0005,0,0.0005,0,0.0005,0c0.4995,0,0.9829-0.0508,1.4375-0.1509c3.0674-0.6763,7.0425-2.2847,8.5649-6.1099 c1.6655-4.1851-0.0205-10.3335-4.7466-17.3198C151.0415,186.2061,146.1216,181.0767,141.6226,181.0767z"/></g><g id="change1_5"><path fill="#3f3a6d" d="M169.748 190.1309L153.8477 159.0562 183.5586 171.875 177.7173 152.457 183.7456 150.6431 193.4858 183.0146 167.4272 171.7715 175.353 187.2622z"/></g><g id="change1_9"><path fill="#3f3a6d" d="M214.071 139.777H245.325V146.07299999999998H214.071z" transform="rotate(2.922 229.833 142.892)"/></g><g id="change1_22"><path fill="#3f3a6d" d="M225.179 142.869H231.475V176.614H225.179z" transform="rotate(4.656 228.254 159.73)"/></g><g id="change1_30"><path fill="#3f3a6d" d="M257.07 146.866H263.366V177.538H257.07z" transform="rotate(12.075 260.175 162.17)"/></g><g id="change1_16"><path fill="#3f3a6d" d="M248.876 174.064H264.49V180.35999999999999H248.876z" transform="rotate(19.265 256.71 177.219)"/></g><g id="change1_28"><path fill="#3f3a6d" d="M255.293 144.091H272.082V150.387H255.293z" transform="rotate(7.233 263.687 147.238)"/></g><g id="change1_29"><path fill="#3f3a6d" d="M293.0088 208.0845L288.1929 204.0283 302.6089 186.9165 285.8438 189.7119 285.4199 170.0723 271.5571 188.0557 266.5708 184.2109 291.3306 152.0938 291.9819 182.3057 318.4434 177.8931z"/></g><g id="change1_12"><path fill="#3f3a6d" d="M305.0503 237.8521L295.5654 216.9883 333.4131 195.5586 342.0957 220.7007 336.1436 222.7559 329.9312 204.7646 303.6816 219.6279 310.7822 235.2466z"/></g><g id="change1_4"><path fill="#3f3a6d" d="M311.866 212.483H326.467V218.78H311.866z" transform="rotate(61.177 319.17 215.627)"/></g><g id="change4_4"><path fill="#eb8b8f" d="M222.8096,225.4131c0,0-6.394-1.7695-12.7324-10.1978c-4.5742-6.0815-9.2573-14.3867-5.0718-17.7114 c2.3965-1.9019,8.6592,5.4141,9.1377,5.9409c0,0,3.981-17.064,5.4287-22.4746c1.4482-5.4111,6.4512-7.9253,7.6963-2.7554 c0.6416,2.665,0.8291,10.1724,0.8291,10.1724s4.4961-1.1401,4.6997,3.9565c0,0,2.7373-0.8491,4.7383,0.8438 c2.0034,1.6929,1.5249,4.0732,1.5249,4.0732s3.6523-1.5264,5.3706,2.6914c1.7192,4.2178-0.9692,15.9419-4.1943,20.8892 C237.0117,225.7891,232.5771,228.9863,222.8096,225.4131z"/></g><g id="change1_32"><path fill="#3f3a6d" d="M350.6421,266.4858h-31.2705c-1.3037,0-2.3608-1.0566-2.3608-2.3608c0-1.3047,1.0571-2.3613,2.3608-2.3613 h31.2705c1.3047,0,2.3613,1.0566,2.3613,2.3613C353.0034,265.4292,351.9468,266.4858,350.6421,266.4858z"/></g><g id="change1_18"><path fill="#3f3a6d" d="M223.5933,386.1133c-1.3042,0-2.3608-1.0566-2.3608-2.3613v-28.3325c0-1.3042,1.0566-2.3613,2.3608-2.3613 c1.3047,0,2.3613,1.0571,2.3613,2.3613v28.3325C225.9546,385.0566,224.8979,386.1133,223.5933,386.1133z"/></g><g id="change1_14"><path fill="#3f3a6d" d="M145.2295,255.5898h-42.8931c-1.3047,0-2.3613-1.0566-2.3613-2.3608c0-1.3037,1.0566-2.3608,2.3613-2.3608 h42.8931c1.3037,0,2.3608,1.0571,2.3608,2.3608C147.5903,254.5332,146.5332,255.5898,145.2295,255.5898z"/></g><g id="change1_19"><path fill="#3f3a6d" d="M127.5225,331.0215c-0.7144,0-1.4199-0.3228-1.8848-0.937c-0.7866-1.04-0.5811-2.521,0.459-3.3071 l22.8994-17.3145c1.0405-0.7891,2.52-0.5825,3.3071,0.459c0.7871,1.0405,0.5811,2.5205-0.459,3.3071l-22.8989,17.3145 C128.519,330.8662,128.0195,331.0215,127.5225,331.0215z"/></g><g id="change1_24"><path fill="#3f3a6d" d="M315.6455,345.9751c-0.4985,0-1.0015-0.1572-1.4277-0.4819l-25.8516-19.6758 c-1.0386-0.79-1.2393-2.271-0.4497-3.3096c0.79-1.0381,2.2734-1.2378,3.3086-0.4487l25.8521,19.6758 c1.0386,0.79,1.2388,2.271,0.4492,3.3096C317.0615,345.6548,316.3574,345.9751,315.6455,345.9751z"/></g><g id="change1_26"><path fill="#3f3a6d" d="M336.8672,308.5923c-0.3882,0-0.7817-0.0962-1.1455-0.2983l-21.2222-11.8057 c-1.1392-0.6338-1.5493-2.0713-0.9155-3.2104s2.0708-1.5513,3.2109-0.9165l21.2217,11.8052 c1.1401,0.6343,1.5498,2.0723,0.9165,3.2114C338.501,308.1543,337.6963,308.5923,336.8672,308.5923z"/></g><g id="change1_10"><path fill="#3f3a6d" d="M272.0005,374.7021c-0.9214,0-1.7969-0.5435-2.1772-1.4468l-7.9478-18.8882 c-0.5059-1.2012,0.0591-2.5859,1.2607-3.0918c1.2007-0.5049,2.5859,0.0586,3.0923,1.2607l7.9482,18.8887 c0.5054,1.2017-0.0596,2.5864-1.2617,3.0918C272.6162,374.6426,272.3057,374.7021,272.0005,374.7021z"/></g><g id="change1_21"><path fill="#3f3a6d" d="M160.6362,361.7153c-0.4912,0-0.9873-0.1519-1.4102-0.4688c-1.0459-0.7793-1.2612-2.2588-0.481-3.3042 l11.7441-15.7402c0.7803-1.0444,2.2593-1.2607,3.3042-0.4805c1.0449,0.7793,1.2603,2.2588,0.48,3.3042l-11.7437,15.7402 C162.0664,361.3872,161.3555,361.7153,160.6362,361.7153z"/></g><g id="change1_8"><path fill="#3f3a6d" d="M110.9951,294.8193c-0.8867,0-1.7368-0.5024-2.1387-1.3594c-0.5547-1.1802-0.0464-2.5859,1.1343-3.1401 l19.2822-9.0503c1.1812-0.5542,2.5859-0.0454,3.1401,1.1343c0.5542,1.1802,0.0464,2.5859-1.1343,3.1401l-19.2822,9.0508 C111.6724,294.7471,111.3311,294.8193,110.9951,294.8193z"/></g><g id="change1_7"><path fill="#3f3a6d" d="M424.5591,69.5571c0,0,0.1831,0.2524,0.5103,0.7925c0.3379,0.5352,0.8105,1.3149,1.3501,2.3315 c0.5459,1.0156,1.1699,2.2676,1.8228,3.7344c0.6221,1.4766,1.3623,3.1382,1.9624,5.0229 c0.6973,1.8564,1.2476,3.9292,1.8271,6.1284c0.311,1.0942,0.479,2.252,0.7329,3.4194c0.2217,1.1738,0.5112,2.3657,0.6152,3.6055 c0.2725,2.4683,0.6577,5.0195,0.6357,7.6396c0.0112,1.3066,0.106,2.626,0.0474,3.9482c-0.0786,1.3218-0.1577,2.6489-0.2368,3.9766 l-0.1406,1.9883c-0.0786,0.6592-0.2056,1.3115-0.3057,1.9658c-0.2148,1.3071-0.4292,2.6089-0.6411,3.8999 c-0.1582,1.3018-0.5518,2.5444-0.8887,3.7808c-0.3433,1.2334-0.6821,2.4526-1.0156,3.6514 c-0.6729,2.3936-1.7261,4.5728-2.5317,6.6924c-0.7495,2.1509-1.9316,3.9712-2.835,5.7246 c-0.9751,1.7178-1.7202,3.3711-2.7144,4.6416c-0.9268,1.3027-1.7349,2.4385-2.4004,3.374 c-1.3564,1.8369-2.1313,2.8867-2.1313,2.8867c-0.2705,0.3667-0.7871,0.4443-1.1538,0.1738 c-0.3271-0.2417-0.4243-0.6797-0.248-1.0317l0.0371-0.0737c0,0,0.5728-1.1489,1.5737-3.1587 c0.5137-0.9873,1.1377-2.188,1.8525-3.564c0.1812-0.3413,0.3672-0.6938,0.5596-1.0562c0.1709-0.3735,0.3188-0.7715,0.4854-1.1719 c0.3354-0.7988,0.6885-1.6377,1.0557-2.5132c0.3687-0.8716,0.752-1.7793,1.1494-2.7188c0.4414-0.9209,0.7666-1.9229,1.0864-2.9561 c0.332-1.0283,0.6733-2.0835,1.022-3.1616c0.3271-1.0835,0.7915-2.1489,1.0015-3.3101c0.2656-1.1431,0.5356-2.3047,0.8091-3.4819 c0.2554-1.1787,0.6128-2.3501,0.7446-3.5767c0.1826-1.2163,0.3657-2.4419,0.5498-3.6724c0.0859-0.6162,0.1992-1.229,0.2642-1.8496 l0.1162-1.8687c0.0923-1.2451,0.1841-2.4912,0.2764-3.7314c0.0732-1.2427-0.0034-2.4834,0.0034-3.7144 c0.0537-2.4634-0.1621-4.8794-0.3354-7.2241c-0.0444-1.1772-0.291-2.3115-0.4092-3.438c-0.165-1.1201-0.2451-2.2339-0.4702-3.2905 c-0.4312-2.1147-0.75-4.145-1.2441-5.9717c-0.4185-1.8506-0.9194-3.5122-1.3403-4.9995 c-0.4668-1.4673-0.8682-2.7593-1.2471-3.7998c-0.3857-1.0425-0.6689-1.8657-0.896-2.3994 c-0.2075-0.5444-0.3521-0.8462-0.3521-0.8472c-0.1978-0.4111-0.0239-0.9053,0.3872-1.103 c0.3667-0.1753,0.7974-0.0576,1.0278,0.2603L424.5591,69.5571z"/></g><g id="change1_11"><path fill="#3f3a6d" d="M445.5303,83.0801c0,0,0.1289,0.165,0.3716,0.4746c0.2456,0.3252,0.6099,0.7935,1.0073,1.4106 c0.4248,0.6104,0.877,1.3779,1.4019,2.2676c0.4697,0.9087,1.0776,1.9116,1.5684,3.0786c0.2607,0.5786,0.5327,1.1821,0.814,1.8062 c0.2607,0.6333,0.4858,1.3042,0.7407,1.9873c0.5356,1.3589,0.9258,2.8525,1.3569,4.3901c0.3213,1.562,0.7441,3.1704,0.9331,4.8462 c0.1758,1.6763,0.4131,3.3765,0.3979,5.1001l0.0054,2.5742c-0.0747,0.854-0.1494,1.7061-0.2231,2.5498 c-0.0664,1.6982-0.4912,3.3257-0.8174,4.9028c-0.2563,1.5952-0.8525,3.0522-1.3291,4.4438 c-0.2539,0.6909-0.459,1.377-0.7354,2.0098c-0.313,0.6182-0.6147,1.2144-0.9048,1.7871 c-0.5933,1.1357-1.0747,2.1997-1.6606,3.0552c-0.582,0.8564-1.1157,1.5845-1.5479,2.1826 c-0.8716,1.1919-1.3892,1.8452-1.3896,1.8452c-0.2837,0.3584-0.8047,0.4185-1.1631,0.1348 c-0.2866-0.2275-0.3828-0.6064-0.2637-0.9326l0.0337-0.0918c0,0,0.2842-0.7749,0.8135-2.0815 c0.2686-0.6519,0.5864-1.4409,0.9805-2.3242c0.377-0.8916,0.6255-1.9712,1.0249-3.0811c0.1836-0.5596,0.376-1.1431,0.5742-1.7461 c0.1724-0.6104,0.2959-1.2583,0.4541-1.9116c0.2856-1.3149,0.6782-2.6709,0.8291-4.1289c0.2134-1.4448,0.4473-2.9268,0.498-4.46 c0.0518-0.7627,0.103-1.5313,0.1543-2.3027l-0.0474-2.3291c0.0547-1.5576-0.1362-3.1108-0.2598-4.6426 c-0.1431-1.5303-0.3857-3.0337-0.5996-4.4902c-0.3359-1.4336-0.501-2.8647-0.8726-4.1729 c-0.314-1.3247-0.6323-2.5752-0.9736-3.7202c-0.3105-1.1567-0.6841-2.186-0.958-3.1284 c-0.3423-0.9072-0.5791-1.7393-0.8408-2.3867c-0.2446-0.6553-0.4365-1.1694-0.5669-1.5195 c-0.1284-0.3452-0.2202-0.5415-0.2202-0.5415c-0.1958-0.4155-0.0176-0.9102,0.3979-1.106 c0.3574-0.1685,0.7739-0.0591,1.0078,0.2393L445.5303,83.0801z"/></g><g id="change1_1"><path fill="#3f3a6d" d="M27.9111,106.0981c-0.001,0-0.123,0.2788-0.2734,0.7627c-0.1763,0.4722-0.3691,1.2212-0.6489,2.1577 c-0.2354,0.9512-0.5439,2.0977-0.7827,3.4365c-0.1187,0.668-0.2446,1.3779-0.3774,2.127 c-0.0864,0.7549-0.1772,1.5483-0.2715,2.376c-0.1279,0.8203-0.1387,1.6895-0.1685,2.5835c0,0.8955-0.1445,1.8091-0.0747,2.7593 c0.0376,0.9443,0.0767,1.915,0.1167,2.9072c0.0181,0.9907,0.2305,1.9912,0.3281,3.0132c0.1421,2.0571,0.7681,4.1055,1.1924,6.2148 c0.1899,1.0625,0.6489,2.0679,0.96,3.1123c0.3716,1.0264,0.6323,2.0967,1.0903,3.0967l1.3467,3.0088 c0.4419,1.0029,0.856,2.0161,1.4556,2.9316c0.5542,0.9365,1.0996,1.8691,1.6191,2.8032s1.0195,1.8672,1.6714,2.6885 c1.209,1.709,2.3784,3.3599,3.4868,4.9263c1.2676,1.4502,2.4429,2.8496,3.5234,4.1533c0.543,0.6519,1.0635,1.2759,1.5586,1.8691 c0.5439,0.5518,1.0601,1.0747,1.5439,1.5659c0.9658,0.9961,1.8071,1.8652,2.4995,2.5801 c1.3696,1.4678,2.1528,2.3071,2.1528,2.3071l0.042,0.0449c0.3115,0.3345,0.2935,0.8569-0.0405,1.1689 c-0.2905,0.271-0.7236,0.2925-1.0376,0.0737c0,0-0.9512-0.6631-2.5947-1.874c-0.8169-0.6162-1.8096-1.3628-2.9482-2.2202 c-0.5674-0.4355-1.1709-0.8979-1.8071-1.3872c-0.5801-0.5532-1.1904-1.1348-1.8271-1.7417 c-1.2754-1.2168-2.6533-2.5493-4.0859-3.9868c-1.312-1.5483-2.6636-3.2227-4.0405-4.9731 c-0.73-0.8433-1.3198-1.8169-1.9292-2.7944c-0.6191-0.9697-1.2261-1.9668-1.834-2.9736c-0.6548-0.98-1.1309-2.0728-1.6313-3.1587 s-1.002-2.1768-1.5034-3.2676c-0.479-1.0996-0.7632-2.2817-1.1489-3.4146c-0.3276-1.1538-0.7969-2.2603-0.9961-3.4336 c-0.4507-2.3315-0.9546-4.6143-1.0347-6.8809c-0.0562-1.1274-0.2397-2.2271-0.167-3.3149 c0.0405-1.0835,0.0791-2.144,0.1172-3.1758c0.0166-1.0308,0.2134-2.0234,0.3296-2.9834c0.1367-0.9595,0.2515-1.8843,0.4805-2.7554 c0.2012-0.8721,0.3945-1.7075,0.5786-2.502c0.25-0.7769,0.4868-1.5127,0.709-2.2051c0.4316-1.3833,0.9751-2.5366,1.3848-3.4883 c0.4434-0.9424,0.8296-1.6646,1.1255-2.1636c0.2817-0.5049,0.4399-0.7285,0.4399-0.7285l0.041-0.0562 c0.2642-0.3721,0.7803-0.4595,1.1519-0.1953C27.958,105.3232,28.0654,105.7466,27.9111,106.0981z"/></g><g id="change1_33"><path fill="#3f3a6d" d="M4.874,130.9849c0,0-0.0303,0.1914-0.0874,0.5518c-0.0439,0.3535-0.1089,0.8726-0.1909,1.5317 c-0.1699,1.3262-0.3345,3.2349-0.439,5.499c-0.0317,1.1357-0.0698,2.3579-0.0308,3.647c-0.0278,1.29,0.1445,2.6343,0.2124,4.0239 c0.1235,1.3838,0.3623,2.7993,0.5908,4.2246c0.335,1.4023,0.5322,2.8677,1.0605,4.23l0.6333,2.0898 c0.2871,0.6636,0.5737,1.3242,0.8584,1.9805c0.5127,1.3428,1.2271,2.5527,1.8999,3.7451c0.606,1.2368,1.4751,2.2456,2.1836,3.2949 c0.6895,1.0708,1.5088,1.9502,2.2651,2.7759c0.3735,0.4189,0.7324,0.8208,1.0728,1.2021c0.332,0.3955,0.647,0.7754,1.0083,1.0596 c0.6919,0.6035,1.2813,1.1592,1.7725,1.6152c0.9795,0.9194,1.5342,1.478,1.5342,1.478l0.0757,0.0776 c0.3223,0.3242,0.3203,0.8481-0.0044,1.1699c-0.2563,0.2544-0.6387,0.3052-0.9458,0.1553c0,0.001-0.7163-0.3496-1.9614-1.0229 c-0.6206-0.3398-1.3813-0.751-2.2388-1.2568c-0.8818-0.4727-1.7036-1.2466-2.6787-1.9995 c-0.4814-0.3892-0.9829-0.7949-1.502-1.2144c-0.52-0.4224-0.9326-0.9834-1.4272-1.4961 c-0.9355-1.0703-2.0513-2.1201-2.8306-3.4849c-0.8501-1.3115-1.8179-2.6318-2.4219-4.1714 c-0.3428-0.7485-0.688-1.5034-1.0342-2.2622l-0.7744-2.3765c-0.5562-1.5825-0.7603-3.2368-1.0923-4.8359 c-0.1733-0.7998-0.1689-1.6128-0.248-2.4048c-0.0405-0.7944-0.1611-1.5762-0.1284-2.3472 c-0.0044-1.541,0.0249-3.0273,0.2007-4.4204c0.0942-1.3999,0.354-2.7012,0.5801-3.896c0.2212-1.1963,0.5376-2.27,0.7979-3.2183 c0.293-0.9434,0.5581-1.7568,0.8257-2.4165c0.2388-0.6602,0.4868-1.1758,0.6465-1.5293c0.1631-0.3398,0.25-0.5205,0.25-0.5205 c0.1982-0.4141,0.6958-0.5894,1.1104-0.3901c0.3398,0.1626,0.5186,0.5254,0.4624,0.8799L4.874,130.9849z"/></g></g></svg>