<?xml version="1.0" encoding="UTF-8"?><svg xmlns="http://www.w3.org/2000/svg" xmlns:xlink="http://www.w3.org/1999/xlink" contentScriptType="text/ecmascript" fill="#000000" width="472.6" zoomAndPan="magnify" contentStyleType="text/css" viewBox="-6.8 -3.4 472.6 381.3" height="381.3" preserveAspectRatio="xMidYMid meet" version="1"><g data-name="Layer 3"><g id="change1_1"><path fill="#231f20" d="M187.83,1.89a58.48,58.48,0,0,1,39.43,34.35c29.65,72.25,15.84,235-15.63,281.72C174.3,373.35,7.63,371.21.4,292.45s84.42-93.17,93.65-185.61C98.56,61.63,115.28,34,131.19,17.63A58.44,58.44,0,0,1,187.83,1.89Z"/></g><path fill="none" d="M263.61 373.71L267.92 373.71 266.79 361.92 261.34 363.09 263.61 373.71z"/><g id="change2_1"><path fill="#fdfdfb" d="M113.29,257.34a1.68,1.68,0,0,0,.44-.07l5.78-1.91a1.4,1.4,0,0,0,.9-1.77l-1.9-5.78a1.41,1.41,0,0,0-2.68.88l1.46,4.44-4.44,1.46a1.41,1.41,0,0,0,.44,2.75Z"/></g><g id="change2_2"><path fill="#fdfdfb" d="M319.37,292.28l-.67.1,2.29,1.19,0-.11A1.4,1.4,0,0,0,319.37,292.28Z"/></g><g id="change2_3"><path fill="#fdfdfb" d="M197.5,279.19h0a1.4,1.4,0,0,0,1.4-1.37l.15-5.69a1.41,1.41,0,0,0-1.37-1.45l-5.69-.15a1.39,1.39,0,0,0-1.44,1.37,1.41,1.41,0,0,0,1.37,1.45l4.28.11-.11,4.29A1.41,1.41,0,0,0,197.5,279.19Z"/></g><g id="change2_4"><path fill="#fdfdfb" d="M57,296.06a1.41,1.41,0,1,0,.94-2.66l-13-4.58a1.41,1.41,0,0,0-1.8.86l-4.58,13a1.41,1.41,0,0,0,.86,1.79,1.33,1.33,0,0,0,.47.08,1.41,1.41,0,0,0,1.33-.94L45.33,292Z"/></g><g id="change2_5"><path fill="#fdfdfb" d="M345.8,230.64a1.42,1.42,0,0,0,1.14,1.64l5.86,1a1,1,0,0,0,.24,0,1.41,1.41,0,0,0,.25-2.79l-4.47-.79.76-4.26-2.46-1.32a1.35,1.35,0,0,0-.28.62Z"/></g><g id="change2_6"><path fill="#fdfdfb" d="M146.06,244.61l-1.78-1.14a1.41,1.41,0,0,0-1.52,2.37l3,1.9a1.35,1.35,0,0,0,.76.23,1.41,1.41,0,0,0,1.19-.65l1.9-3a1.41,1.41,0,1,0-2.37-1.52Z"/></g><g id="change2_7"><path fill="#fdfdfb" d="M87.1,336.6a1.41,1.41,0,0,0-2.16,1.82l1.74,2.05-2.05,1.74a1.4,1.4,0,0,0-.17,2,1.41,1.41,0,0,0,1.08.5,1.44,1.44,0,0,0,.91-.33l3.13-2.65a1.41,1.41,0,0,0,.16-2Z"/></g><g id="change2_8"><path fill="#fdfdfb" d="M350,259.21l2.17.11L352,261.5a1.4,1.4,0,0,0,1.33,1.48h.08a1.4,1.4,0,0,0,1.4-1.33l.19-3.59a1.41,1.41,0,0,0-1.33-1.48l-3.59-.19a1.41,1.41,0,1,0-.14,2.82Z"/></g><g id="change2_9"><path fill="#fdfdfb" d="M199.37,325.37a1.41,1.41,0,0,0-2,0l-7.13,7.22a1.41,1.41,0,0,0,1,2.4,1.38,1.38,0,0,0,1-.42l6.15-6.22,6.22,6.14a1.41,1.41,0,0,0,2-2Z"/></g><g id="change2_10"><path fill="#fdfdfb" d="M171.62,265.06l-1.35-3.27,3.26-1.35a1.41,1.41,0,0,0-1.08-2.6l-4.56,1.89a1.42,1.42,0,0,0-.77,1.84l1.89,4.56a1.41,1.41,0,0,0,1.31.87,1.47,1.47,0,0,0,.54-.1A1.42,1.42,0,0,0,171.62,265.06Z"/></g><g id="change2_11"><path fill="#fdfdfb" d="M194.82,364.9a1.41,1.41,0,0,0-.53-2.77l-17.79,3.41a1.42,1.42,0,0,0-1.12,1.65l1.25,6.52h2.87l-1.09-5.66Z"/></g><g id="change2_12"><path fill="#fdfdfb" d="M105,195a1.41,1.41,0,1,0-2.69.83l1,3.32-3.32,1a1.41,1.41,0,0,0,.41,2.75,1.52,1.52,0,0,0,.42-.06l4.67-1.44a1.45,1.45,0,0,0,.83-.69,1.42,1.42,0,0,0,.1-1.07Z"/></g><g id="change2_13"><path fill="#fdfdfb" d="M216.59,222.4a1.39,1.39,0,0,0,.92.57l4.06.65.23,0a1.4,1.4,0,0,0,1.38-1.19,1.39,1.39,0,0,0-1.16-1.61l-2.67-.43.42-2.67a1.41,1.41,0,0,0-2.78-.45l-.65,4.06A1.4,1.4,0,0,0,216.59,222.4Z"/></g><g id="change2_14"><path fill="#fdfdfb" d="M120.64,228.26a1.42,1.42,0,0,0,1.36,1.07,1.34,1.34,0,0,0,.35-.05l10.72-2.72a1.41,1.41,0,1,0-.69-2.73L123,226.2l-2.37-9.35a1.41,1.41,0,0,0-1.71-1,1.4,1.4,0,0,0-1,1.71Z"/></g><g id="change2_15"><path fill="#fdfdfb" d="M148.53,271.28a1.41,1.41,0,0,0-2.75-.61l-1.27,5.75a1.41,1.41,0,0,0,1.07,1.68l5.75,1.27.31,0a1.41,1.41,0,0,0,.3-2.78l-4.37-1Z"/></g><g id="change2_16"><path fill="#fdfdfb" d="M181.88,290.28l-10.39,6.61a1.4,1.4,0,0,0-.43,1.94l6.6,10.39a1.41,1.41,0,0,0,2.38-1.51l-5.85-9.2,9.2-5.85a1.41,1.41,0,0,0-1.51-2.38Z"/></g><g id="change2_17"><path fill="#fdfdfb" d="M305.28,261l-5.82,7.32-7.33-5.82a1.41,1.41,0,0,0-1.75,2.21l8.42,6.7a1.42,1.42,0,0,0,.88.3h.16a1.4,1.4,0,0,0,.94-.52l6.7-8.42a1.41,1.41,0,1,0-2.2-1.76Z"/></g><g id="change2_18"><path fill="#fdfdfb" d="M93.19,279.6A1.41,1.41,0,0,0,94,277L83.9,270.47l6.55-10.06a1.41,1.41,0,1,0-2.36-1.53l-7.31,11.23a1.4,1.4,0,0,0,.41,1.95l11.24,7.31A1.33,1.33,0,0,0,93.19,279.6Z"/></g><g id="change2_19"><path fill="#fdfdfb" d="M93.34,370.46a1.42,1.42,0,0,0-1.86-.73l-6.26,2.71a1.42,1.42,0,0,0-.85,1.27h5l3.21-1.4A1.4,1.4,0,0,0,93.34,370.46Z"/></g><g id="change2_20"><path fill="#fdfdfb" d="M253.59,236.27l-8.25-.65a1.42,1.42,0,0,0-1.51,1.29l-.65,8.25a1.41,1.41,0,0,0,1.29,1.51h.12a1.41,1.41,0,0,0,1.4-1.3l.54-6.84,6.84.54a1.42,1.42,0,0,0,1.52-1.3A1.41,1.41,0,0,0,253.59,236.27Z"/></g><g id="change2_21"><path fill="#fdfdfb" d="M28.13,261.31a1.41,1.41,0,0,0-1.5-.84c-.43,1.17-.86,2.35-1.28,3.54l2-.86A1.41,1.41,0,0,0,28.13,261.31Z"/></g><g id="change2_22"><path fill="#fdfdfb" d="M217.76,242.57a1.4,1.4,0,0,0-.56,1.91l4.51,8.3-8.3,4.52a1.41,1.41,0,0,0,.68,2.64,1.34,1.34,0,0,0,.67-.17l9.54-5.19a1.41,1.41,0,0,0,.56-1.91l-5.19-9.54A1.41,1.41,0,0,0,217.76,242.57Z"/></g><g id="change2_23"><path fill="#fdfdfb" d="M126.07,354.68l-11-2.59,2.59-11a1.41,1.41,0,0,0-2.74-.64L112,352.82a1.43,1.43,0,0,0,.18,1.07,1.38,1.38,0,0,0,.87.62l12.41,2.92.32,0a1.41,1.41,0,0,0,.32-2.78Z"/></g><g id="change2_24"><path fill="#fdfdfb" d="M198.58,161.4l.3,0A1.41,1.41,0,0,0,200,159.7l-2.33-10.83-3-.77,2.62,12.19A1.4,1.4,0,0,0,198.58,161.4Z"/></g><g id="change2_25"><path fill="#fdfdfb" d="M99.1,299.35,87.85,306.6a1.39,1.39,0,0,0-.62.89,1.42,1.42,0,0,0,.19,1.06l7.26,11.25a1.41,1.41,0,0,0,2.37-1.53L90.56,308.2l10.07-6.49a1.41,1.41,0,1,0-1.53-2.36Z"/></g><g id="change2_26"><path fill="#fdfdfb" d="M251.54,304.51l-4.53.13a1.41,1.41,0,0,0-1.37,1.45l.14,4.52a1.4,1.4,0,0,0,1.4,1.37h0a1.41,1.41,0,0,0,1.37-1.45l-.09-3.12,3.12-.09a1.41,1.41,0,1,0-.08-2.81Z"/></g><g id="change2_27"><path fill="#fdfdfb" d="M332.16,249.22a1.41,1.41,0,0,0,.44-2.75l-14.89-4.86,4.86-14.89a1.41,1.41,0,1,0-2.67-.88l-5.3,16.23a1.4,1.4,0,0,0,.08,1.08,1.42,1.42,0,0,0,.82.7l16.23,5.3A1.61,1.61,0,0,0,332.16,249.22Z"/></g><g id="change2_28"><path fill="#fdfdfb" d="M238.09,281.89a1.4,1.4,0,0,0,1.1-.54l4.73-6,6,4.73a1.41,1.41,0,1,0,1.75-2.21l-7.11-5.6a1.41,1.41,0,0,0-2,.23l-5.6,7.11a1.4,1.4,0,0,0,.24,2A1.35,1.35,0,0,0,238.09,281.89Z"/></g><g id="change2_29"><path fill="#fdfdfb" d="M163.48,329.38a1.41,1.41,0,0,0-1.7,1L158.31,345l-14.57-3.47a1.41,1.41,0,1,0-.65,2.74l15.93,3.8.33,0a1.41,1.41,0,0,0,1.37-1.08l3.8-15.93A1.41,1.41,0,0,0,163.48,329.38Z"/></g><g id="change2_30"><path fill="#fdfdfb" d="M156.2,223.94l14.67,3a1.33,1.33,0,0,0,.28,0,1.41,1.41,0,0,0,.28-2.79l-13.29-2.71,2.71-13.3a1.41,1.41,0,1,0-2.76-.56l-3,14.67a1.41,1.41,0,0,0,.2,1.06A1.46,1.46,0,0,0,156.2,223.94Z"/></g><g id="change2_31"><path fill="#fdfdfb" d="M230.68,170.66a1.42,1.42,0,0,0,.83-.27l3.8-2.77a1.42,1.42,0,0,0,.31-2l-2.77-3.79a1.41,1.41,0,0,0-2.28,1.66l1.94,2.66-2.66,1.94a1.4,1.4,0,0,0-.31,2A1.42,1.42,0,0,0,230.68,170.66Z"/></g><g id="change2_32"><path fill="#fdfdfb" d="M139.55,199a1.41,1.41,0,0,0,2.41-1.47l-7.32-12,12-7.31a1.41,1.41,0,0,0-1.47-2.41l-13.18,8a1.44,1.44,0,0,0-.63.87,1.39,1.39,0,0,0,.17,1.07Z"/></g><g id="change2_33"><path fill="#fdfdfb" d="M218.9,309.54a1.41,1.41,0,0,0,1-2.42l-7.51-7.27,7.27-7.52a1.41,1.41,0,0,0-2-1.95l-8.25,8.52a1.41,1.41,0,0,0,0,2l8.52,8.25A1.4,1.4,0,0,0,218.9,309.54Z"/></g><g id="change2_34"><path fill="#fdfdfb" d="M234,206.48a1.41,1.41,0,1,0,1.8-2.17l-7-5.83,5.83-7a1.41,1.41,0,1,0-2.16-1.81l-6.74,8.09a1.41,1.41,0,0,0,.19,2Z"/></g><g id="change2_35"><path fill="#fdfdfb" d="M373.39,277.74a1.35,1.35,0,0,0,.47-.09,1.4,1.4,0,0,0,.85-1.79l-.81-2.3,2.29-.82a1.41,1.41,0,1,0-.94-2.65l-3.62,1.29a1.4,1.4,0,0,0-.86,1.79l1.29,3.63A1.41,1.41,0,0,0,373.39,277.74Z"/></g><g id="change2_36"><path fill="#fdfdfb" d="M166.42,191.57a1.43,1.43,0,0,0,.9.33,1.4,1.4,0,0,0,1.09-.51l2.39-2.85a1.41,1.41,0,0,0-2.17-1.81l-1.48,1.78L165.37,187a1.41,1.41,0,0,0-1.81,2.16Z"/></g><g id="change2_37"><path fill="#fdfdfb" d="M196.08,247.53a1.44,1.44,0,0,0,.85-.28,1.42,1.42,0,0,0,.27-2l-5.88-7.8,7.8-5.88a1.41,1.41,0,1,0-1.69-2.25l-8.93,6.73a1.41,1.41,0,0,0-.28,2L195,247A1.41,1.41,0,0,0,196.08,247.53Z"/></g><g id="change2_38"><path fill="#fdfdfb" d="M61,340.58a1.4,1.4,0,1,0-2.72.7l4.37,17-17,4.37a1.42,1.42,0,0,0-1,1.72A1.4,1.4,0,0,0,46,365.41a1.47,1.47,0,0,0,.36,0l18.34-4.72a1.41,1.41,0,0,0,1-1.72Z"/></g><g id="change2_39"><path fill="#fdfdfb" d="M67,242.07l-14,5.42a1.4,1.4,0,0,0-.8,1.82l5.42,14a1.4,1.4,0,0,0,1.31.9,1.32,1.32,0,0,0,.51-.1,1.39,1.39,0,0,0,.8-1.82l-4.91-12.7L68,244.69a1.4,1.4,0,1,0-1-2.62Z"/></g><g id="change2_40"><path fill="#fdfdfb" d="M334.38,270.42a1.41,1.41,0,0,0-1.62-1.16l-10,1.63a1.41,1.41,0,1,0,.45,2.78l8.6-1.4,1.4,8.6a1.41,1.41,0,0,0,1.39,1.18.9.9,0,0,0,.23,0,1.4,1.4,0,0,0,1.16-1.61Z"/></g><g id="change2_41"><path fill="#fdfdfb" d="M322.08,215.37a1.47,1.47,0,0,0,.77.23A1.41,1.41,0,0,0,324,215l1.59-2.4-2.49-1.35-1.45,2.2A1.41,1.41,0,0,0,322.08,215.37Z"/></g><g id="change2_42"><path fill="#fdfdfb" d="M245.48,331l-10,5.09-5.09-10a1.41,1.41,0,1,0-2.51,1.29l5.73,11.23a1.41,1.41,0,0,0,1.26.77,1.38,1.38,0,0,0,.64-.16l11.23-5.73a1.41,1.41,0,0,0-1.28-2.51Z"/></g><g id="change2_43"><path fill="#fdfdfb" d="M51.55,317.26l-1.11,7.56a1.4,1.4,0,0,0,1.18,1.6l.21,0a1.41,1.41,0,0,0,1.39-1.21l.91-6.16,6.17.91a1.41,1.41,0,1,0,.41-2.79l-7.56-1.12A1.42,1.42,0,0,0,51.55,317.26Z"/></g><g id="change2_44"><path fill="#fdfdfb" d="M175.17,170.63a1.54,1.54,0,0,0,.43-.06,1.42,1.42,0,0,0,.92-1.77l-1.14-3.57c-.87.23-1.79.43-2.77.6l1.22,3.82A1.41,1.41,0,0,0,175.17,170.63Z"/></g><g id="change2_45"><path fill="#fdfdfb" d="M258.29,362.3l2.44,11.41h2.88l-2.27-10.62,5.45-1.17-.28-2.82-7.14,1.53A1.4,1.4,0,0,0,258.29,362.3Z"/></g><g id="change2_46"><path fill="#fdfdfb" d="M148.74,306.39a1.41,1.41,0,0,0-.16-2.82l-18.51,1a1.4,1.4,0,0,0-1.33,1.48l1,18.52a1.41,1.41,0,0,0,1.41,1.33h.08a1.42,1.42,0,0,0,1.33-1.49l-.93-17.11Z"/></g><g id="change2_47"><path fill="#fdfdfb" d="M267.84,264.31l-3.79-1.09,1.09-3.79a1.41,1.41,0,1,0-2.7-.79l-1.12,3.87,7.35,3.82a1.34,1.34,0,0,0,.13-.27A1.41,1.41,0,0,0,267.84,264.31Z"/></g><g id="change2_48"><path fill="#fdfdfb" d="M112.67,163.57a1.42,1.42,0,0,0-1.78.9l-1.69,5.17-5.17-1.7a1.41,1.41,0,0,0-.87,2.68l6.5,2.13a1.39,1.39,0,0,0,.44.07,1.41,1.41,0,0,0,1.34-1l2.13-6.5A1.41,1.41,0,0,0,112.67,163.57Z"/></g><g id="change2_49"><path fill="#fdfdfb" d="M18.71,327.89a1.41,1.41,0,0,0-2.21,1.76l12,15-15,11.95a1.41,1.41,0,0,0,.88,2.51,1.38,1.38,0,0,0,.87-.31L31.31,346a1.4,1.4,0,0,0,.22-2Z"/></g><g id="change2_50"><path fill="#fdfdfb" d="M202.35,183.05l13.37-5.79a1.41,1.41,0,0,0-1.12-2.59L199.94,181a1.4,1.4,0,0,0-.74,1.85l6.36,14.66a1.41,1.41,0,0,0,1.29.85,1.55,1.55,0,0,0,.56-.11,1.41,1.41,0,0,0,.73-1.86Z"/></g><g id="change2_51"><path fill="#fdfdfb" d="M183.83,208.63l7.77,3.25a1.49,1.49,0,0,0,.54.11,1.41,1.41,0,0,0,.55-2.71l-6.47-2.7,2.7-6.47a1.41,1.41,0,0,0-2.6-1.09l-3.25,7.77A1.4,1.4,0,0,0,183.83,208.63Z"/></g><g id="change2_52"><path fill="#fdfdfb" d="M261.52,195.53l-15.7-4.79a1.41,1.41,0,0,0-.83,2.69l14.36,4.39L255,212.18a1.41,1.41,0,0,0,.93,1.76,1.51,1.51,0,0,0,.41.06,1.4,1.4,0,0,0,1.35-1l4.8-15.71a1.42,1.42,0,0,0-.1-1.07A1.44,1.44,0,0,0,261.52,195.53Z"/></g><g id="change2_53"><path fill="#fdfdfb" d="M296.63,234.43a1.41,1.41,0,0,0-.88-1.79l-14.81-5.08a1.41,1.41,0,0,0-1.79.88l-5.07,14.81A1.39,1.39,0,0,0,275,245a1.48,1.48,0,0,0,.46.08,1.41,1.41,0,0,0,1.33-1l4.62-13.48,13.48,4.62A1.41,1.41,0,0,0,296.63,234.43Z"/></g><g id="change2_54"><path fill="#fdfdfb" d="M120.89,277.78,119.7,280l-2.2-1.19a1.41,1.41,0,1,0-1.34,2.48l3.44,1.86a1.45,1.45,0,0,0,.67.17,1.42,1.42,0,0,0,1.24-.74l1.86-3.43a1.41,1.41,0,0,0-2.48-1.35Z"/></g><g id="change2_55"><path fill="#fdfdfb" d="M73.15,211.82l-1.83,1-1-1.83a1.41,1.41,0,0,0-2.47,1.36l1.69,3.07a1.43,1.43,0,0,0,1.24.73,1.38,1.38,0,0,0,.67-.18l3.07-1.68a1.43,1.43,0,0,0,.56-1.92A1.41,1.41,0,0,0,73.15,211.82Z"/></g><g id="change2_56"><path fill="#fdfdfb" d="M128.25,153a1.44,1.44,0,0,0,1.18-.65l-1.81.49a1.34,1.34,0,0,0,.63.16Z"/></g><g id="change2_57"><path fill="#fdfdfb" d="M90.19,236.14a1.87,1.87,0,0,0,.32,0,1.41,1.41,0,0,0,1.37-1.09l.75-3.17,3.16.75a1.41,1.41,0,0,0,.65-2.75l-4.54-1.06a1.4,1.4,0,0,0-1.69,1l-1.07,4.54A1.41,1.41,0,0,0,90.19,236.14Z"/></g><g id="change2_58"><path fill="#fdfdfb" d="M79.37,189.92a1.5,1.5,0,0,0,.55-.11,1.41,1.41,0,0,0,.75-1.85l-3.26-7.72L85.13,177a1.41,1.41,0,0,0-1.09-2.6l-6.47,2.73q-1.69,1.44-3.28,3l3.79,9A1.4,1.4,0,0,0,79.37,189.92Z"/></g><g id="change2_59"><path fill="#fdfdfb" d="M377.27,298.81a1.41,1.41,0,0,0-2-.12l-3.13,2.76a1.41,1.41,0,0,0-.12,2l2.76,3.13a1.38,1.38,0,0,0,1,.48,1.44,1.44,0,0,0,.94-.35,1.41,1.41,0,0,0,.12-2l-1.83-2.08,2.08-1.83A1.41,1.41,0,0,0,377.27,298.81Z"/></g><g id="change2_60"><path fill="#fdfdfb" d="M351.53,290.06a1.41,1.41,0,0,0-2,.37l-3.69,5.44a1.41,1.41,0,0,0,.37,2,1.46,1.46,0,0,0,.79.24,1.42,1.42,0,0,0,1.17-.62l2.9-4.27,4.27,2.9a1.41,1.41,0,1,0,1.59-2.33Z"/></g><g id="change2_61"><path fill="#fdfdfb" d="M233.37,364.85l-10.62-6.63a1.4,1.4,0,0,0-1.94.45l-6.64,10.61a1.41,1.41,0,0,0,.45,1.94,1.36,1.36,0,0,0,.75.22,1.4,1.4,0,0,0,1.19-.66l5.89-9.43,9.43,5.89a1.41,1.41,0,0,0,1.49-2.39Z"/></g><g id="change2_62"><path fill="#fdfdfb" d="M282.48,200.21a1.4,1.4,0,0,0,.49.95l14.91,12.5a1.41,1.41,0,0,0,.9.33,1.38,1.38,0,0,0,1.08-.5,1.41,1.41,0,0,0-.17-2l-13.83-11.59,5.18-6.17-2.52-1.39-5.72,6.83A1.39,1.39,0,0,0,282.48,200.21Z"/></g><g id="change3_1"><path fill="#efa54f" d="M137,176.5l26.8,101.35-85,25.91L59.7,208.51Z"/></g><g id="change3_2"><path fill="#efa54f" d="M429.08,205.14q-1.29,3.83-2.7,8.09c-13.26,40-29.52,85.39-54,97.22-5.22,2.51-9.61,3.21-13.32,2.55l-.17.29-1.12-.58a14.49,14.49,0,0,1-5.32-2.77L257,260.26l7.44,77.39,23.94,3.5L266,353.87l1.91,19.84H73.42L8.71,369.33C6.77,266.75,54.33,203.61,67,188.62c19.32-28.26,70.35-38.22,70.35-38.22s8.25,17.93,31.6,15.92,20.41-19.5,20.41-19.5,11.65,2.8,21.44,5.54a127.38,127.38,0,0,1,33.77,15c14.89,9.4,68.71,38.6,107.66,59.54,7.77-15.4,17.15-34.59,22.06-46.85Z"/></g><g id="change4_1"><path fill="#f4c799" d="M429.08,205.14q-1.29,3.83-2.7,8.09c-13.26,40-29.52,85.39-54,97.22-37.85,18.26-32.7-59-32.7-59s25.36-48.13,34.65-71.34c2.28-5.68,3.59-9.87,3.33-11.49-1.31-8.24-8.93-21.11-3.72-27.44s9.7,5.73,14.86,6.47c4.18.57,8.7-27.14,19.87-34.68a5.2,5.2,0,0,1,8,5.17c-.83,4.9-2.09,11.87-3.61,18.38a1.86,1.86,0,0,1,1.92-.36c.8.38,11.42,2.53,9.73,13.35.87-.78,2.13-1.07,3.93-.27,5.31,2.34,6.34,6.44,5,12.65l.07,0C442.8,165.14,438.94,175.73,429.08,205.14Z"/></g><g id="change2_63"><path fill="#fdfdfb" d="M261.34,363.09l5.45-1.17,1.13,11.79h-4.31Zm-148-105.75a1.68,1.68,0,0,0,.44-.07l5.78-1.91a1.4,1.4,0,0,0,.9-1.77l-1.9-5.78a1.41,1.41,0,0,0-2.68.88l1.46,4.44-4.44,1.46a1.41,1.41,0,0,0,.44,2.75Zm84.21,21.85h0a1.4,1.4,0,0,0,1.4-1.37l.15-5.69a1.41,1.41,0,0,0-1.37-1.45l-5.69-.15a1.39,1.39,0,0,0-1.44,1.37,1.41,1.41,0,0,0,1.37,1.45l4.28.11-.11,4.29A1.41,1.41,0,0,0,197.5,279.19ZM57,296.06a1.41,1.41,0,1,0,.94-2.66l-13-4.58a1.41,1.41,0,0,0-1.8.86l-4.58,13a1.41,1.41,0,0,0,.86,1.79,1.33,1.33,0,0,0,.47.08,1.41,1.41,0,0,0,1.33-.94L45.33,292Zm89.06-51.45-1.78-1.14a1.41,1.41,0,0,0-1.52,2.37l3,1.9a1.35,1.35,0,0,0,.76.23,1.41,1.41,0,0,0,1.19-.65l1.9-3a1.41,1.41,0,1,0-2.37-1.52Zm-59,92a1.41,1.41,0,0,0-2.16,1.82l1.74,2.05-2.05,1.74a1.4,1.4,0,0,0-.17,2,1.41,1.41,0,0,0,1.08.5,1.44,1.44,0,0,0,.91-.33l3.13-2.65a1.41,1.41,0,0,0,.16-2Zm112.27-11.23a1.41,1.41,0,0,0-2,0l-7.13,7.22a1.41,1.41,0,0,0,1,2.4,1.38,1.38,0,0,0,1-.42l6.15-6.22,6.22,6.14a1.41,1.41,0,0,0,2-2Zm-27.75-60.31-1.35-3.27,3.26-1.35a1.41,1.41,0,0,0-1.08-2.6l-4.56,1.89a1.42,1.42,0,0,0-.77,1.84l1.89,4.56a1.41,1.41,0,0,0,1.31.87,1.47,1.47,0,0,0,.54-.1A1.42,1.42,0,0,0,171.62,265.06Zm23.2,99.84a1.41,1.41,0,0,0-.53-2.77l-17.79,3.41a1.42,1.42,0,0,0-1.12,1.65l1.25,6.52h2.87l-1.09-5.66ZM105,195a1.41,1.41,0,1,0-2.69.83l1,3.32-3.32,1a1.41,1.41,0,0,0,.41,2.75,1.52,1.52,0,0,0,.42-.06l4.67-1.44a1.45,1.45,0,0,0,.83-.69,1.42,1.42,0,0,0,.1-1.07Zm111.6,27.44a1.39,1.39,0,0,0,.92.57l4.06.65.23,0a1.4,1.4,0,0,0,1.38-1.19,1.39,1.39,0,0,0-1.16-1.61l-2.67-.43.42-2.67a1.41,1.41,0,0,0-2.78-.45l-.65,4.06A1.4,1.4,0,0,0,216.59,222.4Zm-95.95,5.86a1.42,1.42,0,0,0,1.36,1.07,1.34,1.34,0,0,0,.35-.05l10.72-2.72a1.41,1.41,0,1,0-.69-2.73L123,226.2l-2.37-9.35a1.41,1.41,0,0,0-1.71-1,1.4,1.4,0,0,0-1,1.71Zm27.89,43a1.41,1.41,0,0,0-2.75-.61l-1.27,5.75a1.41,1.41,0,0,0,1.07,1.68l5.75,1.27.31,0a1.41,1.41,0,0,0,.3-2.78l-4.37-1Zm33.35,19-10.39,6.61a1.4,1.4,0,0,0-.43,1.94l6.6,10.39a1.41,1.41,0,0,0,2.38-1.51l-5.85-9.2,9.2-5.85a1.41,1.41,0,0,0-1.51-2.38ZM305.28,261l-5.82,7.32-7.33-5.82a1.41,1.41,0,0,0-1.75,2.21l8.42,6.7a1.42,1.42,0,0,0,.88.3h.16a1.4,1.4,0,0,0,.94-.52l6.7-8.42a1.41,1.41,0,1,0-2.2-1.76ZM93.19,279.6A1.41,1.41,0,0,0,94,277L83.9,270.47l6.55-10.06a1.41,1.41,0,1,0-2.36-1.53l-7.31,11.23a1.4,1.4,0,0,0,.41,1.95l11.24,7.31A1.33,1.33,0,0,0,93.19,279.6Zm.15,90.86a1.42,1.42,0,0,0-1.86-.73l-6.26,2.71a1.42,1.42,0,0,0-.85,1.27h5l3.21-1.4A1.4,1.4,0,0,0,93.34,370.46ZM253.59,236.27l-8.25-.65a1.42,1.42,0,0,0-1.51,1.29l-.65,8.25a1.41,1.41,0,0,0,1.29,1.51h.12a1.41,1.41,0,0,0,1.4-1.3l.54-6.84,6.84.54a1.42,1.42,0,0,0,1.52-1.3A1.41,1.41,0,0,0,253.59,236.27Zm-225.46,25a1.41,1.41,0,0,0-1.5-.84c-.43,1.17-.86,2.35-1.28,3.54l2-.86A1.41,1.41,0,0,0,28.13,261.31Zm189.63-18.74a1.4,1.4,0,0,0-.56,1.91l4.51,8.3-8.3,4.52a1.41,1.41,0,0,0,.68,2.64,1.34,1.34,0,0,0,.67-.17l9.54-5.19a1.41,1.41,0,0,0,.56-1.91l-5.19-9.54A1.41,1.41,0,0,0,217.76,242.57ZM126.07,354.68l-11-2.59,2.59-11a1.41,1.41,0,0,0-2.74-.64L112,352.82a1.43,1.43,0,0,0,.18,1.07,1.38,1.38,0,0,0,.87.62l12.41,2.92.32,0a1.41,1.41,0,0,0,.32-2.78ZM198.58,161.4l.3,0A1.41,1.41,0,0,0,200,159.7l-2.33-10.83-3-.77,2.62,12.19A1.4,1.4,0,0,0,198.58,161.4Zm-99.48,138L87.85,306.6a1.39,1.39,0,0,0-.62.89,1.42,1.42,0,0,0,.19,1.06l7.26,11.25a1.41,1.41,0,0,0,2.37-1.53L90.56,308.2l10.07-6.49a1.41,1.41,0,1,0-1.53-2.36Zm152.44,5.16-4.53.13a1.41,1.41,0,0,0-1.37,1.45l.14,4.52a1.4,1.4,0,0,0,1.4,1.37h0a1.41,1.41,0,0,0,1.37-1.45l-.09-3.12,3.12-.09a1.41,1.41,0,1,0-.08-2.81Zm80.62-55.29a1.41,1.41,0,0,0,.44-2.75l-14.89-4.86,4.86-14.89a1.41,1.41,0,1,0-2.67-.88l-5.3,16.23a1.4,1.4,0,0,0,.08,1.08,1.42,1.42,0,0,0,.82.7l16.23,5.3A1.61,1.61,0,0,0,332.16,249.22Zm-94.07,32.67a1.4,1.4,0,0,0,1.1-.54l4.73-6,6,4.73a1.41,1.41,0,1,0,1.75-2.21l-7.11-5.6a1.41,1.41,0,0,0-2,.23l-5.6,7.11a1.4,1.4,0,0,0,.24,2A1.35,1.35,0,0,0,238.09,281.89Zm-74.61,47.49a1.41,1.41,0,0,0-1.7,1L158.31,345l-14.57-3.47a1.41,1.41,0,1,0-.65,2.74l15.93,3.8.33,0a1.41,1.41,0,0,0,1.37-1.08l3.8-15.93A1.41,1.41,0,0,0,163.48,329.38ZM156.2,223.94l14.67,3a1.33,1.33,0,0,0,.28,0,1.41,1.41,0,0,0,.28-2.79l-13.29-2.71,2.71-13.3a1.41,1.41,0,1,0-2.76-.56l-3,14.67a1.41,1.41,0,0,0,.2,1.06A1.46,1.46,0,0,0,156.2,223.94Zm74.48-53.28a1.42,1.42,0,0,0,.83-.27l3.8-2.77a1.42,1.42,0,0,0,.31-2l-2.77-3.79a1.41,1.41,0,0,0-2.28,1.66l1.94,2.66-2.66,1.94a1.4,1.4,0,0,0-.31,2A1.42,1.42,0,0,0,230.68,170.66ZM139.55,199a1.41,1.41,0,0,0,2.41-1.47l-7.32-12,12-7.31a1.41,1.41,0,0,0-1.47-2.41l-13.18,8a1.44,1.44,0,0,0-.63.87,1.39,1.39,0,0,0,.17,1.07ZM218.9,309.54a1.41,1.41,0,0,0,1-2.42l-7.51-7.27,7.27-7.52a1.41,1.41,0,0,0-2-1.95l-8.25,8.52a1.41,1.41,0,0,0,0,2l8.52,8.25A1.4,1.4,0,0,0,218.9,309.54ZM234,206.48a1.41,1.41,0,1,0,1.8-2.17l-7-5.83,5.83-7a1.41,1.41,0,1,0-2.16-1.81l-6.74,8.09a1.41,1.41,0,0,0,.19,2Zm-67.62-14.91a1.43,1.43,0,0,0,.9.33,1.4,1.4,0,0,0,1.09-.51l2.39-2.85a1.41,1.41,0,0,0-2.17-1.81l-1.48,1.78L165.37,187a1.41,1.41,0,0,0-1.81,2.16Zm29.66,56a1.44,1.44,0,0,0,.85-.28,1.42,1.42,0,0,0,.27-2l-5.88-7.8,7.8-5.88a1.41,1.41,0,1,0-1.69-2.25l-8.93,6.73a1.41,1.41,0,0,0-.28,2L195,247A1.41,1.41,0,0,0,196.08,247.53ZM61,340.58a1.4,1.4,0,1,0-2.72.7l4.37,17-17,4.37a1.42,1.42,0,0,0-1,1.72A1.4,1.4,0,0,0,46,365.41a1.47,1.47,0,0,0,.36,0l18.34-4.72a1.41,1.41,0,0,0,1-1.72Zm6-98.51-14,5.42a1.4,1.4,0,0,0-.8,1.82l5.42,14a1.4,1.4,0,0,0,1.31.9,1.32,1.32,0,0,0,.51-.1,1.39,1.39,0,0,0,.8-1.82l-4.91-12.7L68,244.69a1.4,1.4,0,1,0-1-2.62Zm255.12-26.7a1.47,1.47,0,0,0,.77.23A1.41,1.41,0,0,0,324,215l1.59-2.4-2.49-1.35-1.45,2.2A1.41,1.41,0,0,0,322.08,215.37ZM245.48,331l-10,5.09-5.09-10a1.41,1.41,0,1,0-2.51,1.29l5.73,11.23a1.41,1.41,0,0,0,1.26.77,1.38,1.38,0,0,0,.64-.16l11.23-5.73a1.41,1.41,0,0,0-1.28-2.51ZM51.55,317.26l-1.11,7.56a1.4,1.4,0,0,0,1.18,1.6l.21,0a1.41,1.41,0,0,0,1.39-1.21l.91-6.16,6.17.91a1.41,1.41,0,1,0,.41-2.79l-7.56-1.12A1.42,1.42,0,0,0,51.55,317.26ZM175.17,170.63a1.54,1.54,0,0,0,.43-.06,1.42,1.42,0,0,0,.92-1.77l-1.14-3.57c-.87.23-1.79.43-2.77.6l1.22,3.82A1.41,1.41,0,0,0,175.17,170.63ZM258.29,362.3l2.44,11.41h2.88l-2.27-10.62,5.45-1.17-.28-2.82-7.14,1.53A1.4,1.4,0,0,0,258.29,362.3ZM148.74,306.39a1.41,1.41,0,0,0-.16-2.82l-18.51,1a1.4,1.4,0,0,0-1.33,1.48l1,18.52a1.41,1.41,0,0,0,1.41,1.33h.08a1.42,1.42,0,0,0,1.33-1.49l-.93-17.11Zm119.1-42.08-3.79-1.09,1.09-3.79a1.41,1.41,0,1,0-2.7-.79l-1.12,3.87,7.35,3.82a1.34,1.34,0,0,0,.13-.27A1.41,1.41,0,0,0,267.84,264.31ZM112.67,163.57a1.42,1.42,0,0,0-1.78.9l-1.69,5.17-5.17-1.7a1.41,1.41,0,0,0-.87,2.68l6.5,2.13a1.39,1.39,0,0,0,.44.07,1.41,1.41,0,0,0,1.34-1l2.13-6.5A1.41,1.41,0,0,0,112.67,163.57Zm-94,164.32a1.41,1.41,0,0,0-2.21,1.76l12,15-15,11.95a1.41,1.41,0,0,0,.88,2.51,1.38,1.38,0,0,0,.87-.31L31.31,346a1.4,1.4,0,0,0,.22-2ZM202.35,183.05l13.37-5.79a1.41,1.41,0,0,0-1.12-2.59L199.94,181a1.4,1.4,0,0,0-.74,1.85l6.36,14.66a1.41,1.41,0,0,0,1.29.85,1.55,1.55,0,0,0,.56-.11,1.41,1.41,0,0,0,.73-1.86Zm-18.52,25.58,7.77,3.25a1.49,1.49,0,0,0,.54.11,1.41,1.41,0,0,0,.55-2.71l-6.47-2.7,2.7-6.47a1.41,1.41,0,0,0-2.6-1.09l-3.25,7.77A1.4,1.4,0,0,0,183.83,208.63Zm77.69-13.1-15.7-4.79a1.41,1.41,0,0,0-.83,2.69l14.36,4.39L255,212.18a1.41,1.41,0,0,0,.93,1.76,1.51,1.51,0,0,0,.41.06,1.4,1.4,0,0,0,1.35-1l4.8-15.71a1.42,1.42,0,0,0-.1-1.07A1.44,1.44,0,0,0,261.52,195.53Zm35.11,38.9a1.41,1.41,0,0,0-.88-1.79l-14.81-5.08a1.41,1.41,0,0,0-1.79.88l-5.07,14.81A1.39,1.39,0,0,0,275,245a1.48,1.48,0,0,0,.46.08,1.41,1.41,0,0,0,1.33-1l4.62-13.48,13.48,4.62A1.41,1.41,0,0,0,296.63,234.43ZM120.89,277.78,119.7,280l-2.2-1.19a1.41,1.41,0,1,0-1.34,2.48l3.44,1.86a1.45,1.45,0,0,0,.67.17,1.42,1.42,0,0,0,1.24-.74l1.86-3.43a1.41,1.41,0,0,0-2.48-1.35Zm-47.74-66-1.83,1-1-1.83a1.41,1.41,0,0,0-2.47,1.36l1.69,3.07a1.43,1.43,0,0,0,1.24.73,1.38,1.38,0,0,0,.67-.18l3.07-1.68a1.43,1.43,0,0,0,.56-1.92A1.41,1.41,0,0,0,73.15,211.82ZM128.25,153a1.44,1.44,0,0,0,1.18-.65l-1.81.49a1.34,1.34,0,0,0,.63.16ZM90.19,236.14a1.87,1.87,0,0,0,.32,0,1.41,1.41,0,0,0,1.37-1.09l.75-3.17,3.16.75a1.41,1.41,0,0,0,.65-2.75l-4.54-1.06a1.4,1.4,0,0,0-1.69,1l-1.07,4.54A1.41,1.41,0,0,0,90.19,236.14ZM79.37,189.92a1.5,1.5,0,0,0,.55-.11,1.41,1.41,0,0,0,.75-1.85l-3.26-7.72L85.13,177a1.41,1.41,0,0,0-1.09-2.6l-6.47,2.73q-1.69,1.44-3.28,3l3.79,9A1.4,1.4,0,0,0,79.37,189.92Zm154,174.93-10.62-6.63a1.4,1.4,0,0,0-1.94.45l-6.64,10.61a1.41,1.41,0,0,0,.45,1.94,1.36,1.36,0,0,0,.75.22,1.4,1.4,0,0,0,1.19-.66l5.89-9.43,9.43,5.89a1.41,1.41,0,0,0,1.49-2.39Zm49.11-164.64a1.4,1.4,0,0,0,.49.95l14.91,12.5a1.41,1.41,0,0,0,.9.33,1.38,1.38,0,0,0,1.08-.5,1.41,1.41,0,0,0-.17-2l-13.83-11.59,5.18-6.17-2.52-1.39-5.72,6.83A1.39,1.39,0,0,0,282.48,200.21Z"/></g><g id="change4_2"><path fill="#f4c799" d="M221.49,89.6c-.36,24-8.48,46.57-30.3,49.31l1.13,14.61s-24.16,31.26-58.71,1.14c0,0-1.7-51.32-3.61-68.7S125.15,23,171.75,18.85c36.05-3.21,45.54,22,48.39,45.58A7.26,7.26,0,0,1,227,65,9.21,9.21,0,0,1,231.24,73C231,82.38,226.34,87.15,221.49,89.6Z"/></g><g id="change3_3"><path fill="#efa54f" d="M155.75,85.3a6.68,6.68,0,1,1-6.15,7.18A6.68,6.68,0,0,1,155.75,85.3Z"/></g><g id="change1_2"><path fill="#231f20" d="M218.37,48.53A83.26,83.26,0,0,0,202.8,54.2c-18.48,8.55-34.46,10.38-58.42,16.35-.9.23-12.59,3.25-12.6,3.24-28.81-4.68-7.89-33-7.89-33l1.18-4.31a47.49,47.49,0,0,1,89.5-6.12A46.5,46.5,0,0,1,218.37,48.53Z"/></g><g id="change4_3"><path fill="#f4c799" d="M112.93,79.47a9.21,9.21,0,0,1,3-8.63c2.34-2,5.94-3,11,.5a22.62,22.62,0,0,1,9.82,17.92l-.6,5.95S116.33,98.7,112.93,79.47Z"/></g><g id="change5_1"><path fill="#3f3a6d" d="M92.6,373.56a1.23,1.23,0,0,1-1.24-1.18c0-.61-3.17-61.47,4.3-112.91a1.25,1.25,0,0,1,2.47.36C90.7,311,93.82,371.64,93.85,372.25a1.24,1.24,0,0,1-1.18,1.31ZM269,264.85a1.26,1.26,0,0,0-.59-1.67l-39.5-18.89a1.25,1.25,0,1,0-1.08,2.26l39.5,18.89a1.29,1.29,0,0,0,.54.12A1.26,1.26,0,0,0,269,264.85Z"/></g><g id="change5_2"><path fill="#3f3a6d" d="M407.22,173a1.25,1.25,0,0,1-.5-.11,5.51,5.51,0,0,1-3-3.29c-3.37-9,7.67-32.64,8.14-33.64a1.25,1.25,0,0,1,2.27,1.06c-3.09,6.57-10.56,25.07-8.07,31.7a3.05,3.05,0,0,0,1.62,1.88,1.25,1.25,0,0,1-.5,2.4ZM419,179.5a1.24,1.24,0,0,0-.64-1.64,3,3,0,0,1-1.71-2c-1.86-5.93,6-20.58,9.14-25.73a1.25,1.25,0,1,0-2.13-1.31c-.49.8-12,19.56-9.4,27.79a5.48,5.48,0,0,0,3.09,3.54,1.31,1.31,0,0,0,.5.1A1.24,1.24,0,0,0,419,179.5Zm10,5.08a1.24,1.24,0,0,0-.56-1.67,2.84,2.84,0,0,1-1.59-2c-1.14-4.81,5.29-14.79,7.86-18.24a1.25,1.25,0,1,0-2-1.49c-1,1.36-9.91,13.5-8.3,20.31a5.4,5.4,0,0,0,2.91,3.69,1.23,1.23,0,0,0,1.68-.56Z"/></g><g id="change5_3"><path fill="#3f3a6d" d="M208.59,75.66a3.79,3.79,0,0,1-2.7,1.18,13.29,13.29,0,0,1-10.25-3.35c-1.12-1-2.12-2.59-1.51-4A2.87,2.87,0,0,1,196.06,68a9.27,9.27,0,0,1,3-.19h.11a15.63,15.63,0,0,1,2.72.31,14,14,0,0,1,4.9,2.47,5.9,5.9,0,0,1,2,2.21A2.84,2.84,0,0,1,208.59,75.66ZM175,79.14a17.12,17.12,0,0,0,5.23-3.59,7,7,0,0,0,2.15-3.63,3.28,3.28,0,0,0-1.72-3.57,5.12,5.12,0,0,0-2.34-.15,7.79,7.79,0,0,0-2.91.89,14.09,14.09,0,0,0-4.48,4.19,7.13,7.13,0,0,0-1.42,2.86,3.2,3.2,0,0,0,.84,3C171.56,80.19,173.49,79.81,175,79.14Zm18-.34a1.24,1.24,0,0,0-.93,1.5c1,4.15,2.93,15.76.45,19.55a2.06,2.06,0,0,1-1.35,1,1.25,1.25,0,0,0,.23,2.47.82.82,0,0,0,.22,0,4.46,4.46,0,0,0,3-2.06c3.51-5.35.27-19.85-.11-21.49A1.25,1.25,0,0,0,193,78.8Zm.51,32.2a13.24,13.24,0,0,1-9.59-.49c-3.56-1.74-6.2-5.32-7.87-10.67a1.25,1.25,0,0,0-2.38.74c1.88,6,5,10.15,9.19,12.19a14.46,14.46,0,0,0,6.36,1.42,15.87,15.87,0,0,0,5.19-.85,1.25,1.25,0,0,0-.9-2.34Zm9.69-28.15a2.49,2.49,0,1,0,2.67,2.3A2.51,2.51,0,0,0,203.18,82.85ZM179.82,87a2.49,2.49,0,1,0,2.29-2.67A2.49,2.49,0,0,0,179.82,87ZM118.55,74.53a1.25,1.25,0,0,0,.6,2.43c6.2-1.57,9.63,9.26,9.66,9.37a1.25,1.25,0,0,0,1.19.88,1.15,1.15,0,0,0,.37-.06,1.25,1.25,0,0,0,.83-1.56C131,85.05,127,72.41,118.55,74.53Zm72.79,66.07a1.24,1.24,0,0,0,.46-1.23,1.25,1.25,0,0,0-1.48-1c-10,2.09-20.67-1.53-20.77-1.57a1.25,1.25,0,1,0-.83,2.36,44.69,44.69,0,0,0,5.7,1.46c5.07,4.75,17.73,9.52,17.73,9.52Z"/></g><g id="change5_4"><path fill="#3f3a6d" d="M243.15,366.71a4,4,0,0,1,4.06-4.07h4.23a4.08,4.08,0,0,1,4.07,4.07v1.84a4.08,4.08,0,0,1-1.2,2.87,4,4,0,0,1-2.87,1.19h-4.23a4,4,0,0,1-4.06-4.06Zm-16.51,1.84a4,4,0,0,0,4.06,4.06h4.23a4.08,4.08,0,0,0,4.07-4.06v-1.84a4.08,4.08,0,0,0-4.07-4.07H230.7a4.1,4.1,0,0,0-2.88,1.19,4.05,4.05,0,0,0-1.18,2.88Zm-16.51,0a4.06,4.06,0,0,0,4.06,4.06h4.23a4.08,4.08,0,0,0,4.07-4.06v-1.84a4.08,4.08,0,0,0-4.07-4.07h-4.23a4.07,4.07,0,0,0-2.87,1.19,4,4,0,0,0-1.19,2.88Zm-16.5,0a4,4,0,0,0,4.06,4.06h4.23a4,4,0,0,0,2.87-1.19,4.08,4.08,0,0,0,1.2-2.87v-1.84a4.08,4.08,0,0,0-4.07-4.07h-4.23a4.1,4.1,0,0,0-2.88,1.19,4.05,4.05,0,0,0-1.18,2.88Z"/></g><g id="change1_3"><path fill="#231f20" d="M452.67,267.61c-2.2-2.73-30.89,1.15-34.39,1.15-36.12,0-104.65-5.2-134.59-5.2a11.25,11.25,0,0,0-11.23,8.85c-4.3,19.67-14.44,66.57-19.56,90a11.58,11.58,0,0,0-.25,2.19H182.58a6.12,6.12,0,0,0,0,12.24H312v-.4H424.1a11.57,11.57,0,0,0,11.31-9.11c4.29-19.67,14.44-66.57,19.55-90A11.56,11.56,0,0,0,452.67,267.61Z" fill-rule="evenodd"/></g><g id="change5_5"><path fill="#3f3a6d" d="M445.44,368.77a11.59,11.59,0,0,1-11.31,9.11H274.23a11.57,11.57,0,0,1-11.31-14c5.12-23.54,15.28-70.37,19.57-90.12,1.15-5.31,6.54-10.45,12-10.45,29.94,0,123.11,1.34,159.22,1.34a11.59,11.59,0,0,1,11.31,14C459.89,302.19,449.73,349,445.44,368.77Z"/></g><g id="change3_4"><path fill="#efa54f" d="M376.89,307.1A11.91,11.91,0,1,1,365,319,11.91,11.91,0,0,1,376.89,307.1Z"/></g></g></svg>