<?xml version="1.0" encoding="UTF-8"?><svg xmlns="http://www.w3.org/2000/svg" xmlns:xlink="http://www.w3.org/1999/xlink" contentScriptType="text/ecmascript" fill="#000000" width="125.2" zoomAndPan="magnify" contentStyleType="text/css" viewBox="-0.1 -1.2 125.2 366.6" height="366.6" preserveAspectRatio="xMidYMid meet" version="1"><g id="change1_1"><path fill="#eb8b8f" d="M123.2527,215.6923c-3.2131-11.5669-11.4348-20.6758-21.7922-26.4324 c10.6121-9.3166,17.1172-22.4923,16.8757-36.7609c-0.2327-13.7506-6.202-27.1398-15.7139-36.9728 c-4.9295-5.0958-10.7349-9.2635-16.9807-12.5931c9.1581-5.9788,16.2924-14.3401,20.0257-24.72 c4.2626-11.8515,3.0898-25.0967-1.6684-36.6165C94.4358,18.4439,71.6172,4.6984,47.5405,1.1163 c-15.688-2.334-31.7018-0.8132-47.0833,2.7553C0.1283,3.9479-0.0662,4.325,0.0207,4.6405 c1.9937,7.2321,3.9875,14.4642,5.9812,21.6963c0.0924,0.3351,0.4391,0.513,0.7688,0.4365 c19.0071-4.4108,41.5503-5.439,58.8556,5.0331c10.1865,6.1643,17.8093,16.6886,18.8606,28.7434 c1.017,11.6621-6.8649,20.5057-16.7627,25.4087c-6.4579,3.199-13.5436,5.0086-20.6134,6.2473 c-7.6483,1.34-15.3898,1.6757-23.0671,2.7763c-0.3641,0.0522-0.4768,0.4711-0.4365,0.7688 c0.9969,7.366,1.9938,14.7321,2.9907,22.0981c0.0337,0.2493,0.3578,0.4798,0.6027,0.4588c5.543-0.4735,11.1022-1.4003,16.667-1.4006 c5.469-0.0002,10.9487,0.4974,16.2953,1.6684c9.6998,2.1244,18.8576,6.5428,25.6863,13.8744 c6.219,6.677,10.3505,15.8285,8.4864,25.0689c-1.7192,8.5225-8.3644,14.562-15.7043,18.5778 c-2.7572,1.5085-5.6505,2.7503-8.6276,3.7548c-1.4436,0.4871-2.9055,0.9194-4.38,1.3026c-1.7505,0.4549-3.4697,0.4866-5.2641,0.5744 c-3.2828,0.1607-6.5595,0.4307-9.8287,0.7667c-1.6293,0.1674-3.2569,0.3521-4.8831,0.5479 c-1.3469,0.1622-2.8324,0.5529-4.1856,0.5232c-0.0198-0.0004-0.0396,0.0103-0.0596,0.0123 c-1.0327,0.1357-2.0651,0.273-3.0974,0.4119c-0.3644,0.0491-0.4765,0.4737-0.4365,0.7688 c0.9969,7.366,1.9938,14.7321,2.9907,22.0981c0.0369,0.2729,0.3547,0.4512,0.6027,0.4588 c5.8839,0.1808,11.7725-0.0816,17.6128-0.8265c2.9767-0.3797,6.0213-1.2421,9.0174-1.239c2.9575,0.0032,5.9563,0.2552,8.8776,0.7067 c10.0319,1.5502,21.8868,6.2308,23.6989,17.5652c1.5932,9.9653-3.4167,20.1922-10.5148,26.9855 c-7.5308,7.2075-17.6477,11.0684-27.6394,13.4058c-13.0336,3.049-26.4802,3.4768-39.8081,3.6922 c-0.3378,0.0055-0.625,0.2819-0.625,0.625c0,7.5,0,15,0,22.5c0,0.3395,0.2864,0.6228,0.625,0.625 c8.1501,0.0523,16.4142-0.1555,24.4407,1.4935c7.7525,1.5927,16.2453,5.2415,20.156,12.5772 c4.0661,7.6272-2.845,14.522-8.6328,18.7197c-5.6858,4.1237-12.129,7.5381-18.5511,10.3509 c-8.8684,3.8844-18.2829,6.3831-27.8288,7.9078c-0.3339,0.0533-0.5184,0.4719-0.4365,0.7688 c1.9938,7.2321,3.9876,14.4642,5.9814,21.6963c0.0969,0.3516,0.4344,0.49,0.7688,0.4366 c18.251-2.9177,36.0063-9.7352,51.2311-20.2722c12.6929-8.7847,24.2463-22.0072,22.2841-38.5265 c-1.0623-8.9434-5.8941-16.9144-12.2942-23.0865c10.3367-3.7228,20.0237-9.2176,27.8121-17.0521 c8.3743-8.4238,14.378-19.1805,16.3705-30.9471C125.1201,228.8563,124.9453,222.1432,123.2527,215.6923z"/></g></svg>