<?xml version="1.0" encoding="UTF-8"?><svg xmlns="http://www.w3.org/2000/svg" xmlns:xlink="http://www.w3.org/1999/xlink" contentScriptType="text/ecmascript" fill="#000000" width="147.2" zoomAndPan="magnify" contentStyleType="text/css" viewBox="-0.1 -0.1 147.2 168.9" height="168.9" preserveAspectRatio="xMidYMid meet" version="1"><g id="change1_1"><path fill="#3f3a6d" d="M147.0854,16.979c-0.0127,0.0694-0.0291,0.139-0.0381,0.2089c-0.6421,4.9951-1.8178,9.9796-2.7199,14.9323 c-1.8654,10.241-3.7308,20.482-5.5962,30.7231c-2.1498,11.8024-4.2996,23.6049-6.4494,35.4073 c-1.7835,9.7917-3.567,19.5834-5.3506,29.3751c-0.4104,2.2531-0.8207,4.5062-1.2311,6.7592 c2.2678,4.8045,4.5356,9.609,6.8035,14.4135c1.891,4.0063,3.782,8.0125,5.6731,12.0188c0.6949,1.4722,1.3898,2.9444,2.0847,4.4166 c0.0219,0.0463,0.0229,0.0903,0.0337,0.1356c0.0048,0.0158,0.0079,0.0311,0.0117,0.0471c0.0068,0.0424,0.0148,0.0837,0.0131,0.1243 c0.0138,0.2598-0.1085,0.5217-0.432,0.611c-3.163,0.8726-6.3259,1.7452-9.4889,2.6178c-0.2531,0.0699-0.584-0.0424-0.7058-0.2872 c-0.0447-0.09-0.0843-0.1852-0.1351-0.2717c-1.1912-2.0273-2.1208-4.2643-3.1671-6.3682 c-2.2298-4.4834-4.4595-8.9668-6.6893-13.4502c-1.4855-2.9869-2.9709-5.9737-4.4564-8.9606 c-0.3735-0.0374-0.747-0.0748-1.1205-0.1122c-0.2169-0.0217-0.3693-0.1337-0.4683-0.2792 c-0.1066-0.1324-0.1676-0.3054-0.1343-0.5118c0.0112-0.0697,0.0258-0.1397,0.0338-0.2099c0.0514-0.4517,0.1235-0.9028,0.1821-1.3544 c-0.1753,0.2938-0.3505,0.5875-0.5258,0.8813c-0.1831,0.3069-0.5501,0.3744-0.8551,0.2242 c-0.0632-0.0311-0.1257-0.0663-0.1905-0.0938c-1.4826-0.6293-2.9137-1.4349-4.3579-2.1462 c-3.0862-1.5199-6.1723-3.0398-9.2584-4.5597c-9.3385-4.5992-18.6769-9.1983-28.0154-13.7974 c-10.7622-5.3003-21.5245-10.6007-32.2867-15.901c-8.9287-4.3973-17.8575-8.7947-26.7862-13.192 c-3.7186-1.8314-7.4372-3.6628-11.1558-5.4942c-0.3017-0.1486-0.3881-0.5804-0.2242-0.8551 c2.1503-3.6038,4.3007-7.2077,6.451-10.8115c0.1803-0.3021,0.5533-0.3806,0.8551-0.2242c0.0626,0.0324,0.1244,0.0693,0.1888,0.0978 c1.4732,0.6508,2.8887,1.497,4.3178,2.2376c3.0319,1.5712,6.0637,3.1424,9.0956,4.7136c9.201,4.7682,18.4023,9.5365,27.6035,14.3047 c10.6857,5.5376,21.3714,11.0753,32.0571,16.6129c2.7094,1.4041,5.4188,2.8082,8.1283,4.2123 c-6.0828-6.3268-12.1656-12.6535-18.2484-18.9803c-8.3413-8.676-16.6827-17.3519-25.024-26.0278 c-6.875-7.1508-13.75-14.3015-20.625-21.4523c-2.8758-2.9911-5.7516-5.9823-8.6274-8.9734c-0.242-0.2518-0.2323-0.6322,0-0.8839 c2.8459-3.0843,5.6917-6.1686,8.5375-9.2529c0.2224-0.241,0.6614-0.2411,0.8839,0c0.0475,0.0515,0.0923,0.109,0.144,0.1561 c1.1817,1.0772,2.2111,2.3962,3.2943,3.5701c2.3329,2.5282,4.6658,5.0564,6.9987,7.5846 c7.0592,7.6502,14.1185,15.3005,21.1777,22.9507c8.1355,8.8167,16.271,17.6333,24.4065,26.4499 c5.8751,6.3669,11.7502,12.7339,17.6254,19.1009c-3.9134-7.8687-7.8267-15.7375-11.7402-23.6062 c-3.8988-7.8395-7.7977-15.6791-11.6966-23.5187c-3.5594-7.157-7.1188-14.3139-10.6782-21.4709 c-2.9172-5.8657-5.8344-11.7314-8.7516-17.5971c-1.9723-3.9658-3.9446-7.9315-5.9169-11.8973 c-0.7247-1.4571-1.4494-2.9142-2.1741-4.3715c-0.1826-0.367-0.0309-0.793,0.3735-0.9181c4.3233-1.3376,8.6465-2.6752,12.9698-4.0128 c0.2461-0.0762,0.5922,0.0466,0.7058,0.2872c0.0429,0.0908,0.0802,0.1872,0.1296,0.2745c1.1574,2.0448,2.0346,4.3106,3.0368,6.4337 c2.1378,4.529,4.2756,9.058,6.4134,13.5871c2.9727,6.298,5.9455,12.5959,8.9183,18.894c3.5,7.4149,6.9999,14.8297,10.4999,22.2446 c3.7706,7.9882,7.5412,15.9764,11.3118,23.9645c0.8755,1.8549,1.751,3.7098,2.6266,5.5646 c-0.1707-3.4734-0.3412-6.9468-0.5119-10.4202c-0.5906-12.0208-1.1812-24.0417-1.7718-36.0625 c-0.4868-9.9077-0.9735-19.8153-1.4603-29.723c-0.2036-4.1444-0.4072-8.2888-0.6108-12.4332 c-0.018-0.3671,0.3022-0.5897,0.625-0.625c4.1717-0.4563,8.3435-0.9126,12.5152-1.3689c0.3445-0.0377,0.6161,0.3151,0.625,0.625 c0.002,0.0703-0.0007,0.1424,0.0061,0.2123c0.1556,1.599,0.093,3.251,0.1389,4.8558c0.0984,3.4386,0.1967,6.8773,0.295,10.316 c0.2976,10.4053,0.5952,20.8106,0.8928,31.2159c0.3429,11.9917,0.6859,23.9835,1.0289,35.9752 c0.2617,9.1522,0.5235,18.3043,0.7852,27.4565c0.9978-6.1959,1.9957-12.3919,2.9935-18.5879 c1.9136-11.8822,3.8272-23.7645,5.7408-35.6467c1.5772-9.7934,3.1544-19.5869,4.7316-29.3802 c0.6597-4.0966,1.3195-8.1932,1.9792-12.2898c0.0401-0.2488,0.357-0.4834,0.6027-0.4588c4.1757,0.4183,8.3515,0.8365,12.5272,1.2547 C146.9105,16.2307,147.1634,16.5509,147.0854,16.979z"/></g></svg>