<?xml version="1.0" encoding="UTF-8"?><svg xmlns="http://www.w3.org/2000/svg" xmlns:xlink="http://www.w3.org/1999/xlink" contentScriptType="text/ecmascript" fill="#000000" width="61.5" zoomAndPan="magnify" contentStyleType="text/css" viewBox="-1.0 -1.2 61.5 64.7" height="64.7" preserveAspectRatio="xMidYMid meet" version="1"><g fill="#99b0dc" id="change1_1"><path fill="inherit" d="M19.2,46.7c-2-0.6-4-0.5-6.1-0.2c0-1.7-0.2-3.4-0.8-5.2C11.6,39,8,39.1,8,41.7C8,43.8,8,46,7.7,48.1 c0,0.1-0.1,0.2-0.1,0.3c-1.9-0.1-3.7,0.1-5.6,0.7c-2.7,0.9-2.6,4.3,0,5.3C3.5,55,5,55.3,6.5,55.2c-0.2,0.7-0.5,1.4-0.8,2 c-1.5,3.5,2.7,6.2,5.1,3.5c2,2.8,7.1,1.1,6-2.7c-0.5-1.6-0.9-3.2-1.3-4.7c1,0,1.9,0,2.9,0C22.3,53.2,22.7,47.7,19.2,46.7z"/><path fill="inherit" d="M23.1,9.1c-2.8,0.1-5.4,0.5-7.9,1.6c0.9-2.8-0.2-6-1.8-9c-1.6-2.9-6.3-1.7-5.7,1.8c0.4,2,0.6,3.8,0.4,5.8 c0,0.3-0.2,0.6-0.3,0.8c-2,0-3.9,0.2-5.8,0.9c-3,1.1-1.8,5.5,1,5.8c1.5,0.2,2.8,0.1,4-0.1c0.5,2.9,1.1,5.8,2.2,8.5 c1.5,3.7,7.1,1.1,5.6-2.6c0-0.1-0.1-0.3-0.1-0.4c1.1,1.1,2.2,2.2,3.4,3.2c2.9,2.4,6.5-1.4,5.2-4.4c-0.9-2-2.3-3.7-4-5.1 c1.1-0.1,2.1-0.2,3.2-0.2C26.7,15.5,27.4,9,23.1,9.1z"/><path fill="inherit" d="M39.2,48.8c0.3-0.1,0.5-0.2,0.7-0.2c0,0,0,0,0,0c0.1,0,0.2-0.1,0.3-0.1c0.2-0.1,0.5-0.2,0.7-0.3 c0.2-0.1,0.4-0.1,0.6-0.2c0.8,1.7,1.6,3.4,2.1,5.2c0.9,3.2,6.3,3.6,6.3-0.3c0-2.1-0.2-4.2-0.5-6.2c1.4,1,2.8,2.1,4.3,3.1 c3.4,2.6,6.8-2.7,3.7-5.2c0,0,0,0,0.1,0c-1.4-1-2.8-1.8-4.3-2.5c-0.5-0.3-1-0.7-1.5-1.1c0.7-0.1,1.5-0.2,2.3-0.5 c2.3-0.7,3.5-4.6,0.6-5.4c-2.7-0.7-5.5-0.3-7.7,1.1c-0.8-2.2-2.4-4.3-3.7-6c-1.4-1.8-4-0.4-3.9,1.7c0.1,2.2,0.6,4.2,1.1,6.3 c0.4,1.9,0.7,3-0.2,3.8c-0.9,0.3-1.8,0.7-2.7,1.1C34.5,44.6,35.9,49.8,39.2,48.8z"/></g></svg>