<?xml version="1.0" encoding="UTF-8"?><svg xmlns="http://www.w3.org/2000/svg" xmlns:xlink="http://www.w3.org/1999/xlink" contentScriptType="text/ecmascript" fill="#000000" width="1181.1" zoomAndPan="magnify" contentStyleType="text/css" viewBox="-15.0 -14.1 1181.1 1532.7" height="1532.7" preserveAspectRatio="xMidYMid meet" version="1"><g fill="#efa54f" id="change1_1"><path fill="inherit" d="M 1113.109375 281.839844 C 1041.730469 257.839844 979.273438 244.441406 931.003906 180.199219 C 907.136719 148.429688 888.832031 114.359375 869.257812 80.109375 C 856.257812 57.371094 841.542969 27.351562 820.945312 10.789062 C 789.9375 -14.121094 735.164062 7.800781 748.863281 52.761719 C 749.027344 53.289062 749.078125 53.871094 749.203125 54.421875 C 735.847656 107.210938 725.347656 159.179688 688.34375 202.210938 C 668.347656 225.46875 651.488281 248.121094 625.523438 265.171875 C 608.203125 276.539062 575.496094 301.78125 555.664062 306.019531 C 490.867188 319.871094 503.949219 429.691406 571.535156 423.300781 C 635.703125 417.230469 661.179688 444.140625 702.578125 491.621094 C 744.269531 539.433594 770.988281 596.253906 797.226562 653.578125 C 818.355469 699.738281 882.042969 671.769531 885.035156 629.800781 C 889.046875 573.492188 944.625 503.851562 983.03125 466.121094 C 1005.679688 443.859375 1038.339844 422.621094 1066.539062 407.988281 C 1091.109375 395.25 1116.390625 390.691406 1136.550781 370.601562 C 1166.070312 341.171875 1150.328125 294.351562 1113.109375 281.839844"/><path fill="inherit" d="M 1020.628906 1238.503906 C 972.789062 1222.417969 930.921875 1213.4375 898.574219 1170.378906 C 882.578125 1149.089844 870.308594 1126.246094 857.1875 1103.289062 C 848.472656 1088.050781 838.613281 1067.929688 824.808594 1056.835938 C 804.023438 1040.136719 767.308594 1054.828125 776.492188 1084.957031 C 776.605469 1085.316406 776.636719 1085.703125 776.722656 1086.070312 C 767.769531 1121.457031 760.730469 1156.285156 735.933594 1185.128906 C 722.527344 1200.71875 711.230469 1215.902344 693.828125 1227.328125 C 682.21875 1234.949219 660.296875 1251.867188 647 1254.710938 C 603.570312 1263.992188 612.34375 1337.601562 657.636719 1333.316406 C 700.648438 1329.246094 717.71875 1347.285156 745.46875 1379.109375 C 773.410156 1411.15625 791.320312 1449.238281 808.910156 1487.664062 C 823.070312 1518.597656 865.753906 1499.851562 867.761719 1471.722656 C 870.453125 1433.980469 907.703125 1387.304688 933.441406 1362.019531 C 948.632812 1347.097656 970.515625 1332.859375 989.414062 1323.054688 C 1005.878906 1314.515625 1022.828125 1311.460938 1036.339844 1298 C 1056.128906 1278.269531 1045.570312 1246.886719 1020.628906 1238.503906"/><path fill="inherit" d="M 402.039062 807.421875 C 354.195312 791.335938 312.335938 782.359375 279.984375 739.300781 C 263.988281 718.007812 251.71875 695.167969 238.59375 672.210938 C 229.882812 656.96875 220.019531 636.851562 206.214844 625.757812 C 185.429688 609.058594 148.722656 623.753906 157.90625 653.878906 C 158.011719 654.234375 158.046875 654.628906 158.132812 654.996094 C 149.179688 690.382812 142.140625 725.207031 117.339844 754.054688 C 103.941406 769.636719 92.640625 784.828125 75.234375 796.25 C 63.625 803.867188 41.703125 820.789062 28.410156 823.632812 C -15.023438 832.917969 -6.25 906.523438 39.046875 902.234375 C 82.054688 898.171875 99.132812 916.207031 126.878906 948.027344 C 154.824219 980.078125 172.734375 1018.15625 190.316406 1056.582031 C 204.476562 1087.519531 247.167969 1068.773438 249.171875 1040.644531 C 251.859375 1002.902344 289.109375 956.230469 314.855469 930.941406 C 330.039062 916.019531 351.925781 901.78125 370.828125 891.980469 C 387.296875 883.4375 404.238281 880.382812 417.746094 866.917969 C 437.539062 847.195312 426.988281 815.808594 402.039062 807.421875"/></g></svg>