<?xml version="1.0" encoding="UTF-8"?><svg xmlns="http://www.w3.org/2000/svg" xmlns:xlink="http://www.w3.org/1999/xlink" contentScriptType="text/ecmascript" fill="#000000" width="430.4" zoomAndPan="magnify" contentStyleType="text/css" viewBox="-0.1 -1.3 430.4 432.0" height="432" preserveAspectRatio="xMidYMid meet" version="1"><g data-name="Layer 1"><g id="change1_1"><path fill="#3f3a6d" d="M199.93,82.6h29.58v82.61H169.79Zm79.49,0H249.84v82.61h59.72Z"/></g><g id="change2_1"><path fill="#f4c799" d="M293.49,72.56a12,12,0,0,1-12.09,11.9,12.33,12.33,0,0,1-3.66-.55c-2.54,10.85-7.94,20.18-15.11,26.66v43.48H213.51V109.4h.24a52.41,52.41,0,0,1-13.9-25.64,12.19,12.19,0,0,1-1.82.15,11.91,11.91,0,1,1,0-23.82c.33,0,.65,0,1,0,3.62-23.24,20.06-40.79,39.81-40.79,20,0,36.58,18,39.93,41.6a12.32,12.32,0,0,1,2.66-.3A12,12,0,0,1,293.49,72.56Z"/></g><g id="change3_1"><path fill="#eb8b8f" d="M330.54,430.68H158.09c-.82-29,6.58-57.92,16.08-86.87l6.19-28.46c-1.62-5.48,10.53,8.63,10.39,7.77-2.65-17.12-5.84-24.93-7.89-42.13s20-20.26,17.54-37.39c-1.2-8.45-2.57-16.85-4.31-25.21s-3.68-16.75-5.33-25.16a197.17,197.17,0,0,1-3.55-25.61c-.41-6.68-.31-13.42-.24-20.13,7.21-2.65,19.24-4.19,28.12-4.54,22.3,18.92,47.26.07,47.26.07s26,2.33,38.65,9.06c1.25.67,2.78,1.6,4.53,2.74-.41,3.13-.84,6.26-1.25,9.4-2.15,16.39-4.28,32.78-6.61,49.15-2.26,15.86-4.89,31.6-8.23,47.27-3.3,15.5-.2,24.72-3.63,40.2-2.93,13.18,15.69,5.37,14,19l6.75,24C325.55,364.7,328.79,399,330.54,430.68Z"/></g><g id="change1_2"><path fill="#3f3a6d" d="M238.06,384.39a1,1,0,0,1,1,1l-.37,13.08a1,1,0,0,1-1,1h0a1,1,0,0,1-1-1l.37-13.09A1,1,0,0,1,238.06,384.39Zm-69,21.47a1,1,0,0,0-.61,1.27l1.52,4.26a1,1,0,0,0,.94.67,1,1,0,0,0,.33-.06,1,1,0,0,0,.61-1.28l-1.52-4.26A1,1,0,0,0,169.06,405.86Zm114-62.17-1.63-.54a1,1,0,0,0-.63,1.9l8,2.63a.85.85,0,0,0,.31.06,1,1,0,0,0,.95-.69,1,1,0,0,0-.64-1.26l-6-2h-.37A.49.49,0,0,0,283.07,343.69Zm-100.75,1.09a1,1,0,0,0,.49.14,1,1,0,0,0,1-1.11h-3.18ZM321.8,378.86l.25,0a1,1,0,0,0,.72-1.22l-1.08-4.23a1,1,0,1,0-1.94.49l1.08,4.24A1,1,0,0,0,321.8,378.86ZM202.12,381a1,1,0,0,0-1.62-1.18l-8.94,12.26a1,1,0,0,0,.81,1.59,1,1,0,0,0,.8-.41Zm-10.43,40.12h.15a1,1,0,0,0,.84-1.15l-2.07-13.3a1,1,0,0,0-2,.31l2.07,13.3A1,1,0,0,0,191.69,421.09ZM258,362.58a1,1,0,0,0-1.23-.7l-9.58,2.63a1,1,0,0,0,.26,2,.84.84,0,0,0,.27,0l9.58-2.63A1,1,0,0,0,258,362.58ZM174.79,430l-5.58-1.53a1,1,0,1,0-.53,1.93l.87.24h5.9A1,1,0,0,0,174.79,430Zm13-62.13h.15a1,1,0,0,0,1-.85l.76-5a1,1,0,1,0-2-.3l-.76,5A1,1,0,0,0,187.78,367.91Zm73.79,17.63a1,1,0,0,0,.76-1.65l-4-4.66a1,1,0,0,0-1.52,1.31l4,4.65A1,1,0,0,0,261.57,385.54ZM207,345a1,1,0,0,0,.66-1.75L200.57,337a1,1,0,1,0-1.31,1.5l7.12,6.24A1,1,0,0,0,207,345ZM323.9,394.71a1,1,0,0,0-1.32.5l-3.44,7.66a1,1,0,0,0,.91,1.41,1,1,0,0,0,.91-.59L324.4,396A1,1,0,0,0,323.9,394.71Zm-90-50.22-2.41,11.94a1,1,0,0,0,.79,1.18l.19,0a1,1,0,0,0,1-.81l2.41-11.94a1,1,0,0,0-.78-1.17A1,1,0,0,0,233.94,344.49Zm78,10.35a1,1,0,0,0-1.41-.12l-9,7.49a1,1,0,0,0-.13,1.41,1,1,0,0,0,.77.36,1,1,0,0,0,.64-.24l9-7.49A1,1,0,0,0,312,354.84ZM169.39,387.38a1,1,0,0,0,.8,1.16l4.31.81.18,0a1,1,0,0,0,1-.82,1,1,0,0,0-.79-1.16l-4.31-.81A1,1,0,0,0,169.39,387.38Zm40.21,17.38a1,1,0,0,0,.4,1.35l12.29,6.67a1,1,0,0,0,.48.12,1,1,0,0,0,.48-1.88L211,404.36A1,1,0,0,0,209.6,404.76Zm46.16-1,2.42.77a1,1,0,0,0,.3.05,1,1,0,0,0,.3-2l-2.41-.76a1,1,0,1,0-.61,1.9Zm48.52-16.42a1,1,0,0,0-.45-1.34L294,381.13a1,1,0,1,0-.88,1.79l9.86,4.83a1,1,0,0,0,.43.11A1,1,0,0,0,304.28,387.3ZM167.89,369.67a1,1,0,0,0,1,.78.86.86,0,0,0,.22,0,1,1,0,0,0,.76-1.19l-1.47-6.67c-.39,1.36-.78,2.72-1.15,4.08Zm69,56.34a1,1,0,0,0,0-1.41,1,1,0,0,0-1.42,0l-5.84,5.52a1,1,0,0,0-.29.6h2.57Zm64.72-20.23-3.71,4.86a1,1,0,0,0,1.59,1.22l3.71-4.86a1,1,0,1,0-1.59-1.22Zm-27-10.74a1,1,0,0,0,.51,1.32l7.18,3.17a1,1,0,0,0,.4.08,1,1,0,0,0,.41-1.91l-7.18-3.17A1,1,0,0,0,274.56,395Zm-19,23.4a1,1,0,0,0-1-1,1,1,0,0,0-1,1l-.31,12.29h2Zm-41.76-57.15-5.16-1a1,1,0,1,0-.36,2l5.16.95h.18a1,1,0,0,0,.18-2Zm108.89,69.37-.57-9.53a1,1,0,1,0-2,.12l.56,9.43h2Zm-44.89-12.42a1,1,0,1,0-2,.27l1.65,12.17h2Zm-59.6-32a1,1,0,0,0,.45.11,1,1,0,0,0,.89-.56l2.17-4.35a1,1,0,0,0-1.79-.89l-2.17,4.35A1,1,0,0,0,218.22,386.21Zm40.3-42.85a1,1,0,0,0-.31,1.38l3.12,4.93a1,1,0,0,0,.84.47,1,1,0,0,0,.54-.15,1,1,0,0,0,.31-1.38l-3.12-4.94A1,1,0,0,0,258.52,343.36Zm19.38,29.3H278a1,1,0,0,0,.89-1.1l-1-9.26a1,1,0,0,0-1.1-.89,1,1,0,0,0-.89,1.1l1,9.26A1,1,0,0,0,277.9,372.66Zm25.22,57.85a1,1,0,0,0-1-1l-4.29-.09a1,1,0,0,0-1,1,.76.76,0,0,0,.05.3h6.2C303.09,430.62,303.11,430.57,303.12,430.51Z"/></g><g id="change2_2"><path fill="#f4c799" d="M414.57,155.35s.3,1,.8,2.9c-10.54,5.92-31.67,4.3-42.18,3l.74-5.78s-12.25-15.11-10-19.09,9.09,4.82,9.09,4.82-4.8-18.14-.3-20.16c4.28-1.92,7.69,9.78,8.06,11.41-.31-1.83-2.52-17,1.84-17.68,4.73-.72,7.26,15.46,7.53,16.31s-3.42-16.68,1.48-16.91c4.66-.22,6.78,15.95,6.94,17.46-.11-1.38-.73-12.22,3.28-12.94C406.09,118,414.57,155.35,414.57,155.35Z"/></g><g id="change4_1"><path fill="#ffe8e5" d="M429,247.42c-.81,13.67-1.23,29.16-6.51,42-3.32,8.06-11.64,13.61-20.14,15.06-17.06,2.9-32.93-6.24-45.89-16.31S330.1,269,317,259.33c-1.8,36.79-.5,84-8.75,87.29-8.66,4.2-21.32,6.42-32.93,7.42v-210c7.59,1.34,18.31,3.77,25.73,7.72,11.8,6.29,48.51,35.51,69,57.87l3.22-50.56a107.44,107.44,0,0,0,42.44,0S430.32,209.67,429,247.42Z"/></g><g id="change4_2"><path fill="#ffe8e5" d="M200.49,353.74c-12.46-1-23.63-2.79-27.86-5.08-5.21-5.43-4-24.49-2.7-41.82,0,0-25.86,41.06-49.24,39-53.78-6.43-80-82.38-80-82.38.2-6.35,20.74-27.61,33.32-25.48l37.17,29.74L159,169.34c9.76-14.58,23.66-22.77,41.52-25.56Z"/></g><g id="change2_3"><path fill="#f4c799" d="M73.19,238.92s-21.4-33.83-39.86-27.44C8.24,230.35,25,251.35,42.6,262.31,49.93,271.28,77,251.36,73.19,238.92Z"/></g><g id="change1_3"><path fill="#3f3a6d" d="M52.42,291.54,0,56.29a1.06,1.06,0,0,1,2.06-.48L57.87,290.29a2.8,2.8,0,1,1-5.45,1.29Z"/></g><g id="change2_4"><path fill="#f4c799" d="M42.18,218.73a42.82,42.82,0,0,0-15.69,1.43c-.14,2.83-1.44,5.42-2.33,8.1,2.41,9.41,7.63,26.34,14.16,27.7,6.17,0,11.93-1.58,13.13-5.63C53.85,239.77,48.49,223.35,42.18,218.73Z"/></g><g id="change2_5"><path fill="#f4c799" d="M55.91,218.84,33.56,196.35s-4.19,1.8-2.67,7.86,8.65,12.19,8.65,12.19Z"/></g><g id="change4_3"><path fill="#ffe8e5" d="M198.26,177.27a.9.9,0,0,1,0-1.79c.34,0,34.31-1,38.95-24.21a.91.91,0,0,1,.88-.72h0a.9.9,0,0,1,.86.77c0,.11,1.62,11.1,11.09,17.91,7.28,5.24,17.21,6.72,29.53,4.4a.9.9,0,0,1,.33,1.76c-12.83,2.41-23.24.82-30.93-4.72a30.3,30.3,0,0,1-11-15.61c-7.36,21.26-39.39,22.2-39.73,22.21Zm43.68,5.06a4.24,4.24,0,1,0-4.24,4.24A4.25,4.25,0,0,0,241.94,182.33Zm-1.79,0a2.46,2.46,0,1,1-2.45-2.46A2.45,2.45,0,0,1,240.15,182.33Zm1.79,20a4.24,4.24,0,1,0-4.24,4.24A4.25,4.25,0,0,0,241.94,202.34Zm-1.79,0a2.46,2.46,0,1,1-2.45-2.46A2.45,2.45,0,0,1,240.15,202.34Zm1.79,20a4.24,4.24,0,1,0-4.24,4.24A4.24,4.24,0,0,0,241.94,222.35Zm-1.79,0a2.46,2.46,0,1,1-2.45-2.46A2.45,2.45,0,0,1,240.15,222.35Zm1.79,20a4.24,4.24,0,1,0-4.24,4.24A4.24,4.24,0,0,0,241.94,242.36Zm-1.79,0a2.46,2.46,0,1,1-2.45-2.45A2.46,2.46,0,0,1,240.15,242.36Zm1.79,20a4.24,4.24,0,1,0-4.24,4.25A4.24,4.24,0,0,0,241.94,262.37Zm-1.79,0a2.46,2.46,0,1,1-2.45-2.45A2.46,2.46,0,0,1,240.15,262.37Zm47.41,70.72a.89.89,0,1,0-.75-1.62c-33.2,15.32-91.13,3-91.71,2.91a.9.9,0,1,0-.38,1.75,256,256,0,0,0,47.59,4.8C257.92,340.93,274.58,339.08,287.56,333.09Z"/></g><g id="change5_1"><path fill="#231f20" d="M398.44,140.24c-6.37-1-8.72,2.6-9.48,4.4a18.43,18.43,0,0,0-9.6-2.17.91.91,0,0,0-.85.94.89.89,0,0,0,.94.85,19.91,19.91,0,0,1,6.25.87c4,1.29,6.14,3.79,6.42,7.43a.89.89,0,0,0,.89.82h.07a.89.89,0,0,0,.82-1,9.3,9.3,0,0,0-3.44-6.74c.32-1,1.86-4.63,7.68-3.67a.9.9,0,0,0,.3-1.77Z"/></g><g id="change5_2"><path fill="#231f20" d="M170.92,232.41h0a.9.9,0,0,0-.9.88l-1,73.54a.88.88,0,0,0,.88.9h0a.88.88,0,0,0,.89-.88l1-73.54A.89.89,0,0,0,170.92,232.41Z"/></g><g id="change5_3"><path fill="#231f20" d="M304.88,213.8a.89.89,0,0,0-1.72.49l12.93,45.29a.9.9,0,0,0,.86.65,1.09,1.09,0,0,0,.25,0,.89.89,0,0,0,.61-1.1Z"/></g><g id="change5_4"><path fill="#231f20" d="M53.39,234.73c1.86-7.21-2.37-10.16-3.89-11-.38-2.28-1.92-5.9-5.62-6.06-4.25-.18-11.87-.18-12-.18a.89.89,0,0,0,0,1.78c.08,0,7.66,0,11.87.19,2.79.12,3.66,3.16,3.9,4.42C37,230.55,28.41,226.54,28,226.36a.89.89,0,0,0-1.19.41.9.9,0,0,0,.41,1.2,19.36,19.36,0,0,0,7.9,1.54,25.39,25.39,0,0,0,13.58-4.13c1.16.59,4.51,2.88,2.88,9-10,6.12-20.59,2.56-20.7,2.52a.9.9,0,1,0-.59,1.69,27.66,27.66,0,0,0,21.88-2.5c1.06,1.29,3.38,4.78.53,7.85a24.11,24.11,0,0,1-19.39,2.45.9.9,0,0,0-.61,1.69,24.37,24.37,0,0,0,7.64,1.15A25,25,0,0,0,52.79,246c.31,1.7.16,5.23-5.41,7.7a.9.9,0,0,0,.37,1.72.94.94,0,0,0,.36-.08c3.14-1.4,5.18-3.29,6.07-5.64a7.61,7.61,0,0,0,.17-4.84C57.45,241.15,55.28,236.85,53.39,234.73Z"/></g></g><g data-name="Layer 2"><g id="change3_2"><path fill="#eb8b8f" d="M195.15,79.26a4,4,0,0,1,1,2.1c.65,2.34,1.31,4.81.72,7.17a2.86,2.86,0,0,1-1.83,2.25,2.2,2.2,0,0,1-2.19-1,4.25,4.25,0,0,1-.69-2.39C192.11,85.15,193.19,80.65,195.15,79.26Zm86.58,7.82a4.34,4.34,0,0,0,.69,2.4,2.21,2.21,0,0,0,2.19,1,2.85,2.85,0,0,0,1.83-2.25c.59-2.36-.06-4.83-.71-7.17a4.12,4.12,0,0,0-1-2.1C282.74,80.31,281.66,84.81,281.73,87.08ZM218.54,76.23a4.59,4.59,0,1,0,4.1,5A4.6,4.6,0,0,0,218.54,76.23Z"/></g><g id="change1_4"><path fill="#3f3a6d" d="M261.4,40.11A19.07,19.07,0,0,1,250,35.72c-9.68,7.44-19.35-.37-19.35-.37a18.58,18.58,0,0,1-13.8,3.22c-3.32,13.63-18.29,22.27-18.29,22.27,2.59-15.52,8.9-23.46,10.31-25.07a36.62,36.62,0,0,1,20.51-15.15,12.84,12.84,0,1,1,20,.47c9.9,3.34,16.49,10.66,19.38,14.46.88,1,7.61,8.88,10,25.33C278.77,60.88,265.34,52.86,261.4,40.11Z"/></g><g id="change5_5"><path fill="#231f20" d="M263.63,57.53a2.9,2.9,0,0,1-.44,2.75c-1,1.11-2.75,1-4.17.54a15.62,15.62,0,0,1-5.09-2.67,6.39,6.39,0,0,1-2.32-3,3,3,0,0,1,1.17-3.4,4.59,4.59,0,0,1,2.08-.38,7,7,0,0,1,2.72.49,12.7,12.7,0,0,1,4.47,3.29A6.4,6.4,0,0,1,263.63,57.53Zm-47.4,3.29a15.72,15.72,0,0,0,5.09-2.67,6.39,6.39,0,0,0,2.32-3,3,3,0,0,0-1.17-3.4,4.61,4.61,0,0,0-2.09-.38,6.94,6.94,0,0,0-2.71.49,12.82,12.82,0,0,0-4.48,3.29,6.49,6.49,0,0,0-1.57,2.41,2.9,2.9,0,0,0,.44,2.75C213,61.39,214.81,61.26,216.23,60.82ZM255,78.62a1,1,0,0,0-1.35.4c-3,5.52-6.87,8.37-11.42,8.45a1,1,0,0,0,0,2h0C246,89.4,251.2,87.7,255.43,80A1,1,0,0,0,255,78.62ZM219.7,63.43a2.26,2.26,0,1,0,2,2.47A2.27,2.27,0,0,0,219.7,63.43Zm34,0a2.26,2.26,0,1,0,2,2.47A2.27,2.27,0,0,0,253.73,63.43ZM240,79.83h.16a1,1,0,0,0,.15-2,3.13,3.13,0,0,1-2.14-1.39c-3.25-4.48-1.23-16.87-1.21-17a1,1,0,0,0-.82-1.15,1,1,0,0,0-1.15.82c-.1.54-2.17,13.34,1.56,18.49A5.14,5.14,0,0,0,240,79.83Zm3,36.07c-12.91,4.73-23.77-3.11-27.84-6.7a1,1,0,0,0-1.41.09.81.81,0,0,0-.1.18l-.08-.07v.2a1.06,1.06,0,0,0,0,.68V128s6.17-1.77,19.31-8.69c.62,0,1.26.07,1.9.07a25.81,25.81,0,0,0,8.9-1.6,1,1,0,0,0,.6-1.29A1,1,0,0,0,242.94,115.9ZM289,69.27c-1.95-1.57-3.86-2.14-5.65-1.71-2.83.67-4.2,3.62-4.26,3.75a1,1,0,0,0,.91,1.41,1,1,0,0,0,.91-.59,5.19,5.19,0,0,1,2.9-2.63c1.17-.28,2.49.17,3.94,1.33a1,1,0,0,0,1.41-.16A1,1,0,0,0,289,69.27Zm-93-1.72c-1.79-.42-3.7.15-5.65,1.72a1,1,0,0,0-.16,1.4,1,1,0,0,0,1.41.16c1.44-1.16,2.76-1.6,3.92-1.33a5.11,5.11,0,0,1,2.91,2.64,1,1,0,0,0,.91.58,1.06,1.06,0,0,0,.42-.09,1,1,0,0,0,.49-1.32A7,7,0,0,0,196,67.55Z"/></g></g></svg>