<?xml version="1.0" encoding="UTF-8"?><svg xmlns="http://www.w3.org/2000/svg" xmlns:xlink="http://www.w3.org/1999/xlink" contentScriptType="text/ecmascript" fill="#000000" width="502.5" zoomAndPan="magnify" contentStyleType="text/css" viewBox="-0.4 -13.7 502.5 386.7" height="386.7" preserveAspectRatio="xMidYMid meet" version="1"><g id="change1_1"><path fill="#f59921" d="M499.33,110.53C490.41,28.49,403.07-13.74,336.44,4.01c-12.14,3.23-23.94,7.93-34.96,14.22 c-6.53,3.73-12.97,8.19-19.03,13.3c-19.73,16.64-35.47,40.13-37.44,67.33c-2.66,36.7,16.25,72.56,43.93,93.47 c34.57,26.12,82.08,31.65,122.39,27.66c1.86-0.18,3.72-0.4,5.57-0.66c24.11-3.31,50.64-13.77,65.47-35.48 C496.25,163.54,502.09,135.94,499.33,110.53z M387.88,141.57c-6.12,9.17-18.64,11.12-29.66,11.34c-7.72,0.15-15.56-0.15-23.07-1.81 c-9.39-12.72-13.12-28.76-5.83-43.08c6.16-12.1,18.01-25.51,30.53-28.01c7.79,2.95,14.7,7.24,19.29,12.18 c8.26,8.91,12.55,21.15,12.66,33.3C391.85,131.1,390.98,136.92,387.88,141.57z"/></g><g id="change2_1"><path fill="#99b0dc" d="M427.13,226.77c-0.25-0.41-0.53-0.79-0.82-1.15c-1.21-8.56-5.06-16.51-10.45-23.35 c-1.02-1.31-2.11-2.58-3.25-3.81c-2.14-2.32-4.46-4.49-6.9-6.47c-10.73-8.72-23.64-14.32-36.6-19.14 c-45.92-17.11-94.92-25.81-143.91-25.78c-41.21,0.02-83.84,4.81-117.16,31.3c-0.82,0.65-1.62,1.32-2.43,1.99l0.26-2.13 c-0.68,2.96-4.88,4.13-8.18,4.38c-15.52,1.18-31.62,2.27-46.18-3.24c-8.6-3.26-16.38-9.35-21.13-17.29 c-1.28-2.13-2.28-4.45-2.76-6.89c-0.51-2.53,0.02-5.14-0.58-7.63c-0.13-0.55-0.35-1.11-0.8-1.45c-3.69-2.71-17.6,26.1-18.96,29.91 c-2.07,5.76-3.53,11.71-4.52,17.75C1.59,201,0.94,208.31,0.32,215.6c-0.38,4.45-0.74,9.09,0.88,13.25c1.61,4.17,5.04,7.4,8.79,9.82 c9.91,6.41,22.1,7.95,33.85,8.96c6.87,0.59,13.89,1.01,20.85,0.85c-1.22,9.75,1.38,35.02,1.85,39.42 c1.08,10.07,2.5,20.09,4.28,30.06c0.64,3.61,1.35,7.26,2.85,10.61c4.55,10.15,15.43,15.73,25.76,19.87 c54.6,21.83,114.89,24.56,173.66,22.73c45.47-1.42,91.62-5.57,133.91-22.33c6.94-2.75,14.27-6.31,17.58-13.01 c2.08-4.22,2.24-9.1,2.36-13.81c0.7-27.95,1.4-55.91,2.1-83.86C429.14,234.26,429.17,230.1,427.13,226.77z M332.09,249.81 c-23.18,9.02-48.4,10.05-72.98,9.69c-24.66-0.37-49.3-0.13-73.94-1.78c-9.63-0.64-19.56-1.61-28.01-6.26 c-2.29-1.26-4.45-2.87-6.35-4.73c-1.76-1.72,1.55-9.61,2.62-11.02c8.76-11.51,29.19-14.51,42.63-16.85 c39.71-6.92,83.63-12.06,122.56,1.44c10.7,3.71,24.84,8.32,27.39,20.99C342.35,245.3,337.2,247.82,332.09,249.81z M105.87,178.23 c0.07-0.28,0.11-0.57,0.11-0.88L105.87,178.23z"/></g><g id="change3_1"><path fill="#fdfdfb" d="M330.94,151.9c-0.15,0-0.3-0.01-0.46-0.04c-4.21-0.78-6.06-1.68-9.73-3.67c-3.21-1.75-6.41-4.19-10.05-7.69 c-3-2.88-6.28-6.35-7.95-10.27c-2.12-4.98-3.13-10.57-2.94-16.16c0.17-4.75,1.19-10.06,3.03-15.77c1.84-5.7,3.95-9.93,6.66-13.32 c2.79-3.5,6.48-6.32,10.98-8.38c3.89-1.79,8.42-2.95,13.09-3.37c4.37-0.39,8.92,0.2,13.2,0.84c4.86,0.73,9.03,1.72,12.74,3.04 c1.3,0.46,1.98,1.89,1.52,3.19c-0.46,1.3-1.89,1.98-3.19,1.52c-3.4-1.21-7.26-2.13-11.8-2.81c-4.15-0.62-8.19-1.15-12.02-0.81 c-4.11,0.36-8.07,1.38-11.45,2.93c-3.78,1.74-6.86,4.08-9.16,6.96c-2.31,2.9-4.16,6.63-5.81,11.74c-1.7,5.27-2.64,10.12-2.79,14.41 c-0.17,4.86,0.71,9.71,2.54,14.02c1.32,3.09,4.18,6.09,6.81,8.62c3.31,3.18,6.16,5.38,8.97,6.9c3.22,1.75,4.55,2.46,8.25,3.15 c1.36,0.25,2.25,1.56,2,2.91C333.17,151.06,332.12,151.9,330.94,151.9z M459.79,106.12c-0.4-5.46-1.02-9.84-1.93-13.78 c-1.08-4.62-2.5-9.1-4.25-13.29c-1.54-3.73-3.71-6.98-5.8-10.13c-0.62-0.93-1.24-1.86-1.83-2.79c-2.94-4.61-5.88-8.5-8.99-11.89 c-2.77-3.03-6.5-6.93-10.79-10.31c-3.31-2.6-6.97-4.67-10.5-6.68c-0.71-0.39-1.42-0.79-2.12-1.2c-1.24-0.71-2.46-1.46-3.68-2.21 c-2.93-1.8-5.96-3.67-9.3-5.05c-3.6-1.49-7.39-2.53-11.06-3.53c-1.04-0.29-2.08-0.57-3.11-0.87c-4.78-1.36-9.63-2.48-14.41-3.33 c-5.05-0.89-10.22-1.34-14.66-1.69c-1.33-0.11-2.65-0.24-3.98-0.36c-3.51-0.34-7.13-0.68-10.76-0.64c-4.76,0.06-9.5,0.55-14.08,1.03 l-0.65,0.07c-4.27,0.44-8.42,1.28-12.44,2.1L313.34,22c-4.6,0.92-9.52,1.97-14.35,3.47c-4.6,1.42-9.27,3.17-13.85,5.19 c-1.27,0.56-1.84,2.04-1.28,3.3s2.04,1.83,3.3,1.28c4.41-1.95,8.89-3.63,13.31-5c4.61-1.42,9.38-2.45,13.85-3.34l2.12-0.43 c3.91-0.79,7.94-1.61,11.96-2.03l0.66-0.07c4.47-0.46,9.09-0.94,13.62-1c3.37-0.04,6.7,0.28,10.22,0.62 c1.36,0.12,2.71,0.25,4.07,0.36c4.32,0.34,9.35,0.78,14.18,1.64c4.62,0.81,9.29,1.89,13.9,3.21c1.06,0.3,2.11,0.59,3.17,0.88 c3.68,1.01,7.15,1.96,10.47,3.33c2.97,1.23,5.7,2.91,8.59,4.69c1.26,0.78,2.53,1.55,3.81,2.29c0.71,0.41,1.43,0.81,2.14,1.22 c3.53,1.99,6.86,3.88,9.87,6.25c4.01,3.16,7.56,6.87,10.2,9.75c2.91,3.18,5.68,6.85,8.47,11.21c0.61,0.96,1.24,1.91,1.88,2.87 c1.96,2.95,3.99,6,5.35,9.27c1.63,3.95,2.98,8.16,3.99,12.51c0.85,3.68,1.43,7.82,1.81,13.02c0.3,4.03,0.01,8.25-0.28,12.33 l-0.06,0.81c-0.33,4.82-0.89,9.08-1.69,13.03c-0.78,3.84-2.03,7.53-3.35,11.44l-0.4,1.17c-1.31,3.9-2.94,7.87-4.98,12.15 c-0.67,1.4-1.28,2.82-1.88,4.2c-1.18,2.77-2.31,5.37-3.8,7.73c-1.68,2.64-3.7,5.14-5.66,7.55c-0.94,1.15-1.87,2.3-2.76,3.45 c-0.7,0.91-1.39,1.83-2.08,2.75c-2.18,2.88-4.23,5.61-6.56,8.01c-2.59,2.67-5.62,4.99-8.54,7.23c-0.05,0.04-0.1,0.08-0.15,0.12 c1.14,1.23,2.23,2.5,3.25,3.81c3.04-2.34,6.2-4.77,9.03-7.68c2.55-2.62,4.79-5.6,6.96-8.48c0.68-0.9,1.36-1.81,2.05-2.7 c0.87-1.13,1.77-2.24,2.68-3.35c2.05-2.53,4.17-5.14,6-8.04c1.71-2.69,2.96-5.6,4.18-8.42c0.57-1.34,1.17-2.72,1.79-4.03 c2.13-4.46,3.83-8.62,5.21-12.7l0.39-1.17c1.32-3.88,2.67-7.89,3.52-12.04c0.85-4.17,1.43-8.64,1.78-13.69l0.06-0.8 C459.81,114.91,460.11,110.51,459.79,106.12z M255.23,316.49l3.38-0.03c2.67-0.02,5.35-0.17,7.94-0.3c2.12-0.11,4.31-0.23,6.44-0.28 c2.22-0.05,4.53,0.03,6.75,0.1c2.49,0.08,5.07,0.16,7.64,0.08c3.79-0.12,7.6-0.42,11.29-0.72c1.46-0.12,2.92-0.23,4.38-0.34 l2.56-0.18c4.29-0.3,8.72-0.62,13.09-1.12c3.17-0.37,6.31-1,9.34-1.61c2.01-0.41,4.09-0.83,6.13-1.16 c5.76-0.93,10.59-1.76,15.44-2.78c1.94-0.41,3.94-0.76,5.88-1.1c3.13-0.55,6.37-1.12,9.54-1.95c4.88-1.29,9.26-3.24,13.49-5.13 l0.92-0.41c3.91-1.74,8.99-4.12,13.64-7.21c3.85-2.55,8.32-5.65,12.31-9.36c3.09-2.87,5.6-6.13,8.03-9.27 c0.65-0.84,1.29-1.67,1.94-2.49c0.59-0.75,1.18-1.49,1.78-2.22c2.59-3.22,5.26-6.54,7.37-10.14c2.46-4.19,4.78-8.82,6.88-13.75 c0.54-1.27-0.05-2.74-1.32-3.28c-1.27-0.54-2.74,0.05-3.28,1.32c-2.02,4.74-4.24,9.17-6.59,13.18c-1.93,3.28-4.37,6.32-6.96,9.54 c-0.6,0.75-1.2,1.5-1.8,2.25c-0.66,0.84-1.32,1.69-1.98,2.54c-2.3,2.99-4.69,6.07-7.47,8.66c-3.72,3.46-7.99,6.42-11.67,8.86 c-3.39,2.25-7.37,4.35-12.91,6.81l-0.92,0.41c-4.05,1.81-8.25,3.67-12.73,4.86c-2.97,0.78-6.1,1.33-9.13,1.86 c-1.98,0.35-4.03,0.71-6.05,1.13c-4.76,1-9.52,1.82-15.21,2.74c-2.13,0.34-4.26,0.77-6.32,1.19c-2.93,0.59-5.96,1.2-8.92,1.55 c-4.25,0.49-8.63,0.8-12.87,1.1l-2.57,0.18c-1.47,0.11-2.94,0.22-4.41,0.34c-3.63,0.29-7.38,0.59-11.05,0.71 c-2.4,0.08-4.9,0-7.32-0.08c-2.29-0.07-4.66-0.15-7.03-0.1c-2.21,0.05-4.45,0.17-6.6,0.28c-2.54,0.14-5.16,0.28-7.71,0.3l-3.39,0.03 c-3.58,0.04-7.29,0.07-10.92,0.03c-3.03-0.03-6.13-0.16-9.12-0.28c-1.73-0.07-3.45-0.14-5.17-0.2c-3.39-0.11-6.85-0.32-10.19-0.52 c-1.36-0.08-2.72-0.17-4.08-0.24c-1.82-0.1-3.64-0.17-5.47-0.25c-2.9-0.11-5.89-0.23-8.8-0.48c-1.28-0.11-2.55-0.21-3.83-0.32 c-3.42-0.28-6.96-0.56-10.39-0.98c-4.49-0.54-8.89-1.2-14.13-2.03c-2.88-0.46-5.82-1.13-8.65-1.77c-1.76-0.4-3.53-0.8-5.3-1.16 c-2.02-0.41-4.06-0.72-6.03-1.02c-2.79-0.42-5.42-0.83-8.01-1.48c-2.81-0.71-5.67-1.67-8.42-2.6c-1.68-0.57-3.42-1.16-5.16-1.69 c-1.11-0.34-2.22-0.67-3.33-1.01c-3.39-1.02-6.89-2.07-10.23-3.3c-3.97-1.46-8.16-3.17-13.17-5.36c-4.52-1.97-8.91-4.59-13.16-7.12 l-0.19-0.11c-3.99-2.37-8.51-5.06-12.1-8.62c-2.89-2.86-5.32-6.61-7.86-12.16c-2.2-4.8-3.17-9.27-2.94-13.65 c0.21-4.01,1.19-8.23,3.11-13.27c0.35-0.93,0.69-1.86,1.04-2.79c1.2-3.25,2.32-6.32,3.83-9.22c2.15-4.16,4.71-8.13,6.7-11.12 c1.58-2.37,3.46-4.51,5.46-6.77c0.94-1.07,1.89-2.14,2.8-3.23l1.39-1.69c2.36-2.87,4.59-5.58,7.14-8.06 c0.81-0.79,1.61-1.59,2.4-2.39c2.35-2.36,4.57-4.58,7.04-6.54c1.08-0.86,1.26-2.43,0.4-3.51s-2.43-1.26-3.51-0.4 c-2.69,2.14-5.12,4.58-7.47,6.93c-0.78,0.79-1.57,1.57-2.36,2.34c-2.73,2.67-5.16,5.61-7.5,8.46l-1.38,1.67 c-0.88,1.06-1.79,2.09-2.7,3.12c-2.02,2.29-4.11,4.66-5.87,7.31c-2.06,3.1-4.72,7.21-6.98,11.59c-1.65,3.19-2.88,6.55-4.08,9.8 c-0.34,0.92-0.67,1.83-1.02,2.74c-2.1,5.54-3.19,10.25-3.43,14.79c-0.27,5.21,0.84,10.44,3.39,15.99c1.89,4.12,4.6,9.38,8.89,13.62 c4.03,3.99,8.83,6.85,13.06,9.37l0.19,0.11c4.38,2.61,8.92,5.31,13.72,7.41c5.11,2.23,9.38,3.97,13.45,5.47 c3.48,1.28,7.06,2.36,10.52,3.4c1.1,0.33,2.2,0.66,3.3,1c1.67,0.51,3.38,1.09,5.03,1.65c2.85,0.96,5.79,1.96,8.8,2.71 c2.82,0.71,5.7,1.15,8.48,1.57c1.92,0.29,3.9,0.59,5.79,0.98c1.73,0.35,3.46,0.74,5.18,1.13c2.92,0.66,5.93,1.35,8.98,1.83 c4.58,0.73,9.48,1.48,14.31,2.06c3.53,0.42,7.11,0.71,10.58,0.99c1.27,0.1,2.54,0.21,3.81,0.32c3.02,0.26,6.08,0.38,9.03,0.5 c1.79,0.07,3.59,0.14,5.38,0.24c1.35,0.08,2.7,0.16,4.06,0.24c3.38,0.21,6.88,0.42,10.34,0.53c1.71,0.05,3.42,0.12,5.13,0.19 c3.03,0.13,6.17,0.25,9.28,0.28c1.1,0.01,2.2,0.02,3.3,0.02C250.1,316.54,252.69,316.51,255.23,316.49z M159.17,253 c0.67-1.21,0.22-2.73-0.99-3.39c-3.46-1.9-6.77-5.18-9.33-9.23c-2.34-3.71-3.27-7.86-2.67-12c0.48-3.33,1.81-6.43,3.96-9.22 c1.88-2.44,4.36-4.82,7.81-7.49c3.38-2.62,7.21-5.58,11.27-7.82c4.57-2.53,8.64-4.48,12.45-5.99c2.96-1.17,6.05-1.96,9.32-2.79 c1.33-0.34,2.67-0.68,3.99-1.05c3.9-1.08,7.89-1.87,12.12-2.71l3.59-0.71c4.15-0.83,8.44-1.69,12.73-2.25 c4.6-0.59,9.17-0.87,14.02-1.16l0.44-0.03c1.91-0.12,3.82-0.31,5.67-0.5c3.05-0.31,5.94-0.62,8.83-0.58 c3.05,0.02,6.07,0.34,9.26,0.68c1.71,0.18,3.47,0.37,5.23,0.5c4.37,0.34,9.08,0.89,14.39,1.71c1.67,0.25,3.36,0.46,4.99,0.67 c3.26,0.41,6.34,0.79,9.35,1.5c3.02,0.72,6.04,1.84,8.96,2.94c1.55,0.58,3.15,1.18,4.75,1.72c0.92,0.31,1.84,0.61,2.75,0.91 c3.79,1.25,7.37,2.43,10.8,3.99c4.77,2.17,9.26,4.81,12.65,6.86c4.16,2.52,7.13,5.17,9.09,8.11c1.92,2.88,3.05,6.62,3.46,11.43 c0.3,3.59,0.27,7.73-2.19,11.18c-0.8,1.12-0.54,2.68,0.58,3.49c1.12,0.8,2.68,0.54,3.49-0.58c3.42-4.79,3.45-10.26,3.1-14.5 c-0.47-5.67-1.87-10.19-4.28-13.79c-2.38-3.56-5.86-6.71-10.66-9.61c-3.5-2.12-8.16-4.85-13.17-7.13 c-3.68-1.68-7.56-2.96-11.31-4.19c-0.91-0.3-1.82-0.6-2.72-0.9c-1.53-0.51-3.09-1.1-4.6-1.66c-3.06-1.14-6.23-2.33-9.55-3.12 c-3.28-0.78-6.64-1.2-9.89-1.6c-1.6-0.2-3.25-0.4-4.85-0.65c-5.43-0.83-10.26-1.4-14.76-1.75c-1.68-0.13-3.41-0.31-5.08-0.49 c-3.17-0.34-6.46-0.69-9.76-0.71c-3.17-0.03-6.33,0.3-9.38,0.61c-1.8,0.18-3.66,0.37-5.47,0.48l-0.45,0.03 c-4.72,0.29-9.59,0.58-14.35,1.2c-4.47,0.57-8.85,1.45-13.08,2.3l-3.57,0.71c-4.13,0.81-8.4,1.66-12.49,2.79 c-1.29,0.36-2.59,0.69-3.89,1.02c-3.28,0.84-6.67,1.7-9.92,2.99c-4.01,1.58-8.27,3.63-13.03,6.26c-4.39,2.43-8.39,5.52-11.91,8.24 c-3.8,2.94-6.57,5.61-8.71,8.39c-2.68,3.48-4.34,7.37-4.94,11.55c-0.77,5.33,0.4,10.65,3.39,15.38c3,4.76,6.96,8.64,11.15,10.94 c0.38,0.21,0.79,0.31,1.2,0.31C157.86,254.3,158.71,253.83,159.17,253z M290.76,88.46c0.92-6.22,3.68-11.93,8-16.52 c4.07-4.32,9.46-7.75,16.03-10.19c4.51-1.68,9.51-2.79,15.29-3.4l0.65-0.07c5.03-0.54,10.23-1.09,15.12-0.41 c4.9,0.68,9.75,2.66,14.44,4.57l0.56,0.23c1.28,0.52,2.74-0.09,3.26-1.37c0.52-1.28-0.09-2.74-1.37-3.26l-0.56-0.23 c-4.98-2.03-10.12-4.13-15.65-4.9c-5.5-0.76-11.01-0.17-16.33,0.39l-0.65,0.07c-6.21,0.66-11.61,1.86-16.51,3.69 c-7.29,2.71-13.32,6.56-17.93,11.45c-5.02,5.34-8.24,11.98-9.31,19.22c-0.2,1.37,0.74,2.64,2.11,2.84c0.12,0.02,0.25,0.03,0.37,0.03 C289.51,90.6,290.58,89.71,290.76,88.46z M385.99,75.59c0.79-1.13,0.52-2.69-0.61-3.48c-1.7-1.2-3.41-2.48-5.06-3.71 c-1.68-1.26-3.42-2.56-5.18-3.8c-1.13-0.79-2.69-0.52-3.48,0.61c-0.79,1.13-0.52,2.69,0.61,3.48c1.7,1.2,3.41,2.48,5.06,3.71 c1.68,1.26,3.42,2.56,5.18,3.8c0.44,0.31,0.94,0.46,1.44,0.46C384.72,76.65,385.5,76.28,385.99,75.59z M436.39,137.22 c1.83-3.58,4.05-8.34,4.96-13.51c0.72-4.05,0.83-8.6,0.35-14.32c-0.37-4.39-1.33-8.93-2.95-13.89c-1.56-4.8-3.5-9.16-5.78-12.96 c-2.49-4.15-5.31-7.99-8.38-11.4c-2.55-2.83-5.54-5.14-8.44-7.37c-0.75-0.58-1.5-1.16-2.25-1.75c-3.47-2.75-7.25-5.63-11.39-8.05 l-1.78-1.05c-3.35-1.98-6.81-4.02-10.49-5.61c-1.27-0.55-2.74,0.04-3.29,1.31c-0.55,1.27,0.04,2.74,1.31,3.29 c3.39,1.46,6.71,3.42,9.93,5.32l1.8,1.06c3.87,2.26,7.48,5.02,10.81,7.65c0.76,0.6,1.53,1.2,2.3,1.79c2.84,2.2,5.53,4.27,7.78,6.77 c2.86,3.17,5.48,6.74,7.81,10.62c2.08,3.48,3.87,7.5,5.32,11.94c1.47,4.53,2.39,8.82,2.72,12.77c0.44,5.27,0.35,9.41-0.29,13.03 c-0.8,4.51-2.82,8.84-4.49,12.1c-0.63,1.23-0.14,2.74,1.09,3.36c0.37,0.19,0.75,0.27,1.14,0.27 C435.07,138.59,435.95,138.09,436.39,137.22z M405.41,164.82c3.49-3.15,6.33-7.34,8.69-12.82c2.15-4.98,3.18-10.07,3.07-15.11 c-0.03-1.38-1.22-2.47-2.55-2.44c-1.38,0.03-2.47,1.18-2.44,2.56c0.1,4.32-0.8,8.7-2.66,13.02c-2.07,4.8-4.51,8.43-7.45,11.09 c-1.02,0.93-1.11,2.51-0.18,3.53c0.49,0.55,1.17,0.82,1.86,0.82C404.33,165.46,404.93,165.25,405.41,164.82z M259.01,126 c1.22-0.64,1.7-2.15,1.06-3.37c-1.51-2.9-2.54-6.36-2.98-10.01c-0.26-2.14,0.01-4.42,0.29-6.82c0.15-1.31,0.31-2.67,0.38-4.03 c0.2-3.8,0.56-8.23,1.73-12.31c1.07-3.71,2.28-7.9,5.06-10.61c0.99-0.96,1.01-2.55,0.05-3.54c-0.96-0.99-2.55-1.01-3.54-0.05 c-3.73,3.63-5.2,8.72-6.37,12.81c-1.31,4.56-1.71,9.35-1.92,13.43c-0.06,1.2-0.2,2.42-0.35,3.72c-0.3,2.59-0.61,5.26-0.29,7.99 c0.51,4.24,1.72,8.3,3.51,11.73c0.45,0.85,1.32,1.34,2.22,1.34C258.25,126.29,258.64,126.2,259.01,126z M123.75,192.26 c2.57-2.06,5.38-3.76,8.34-5.56c1.01-0.62,2.03-1.23,3.03-1.86c0.71-0.44,1.41-0.89,2.11-1.34c3.23-2.05,6.28-3.99,9.57-5.58 c3.69-1.79,7.51-3.14,11.55-4.58l1.1-0.39c3.86-1.38,8-2.58,13.03-3.78c1.68-0.4,3.35-0.89,4.96-1.36c2.84-0.83,5.53-1.62,8.27-1.97 c4.66-0.59,9.24-0.93,13.62-1c2.76-0.05,5.53,0.37,8.46,0.81c1.66,0.25,3.37,0.5,5.09,0.67c1.38,0.13,2.6-0.87,2.73-2.25 c0.13-1.37-0.87-2.6-2.25-2.73c-1.59-0.15-3.17-0.39-4.84-0.64c-3-0.45-6.11-0.89-9.28-0.86c-4.56,0.08-9.33,0.43-14.17,1.04 c-3.13,0.4-6.14,1.28-9.04,2.13c-1.62,0.47-3.16,0.92-4.72,1.3c-5.21,1.25-9.51,2.5-13.55,3.93l-1.1,0.39 c-3.99,1.42-8.11,2.88-12.05,4.79c-3.55,1.72-6.87,3.83-10.08,5.87c-0.7,0.44-1.39,0.89-2.09,1.32c-0.98,0.62-1.98,1.22-2.97,1.83 c-2.97,1.8-6.04,3.67-8.87,5.93c-1.08,0.86-1.25,2.43-0.39,3.51c0.49,0.62,1.22,0.94,1.95,0.94 C122.74,192.81,123.29,192.63,123.75,192.26z M240.14,164.14c0-1.38-1.12-2.5-2.5-2.5c-1.79,0-3.63-0.06-5.41-0.11 c-1.82-0.06-3.7-0.11-5.56-0.11c-1.38,0-2.5,1.12-2.5,2.5s1.12,2.5,2.5,2.5c1.79,0,3.63,0.06,5.41,0.11 c1.82,0.06,3.7,0.11,5.56,0.11C239.02,166.64,240.14,165.52,240.14,164.14z M399.58,213.95c1.33-0.38,2.1-1.76,1.72-3.09 c-1.19-4.16-3.4-8.12-6.57-11.76c-3.07-3.54-6.54-6.52-10.02-8.63c-4-2.42-8.37-4.17-11.74-5.43c-2.45-0.91-4.96-1.54-7.4-2.14 c-1.64-0.41-3.19-0.79-4.72-1.26c-2.47-0.75-4.97-1.67-7.39-2.56c-2.49-0.91-5.06-1.86-7.66-2.65c-2.53-0.77-5.05-1.57-7.57-2.37 c-2.54-0.8-5.08-1.61-7.63-2.38c-1.32-0.4-2.72,0.34-3.12,1.66s0.34,2.72,1.66,3.12c2.53,0.77,5.05,1.57,7.57,2.37 c2.54,0.8,5.08,1.61,7.63,2.38c2.47,0.75,4.97,1.67,7.39,2.56c2.49,0.91,5.06,1.86,7.66,2.65c1.66,0.5,3.34,0.92,4.97,1.33 c2.41,0.6,4.68,1.16,6.86,1.97c3.16,1.18,7.26,2.82,10.9,5.03c3.05,1.84,6.1,4.48,8.84,7.63c2.65,3.04,4.56,6.45,5.53,9.86 c0.31,1.1,1.31,1.81,2.4,1.81C399.12,214.04,399.35,214.01,399.58,213.95z M347.91,290.12c4.94-0.9,9.95-2.22,14.79-3.49l0.81-0.21 c5.43-1.43,10.58-3.37,15.28-5.75c4.5-2.29,9.64-5.23,13.63-9.72c2.94-3.31,4.74-7.22,6.47-11.01l0.19-0.41 c1.58-3.45,3.36-7.58,4.54-12.08c0.67-2.57,1.02-5.17,1.35-7.69c0.22-1.67,0.43-3.25,0.73-4.8c0.26-1.36-0.63-2.67-1.99-2.92 c-1.36-0.26-2.67,0.63-2.92,1.99c-0.32,1.69-0.55,3.42-0.77,5.08c-0.33,2.48-0.64,4.82-1.23,7.08c-1.08,4.13-2.75,8.01-4.24,11.26 l-0.19,0.42c-1.66,3.61-3.22,7.02-5.67,9.78c-3.43,3.87-8.07,6.51-12.15,8.58c-4.39,2.23-9.2,4.04-14.29,5.38l-0.81,0.21 c-4.75,1.25-9.67,2.54-14.42,3.41c-1.36,0.25-2.26,1.55-2.01,2.91c0.22,1.21,1.27,2.05,2.46,2.05 C347.61,290.16,347.76,290.14,347.91,290.12z M214.28,277.8c0.13-1.38-0.88-2.59-2.26-2.72c-2.52-0.24-5.06-0.3-7.51-0.36 c-2.19-0.06-4.45-0.11-6.63-0.29c-2.18-0.18-4.42-0.52-6.59-0.84c-2.42-0.36-4.93-0.73-7.45-0.92c-2.52-0.18-5.05-0.18-7.5-0.16 c-2.3,0.01-4.47,0.02-6.65-0.12c-3.91-0.25-9.02-0.64-13.92-1.54c-4.52-0.83-8.72-2.39-12.47-4.65c-4.04-2.43-7.43-6.06-9.54-10.21 c-2.18-4.3-2.85-8.95-1.92-13.44c0.28-1.35-0.59-2.67-1.94-2.95s-2.67,0.59-2.95,1.94c-1.16,5.61-0.35,11.39,2.35,16.72 c2.53,4.98,6.58,9.33,11.42,12.24c4.28,2.57,9.04,4.35,14.15,5.28c5.16,0.94,10.47,1.36,14.51,1.61c2.35,0.15,4.71,0.14,6.99,0.13 c2.46-0.01,4.79-0.02,7.12,0.15c2.34,0.17,4.64,0.51,7.08,0.88c2.25,0.33,4.58,0.68,6.92,0.88c2.32,0.19,4.66,0.25,6.91,0.31 c2.37,0.06,4.82,0.12,7.17,0.34c0.08,0.01,0.16,0.01,0.24,0.01C213.07,280.07,214.16,279.1,214.28,277.8z M241.93,281.9 c1.82-0.04,3.63-0.04,5.45-0.05c3.56-0.01,7.23-0.02,10.88-0.26c1.38-0.09,2.42-1.28,2.33-2.66s-1.28-2.41-2.66-2.33 c-3.49,0.23-7.09,0.24-10.57,0.25c-1.84,0.01-3.69,0.01-5.53,0.05c-4.77,0.09-9.65-0.04-14.36-0.17l-1.72-0.05 c-1.37-0.06-2.53,1.05-2.57,2.43c-0.04,1.38,1.05,2.53,2.43,2.57l1.72,0.05c3.67,0.1,7.44,0.21,11.2,0.21 C239.67,281.93,240.8,281.92,241.93,281.9z"/></g></svg>