<?xml version="1.0" encoding="UTF-8"?><svg xmlns="http://www.w3.org/2000/svg" xmlns:xlink="http://www.w3.org/1999/xlink" contentScriptType="text/ecmascript" fill="#000000" width="223.2" zoomAndPan="magnify" contentStyleType="text/css" viewBox="-2.9 -1.0 223.2 465.5" height="465.5" preserveAspectRatio="xMidYMid meet" version="1"><g id="change1_1"><path fill="#f4c799" d="M212.19,295.8c3.9,30.94,4.15,62.27,1.48,93.33c-2.06,23.95-1.79,50.53-25.57,63.55 c-12.01,6.58-26.05,8.35-39.74,8.86c-35.91,1.34-71.65,3.02-106.56-7.69c-8.51-2.61-16.95-6.13-23.55-12.11 c-9.16-8.29-10.6-19.67-12.15-31.25c-6.09-45.76-8.96-92.08-2.23-137.94c5.72-38.99,69.27-55.18,103.55-51.9 c23.62,2.58,46.55,11.5,66.54,23.55c15.24,9.19,26.28,18.46,32.64,31.76C209.36,281.71,211.24,288.22,212.19,295.8z"/></g><g id="change2_1"><path fill="#87bfa8" d="M115.07,195.16c-0.19-9.09-0.9-17.98-1.82-26.32c-2.45-22.09-6.94-44.03-10.28-66.02 c-2.77-18.18-4.75-36.39-4.15-54.75c0.53-15.95,2.97-32.22-1.03-47.67c-3.39-1.36-7.06,0.96-9.84,3.33 C66.1,22.35,54.16,49.77,42.93,76.2C27.1,113.46,10.94,153.78,19.7,193.3c3.85,17.38,12.39,33.25,22.78,47.57 c0.38,0.53,0.79,1.08,1.21,1.65c0.95,1.28,1.98,2.66,3.09,4.09c10.67,13.77,28.38,32.91,43.21,27.51 c4.23-1.54,8.23-5.08,11.76-11.31c4.33-7.66,7.4-16.11,9.49-24.98c0.16-0.67,0.32-1.35,0.46-2.03c0.22-0.96,0.42-1.93,0.61-2.9 C114.69,220.62,115.37,207.71,115.07,195.16z"/></g><g id="change3_1"><path fill="#eb8b8f" d="M218.71,31.07c-0.23-0.81-0.6-1.7-1.39-2.02c-0.91-0.37-1.93,0.18-2.74,0.73 c-18.86,12.73-27.69,35.2-38.57,55.03c-11.82,21.56-27.18,41.38-39.92,62.38c-7.2,11.89-13.57,24.16-17.97,37.34 c-1.17,3.5-2.19,7.05-3.05,10.63c-2.97,12.32-4.15,25.05-3.54,37.68c0.04,0.98,0.1,1.97,0.17,2.96c0.05,0.69,0.1,1.39,0.17,2.09 c1.14,13.42,4.31,26.66,9.47,39.11c0.56,0.34,1.14,0.7,1.74,1.04c3.44,1.96,7.48,3.57,10.56,1.42 c10.83-7.55,19.43-17.29,26.65-28.19c0.94-1.39,1.84-2.81,2.71-4.24c8.56-13.88,15.16-29.33,21.42-44.36 c16.38-39.3,33-79.7,34.13-122.1c0.28-10.49-0.4-21.01,0.42-31.48C219.44,43.06,220.39,36.87,218.71,31.07z"/></g><g id="change4_1"><path fill="#f59921" d="M142.39,202.02c-0.02-0.75-0.04-1.5-0.07-2.25c-0.02-0.59-0.05-1.19-0.08-1.78 c-0.05-1.07-0.11-2.15-0.17-3.22c-1.75-29.22-8.74-57.94-11.25-87.12c-0.8-9.33-1.29-19.15-6.25-27.09 c-10.12,4.37-17.44,13.59-22.23,23.52c-4.8,9.93-7.45,20.73-10.93,31.19c-0.02,0.05-0.04,0.11-0.05,0.16 c-0.57,1.7-1.16,3.38-1.76,5.07c-4.09,11.41-8.87,22.59-12.07,34.27c-0.51,1.86-0.98,3.73-1.4,5.61c-0.39,1.68-0.73,3.36-1.05,5.06 c-2.29,12.36-2.8,25.04-1.57,37.56c0.16,1.66,0.35,3.32,0.58,4.97c1.87,13.89,5.89,27.48,12,40.09c3.03,6.25,7.36,10.49,13.98,12.92 c4.65,1.7,10.62,3.98,15.6,2.64c0.78-0.22,1.53-0.52,2.24-0.9c2.86-1.52,5.09-4.23,6.76-7.07c4.93-8.34,9.1-16.99,11.96-26.23 c0.29-0.93,0.57-1.87,0.83-2.82c0.19-0.68,0.37-1.37,0.54-2.05C141.58,230.7,142.75,216.28,142.39,202.02z"/></g><g id="change5_1"><path fill="#231f20" d="M189.76,282.82l-0.84,0.56c-2.29,1.52-5.13,3.42-8.96,4.59c-1.97,0.6-4.07,0.87-6.28,1.15 c-1.39,0.18-2.82,0.36-4.26,0.64c-0.85,0.16-1.72,0.34-2.61,0.52c-2.45,0.5-4.98,1.02-7.74,1.37c-1.25,0.16-2.53,0.38-3.89,0.61 c-2.08,0.35-4.23,0.72-6.5,0.91c-1.91,0.16-3.87,0.13-5.76,0.1c-1.55-0.03-3.15-0.06-4.72,0.03c-2.31,0.12-4.6,0.16-7.02,0.2 c-1.13,0.02-2.27,0.04-3.42,0.07c-1.46,0.04-2.95,0.18-4.53,0.34c-1.9,0.18-3.87,0.37-5.9,0.38h-0.14c-1.9,0-3.83-0.1-5.7-0.2 c-1.5-0.08-3.07-0.16-4.6-0.19c-2.17-0.06-4.26-0.28-6.29-0.48c-1.57-0.17-3.05-0.32-4.53-0.4c-1.58-0.09-3.2-0.1-4.76-0.12 c-1.99-0.01-4.05-0.02-6.07-0.2c-2.22-0.19-4.35-0.55-6.42-0.9c-1.5-0.25-2.91-0.49-4.32-0.66c-1.55-0.19-3.14-0.29-4.68-0.39 c-2.02-0.13-4.11-0.27-6.14-0.6c-3.29-0.54-6.79-1.22-10.7-2.08c-3.72-0.82-7.29-1.74-10.6-2.74c-4.09-1.24-7.68-2.89-10.31-4.09 c-3.7-1.69-6.9-3.83-9.51-6.37c-1.57-1.53-6.37-6.18-4.44-12.09c1.02-3,3.35-6.12,7.14-9.58c1.92-1.74,4.26-3.05,6.75-4.43 c0.86-0.48,1.74-0.97,2.62-1.49c2.55-1.51,5.6-3.23,9.06-4.76c0.95,1.28,1.98,2.66,3.09,4.09c-0.18,0.09-0.37,0.17-0.55,0.25 c-3.44,1.48-6.51,3.22-9.06,4.72c-0.92,0.55-1.84,1.06-2.73,1.56c-2.22,1.24-4.32,2.4-5.81,3.76c-3.11,2.83-5.05,5.34-5.77,7.46 c-0.44,1.34-0.48,3.37,3.19,6.93c2.2,2.13,4.92,3.95,8.11,5.41c3.23,1.48,6.19,2.79,9.67,3.84c3.19,0.97,6.63,1.86,10.23,2.65 c3.81,0.84,7.22,1.5,10.43,2.02c1.79,0.3,3.66,0.42,5.65,0.55c1.61,0.1,3.27,0.21,4.97,0.42c1.52,0.18,3.05,0.44,4.54,0.69 c1.97,0.33,4,0.67,6.02,0.85c1.83,0.16,3.69,0.17,5.67,0.18c1.63,0.02,3.31,0.03,5.01,0.12c1.6,0.1,3.21,0.26,4.77,0.42 c1.93,0.2,3.93,0.41,5.89,0.47c1.59,0.02,3.19,0.11,4.74,0.19c1.93,0.1,3.74,0.18,5.57,0.19c1.79-0.01,3.64-0.19,5.43-0.36 c1.59-0.16,3.24-0.32,4.88-0.36c1.16-0.03,2.32-0.05,3.46-0.07c2.38-0.04,4.63-0.08,6.85-0.2c1.74-0.09,3.43-0.06,5.07-0.03 c1.84,0.03,3.59,0.06,5.25-0.08c2.06-0.18,4.11-0.52,6.08-0.86c1.35-0.23,2.74-0.47,4.1-0.64c2.57-0.33,5.01-0.83,7.37-1.31 c0.91-0.18,1.8-0.36,2.68-0.53c1.58-0.31,3.09-0.5,4.55-0.69c2-0.25,3.89-0.49,5.45-0.97c3.13-0.96,5.53-2.56,7.65-3.97l0.88-0.58 c3.56-2.34,3.42-3.8,2.92-5.22c-0.74-2.02-2.08-5.02-5.13-7.77c-2.25-2.03-5.24-4.02-8.36-6.05c-1.58-1.03-3.45-1.9-5.44-2.83 c-1.26-0.58-2.56-1.19-3.88-1.88c-0.87-0.45-1.76-0.93-2.65-1.42c-1.37-0.74-2.76-1.49-4.19-2.2c0.94-1.39,1.84-2.81,2.71-4.24 c1.33,0.67,2.61,1.37,3.86,2.05c0.87,0.47,1.73,0.93,2.59,1.38c1.21,0.64,2.46,1.22,3.67,1.78c2.15,1,4.18,1.95,6.06,3.17 c3.29,2.14,6.46,4.25,8.98,6.53c2.92,2.63,5.04,5.83,6.48,9.78l0.02,0.03C196.9,278.14,191.53,281.66,189.76,282.82z M71.94,223.18 c-5.07,0.68-8.7,2.34-11.1,5.1c-0.21,0.25-0.43,0.52-0.65,0.79c-0.44,0.53-1.24,1.49-1.66,1.72c-0.2-0.17-0.52-0.61-0.75-0.92 c-0.29-0.39-0.61-0.83-1.01-1.25c-3.21-3.44-8.2-2.77-11.88-2.28c-2.64,0.35-5.71,0.13-6.44-1.54c-0.55-1.26-2.02-1.83-3.29-1.28 c-1.26,0.55-1.84,2.03-1.29,3.29c1.59,3.62,5.84,5.26,11.7,4.48c2.86-0.38,6.1-0.81,7.55,0.74c0.19,0.2,0.41,0.49,0.63,0.8 c0.73,0.99,1.73,2.35,3.54,2.83c0.43,0.11,0.84,0.16,1.24,0.16c2.58,0,4.38-2.2,5.52-3.58c0.19-0.23,0.38-0.46,0.57-0.68 c1.56-1.8,4.17-2.92,7.98-3.42c0.49-0.07,0.99-0.12,1.49-0.17c-0.23-1.65-0.42-3.31-0.58-4.97 C72.99,223.05,72.47,223.11,71.94,223.18z M55.82,183.21c-4.04-2.14-7.73-2.96-11.25-2.5c-1.16,0.15-2.26,0.43-3.32,0.7 c-1.89,0.49-3.52,0.91-4.85,0.46c-0.66-0.22-1.37-0.72-2.12-1.25c-1.02-0.73-2.18-1.55-3.65-1.99c-2.34-0.7-4.56-0.2-6.52,0.24 c-0.82,0.18-1.59,0.36-2.32,0.43c-1.34,0.14-2.68-0.66-2.77-1.01c0,0,0-0.01,0-0.03c0.3-1.35-0.55-2.68-1.9-2.98 c-1.35-0.3-2.68,0.55-2.98,1.9c-0.36,1.65,0.08,3.28,1.25,4.59c1.57,1.76,4.36,2.77,6.92,2.5c1.02-0.1,1.97-0.32,2.9-0.53 c1.56-0.35,2.9-0.65,3.98-0.32c0.69,0.2,1.43,0.73,2.21,1.28c0.96,0.68,2.04,1.45,3.39,1.9c2.74,0.93,5.38,0.25,7.71-0.34 c0.96-0.25,1.86-0.48,2.71-0.6c2.51-0.32,5.13,0.3,8.27,1.97c2.05,1.08,4.33,1.63,6.62,1.63c2.34,0,4.68-0.57,6.76-1.7 c2.19-1.19,4.94-1.9,8.22-2.12c0.32-1.7,0.66-3.38,1.05-5.06c-4.62,0.14-8.53,1.08-11.66,2.79 C61.81,184.61,58.5,184.63,55.82,183.21z M99.38,90.66c-6.48-2.13-13.91-4.09-20.06-0.23c-0.36,0.22-0.72,0.47-1.08,0.72 c-0.72,0.51-1.41,0.99-1.95,1.06c-0.9,0.12-1.86-0.76-3.34-2.24c-1.31-1.3-2.79-2.78-4.79-3.53c-1.68-0.63-3.39-0.6-4.77-0.58 l-13.78,0.22c-1.58,0.03-3.37,0.06-4.6-0.59c-0.76-0.4-1.26-1.31-1.09-1.7c0.56-1.26-0.01-2.74-1.27-3.3 c-1.27-0.56-2.74,0.02-3.3,1.28c-1.42,3.2,0.62,6.72,3.33,8.15c2.36,1.24,4.94,1.2,7.01,1.16l13.78-0.22 c1.05-0.02,2.15-0.04,2.93,0.26c0.99,0.37,1.97,1.35,3.02,2.39c1.67,1.67,3.72,3.72,6.66,3.72c0.28,0,0.58-0.02,0.88-0.06 c1.74-0.24,3.08-1.17,4.15-1.93c0.29-0.2,0.57-0.4,0.86-0.58c4.31-2.7,10.44-1.03,15.84,0.75c1.32,0.44,2.73-0.28,3.16-1.59 C101.4,92.51,100.69,91.1,99.38,90.66z M78.65,130.36c-0.87,0.24-1.63,0.61-2.29,0.93c-0.58,0.27-1.13,0.54-1.6,0.64 c-1.04,0.24-2.37-0.13-3.78-0.52c-0.56-0.15-1.12-0.31-1.68-0.43c-6.1-1.39-12.89,0.59-17.29,5.04l-0.1,0.1 c-0.17,0.17-0.41,0.41-0.61,0.58c-0.05-0.05-0.12-0.11-0.2-0.18c-0.77-0.72-1.49-1.53-2.26-2.39c-1.03-1.15-2.1-2.35-3.38-3.42 c-3.09-2.57-6.62-3.5-9.68-2.54c-0.33,0.1-0.65,0.23-0.97,0.35c-0.31,0.13-0.64,0.26-0.82,0.28c-0.4,0.06-1.1-0.51-1.39-1.29 c-0.44-1.18-0.29-2.73-0.14-4.23c0.13-1.37-0.87-2.59-2.25-2.73c-1.37-0.13-2.59,0.88-2.73,2.25c-0.18,1.86-0.4,4.18,0.43,6.44 c0.94,2.56,3.55,4.93,6.72,4.52c0.81-0.1,1.49-0.37,2.03-0.59c0.2-0.08,0.4-0.16,0.61-0.23c1.64-0.51,3.65,0.5,4.99,1.62 c1,0.83,1.9,1.84,2.85,2.9c0.81,0.91,1.64,1.84,2.58,2.71c0.77,0.73,1.85,1.57,3.35,1.66c2.12,0.14,3.57-1.33,4.43-2.2l0.09-0.1 c3.22-3.25,8.18-4.69,12.63-3.68c0.49,0.11,0.97,0.25,1.46,0.38c1.85,0.51,3.95,1.1,6.23,0.58c1.01-0.23,1.88-0.65,2.64-1.01 c0.53-0.26,1.03-0.5,1.46-0.62c2.54-0.7,5.34,1.56,8.47,4.35c0.38,0.34,0.77,0.67,1.15,0.97c0.6-1.69,1.19-3.37,1.76-5.07 C88.28,132.68,83.78,128.94,78.65,130.36z M60.25,45.87c0.62-0.28,1.68-0.11,2.92,0.47c0.44,0.21,0.88,0.45,1.32,0.68 c1.13,0.61,2.42,1.31,3.92,1.66c3.03,0.72,5.91-0.15,8.45-0.92c1.19-0.36,2.31-0.7,3.4-0.87c4.58-0.74,9.28,1.36,14.49,3.97 c0.36,0.17,0.74,0.26,1.12,0.26c0.92,0,1.8-0.51,2.24-1.38c0.61-1.24,0.11-2.74-1.12-3.36c-4.63-2.31-10.97-5.48-17.52-4.43 c-1.42,0.23-2.76,0.63-4.06,1.03c-2.12,0.64-4.12,1.24-5.85,0.83c-0.86-0.2-1.76-0.68-2.71-1.19c-0.51-0.28-1.02-0.55-1.55-0.8 c-2.66-1.26-5.13-1.42-7.16-0.48c-1.25,0.58-1.79,2.06-1.21,3.32C57.52,45.91,59,46.45,60.25,45.87z M203.15,81.72 c1.63-0.59,2.61-1.85,3.4-2.87c0.3-0.38,0.79-1.02,0.92-1.11c0.14,0.01,0.54,0.18,0.81,0.29c0.16,0.07,0.31,0.13,0.46,0.19 c2.7,1.08,5.8,1.1,8.52,0.06c1.29-0.49,1.93-1.94,1.44-3.23c-0.49-1.29-1.94-1.93-3.23-1.44c-1.55,0.59-3.33,0.58-4.88-0.03 l-0.36-0.15c-0.76-0.32-1.79-0.76-3.05-0.68c-2.33,0.15-3.63,1.81-4.57,3.02c-0.38,0.48-0.89,1.14-1.18,1.25 c-0.23,0.08-0.9-0.01-1.3-0.06l-11.05-1.48c-0.3-0.04-0.72-0.1-0.87-0.17c-0.26-0.13-0.64-1.18-0.14-3.62 c0.28-1.35-0.59-2.68-1.94-2.96c-1.36-0.28-2.68,0.59-2.96,1.94c-1.28,6.16,1.26,8.37,2.88,9.15c0.86,0.41,1.73,0.53,2.36,0.61 l11.05,1.48c0.48,0.06,1.04,0.14,1.65,0.14C201.76,82.06,202.45,81.98,203.15,81.72z M198.68,126.88l0.4-0.31 c3.8-2.93,8.31-4.95,13.03-5.83c1.36-0.25,2.25-1.56,2-2.92c-0.25-1.36-1.56-2.25-2.92-2c-5.49,1.03-10.73,3.38-15.16,6.79 l-0.42,0.33c-1.44,1.12-2.93,2.28-4.12,2.12c-0.55-0.08-1.25-0.48-1.93-0.87c-1.78-1.02-3.61-2.07-5.04-3.4 c-0.69-0.65-1.39-1.41-2.12-2.22c-2.45-2.7-5.51-6.07-9.99-5.58c-0.93,0.1-1.75,0.37-2.47,0.6c-0.59,0.19-1.15,0.37-1.58,0.39 c-0.55,0.03-1.14-0.36-1.55-1c-0.41-0.64-0.51-1.35-0.26-1.83c0.65-1.22,0.18-2.73-1.04-3.38c-1.22-0.64-2.73-0.18-3.38,1.04 c-1.09,2.07-0.92,4.7,0.47,6.86c1.39,2.16,3.7,3.43,6.04,3.3c1.08-0.06,2.02-0.36,2.84-0.63c0.54-0.18,1.06-0.34,1.48-0.39 c1.83-0.2,3.39,1.37,5.75,3.97c0.77,0.85,1.57,1.73,2.42,2.52c1.84,1.71,3.93,2.91,5.95,4.07c0.99,0.57,2.22,1.28,3.74,1.48 c0.32,0.04,0.63,0.06,0.94,0.06C194.58,130.07,196.84,128.31,198.68,126.88z M186.44,165.5c1.35-0.04,2.45-0.66,3.18-1.06l9.74-5.43 c1.21-0.67,1.64-2.19,0.97-3.4c-0.67-1.21-2.2-1.64-3.4-0.97l-9.74,5.42c-0.26,0.15-0.75,0.41-0.91,0.43 c-0.3-0.04-1.08-0.8-1.49-1.21l-0.22-0.22c-3.66-3.59-8.7-5.81-13.81-6.1c-2.29-0.13-4.51,0.11-6.66,0.34 c-1.38,0.15-2.68,0.29-3.98,0.34c-2.46,0.09-5.82-0.23-7.83-2.25c-0.27-0.27-0.52-0.57-0.78-0.87c-0.87-1.02-1.94-2.28-3.65-2.88 c-0.59-0.21-1.14-0.29-1.59-0.36c-0.26-0.04-0.51-0.08-0.67-0.13c-0.26-0.08-0.51-0.44-0.61-0.87c-0.1-0.43-0.03-0.86,0.17-1.05 c1.01-0.94,1.06-2.52,0.12-3.53c-0.94-1.01-2.52-1.06-3.53-0.12c-1.51,1.41-2.13,3.64-1.63,5.82c0.5,2.18,2.04,3.92,4.01,4.53 c0.5,0.15,0.96,0.23,1.37,0.29c0.28,0.04,0.55,0.09,0.71,0.14c0.44,0.15,0.96,0.76,1.51,1.41c0.34,0.4,0.68,0.79,1.04,1.16 c2.6,2.61,6.59,3.89,11.55,3.72c1.48-0.05,2.93-0.21,4.34-0.36c2.03-0.22,3.96-0.43,5.83-0.32c3.92,0.22,7.79,1.93,10.6,4.68 l0.21,0.2c1.08,1.06,2.69,2.66,5,2.66C186.33,165.51,186.39,165.5,186.44,165.5z M186.01,200.43c-0.35-1.02-1.18-1.76-2.2-2 c-1.07-0.25-2.17,0.14-2.87,1c-0.28,0.35-0.48,0.76-0.6,1.17l-9.82,2.31c-1.37,0.32-2.79,0.66-4.01,0.54 c-1.88-0.18-3.7-1.41-5.63-2.71c-0.55-0.37-1.1-0.74-1.65-1.09c-5.09-3.23-11.14-4.9-17.16-4.88c0.06,1.07,0.12,2.15,0.17,3.22 c0.03,0.59,0.06,1.19,0.08,1.78c5.01,0.02,10.02,1.42,14.24,4.1c0.51,0.32,1.01,0.67,1.52,1.01c2.25,1.52,4.8,3.25,7.95,3.55 c0.34,0.03,0.68,0.04,1.01,0.04c1.67,0,3.22-0.36,4.62-0.69l11.11-2.61c0.6-0.14,1.85-0.43,2.71-1.52 C186.19,202.75,186.39,201.52,186.01,200.43z M146.29,244.11c-0.35-0.02-0.7-0.07-1.04-0.11c-1.36-0.15-3.51-0.41-5.2,1.08h-0.06 c-0.62,0-1.27-0.19-1.99-0.53c-0.17,0.68-0.35,1.37-0.54,2.05c-0.26,0.95-0.54,1.89-0.83,2.82c1.58,0.62,3.3,0.9,5.22,0.44 l0.86-0.21l0.54-0.75c0.22-0.07,0.94,0.02,1.42,0.07c0.43,0.05,0.88,0.1,1.34,0.13c2.63,0.15,5.18,1.59,6.66,3.77 c0.48,0.71,1.27,1.1,2.07,1.1c0.48,0,0.97-0.14,1.4-0.44c1.15-0.77,1.44-2.33,0.67-3.47C154.47,246.62,150.44,244.34,146.29,244.11z M125.16,120.54c1.38-0.01,2.49-1.14,2.48-2.52c-0.01-1.37-1.13-2.48-2.5-2.48c-0.01,0-0.01,0-0.02,0 c-3.88,0.04-7.82-0.49-11.6-1.54l-0.23-0.06c-1.1-0.31-2.35-0.66-3.78-0.54c-1.36,0.11-2.48,0.62-3.47,1.07 c-0.38,0.17-0.75,0.34-1.13,0.48c-0.46,0.16-0.88,0.16-1.06,0.12c-0.79-1.05-2.28-1.31-3.39-0.57c-1.15,0.77-1.45,2.32-0.68,3.47 c1.53,2.28,4.5,2.5,6.78,1.7c0.56-0.2,1.06-0.42,1.55-0.64c0.68-0.31,1.33-0.6,1.83-0.64c0.53-0.04,1.25,0.16,2.02,0.37l0.24,0.07 c4.11,1.14,8.36,1.72,12.63,1.72C124.93,120.55,125.04,120.55,125.16,120.54z M109.22,163.9c1.28-0.62,2.33-1.48,3.25-2.24 c0.21-0.17,0.43-0.35,0.64-0.52c2.19-1.74,4.32-2.79,6.32-3.12c2.19-0.36,4.36,0.2,5.67,1.47c0.18,0.18,0.36,0.37,0.54,0.56 c0.68,0.74,1.53,1.66,2.84,2.18c1.42,0.56,3.05,0.42,4.46-0.37s2.36-2.12,2.62-3.63c0.23-1.36-0.69-2.67-2.05-2.9 c-1.37-0.23-2.65,0.67-2.87,2.04c-0.04,0.09-0.26,0.21-0.32,0.21c-0.24-0.09-0.64-0.53-0.99-0.91c-0.24-0.27-0.49-0.53-0.74-0.78 c-2.46-2.37-6.18-3.42-9.95-2.8c-2.85,0.47-5.75,1.86-8.62,4.14c-0.23,0.19-0.47,0.38-0.7,0.57c-0.78,0.64-1.52,1.25-2.27,1.61 c-1.32,0.64-3.01,0.61-4.3-0.09c-1-0.54-1.89-1.48-2.84-2.48c-0.77-0.81-1.57-1.65-2.53-2.41c-1.89-1.48-4.4-2.21-6.55-1.9 c-1.65,0.24-3,1.04-3.92,2.33c-0.8,1.13-0.54,2.69,0.59,3.49c1.13,0.8,2.69,0.54,3.49-0.59c0.05-0.07,0.16-0.22,0.56-0.28 c0.8-0.12,1.95,0.26,2.75,0.89c0.68,0.53,1.32,1.21,2,1.92c1.13,1.18,2.4,2.52,4.1,3.44c1.41,0.76,3.01,1.14,4.61,1.14 C106.43,164.86,107.9,164.54,109.22,163.9z M133.75,207.28c2.86-0.65,4.47-2.95,5.76-4.8c0.9-1.29,1.75-2.51,2.72-2.83 c1.31-0.44,2.01-1.86,1.58-3.16c-0.44-1.31-1.85-2.02-3.16-1.58c-2.54,0.85-3.97,2.9-5.23,4.71c-0.96,1.38-1.79,2.57-2.76,2.79 c-0.85,0.19-1.98-0.33-3.28-0.93c-1.29-0.6-2.75-1.28-4.42-1.45c-1.45-0.15-2.78,0.11-3.95,0.35c-0.62,0.12-1.2,0.24-1.73,0.28 c-1.28,0.1-2.66-0.17-4.13-0.46l-8.83-1.75c-1.76-0.35-3.75-0.74-5.83-0.55c-1.51,0.14-2.86,0.56-4.17,0.96 c-0.68,0.21-1.33,0.41-1.96,0.56c-4.13,0.96-8.78-0.32-11.83-3.26c-1-0.96-2.58-0.93-3.54,0.07c-0.96,0.99-0.93,2.58,0.07,3.54 c4.31,4.15,10.61,5.89,16.44,4.53c0.81-0.19,1.57-0.42,2.3-0.65c1.11-0.34,2.15-0.67,3.14-0.76c1.37-0.13,2.91,0.18,4.4,0.48 l8.83,1.75c1.66,0.33,3.54,0.7,5.51,0.54c0.82-0.07,1.57-0.21,2.29-0.36c0.91-0.18,1.77-0.35,2.48-0.28 c0.84,0.08,1.8,0.53,2.83,1.01c1.41,0.65,3.1,1.44,5,1.44C132.75,207.44,133.24,207.39,133.75,207.28z M111.9,249.07l0.38-0.21 c4.75-2.62,9.83-4.58,15.11-5.83l0.95-0.22c1.96-0.45,3.99-0.91,5.93-1.92c2.93-1.51,4.92-4.05,5.34-6.79 c0.21-1.36-0.73-2.64-2.09-2.85c-1.37-0.2-2.64,0.73-2.85,2.1c-0.21,1.37-1.53,2.5-2.69,3.1c-1.39,0.71-3.02,1.09-4.75,1.48 l-0.99,0.23c-5.72,1.35-11.23,3.48-16.38,6.32l-0.39,0.21c-1.75,0.97-3.4,1.88-4.9,1.78c-1.83-0.14-3.39-1.78-5.2-3.67 c-2.08-2.19-4.45-4.67-7.92-5.21c-1.69-0.27-3.29,0.01-4.7,0.25c-1.2,0.21-2.34,0.4-3.24,0.2c-0.75-0.17-1.46-0.78-1.88-1.63 c-0.42-0.85-0.48-1.78-0.16-2.48c0.58-1.25,0.03-2.74-1.22-3.32c-1.26-0.58-2.74-0.03-3.32,1.22c-0.96,2.09-0.89,4.57,0.22,6.8 c1.1,2.23,3.02,3.79,5.27,4.29c1.86,0.42,3.62,0.12,5.17-0.15c1.13-0.19,2.2-0.38,3.08-0.24c1.8,0.28,3.39,1.95,5.08,3.72 c2.2,2.31,4.69,4.92,8.44,5.21c0.22,0.02,0.44,0.02,0.65,0.02C107.55,251.49,109.86,250.21,111.9,249.07z"/></g></svg>