<?xml version="1.0" encoding="UTF-8"?><svg xmlns="http://www.w3.org/2000/svg" xmlns:xlink="http://www.w3.org/1999/xlink" contentScriptType="text/ecmascript" fill="#000000" width="90.5" zoomAndPan="magnify" contentStyleType="text/css" viewBox="-0.3 -0.3 90.5 108.7" height="108.7" preserveAspectRatio="xMidYMid meet" version="1"><g fill="#99b0dc" id="change1_1"><path fill="inherit" d="M18.016,55.894c-1.168,1.764-2.075,1.707-2.866.1a5.046,5.046,0,0,1-.534-1.355,29.491,29.491,0,0,1-.229-9.982c.384-2.134,1.966-2.959,3.847-2.2,1.213.488,1.5.942,1.352,2.237-.354,3.176-.7,6.353-1.095,9.524A9.505,9.505,0,0,1,18.016,55.894Z"/><path fill="inherit" d="M31.876,65.737a13.716,13.716,0,0,1-1.634-.646,2.634,2.634,0,0,1-1.069-.879c-1.292-2.377-2.553-4.773-3.758-7.2a5.582,5.582,0,0,1-.709-3.589c2.38-.8,3.422-.6,4.463,1.533,1.272,2.61,2.175,5.4,3.276,8.1.271.664-.451.575-.494.751A8.922,8.922,0,0,0,31.876,65.737Z"/><path fill="inherit" d="M32.912,49.029l-1.226-.461-.427,1.659a3.045,3.045,0,0,1-1.079-.066c-2.106-1.072-4.19-2.189-6.28-3.293a1.353,1.353,0,0,1-.175-.115c-1.052-.77-1.653-2.078-1.3-2.834a2.945,2.945,0,0,1,2.788-1.027,5.8,5.8,0,0,1,1.587.5A12.951,12.951,0,0,1,32.912,49.029Z"/><path fill="inherit" d="M71.023,26.9a2.862,2.862,0,0,1-1.684,2.656,15.215,15.215,0,0,1-6.213,2.367,2.32,2.32,0,0,1-2.531-1.01,2.954,2.954,0,0,1,.97-2.612,11.457,11.457,0,0,1,6.56-1.882A15.931,15.931,0,0,1,71.023,26.9Z"/><path fill="inherit" d="M51.331,60.944c-.3.87-.556,1.639-.889,2.623-.665-.342-1.129-.59-1.6-.82-1.93-.942-3.871-1.863-5.793-2.821-1.511-.753-2.249-1.743-2.021-2.62.2-.78,1.9-1.391,3.3-1.136a4.581,4.581,0,0,1,1.366.508A19.987,19.987,0,0,1,51.331,60.944Z"/><path fill="inherit" d="M6.759,88.529a9.843,9.843,0,0,1,1.247.333c1.7.71,2.191,1.439,1.843,3.233-.384,1.982-.93,3.936-1.494,5.877a3.022,3.022,0,0,1-.97,1.323,1.1,1.1,0,0,1-1.859-.737c.055-3.184-.47-6.432.831-9.507A3.678,3.678,0,0,1,6.759,88.529Z"/><path fill="inherit" d="M71.889,58.745a4.153,4.153,0,0,1-3.514.529c-1.488-.361-3.019-.546-4.527-.83a7.022,7.022,0,0,1-1.414-.386,2.107,2.107,0,0,1-1.466-2.453c.3-.912,1.1-1.319,2.423-1.088,1.376.239,2.746.54,4.1.9a26.752,26.752,0,0,1,3.154,1.064A1.9,1.9,0,0,1,71.889,58.745Z"/><path fill="inherit" d="M49.146,25.938c-2.052,1.328-4.034,2.72-6.124,3.923a2.066,2.066,0,0,1-2.949-.66c-.546-.894-.3-1.763.61-2.8,1.661-1.9,3.917-2.253,6.217-2.568C48.377,23.633,48.453,24.9,49.146,25.938Z"/><path fill="inherit" d="M20.973,108.432a2.71,2.71,0,0,1-1.4-3,20.662,20.662,0,0,0-.2-3.928,3.278,3.278,0,0,0-.1-.405c-.27-1.342-.019-2.318.736-2.569a2.4,2.4,0,0,1,2.621.893c1.775,2.048,1.456,7.481-.918,8.7C21.466,108.252,21.205,108.337,20.973,108.432Z"/><path fill="inherit" d="M58.555,13.358c-1.855,1.566-3.682,3.168-5.579,4.682a1.6,1.6,0,0,1-2.288-.1,1.718,1.718,0,0,1-.122-2.142,4.559,4.559,0,0,1,1.05-1.529c1.371-1.178,2.8-2.294,4.239-3.385a1.665,1.665,0,0,1,2.285.275A1.7,1.7,0,0,1,58.555,13.358Z"/><path fill="inherit" d="M20.811,74.022c-.223-.634-.4-1.147-.585-1.659-.494-1.378-1-2.753-1.48-4.136a7.447,7.447,0,0,1-.382-1.4c-.111-.775-.177-1.634.721-1.986.918-.361,1.949-.618,2.73.269a4.213,4.213,0,0,1,1.023,1.772c.326,1.56.4,3.172.715,4.736a1.505,1.505,0,0,1-1.267,1.99C21.892,73.718,21.5,73.828,20.811,74.022Z"/><path fill="inherit" d="M8.58,76.263c-.024-2.629-.1-5.121-.05-7.61.03-1.507.469-1.85,1.784-2.129a1.427,1.427,0,0,1,1.834.96,6.2,6.2,0,0,1,.451,2.638,29.828,29.828,0,0,1-1.083,4.886C11.122,76.305,10.713,76.414,8.58,76.263Z"/><path fill="inherit" d="M40.777,66.607c.984,1.162,2.053,2.264,2.926,3.5.815,1.158.659,1.571-.354,2.658-.26.279-1.024.573-.146,1.044-.261.148-.59.474-.77.407a2.9,2.9,0,0,1-.963-.755c-1.157-1.2-2.294-2.423-3.44-3.635-.048-.051-.109-.089-.161-.135C36.7,68.649,36.3,67.56,36.8,66.832c.6-.867,2.22-1.006,3.435-.294.12.071.237.149.355.223Z"/><path fill="inherit" d="M16.856,89.532a2.318,2.318,0,0,1-1.965-2.184c-.256-1.932-.561-3.859-.9-5.779a1.354,1.354,0,0,1,1.025-1.76,2.026,2.026,0,0,1,2.535.861,6,6,0,0,1,.419,1.824c.114,1.527.107,3.064.235,4.589A2.242,2.242,0,0,1,16.856,89.532Z"/><path fill="inherit" d="M73.709.031c-.276,3.538-3.166,4.43-5.508,5.746-1.045.586-2.446-.247-2.888-1.36a1.942,1.942,0,0,1,1.041-2.6A22.06,22.06,0,0,1,68.566.632C69.418.248,70.18-.294,71.3.194,71.948.477,72.882.109,73.709.031Z"/><path fill="inherit" d="M28.444,73.068a8.169,8.169,0,0,1,.9,1.448c.441,1.088.745,2.231,1.126,3.344.51,1.49-.738,2.577-.914,3.913a1.2,1.2,0,0,1-.894.078,2.7,2.7,0,0,1-.968-1.05c-.871-1.89-1.675-3.811-2.5-5.723a1.661,1.661,0,0,1,.6-2.2A2.256,2.256,0,0,1,28.444,73.068Z"/><path fill="inherit" d="M46.932,47.873C45,49.955,44.472,50.1,42.291,49.215c-1.348-.55-2.677-1.146-4.01-1.731A1.641,1.641,0,0,1,37.1,45.537c.21-1.106,1.036-1.243,1.9-1.168,2.382.206,4.672.686,6.49,2.433A14.89,14.89,0,0,0,46.932,47.873Z"/><path fill="inherit" d="M23.784,35.634a3.2,3.2,0,0,1,1.062-.78,16.866,16.866,0,0,1,3.246-.579c1.525-.114,3.063-.126,4.594-.094.607.012,1.278.153,1.41.973a1.35,1.35,0,0,1-.9,1.487,4.385,4.385,0,0,1-1.172.435c-1.783.33-3.568.653-5.363.91a6.263,6.263,0,0,1-1.872-.064C23.707,37.745,23.272,36.921,23.784,35.634Z"/><path fill="inherit" d="M73.382,11.89c-1.556,1.5-3.044,2.966-4.579,4.384a5.292,5.292,0,0,1-1.428.857c-1.173.528-2,.409-2.461-.287a2.045,2.045,0,0,1,.669-2.766c1.375-1.07,2.819-2.051,4.236-3.067.17-.121.352-.228.533-.334C72.088,9.658,72.359,9.749,73.382,11.89Z"/><path fill="inherit" d="M63.04,67.719c.967,1.047,2.049,2.135,3.024,3.312a1.663,1.663,0,0,1,.266,2.124c-.677,1.04-1.23,1.21-2.245.5-.4-.278-.7-.689-1.073-1-.913-.754-1.854-1.473-2.766-2.228a7.193,7.193,0,0,1-1.663-1.548,1.9,1.9,0,0,1-.051-1.7,1.931,1.931,0,0,1,1.628-.587A16.788,16.788,0,0,1,63.04,67.719Z"/><path fill="inherit" d="M52.508,31.848a2.064,2.064,0,0,1-.923,2.868,32.661,32.661,0,0,1-3.993,2.307c-1.269.616-2.667.39-3.116-.31-.609-.948-.1-2.319,1.174-3.229C47.752,31.988,50.159,32,52.508,31.848Z"/><path fill="inherit" d="M27.039,87.623c1.829,1.02,2.49,2.847,3.2,4.576a1.466,1.466,0,0,1-.763,1.958,1.408,1.408,0,0,1-1.851-.423C26.6,92.6,25.47,91.549,24.4,90.449a3.524,3.524,0,0,1-1.216-2.58c.018-.9.488-1.36,1.321-1.171A19.948,19.948,0,0,1,27.039,87.623Z"/><path fill="inherit" d="M41.009,80.3a8.765,8.765,0,0,1,4,5.77c.134.615.35,1.375-.415,1.632a2.542,2.542,0,0,1-1.745-.133,4.09,4.09,0,0,1-1.345-1.284c-.881-1.171-1.7-2.389-2.54-3.589a5.33,5.33,0,0,1-.334-.532,1.7,1.7,0,0,1,.228-2.282C39.548,79.323,40.312,79.656,41.009,80.3Z"/><path fill="inherit" d="M76.571,40.757c-1.845,2.251-6.814,2.437-8.419.982a2.272,2.272,0,0,1-.646-2.478c.395-.835,1.069-.941,1.936-.8,1.441.237,2.9.4,4.356.5A3.622,3.622,0,0,1,76.571,40.757Z"/><path fill="inherit" d="M62.182,45.385c-.2.269-.227.349-.282.375-2.507,1.215-5.154.847-7.762.573-.422-.044-.951-.792-1.1-1.311A1.309,1.309,0,0,1,54.1,43.435a9.874,9.874,0,0,1,5.363-.444A3.775,3.775,0,0,1,62.182,45.385Z"/><path fill="inherit" d="M41.829,98.638c-1.48.923-2.2.861-2.952-.713a22.376,22.376,0,0,1-1.566-4.94,2.015,2.015,0,0,1,.925-1.674,2.176,2.176,0,0,1,1.862.342,5.118,5.118,0,0,1,1.669,3.908C41.853,96.526,41.811,97.5,41.829,98.638Z"/><path fill="inherit" d="M71.133,88.1a4.539,4.539,0,0,1-3.185-1.76c-1-1.351-2.123-2.607-3.139-3.944-.423-.557-.793-1.247-.245-1.925a1.59,1.59,0,0,1,2.113-.218,4.093,4.093,0,0,1,1.51,1.1,26.155,26.155,0,0,1,2.5,3.868A10.242,10.242,0,0,1,71.133,88.1Z"/><path fill="inherit" d="M52.233,85.49a5.179,5.179,0,0,1,.661.57,9.154,9.154,0,0,1,2.1,5.487,1.844,1.844,0,0,1-.769,1.279,1.084,1.084,0,0,1-1.614-.429c-1.02-1.73-2.032-3.467-2.974-5.241a1.284,1.284,0,0,1,.992-1.739A5.779,5.779,0,0,1,52.233,85.49Z"/><path fill="inherit" d="M77.881,29.323a6.152,6.152,0,0,1,4.528-2.031,8.626,8.626,0,0,1,2.473.3c.339.076.839.419.864.679.039.4-.157,1.09-.446,1.217a52.923,52.923,0,0,1-5.806,2.246c-.434.133-1.313-.451-1.639-.937C77.6,30.4,77.862,29.66,77.881,29.323Z"/><path fill="inherit" d="M76.782,18.672a2.648,2.648,0,0,1,2.011-3.092c.926-.306,1.862-.6,2.756-.982,1.263-.542,2.426-.833,3.22.723A7.158,7.158,0,0,1,76.782,18.672Z"/><path fill="inherit" d="M56.3,79.906a4.669,4.669,0,0,1-1.415-.635c-1.261-1.294-2.458-2.651-3.66-4a1.6,1.6,0,0,1-.165-2.277c.665-.693,1.486-.37,2.29.088a9.388,9.388,0,0,1,3.474,4.091C57.273,78.006,57.207,78.041,56.3,79.906Z"/><path fill="inherit" d="M72.849,69.426a3.358,3.358,0,0,1,3.636-.711,9.219,9.219,0,0,1,2.921,1.54c1.457,1.073,1.467,1.507.376,3.606C77.665,72.168,74.432,72.425,72.849,69.426Z"/><path fill="inherit" d="M87.266,51.948c-1.439,2.4-6.009,2.16-7.82-.411C81.236,50.033,84.956,50.228,87.266,51.948Z"/><path fill="inherit" d="M89.8,39.846a.912.912,0,0,1-.1,1.55,5.956,5.956,0,0,1-4.712,1.193c-.463-.108-1.126-.6-1.164-.978a2.283,2.283,0,0,1,.665-1.6C85.192,39.3,88.932,39.244,89.8,39.846Z"/><path fill="inherit" d="M87.958,64.173c-.25.112-.636.446-.986.411a28.894,28.894,0,0,1-4.086-.625,1.415,1.415,0,0,1,.738-2.714,25.193,25.193,0,0,1,3.266.636A1.7,1.7,0,0,1,87.958,64.173Z"/><path fill="inherit" d="M1,84.028l-.879,1.4c-.393-1.046.272-1.208.912-1.4Z"/></g></svg>