<?xml version="1.0" encoding="UTF-8"?><svg xmlns="http://www.w3.org/2000/svg" xmlns:xlink="http://www.w3.org/1999/xlink" contentScriptType="text/ecmascript" fill="#000000" width="506.5" zoomAndPan="magnify" contentStyleType="text/css" viewBox="-6.0 -1.2 506.5 489.9" height="489.9" preserveAspectRatio="xMidYMid meet" version="1"><g id="change1_1"><path fill="#3f3a6d" d="M297.08,0.55c0.81-0.12,1.62-0.25,2.43-0.38c8.94-1.36,18.91,5.06,22.12,14.14 c16.98,47.87,31.89,96.51,45.09,145.55c9.88,36.68,17.98,73.67,26.5,110.68c3.54,15.47,6.62,30.17-11.05,38.22 c-8.79,4.01-19.82,5.76-27.53,7.93c-17.92,5.04-35.97,9.64-54.14,13.68c-35.8,7.96-71.45,15.7-109.7,20.69 c-12.92,1.68-33.35,0.7-41.75-11.07c-0.01,0-0.02,0-0.03,0.01c-1.22-1.71-2.15-3.75-2.77-6.17 c-21.33-85.59-36.75-172.68-46.2-261.28c-0.93-9.04,5.22-19.27,13.71-22.59c59.59-23.14,120.67-39.6,183.3-49.38"/></g><g id="change2_1"><path fill="#99b0dc" d="M372.16,278.57c-3.73,12.77-15.41,13.94-28.76,18.68c-13.07,4.65-26.64,7.64-40.13,10.75 c-23.14,5.35-46.62,8.99-69.87,13.82c-29.09,6.03-55.41,12.62-84.38,18.18c-1.22-1.71-2.15-3.75-2.77-6.17 c-21.33-85.59-36.75-172.68-46.2-261.28c-0.93-9.04,5.22-19.27,13.71-22.59c59.59-23.14,120.67-39.6,183.3-49.38 c18.02,46.76,33.71,94.4,47.01,142.71c5.74,20.81,10.5,41.88,15.6,62.85c2.87,11.8,6.18,23.5,9.39,35.2 C371.96,251.83,375.35,267.64,372.16,278.57z M149.22,122.23c2.29,5.26,5.72,10.47,11.04,12.63c8.31,3.38,18.28-0.91,26.51-2.67 c28.29-6.06,55.33-17.54,82.69-26.73c3.54-1.19,7.14-2.4,10.19-4.55c4.98-3.51,6.79-9.38,6.69-15.26 c-0.28-14.54-1.97-42.12-20.6-45.15c-5.49-0.9-11.08,0.36-16.5,1.62c-27.75,6.45-54.99,14.97-82.32,22.96 c-12.18,3.56-18.86,12.42-21.42,22.97C142.86,98.95,144.61,111.66,149.22,122.23z"/></g><g id="change3_1"><path fill="#f59921" d="M497.9,281.31c-7.89,39.24-17.04,78.22-27.39,116.88c-5.18,19.33-10.66,38.57-16.44,57.73 c-3.48,11.54-5.56,26.09-18.16,31.14c-4.19,1.67-8.76,1.39-13.3,0.48c-4.22-0.83-8.43-2.2-12.33-3.02 c-35.68-7.52-71.38-14.98-107.07-22.44c-16-3.35-31.97-6.78-48.03-9.8c-10.65-2-23.64-5.12-26.18-17.44 c-0.25-1.24-0.33-2.49-0.31-3.74c0,0,0.01,0,0.01,0c0.02-2.42,0.42-4.83,0.83-7.23c5.26-31.27,10.53-62.5,17.13-93.52 c6.81-32.04,16.26-63.27,23.94-95.04c2.45-8.29,4.04-21.01,9.61-27.62c10.4-12.32,28.44-8.22,42.38-6.93 c17.35,1.61,34.62,4.21,51.67,7.81c37.81,7.97,74.39,20.98,109.16,37.8c1.7,0.82,3.24,1.73,4.63,2.73c0,0,0,0,0-0.01 C498.48,256.54,500.49,268.53,497.9,281.31z M218.16,428.79c-0.69,1.03-1.46,2.02-2.33,2.94c-4.48,4.82-10.96,6.35-17.32,5.94 c-1.92-0.13-3.84-0.31-5.76-0.54c-4.82-0.57-9.6-1.47-14.3-2.68c-6.63-1.72-12.99-4.15-19.56-5.98 c-15.58-4.32-31.33-7.97-47.02-11.83c-17.16-4.21-34.35-8.26-51.56-12.23c-15.38-3.55-35.9-4.82-49.73-12.71 c-16.56-9.44-9.27-30.41-7.21-45.6c2.74-20.23,5.89-40.4,9.47-60.48c7.16-40.21,16.05-80.12,26.92-119.5 c2.14-7.73,8.12-12.02,15.15-14.33c0,0,0,0,0,0c6.37-2.09,13.58-2.55,19.58-2.5c35.67,0.34,71.34,4.43,106.05,12.7 c17.58,4.18,34.9,9.42,51.82,15.75c13.6,5.08,29.96,10.08,33.15,26.43c4.52,23.02-5.77,50.87-10.35,73.39 c-5.19,25.53-10.8,51.12-16.98,76.41c-4.53,18.51-5.59,37.76-12.37,55.76C223.44,416.01,221.94,423.12,218.16,428.79"/></g><g id="change4_1"><path fill="#f4c799" d="M225.81,409.73c-2.37,6.28-3.87,13.39-7.65,19.06c-4.03-1.07-60.7-16.13-92.01-23.7 c-7.5-1.81-14.99-3.56-22.49-5.36c-25.11-5.99-52.54-10.82-75.96-22.04c-2.73-1.31-5.47-2.79-7.56-5c-3.74-3.96-3.52-9.5-2.79-14.53 c9.37-63.98,21.62-127.43,34.39-190.8c1.04-5.18,2.1-10.38,3.15-15.56c6.37-2.1,13.59-2.56,19.6-2.51 c35.67,0.34,71.34,4.43,106.05,12.7c17.58,4.18,34.9,9.42,51.82,15.75c13.6,5.08,29.96,10.08,33.15,26.43 c4.52,23.02-5.77,50.87-10.35,73.39c-5.19,25.53-10.8,51.12-16.98,76.41C233.65,372.48,232.59,391.73,225.81,409.73z M447.92,415.96 c-2.81,11.12-5.78,22.23-8.96,33.26c-2.82,9.75-7.17,19.86-18.27,21.56c-10.3,1.58-21.2-2.88-31.16-4.89 c-53.31-10.79-106.03-24.06-160.83-34.78c0.02-2.42,0.42-4.84,0.83-7.24c5.26-31.27,10.53-62.5,17.13-93.52 c6.81-32.04,16.26-63.27,23.94-95.04c2.45-8.29,4.04-21.01,9.61-27.62c10.4-12.32,28.44-8.22,42.38-6.93 c17.35,1.61,34.62,4.21,51.67,7.81c37.81,7.97,74.39,20.98,109.16,37.8c1.71,0.82,3.26,1.74,4.65,2.74 C475.21,304.85,461.95,360.51,447.92,415.96z"/></g><g id="change5_1"><path fill="#231f20" d="M99.98,81.82c-0.09,0-0.18,0-0.27-0.01c-8.21-0.85-14.12-5.6-14.35-11.55c-0.28-6.93,7.16-12.67,16.92-13.05 c9.76-0.39,17.63,4.73,17.92,11.66c0.06,1.41-1.04,2.61-2.45,2.66c-1.4,0.06-2.61-1.04-2.66-2.45c-0.16-3.93-5.92-7.01-12.6-6.76 c-6.66,0.27-12.16,3.81-12.01,7.74c0.13,3.23,4.32,6.1,9.76,6.66c1.41,0.15,2.43,1.4,2.28,2.81 C102.38,80.84,101.27,81.82,99.98,81.82z M104.93,114.88c1.41-0.12,2.46-1.36,2.34-2.77c-0.12-1.41-1.36-2.46-2.77-2.34 c-6.06,0.51-11.32-1.87-11.96-5.41c-0.74-4.04,4.41-8.52,11.25-9.76c3.5-0.64,7.06-0.35,9.77,0.8c1.38,0.59,3.76,1.93,4.2,4.35 c0.25,1.39,1.58,2.32,2.98,2.06c1.39-0.25,2.31-1.59,2.06-2.98c-0.64-3.54-3.22-6.43-7.24-8.14c-3.66-1.56-8.17-1.95-12.69-1.13 c-9.89,1.81-16.64,8.71-15.36,15.72c1.06,5.81,7.34,9.69,15.31,9.69C103.5,114.97,104.21,114.94,104.93,114.88z M109.81,147.63 c1.37-0.34,2.21-1.73,1.87-3.1c-0.34-1.37-1.73-2.21-3.1-1.87c-6.62,1.65-12.77-0.09-14.02-3.96c-1.34-4.17,3.47-9.61,10.48-11.87 c3.63-1.17,7.31-1.34,10.36-0.48c1.54,0.43,4.26,1.54,5.06,4.05c0.43,1.35,1.87,2.09,3.22,1.66s2.09-1.87,1.66-3.22 c-1.14-3.56-4.18-6.19-8.56-7.42c-4-1.12-8.73-0.93-13.31,0.54c-9.99,3.22-16.05,11.26-13.79,18.31c1.64,5.08,7.24,8.13,14.06,8.13 C105.69,148.39,107.73,148.14,109.81,147.63z M348.19,127.48c1.38-0.33,2.22-1.71,1.89-3.09c-0.45-1.88-1.06-3.74-1.71-5.7 c-0.51-1.53-1.03-3.11-1.47-4.73c-0.4-1.43-0.7-2.95-1.01-4.56c-0.39-1.96-0.79-3.99-1.4-6.05c-0.56-1.86-1.34-3.65-2.1-5.37 c-0.72-1.62-1.39-3.16-1.89-4.75c-0.48-1.54-0.86-3.13-1.26-4.81c-0.44-1.86-0.9-3.78-1.52-5.68c-0.62-1.92-1.3-3.84-1.96-5.69 c-0.54-1.51-1.07-3.03-1.58-4.54c-0.54-1.61-1.01-3.31-1.46-4.95c-0.49-1.79-1-3.64-1.62-5.44c-0.65-1.9-1.35-3.77-2.03-5.58 c-0.58-1.54-1.15-3.07-1.68-4.59c-0.75-2.15-1.51-4.25-2.25-6.3c-0.48-1.32-0.94-2.62-1.39-3.89c-0.71-1.99-1.5-3.84-2.27-5.63 c-0.66-1.54-1.29-3-1.8-4.41c-0.7-1.94-1.28-3.79-1.84-5.59c-0.52-1.67-1.01-3.24-1.54-4.69c-1.22-3.33-2.29-5.93-2.97-7.52 c-1.42-3.33-2.01-4.71-4.2-4.12v0c-1.15,0.65-1.81,1.92-1.66,3.23l0.04,0.39c0.02,0.03,1.72,3.59,3.99,9.78 c0.49,1.33,0.96,2.85,1.46,4.45c0.55,1.76,1.17,3.76,1.91,5.8c0.56,1.55,1.22,3.08,1.91,4.69c0.74,1.71,1.5,3.49,2.15,5.32 c0.46,1.28,0.92,2.58,1.4,3.91c0.73,2.03,1.48,4.12,2.23,6.26c0.54,1.55,1.12,3.11,1.71,4.69c0.66,1.78,1.35,3.62,1.98,5.45 c0.57,1.65,1.03,3.35,1.53,5.14c0.47,1.71,0.96,3.47,1.54,5.21c0.52,1.55,1.06,3.09,1.61,4.63c0.65,1.83,1.32,3.72,1.92,5.57 c0.56,1.7,0.97,3.44,1.4,5.28c0.4,1.7,0.82,3.45,1.36,5.16c0.58,1.86,1.35,3.6,2.09,5.28c0.73,1.65,1.42,3.22,1.88,4.77 c0.54,1.82,0.92,3.73,1.29,5.58c0.32,1.63,0.65,3.31,1.1,4.93c0.48,1.74,1.02,3.38,1.55,4.97c0.61,1.86,1.19,3.62,1.59,5.29 c0.28,1.18,1.33,1.97,2.49,1.97C347.79,127.55,347.99,127.53,348.19,127.48z M310.58,14.71L310.58,14.71L310.58,14.71z M354.62,155.43c1.38-0.31,2.24-1.68,1.93-3.06c-0.51-2.25-0.85-3.37-1.18-4.46c-0.32-1.05-0.62-2.04-1.09-4.11 c-0.51-2.26-0.86-3.38-1.2-4.47c-0.32-1.04-0.63-2.03-1.09-4.09c-0.31-1.38-1.68-2.24-3.06-1.93c-1.38,0.31-2.24,1.69-1.93,3.06 c0.51,2.25,0.86,3.38,1.19,4.47c0.32,1.04,0.63,2.03,1.1,4.1c0.51,2.24,0.85,3.37,1.18,4.45c0.32,1.05,0.62,2.04,1.09,4.12 c0.27,1.19,1.33,1.99,2.5,1.99C354.24,155.49,354.43,155.47,354.62,155.43z M291.17,228.91c1.19-4.9-0.1-10.04-3.61-14.48 c-3.37-4.25-8.43-7.37-14.24-8.77c-12.22-2.95-24.12,2.67-26.5,12.53c-0.33,1.37,0.51,2.76,1.89,3.09s2.76-0.51,3.09-1.89 c1.72-7.11,10.84-11.04,20.32-8.76c4.71,1.13,8.77,3.61,11.43,6.97c2.52,3.18,3.46,6.76,2.65,10.09c-0.33,1.37,0.51,2.76,1.89,3.09 c0.2,0.05,0.41,0.07,0.6,0.07C289.84,230.87,290.89,230.08,291.17,228.91z M284.75,261.34c1.19-4.61,0.06-9.48-3.19-13.72 c-3.11-4.06-7.82-7.06-13.27-8.47c-5.44-1.41-11.02-1.06-15.71,0.98c-4.9,2.13-8.25,5.85-9.45,10.46c-0.35,1.37,0.47,2.77,1.84,3.12 c1.37,0.36,2.77-0.47,3.12-1.84c0.79-3.05,3.11-5.55,6.53-7.04c3.64-1.59,8.03-1.84,12.38-0.71c4.35,1.12,8.07,3.47,10.49,6.62 c2.27,2.96,3.09,6.28,2.3,9.33c-0.36,1.37,0.47,2.77,1.84,3.12c0.22,0.06,0.43,0.08,0.64,0.08 C283.42,263.26,284.45,262.49,284.75,261.34z M271.92,291.76c1.21-4.03,0.38-8.37-2.34-12.23c-2.59-3.66-6.61-6.46-11.32-7.87 c-9.96-2.99-20.04,1.15-22.48,9.23c-0.41,1.35,0.36,2.78,1.71,3.19c1.36,0.41,2.78-0.36,3.19-1.71c1.62-5.38,8.84-7.98,16.1-5.8 c3.62,1.09,6.68,3.19,8.61,5.92c1.79,2.54,2.37,5.31,1.62,7.8c-0.41,1.35,0.36,2.78,1.71,3.19c0.25,0.07,0.5,0.11,0.74,0.11 C270.57,293.59,271.59,292.87,271.92,291.76z M263.96,323.22c1.07-4.58-0.16-9.36-3.47-13.47c-3.16-3.93-7.88-6.78-13.29-8.05 c-5.41-1.26-10.91-0.79-15.48,1.33c-4.79,2.22-8.01,5.97-9.08,10.54c-0.32,1.38,0.53,2.75,1.91,3.08c1.38,0.32,2.75-0.54,3.08-1.91 c0.7-3.01,2.92-5.52,6.25-7.06c3.54-1.64,7.86-1.99,12.16-0.99c4.3,1.01,8.02,3.23,10.47,6.27c2.3,2.86,3.18,6.09,2.48,9.1 c-0.32,1.38,0.53,2.75,1.91,3.08c0.2,0.05,0.39,0.07,0.59,0.07C262.63,325.2,263.68,324.4,263.96,323.22z M259.96,355.45 c2.01-9.77-6.19-19.76-18.3-22.25c-12.11-2.5-23.6,3.42-25.61,13.19c-0.29,1.39,0.61,2.74,1.99,3.02c1.38,0.29,2.74-0.61,3.02-1.99 c1.44-7,10.22-11.13,19.56-9.21c9.34,1.93,15.76,9.19,14.32,16.2c-0.29,1.39,0.61,2.74,1.99,3.02c0.18,0.04,0.35,0.05,0.52,0.05 C258.65,357.5,259.72,356.66,259.96,355.45z M255.97,388.38c0.94-5.12-0.69-10.35-4.58-14.73c-3.73-4.2-9.14-7.13-15.24-8.24 c-6.09-1.12-12.19-0.3-17.17,2.31c-5.18,2.72-8.56,7.04-9.49,12.16c-0.26,1.39,0.67,2.73,2.06,2.98c1.39,0.26,2.73-0.67,2.98-2.06 c0.65-3.54,3.08-6.57,6.84-8.54c3.97-2.08,8.89-2.72,13.87-1.81c4.97,0.91,9.35,3.25,12.33,6.61c2.82,3.17,4.02,6.87,3.37,10.41 c-0.26,1.39,0.67,2.73,2.06,2.98c0.16,0.03,0.31,0.04,0.46,0.04C254.67,390.48,255.75,389.61,255.97,388.38z M248.76,414.77 c0.82-4.47-0.6-9.04-3.99-12.85c-3.23-3.64-7.92-6.17-13.19-7.14c-5.27-0.96-10.55-0.25-14.86,2.01c-4.52,2.37-7.46,6.14-8.28,10.62 c-0.25,1.39,0.67,2.72,2.06,2.98s2.72-0.67,2.98-2.06c0.53-2.89,2.52-5.38,5.62-7c3.3-1.73,7.41-2.27,11.56-1.51 c4.15,0.76,7.8,2.71,10.28,5.5c2.32,2.61,3.31,5.64,2.78,8.53c-0.25,1.39,0.67,2.73,2.06,2.98c0.16,0.03,0.31,0.04,0.46,0.04 C247.46,416.87,248.54,416,248.76,414.77z M217.8,210.92c0.6-1.28,0.04-2.81-1.24-3.4c-1.02-0.47-2.03-0.95-3.04-1.43 c-2.57-1.22-5.23-2.47-7.92-3.6c-1.11-0.46-2.21-0.93-3.31-1.41c-2.54-1.09-5.17-2.22-7.83-3.21c-2.45-0.91-4.95-1.68-7.36-2.43 c-1.37-0.42-2.74-0.85-4.11-1.3c-1.26-0.42-2.51-0.85-3.76-1.28c-2.49-0.86-5.07-1.75-7.69-2.5c-2.43-0.7-4.89-1.23-7.28-1.73 c-1.5-0.32-3-0.64-4.48-1c-1.59-0.39-3.22-0.85-4.79-1.31c-2.22-0.64-4.52-1.3-6.88-1.79c-2.63-0.53-5.31-0.93-7.9-1.32 c-1.34-0.2-2.67-0.4-4.01-0.62c-1.66-0.27-3.3-0.65-5.03-1.05c-2.2-0.51-4.48-1.04-6.83-1.33c-2.33-0.29-4.64-0.3-6.89-0.31 c-1.81-0.01-3.52-0.02-5.21-0.16c-1.61-0.14-3.26-0.35-4.87-0.55c-2.32-0.29-4.72-0.6-7.14-0.71c-2.59-0.12-5.18-0.08-7.69-0.03 c-1.46,0.02-2.93,0.05-4.39,0.04c-2.64-0.01-5.27,0.12-7.81,0.25c-1.41,0.07-2.82,0.14-4.24,0.19c-1.41,0.05-2.52,1.23-2.47,2.64 c0.05,1.41,1.23,2.52,2.64,2.47c1.44-0.05,2.88-0.12,4.33-0.2c2.48-0.13,5.03-0.25,7.53-0.24c1.5,0.01,3-0.02,4.5-0.04 c2.43-0.04,4.94-0.08,7.36,0.03c2.22,0.1,4.41,0.38,6.74,0.67c1.65,0.21,3.36,0.42,5.07,0.57c1.89,0.16,3.79,0.17,5.62,0.18 c2.19,0.01,4.25,0.02,6.28,0.27c2.08,0.26,4.13,0.73,6.3,1.24c1.74,0.4,3.53,0.82,5.36,1.12c1.35,0.22,2.71,0.43,4.07,0.63 c2.53,0.38,5.14,0.77,7.64,1.28c2.16,0.44,4.26,1.05,6.48,1.69c1.62,0.47,3.3,0.95,5,1.36c1.55,0.38,3.11,0.71,4.63,1.03 c2.4,0.51,4.68,0.99,6.93,1.65c2.49,0.71,5,1.58,7.43,2.42c1.27,0.44,2.55,0.88,3.83,1.3c1.39,0.46,2.8,0.89,4.2,1.33 c2.35,0.73,4.78,1.48,7.09,2.34c2.55,0.95,5.12,2.05,7.6,3.12c1.12,0.48,2.23,0.96,3.35,1.43c2.58,1.08,5.19,2.31,7.7,3.5 c1.02,0.48,2.05,0.97,3.07,1.44c0.35,0.16,0.72,0.24,1.08,0.24C216.44,212.4,217.36,211.85,217.8,210.92z M206.26,247.83 c0.6-1.28,0.04-2.8-1.24-3.4c-1.47-0.69-2.97-1.45-4.41-2.2c-2.18-1.12-4.44-2.27-6.78-3.25c-3.98-1.67-7.88-3.21-11.57-4.59 c-4.1-1.53-8.25-2.92-11.77-4.07c-2.68-0.88-5.42-1.62-8.06-2.34c-1.31-0.35-2.62-0.71-3.92-1.08c-2.72-0.77-5.48-1.41-8.16-2.03 c-1.31-0.3-2.62-0.6-3.93-0.92c-1.7-0.41-3.37-0.96-5.14-1.53c-2.2-0.72-4.47-1.46-6.83-1.93c-2.37-0.47-4.75-0.68-7.05-0.88 c-1.85-0.16-3.59-0.31-5.32-0.59c-1.72-0.28-3.41-0.68-5.21-1.1c-2.27-0.53-4.61-1.08-7.02-1.37c-3.56-0.43-7.39-0.8-12.4-1.2 c-2.45-0.2-4.88-0.15-7.24-0.11c-1.81,0.03-3.51,0.06-5.23-0.01c-3.72-0.15-7.67-0.22-12.43-0.22c-1.41,0-2.56,1.15-2.56,2.56 s1.15,2.56,2.56,2.56c4.69,0,8.58,0.07,12.23,0.21c1.86,0.08,3.72,0.04,5.52,0.01c2.34-0.04,4.54-0.08,6.74,0.1 c4.95,0.39,8.71,0.76,12.2,1.18c2.13,0.26,4.23,0.75,6.46,1.28c1.8,0.42,3.67,0.86,5.57,1.17c1.91,0.31,3.84,0.48,5.7,0.64 c2.26,0.2,4.4,0.38,6.49,0.8c2.07,0.42,4.1,1.08,6.25,1.78c1.79,0.58,3.63,1.18,5.53,1.64c1.33,0.32,2.66,0.63,3.99,0.93 c2.61,0.6,5.31,1.22,7.9,1.96c1.33,0.38,2.66,0.74,3.99,1.09c2.58,0.7,5.24,1.41,7.8,2.26c3.47,1.14,7.56,2.5,11.58,4 c3.64,1.35,7.47,2.87,11.39,4.51c2.16,0.9,4.23,1.96,6.42,3.09c1.49,0.76,3.02,1.55,4.58,2.28c0.35,0.16,0.72,0.24,1.08,0.24 C204.9,249.31,205.83,248.76,206.26,247.83z M202.67,285.48c0.4-1.36-0.37-2.78-1.73-3.18c-3.72-1.1-8.05-2.38-12.31-3.55 c-2.45-0.67-4.93-1.25-7.34-1.8c-1.71-0.4-3.41-0.79-5.12-1.22c-1.77-0.45-3.53-0.94-5.29-1.43c-2.31-0.64-4.69-1.31-7.08-1.87 s-4.81-1-7.16-1.43c-1.79-0.32-3.63-0.66-5.42-1.04c-1.7-0.36-3.39-0.76-5.09-1.16c-2.42-0.57-4.92-1.15-7.42-1.64 c-2.35-0.46-4.73-0.78-7.02-1.09c-1.86-0.25-3.78-0.52-5.64-0.84c-1.65-0.29-3.29-0.6-4.93-0.92c-2.5-0.48-5.09-0.97-7.67-1.37 c-2.55-0.4-5.13-0.71-7.63-1c-1.69-0.2-3.38-0.4-5.07-0.63c-1.9-0.26-3.77-0.69-5.75-1.14c-2.21-0.5-4.5-1.03-6.85-1.3 c-2.41-0.29-4.85-0.44-7.21-0.6c-1.84-0.12-3.73-0.24-5.57-0.42c-1.41-0.13-2.66,0.89-2.8,2.3c-0.14,1.41,0.89,2.66,2.3,2.8 c1.92,0.19,3.87,0.32,5.75,0.44c2.29,0.15,4.66,0.3,6.94,0.57c2.08,0.25,4.14,0.72,6.32,1.21c2,0.46,4.07,0.93,6.19,1.22 c1.72,0.23,3.44,0.44,5.16,0.64c2.45,0.29,4.99,0.59,7.44,0.98c2.49,0.39,5.04,0.88,7.5,1.35c1.67,0.32,3.33,0.64,5,0.93 c1.95,0.34,3.93,0.61,5.83,0.87c2.23,0.3,4.53,0.62,6.74,1.04c2.41,0.47,4.85,1.04,7.22,1.6c1.72,0.41,3.45,0.81,5.18,1.18 c1.86,0.4,3.75,0.74,5.58,1.07c2.28,0.41,4.64,0.84,6.9,1.37c2.29,0.54,4.62,1.19,6.88,1.82c1.8,0.5,3.6,1,5.41,1.46 c1.73,0.44,3.48,0.84,5.22,1.25c2.35,0.55,4.79,1.11,7.14,1.75c4.22,1.16,8.51,2.42,12.21,3.52c0.24,0.07,0.49,0.11,0.73,0.11 C201.32,287.32,202.34,286.6,202.67,285.48z M192.32,323.55c0.4-1.36-0.39-2.78-1.74-3.17c-2.24-0.65-4.52-1.12-6.72-1.57 c-1.86-0.38-3.61-0.74-5.35-1.21c-3.48-0.93-7.18-1.87-12-3.05c-1.46-0.36-2.92-0.73-4.38-1.1c-2.49-0.63-5.06-1.29-7.63-1.86 c-1.73-0.38-3.5-0.85-5.21-1.3c-2.22-0.58-4.51-1.18-6.83-1.64c-2.31-0.46-4.65-0.79-6.91-1.1c-1.76-0.25-3.58-0.5-5.33-0.81 c-1.63-0.29-3.26-0.61-4.89-0.94c-2.37-0.47-4.83-0.96-7.28-1.34c-1.77-0.27-3.58-0.63-5.33-0.97c-2.23-0.44-4.54-0.88-6.87-1.19 c-2.3-0.31-4.61-0.41-6.84-0.52c-1.92-0.09-3.72-0.17-5.53-0.37c-1.71-0.19-3.41-0.42-5.11-0.64c-2.34-0.31-4.76-0.64-7.19-0.86 c-2.37-0.21-4.75-0.29-7.06-0.36c-1.75-0.06-3.57-0.11-5.32-0.23c-1.76-0.12-3.57-0.3-5.32-0.48c-2.28-0.23-4.64-0.47-7.01-0.58 c-1.41-0.06-2.61,1.02-2.68,2.44c-0.07,1.41,1.02,2.61,2.44,2.68c2.23,0.11,4.52,0.34,6.74,0.56c1.79,0.18,3.64,0.37,5.49,0.49 c1.85,0.13,3.71,0.18,5.51,0.24c2.23,0.07,4.54,0.14,6.76,0.34c2.31,0.21,4.68,0.52,6.96,0.83c1.74,0.23,3.48,0.47,5.23,0.66 c1.97,0.22,3.94,0.31,5.86,0.4c2.22,0.1,4.32,0.2,6.4,0.48c2.18,0.29,4.41,0.72,6.57,1.14c1.8,0.35,3.66,0.71,5.53,1 c2.35,0.36,4.75,0.84,7.07,1.3c1.66,0.33,3.33,0.66,4.99,0.96c1.84,0.33,3.71,0.59,5.51,0.84c2.19,0.31,4.46,0.63,6.62,1.05 c2.17,0.43,4.38,1.01,6.53,1.57c1.76,0.46,3.57,0.94,5.4,1.34c2.5,0.55,5.03,1.2,7.48,1.82c1.48,0.38,2.95,0.75,4.44,1.11 c4.78,1.17,8.45,2.1,11.89,3.02c1.89,0.5,3.79,0.89,5.64,1.27c2.2,0.45,4.28,0.88,6.32,1.48c0.24,0.07,0.48,0.1,0.72,0.1 C190.97,325.4,191.99,324.67,192.32,323.55z M175.36,367.16c0.41-1.35-0.35-2.78-1.71-3.19l-1.3-0.39 c-3.48-1.06-7.08-2.15-10.64-3.16c-1.66-0.47-3.3-0.99-4.94-1.5c-2.27-0.71-4.62-1.44-6.98-2.06c-2.66-0.7-5.37-1.35-7.99-1.98 c-1.36-0.33-2.73-0.65-4.09-0.99c-2.65-0.65-5.33-1.24-7.93-1.81c-1.4-0.31-2.8-0.61-4.2-0.93c-3.16-0.71-6.38-1.36-9.49-1.99 l-2.67-0.55c-1.62-0.33-3.24-0.69-4.86-1.05c-2.38-0.53-4.84-1.07-7.3-1.53c-2.28-0.43-4.59-0.72-6.82-1 c-1.81-0.23-3.68-0.47-5.49-0.77c-3.64-0.61-7.35-1.15-10.93-1.68l-1.35-0.2c-1.83-0.27-3.7-0.64-5.51-1 c-2.18-0.43-4.44-0.88-6.73-1.18c-1.41-0.17-2.69,0.81-2.87,2.21s0.81,2.69,2.21,2.87c2.12,0.28,4.2,0.69,6.4,1.12 c1.87,0.37,3.81,0.75,5.76,1.04l1.35,0.2c3.56,0.53,7.24,1.07,10.83,1.67c1.91,0.32,3.83,0.57,5.69,0.8 c2.16,0.27,4.39,0.56,6.52,0.95c2.37,0.44,4.79,0.98,7.13,1.5c1.65,0.36,3.29,0.73,4.94,1.07l2.68,0.55 c3.09,0.63,6.28,1.28,9.38,1.97c1.41,0.32,2.82,0.63,4.23,0.94c2.57,0.56,5.23,1.14,7.81,1.78c1.37,0.34,2.74,0.66,4.12,0.99 c2.59,0.62,5.27,1.26,7.87,1.95c2.26,0.6,4.55,1.31,6.77,2c1.68,0.52,3.36,1.05,5.06,1.53c3.52,1,7.09,2.08,10.55,3.14l1.3,0.39 c0.25,0.08,0.5,0.11,0.75,0.11C174.01,368.98,175.02,368.26,175.36,367.16z M446.99,277.7c0.73-1.21,0.33-2.79-0.89-3.51 c-3.34-2-7.24-4.3-11.17-6.36c-3.9-2.04-7.86-3.9-11.56-5.6c-3.42-1.57-7.49-3.41-11.77-5.11c-1.45-0.58-2.93-1.23-4.35-1.85 c-2.43-1.07-4.94-2.17-7.54-3.05c-2.46-0.83-4.98-1.4-7.41-1.95c-1.76-0.4-3.41-0.77-5.06-1.24c-3.88-1.09-7.83-1.99-11.66-2.86 l-0.8-0.18c-1.06-0.24-2.11-0.49-3.16-0.74c-3.04-0.72-6.19-1.46-9.37-2.01c-1.68-0.29-3.33-0.67-5.08-1.08 c-2.43-0.56-4.95-1.15-7.53-1.46c-3.07-0.37-6.18-0.55-9.18-0.72c-1.22-0.07-2.44-0.14-3.65-0.22l-2.52-0.18 c-3.37-0.24-6.86-0.49-10.32-0.55c-0.01,0-0.03,0-0.04,0c-1.39,0-2.54,1.12-2.56,2.52c-0.02,1.41,1.1,2.58,2.52,2.6 c3.33,0.06,6.74,0.3,10.04,0.53l2.54,0.18c1.23,0.08,2.47,0.15,3.71,0.23c2.92,0.17,5.95,0.34,8.85,0.69c2.31,0.28,4.59,0.81,7,1.36 c1.74,0.4,3.54,0.82,5.36,1.14c3.03,0.53,6.1,1.25,9.07,1.95c1.07,0.25,2.13,0.5,3.2,0.75l0.8,0.18c3.76,0.86,7.65,1.74,11.4,2.8 c1.78,0.51,3.58,0.91,5.33,1.3c2.41,0.54,4.69,1.05,6.89,1.8c2.39,0.81,4.7,1.82,7.14,2.89c1.46,0.64,2.98,1.31,4.51,1.92 c4.18,1.66,8.17,3.46,11.53,5.01c3.63,1.67,7.52,3.5,11.32,5.48c3.81,2,7.48,4.17,10.92,6.22c0.41,0.25,0.86,0.36,1.31,0.36 C445.66,278.95,446.51,278.5,446.99,277.7z M434.32,309.42c0.49-1.33-0.18-2.8-1.51-3.29c-1.3-0.49-2.6-0.98-3.9-1.48 c-2.47-0.94-5.02-1.92-7.58-2.8c-2.16-0.74-4.36-1.24-6.49-1.73c-1.87-0.43-3.64-0.84-5.37-1.38c-1.4-0.44-2.79-0.9-4.17-1.36 c-2.43-0.81-4.95-1.64-7.49-2.37c-2.86-0.83-5.77-1.58-8.59-2.31c-1.08-0.28-2.16-0.56-3.24-0.84c-1.64-0.43-3.32-0.93-4.93-1.4 c-2.23-0.66-4.53-1.34-6.87-1.89c-1.75-0.41-3.46-0.91-5.27-1.44c-2.12-0.62-4.32-1.26-6.56-1.74c-2.46-0.53-4.96-0.94-7.37-1.35 c-1.57-0.26-3.14-0.52-4.69-0.82c-3.58-0.68-7.81-1.47-12.07-2.16c-2.61-0.43-5.26-0.76-7.82-1.08c-1.45-0.18-2.89-0.36-4.33-0.56 c-1.4-0.19-2.69,0.79-2.88,2.19s0.79,2.69,2.19,2.88c1.46,0.2,2.93,0.39,4.39,0.57c2.51,0.32,5.11,0.64,7.63,1.05 c4.2,0.69,8.39,1.47,11.94,2.14c1.6,0.3,3.2,0.57,4.8,0.83c2.36,0.39,4.8,0.8,7.14,1.3c2.06,0.44,4.07,1.03,6.2,1.65 c1.79,0.53,3.65,1.07,5.52,1.51c2.2,0.53,4.44,1.18,6.6,1.82c1.65,0.49,3.36,0.99,5.08,1.44c1.09,0.29,2.17,0.57,3.26,0.85 c2.78,0.72,5.66,1.46,8.45,2.27c2.44,0.7,4.91,1.52,7.29,2.31c1.41,0.47,2.82,0.93,4.23,1.38c1.92,0.61,3.88,1.06,5.78,1.49 c2.1,0.48,4.07,0.93,5.97,1.58c2.48,0.85,4.98,1.81,7.41,2.74c1.32,0.5,2.63,1.01,3.95,1.5c0.29,0.11,0.6,0.16,0.89,0.16 C432.96,311.09,433.94,310.45,434.32,309.42z M430.74,344.71c0.41-1.35-0.35-2.78-1.7-3.2c-2.02-0.62-4.08-1.11-6.07-1.59 c-1.87-0.45-3.64-0.88-5.39-1.4c-2.05-0.61-4.14-1.16-6.16-1.69c-1.73-0.45-3.52-0.92-5.25-1.43c-1.74-0.5-3.46-1.04-5.18-1.57 c-2-0.62-4.07-1.27-6.15-1.85c-2.08-0.58-4.19-1.1-6.23-1.61c-1.75-0.43-3.5-0.86-5.23-1.34c-1.75-0.48-3.46-1.09-5.27-1.74 c-1.93-0.69-3.92-1.4-5.99-1.95c-2.1-0.55-4.24-1.06-6.3-1.54c-1.74-0.41-3.47-0.82-5.2-1.26c-1.67-0.43-3.33-0.87-5-1.31 c-2.15-0.57-4.29-1.14-6.45-1.68c-1.75-0.44-3.54-0.94-5.27-1.42c-2-0.56-4.08-1.14-6.16-1.64c-2.15-0.52-4.34-1-6.46-1.46 c-1.7-0.37-3.39-0.74-5.08-1.13c-2.07-0.48-4.17-0.88-6.2-1.26c-1.78-0.34-3.63-0.68-5.41-1.08c-1.38-0.31-2.75,0.56-3.06,1.94 s0.56,2.75,1.94,3.06c1.86,0.42,3.75,0.77,5.58,1.12c1.98,0.37,4.02,0.76,5.99,1.21c1.71,0.4,3.43,0.77,5.15,1.15 c2.09,0.46,4.25,0.93,6.35,1.43c1.99,0.48,4.02,1.05,5.98,1.6c1.76,0.49,3.59,1.01,5.42,1.46c2.13,0.53,4.25,1.09,6.37,1.66 c1.68,0.45,3.36,0.89,5.04,1.32c1.76,0.45,3.52,0.86,5.29,1.28c2.03,0.48,4.13,0.97,6.17,1.51c1.85,0.49,3.66,1.13,5.57,1.82 c1.82,0.65,3.71,1.33,5.65,1.85c1.78,0.48,3.56,0.93,5.35,1.37c2,0.49,4.07,1.01,6.07,1.57s4.04,1.2,6.01,1.81 c1.76,0.55,3.51,1.09,5.28,1.6c1.79,0.52,3.61,1,5.37,1.46c1.98,0.52,4.03,1.06,6,1.65c1.88,0.56,3.8,1.02,5.65,1.46 c1.92,0.46,3.9,0.94,5.77,1.51c0.25,0.08,0.5,0.11,0.75,0.11C429.39,346.53,430.4,345.81,430.74,344.71z M419.15,382.84 c0.34-1.37-0.5-2.76-1.87-3.1c-1.97-0.49-3.89-1.09-5.92-1.74c-1.98-0.63-4.03-1.27-6.12-1.8c-2.04-0.51-4.08-0.98-6.12-1.46 c-2.03-0.47-4.06-0.95-6.1-1.45c-1.98-0.49-3.97-0.94-5.95-1.39c-2.06-0.47-4.19-0.95-6.26-1.47s-4.18-0.96-6.21-1.39 c-1.99-0.42-4.05-0.86-6.03-1.35c-1.8-0.45-3.6-0.91-5.4-1.37c-2.25-0.57-4.5-1.15-6.77-1.71c-2.06-0.51-4.16-1.09-6.2-1.65 c-1.93-0.53-3.93-1.08-5.92-1.58c-2.04-0.51-4.08-1-6.12-1.49c-2.03-0.49-4.05-0.97-6.07-1.48c-2.02-0.5-4.03-1.02-6.05-1.53 c-2.04-0.52-4.07-1.04-6.11-1.55c-1.93-0.48-3.81-1.12-5.8-1.8c-2-0.68-4.07-1.39-6.21-1.92c-1.37-0.34-2.76,0.49-3.11,1.86 c-0.34,1.37,0.49,2.76,1.86,3.11c1.93,0.48,3.81,1.12,5.8,1.8c2,0.68,4.07,1.39,6.21,1.92c2.03,0.51,4.06,1.03,6.09,1.54 c2.02,0.52,4.05,1.03,6.07,1.54c2.04,0.51,4.08,1,6.12,1.49c2.03,0.49,4.05,0.97,6.07,1.48c1.93,0.48,3.9,1.02,5.81,1.55 c2.06,0.57,4.19,1.15,6.33,1.68c2.25,0.56,4.49,1.13,6.73,1.7c1.81,0.46,3.61,0.92,5.42,1.37c2.07,0.52,4.18,0.96,6.21,1.39 c1.99,0.42,4.05,0.86,6.03,1.35c2.13,0.53,4.28,1.02,6.37,1.49c1.95,0.44,3.91,0.89,5.85,1.36c2.05,0.51,4.11,0.99,6.17,1.47 c2.01,0.47,4.03,0.94,6.04,1.44c1.93,0.48,3.82,1.08,5.82,1.71c2.02,0.64,4.11,1.3,6.23,1.82c0.21,0.05,0.41,0.08,0.62,0.08 C417.81,384.79,418.86,384.01,419.15,382.84z M411.87,423.25c0.28-1.39-0.61-2.74-1.99-3.02c-1.9-0.39-3.81-0.6-5.66-0.8 c-2.14-0.23-4.17-0.45-6.1-0.93c-1.87-0.46-3.71-1.19-5.66-1.97c-1.79-0.71-3.65-1.45-5.59-1.99c-1.67-0.46-3.36-0.89-5.04-1.32 c-2.14-0.54-4.35-1.1-6.48-1.73c-1.96-0.58-3.96-1.01-5.88-1.44c-2-0.44-3.88-0.85-5.73-1.41c-2.24-0.68-4.49-1.32-6.73-1.97 c-1.59-0.46-3.18-0.91-4.76-1.38c-3.29-0.98-6.64-1.92-9.87-2.82l-1.66-0.47c-1.51-0.42-3.02-0.88-4.53-1.33 c-2.28-0.69-4.64-1.4-7.02-2c-2.75-0.69-5.54-1.25-8.24-1.79c-1.18-0.24-2.36-0.47-3.54-0.72c-1.5-0.32-3.04-0.71-4.53-1.08 c-2.34-0.59-4.77-1.2-7.25-1.6c-1.38-0.22-2.76-0.49-4.14-0.75c-2.53-0.48-5.16-0.98-7.82-1.25c-1.4-0.15-2.66,0.88-2.8,2.29 c-0.14,1.41,0.88,2.66,2.29,2.8c2.44,0.25,4.95,0.72,7.37,1.18c1.43,0.27,2.85,0.54,4.28,0.77c2.26,0.37,4.47,0.92,6.81,1.51 c1.53,0.39,3.12,0.79,4.73,1.13c1.2,0.25,2.39,0.49,3.59,0.73c2.64,0.53,5.37,1.07,7.99,1.73c2.26,0.57,4.57,1.27,6.79,1.94 c1.54,0.46,3.08,0.93,4.62,1.36l1.66,0.47c3.22,0.9,6.54,1.83,9.8,2.8c1.6,0.47,3.2,0.93,4.8,1.39c2.22,0.64,4.44,1.27,6.67,1.95 c2.04,0.61,4.11,1.07,6.12,1.51c1.92,0.42,3.74,0.82,5.53,1.35c2.22,0.65,4.48,1.23,6.66,1.78c1.65,0.42,3.29,0.84,4.93,1.29 c1.68,0.47,3.32,1.12,5.06,1.81c2.02,0.8,4.11,1.64,6.33,2.18c2.27,0.56,4.56,0.81,6.77,1.05c1.81,0.2,3.52,0.38,5.18,0.72 c0.17,0.04,0.35,0.05,0.52,0.05C410.55,425.3,411.62,424.46,411.87,423.25z M32.62,231.24c0.59-2.27,1.09-4.57,1.57-6.8 c0.4-1.82,0.81-3.71,1.26-5.57c1-4.08,2.01-8.16,2.97-12.25c0.53-2.26,0.96-4.56,1.38-6.78c0.35-1.85,0.71-3.77,1.11-5.6 c0.55-2.45,1.05-4.95,1.53-7.36c0.33-1.67,0.67-3.35,1.02-5.01c0.4-1.89,0.91-3.74,1.45-5.7c0.59-2.13,1.2-4.33,1.64-6.57 c0.36-1.81,0.75-3.62,1.15-5.43c0.49-2.26,1-4.61,1.44-6.94c0.26-1.39-0.65-2.73-2.04-2.99c-1.39-0.26-2.73,0.65-2.99,2.04 c-0.43,2.26-0.93,4.57-1.41,6.8c-0.4,1.84-0.8,3.68-1.16,5.52c-0.41,2.06-0.97,4.07-1.56,6.2c-0.54,1.95-1.1,3.96-1.53,6.01 c-0.36,1.69-0.7,3.38-1.03,5.07c-0.48,2.38-0.97,4.85-1.51,7.25c-0.43,1.93-0.8,3.89-1.15,5.78c-0.41,2.17-0.83,4.4-1.33,6.55 c-0.96,4.07-1.96,8.13-2.96,12.24c-0.47,1.89-0.88,3.81-1.29,5.67c-0.47,2.18-0.96,4.43-1.52,6.6c-0.35,1.37,0.47,2.77,1.84,3.12 c0.22,0.06,0.43,0.08,0.64,0.08C31.28,233.16,32.32,232.4,32.62,231.24z M24.29,258.75c1.41-0.02,2.55-1.18,2.53-2.59 c-0.04-3.38,0.74-6.73,1.57-10.29l0.33-1.42c0.32-1.38-0.55-2.75-1.92-3.07c-1.38-0.32-2.75,0.55-3.07,1.92l-0.33,1.4 c-0.86,3.69-1.75,7.52-1.71,11.51c0.02,1.4,1.16,2.53,2.56,2.53C24.27,258.75,24.28,258.75,24.29,258.75z M329.06,459.77 c0.29-1.38-0.6-2.74-1.98-3.03c-3.08-0.65-4.67-0.87-6.21-1.09c-1.52-0.21-2.96-0.41-5.87-1.02c-3.07-0.65-4.65-0.88-6.18-1.11 c-1.52-0.23-2.96-0.44-5.88-1.05s-4.32-1-5.81-1.4c-1.49-0.41-3.03-0.83-6.11-1.47c-2.98-0.63-4.49-0.98-5.94-1.32 c-1.48-0.35-3-0.7-6.02-1.34c-2.93-0.62-4.34-0.99-5.84-1.38c-1.49-0.39-3.03-0.79-6.09-1.43c-3.15-0.66-4.8-0.78-6.39-0.9 c-1.5-0.11-2.91-0.22-5.76-0.82c-2.89-0.61-4.27-1.02-5.74-1.45c-1.5-0.45-3.04-0.91-6.14-1.56c-3.05-0.64-4.62-0.9-6.14-1.14 c-1.53-0.25-2.97-0.48-5.91-1.1c-1.39-0.29-2.74,0.6-3.03,1.98s0.59,2.74,1.98,3.03c3.05,0.64,4.62,0.9,6.14,1.14 c1.53,0.25,2.97,0.48,5.91,1.1c2.89,0.61,4.27,1.02,5.74,1.45c1.5,0.45,3.05,0.91,6.14,1.56c3.17,0.67,4.82,0.79,6.42,0.91 c1.49,0.11,2.91,0.22,5.73,0.81c2.94,0.62,4.35,0.99,5.85,1.38c1.49,0.39,3.02,0.79,6.08,1.43c2.96,0.62,4.44,0.97,5.91,1.31 c1.48,0.35,3.02,0.7,6.05,1.34c2.92,0.61,4.32,1,5.81,1.4c1.49,0.41,3.03,0.83,6.1,1.47c3.07,0.65,4.65,0.88,6.18,1.11 c1.52,0.23,2.96,0.44,5.88,1.05c3.08,0.65,4.67,0.87,6.21,1.09c1.52,0.21,2.96,0.41,5.87,1.02c0.18,0.04,0.36,0.06,0.53,0.06 C327.74,461.8,328.8,460.97,329.06,459.77z M353.36,466.19c0.33-1.38-0.52-2.76-1.89-3.09c-2.91-0.7-4.3-1.14-5.76-1.61 c-1.49-0.48-3.03-0.97-6.13-1.72c-1.38-0.33-2.76,0.52-3.09,1.89c-0.33,1.38,0.52,2.76,1.89,3.09c2.91,0.7,4.3,1.14,5.76,1.61 c1.49,0.48,3.03,0.97,6.13,1.72c0.2,0.05,0.4,0.07,0.6,0.07C352.03,468.15,353.07,467.36,353.36,466.19z M479.81,326.15 c0.65-2.75,1.16-4.05,1.69-5.42c0.58-1.48,1.17-3,1.9-6.1c0.71-2.99,0.99-4.53,1.26-6.02c0.27-1.49,0.53-2.9,1.2-5.77 s1.09-4.24,1.52-5.69c0.44-1.45,0.89-2.95,1.6-5.93l1.35-5.69c0.36-1.52,0.71-2.98,1.43-6.02c0.71-3.04,0.93-4.63,1.14-6.16 c0.2-1.48,0.39-2.87,1.05-5.68c0.67-2.86,1.07-4.23,1.5-5.68c0.43-1.45,0.87-2.96,1.57-5.96c0.32-1.38-0.53-2.75-1.91-3.08 c-1.38-0.32-2.75,0.53-3.08,1.91c-0.67,2.86-1.07,4.23-1.5,5.68s-0.87,2.96-1.57,5.96c-0.71,3.05-0.93,4.63-1.14,6.16 c-0.2,1.48-0.39,2.87-1.05,5.68c-0.72,3.03-1.06,4.49-1.42,6l-1.35,5.7c-0.67,2.83-1.08,4.19-1.52,5.63c-0.44,1.46-0.9,2.97-1.61,6 c-0.71,3-0.99,4.54-1.26,6.03c-0.27,1.49-0.53,2.9-1.2,5.76c-0.65,2.75-1.15,4.05-1.69,5.42c-0.58,1.47-1.17,3-1.91,6.11 c-0.32,1.38,0.53,2.76,1.9,3.08c0.2,0.05,0.4,0.07,0.59,0.07C478.48,328.12,479.53,327.33,479.81,326.15z M460.09,409.1 c0.49-2.03,0.78-3,1.09-4.03c0.32-1.05,0.65-2.14,1.17-4.3c0.33-1.37-0.51-2.76-1.89-3.09c-1.37-0.33-2.76,0.51-3.09,1.89 c-0.49,2.03-0.78,3-1.09,4.03c-0.32,1.05-0.65,2.14-1.17,4.31c-0.33,1.38,0.51,2.76,1.89,3.09c0.2,0.05,0.4,0.07,0.6,0.07 C458.76,411.06,459.81,410.27,460.09,409.1z M433.59,477.89c2.4-1.74,4.31-4.35,6.34-7.12c0.32-0.44,0.66-0.9,1-1.36 c2.04-2.75,4.3-7.37,6.05-12.34c0.82-2.34,1.47-4.92,2.09-7.41c0.44-1.75,0.89-3.55,1.4-5.29c0.5-1.69,1.02-3.37,1.53-5.02 c0.82-2.64,1.6-5.14,2.23-7.53l0.81-3c1.11-4.12,1.18-4.36,2.46-9.69c0.33-1.37-0.52-2.76-1.89-3.09c-1.38-0.33-2.76,0.52-3.09,1.89 c-1.27,5.26-1.31,5.42-2.42,9.55l-0.81,3c-0.61,2.29-1.37,4.74-2.18,7.33c-0.52,1.67-1.05,3.37-1.55,5.09 c-0.55,1.84-1.01,3.7-1.46,5.5c-0.62,2.49-1.21,4.84-1.95,6.95c-1.88,5.32-3.99,9.17-5.34,10.99c-0.35,0.47-0.68,0.93-1.01,1.38 c-1.86,2.54-3.46,4.74-5.2,5.99c-2.14,1.54-4.53,1.91-7.99,1.24c-1.4-0.26-2.73,0.64-3,2.03c-0.27,1.39,0.64,2.73,2.03,3 c1.39,0.27,2.7,0.4,3.93,0.4C428.63,480.41,431.23,479.58,433.59,477.89z M90.85,404.28c0.33-1.37-0.51-2.76-1.89-3.09 c-2.84-0.68-4.18-1.17-5.6-1.68c-1.48-0.54-3.02-1.09-6.12-1.84c-3.08-0.75-4.68-0.98-6.23-1.21c-1.5-0.22-2.92-0.43-5.77-1.12 c-2.88-0.7-4.25-1.13-5.7-1.6c-1.48-0.47-3-0.96-6.05-1.7c-2.93-0.71-4.41-1.11-5.84-1.5c-1.47-0.4-2.99-0.81-5.99-1.53 c-3.01-0.73-4.55-1.05-6.04-1.36c-1.52-0.31-2.95-0.61-5.87-1.32c-1.37-0.33-2.76,0.51-3.09,1.89c-0.33,1.37,0.51,2.76,1.89,3.09 c3.01,0.73,4.55,1.05,6.04,1.36c1.52,0.31,2.95,0.61,5.87,1.32c2.94,0.71,4.35,1.09,5.85,1.5c1.47,0.4,2.98,0.81,5.98,1.53 c2.87,0.7,4.25,1.13,5.7,1.6c1.48,0.47,3,0.96,6.06,1.7c3.08,0.74,4.68,0.98,6.23,1.21c1.5,0.22,2.92,0.43,5.77,1.12 c2.83,0.68,4.16,1.17,5.58,1.68c1.49,0.54,3.03,1.09,6.14,1.84c0.2,0.05,0.4,0.07,0.6,0.07C89.52,406.24,90.56,405.45,90.85,404.28z M107.73,407.49c0.33-1.37-0.51-2.76-1.88-3.09c-2.41-0.59-3.75-0.65-4.94-0.71c-1.09-0.05-2.03-0.1-3.96-0.56 c-1.37-0.33-2.76,0.52-3.09,1.89c-0.33,1.38,0.52,2.76,1.89,3.09c2.4,0.58,3.73,0.64,4.91,0.7c1.09,0.05,2.03,0.1,3.97,0.57 c0.2,0.05,0.41,0.07,0.61,0.07C106.4,409.44,107.45,408.66,107.73,407.49z"/></g></svg>