<?xml version="1.0" encoding="UTF-8"?><svg xmlns="http://www.w3.org/2000/svg" xmlns:xlink="http://www.w3.org/1999/xlink" contentScriptType="text/ecmascript" fill="#000000" width="440" zoomAndPan="magnify" contentStyleType="text/css" viewBox="-0.1 -2.2 440.0 423.5" height="423.5" preserveAspectRatio="xMidYMid meet" version="1"><g id="change1_1"><path fill="#efa54f" d="M29.44,420.59c-5.39,0-8.67-0.03-9.75-0.1c-6.2-0.37-9.63-3.21-11.1-9.2C7.45,406.71,7,402,6.67,397.6 C5.7,384.34,2.05,287.96,1.49,271.41c-0.33-9.87-0.47-19.91-0.6-29.62l-0.04-2.73c-0.4-29.62-0.43-59.75-0.46-88.88 c-0.01-14.33-0.03-28.67-0.08-43C0.25,92.42,0.46,77.42,0.67,62.9c0.06-4.34,0.12-8.68,0.18-13.02c0.07-5.73,0.11-11.83-0.33-17.99 c-0.35-4.98,0.23-9.88,0.85-14.03c0.62-4.13,3.33-7,7.86-8.31c3.04-0.88,6.24-1.23,9.34-1.56c0.81-0.09,1.62-0.18,2.43-0.27 c11.15-1.34,61.2-3.51,75.57-4.01c20.81-0.73,41.35-0.79,62.32-0.79l6.66,0c23.39,0,48.43-0.09,73.15-0.71 c14.88-0.38,118.54-1.87,157.22-1.87c7.41,0,12.16,0.05,14.11,0.16c0.19,0.01,0.41,0.01,0.67,0.01c0.72,0,1.7-0.03,2.88-0.08 c1.73-0.06,3.88-0.14,6.18-0.14c11.72,0,17.66,2.02,18.17,6.18c0.07,0.6,0.15,1.21,0.23,1.81c0.31,2.44,0.63,4.96,0.69,7.44 c0.25,10.16,0.75,142.36,0.4,164.93c-0.28,18.21-6.15,200.35-6.63,209.87c-0.31,6.01-1.58,11.81-2.78,16.68c-0.74,3-2,4.82-4.1,5.88 c-0.73,0.37-1.46,0.59-2.38,0.71c-13.1,1.76-26.02,1.98-35.81,1.98l-2.05,0c-14.85,0-74.41,1.14-122.26,2.05 c-19.76,0.38-37.27,0.71-48.26,0.9C206.87,418.87,68.52,420.59,29.44,420.59z"/></g><g id="change1_2"><path fill="#efa54f" d="M24.33,283.9c0.31,12.3,0.77,24.6,1.28,36.9c0.5,12.22,0.88,24.44,1.17,36.66 c0.29,12.7,0.69,25.41,0.52,38.12c-0.03,2.22,0.03,2.27,2.3,2.1c7.01-0.52,14.03-0.82,21.07-0.85c9.35-0.05,18.7,0.21,28.04,0.26 c17.02,0.1,34.04,0.3,51.06-0.14c8.39-0.22,16.78-0.12,25.17-0.35c20.77-0.58,41.54-0.8,62.56-1.16c0.39,0,1.03,0,1.67,0 c32.2,0.07,64.4-0.24,96.6-1.1c18.06-0.48,36.11-0.44,54.17,0.1c2.48,0.07,4.95,0.08,7.43,0.2c11.17,0.54,22.35,0.75,33.53,0.34 c1.08-0.04,1.55-0.42,1.8-1.44c1.53-6.31,2.1-12.77,2.46-19.21c0.45-8.05,0.22-16.14,0.47-24.21c0.46-14.86,0.75-29.72,1.08-44.58 c0.26-11.59,0.85-23.16,0.88-34.75c0.04-13.35,0.09-26.69,0.42-40.04c0.45-18.14,0.69-36.28,0.95-54.42 c0.27-18.46,0.19-36.92,0.47-55.39c0.27-17.74-0.04-35.49,0.35-53.23c0.31-14.15,0-28.28-0.59-42.4c-0.08-1.89-0.14-1.96-2.13-1.9 c-1.76,0.05-3.51,0.14-5.27,0.15c-30.37,0.09-60.73-0.13-91.1,0.41c-10.87,0.2-21.73,0.47-32.59,0.81 c-14.69,0.47-29.38,1.21-44.07,1.59c-17.49,0.46-34.99,0.73-52.49,0.95c-20.45,0.26-40.91,0.1-61.37,0.48 c-9.75,0.18-19.5,0.12-29.24,0.43c-12.06,0.38-24.1,1.09-36.15,1.57c-12.61,0.51-25.24,0.73-37.83,1.57 c-2.34,0.16-2.36,0.14-2.36,2.47c-0.02,11.75-0.1,23.5-0.03,35.25c0.15,25.18-0.18,50.35-0.67,75.53 c-0.41,20.86-0.79,41.72-0.63,62.58C23.45,232.76,23.69,258.33,24.33,283.9z M242.36,189.3c0.3-5.34,0.85-10.66,1.22-16 c0.63-9.08,1.23-18.16,1.79-27.25c0.25-4.06,0.35-8.14,0.55-12.21c0.73-14.68,1.62-29.34,1.68-44.05c0.02-3.57,0.05-7.19,0.68-10.75 c0.67-3.76,2-4.98,5.78-4.95c2.55,0.02,5.1,0.27,7.65,0.46c17.94,1.35,35.9,1.51,53.87,0.95c0.32-0.01,0.63-0.08,0.95-0.13 c0,0,0,0,0,0c-0.15-0.28-0.31-0.56-0.45-0.85c-1.19-2.5-0.7-3.77,1.95-4.43c1.49-0.37,2.58-1.07,3.47-2.31 c0.58-0.82,1-1.43,0.61-2.57c-0.54-1.57,0.4-2.81,2.02-3.13c2.68-0.53,7.13,1.57,8.49,4c0.59,1.05,0.52,2.07-0.46,2.77 c-0.95,0.68-1.49,1.64-2.11,2.56c-1.09,1.6-1.12,3.1,0.32,4.51c0.59-0.74,1.44-0.58,2.21-0.61c14.59-0.45,29.19-0.74,43.79-0.42 c2.54,0.06,5.09,0.35,7.62,0.67c2.67,0.34,3.72,1.6,3.36,4.21c-0.71,5.16-0.36,10.36-0.76,15.53c-0.68,8.75-1.38,17.49-2.24,26.22 c-0.41,4.21-0.79,8.42-1.14,12.63c-0.91,10.89-1.41,21.81-2.08,32.72c-0.08,1.35-0.35,2.69-0.54,4.03c0,0,0,0,0,0c0,0,0,0,0,0 c-0.7,7.39-2.52,14.45-6.53,20.76c-2.82,4.45-7,7.36-11.83,9.33c-5.49,2.24-11.29,3.34-17.09,4.39c-8.67,1.57-17.43,1.6-26.2,1.54 c-0.55,0-1.11-0.1-1.66-0.15c-7.03,0.02-14.05,0.07-21.08,0.05c-10.78-0.03-21.55-0.54-32.31-1.28c-4.47-0.31-8.94-0.15-13.41,0.07 c-1.36,0.07-2.71-0.01-4.06-0.22c-2.07-0.33-4.15-2.01-4.42-4.65C241.64,196.92,242.15,193.12,242.36,189.3z M203.82,217.36 c-0.04-0.88-0.15-1.75-0.25-2.62c-0.21-1.89-0.15-1.96,1.83-2.12c0.32-0.03,0.64-0.04,0.96-0.05l0,0c0.39-2.22,0.77-4.43,2.78-5.89 c0.65-0.47,1.3-0.94,2.09-1.13c1.89-0.45,3.26,0.44,3.68,2.36c0.42,1.93,2.73,3.76,4.69,3.49c1.22-0.17,2.2-0.03,3.04,0.89 c3.36,0.04,6.71,0.05,10.07,0.12c11.75,0.22,23.49-0.02,35.22-0.59c4.55-0.22,9.1-0.39,13.64-0.63c2.23-0.12,4.46-0.39,6.69-0.48 c2.3-0.09,3.06,0.58,3.28,2.83c0.39,3.97,0.8,7.94,0.96,11.94c0.11,2.71,0.43,5.41,0.65,8.12c0.12,1.51,0.29,3.02,0.35,4.54 c0.51,14.29,0.89,28.59,1.53,42.88c0.39,8.85,1.17,17.69,1.98,26.52c0.32,3.5,0.45,7.01,0.72,10.52c0.66,8.6,1.31,17.2,2.06,25.79 c0.21,2.46,0.76,4.89,1.11,7.34c0.34,2.4-0.6,3.42-2.98,3.47c-17.81,0.37-35.63,0.04-53.43,0.99c-15.96,0.85-31.93,1.22-47.91,1.43 c-3.59,0.05-7.19,0.02-10.79-0.03c-6.72-0.09-13.42,0.35-20.11,0.73c-2.8,0.16-5.59,0.27-8.38,0.18c-3.19-0.1-4.51-1.5-4.29-4.7 c0.29-4.34-0.15-8.63-0.63-12.91c-0.59-5.24-0.86-10.51-1.19-15.77c-0.49-7.89-1.26-15.76-1.79-23.65 c-0.4-5.9-0.41-11.82-0.76-17.72c-0.43-7.34-1.03-14.66-1.55-21.99c-0.42-5.9-0.81-11.79-1.24-17.69c-0.31-4.14-0.67-8.28-1-12.42 c-0.05-0.64-0.04-1.28-0.08-1.92c-0.07-1.09,0.44-1.56,1.52-1.7c4.43-0.59,8.84-1.39,13.28-1.85c13.34-1.37,26.7-2.61,40.05-3.9 c0.24-0.02,0.48-0.05,0.71-0.09C203.37,221.17,203.95,220.47,203.82,217.36z M52.85,100.17c6.36-1.19,12.77-2.06,19.22-2.62 c7.4-0.64,14.8-1.24,22.21-1.78c3.9-0.29,7.81-0.42,11.72-0.62c0.96-2.1,0.32-4.02-0.6-5.93c-0.34-0.71-0.93-1-1.56-1.37 c-1.77-1.04-2.1-2.6-0.86-4.18c1.11-1.4,2.59-2.37,4.32-2.82c1.76-0.46,2.75,0.11,3.44,1.65c1.09,2.43,2.35,4.67,5.41,5.06 c1.18,0.15,1.47,1.11,1.29,2.17c-0.18,1.04-0.72,1.93-1.35,2.75c-0.53,0.69-1.08,1.37-1.62,2.05c0,0,0,0,0,0c0,0,0,0,0,0 c0.18,0.2,0.35,0.41,0.53,0.61l0,0c0.62-0.98,1.66-0.87,2.58-0.92c6.78-0.36,13.56-0.66,20.34-1.04c6.94-0.39,13.87-0.87,20.81-1.25 c7.9-0.43,15.8-0.88,23.71-0.8c3.65,0.04,4.83,1.03,5.48,4.63c1.89,10.45,3.93,20.87,5.59,31.36c1.72,10.88,3.03,21.83,4.6,32.74 c1.36,9.5,1.77,19.08,2.43,28.64c0.37,5.34,0.93,10.66,1.52,15.98c0.5,4.55,0.09,9.11,0.29,13.65c0.06,1.3-0.54,1.89-1.8,2.01 c-5.56,0.53-11.1,1.33-16.69,1.58c-12.06,0.54-24.05,1.63-35.92,3.94c-9.48,1.85-19.12,2.77-28.68,4.18 c-15.4,2.27-30.87,4.08-46.06,7.64c-1.55,0.36-3.13,0.65-4.71,0.86c-3.74,0.51-5.79-0.95-6.54-4.63c-0.97-4.78-1.39-9.64-1.95-14.48 c-1.16-9.93-1.16-19.93-2.02-29.88c-1.05-12.18-1.41-24.4-2.19-36.6c-0.21-3.27-0.25-6.55-0.4-9.82c-0.3-6.48-1.46-12.85-2.33-19.26 c-0.86-6.41-1.32-12.87-2.66-19.22c-0.07-0.31-0.07-0.64-0.09-0.95C50.12,100.95,50.27,100.65,52.85,100.17z"/></g><g id="change2_1"><path fill="#fdfdfb" d="M203.82,217.36c-0.04-0.88-0.15-1.75-0.25-2.62c-0.21-1.89-0.15-1.96,1.83-2.12 c0.32-0.03,0.64-0.04,0.96-0.05c0.47,0.55,0.94,1.08,1.74,1.13c0.4,0.03,0.85,0.1,1.04,0.48c0.82,1.65,2.24,3.01,1.63,5.25 c-0.61,2.25,0.71,3.29,2.99,2.68c1.32-0.36,2.42-1.2,3.65-1.75c1.05,1.29,2.07,2.59,3.15,3.85c0.4,0.47,0.9,0.89,1.42,1.23 c0.4,0.26,0.91,0.32,1.31-0.06c0.32-0.3,0.32-0.73,0.18-1.1c-0.16-0.44-0.39-0.86-0.64-1.26c-1.02-1.6-2.05-3.18-3.08-4.77 c0,0,0,0,0,0c0,0,0,0,0,0c1.37-1.79,3.02-3.45,2.88-5.97c3.36,0.04,6.71,0.05,10.07,0.12c11.75,0.22,23.49-0.02,35.22-0.59 c4.55-0.22,9.1-0.39,13.64-0.63c2.23-0.12,4.46-0.39,6.69-0.48c2.3-0.09,3.06,0.58,3.28,2.83c0.39,3.97,0.8,7.94,0.96,11.94 c0.11,2.71,0.43,5.41,0.65,8.12c0.12,1.51,0.29,3.02,0.35,4.54c0.51,14.29,0.89,28.59,1.53,42.88c0.39,8.85,1.17,17.69,1.98,26.52 c0.32,3.5,0.45,7.01,0.72,10.52c0.66,8.6,1.31,17.2,2.06,25.79c0.21,2.46,0.76,4.89,1.11,7.34c0.34,2.4-0.6,3.42-2.98,3.47 c-17.81,0.37-35.63,0.04-53.43,0.99c-15.96,0.85-31.93,1.22-47.91,1.43c-3.59,0.05-7.19,0.02-10.79-0.03 c-6.72-0.09-13.42,0.35-20.11,0.73c-2.8,0.16-5.59,0.27-8.38,0.18c-3.19-0.1-4.51-1.5-4.29-4.7c0.29-4.34-0.15-8.63-0.63-12.91 c-0.59-5.24-0.86-10.51-1.19-15.77c-0.49-7.89-1.26-15.76-1.79-23.65c-0.4-5.9-0.41-11.82-0.76-17.72 c-0.43-7.34-1.03-14.66-1.55-21.99c-0.42-5.9-0.81-11.79-1.24-17.69c-0.31-4.14-0.67-8.28-1-12.42c-0.05-0.64-0.04-1.28-0.08-1.92 c-0.07-1.09,0.44-1.56,1.52-1.7c4.43-0.59,8.84-1.39,13.28-1.85c13.34-1.37,26.7-2.61,40.05-3.9c0.24-0.02,0.48-0.05,0.71-0.09 C203.37,221.17,203.95,220.47,203.82,217.36z M50.4,104.48c1.34,6.34,1.79,12.81,2.66,19.22c0.87,6.41,2.03,12.78,2.33,19.26 c0.15,3.27,0.19,6.55,0.4,9.82c0.78,12.2,1.14,24.42,2.19,36.6c0.86,9.95,0.86,19.95,2.02,29.88c0.57,4.84,0.98,9.7,1.95,14.48 c0.75,3.68,2.8,5.14,6.54,4.63c1.58-0.22,3.16-0.5,4.71-0.86c15.19-3.56,30.66-5.37,46.06-7.64c9.56-1.41,19.19-2.33,28.68-4.18 c11.87-2.32,23.86-3.4,35.92-3.94c5.59-0.25,11.12-1.05,16.69-1.58c1.26-0.12,1.86-0.71,1.8-2.01c-0.19-4.55,0.22-9.1-0.29-13.65 c-0.59-5.32-1.15-10.64-1.52-15.98c-0.67-9.56-1.07-19.14-2.43-28.64c-1.57-10.91-2.88-21.85-4.6-32.74 c-1.66-10.48-3.69-20.91-5.59-31.36c-0.65-3.59-1.83-4.59-5.48-4.63c-7.91-0.08-15.81,0.37-23.71,0.8 c-6.94,0.38-13.87,0.86-20.81,1.25c-6.78,0.38-13.56,0.67-20.34,1.04c-0.93,0.05-1.96-0.06-2.58,0.92l0,0c0,0,0,0,0,0 c0.54,0.97,1.09,1.94,1.63,2.92c0.27,0.49,0.57,0.97,0.75,1.49c0.21,0.6,0.36,1.28-0.36,1.68c-0.59,0.33-1.07,0-1.5-0.39 c-0.23-0.21-0.46-0.45-0.64-0.7c-0.95-1.28-1.88-2.57-2.82-3.85c-0.9-0.04-1.66,0.47-2.51,0.65c-1.75,0.37-2.74-0.14-3.54-1.8 c-3.91,0.2-7.82,0.34-11.72,0.62c-7.41,0.54-14.81,1.13-22.21,1.78c-6.45,0.56-12.86,1.43-19.22,2.62 c-2.58,0.48-2.73,0.78-2.54,3.36C50.34,103.84,50.34,104.17,50.4,104.48z M246.44,205.42c1.35,0.21,2.69,0.29,4.06,0.22 c4.47-0.22,8.94-0.38,13.41-0.07c10.76,0.74,21.52,1.25,32.31,1.28c7.03,0.02,14.05-0.03,21.08-0.05 c5.48-3.63,10.43-7.87,14.81-12.78c4.93-5.53,8.65-11.83,11.9-18.44c0.18-0.36,0.34-0.72,0.49-1.09c0.43-1.13,1.15-1.36,2.27-0.89 c2.15,0.89,4.4,1.36,6.7,1.71c3.84,0.59,7.61,0.27,11.41-0.34c5.37-0.87,10.56-2.43,15.73-4.03c0,0,0,0,0,0 c0.18-1.34,0.45-2.68,0.54-4.03c0.67-10.91,1.17-21.83,2.08-32.72c0.35-4.21,0.73-8.42,1.14-12.63c0.85-8.73,1.56-17.48,2.24-26.22 c0.4-5.17,0.05-10.37,0.76-15.53c0.36-2.61-0.7-3.87-3.36-4.21c-2.53-0.32-5.08-0.62-7.62-0.67c-14.6-0.32-29.2-0.03-43.79,0.42 c-0.77,0.02-1.62-0.13-2.21,0.61c0.17,2.18-0.29,2.83-2.26,3.03c-1.44,0.15-2.87-0.01-4.28-0.31c-0.47-0.1-0.91-0.29-1.39-0.04 c0,0,0,0,0,0c0,0,0,0,0,0c-0.96,1.72-1.9,3.45-2.89,5.15c-0.41,0.7-0.96,1.37-1.9,0.92c-0.94-0.45-0.79-1.29-0.48-2.05 c0.74-1.82,1.54-3.62,2.32-5.44c-0.78-0.94-2.06-1.07-2.95-1.83c-0.32,0.04-0.63,0.12-0.95,0.13c-17.97,0.56-35.93,0.4-53.87-0.95 c-2.55-0.19-5.1-0.44-7.65-0.46c-3.78-0.03-5.11,1.19-5.78,4.95c-0.63,3.56-0.66,7.18-0.68,10.75c-0.07,14.71-0.96,29.37-1.68,44.05 c-0.2,4.07-0.3,8.14-0.55,12.21c-0.56,9.09-1.16,18.17-1.79,27.25c-0.37,5.34-0.93,10.66-1.22,16c-0.21,3.81-0.73,7.61-0.34,11.47 C242.28,203.41,244.37,205.1,246.44,205.42z"/></g><g id="change3_1"><path fill="#87bfa8" d="M364.87,174.97c5.37-0.87,10.56-2.43,15.73-4.03c0,0,0,0,0,0c-0.7,7.39-2.52,14.45-6.53,20.76 c-2.82,4.45-7,7.36-11.83,9.33c-5.49,2.24-11.29,3.34-17.09,4.39c-8.67,1.57-17.43,1.6-26.2,1.54c-0.55,0-1.11-0.1-1.66-0.15 c5.48-3.63,10.43-7.87,14.81-12.78c4.93-5.53,8.65-11.83,11.9-18.44c0.18-0.36,0.34-0.72,0.49-1.09c0.43-1.13,1.15-1.36,2.27-0.89 c2.15,0.89,4.4,1.36,6.7,1.71C357.3,175.9,361.07,175.58,364.87,174.97z M208.11,213.7c0.4,0.03,0.85,0.1,1.04,0.48 c0.82,1.65,2.24,3.01,1.63,5.25c-0.61,2.25,0.71,3.29,2.99,2.68c1.32-0.36,2.42-1.2,3.65-1.75c0.56-0.95,1.48-1.49,2.34-2.11 c0,0,0,0,0,0c1.37-1.79,3.02-3.45,2.88-5.97c-0.83-0.92-1.82-1.06-3.04-0.89c-1.96,0.27-4.27-1.55-4.69-3.49 c-0.42-1.92-1.79-2.81-3.68-2.36c-0.79,0.19-1.44,0.65-2.09,1.13c-2.02,1.46-2.39,3.67-2.78,5.89l0,0 C206.83,213.12,207.31,213.65,208.11,213.7z"/></g><g id="change4_1"><path fill="#eb8b8f" d="M316.54,75.39C316.54,75.39,316.54,75.39,316.54,75.39c-0.15-0.28-0.31-0.56-0.45-0.85 c-1.19-2.5-0.7-3.77,1.95-4.43c1.49-0.37,2.58-1.07,3.47-2.31c0.58-0.82,1-1.43,0.61-2.57c-0.54-1.57,0.4-2.81,2.02-3.13 c2.68-0.53,7.13,1.57,8.49,4c0.59,1.05,0.52,2.07-0.46,2.77c-0.95,0.68-1.49,1.64-2.11,2.56c-1.09,1.6-1.12,3.1,0.32,4.51 c0.17,2.18-0.29,2.83-2.26,3.03c-1.44,0.15-2.87-0.01-4.28-0.31c-0.47-0.1-0.91-0.29-1.39-0.04c0,0,0,0,0,0 c-0.84-0.76-1.92-1.04-2.95-1.41C318.71,76.28,317.43,76.15,316.54,75.39z M109.54,96.94c0.85-0.18,1.61-0.68,2.51-0.65 c0.7-0.72,1.56-1.24,2.41-1.76c0,0,0,0,0,0c0.54-0.68,1.09-1.36,1.62-2.05c0.64-0.83,1.18-1.71,1.35-2.75 c0.18-1.06-0.1-2.02-1.29-2.17c-3.06-0.39-4.32-2.63-5.41-5.06c-0.69-1.54-1.68-2.12-3.44-1.65c-1.73,0.46-3.21,1.42-4.32,2.82 c-1.25,1.58-0.92,3.14,0.86,4.18c0.63,0.37,1.22,0.66,1.56,1.37c0.92,1.92,1.56,3.84,0.6,5.93C106.8,96.8,107.78,97.31,109.54,96.94 z"/></g><g id="change5_1"><path fill="#3f3a6d" d="M0.01,107.18c0.17,43.96-0.05,87.92,0.54,131.88c0.15,10.79,0.27,21.58,0.64,32.36 c0.51,15.01,4.19,112.74,5.18,126.2c0.34,4.62,0.81,9.23,1.92,13.74c1.5,6.08,5.09,9.05,11.38,9.42 c9.65,0.58,184.92-1.59,195.31-1.73c37.63-0.65,151.69-3,171.11-2.95c12.46,0.03,24.92-0.32,37.3-1.98 c0.89-0.12,1.67-0.33,2.48-0.74c2.52-1.28,3.63-3.54,4.25-6.08c1.36-5.51,2.5-11.06,2.79-16.74c0.39-7.58,6.33-190.79,6.63-209.88 c0.36-22.93-0.15-154.72-0.4-164.94c-0.08-3.11-0.54-6.19-0.92-9.28c-1.04-8.61-24.11-6.03-28.18-6.25 C396.48-0.54,256.03,1.47,238.7,1.91c-25.24,0.64-50.5,0.71-75.75,0.71c-22.13-0.01-44.26,0.01-66.39,0.79 C82.59,3.9,32.15,6.08,20.96,7.42C17,7.9,13,8.16,9.14,9.27c-4.34,1.26-7.4,4-8.08,8.55c-0.69,4.65-1.19,9.38-0.85,14.09 c0.43,5.99,0.41,11.98,0.33,17.97C0.31,68.98-0.07,88.08,0.01,107.18z M23.88,144.61c0.49-25.17,0.82-50.35,0.67-75.53 c-0.07-11.75,0.01-23.5,0.03-35.25c0-2.33,0.02-2.31,2.36-2.47c12.6-0.84,25.22-1.06,37.83-1.57c12.05-0.49,24.1-1.19,36.15-1.57 c9.74-0.31,19.5-0.24,29.24-0.43c20.45-0.38,40.91-0.22,61.37-0.48c17.5-0.22,35-0.5,52.49-0.95c14.69-0.38,29.38-1.12,44.07-1.59 c10.86-0.35,21.72-0.62,32.59-0.81c30.36-0.55,60.73-0.33,91.1-0.41c1.76-0.01,3.51-0.1,5.27-0.15c1.99-0.06,2.05,0.02,2.13,1.9 c0.6,14.13,0.9,28.25,0.59,42.4c-0.39,17.74-0.08,35.49-0.35,53.23c-0.28,18.46-0.2,36.93-0.47,55.39 c-0.27,18.14-0.5,36.28-0.95,54.42c-0.33,13.35-0.38,26.69-0.42,40.04c-0.03,11.59-0.62,23.17-0.88,34.75 c-0.34,14.86-0.63,29.72-1.08,44.58c-0.25,8.07-0.03,16.16-0.47,24.21c-0.36,6.44-0.92,12.9-2.46,19.21 c-0.25,1.02-0.72,1.4-1.8,1.44c-11.18,0.41-22.36,0.2-33.53-0.34c-2.47-0.12-4.95-0.13-7.43-0.2c-18.05-0.55-36.11-0.58-54.17-0.1 c-32.19,0.86-64.39,1.17-96.6,1.1c-0.64,0-1.28,0-1.67,0c-21.02,0.37-41.8,0.59-62.56,1.16c-8.39,0.23-16.78,0.13-25.17,0.35 c-17.02,0.45-34.04,0.24-51.06,0.14c-9.35-0.05-18.69-0.31-28.04-0.26c-7.04,0.03-14.05,0.33-21.07,0.85 c-2.27,0.17-2.33,0.12-2.3-2.1c0.17-12.71-0.22-25.42-0.52-38.12c-0.28-12.22-0.67-24.44-1.17-36.66 c-0.5-12.29-0.96-24.59-1.28-36.9c-0.65-25.57-0.88-51.14-1.08-76.72C23.09,186.32,23.48,165.47,23.88,144.61z M114.46,94.54 C114.46,94.54,114.46,94.54,114.46,94.54c0.18,0.2,0.35,0.41,0.53,0.61c0,0,0,0,0,0c0.54,0.97,1.09,1.94,1.63,2.92 c0.27,0.49,0.57,0.97,0.75,1.49c0.21,0.6,0.36,1.28-0.36,1.68c-0.59,0.33-1.07,0-1.5-0.39c-0.23-0.21-0.46-0.45-0.64-0.7 c-0.95-1.28-1.88-2.57-2.82-3.85C112.75,95.57,113.61,95.06,114.46,94.54z M219.76,218.25 C219.76,218.25,219.76,218.25,219.76,218.25c1.03,1.59,2.06,3.17,3.08,4.77c0.25,0.4,0.47,0.82,0.64,1.26 c0.14,0.37,0.13,0.8-0.18,1.1c-0.4,0.38-0.91,0.32-1.31,0.06c-0.52-0.35-1.01-0.76-1.42-1.23c-1.08-1.26-2.1-2.56-3.15-3.85 C217.98,219.41,218.9,218.87,219.76,218.25z M322.44,78.63C322.44,78.63,322.44,78.63,322.44,78.63c-0.96,1.72-1.9,3.45-2.89,5.15 c-0.41,0.7-0.96,1.37-1.9,0.92c-0.94-0.45-0.79-1.29-0.48-2.05c0.74-1.82,1.54-3.62,2.32-5.44 C320.52,77.59,321.6,77.87,322.44,78.63z"/></g></svg>