<?xml version="1.0" encoding="UTF-8"?><svg xmlns="http://www.w3.org/2000/svg" xmlns:xlink="http://www.w3.org/1999/xlink" contentScriptType="text/ecmascript" fill="#000000" width="262.3" zoomAndPan="magnify" contentStyleType="text/css" viewBox="-0.4 -0.3 262.3 233.8" height="233.8" preserveAspectRatio="xMidYMid meet" version="1"><g id="change1_1"><path fill="#ffe8e5" d="M260.6693,174.4778c-2.3295,11.8575-8.6478,23.1342-16.0123,32.583 c-3.3047,4.2401-6.9986,8.2835-11.3201,11.5098c-3.9963,2.9835-8.5406,5.2093-13.1697,7.0236 c-11.1943,4.3876-23.3191,6.4383-35.2811,7.1554c-12.3889,0.7427-25.0267,0.0178-37.1226-2.8672 c-10.0417-2.395-20.3593-6.4035-27.6461-13.9856c-5.8131-6.0486-10.3959-13.1993-16.5981-18.8867 c-6.1645-5.6529-13.5876-10.068-21.1322-13.6105c-6.4452-3.0263-13.1631-5.4029-19.701-8.2122 c-6.8237-2.9321-13.3278-6.4724-19.1965-11.0497c-6.2335-4.8618-11.6954-10.4933-15.0317-17.741 c-3.0371-6.5978-4.3911-13.8212-4.8831-21.0316c-0.5237-7.673,0.1002-15.2655,0.4742-22.9237 c0.214-4.3822-0.218-8.646-2.8767-12.2839c-2.2297-3.051-5.3276-5.3648-8.2169-7.7476C7.9646,78.2941,3.8781,73.566,1.7248,67.3778 c-1.9366-5.5656-2.1429-11.5977-1.1139-17.3693C2.8543,37.425,10.7297,26.0121,20.9002,18.4587 c5.391-4.0039,11.6279-7.0421,17.8195-9.5931c5.9659-2.458,12.176-4.2753,18.5229-5.4353 C72.107,0.7136,87.397,1.3148,102.402,2.2397c7.5645,0.8555,15.1653,0.911,22.7375,0.1264 c5.655-0.5861,11.2476-1.699,16.9114-2.1958c5.2369-0.4594,10.3213-0.024,15.2945,1.74 c7.1222,2.5262,13.2196,6.7949,19.4445,10.9651c3.0923,2.0716,6.253,4.0469,9.6051,5.6744c3.5076,1.703,7.2103,2.9151,10.919,4.0943 c6.813,2.1662,13.7121,4.0756,20.4337,6.5214c6.2292,2.2666,12.4212,4.9895,17.705,9.0547 c5.181,3.9861,9.2527,9.3551,10.9792,15.7232c1.9974,7.3675,0.5466,15.0904-2.2311,22.0521 c-3.1475,7.8884-7.813,15.08-12.6116,22.0468c-4.0791,5.9222-9.155,12.085-9.7623,19.5525 c-0.5178,6.367,2.9189,11.8567,7.0159,16.4197c2.7434,3.0555,5.7851,6.0891,9.0744,8.5548 c3.1661,2.3733,6.7485,4.1084,10.2121,5.9916c5.0326,2.7363,10.0432,5.791,12.0942,11.4042 C261.9091,164.5786,261.6004,169.7385,260.6693,174.4778z"/></g></svg>