<svg width="113.5" height="77.2" viewBox="-0.3 -1.3 113.5 77.2" xmlns="http://www.w3.org/2000/svg" xmlns:xlink="http://www.w3.org/1999/xlink" overflow="hidden"><style>
.MsftOfcThm_Accent6_lumMod_40_lumOff_60_Fill_v2 {
 fill:#C5E0B4; 
}
</style>
<g id="change1_1"><path d="M61 53.7C62.6 57.4 60.5 60.6 57.7 61.8 56.9 62.2 56 62.4 55 62.4 52.8 62.4 50.7 61.3 49.5 58.7 47.9 55 50 51.8 52.8 50.6 55.7 49.4 59.4 50 61 53.7L61 53.7ZM62 0.7C54.1-1.3 43.9 1 39.7 9.1 37.6 12.6 37.9 17 40.4 20 42.7 22.8 46.4 23.7 49.9 22.3 52.2 21.4 53.9 19.6 54.6 17.2 55.2 15.2 55.1 13.1 54.4 11.2 56.3 10.7 58.2 10.8 59.3 12.6 61 15.5 59.8 21.7 55.9 24.8L55.8 24.9C51.4 29.3 49.3 33.7 49.4 38.3 49.3 42.3 50.7 45.4 53.2 46.6 53.8 46.9 54.5 47.1 55.2 47.1 56.4 47.1 57.7 46.6 58.8 45.7L59 45.5C60.6 43.7 60.6 41.1 60.5 40.3 60 36.7 63.1 34.2 66.1 31.7L66.6 31.3C72.3 27 75.5 21.3 75.4 16.1 75.2 8.6 70.2 2.7 62 0.7ZM31.6 66.6C34.1 68.7 33.7 71.8 32.1 73.7 31.6 74.3 31 74.7 30.4 75.1 28.8 75.9 26.8 75.8 25.1 74.4 22.6 72.2 23 69.2 24.6 67.3 26.2 65.3 29.1 64.4 31.6 66.6L31.6 66.6ZM13.4 27.4C6.9 28.8 0.2 34 0 41.5-0.3 44.8 1.5 47.9 4.4 49.2 7.1 50.4 10.1 49.8 12.2 47.5 13.6 46.1 14.2 44.1 13.8 42.1 13.5 40.4 12.7 38.9 11.5 37.8 12.7 36.8 14.2 36.2 15.6 37.1 17.9 38.6 19.2 43.6 17.5 47.2L17.4 47.3C15.7 52.1 15.8 56 17.5 59.4 18.8 62.3 21 64.2 23.2 64.2 23.8 64.2 24.3 64.1 24.8 63.8 25.7 63.4 26.4 62.6 26.9 61.5L27 61.3C27.6 59.4 26.6 57.5 26.2 57 24.6 54.5 25.9 51.6 27.2 48.7L27.4 48.2C30 43 30.4 37.7 28.4 34 25.9 28.5 20.1 25.9 13.4 27.4ZM88.5 69.9C88.5 73.2 86 74.9 83.5 74.9 82.8 74.9 82 74.8 81.3 74.5 79.7 73.8 78.4 72.3 78.3 70 78.3 66.7 80.8 65 83.3 65 85.8 65 88.4 66.6 88.5 69.9L88.5 69.9ZM105.8 30.3C100.5 26.4 92.1 24.9 86.4 29.6 83.7 31.6 82.6 34.9 83.5 38 84.4 40.8 86.8 42.6 89.9 42.7 91.9 42.8 93.7 41.9 95 40.4 96.1 39.1 96.7 37.5 96.7 35.8 98.3 36 99.7 36.7 99.9 38.4 100.3 41.1 97.4 45.4 93.6 46.5L93.5 46.5C88.8 48.4 85.9 51.1 84.5 54.6 83.2 57.5 83.3 60.4 84.7 62.1 85.1 62.5 85.5 62.9 86.1 63.1 87 63.5 88.1 63.5 89.3 63.2L89.5 63.1C91.3 62.3 92 60.3 92.2 59.7 93 56.9 96.1 55.9 99.1 55L99.6 54.9C105.2 53.4 109.4 50.2 111 46.2 113.2 40.4 111.3 34.4 105.8 30.3Z" class="MsftOfcThm_Accent6_lumMod_40_lumOff_60_Fill_v2" fill="#C5E0B4"/></g><g id="change2_1"><path d="M57.7 61.8C56.9 62.2 56 62.4 55 62.4 53.3 62.4 51.6 61.7 50.4 60.2 51.5 61 52.7 61.4 54 61.4 54.9 61.4 55.8 61.2 56.7 60.8 59.5 59.6 61.5 56.4 60 52.7L60 52.7C59.8 52.1 59.5 51.7 59.1 51.2 59.9 51.8 60.5 52.6 61 53.7L61 53.7C62.6 57.4 60.6 60.6 57.7 61.8ZM54.6 17.2C55.2 15.2 55.1 13.1 54.4 11.2 55.8 10.9 57.2 10.8 58.2 11.5 57.2 9.8 55.2 9.8 53.4 10.2 54.1 12.1 54.2 14.3 53.6 16.2 52.9 18.6 51.2 20.4 48.9 21.3 45.9 22.5 42.7 22 40.4 20 42.7 22.8 46.3 23.6 49.9 22.3 52.1 21.4 53.8 19.6 54.6 17.2ZM70.3 5C72.8 7.7 74.2 11.3 74.2 15.2 74.4 20.4 71.1 26.1 65.4 30.4L64.9 30.8C61.9 33.3 58.9 35.8 59.3 39.4 59.4 40.2 59.5 42.8 57.8 44.6L57.6 44.8C56.5 45.7 55.2 46.2 54 46.2 53.3 46.2 52.6 46 52 45.7 51.7 45.6 51.4 45.4 51.2 45.2 51.7 45.8 52.3 46.4 53 46.7 53.6 47 54.3 47.2 55 47.2 56.2 47.2 57.5 46.7 58.6 45.8L58.8 45.6C60.4 43.8 60.4 41.2 60.3 40.4 59.8 36.8 62.9 34.3 65.9 31.8L66.4 31.4C72.1 27.1 75.3 21.4 75.2 16.2 75.2 11.7 73.4 7.8 70.3 5ZM32.1 73.6C31.6 74.2 31 74.6 30.4 75 29.2 75.6 27.7 75.7 26.2 75 27.3 75.2 28.3 75.1 29.3 74.6 30 74.3 30.6 73.8 31 73.2 32.6 71.3 33 68.3 30.5 66.1L30.5 66.1C30.1 65.8 29.7 65.5 29.3 65.3 30.1 65.5 30.8 65.8 31.6 66.4L31.6 66.4C34.1 68.7 33.7 71.7 32.1 73.6ZM13.8 42.1C13.5 40.4 12.7 38.9 11.5 37.8 12.4 37.1 13.4 36.5 14.4 36.6 13 35.8 11.6 36.4 10.4 37.4 11.6 38.5 12.5 40.1 12.7 41.7 13 43.7 12.4 45.6 11.1 47.1 9.3 49 6.8 49.8 4.5 49.2 7.2 50.4 10.2 49.7 12.2 47.5 13.5 46.1 14.1 44.1 13.8 42.1ZM21 27.5C23.8 28.6 26.1 30.7 27.5 33.6 29.5 37.3 29.1 42.7 26.5 47.8L26.3 48.3C25 51.2 23.7 54.1 25.3 56.6 25.6 57.2 26.6 59 26.1 60.9L26 61.1C25.5 62.2 24.8 63 23.9 63.4 23.4 63.6 22.8 63.8 22.3 63.8 22 63.8 21.8 63.8 21.5 63.7 22.1 64 22.7 64.2 23.4 64.2 24 64.2 24.5 64.1 25 63.8 25.9 63.4 26.6 62.6 27.1 61.5L27.2 61.3C27.8 59.4 26.8 57.5 26.4 57 24.8 54.5 26.1 51.6 27.4 48.7L27.6 48.2C30.2 43 30.6 37.7 28.6 34 27 30.7 24.3 28.5 21 27.5ZM83.5 74.9C82.8 74.9 82 74.8 81.3 74.5 80 74 79 72.9 78.5 71.4 79 72.4 79.9 73 80.8 73.4 81.5 73.7 82.2 73.8 83 73.8 85.5 73.8 88 72 88 68.8L88 68.8C88 68.3 87.9 67.9 87.8 67.4 88.2 68.1 88.4 68.9 88.4 69.8L88.4 69.8C88.5 73.1 86 74.9 83.5 74.9ZM95 40.4C96.1 39.1 96.7 37.5 96.7 35.8 97.8 36 98.9 36.4 99.5 37.2 99.2 35.6 97.8 35 96.3 34.7 96.3 36.4 95.7 38 94.6 39.3 93.3 40.9 91.5 41.7 89.5 41.6 86.8 41.5 84.7 40.2 83.5 38 84.4 40.8 86.8 42.6 89.9 42.7 91.9 42.8 93.7 42 95 40.4ZM110.7 36.1C111.7 38.9 111.7 42 110.4 45 108.9 49 104.7 52.2 99 53.7L98.5 53.8C95.5 54.7 92.4 55.7 91.6 58.5 91.4 59.1 90.7 61.1 88.9 61.9L88.8 62C87.6 62.3 86.6 62.3 85.6 61.9 85.1 61.7 84.6 61.4 84.2 60.9 84 60.7 83.9 60.5 83.7 60.3 83.9 60.9 84.2 61.5 84.6 62 85 62.4 85.4 62.8 86 63 86.9 63.4 88 63.4 89.2 63.1L89.4 63C91.2 62.2 91.9 60.2 92.1 59.6 92.9 56.8 96 55.8 99 54.9L99.5 54.8C105.1 53.3 109.3 50.1 110.9 46.1 112.3 42.7 112.2 39.2 110.7 36.1Z" class="MsftOfcThm_Accent6_lumMod_40_lumOff_60_Fill_v2" fill="#C5E0B4"/></g></svg>