<?xml version="1.0" encoding="UTF-8" standalone="no"?><svg xmlns="http://www.w3.org/2000/svg" xmlns:xlink="http://www.w3.org/1999/xlink" contentScriptType="text/ecmascript" fill="#000000" width="371" zoomAndPan="magnify" contentStyleType="text/css" viewBox="-0.3 2.5 371.0 332.1" height="332.1" preserveAspectRatio="xMidYMid meet" version="1"><g fill="#89b847" id="change1_1"><path fill="inherit" d="M356,231.9c-2.2-2.4-5-3.7-8.3-3.2c-2.8,0.5-5.4,2-7.8,3.3c-2.9,1.6-5.5,3.8-8.2,5.8 c-0.8,0.6-1.4,1.3-1.9,2.1c-1,1.4-2,2.7-3,4c-0.3,0.4-0.6,0.9-1.1,0.7c-0.7-0.3-0.3-1-0.2-1.5c0.3-1,0.7-2,0.9-3 c0.8-3.1,1.7-6.2,2.4-9.3c1.3-5.1,2.6-10.2,3.8-15.2c-0.5-0.4-1-0.8-1.7-0.8c-1.3,0-2.5-0.6-3.6-1c-1.1,3.5-2,7.1-3.5,10.4 c-1.8,4-2.2,8.4-3.8,12.5c-0.8,2.1-1.1,4.3-1.7,6.4c-1.5,5.4-3.5,10.7-4.4,16.3c0,0.2,0,0.5-0.1,0.7c-1.6,1.8-1.2,4.2-1.7,6.3 c-0.1,0.7,0,1.4-0.2,2.1c-0.6,2.6-1.7,5.1-2,7.8c-0.1,0.6-0.3,1.2-0.9,1.6c-0.5-0.1-0.7-0.4-0.8-0.8c-0.7-2.2-2.3-3.7-3.9-5.1 c-1.9-1.7-3.6-3.6-5.1-5.6c-2.3-2.9-5.3-4.4-8.7-5c-2.6-0.5-5.1,0.2-7.1,2.5c-1.4,1.6-2.8,3.1-4.1,4.8c-2,2.7-2.4,5.6-2.2,8.7 c0.1,1-0.6,2.1,0,3c1.3,1.9,2.1,4.2,4,5.6c2,1.4,4,2.9,6.1,4.2c2.1,1.4,4.7,2,7.1,3c1.7,0.7,3.6,1.1,5.6,1.3 c1.7,0.2,3.5,0.1,5.2,0.5c1.3,0.3,1.6,0.7,1.4,2c-0.1,0.7-0.4,1.3-0.4,2.1c0.2,3.1-0.6,6.1-0.6,9.2c0,1.7,0.1,3.3,0.5,4.9 c0.4,1.5,1.5,2.2,2.9,2.5c1.2,0.2,2.8-1,3.3-2.4c0.4-1.1,0.8-2.4,0.5-3.5c-0.6-2.6,0.5-5.1,0.4-7.8c-0.2-3.7,0.8-7.3,1.4-10.9 c1.1-7,2.7-14,4.1-21c0.2-1.1,0.7-1.8,1.9-2.1c2.3-0.7,4.7-0.9,7-1.4c6.1-1.3,12.3-2.5,17.5-6.2c1.8-1.3,3.9-2.1,5.4-3.8 c1.2-1.4,2.4-2.8,3.6-4.1c2.9-3,4.4-6.6,5.1-10.8C359.7,238,358.6,234.7,356,231.9z M352.6,231.7c0,0.1-0.2,0.1-0.4,0.2 c-0.3-0.1-0.4-0.3-0.3-0.5c0-0.1,0.2-0.2,0.4-0.2C352.6,231.2,352.7,231.4,352.6,231.7z"/><path fill="inherit" d="M194.5,257.6c-1.6-2-3.5-3.3-5.8-4.4c-2.5-1.2-4.8-1.6-7.1,0.2c-0.6,0.5-1.3,0.9-2.1,1.2 c-4.3,1.8-7.4,5-10.3,8.4c-2.1,2.5-4.1,5.3-5.3,8.4c-0.2,0.5-0.5,1.2-1.1,1.1c-0.7-0.1-0.7-0.8-0.7-1.3c-0.1-2.4-0.9-4.7-1.4-7 c0-0.8,0.5-1.8-0.7-2.3c-0.2-1.2-0.4-2.3-0.6-3.5c0.6-1.6,0.4-3-0.8-4.2c0-0.7-0.1-1.3-0.1-2c0.5-1-0.1-1.6-0.7-2.3 c-0.1-0.5-0.1-0.9-0.2-1.4c0.5-0.8,0.4-1.4-0.2-2.1c-0.1-0.6-0.3-1.3-0.4-1.9c0.7-0.5,0.2-0.7-0.2-0.9c-0.1-0.3-0.1-0.7-0.2-1 c0.8-1.9-0.2-3.3-1.4-4.7c-0.3-1.9-0.6-3.8-0.9-5.7c-0.7-0.5-1.5-0.7-2.4-0.6c-1.6,0.2-3.2,0.5-4.8,1c0.5,4,1,8.1,1.6,12.1 c0.2,1.7,0.9,3.4,1,5.2c0.2,2.6,0.6,5.2,1,7.7c0.1,0.9,0.7,1.8,0.8,2.8c0.2,3.3,0.9,6.4,1.3,9.7c0.8,6.4,2.1,12.9,1.8,19.4 c0,0.8,0.2,1.6,0.4,2.4c0.5,2,0.9,4,0.9,6.1c0,0.4,0.1,0.8-0.4,1c-0.5,0.1-0.7-0.3-0.9-0.6c-1.4-3.1-4-5.2-6.5-7.4 c-1.5-1.3-3.3-1.9-4.9-3c-2.7-1.8-5.8-1.8-8.7-1.2c-4.6,1-9.4,5.5-9.5,11.4c-0.1,4.4,1.5,7.9,5.4,10.1c1.8,1,3.8,1.9,5.3,3.1 c2.2,1.7,4.7,2.1,7.1,2.4c3.6,0.5,7.1-0.1,10.6-1.2c3.3-1.1,3.7-0.7,4,2.9c0,0.5,0,1,0,1.4c-0.1,1.2,0.2,2.3,0.4,3.5 c0.4,2.4,0.9,4.9,0.7,7.3c-0.2,2.2,0.4,3.7,1.7,5.2c1.5,1.6,2.2,1.7,4.2,0.7c1.1-0.5,1.3-1.5,1.5-2.5c0.6-4,0.6-8.1,0.3-12.1 c-0.4-3.8,0.2-7.7-0.4-11.5c-0.6-4.1,0.1-8.3-0.8-12.4c-0.2-0.9,0.2-1.4,1-1.6c2.8-0.8,5.5-1.8,8.3-2.3c3.8-0.7,7.3-2.2,10.2-4.5 c3.5-2.6,6.8-5.7,9.6-9.2c1.6-2,2.2-4.4,3-6.7c0.4-1.2,0.6-2.6,0.5-4C197.4,263.5,196.8,260.3,194.5,257.6z"/><path fill="inherit" d="M259.7,267.6c-2-0.7-3.9-0.2-5.8-0.4c-3-0.2-5.4,1.3-7.9,2.3c-2.5,1.1-4.7,2.6-6.8,4.4 c-0.4,0.3-0.7,0.7-1.2,0.4c-0.5-0.3-0.5-0.9-0.4-1.3c0.6-2,0.4-4.1,1.3-6.1c0.9-1.8,1.5-3.9,1.7-5.9c0.2-2.7,1.3-5.1,2-7.5 c1.1-4,1.7-8.2,2.9-12.2c0.3-1.1,0.4-2.4,1-3.4c0.3-0.5,0.4-1,0.4-1.6c0.2-2.6,0.9-5.2,1.9-7.6c0.9-2,1.4-4.1,1.6-6.2 c-2.2-0.3-4.5-0.6-6.7-0.9c-1.4,4.6-3.7,8.9-4.6,13.7c-0.5,2.9-1.8,5.6-2.6,8.4c-1.2,4.1-2,8.3-3.2,12.4c-1.2,3.9-2,8-2.9,12 c-0.7,3.1-1.8,6-1.9,9.3c-0.1,3-0.9,6-1.8,9c-0.4,1.2-0.6,2.4-0.7,3.7c-0.2,2.3-0.5,4.6-0.8,6.9c-0.5,3.7-1,7.4-1.1,11.1 c-0.1,3.7-0.1,7.5,0,11.2c0,2.4-0.3,4.8,0.5,7.1c0.7,2.1,2,3.2,3.8,3c1.7-0.2,2.8-1.7,2.9-3.8c0-1.2,0.3-2.4,0.3-3.5 c0.1-1.8,1-3.4,0.7-5.2c-0.7-3.5-0.1-7,0-10.4c0.1-3.2,0.4-6.5,1.1-9.7c0.7-3.3,0.5-3.4,4-3.3c0.3,0,0.6,0,1,0 c5.5,0.1,10.5-1,14.9-4.7c1.3-1.1,2.6-2.3,4-3.3c3.4-2.5,5.8-5.6,7-9.7C265.2,272.5,263.1,268.9,259.7,267.6z M227,325 c-0.3,0.1-0.6,0.1-0.7-0.2c-0.1-0.2,0.1-0.4,0.3-0.5c0.3-0.1,0.6,0,0.8,0.2C227.4,324.8,227.2,324.9,227,325z M227.9,289.9 c-0.4-0.1-0.7-0.3-0.7-0.8c0-0.3,0.2-0.4,0.5-0.4c0.5,0,0.7,0.2,0.8,0.7C228.5,289.7,228.3,290,227.9,289.9z"/></g><g fill="#f6a850" id="change2_1"><path fill="inherit" d="M321.4,66.2c-0.5-0.1-0.9-0.3-1.4-0.4c-3.2-0.6-6.3-1.5-9.3-3c-2.8-1.3-4.5-3.6-6.1-5.8 c-1.7-2.4-3.4-5.1-2.3-8.4c0.1-0.2-0.1-0.5-0.1-0.7c0-1.7-0.1-3.4,0.1-5c0.2-1.7-0.3-3.3-0.3-5c0-1.2-1-1.5-2-1.7 c-1.1-0.2-1.7,0.3-2,1.3c-0.3,0.7-0.6,1.5-0.7,2.3c-0.3,3.7-2.1,6.9-3.8,10c-1.8,3.5-4.2,6.8-6.5,10c-1.7,2.4-3.7,4.7-6.3,6.1 c-2.3,1.3-4.5,3-7.2,3.7c-0.7,0.2-1.4,0.7-1.5,1.4c-0.1,0.9,0.8,1.1,1.4,1.3c1,0.4,1.9,0.8,3,0.7c0.6,0,1.3,0.1,1.9,0.3 c6,1.8,8.9,6.6,11.1,11.8c1.5,3.5,2.2,7.5,2.1,12.4c-0.2,1.1,0.2,3.2,0.7,5.2c0.2,0.7,0.3,1.7,1.2,1.5c0.9-0.2,2.2,0,2.5-1.4 c0.6-2.2,1.4-4.4,1.7-6.7c0.5-4.1,1-8.2,3.1-11.9c1.3-2.3,2.3-4.6,4.2-6.6c2-2.1,4.6-3.4,6.9-5c2.1-1.4,4.4-2.2,7-1.9 c1,0.1,1.8-0.5,2.7-0.9c0.7-0.3,1.3-0.8,1.1-1.6C322.6,67.2,322.2,66.5,321.4,66.2z"/><path fill="inherit" d="M366.8,22.1c-0.5-0.3-1-0.4-1.6-0.5c-1.2-0.3-2.4-0.5-3.5-0.9c-3.7-1.4-6.2-3.8-6.8-7.8 c-0.3-1.7-0.4-3.3-0.6-5c0,0,0.1,0,0.1,0c0-1.1,0-2.2,0-3.4c0-1-0.6-1.8-1.5-1.9c-0.9-0.1-1.7,0.4-2,1.4c-0.1,0.3-0.2,0.6-0.2,0.9 c-1,4.9-3.8,8.6-7.4,12c-2.8,2.6-5.7,5-9.5,6.1c-1.2,0.3-1.2,1.4-0.1,2.1c0.3,0.2,0.7,0.3,1.1,0.4c3.6,0.8,6.1,3.2,8.1,5.9 c2.2,3,2.4,6.7,2.4,10.3c0,1.8,0.2,3.4,1,5c0.9,1.9,1.5,2.1,2.9,0.7c0.8-0.8,1.5-1.7,1.9-2.7c0.7-1.9,1.3-3.7,1.6-5.8 c0.4-3.1,1-6.1,2.8-8.8c1.6-2.5,3.7-4.3,7-4.1c1.4,0.1,2.7-0.2,4-0.6c0.8-0.3,1.2-0.9,1.3-1.6C367.8,23.1,367.5,22.5,366.8,22.1z"/><path fill="inherit" d="M48.7,95.7C48.7,95.7,48.6,95.7,48.7,95.7c-0.6-1.3-1.6-0.8-2.6-0.6c-0.5-0.1-0.9-0.1-1.4-0.2 c-0.3-0.4-0.5-0.6-0.9-0.1c-0.8-0.1-1.6-0.5-2.5-0.2c-1.1-1-2.4-1.2-3.8-1.1c-0.6-0.4-1.2-0.7-1.9-0.8c-0.6-1.1-1.6-0.6-2.5-0.6 c-0.1-0.1-0.2-0.2-0.4-0.2c-0.5-1.1-1.3-1.8-2.3-2.4c-0.5-0.9-1-1.8-1.5-2.7c0-0.3,0.1-0.6,0-0.9c-0.2-2.3-0.8-4.5-1.5-6.8 c-0.5-1.6,0-3.4-1-4.9c0-0.8,0-1.6-0.1-2.4c0.6-0.6,0.3-1.1-0.3-1.6c0-0.1-0.1-0.3-0.2-0.4c0-0.9-0.6-1.5-1.5-1.6 c-0.9,0-1.6,0.5-2,1.4c-0.5,1.1-0.4,2.1,0,3.2c-0.1,0.3-0.2,0.6-0.2,0.9c-0.6,1.4-1.2,2.8-1.7,4.3c-0.4,1.1-1.4,1.9-1.6,2.9 c-0.5,2.9-2.2,5.2-3.5,7.7c-0.4,0.3-0.7,0.6-1.1,0.9c-1,0.2-1.6,0.9-1.9,1.9c-1.2,0.5-2,1.7-3.3,2c-0.7-0.1-1.2,0-1.6,0.7 c0.2,0.1,0.4,0.1,0.5,0.1c-0.2,0-0.3,0-0.5-0.1c-0.4,0.1-0.8,0.3-1.3,0.4c-0.2,0.3-0.4,0.5-0.7,0.6c0.3-0.1,0.5-0.3,0.7-0.6 c-0.7-0.1-1.2,0-1.6,0.6c-0.4,0.1-0.9,0.2-1.3,0.3c0,0.1-0.1,0.3-0.2,0.4C3.3,95.9,3.2,96,3.2,96c0.1,0,0.1-0.1,0.2-0.2 c0.1-0.1,0.1-0.2,0.2-0.4c-0.4-0.1-0.7,0-1,0.3c-0.3,0-0.7-0.1-1-0.1C0.8,95.2,0.3,95.4,0,96c-0.3,0.5-0.1,0.9,0.2,1.3 c0.3,0.4,0.7,0.9,1.3,0.9c0.1,0.1,0.3,0.1,0.4,0.1c0.3,0.5,0.6,0.7,1.2,0.5C3.4,98.9,3.7,99,4,99.1c2.1,1.2,4.5,2,6.8,2.8 c0.9,0.3,1.7,1.4,2.9,0.9c0,0,0.1,0.1,0.1,0.1c0.6,1.4,1.8,2.1,3.1,2.5c0.3,0.3,0.6,0.7,1,1c1.4,2.6,2.7,5.2,2.6,8.2 c0,0.4,0.3,0.7,0.6,1c0,0.9,0,1.8,0,2.8c-0.3,0.3-0.3,0.7-0.3,1.1c0.2,2.4,0.3,4.9,0.7,7.3c0.2,1.1,0.5,2.3,1.2,3.3 c0.6,0.8,2,1,2.4,0.1c0.6-1.4,1.8-2.9,0.6-4.7c0-0.3,0.1-0.6,0.1-1c1.1-1,0.8-2.2,0.3-3.4c0.1-0.4,0.1-0.9,0.2-1.3 c0.4-0.3,0.7-0.6,0.4-1.2c0.1-0.3,0.1-0.6,0.2-0.9c0.5-2.1,1.6-4.1,1.3-6.3c0.1-0.4,0.3-0.8,0.4-1.2c0.9-0.6,1-1.6,1.1-2.6 c0.8-1.9,2-3.5,3.5-4.8c0.6,0,0.9-0.3,1-0.9c0.4-0.2,0.9-0.5,1.3-0.8c1.8-0.2,3.5-0.8,5.3-1.2c1.5-0.3,3-0.3,4.3-1.1 c0.5-0.1,0.9-0.2,1.4-0.2l0,0c1,0.2,1.8,0.1,1.7-1.2c0.1-0.3,0.3-0.5,0.4-0.8C49.4,96.4,49.5,96.1,48.7,95.7z"/></g><g fill="#f2d65c" id="change3_1"><path fill="inherit" d="M148.9,196.8c-0.1-3.9-1-7.7-2.2-11.4c-0.1-0.3-0.2-0.6-0.3-0.9c-0.4-0.5-1-0.5-1.1,0 c-0.2,1.1-0.7,2.1-0.5,3.2c0.7,3.1,0.7,6.2,0.7,9.4c0.1,3.3,0.8,6.5,0.5,9.8c0,0.2,0,0.5,0.1,0.7c0.4,0.8,0.9,1.7,1.8,1.7 c0.9,0,1.2-1,1.3-1.8c0.1-1.3,0-2.5,0-3.8C149.6,201.3,149,199.1,148.9,196.8z"/><path fill="inherit" d="M175.4,195.7c-1.4,0.5-2,1.6-2.5,2.7c-1.2,2.4-2.3,4.9-3.4,7.3c-0.6,1.4-1.2,2.7-1.8,4.2 c-0.2,0.6-0.2,1.3,0.4,1.7c0.6,0.4,1-0.1,1.4-0.5c0.5-0.4,0.9-0.9,1.3-1.4c0.9-1.1,1.6-2.3,2.1-3.7c0.5-1.4,1.8-2.8,1.6-4.1 c-0.3-1.7,1.4-2.3,1.2-3.7C175.6,197.5,175.9,196.6,175.4,195.7z"/><path fill="inherit" d="M121.5,210.2c-1.4-1.2-2.9-2.2-4.4-3.2c-0.4-0.3-1-0.7-1.5-0.1c-0.4,0.5-0.3,1.1,0.1,1.6c0.8,1,1.6,2,2.4,3 c2,2.2,4.5,3.7,6.5,5.9c0.4,0.4,1.1,0.7,1.7,0.9c0.8,0.2,1.4-0.1,1.5-1c0.1-0.7-0.4-1.2-0.8-1.7 C125.1,213.8,123.4,211.9,121.5,210.2z"/><path fill="inherit" d="M235.1,198.3c-1.8-2.7-3.1-5.7-4.9-8.4c-0.1-0.2-0.2-0.4-0.3-0.6c-0.3-0.4-0.6-0.8-1.1-0.7 c-0.6,0-0.6,0.6-0.7,1c-0.5,1.3,0,2.5,0.3,3.7c0.6,2.2,1.9,4.1,2.5,6.2c0.6,2.1,1.7,3.7,3.2,5.1c0.6,0.6,1.2,0.8,1.9,0.5 c0.8-0.3,0.8-1.1,0.8-2.2C236.4,201.5,236,199.7,235.1,198.3z"/><path fill="inherit" d="M246.8,200.9c0-1.3,0-2.4,0-3.6c0-0.8-0.2-1.6-0.4-2.3c-0.2-0.5-0.4-0.8-1-0.9c-0.6,0-0.7,0.4-0.9,0.8 c-0.4,1-0.6,1.9-0.6,3c0,1.5,0,3-0.3,4.5c-0.3,1.6-0.3,3.3,0.4,4.9c0.2,0.5,0.4,0.9,0.9,0.9c0.6,0,0.8-0.4,1-0.9 c0.2-0.4,0.3-0.9,0.5-1.3C247.1,204.4,246.6,202.5,246.8,200.9z"/><path fill="inherit" d="M256.1,198.6c-0.5,0.2-1,0.6-1.1,1.2c-0.6,1.7-1.6,3.1-2.4,4.6c-0.6,1.1-1.5,2.1-1.7,3.4 c-0.1,0.4-0.4,0.8,0.1,1.1c0.4,0.3,1,0.3,1.3-0.1c0.5-0.5,0.9-1.1,1.3-1.7c1.7-2.3,2.7-5,3.5-7.7 C257.2,198.6,256.8,198.4,256.1,198.6z"/><path fill="inherit" d="M331.7,186.9c-1.1,3.1-1.2,6.4-1.8,9.6c-0.2,1-0.1,2.1,0,3.1c0.1,0.8,0.5,1.6,1.5,1.5 c0.8-0.1,0.7-0.9,0.9-1.5c0.5-2.2,0.5-4.6,0.8-6.8c0.3-2.5,0.3-5-0.1-7.7C332,185.6,331.9,186.3,331.7,186.9z"/><path fill="inherit" d="M348.9,197.6c-0.6,0.3-1.1,0.9-1.7,1.2c-1.5,0.9-2.6,2.3-3.9,3.4c-0.8,0.7-1,2-2.6,2.2 c-0.9,0.1-1,1.2-0.7,2c0.3,0.9,1.1,0.7,1.8,0.4c0.2-0.1,0.5-0.2,0.6-0.3c2.5-2.4,5.5-4.3,7.1-7.6c0.1-0.3,0.3-0.6,0.4-0.8 C349.7,197.5,349.2,197.4,348.9,197.6z"/><path fill="inherit" d="M342,191.8c-1.2,3.3-2.7,6.4-4.8,9.2c-0.4,0.6-0.4,1.3,0.5,2.4c2.8-3.8,5.2-7.6,5.6-12.3 C342.5,191.2,342.2,191.5,342,191.8z"/></g><g fill="#f4e186" id="change4_1"><path fill="inherit" d="M190.4,186.9c-1.3-2.1-2.6-4.3-4.7-5.6c-3.4-2.2-9.8-2.1-13,0.5c-3.7,2.9-7.2,6-9.5,10.3 c-0.4,0.7-0.8,1.5-1.6,2c-0.2-0.3-0.3-0.4-0.3-0.5c0.4-3.5-1.3-6.9-1.1-10.4c0.1-0.8-0.4-1.7-0.8-2.5c-0.3-0.6-0.7-1.3-0.8-2 c-0.5-2.9-1.9-5.4-2.7-8.2c-0.2-0.7-0.5-1.4-1-1.9c-1.3-1.2-2.2-2.7-3.2-4.2c-1.5-2.2-4-2.7-6.3-3.6c-0.2-0.1-0.6-0.1-0.7,0 c-0.9,1-1.9,0.4-2.8,0.3c-0.8-0.1-1.6,0.1-2.4,0.4c-5.8,2-9.3,6.1-11.2,11.8c-0.5,1.6-0.6,3.3-1.2,4.9c-1.2,3.5-1.4,7.1-1.8,10.7 c-0.2,2.5,0.9,4.9,0.3,7.5c-1.1-0.5-2.2-0.9-3.2-1.5c-2.3-1.2-4.5-2.4-6.8-3.5c-1.5-0.7-3.2-1-4.7-1.7c-4.6-1.9-8.7-0.5-11.9,2.5 c-3.8,3.6-5.1,8.5-3.6,13.6c1.1,3.7,3.7,6.8,6.7,9.1c2.3,1.7,4.5,3.5,6.7,5.4c2.1,1.8,4.1,3.7,6.8,4.7c1.7,0.7,3.4,1.2,4.9,2.3 c3.4,2.5,7.8,2.7,11.5,4.5c0.3,0.2,0.8,0.1,1.2,0.1c4.6,0,9.2,0.7,13.9,0.5c1.6-0.5,3.1-0.8,4.8-1c0.9-0.1,1.7,0.1,2.4,0.6 c1.2-1.6,3-1.8,4.7-2c3.1-0.3,5.7-1.8,8.4-3.1c3.2-1.6,6-3.9,9-5.8c0.9-0.6,1.8-1.3,2.6-2c1.4-1,2.1-2.6,3.7-3.4 c2-1.1,3.6-2.8,4.6-4.8c1.9-3.9,4.2-7.6,4.7-12.1c0.1-0.9-0.1-1.8,0.4-2.6c0.9-1.6,0.5-3.3,0-4.8 C191.8,189.9,191.3,188.3,190.4,186.9z M126.2,218.2c-0.6-0.2-1.3-0.4-1.7-0.9c-2-2.2-4.6-3.7-6.5-5.9c-0.8-0.9-1.6-1.9-2.4-3 c-0.4-0.5-0.5-1.1-0.1-1.6c0.5-0.6,1.1-0.2,1.5,0.1c1.5,1,3.1,2,4.4,3.2c1.9,1.7,3.6,3.6,5.4,5.4c0.5,0.5,0.9,0.9,0.8,1.7 C127.6,218.2,127,218.5,126.2,218.2z M149.2,207.5c-0.1,0.7-0.4,1.8-1.3,1.8c-1,0-1.4-0.9-1.8-1.7c-0.1-0.2-0.1-0.5-0.1-0.7 c0.3-3.3-0.5-6.5-0.5-9.8c-0.1-3.1,0-6.3-0.7-9.4c-0.3-1.1,0.3-2.2,0.5-3.2c0.1-0.5,0.8-0.5,1.1,0c0.2,0.2,0.2,0.6,0.3,0.9 c1.2,3.7,2.1,7.5,2.2,11.4c0.1,2.3,0.7,4.6,0.4,7C149.3,204.9,149.4,206.2,149.2,207.5z M175.7,198.3c0.2,1.4-1.4,2-1.2,3.7 c0.2,1.2-1.1,2.7-1.6,4.1c-0.5,1.4-1.2,2.5-2.1,3.7c-0.4,0.5-0.8,1-1.3,1.4c-0.4,0.4-0.8,0.9-1.4,0.5c-0.6-0.4-0.7-1.1-0.4-1.7 c0.5-1.4,1.2-2.8,1.8-4.2c1.1-2.4,2.3-4.9,3.4-7.3c0.5-1.1,1.1-2.3,2.5-2.7C175.9,196.6,175.6,197.5,175.7,198.3z"/><path fill="inherit" d="M287.9,185.4c-2-4.9-5.5-7.3-11-6.9c-1.9,0.1-3.8,0.3-5.7,0.3c-3.2,0-6.1,0.9-8.8,2.6 c-0.9,0.6-1.9,1.1-3.1,1.1c-0.4-1.5-0.4-2.9-0.5-4.3c-0.3-3.1-0.6-6.2-2.6-8.8c-0.1-0.1-0.2-0.3-0.2-0.4c-0.3-2.1-1.6-3.2-3.3-4.3 c-3.7-2.2-7.3-2.7-11.1-0.7c-0.5,0.3-1.1,0.3-1.6,0.5c-2.3,0.8-4.6,2-5.2,4.5c-0.7,2.6-2.3,4.9-2.5,7.7c-0.1,1.1-0.2,2.7-1.4,3.1 c-1.2,0.4-1.8-1.1-2.6-1.8c-1.8-1.8-4-2.7-6.5-3.4c-1.3-0.4-2.5,0.3-3.8,0.1c-2.3-0.4-3.9,0.9-5.2,2.7c-1.4,2-1.6,4.2-1.5,6.6 c0.2,2.7,0.3,5.3,1.8,7.7c0.1,0.2,0.1,0.5,0.1,0.7c-0.2,3.1,1.8,5.4,3.1,7.8c1,1.8,2.4,3.6,3.6,5.3c1.7,2.4,3.7,4.8,6.1,6.7 c0.7,0.5,1.3,1.2,1.9,1.9c3,3.4,7,4.8,11.1,6.1c1.6,0.5,3.4,0.1,4.6,1.6c2.2,0.3,4.5,0.6,6.7,0.9c1.1,0,2.1-0.8,3.3-0.6 c2.2,0.4,4.2,0.1,6.1-1c0.8-0.5,1.6-1,2.7-1c2.6,0,4.7-1.1,6.9-2.4c0.9-0.5,1.5-1.5,2.5-1.7c3.6-0.9,5.5-3.9,8-6.1 c2-1.8,3.5-4,5.2-6.2c2.2-2.9,2.8-6.3,3.5-9.7c0.2-1.1,0.1-2.2,0.5-3.3c0.5-1.4,0.4-2.6-0.4-3.8 C288.1,186.3,288.1,185.8,287.9,185.4z M235.9,205c-0.7,0.3-1.3,0.1-1.9-0.5c-1.5-1.5-2.6-3-3.2-5.1c-0.6-2.1-1.9-4-2.5-6.2 c-0.3-1.2-0.8-2.4-0.3-3.7c0.2-0.4,0.1-1,0.7-1c0.5,0,0.9,0.3,1.1,0.7c0.1,0.2,0.2,0.4,0.3,0.6c1.7,2.7,3.1,5.7,4.9,8.4 c1,1.4,1.3,3.2,1.6,4.5C236.7,203.9,236.7,204.7,235.9,205z M246.3,206.2c-0.2,0.4-0.3,0.9-0.5,1.3c-0.2,0.4-0.4,0.9-1,0.9 c-0.6,0-0.7-0.5-0.9-0.9c-0.7-1.6-0.7-3.3-0.4-4.9c0.3-1.5,0.4-3,0.3-4.5c0-1,0.2-2,0.6-3c0.2-0.5,0.3-0.9,0.9-0.8 c0.6,0,0.8,0.4,1,0.9c0.3,0.8,0.5,1.5,0.4,2.3c0,1.1,0,2.2,0,3.6C246.6,202.5,247.1,204.4,246.3,206.2z M253.7,207.1 c-0.4,0.6-0.8,1.2-1.3,1.7c-0.4,0.3-0.9,0.4-1.3,0.1c-0.4-0.3-0.1-0.7-0.1-1.1c0.2-1.3,1.1-2.3,1.7-3.4c0.8-1.5,1.8-2.9,2.4-4.6 c0.2-0.5,0.6-1,1.1-1.2c0.7-0.3,1.1,0,1.1,0.7C256.4,202.1,255.4,204.8,253.7,207.1z"/><path fill="inherit" d="M369.7,192.4c-1.3-2-2.8-3.8-5.3-4.5c-1.2-0.3-2.3-0.3-3.5-0.3c-1.2,0-1.4-0.4-0.7-1.4 c1.6-2.2,2.5-4.5,2.2-7.3c-0.1-0.9,0-1.9-0.1-2.9c-0.2-3-1.2-5.7-2.9-8.2c-2.6-3.8-6.7-4.1-10.7-4.7c-1-0.1-1.9,0.2-2.8,0.5 c-1.9,0.6-3.3,1.9-5,2.8c-0.9,0.4-1.3,0.4-1.9-0.5c-1-1.4-2.2-2.5-3.2-3.9c-0.9-1.3-2-2.3-3.3-3.1c-1.8-1.1-3.6-2.2-5.8-1.9 c-3,0.5-5.8,1.6-8.4,3.2c-3.5,2.1-5.2,5.2-4.7,9.2c0.3,2.5,0.3,5,0.4,7.5c0,1.3,0.2,2.5,0.8,3.7c0.5,0.9,1,1.9,0.3,3 c-1.1-0.3-2.1-0.6-3.2-1c-0.9-0.3-1.7-0.3-2.6-0.1c-3.1,0.8-5.7,2.4-8.3,4.1c-0.3,0.2-0.6,0.6-0.8,0.9c-1.7,2.8-1.4,8.1,0.7,10.7 c2.4,3,5.2,5.6,8.6,7.4c3.2,1.7,6.5,3.4,9.7,5.2c2.6,1.5,5.1,3,8.1,3.3c1.2,0.4,2.3,1,3.6,1c0.7,0,1.2,0.4,1.7,0.8 c2.3,0.3,4.6,0.3,6.9,0.1c1.9-0.2,3.9-0.7,5.9-0.4c1.2,0.2,2.8,0.1,4-0.5c3.1-1.5,6.4-2.8,9.1-5.2c0.7-0.6,1.4-1.2,2.2-1.8 c4.1-3,7.3-6.6,9.3-11.2C370.7,195.1,370.5,193.6,369.7,192.4z M333,192.8c-0.3,2.3-0.3,4.6-0.8,6.8c-0.2,0.6-0.1,1.4-0.9,1.5 c-0.9,0.1-1.4-0.7-1.5-1.5c-0.1-1-0.2-2.1,0-3.1c0.6-3.2,0.8-6.5,1.8-9.6c0.2-0.7,0.3-1.3,1.2-1.9 C333.4,187.8,333.3,190.4,333,192.8z M337.7,203.5c-0.9-1.1-0.9-1.9-0.5-2.4c2.1-2.8,3.6-5.9,4.8-9.2c0.1-0.3,0.4-0.7,1.2-0.7 C342.8,195.9,340.5,199.6,337.7,203.5z M349.4,199c-1.6,3.3-4.6,5.2-7.1,7.6c-0.2,0.2-0.4,0.2-0.6,0.3c-0.7,0.2-1.5,0.5-1.8-0.4 c-0.3-0.8-0.2-1.9,0.7-2c1.5-0.1,1.8-1.4,2.6-2.2c1.3-1.1,2.4-2.5,3.9-3.4c0.6-0.4,1.1-0.9,1.7-1.2c0.3-0.2,0.8-0.1,0.9,0.5 C349.7,198.4,349.6,198.7,349.4,199z"/><path fill="inherit" d="M352.3,231.2c-0.1,0-0.3,0.1-0.4,0.2c-0.1,0.2,0,0.4,0.3,0.5c0.1-0.1,0.3-0.1,0.4-0.2 C352.7,231.4,352.6,231.2,352.3,231.2z"/><path fill="inherit" d="M227.7,288.7c-0.3,0-0.5,0.2-0.5,0.4c0,0.5,0.3,0.7,0.7,0.8c0.4,0.1,0.5-0.2,0.6-0.6 C228.4,288.9,228.2,288.6,227.7,288.7z"/><path fill="inherit" d="M226.6,324.3c-0.2,0.1-0.4,0.3-0.3,0.5c0.1,0.3,0.4,0.4,0.7,0.2c0.2-0.1,0.4-0.2,0.3-0.5 C227.2,324.2,226.9,324.1,226.6,324.3z"/></g></svg>