<?xml version="1.0" encoding="UTF-8" standalone="no"?><svg xmlns="http://www.w3.org/2000/svg" xmlns:xlink="http://www.w3.org/1999/xlink" contentScriptType="text/ecmascript" fill="#000000" width="659.9" zoomAndPan="magnify" contentStyleType="text/css" viewBox="-1.1 -0.5 659.9 499.6" height="499.6" preserveAspectRatio="xMidYMid meet" version="1"><g id="change1_1"><path fill="#1e3f48" d="M651.865,318.335c-9.187,2.289-18.617,2.453-27.99,2.991c-14.473,0.831-28.906,1.911-43.19,4.561 c-2.303,0.427-3.728,1.384-5.21,3.176c-18.266,22.093-32.786,46.828-49.431,70.067c-19.505,27.231-39.131,54.357-59.414,81.012 c-4.243,5.576-7.138,12.25-13.619,15.936c-3.664,2.084-7.203,3.037-11.664,2.31c-52.222-8.51-104.191-18.567-156.725-25.181 c-30.147-3.795-59.76-10.861-89.749-15.662c-23.408-3.747-47.086-6.007-70.189-11.393c-20.178-4.703-39.921-11.334-60.164-15.676 c-16.534-3.546-32.353-9.081-48.411-14.014c-3.309-1.016-5.8-3.128-5.985-6.524c-0.632-11.587-6.144-21.799-8.832-32.796 c-2.368-9.687-2-18.757,5.583-26.138c13.174-12.824,23.307-27.967,33.544-43.063c2.415-3.561,5.03-7.067,8.02-10.145 c23.959-24.664,42.194-54.068,65.673-79.147c4.901-5.235,8.324-11.844,12.521-17.754c2.247-3.164,2.501-6.087,0.74-9.758 c-3.635-7.581-6.382-15.546-8.569-23.682c-2.075-7.718,0.089-11.231,7.784-12.723c13.761-2.668,13.514-2.695,15.215-17.984 c0.852-7.66,0.336-15.671,4.873-22.702c1.326-2.055,2.636-3.642,4.68-4.901c19.385-11.937,40.836-17.589,63.059-21.03 c12.436-1.926,24.898-3.122,35.061-2.514c26.839-0.219,50.967,1.667,74.125,10.141c2.386,0.873,3.217,0.202,3.885-1.705 c2.295-6.551,7.189-11.071,11.985-15.74c3.929-3.825,7.642-7.886,11.282-11.992c7.963-8.981,16.374-17.222,26.947-23.393 c12.999-7.588,24.815-17.004,38.399-23.867c16.629-8.402,34.471-11.365,52.384-14.552c13.124-2.335,26.367-3.944,39.667-4.426 c14.761-0.534,18.259,1.877,23.763,14.264c4.526,10.186,8.087,20.798,12.567,31.006c15.686,35.735,34.148,70.046,54.148,103.523 c8.272,13.846,13.666,29.038,21.18,43.242c5.678,10.732,11.314,21.459,17.34,32.01c6.655,11.651,6.5,11.255-5.72,17.675 c-3.968,2.085-4.935,2.999-1.711,6.599c4.831,5.397,9.049,11.338,13.757,16.852c4.43,5.187,5.343,11.126,4.286,17.51 c-0.875,5.284-0.299,9.914,3.31,14.277c2.85,3.446,4.931,7.567,6.262,11.904C658.859,313.922,656.969,317.064,651.865,318.335z"/></g><g id="change2_1"><path fill="#767fa7" d="M646.427,302.068c4.846,8.625,7.353,10.352-4.086,11.676c-6.413,0.742-12.876,1.403-19.322,1.46 c-33.258,0.294-65.003,7.911-96.414,18.28c-25.092,8.283-49.773,17.41-73.538,28.929c-9.034,4.379-18.502,1.744-28.988,2.831 c-24.059-2.373-49.319-0.598-74.524,1.092c-22.82,1.53-45.418,5.321-68.09,8.369c-17.891,2.405-35.308,6.502-52.796,10.613 c-9.806,2.306-10.939,1.274-13.767-8.018c-3.991-13.116-8.984-25.9-15.595-37.889c-10.91-19.786-16.299-41.916-26.52-61.891 c-16.062-31.392-26.382-65.234-42.217-96.695c-2.359-4.687-3.625-9.913-5.727-14.746c-1.234-2.837-0.37-3.964,2.336-4.439 c2.887-0.507,5.771-1.036,8.657-1.547c1.964-0.348,2.951,0.052,3.72,2.369c2.824,8.512,6.253,16.822,9.179,25.302 c7.023,20.355,17.012,39.371,26.349,58.675c4.096,8.468,5.355,17.853,9.541,26.344c9.317,18.897,18.134,38.024,25.276,57.92 c3.694,10.29,5.958,21.046,10.617,31.016c3.083,6.596,4.713,7.843,12.419,6.485c8.469-1.493,16.892-3.256,25.323-4.959 c39.209-7.919,78.545-14.711,118.757-14.523c17.807,0.084,34.959,4.117,52.095,8.2c6.309,1.503,11.969,1.114,17.354-2.557 c22.961-15.653,48.177-26.686,74.284-35.751c21.853-7.588,44.244-13.175,67.305-15.575c8.372-0.871,16.824-0.975,25.24-1.418 c9.952-0.523,19.998,1.204,29.86-1.161C644.946,300.033,645.722,300.814,646.427,302.068z"/></g><g id="change3_1"><path fill="#e48d7a" d="M45.125,365.265c-11.286-2.877-22.964-4.216-34.644-6.238c41.407-52.099,82.368-103.636,123.258-155.085 c4.665,8.932,8.072,19.345,12.273,29.418c0.636,1.526,0.056,2.522-0.735,3.742c-26.931,41.511-55.265,82.04-84.644,121.854 C56.486,364.576,52.624,367.177,45.125,365.265z M487.83,354.173C487.83,354.173,487.83,354.173,487.83,354.173 c-11.825,4.546-23.622,9.165-35.484,13.611c-6.968,2.612-14.195,4.984-21.659,3.901c-4.479-0.65-6.268,1.125-8.175,4.45 c-10.303,17.968-25.815,26.175-46.497,24.173c-9.516-0.922-17.885-5.434-26.541-9.009c-6.268-2.588-11.119-7.043-13.904-12.952 c-1.872-3.972-4.209-4.34-7.721-3.964c-23.532,2.521-46.803,6.817-70.189,10.32c-11.359,1.702-22.024,6.925-33.851,6.506 c-10.083-0.357-11.8-1.439-14.57-10.807c-2.829-9.566-6.572-18.793-10.557-27.92c-7.809-17.883-17.177-35.026-23.511-53.634 c-3.919-11.512-8.911-22.83-14.935-33.472c-26.287,34.256-42.067,75.088-71.337,107.352c13.169,2.894,25.602,5.389,37.914,8.385 c21.968,5.347,43.498,12.393,65.703,16.857c24.185,4.863,48.721,6.871,73.182,9.628c26.599,2.998,53.326,4.829,79.79,9.123 c17.54,2.846,35.454,3.197,52.823,7.232c10.318,2.397,20.681,3.985,31.252,4.66c2.902,0.185,4.13-0.597,5.518-2.811 c3.116-4.971,6.233-9.99,9.863-14.584c14.694-18.599,29.583-37.045,44.399-55.547v0l0,0c1.341-0.737,2.398-1.74,3.094-3.315 C490.554,352.318,489.075,352.932,487.83,354.173z"/></g><g id="change4_1"><path fill="#daa972" d="M552.704,335.649c-11.105,16.585-22.248,33.176-34.189,49.158c-8.902,11.915-19.702,22.421-28.485,34.413 c-9.039,12.342-19.939,23.169-28.225,36.096c-4.112,6.416-9.02,12.329-13.684,18.381c-1.437,1.865-3.241,3.687-5.947,3.017 c-2.711-0.671-3.235-3.046-3.719-5.432c-2.136-10.526-4.54-21.004-6.423-31.574c-0.824-4.626-2.402-6.933-7.556-6.322 c-3.653,0.434-7.559,0.38-11.133-0.426c-20.841-4.703-42.09-6.497-63.157-9.596c-35.454-5.215-71.092-8.542-106.686-12.205 c-33.583-3.456-66.423-9.94-98.641-19.772c-18.626-5.684-37.683-9.279-56.995-13.123c2.418,16.479,4.731,32.424,7.118,48.357 c0.458,3.061,1.776,5.024,5.4,5.745c7.466,1.485,14.727,3.975,22.176,5.57c23.38,5.006,47.147,7.641,70.751,11.282 c32.707,5.045,64.997,12.672,97.862,16.65c50.212,6.077,99.854,15.61,149.653,24.151c8.284,1.421,12.39-1.329,16.343-7.322 c6.906-10.47,13.926-20.849,22.212-30.336c11.247-12.878,19.754-27.732,29.558-41.653c18.386-26.106,37.107-51.976,55.689-77.945 c0.562-0.785,1.28-1.519,0.75-2.945C560.184,329.519,556.045,330.661,552.704,335.649z M411.878,463.646 c-1.805,2.642-1.194,7.404-5.858,6.896c-6.302-0.865-12.277-1.148-17.827-2.36c-5.738-1.254-9.569-6.924-13.535-11.44 c-0.376-0.428-0.277-1.502-0.069-2.175c0.874-2.83,10.498-8.744,13.536-8.57c5.056,0.289,9.97,1.801,15.116,1.447 c4.717-0.325,5.998,4.484,9.041,6.696C416.54,457.238,414.064,460.446,411.878,463.646z M65.932,413.595 c1.045,3.064,1.607,6.293,2.51,9.92c-13.958-2.473-26.912-6.164-39.8-10.935c-8.212-3.04-12.3-6.502-13.252-15.327 c-0.72-6.674-3.871-13.084-5.915-19.619c-0.467-1.493-0.882-3.006-1.237-4.53c-2.36-10.12-1.739-10.642,8.044-8.58 c10.879,2.292,21.818,4.303,32.761,6.271c2.158,0.388,3.641,0.951,4.238,3.255C56.758,387.468,61.463,400.493,65.932,413.595z M339.078,373.278c25.815-1.397,51.003-2.962,76.894-2.069c-9.258,18.433-28.243,25.93-48.649,19.119 c-7.163-2.391-14.784-4.008-21.042-8.662C343.625,379.689,341.229,377.383,339.078,373.278z M286.142,215.852 c7.593,20.02,15.303,39.996,23.021,60.114c-6.542,2.666-13.126,1.037-19.414,2.148c-10.063,1.778-19.69,4.852-28.719,9.617 c-3.346,1.766-4.781,1.269-6.009-2.493c-5.752-17.613-11.941-35.083-19.048-52.202c-2.066-4.978-4.786-9.685-7.147-14.398 c16.521-5.281,32.986-7.857,49.916-7.759C282.794,210.902,284.785,212.275,286.142,215.852z"/></g><g id="change5_1"><path fill="#e5dad8" d="M156.606,138.528c8.315,23.375,19.86,45.417,28.385,68.701c5.723,15.629,11.866,31.071,20.379,45.42 c4.823,8.13,8.453,16.712,11.292,25.685c4.884,15.435,11.67,30.228,15.412,46.063c0.792,3.349,2.713,6.43,3.824,8.97 c63.566-29.416,127.938-34.381,194.687-11.364c-2.882-9.355-6.504-18.354-11.034-26.996c-13.169-25.127-25.946-50.469-39.606-75.326 c-13.911-25.314-21.937-53.082-34.161-79.084c-4.581-9.745-10.43-18.856-14.534-28.738c-2.648-6.376-6.656-9.379-12.909-10.985 c-36.226-9.304-72.695-10.699-109.479-3.864c-19.36,3.597-38.004,9.127-55.099,19.279c-3.427,2.035-4.159,3.782-2.522,7.428 C153.384,128.494,154.845,133.578,156.606,138.528z M311.412,282.728c-16.945,0.466-33.237,3.784-48.982,10.244 c-8.14,3.339-9.014,2.341-12.542-5.881c-9.157-21.338-15.353-43.832-25.564-64.764c-3.057-6.266-1.729-7.908,5.206-9.342 c8.369-1.729,16.213-5.515,24.854-6.287c6.015-0.537,12.002-1.402,18.001-2.121c0.011,0.209,0.022,0.419,0.033,0.628 c3.71,0,7.42,0.03,11.129-0.007c4.614-0.046,6.398,3.09,7.734,6.764c5.923,16.297,11.832,32.6,17.777,48.888 c2.002,5.484,3.957,10.992,6.196,16.38C316.98,281.384,315.136,282.625,311.412,282.728z M396.098,280.62 c-0.653,3.167-3.565,2.214-5.332,1.776c-7.597-1.88-15.246-2.98-23.041-3.836c-7.948-0.873-15.598,0.089-23.309,1.084 c-3.135,0.405-6.227,0.422-9.343,0.513c-1.634,0.048-3.373-0.275-3.383-2.297c-0.008-1.552,1.449-2.183,2.877-2.412 c8.457-1.356,16.917-2.693,24.186-3.847c12.141,1.323,23.046,2.164,33.51,5.641C394.001,277.82,396.686,277.767,396.098,280.62z M381.03,257.7c2.229,0.753,5.142,1.343,4.256,4.414c-0.793,2.749-3.755,1.831-5.636,1.369c-10.485-2.576-21.263-2.93-31.711-4.695 c-6.969,0.859-13.752,1.943-20.615,1.51c-1.535-0.097-3.971,0.775-4.071-1.973c-0.09-2.487,2.46-2.54,3.871-2.641 c11.221-0.809,22.332-3.99,33.73-1.349C367.493,255.872,374.48,255.486,381.03,257.7z M369.33,231.031 c-0.005,1.856-1.395,2.119-2.84,2.157c-1.369,0.036-2.741,0.008-5.457,0.008c-11.45-3.135-23.901-0.425-36.388,2.042 c-2.009,0.397-4.803,0.856-5.324-2.074c-0.587-3.303,2.152-3.513,4.566-3.846c7.522-1.036,15.007-2.393,22.555-3.159 c6.873-0.698,13.525,1.778,20.351,2.18C368.345,228.431,369.335,229.414,369.33,231.031z M352.479,204.904 c3.093,0.128,6.223,0.954,8.725,3.048c1.046,0.875,1.984,2.001,1.125,3.55c-0.653,1.177-1.792,1.686-2.995,1.29 c-15.473-5.089-31.464-2.657-47.24-3.314c-0.588-0.024-1.178,0.002-1.765-0.035c-1.662-0.105-3.287-0.558-3.495-2.442 c-0.253-2.293,1.675-3.181,3.376-3.248c5.286-0.209,10.585-0.076,14.184-0.076C334.951,202.686,343.672,204.54,352.479,204.904z M338.318,177.277c2.19,0.627,4.379,1.531,3.594,4.348c-0.709,2.541-3.12,2.21-4.953,1.755c-17.554-4.358-35.472-4.069-53.202-2.893 c-23.138,1.535-46.541,1.521-69.152,7.846c-4.498,1.258-8.804,3.193-13.289,4.504c-1.544,0.451-3.976,0.91-4.725-1.105 c-0.875-2.352,1.774-2.565,3.12-3.278c11.915-6.303,24.775-9.476,38.088-10.614c20.447-1.748,40.845-4.449,63.595-3.757 c9.802-0.18,21.749-0.164,33.524,2.35C336.06,176.678,337.196,176.956,338.318,177.277z M332.302,149.132 c-0.741,3.721-4.124,2.372-6.836,1.888c-25.986-4.637-51.825-2.09-77.721,1.248c-17.655,2.276-35.118,5.208-52.18,10.331 c-0.925,0.278-1.984,0.757-2.819,0.536c-1.354-0.359-3.546-0.082-3.602-2.133c-0.043-1.558,1.677-1.714,2.977-2.224 c18.312-7.178,37.55-10.173,56.86-13.029c14.738-2.179,29.489-3.765,44.959-3.514c10.661-0.697,21.744,0.539,32.763,2.473 C329.326,145.169,333.033,145.462,332.302,149.132z M183.979,128.085c12.34-7.888,26.499-10.304,40.508-12.707 c10.368-1.778,20.905-2.936,31.503-2.682c21.221,0.141,41.99,3.677,62.626,8.267c2.579,0.574,5.828,1.229,5.241,4.275 c-0.711,3.687-3.99,2.51-6.756,1.884c-21.784-4.937-43.763-9.122-66.178-7.938c-22.077,1.166-43.956,4.164-64.347,13.714 c-1.828,0.856-4.19,2.604-5.652-0.07C179.423,130.081,182.297,129.16,183.979,128.085z M636.789,275.281 c2.016,0.379,4.541,0.054,4.312,3.444c-0.241,3.562-2.86,2.575-4.781,2.561c-8.236-0.061-16.45-0.091-24.643,1.082 c-38.991,5.581-78.139,10.713-114.424,27.315c-14.632,6.695-30.541,11.198-42.668,22.716c-1.889,1.794-4.344,3.026-5.809,6.951 c59.454-36.171,123.549-51.108,191.759-52.979c-1.564,9.097-1.568,9.192-10.838,8.78c-48.497-2.155-94.278,8.463-138.533,27.923 c-15.507,6.819-30.59,14.145-44.141,24.1c-8.476,6.227-16.836,4.478-24.914,1.727c-31.057-10.574-62.527-7.961-94.214-4.61 c-32.199,3.405-63.561,10.955-95.046,17.987c-0.718,0.16-1.503,0.02-2.359,0.02c0.165-4.736,2.311-6.959,6.743-8.802 c23.016-9.569,46.651-16.775,71.403-19.902c20.793-2.627,41.667-5.833,62.649-3.696c15.505,1.579,30.638,5.71,45.756,9.62 c5.733,1.483,11.456,4.048,17.86,1.945c-21.063-8.571-42.813-14.418-65.558-16.722c-23.033-2.333-45.745,1.055-68.395,4.013 c-22.949,2.998-44.679,10.666-65.861,21c-0.465-4.525,1.931-7.034,5.013-9.263c11.354-8.211,24.683-11.391,37.77-15.494 c29.076-9.117,58.775-11.63,88.897-9.096c22.242,1.871,44.508,4.356,64.547,15.69c3.193,1.806,6.536,1.858,10.192,0.725 c9.444-2.925,17.658-8.228,26.29-12.767c35.946-18.899,73.059-34.779,113.474-41.281c16.62-2.674,33.414-4.33,50.32-3.76 C633.33,274.569,635.067,274.957,636.789,275.281z M446.071,430.168c-0.737,1.114-2.618,2.589-0.463,3.926 c1.762,1.094,3.042-0.517,3.865-1.74c6.271-9.316,14.344-17.098,21.535-25.629c13.882-16.468,28.031-32.727,39.899-50.806 c3.199-4.873,8.377-8.203,11.603-13.243c1.248-1.949,3.839-2.324,7.378-2.417c-6.377,8.817-11.351,17.229-17.615,24.795 c-19.352,23.376-39.757,45.878-58.164,70.036c-2.013,2.641-3.762,5.488-5.553,8.291c-0.778,1.219-1.178,2.884,0.107,3.733 c1.309,0.865,2.619-0.314,3.515-1.375c3.162-3.745,6.582-7.327,9.318-11.368c7.713-11.39,17.099-21.44,25.559-32.225 c10.618-13.536,22.364-26.181,33.316-39.465c6.099-7.398,11.713-15.213,17.266-23.038c2.521-3.552,5.751-4.893,9.475-5.186 c-31.067,46.696-70.091,87.263-102.809,134.095c-2.383-11.142-4.468-21.014-6.618-30.872c-0.65-2.981,0.659-5.19,2.228-7.564 c10.399-15.731,22.551-30.118,34.429-44.691c9.155-11.231,16.704-23.674,26.806-34.225c3.627-3.788,7.647-4.826,12.416-6.403 c-17.457,23.46-35.206,45.975-54.349,67.356C454.218,417.736,450.175,423.966,446.071,430.168z M147.69,140.558 c-1.003-3.383,0.116-6.831,1.077-10.214c6.809,24.711,19.003,47.148,27.524,70.98c7.639,21.364,16.893,41.915,27.379,62.108 c9.039,17.406,14.987,36.422,20.3,55.418c1.751,6.259,3.913,12.231,6.881,17.987c0.953,1.848,2.83,3.913,0.118,7.044 c-5.025-13.346-12.717-24.861-17.21-37.9c-3.3-9.577-6.982-19.044-11.841-27.895c-9.498-17.302-16.486-35.634-23.134-54.11 c-4.743-13.181-10.782-25.797-16.214-38.673C156.43,170.75,152.159,155.631,147.69,140.558z M147.128,166.514 c-1.693-5.667-2.277-11.009-0.88-17.032c1.117,3.647,2.381,7.257,3.325,10.949c3.298,12.892,8.112,25.266,14.08,37.067 c9.348,18.484,15.364,38.238,22.686,57.474c4.888,12.841,12.369,24.305,17.61,36.912c1.183,2.845,2.375,5.739,3.229,8.633 c4.617,15.65,13.442,29.413,19.626,44.357c1.977,4.776,2.326,8.844-0.934,13.448c-4.989-10.977-7.811-22.494-11.969-33.508 c-7.26-19.229-17.065-37.235-25.093-56.062c-5.571-13.067-10.357-26.451-16.556-39.276 C162.403,209.096,153.629,188.282,147.128,166.514z M639.22,269.412c-10.429-0.881-19.828-0.786-29.285-0.218 c-32.902,1.975-64.429,9.193-94.873,21.949c-18.415,7.716-36.861,15.217-53.985,25.594c-1.01,1.235-2.312,1.958-3.875,2.287 c-0.451-1.861,0.891-2.093,2.076-2.462c5.666-5.494,11.954-10.169,18.995-13.715c19.929-10.035,39.671-20.491,59.955-29.755 c18.143-8.286,37.736-12.69,56.694-18.793c7.439-2.395,14.935-4.626,22.308-7.21c2.668-0.935,3.744-0.482,5.492,1.914 C627.664,255.773,633.226,262.089,639.22,269.412z M630.552,227.229c-6.389-9.884-11.529-20.45-17.208-30.725 c-8.248-14.922-14.456-30.802-23.056-45.591c-22.437-38.584-44.779-77.271-60.174-119.439c-2.677-7.332-4.935-14.876-9.072-21.62 c-1.405-2.291-2.626-3.496-5.972-3.012c-11.234,1.622-22.659,2.001-33.85,3.831c-18.695,3.057-37.622,5.097-55.334,12.807 c-14.868,6.472-28.044,15.546-41.298,24.628c-6.125,4.197-12.905,7.384-18.237,12.787c-9.222,9.347-17.712,19.371-27.613,28.11 c-7.854,6.932-7.958,10.65-3.447,19.855c0.945,1.928,2.005,3.812,3.158,5.624c9.914,15.574,18.335,32.038,24.316,49.383 c11.112,32.229,28.461,61.394,43.736,91.524c11.562,22.806,24.932,44.671,32.792,69.546c0.912-0.506,1.639-0.777,2.206-1.244 c7.562-6.227,14.961-12.661,22.68-18.686c11.984-9.356,26.277-14.598,39.645-21.447c14.782-7.574,28.765-16.981,44.721-21.96 c16.044-5.005,31.827-10.822,48.133-15.055c10.378-2.694,20.479-6.493,30.625-10.026 C634.439,234.034,634.574,233.451,630.552,227.229z M361.166,104.896c-1.111-1.559,0.444-2.93,1.618-3.955 c17.967-15.698,34.462-33.624,56.723-43.338c20.535-8.961,41.917-15.946,63.801-21.068c3.159-0.739,6.639-0.102,9.971-0.102 c0-0.15,0-0.301-0.001-0.451c2.549,0,5.111-0.153,7.644,0.049c1.966,0.157,4.847-0.515,4.863,2.766 c0.015,3.179-2.936,2.678-4.843,2.998c-2.3,0.386-4.698,0.36-7.045,0.269c-9.556-0.37-18.594,1.931-27.524,5.012 c-11.44,3.946-22.922,7.772-34.394,11.627c-16.051,5.394-29.799,14.588-42.171,25.911c-7.679,7.028-15.933,13.308-24.164,19.632 C364.324,105.259,362.668,107.004,361.166,104.896z M377.077,137.381c-1.273,0.514-3.309,1.006-4.143-0.824 c-0.792-1.737,1.019-2.182,2.095-2.946c4.809-3.415,8.882-7.629,13.109-11.722c19.104-18.499,41.071-32.46,66.463-40.732 c6.506-2.119,12.992-4.203,19.188-7.186c12.929-6.225,28.614-9.691,45.414-10.226c1.376,0.073,3.597,0.086,4.082,2.507 c0.595,2.973-1.921,3.704-3.983,4.01c-5.792,0.861-11.616,1.59-17.452,2.052c-14.654,1.16-26.598,10.006-40.258,13.978 c-28.194,8.199-52.621,22.786-73.438,43.494C384.962,132.962,381.293,135.679,377.077,137.381z M398.662,168.092 c-1.358,2.04-3.258,4.991-6.006,3.034c-3.21-2.286-0.401-4.614,1.076-6.918c16.019-24.995,41.109-38.564,66.06-52.123 c19.238-10.454,39.755-17.944,60.978-23.327c5.07-1.286,10.386-1.632,14.91-3.103c2.101,0.13,3.84-0.107,4.218,2.058 c0.312,1.787-0.493,3.083-2.051,3.825c-1.229,0.585-2.545,1.286-3.855,1.36c-11.482,0.651-21.801,5.774-32.74,8.505 c-14.111,3.524-26.695,11.009-39.708,17.22C436.947,130.362,414.219,144.721,398.662,168.092z M407.363,199.139 c-2.175-1.796,1.463-4.626,2.835-6.826c9.815-15.733,24.769-26.156,39.456-36.452c12.296-8.619,25.697-15.77,39.027-22.777 c16.922-8.895,35.877-10.345,54.334-13.397c2.391-0.471,5.277-1.153,5.746,2.074c0.478,3.288-2.465,3.804-5.109,4.253 c-17.327,2.942-35.414,4.132-50.866,12.998c-19.63,11.264-40.318,21.016-57.296,36.61c-6.781,6.228-14.223,11.719-19.694,19.269 c-0.229,0.316-0.495,0.612-0.777,0.883C412.807,197.909,409.672,201.044,407.363,199.139z M416.482,230.646 c-1.288-0.196-2.234-0.828-2.571-2.058c-0.328-1.196-0.047-2.099,1.236-2.874c25.638-15.485,48.799-34.71,74.955-49.445 c12.512-7.048,25.871-12.076,39.135-17.279c8.405-3.297,17.771-2.103,26.606-3.691c3.071-0.552,6.174-0.933,9.102-1.368 c2.235,0.18,5.024-0.492,5.296,2.511c0.24,2.648-2.084,3.418-4.359,3.769c-6.559,1.01-13.085,2.587-19.679,2.96 c-18.635,1.054-34.598,9.773-50.255,18.272c-18.539,10.063-36.569,21.21-53.185,34.462c-6.24,4.977-13.424,8.771-20.19,13.085 C420.725,230.168,418.772,230.995,416.482,230.646z M434.477,256.464c-1.293,0.883-2.542,1.832-3.804,2.758 c-1.012,0.743-2.047,1.241-3.109,0.129c-1.003-1.05-0.792-2.09,0.127-3.089c1.325-1.44,2.575-2.955,3.97-4.324 c21.01-20.62,45.434-35.58,73.305-45.21c16.773-5.796,32.568-14.186,49.686-19.21c6.768-1.986,13.39-4.298,20.56-4.194 c2.154,0.1,4.308,0.183,6.461,0.305c1.823,0.103,2.992,1.097,3.089,2.898c0.102,1.888-1.091,2.748-2.915,2.953 c-41.449,4.673-77.225,24.9-114.081,41.994C455.078,237.359,445.958,248.623,434.477,256.464z M602.243,207.131 c-0.58,2.891-3.288,2.933-5.127,3.006c-13.294,0.525-25.483,5.634-38.124,8.842c-4.361,1.107-8.801,2.187-12.615,4.626 c-22.545,14.411-47.958,22.904-71.718,34.813c-10.234,5.129-20.251,10.268-27.983,18.958c-0.644,0.724-1.424,1.356-2.228,1.904 c-1.366,0.932-3.008,1.575-4.209,0.072c-1.06-1.326-0.681-2.707,0.615-4.119c6.783-7.39,13.833-14.295,23.001-18.894 c18.36-9.211,37.306-17.099,56.037-25.476c2.854-1.277,5.918-2.283,8.457-4.034c19.913-13.727,42.936-17.97,66.067-21.898 c1.91-0.324,3.91-0.213,5.863-0.148C601.667,204.827,602.385,205.68,602.243,207.131z"/></g></svg>