<?xml version="1.0" encoding="UTF-8" standalone="no"?><svg xmlns="http://www.w3.org/2000/svg" xmlns:xlink="http://www.w3.org/1999/xlink" contentScriptType="text/ecmascript" fill="#000000" width="1652.1" zoomAndPan="magnify" contentStyleType="text/css" viewBox="-0.5 -2.7 1652.1 2830.6" height="2830.6" preserveAspectRatio="xMidYMid meet" version="1"><defs><clipPath id="a"><path d="M 165 1733 L 1122 1733 L 1122 2827.820312 L 165 2827.820312 Z M 165 1733"/></clipPath><clipPath id="b"><path d="M 1387 514 L 1651.640625 514 L 1651.640625 1191 L 1387 1191 Z M 1387 514"/></clipPath></defs><g><g id="change1_1" clip-path="url(#a)"><path fill="#4e4e4e" d="M 1016.128906 1733 C 976.527344 1747.710938 934.796875 1755.28125 893.105469 1757.769531 C 845.929688 1760.589844 798.257812 1755.140625 752.90625 1763.390625 C 705.691406 1771.988281 661.007812 1795.03125 614.007812 1802.269531 C 563.96875 1809.980469 511.660156 1799.488281 470.25 1816.398438 C 426.730469 1834.171875 396.289062 1880.699219 370.433594 1930.359375 C 345.425781 1978.390625 324.980469 2028.671875 307.417969 2080.289062 C 291.996094 2125.621094 278.613281 2171.640625 262.488281 2216.699219 C 245.453125 2264.300781 225.164062 2310.738281 215.019531 2359.371094 C 205.402344 2405.46875 204.667969 2453.378906 200.785156 2501.058594 C 197.472656 2541.808594 191.785156 2582.378906 187.074219 2623.039062 C 181.964844 2667.199219 177.878906 2711.480469 173.195312 2755.691406 C 170.644531 2779.75 168.007812 2803.800781 165.078125 2827.820312 L 1104.929688 2827.820312 C 1107.398438 2781.339844 1109.320312 2733.578125 1113.480469 2687.199219 C 1117.890625 2638.171875 1122.601562 2589.121094 1121.699219 2540.488281 C 1120.949219 2499.878906 1115.558594 2459.53125 1111.640625 2419.019531 C 1107.628906 2377.621094 1105.070312 2336.089844 1101.761719 2294.609375 C 1098.488281 2253.648438 1094.558594 2212.761719 1090.289062 2171.890625 C 1084.851562 2119.789062 1078.820312 2067.738281 1068.230469 2016.640625 C 1058.429688 1969.320312 1044.421875 1922.890625 1034.570312 1875.578125 C 1024.808594 1828.699219 1018.171875 1781.03125 1016.128906 1733"/></g><g id="change2_1"><path fill="#ffeaca" d="M 472.835938 993.445312 C 499.699219 1009.300781 529.964844 1016.085938 559.4375 1013.554688 C 586.339844 1011.238281 612.496094 1000.695312 639.238281 991.628906 C 663.46875 983.414062 688.03125 976.308594 710.921875 965.613281 C 733.695312 954.988281 754.726562 941.144531 769.574219 922.570312 C 779.226562 910.496094 786.105469 896.636719 796.179688 893.714844 C 806.605469 890.695312 819.546875 898.707031 831.769531 909.710938 C 851.707031 927.65625 868.007812 952.492188 882.335938 978.164062 C 899.796875 1009.441406 915.226562 1041.53125 926.8125 1075.246094 C 935.578125 1100.761719 942.34375 1126.976562 948.757812 1153.230469 C 955.335938 1180.171875 961.894531 1207.113281 965.910156 1234.46875 C 969.980469 1262.21875 971.613281 1290.300781 972.554688 1318.429688 C 973.519531 1347.296875 973.808594 1376.1875 973.984375 1405.066406 C 974.140625 1430.132812 974.171875 1455.207031 974.742188 1480.257812 C 975.261719 1502.992188 976.140625 1525.75 976.464844 1548.523438 C 976.871094 1576.816406 976.234375 1605.089844 975.667969 1633.433594 C 975.042969 1664.777344 974.300781 1695.808594 964.296875 1723.757812 C 954.992188 1749.746094 937.886719 1772.445312 915.222656 1787.507812 C 893.503906 1801.949219 867.027344 1808.828125 839.855469 1813.277344 C 817.082031 1817.007812 794.117188 1818.898438 771.152344 1818.015625 C 745.214844 1817.027344 719.660156 1812.617188 696.800781 1801.957031 C 668.941406 1788.964844 645.667969 1767.15625 628.886719 1740.628906 C 614.617188 1718.066406 605.203125 1692.527344 599.027344 1665.996094 C 593.523438 1642.355469 590.523438 1618.175781 587.417969 1593.941406 C 584.484375 1571.066406 581.289062 1548.222656 579.898438 1525.226562 C 578.261719 1498.238281 578.855469 1471.046875 579.777344 1443.882812 C 580.625 1418.925781 581.59375 1393.980469 581.195312 1369.058594 C 580.769531 1342.628906 578.667969 1316.222656 575.199219 1290.003906 C 572.128906 1266.832031 567.933594 1243.824219 562.890625 1220.992188 C 556.445312 1191.863281 548.660156 1163.023438 537.96875 1135.296875 C 527.929688 1109.257812 515.671875 1084.050781 503.429688 1058.832031 C 492.921875 1037.179688 482.96875 1015.277344 472.835938 993.445312"/></g><g id="change3_2"><path fill="#f7bd9a" d="M 625.742188 83.902344 C 596.105469 76.574219 565.015625 76.761719 535.214844 84.105469 C 506.867188 91.074219 480.21875 104.308594 457.308594 122.804688 C 430.378906 144.546875 409.246094 173.359375 386.550781 201.125 C 365.28125 227.132812 342.503906 252.046875 335.65625 280.875 C 328.199219 312.289062 339.566406 347.816406 328.125 373.101562 C 315.671875 400.613281 276.589844 414.675781 265.0625 441.679688 C 254.894531 465.496094 265.46875 497.886719 279.847656 529.519531 C 294.472656 561.6875 312.429688 592.273438 325.859375 624.882812 C 337.140625 652.277344 344.886719 681.125 352.304688 710.054688 C 361.8125 747.152344 370.828125 784.40625 377.746094 821.992188 C 383.394531 852.714844 387.785156 883.585938 394.457031 913.984375 C 401.882812 947.792969 412.394531 980.808594 426.605469 1012.203125 C 440.816406 1043.578125 458.953125 1072.980469 480.5 1099.785156 C 504.957031 1130.21875 533.554688 1156.621094 567.425781 1172.042969 C 595.355469 1184.761719 625.917969 1189.632812 653.265625 1181.414062 C 679.257812 1173.601562 701.199219 1154.011719 719.625 1130.773438 C 742.546875 1101.863281 758.976562 1067.953125 773.988281 1033.03125 C 788.644531 998.953125 801.527344 964.027344 802.445312 933.527344 C 802.894531 918.625 800.625 905.054688 793.933594 892.292969 C 782.453125 870.367188 757.203125 852.34375 737.757812 829.320312 C 723.128906 811.984375 710.597656 792.136719 703.492188 770.058594 C 721.640625 753.28125 736.933594 733.988281 750.484375 713.582031 C 781.28125 667.230469 802.078125 615.9375 809.167969 562.652344 C 812.109375 540.574219 812.648438 518.277344 813.164062 496.046875 C 814.207031 451.117188 815.507812 406.285156 809.832031 362.382812 C 805.09375 325.707031 795.507812 289.941406 783.648438 254.832031 C 771.785156 219.707031 757.625 185.746094 736 157.308594 C 708.378906 120.984375 669.40625 94.6875 625.742188 83.902344"/></g><g id="change4_1"><path fill="#62483c" d="M 719.621094 40.835938 C 682.953125 19.011719 640.355469 19.894531 602.105469 43.941406 C 567.644531 11.257812 523.398438 -2.742188 478.785156 0.429688 C 416.175781 4.90625 356.996094 43.332031 311.652344 96.699219 C 270.585938 145.046875 243.121094 202.644531 234.945312 264.476562 C 230.640625 297.019531 231.792969 330.085938 239.554688 362.582031 C 250.898438 410.0625 275.925781 455.898438 299.523438 502.6875 C 312.640625 528.691406 325.578125 555.046875 339.621094 579.628906 C 348.199219 594.652344 356.617188 608.113281 362.203125 607.609375 C 371.03125 606.8125 371.527344 576.417969 365.621094 538.460938 C 360.875 507.960938 352.070312 478.296875 356.058594 450.171875 C 359.960938 422.589844 376.308594 396.792969 393.410156 371.53125 C 410.253906 346.65625 428.066406 322.574219 447.410156 299.675781 C 466.589844 276.964844 487.109375 255.523438 512.242188 243.273438 C 540.824219 229.363281 575.394531 227.59375 603.023438 213.226562 C 614.867188 207.050781 625.3125 198.65625 637.316406 195.253906 C 653.429688 190.710938 671.574219 194.804688 687.566406 204.605469 C 711.382812 219.195312 729.238281 245.964844 746.398438 273.636719 C 764.179688 302.292969 780.980469 331.320312 792.890625 362.425781 C 804.144531 391.8125 810.207031 422.78125 811.910156 454.5625 C 829.117188 428.3125 839.027344 398.699219 841.792969 368.390625 C 844.671875 336.851562 839.4375 304.777344 833.027344 272.820312 C 812.664062 171.261719 781.109375 77.457031 719.621094 40.835938"/></g><g id="change4_2"><path fill="#62483c" d="M 736.292969 358.929688 C 722.921875 357.734375 709.214844 360.660156 695.308594 363.007812 C 676.304688 366.207031 658.757812 367.691406 656.113281 375.554688 C 654.40625 380.648438 658.25 387.253906 665.0625 390.421875 C 675.15625 395.117188 690.335938 389.632812 706.660156 386.449219 C 717.121094 384.421875 727.835938 383.542969 738.492188 382.328125 C 746.851562 381.375 755.183594 380.296875 763.25 381.191406 C 775.277344 382.542969 785.550781 387.996094 786.691406 386.421875 C 787.90625 384.753906 780.082031 377.011719 768.035156 369.84375 C 758.289062 364.054688 747.5 360.203125 736.292969 358.929688"/></g><g id="change4_3"><path fill="#62483c" d="M 570.746094 378.289062 C 567.210938 371.523438 549.835938 374.132812 530.640625 375.199219 C 509.449219 376.390625 488.09375 376.375 471.609375 382.71875 C 462.191406 386.335938 454.480469 392.019531 447.246094 398.378906 C 431.027344 412.617188 420.355469 426.949219 422.511719 430.039062 C 425.335938 434.078125 451.042969 415.253906 484.710938 405.1875 C 498.207031 401.136719 512.261719 398.800781 526.210938 399.539062 C 537.847656 400.15625 548.980469 402.6875 557.785156 399.238281 C 568.710938 394.941406 574.191406 384.574219 570.746094 378.289062"/></g><g id="change5_1"><path fill="#393939" d="M 481.976562 454.03125 C 481.9375 441.207031 490.203125 430.855469 500.34375 430.839844 C 510.5 430.839844 518.707031 441.207031 518.707031 454.03125 C 518.707031 466.851562 510.5 477.21875 500.34375 477.21875 C 490.203125 477.21875 481.9375 466.867188 481.976562 454.03125"/></g><g id="change5_2"><path fill="#393939" d="M 703.492188 436.640625 C 703.488281 424.097656 710.027344 413.984375 718.042969 413.96875 C 726.089844 413.953125 732.59375 424.097656 732.59375 436.640625 C 732.59375 449.199219 726.089844 459.34375 718.042969 459.328125 C 710.027344 459.3125 703.488281 449.199219 703.492188 436.640625"/></g><g id="change6_1"><path fill="#886047" d="M 622.546875 599.164062 L 620.613281 589.339844 C 636.128906 586.289062 648.753906 579.136719 656.171875 569.226562 C 662.097656 561.300781 664.191406 552.746094 661.773438 546.367188 C 660.242188 542.324219 656.460938 538.542969 652.457031 534.558594 C 649.816406 531.914062 647.085938 529.183594 644.609375 526.046875 C 638.21875 517.945312 633.6875 507.4375 630.355469 492.96875 C 627.027344 478.535156 625.25 463.617188 625.0625 448.609375 L 635.0625 448.492188 C 635.238281 462.785156 636.933594 476.984375 640.101562 490.722656 C 643.089844 503.699219 647.019531 512.953125 652.460938 519.859375 C 654.570312 522.527344 657.085938 525.039062 659.523438 527.476562 C 664.097656 532.046875 668.828125 536.761719 671.125 542.820312 C 674.761719 552.425781 672.167969 564.523438 664.179688 575.210938 C 655.28125 587.121094 640.496094 595.617188 622.546875 599.164062"/></g><g id="change7_1"><path fill="#ffffff" d="M 536.484375 644.445312 C 565.445312 650.683594 594.789062 652.851562 623.601562 649.765625 C 646.957031 647.273438 669.878906 641.386719 691.558594 631.589844 C 685.464844 667.027344 663.929688 691.953125 631.425781 698.097656 C 593.195312 705.332031 559.148438 683.316406 536.484375 644.445312"/></g><g id="change6_2"><path fill="#886047" d="M 622.386719 805.3125 C 595.921875 805.3125 566.675781 797.6875 531.027344 781.574219 C 498.449219 766.839844 467.085938 747.070312 435.148438 721.125 L 441.453125 713.367188 C 472.714844 738.753906 503.363281 758.082031 535.148438 772.457031 C 572.140625 789.191406 601.707031 796.402344 628.195312 795.183594 C 651.402344 794.105469 673.125 786.984375 691.019531 774.582031 L 696.714844 782.792969 C 677.277344 796.273438 653.742188 804.003906 628.65625 805.171875 C 626.582031 805.261719 624.492188 805.3125 622.386719 805.3125"/></g><g id="change8_1"><path fill="#2a6c7e" d="M 391.25 754.199219 C 380.386719 778.230469 365.175781 799.742188 346.988281 818.152344 C 329.394531 835.949219 308.667969 850.601562 286.9375 863.667969 C 262.621094 878.296875 237.109375 890.980469 211.183594 902.8125 C 185.703125 914.429688 159.980469 925.46875 134.628906 937.339844 C 111.601562 948.128906 89.109375 959.804688 68.523438 974.246094 C 45.554688 990.351562 25.230469 1009.863281 13.933594 1033.84375 C 2.96875 1057.125 0.691406 1084.324219 0.140625 1111.753906 C -0.46875 1142.09375 0.984375 1172.460938 2.839844 1202.863281 C 4.769531 1234.476562 6.941406 1266.078125 8.394531 1297.71875 C 9.925781 1331.074219 10.472656 1364.480469 13.414062 1397.632812 C 15.960938 1426.359375 20.246094 1454.878906 24.679688 1483.386719 C 29.570312 1514.824219 34.550781 1546.246094 43.21875 1576.613281 C 53.894531 1614.03125 70.242188 1649.8125 80.304688 1687.261719 C 87.839844 1715.3125 91.804688 1744.300781 99.535156 1772.261719 C 107.105469 1799.632812 118.277344 1826 127.84375 1852.890625 C 149.234375 1913.0625 163.210938 1976.371094 194.007812 2018.472656 C 211.453125 2042.3125 234.15625 2059.320312 239.351562 2080.691406 C 245.640625 2106.550781 226.4375 2137.570312 215.113281 2171.421875 C 206.40625 2197.441406 202.382812 2225.101562 198.398438 2252.691406 C 194.160156 2282.0625 190.128906 2311.46875 185.480469 2340.78125 C 180.839844 2370.0625 175.5625 2399.242188 169.902344 2428.351562 C 164.570312 2455.8125 159.015625 2483.230469 153.042969 2510.5625 C 146.984375 2538.261719 140.410156 2565.878906 135.109375 2593.640625 C 130.976562 2615.300781 127.4375 2637.03125 124.855469 2658.898438 C 152.894531 2688.730469 187.75 2710.25 225.113281 2722.789062 C 259.855469 2734.441406 297.46875 2737.359375 335.101562 2739.589844 C 377.015625 2742.078125 419.007812 2743.25 460.121094 2749.878906 C 498.714844 2756.089844 536.488281 2767.570312 575.070312 2774.050781 C 599.089844 2778.078125 623.410156 2780.519531 647.859375 2780.378906 C 654.59375 2736.96875 659.0625 2693.25 662.144531 2649.480469 C 665.402344 2603.148438 666.492188 2556.671875 672.375 2510.820312 C 677.667969 2469.570312 686.714844 2428.839844 693.066406 2387.691406 C 700.039062 2342.5 703.449219 2296.761719 714.011719 2252.8125 C 723.417969 2213.671875 737.710938 2175.601562 757.988281 2140.371094 C 796.6875 2134.941406 835.230469 2128.191406 872.953125 2119.21875 C 897.445312 2113.402344 921.605469 2106.691406 945.402344 2098.652344 C 958.476562 2134.992188 971.273438 2171.429688 984.058594 2207.871094 C 1024.808594 2324 1065.277344 2441.210938 1087.117188 2554.378906 C 1098.097656 2611.269531 1104.835938 2667.058594 1105.160156 2723.601562 C 1141.46875 2676.820312 1172.429688 2626.800781 1194.746094 2573.417969 C 1211.226562 2534.019531 1222.957031 2492.949219 1223.628906 2451.492188 C 1224.226562 2414.191406 1216.167969 2376.882812 1207.078125 2339.550781 C 1179.078125 2224.613281 1143.617188 2109.96875 1118.65625 1997.671875 C 1109.867188 1958.132812 1102.648438 1918.800781 1098.398438 1879.089844 C 1094.257812 1840.480469 1093.109375 1801.542969 1096.6875 1763.0625 C 1099.769531 1729.953125 1105.976562 1697.09375 1116.289062 1665.242188 C 1121.488281 1684.832031 1130.128906 1703.023438 1142.21875 1718.53125 C 1152.378906 1731.570312 1165.058594 1742.519531 1178.367188 1752.75 C 1196.886719 1767 1216.566406 1779.652344 1237.835938 1787.121094 C 1252.476562 1792.273438 1267.765625 1794.84375 1283.101562 1797.542969 C 1301.164062 1800.730469 1319.230469 1804.152344 1335.550781 1800.402344 C 1348.222656 1797.492188 1359.683594 1790.28125 1372.0625 1785.082031 C 1384.351562 1779.921875 1397.507812 1777 1407.796875 1768.652344 C 1426.929688 1753.132812 1436 1719.683594 1448.734375 1687.59375 C 1460.503906 1657.980469 1475.882812 1629.75 1486.863281 1599.921875 C 1497.230469 1571.792969 1503.972656 1542.378906 1511.261719 1513.054688 C 1519.558594 1479.675781 1528.601562 1446.457031 1537.8125 1413.316406 C 1546.960938 1380.394531 1556.4375 1347.546875 1565.710938 1314.660156 C 1574.652344 1282.996094 1583.101562 1251.269531 1592.082031 1219.65625 C 1602.144531 1184.238281 1612.398438 1150.351562 1600.363281 1127.769531 C 1586.839844 1102.351562 1545.8125 1093.699219 1504.113281 1083 C 1468.3125 1073.828125 1431.878906 1064.328125 1408.332031 1066.324219 C 1400.992188 1066.945312 1394.9375 1068.449219 1389.554688 1072.582031 C 1372.023438 1086.082031 1363.921875 1127.296875 1354.683594 1169.179688 C 1348.3125 1198.03125 1340.792969 1226.753906 1332.5625 1255.238281 C 1321.8125 1292.601562 1309.804688 1329.609375 1297.769531 1366.707031 C 1290.59375 1388.867188 1283.417969 1411.027344 1276.550781 1433.289062 C 1262.128906 1418.636719 1251.699219 1401.640625 1242.277344 1382.113281 C 1222.078125 1340.207031 1210.949219 1283.136719 1197.988281 1229.503906 C 1182.015625 1163.390625 1161.738281 1097.808594 1140.429688 1033.832031 C 1128.597656 998.289062 1116.476562 963.507812 1092.988281 939.171875 C 1070.4375 915.8125 1037.707031 902.46875 1003.539062 894.402344 C 964.726562 885.230469 924.417969 882.992188 885.125 874.660156 C 851.308594 867.496094 818.34375 855.792969 786.285156 842.105469 C 764.148438 832.652344 742.207031 822.640625 720.988281 811.191406 L 717.671875 813.429688 C 735.132812 850.121094 754.347656 885.957031 774.667969 921.09375 C 793.273438 953.253906 813.300781 984.550781 828.160156 1018.234375 C 844.410156 1055.066406 854.644531 1094.539062 865.867188 1133.761719 C 876.246094 1170.015625 887.507812 1206.097656 894.824219 1241.957031 C 899.242188 1263.597656 902.253906 1285.160156 905.242188 1306.75 C 908.0625 1327.117188 910.824219 1347.496094 914.457031 1367.699219 C 921.113281 1404.78125 930.773438 1441.265625 936.335938 1478.375 C 941.746094 1514.503906 943.328125 1551.195312 942.570312 1587.851562 C 941.738281 1628.03125 938.367188 1668.203125 934.886719 1708.382812 C 930.800781 1755.53125 927.398438 1802.730469 923.707031 1849.910156 C 894.039062 1853.53125 864.226562 1855.363281 834.398438 1855.542969 C 801.980469 1855.722656 769.558594 1853.953125 737.261719 1850.382812 C 736.574219 1789.0625 733.558594 1727.640625 726.296875 1667.253906 C 721.566406 1627.972656 714.886719 1589.164062 709.050781 1550.125 C 703.015625 1509.722656 697.855469 1469.191406 689.46875 1429.335938 C 681.46875 1391.296875 670.421875 1353.945312 660.871094 1316.1875 C 653.023438 1285.160156 646.234375 1253.878906 633.859375 1224.859375 C 619.636719 1191.503906 598.195312 1161.113281 578.394531 1129.703125 C 556.046875 1094.246094 535.957031 1057.355469 515.339844 1020.769531 C 495.847656 986.152344 476.179688 951.664062 456.8125 916.984375 C 437.71875 882.800781 418.585938 848.070312 406.097656 813.136719 C 399.148438 793.710938 393.84375 774.3125 391.25 754.199219"/></g><g id="change3_3"><path fill="#f7bd9a" d="M 969.46875 1857.480469 C 973.078125 1860.410156 977.457031 1861.421875 982.230469 1860.71875 C 995.878906 1858.738281 1012.929688 1841.539062 1028.019531 1822.449219 C 1041.558594 1805.320312 1053.699219 1787.160156 1065.171875 1768.480469 C 1075.820312 1751.140625 1086.210938 1733.71875 1100.269531 1721.039062 C 1111.078125 1711.289062 1123.929688 1704.621094 1137.050781 1704.820312 C 1155.300781 1705.089844 1173.320312 1719.101562 1191.398438 1733.710938 C 1207.511719 1746.71875 1223.351562 1760.101562 1240.628906 1771.269531 C 1256.808594 1781.730469 1274.03125 1790.261719 1288.128906 1802.539062 C 1301.839844 1814.480469 1312.101562 1829.570312 1315.359375 1846.378906 C 1318.828125 1864.269531 1313.820312 1883.371094 1307.03125 1902.179688 C 1300.640625 1919.851562 1292.308594 1936.691406 1281.929688 1943.488281 C 1277.410156 1946.460938 1272.621094 1947.398438 1267.960938 1946.859375 C 1261.980469 1946.171875 1256.5 1943.039062 1252.910156 1937.371094 C 1243.371094 1922.289062 1248.511719 1892.289062 1262.871094 1861.351562 C 1251.660156 1877.789062 1239.539062 1893.5 1226.378906 1908.351562 C 1211.351562 1925.308594 1195.210938 1941.179688 1177.078125 1954.460938 C 1160.71875 1966.429688 1142.851562 1976.230469 1124.371094 1984.859375 C 1106.761719 1993.078125 1088.679688 2000.28125 1070.019531 2003.570312 C 1055.871094 2006.058594 1041.441406 2006.511719 1027.121094 2004.238281 C 1026.53125 1990.691406 1025.511719 1977.191406 1023.699219 1963.800781 C 1022.320312 1953.601562 1020.519531 1943.480469 1017.941406 1933.558594 C 1015.730469 1925.039062 1012.949219 1916.691406 1009.5 1908.609375 C 1005.5 1899.269531 1000.628906 1890.339844 994.589844 1882.238281 C 987.570312 1872.839844 979.066406 1864.550781 969.46875 1857.480469"/></g><g id="change3_1" clip-path="url(#b)"><path fill="#f7bd9a" d="M 1402.839844 1121.90625 C 1405.480469 1098.757812 1407.640625 1075.550781 1410.988281 1052.472656 C 1414.191406 1030.445312 1417.5 1008.417969 1416.019531 986.800781 C 1414.429688 963.636719 1407.050781 940.886719 1400.4375 917.90625 C 1394.097656 895.894531 1388.71875 873.726562 1387.339844 851.269531 C 1385.929688 828.40625 1388.941406 805.398438 1395.578125 783.371094 C 1402.328125 760.988281 1412.890625 739.925781 1425.238281 719.832031 C 1442.535156 691.683594 1460.714844 668.40625 1474.632812 671.925781 C 1482.429688 673.902344 1487.570312 683.855469 1487.585938 696.652344 C 1500.140625 677.351562 1511.714844 657.398438 1523.074219 637.402344 C 1533.003906 619.933594 1542.261719 602.09375 1550.285156 583.773438 C 1561.476562 558.238281 1570.085938 532.363281 1586.289062 521.113281 C 1596.144531 514.253906 1607.4375 512.878906 1613.074219 518.105469 C 1623.257812 527.507812 1610.914062 557.65625 1597.4375 591.953125 C 1588.71875 614.152344 1579.882812 636.292969 1571.121094 658.492188 C 1564.375 675.546875 1557.929688 692.71875 1551.394531 709.832031 C 1562.542969 713.183594 1571.660156 719.589844 1576.84375 728.75 C 1581.035156 736.148438 1582.3125 744.828125 1580.140625 753.589844 C 1594.753906 745.792969 1611.1875 747.054688 1623.910156 754.683594 C 1637.617188 762.890625 1646.179688 778.542969 1649.730469 795.941406 C 1654.359375 818.605469 1649.941406 843.203125 1643.070312 867.476562 C 1636.578125 890.414062 1628.214844 912.738281 1618.214844 934.453125 C 1608.8125 954.890625 1598.203125 974.757812 1588.433594 995.054688 C 1578.976562 1014.667969 1570.398438 1034.777344 1565.285156 1055.652344 C 1559.730469 1078.335938 1558.183594 1101.894531 1555.074219 1125.316406 C 1550.742188 1157.753906 1544.039062 1186.441406 1529.324219 1190.316406 C 1514.9375 1194.109375 1494.5 1171.214844 1469.308594 1153.277344 C 1449.339844 1139.046875 1426.886719 1128.296875 1402.839844 1121.90625"/></g><g id="change6_3"><path fill="#886047" d="M 1541.277344 703.261719 C 1534.921875 700.371094 1528.25 698.574219 1521.410156 697.902344 C 1514.515625 697.234375 1507.539062 697.71875 1500.660156 699.347656 L 1498.359375 689.617188 C 1506.304688 687.738281 1514.382812 687.171875 1522.378906 687.949219 C 1530.300781 688.722656 1538.0625 690.8125 1545.414062 694.160156 L 1541.277344 703.261719"/></g><g id="change6_4"><path fill="#886047" d="M 1448.726562 815.007812 C 1446.894531 815.007812 1445.15625 814.679688 1443.574219 814.027344 C 1435.078125 810.523438 1431.339844 798.605469 1433.824219 782.90625 C 1435.511719 772.203125 1440.308594 761.171875 1448.90625 748.203125 C 1452.109375 743.382812 1455.585938 738.714844 1458.933594 734.207031 C 1461.652344 730.546875 1464.476562 726.769531 1467.074219 722.992188 C 1472.121094 715.660156 1477.925781 706.875 1482.683594 697.359375 L 1491.636719 701.84375 C 1486.578125 711.910156 1480.550781 721.042969 1475.308594 728.652344 C 1472.605469 732.585938 1469.730469 736.453125 1466.957031 740.179688 C 1463.675781 744.585938 1460.292969 749.132812 1457.246094 753.734375 C 1449.457031 765.457031 1445.15625 775.222656 1443.707031 784.476562 C 1441.96875 795.519531 1444.203125 803.464844 1447.378906 804.773438 C 1448.949219 805.414062 1452.566406 804.851562 1457.652344 801.164062 C 1464.996094 795.832031 1471.140625 786.65625 1477.648438 776.945312 L 1479.53125 774.148438 C 1486.65625 763.589844 1494.027344 753.457031 1501.449219 744.046875 C 1509.945312 733.292969 1517.683594 723.621094 1526.246094 714.183594 L 1533.644531 720.902344 C 1525.289062 730.101562 1517.683594 739.628906 1509.304688 750.242188 C 1502.039062 759.457031 1494.796875 769.378906 1487.820312 779.730469 L 1485.960938 782.515625 C 1479.257812 792.527344 1472.316406 802.878906 1463.535156 809.257812 C 1458.304688 813.046875 1453.207031 815.007812 1448.726562 815.007812"/></g><g id="change6_5"><path fill="#886047" d="M 1470.476562 866.453125 C 1467.464844 866.453125 1464.667969 865.738281 1462.28125 864.320312 C 1457.433594 861.449219 1454.355469 855.679688 1453.117188 847.179688 C 1451.6875 837.160156 1453.296875 825.632812 1458.019531 811.914062 L 1467.476562 815.179688 C 1463.277344 827.355469 1461.824219 837.351562 1463.023438 845.75 C 1463.777344 850.957031 1465.320312 854.503906 1467.375 855.71875 C 1469.597656 857.03125 1473.347656 856.585938 1477.445312 854.53125 C 1486.304688 850.078125 1494.359375 838.792969 1500.40625 829.449219 C 1503.714844 824.332031 1506.980469 819.035156 1510.148438 813.917969 C 1512.125 810.710938 1514.105469 807.507812 1516.109375 804.316406 C 1520.832031 796.8125 1526.601562 787.980469 1533.605469 779.503906 C 1542.976562 768.183594 1554.578125 757.347656 1568.082031 747.289062 L 1574.054688 755.316406 C 1561.175781 764.890625 1550.175781 775.175781 1541.316406 785.875 C 1534.667969 793.914062 1529.128906 802.402344 1524.582031 809.640625 C 1522.578125 812.820312 1520.625 815.996094 1518.648438 819.175781 C 1515.457031 824.34375 1512.164062 829.679688 1508.808594 834.886719 C 1501.660156 845.929688 1492.878906 857.964844 1481.9375 863.464844 C 1477.996094 865.445312 1474.074219 866.453125 1470.476562 866.453125"/></g><g id="change6_6"><path fill="#886047" d="M 1542.871094 829.925781 C 1542.058594 829.925781 1541.226562 829.898438 1540.398438 829.835938 C 1532.828125 829.273438 1525.75 826.234375 1519.9375 821.0625 L 1526.589844 813.59375 C 1530.746094 817.296875 1535.78125 819.46875 1541.140625 819.871094 C 1546.25 820.246094 1551.671875 818.863281 1557.246094 817.296875 C 1563.035156 815.652344 1567.730469 814.070312 1571.835938 811.644531 C 1575.425781 809.523438 1579.003906 806.472656 1583.109375 802.03125 C 1586.5625 798.289062 1589.851562 794.058594 1592.902344 789.476562 L 1598.226562 781.453125 L 1609.875 811.308594 L 1600.558594 814.933594 L 1595.738281 802.605469 C 1594.019531 804.777344 1592.261719 806.851562 1590.453125 808.820312 C 1585.671875 813.992188 1581.378906 817.632812 1576.921875 820.257812 C 1571.585938 823.398438 1565.609375 825.316406 1559.960938 826.914062 C 1554.523438 828.457031 1548.761719 829.925781 1542.871094 829.925781"/></g><g id="change9_1"><path fill="#4da0ac" d="M 654.632812 1836.558594 L 644.632812 1836.449219 C 644.847656 1815.296875 643.832031 1793.457031 641.527344 1769.6875 C 638.304688 1736.4375 632.804688 1703.519531 625.542969 1664.328125 C 616.898438 1617.703125 609.351562 1582.203125 601.066406 1549.214844 C 590.246094 1506.140625 578.527344 1469.417969 565.242188 1436.960938 C 551.367188 1403.042969 534.707031 1370.855469 517.425781 1338.113281 C 496.476562 1298.414062 479.019531 1266.273438 462.496094 1236.941406 C 445.375 1206.554688 424.746094 1170.871094 401.546875 1136.601562 C 378.183594 1102.089844 352.371094 1068.816406 324.828125 1037.726562 L 321.84375 1034.363281 L 399.023438 949.933594 C 385.625 954.808594 372.253906 959.585938 359.113281 964.195312 C 342.277344 970.097656 325.316406 975.902344 308.699219 981.445312 L 299.289062 984.578125 L 302.363281 975.140625 C 310.808594 949.230469 315.410156 925.910156 316.4375 903.859375 C 317.199219 887.433594 316.035156 872.53125 312.875 858.304688 L 322.636719 856.140625 C 325.988281 871.234375 327.230469 886.996094 326.425781 904.320312 C 325.484375 924.554688 321.671875 945.761719 314.800781 968.851562 C 328.382812 964.28125 342.136719 959.550781 355.800781 954.757812 C 373.300781 948.613281 391.214844 942.179688 409.042969 935.625 L 412.441406 934.378906 L 419.109375 942.785156 L 335.289062 1034.472656 C 362.003906 1064.917969 387.066406 1097.363281 409.828125 1131 C 433.230469 1165.558594 453.988281 1201.460938 471.207031 1232.027344 C 487.777344 1261.433594 505.273438 1293.671875 526.273438 1333.441406 C 543.667969 1366.417969 560.449219 1398.847656 574.5 1433.164062 C 587.964844 1466.066406 599.828125 1503.238281 610.765625 1546.785156 C 619.101562 1579.964844 626.691406 1615.660156 635.375 1662.507812 C 642.6875 1701.957031 648.222656 1735.117188 651.480469 1768.71875 C 653.820312 1792.859375 654.851562 1815.046875 654.632812 1836.558594"/></g><g id="change9_2"><path fill="#4da0ac" d="M 972.847656 1828.308594 L 962.875 1827.570312 C 964.695312 1802.960938 968.925781 1776.820312 975.804688 1747.640625 C 980.855469 1726.199219 987.285156 1704.789062 993.507812 1684.089844 C 999.5625 1663.941406 1005.820312 1643.101562 1010.75 1622.414062 C 1017.738281 1593.0625 1021.980469 1566.570312 1024.101562 1539.027344 C 1030.53125 1455.402344 1017.75 1353.136719 1002.988281 1255.089844 C 1001.46875 1244.980469 999.914062 1234.875 998.359375 1224.765625 C 993.632812 1193.996094 988.742188 1162.171875 984.820312 1130.738281 C 981.339844 1102.875 977.050781 1066.253906 974.578125 1028.992188 C 969.339844 1023.378906 963.199219 1018.175781 954.394531 1011.839844 C 923.671875 989.746094 876.671875 969.53125 839.152344 954.398438 L 841.886719 944.835938 C 857.308594 947.53125 872 944.882812 884.386719 937.152344 C 897.070312 929.230469 906.179688 916.714844 910.726562 900.933594 L 920.335938 903.699219 C 915.09375 921.890625 904.492188 936.382812 889.679688 945.640625 C 882.429688 950.15625 874.523438 953.207031 866.203125 954.730469 C 899.027344 968.609375 934.839844 985.453125 960.234375 1003.71875 C 970.308594 1010.964844 977.167969 1016.898438 983.167969 1023.554688 L 984.332031 1024.855469 L 984.441406 1026.582031 C 986.878906 1064.183594 991.226562 1101.339844 994.742188 1129.511719 C 998.648438 1160.789062 1003.527344 1192.542969 1008.25 1223.265625 C 1009.800781 1233.375 1011.347656 1243.480469 1012.878906 1253.601562 C 1027.730469 1352.226562 1040.578125 1455.167969 1034.070312 1539.796875 C 1031.910156 1567.871094 1027.589844 1594.859375 1020.480469 1624.734375 C 1015.480469 1645.699219 1009.179688 1666.679688 1003.078125 1686.96875 C 996.90625 1707.53125 990.519531 1728.789062 985.539062 1749.929688 C 978.78125 1778.601562 974.628906 1804.230469 972.847656 1828.308594"/></g><g id="change9_3"><path fill="#4da0ac" d="M 1116.105469 1666.152344 L 1106.136719 1665.355469 C 1108.644531 1634.246094 1108.984375 1601.269531 1107.15625 1567.335938 C 1106.285156 1551.328125 1104.816406 1535.03125 1103.394531 1519.269531 C 1102.003906 1503.84375 1100.566406 1487.914062 1099.683594 1472.164062 C 1097.777344 1438.199219 1098.175781 1404.917969 1098.816406 1376.835938 C 1099.015625 1367.839844 1099.265625 1358.832031 1099.503906 1349.847656 C 1100.007812 1331.511719 1100.515625 1312.546875 1100.675781 1293.917969 C 1100.90625 1266.023438 1100.292969 1237.613281 1099.707031 1210.160156 L 1099.65625 1208.0625 C 1098.964844 1175.859375 1098.253906 1142.53125 1095.996094 1109.945312 C 1093.503906 1074.074219 1089.277344 1038.273438 1083.414062 1003.535156 L 1093.277344 1001.878906 C 1099.183594 1036.941406 1103.453125 1073.066406 1105.964844 1109.25 C 1108.246094 1142.082031 1108.964844 1175.519531 1109.65625 1207.863281 L 1109.695312 1209.933594 C 1110.285156 1237.480469 1110.90625 1265.957031 1110.675781 1293.996094 C 1110.515625 1312.714844 1110.007812 1331.722656 1109.503906 1350.117188 C 1109.253906 1359.101562 1109.015625 1368.074219 1108.816406 1377.058594 C 1108.175781 1404.941406 1107.785156 1437.988281 1109.664062 1471.605469 C 1110.535156 1487.1875 1111.964844 1503.039062 1113.355469 1518.363281 C 1114.785156 1534.210938 1116.265625 1550.601562 1117.136719 1566.800781 C 1118.996094 1601.167969 1118.644531 1634.59375 1116.105469 1666.152344"/></g><g id="change9_4"><path fill="#4da0ac" d="M 1220.929688 1688.730469 C 1217.820312 1655.609375 1218.589844 1627.441406 1223.28125 1602.609375 C 1226.101562 1587.660156 1230.609375 1573.269531 1234.980469 1559.359375 L 1235.820312 1556.679688 C 1240.21875 1542.609375 1245.441406 1526.011719 1250.738281 1509.550781 C 1255.660156 1494.25 1260.808594 1479.019531 1265.199219 1466.148438 L 1274.671875 1469.371094 C 1270.289062 1482.210938 1265.160156 1497.378906 1260.261719 1512.609375 C 1254.96875 1529.039062 1249.761719 1545.621094 1245.359375 1559.671875 L 1244.519531 1562.351562 C 1240.039062 1576.621094 1235.820312 1590.089844 1233.101562 1604.460938 C 1228.589844 1628.359375 1227.871094 1655.621094 1230.890625 1687.789062 L 1220.929688 1688.730469"/></g><g id="change9_5"><path fill="#4da0ac" d="M 731.550781 1858.207031 C 691.382812 1858.015625 651.417969 1856.746094 621.089844 1855.65625 C 584.617188 1854.335938 543.277344 1852.855469 504.515625 1842.097656 C 467.632812 1831.867188 434.761719 1814.804688 406.808594 1791.417969 L 405.71875 1790.507812 L 405.273438 1789.15625 C 383.949219 1724.898438 357.6875 1640.597656 343.734375 1558.394531 C 341.757812 1546.75 340.023438 1535.035156 338.347656 1523.714844 C 335.160156 1502.199219 332.148438 1481.863281 327.550781 1461.367188 C 323.730469 1444.316406 318.789062 1427.15625 314.015625 1410.566406 C 308.652344 1391.925781 303.105469 1372.65625 299.0625 1353.320312 C 294.800781 1332.9375 292.171875 1311.957031 289.625 1291.667969 C 287.910156 1277.957031 286.128906 1263.789062 283.871094 1249.972656 C 277.550781 1211.34375 267.765625 1173.269531 254.78125 1136.78125 L 264.203125 1133.433594 C 277.382812 1170.472656 287.324219 1209.132812 293.738281 1248.351562 C 296.03125 1262.355469 297.820312 1276.625 299.546875 1290.421875 C 302.066406 1310.503906 304.675781 1331.28125 308.851562 1351.273438 C 312.820312 1370.242188 318.3125 1389.339844 323.625 1407.800781 C 328.441406 1424.535156 333.421875 1441.832031 337.308594 1459.171875 C 341.988281 1480.035156 345.164062 1501.492188 348.238281 1522.25 C 349.910156 1533.519531 351.636719 1545.179688 353.597656 1556.730469 C 367.335938 1637.675781 393.1875 1720.910156 414.316406 1784.660156 C 440.929688 1806.65625 472.167969 1822.746094 507.191406 1832.457031 C 544.8125 1842.90625 585.527344 1844.367188 621.449219 1845.65625 C 651.707031 1846.746094 691.570312 1848.015625 731.597656 1848.207031 L 731.550781 1858.207031"/></g><g id="change9_6"><path fill="#4da0ac" d="M 488.097656 2144.71875 C 486.050781 2144.71875 484.003906 2144.710938 481.960938 2144.691406 C 442.152344 2144.308594 402.316406 2140.578125 363.554688 2133.589844 C 323.890625 2126.441406 286.046875 2116.550781 251.066406 2104.199219 L 254.398438 2094.769531 C 288.871094 2106.941406 326.191406 2116.691406 365.328125 2123.75 C 403.539062 2130.640625 442.808594 2134.320312 482.054688 2134.691406 C 503.636719 2134.898438 525.65625 2133.941406 546.953125 2133.03125 C 564.09375 2132.28125 581.8125 2131.519531 599.304688 2131.351562 C 629.996094 2131.058594 655.257812 2131.960938 678.820312 2134.179688 L 677.878906 2144.140625 C 654.671875 2141.949219 629.734375 2141.058594 599.398438 2141.351562 C 582.078125 2141.519531 564.441406 2142.28125 547.386719 2143.019531 C 527.964844 2143.851562 507.945312 2144.71875 488.097656 2144.71875"/></g><g id="change4_4"><path fill="#62483c" d="M 364.589844 605.050781 C 356.925781 606.710938 349.132812 607.613281 341.910156 606.90625 C 337.777344 606.503906 333.886719 605.589844 330.257812 603.542969 C 323.867188 599.929688 318.597656 592.800781 313.609375 585.4375 C 310.53125 580.882812 307.582031 576.257812 304.78125 571.523438 C 305.238281 587.347656 304.984375 603.167969 304.164062 618.960938 C 303.292969 635.738281 301.722656 652.476562 299.097656 669.042969 C 296.785156 683.621094 293.640625 698.058594 291.601562 712.648438 C 289.058594 730.824219 288.269531 749.246094 285.3125 767.296875 C 282.792969 782.660156 278.6875 797.707031 275.5 813.003906 C 271.308594 833.160156 268.507812 853.699219 266.859375 874.324219 C 275.914062 870.949219 284.605469 866.796875 293.046875 862.128906 C 310.285156 852.621094 326.4375 841.007812 340.242188 827.179688 C 349.019531 818.402344 356.8125 808.726562 365.472656 799.867188 C 377.964844 787.105469 392.207031 776.238281 397.894531 761.84375 C 403.652344 747.253906 400.746094 729.480469 396.453125 711.84375 C 392.164062 694.210938 386.890625 676.824219 381.320312 659.453125 C 375.527344 641.375 370.308594 623.128906 364.589844 605.050781"/></g><g id="change10_1"><path fill="#ffa598" d="M 425.726562 582.292969 C 425.6875 556.433594 446.539062 535.535156 472.453125 535.5625 C 498.304688 535.589844 519.183594 556.445312 519.183594 582.292969 C 519.183594 608.140625 498.304688 628.984375 472.453125 629.011719 C 446.539062 629.054688 425.6875 608.15625 425.726562 582.292969"/></g><g id="change10_2"><path fill="#ffa598" d="M 716.859375 549.289062 C 716.824219 524.761719 736.597656 504.941406 761.175781 504.96875 C 785.691406 504.996094 805.492188 524.777344 805.492188 549.289062 C 805.492188 573.800781 785.691406 593.566406 761.175781 593.59375 C 736.597656 593.621094 716.824219 573.8125 716.859375 549.289062"/></g><g id="change6_7"><path fill="#886047" d="M 1525.5625 1016.757812 C 1522.800781 1016.757812 1520.082031 1016.722656 1517.410156 1016.65625 C 1505.96875 1016.359375 1493.789062 1015.621094 1482.078125 1012.152344 C 1472.890625 1009.433594 1463.464844 1004.898438 1453.261719 998.28125 C 1445.566406 993.300781 1438.320312 987.703125 1431.726562 981.679688 L 1438.46875 974.296875 C 1444.667969 979.960938 1451.46875 985.203125 1458.699219 989.886719 C 1468.082031 995.972656 1476.675781 1000.121094 1484.921875 1002.566406 C 1495.519531 1005.707031 1506.914062 1006.386719 1517.660156 1006.660156 C 1528.257812 1006.921875 1539.433594 1006.648438 1551.863281 1005.820312 L 1552.535156 1015.792969 C 1542.925781 1016.441406 1534.035156 1016.757812 1525.5625 1016.757812"/></g><g id="change6_8"><path fill="#886047" d="M 292.449219 299.25 L 282.492188 298.316406 C 286.414062 256.402344 297.609375 219.058594 315.765625 187.304688 C 330.753906 161.105469 350.808594 137.902344 375.371094 118.378906 C 403.0625 96.359375 434.628906 80.949219 466.660156 73.785156 C 494.933594 67.484375 523.160156 67.332031 550.558594 73.34375 L 548.414062 83.117188 C 522.449219 77.410156 495.675781 77.5625 468.839844 83.558594 C 438.277344 90.382812 408.109375 105.117188 381.59375 126.203125 C 358.027344 144.949219 338.800781 167.167969 324.445312 192.265625 C 307 222.765625 296.238281 258.773438 292.449219 299.25"/></g><g id="change6_9"><path fill="#886047" d="M 323.699219 314.003906 L 314.785156 309.457031 C 326.953125 285.566406 340.316406 263.238281 354.507812 243.113281 C 371.4375 219.105469 388.105469 199.425781 405.460938 182.976562 C 428.226562 161.398438 452.34375 144.816406 477.140625 133.710938 C 505.21875 121.125 535.074219 114.515625 565.882812 114.050781 L 566.035156 124.054688 C 536.59375 124.488281 508.0625 130.816406 481.230469 142.835938 C 457.464844 153.492188 434.285156 169.441406 412.339844 190.234375 C 395.46875 206.234375 379.222656 225.414062 362.679688 248.871094 C 348.765625 268.601562 335.648438 290.511719 323.699219 314.003906"/></g></g></svg>