<?xml version="1.0" encoding="UTF-8" standalone="no"?><svg xmlns="http://www.w3.org/2000/svg" xmlns:xlink="http://www.w3.org/1999/xlink" contentScriptType="text/ecmascript" fill="#000000" width="130.3" zoomAndPan="magnify" contentStyleType="text/css" viewBox="-15.3 -12.5 130.3 124.7" height="124.7" preserveAspectRatio="xMidYMid meet" version="1"><g id="change1_1"><path fill="#95b289" d="M74.747,57.464c0.271-0.011,0.5,0.2,0.512,0.472l0.597,14.71c5.771,5.323,11.356,10.553,16.56,15.453 c0.882-1.597,1.702-4.035,0.64-6.638c-1.39-3.405-4.397-3.65-6.713-8.607c-1.802-3.857-2.378-9.567-1.643-12.056 c0.77-2.604,2.774-3.646,3.004-6.063c0.201-2.124-0.958-3.803-1.822-4.62c-0.806-0.762-2.792-1.549-5.239-1.566 c-8.258-0.058-5.578-10.346-4.792-16.728c0.231-1.875,1.224-14.371-1.265-18.249c-1.513-2.357-4.619-3.057-6.824-2.218 c-2.47,0.939-2.661,2.03-4.848,4.291c-1.968,2.035-5.455,0.678-6.373-1.135c-0.576-1.137-0.93-2.681-1.281-6.057 C54.292-0.813,43.823-6.821,37.077-8.944c-3.112-0.979-6.067,0.704-7.505,3.836c-1.97,4.293-0.469,7.251-3.152,7.275 c-2.079,0.019-2.693-4.246-5.035-9.484c-0.967-2.161-3.1-4.437-5.824-4.828c-2.332-0.336-4.254,0.83-4.613,1.058 C8.489-9.536,8.715-7.853,6.553-6.591C2.677-4.327,2.144-6.597-2.313-5.275c-2.133,0.632-3.397,1.771-4.264,2.688 C-7.442-1.673-8.51-0.346-9.022,1.819c-1.069,4.523,3.809,5.17,1.766,9.166c-1.14,2.229-5.415,1.857-6.827,4.398 c-0.207,0.372-1.265,2.355-0.799,4.665c0.544,2.698,2.936,4.7,5.147,5.545c5.36,2.046,7.88,0.107,8.837,2.275 c0.991,2.241-1.999,3.57-6.175,5.776c-3.047,1.609-4.623,4.508-3.411,7.707c2.24,5.91,7.97,16.357,18.386,17.181 c3.385,0.268,7.796-0.951,9.062-0.805c1.583,0.185,3.963,1.17,4.307,3.508c0.31,2.109-0.967,4.462-3.339,5.144 c-3.023,0.867-5.634,1.956-6.434,4.475c-0.715,2.248,0.157,5.311,2.596,6.689c4.01,2.268,13.053,2.078,18.29,0.243 c10.288-3.604,16.787-4.585,16.97,3.85c0.054,2.447,1.051,4.382,1.855,5.144c0.865,0.817,2.606,1.881,4.716,1.562 c2.399-0.364,3.329-2.425,5.886-3.338c2.444-0.873,8.177-0.617,12.13,0.967c5.077,2.034,5.49,5.024,8.967,6.221 c3.365,1.158,6.298-0.678,7.633-1.749c-9.776-9.243-20.818-19.722-31.655-30.212l-24.518,0.74c-0.271,0.009-0.498-0.205-0.507-0.477 c-0.008-0.272,0.206-0.499,0.478-0.508l23.561-0.711c-5.419-5.244-10.811-10.453-16.008-15.469L7.617,44.741 c-0.271,0.007-0.498-0.208-0.506-0.479c-0.007-0.271,0.208-0.498,0.479-0.506l33.306-0.908c-4.871-4.7-9.555-9.214-13.917-13.415 l-15.934,0.673c-0.271,0.011-0.501-0.2-0.512-0.472c-0.012-0.271,0.198-0.501,0.471-0.513l14.994-0.633 C10.547,13.61-0.596,2.926-0.902,2.632c-0.195-0.188-0.202-0.497-0.017-0.693V1.938c0.187-0.196,0.496-0.205,0.694-0.021 c0,0,4.89,4.576,12.734,11.898L12.285-1.162c-0.004-0.271,0.213-0.497,0.484-0.501c0.272-0.004,0.496,0.214,0.5,0.485l0.239,15.926 c0.069,0.065,0.136,0.127,0.206,0.192c5.131,4.789,11.903,11.104,19.58,18.248L32.592,7.374c-0.007-0.271,0.207-0.499,0.479-0.506 c0.271-0.007,0.498,0.207,0.505,0.479l0.729,26.782c6.182,5.752,12.919,12.014,19.843,18.435l-0.937-23.904 c-0.011-0.271,0.199-0.501,0.471-0.514c0.271-0.012,0.501,0.198,0.514,0.47l0.975,24.896C61.68,59.546,68.334,65.704,74.832,71.7 l-0.557-13.725C74.265,57.703,74.477,57.475,74.747,57.464z"/></g><g id="change2_1"><path fill="#5b6059" d="M92.415,88.099c-5.203-4.9-10.789-10.13-16.56-15.453l-0.597-14.71c-0.012-0.271-0.24-0.482-0.512-0.472 c-0.271,0.011-0.482,0.239-0.472,0.512L74.832,71.7c-6.498-5.996-13.152-12.154-19.661-18.188l-0.975-24.896 c-0.013-0.271-0.242-0.481-0.514-0.47c-0.271,0.013-0.481,0.242-0.471,0.514l0.937,23.904c-6.924-6.421-13.661-12.683-19.843-18.435 L33.576,7.347c-0.007-0.271-0.233-0.485-0.505-0.479c-0.272,0.007-0.486,0.234-0.479,0.506l0.703,25.814 c-7.677-7.145-14.449-13.459-19.58-18.248c-0.07-0.065-0.137-0.127-0.206-0.192L13.27-1.178c-0.004-0.271-0.228-0.489-0.5-0.485 c-0.271,0.004-0.488,0.229-0.484,0.501l0.225,14.978C4.665,6.493-0.225,1.917-0.225,1.917c-0.198-0.185-0.508-0.176-0.694,0.021 v0.001c-0.186,0.196-0.179,0.506,0.017,0.693c0.307,0.294,11.449,10.979,26.901,25.856l-14.994,0.633 c-0.272,0.012-0.482,0.242-0.471,0.513c0.011,0.271,0.241,0.482,0.512,0.472l15.934-0.673c4.362,4.201,9.046,8.715,13.917,13.415 L7.591,43.756c-0.271,0.008-0.486,0.235-0.479,0.506c0.008,0.271,0.234,0.486,0.506,0.479l34.272-0.935 c5.197,5.016,10.589,10.225,16.008,15.469l-23.561,0.711c-0.271,0.009-0.485,0.235-0.478,0.508c0.009,0.271,0.235,0.485,0.507,0.477 l24.518-0.74c10.837,10.49,21.879,20.969,31.655,30.212c9.186,8.684,17.254,16.277,22.986,21.764l1.475-2.793 C109.316,104.113,101.442,96.601,92.415,88.099z"/></g></svg>