<svg width="260.5" height="255.1" viewBox="82.3 85.3 260.5 255.1" xmlns="http://www.w3.org/2000/svg" xmlns:xlink="http://www.w3.org/1999/xlink" overflow="hidden"><style>
.MsftOfcThm_Accent6_lumMod_75_Fill_v2 {
 fill:#548235; 
}
</style>
<g id="change1_1" fill="#393536"><path d="M245.426 198.754C238.898 204.445 230.125 207.867 219.348 208.922L219.102 208.934C218.785 208.934 215.73 208.984 209.941 209.086L208.898 209.105C207.738 209.172 206.695 209.246 205.809 209.316L205.793 209.43C205.586 211.82 205.477 215.246 205.477 219.539 205.477 222.738 205.559 226.578 205.727 230.945 205.941 236.633 205.98 237.785 205.98 238.008 205.98 240.004 205.203 241.832 203.738 243.301 202.27 244.77 200.441 245.543 198.445 245.543 196.449 245.543 194.621 244.77 193.156 243.301 191.688 241.832 190.914 240.004 190.914 238.008 190.91 237.715 190.824 235.422 190.66 231.137 190.496 226.688 190.406 222.844 190.406 219.703 190.406 214.703 190.586 210.652 190.93 207.664 191.164 205.656 191.469 203.953 191.84 202.594 192.855 199.531 194.469 197.434 196.684 196.219 198.254 195.25 200.289 194.648 202.898 194.383 204.43 194.266 206.301 194.152 208.562 194.039L217.953 193.867C225.52 193.133 231.461 190.957 235.617 187.414 239.625 183.883 241.062 179.199 239.984 173.121 239.188 168.254 237.277 164.836 234.129 162.641 230.902 160.391 227.012 159.5 222.336 159.891 217.617 160.199 213.156 161.801 209.016 164.66 204.887 167.52 202.141 170.969 200.629 175.203 199.977 177.148 198.645 178.648 196.789 179.492 194.996 180.305 193.043 180.402 191.105 179.754 189.117 179.094 187.609 177.762 186.77 175.898 185.953 174.109 185.863 172.145 186.508 170.215 189.031 162.875 193.648 156.891 200.23 152.402 206.719 147.98 213.793 145.434 221.254 144.84 229.254 144.23 236.422 146.102 242.75 150.379 249.172 154.723 253.285 161.508 254.977 170.547 256.918 182.094 253.699 191.57 245.426 198.754ZM207.52 270.504C205.289 272.734 202.363 273.965 199.285 273.965 196.207 273.965 193.285 272.738 191.051 270.504 188.82 268.27 187.59 265.348 187.59 262.27 187.59 259.191 188.82 256.27 191.051 254.039 193.285 251.805 196.207 250.578 199.285 250.578 202.363 250.578 205.289 251.805 207.52 254.039 209.754 256.27 210.98 259.191 210.98 262.27 210.98 265.348 209.754 268.27 207.52 270.504ZM316.398 199.168C323.234 190.32 327.402 179.285 327.523 167.238 327.809 137.891 304.242 113.855 274.895 113.566 266.059 113.48 257.727 115.59 250.355 119.328 237.758 99.3477 215.629 85.9531 190.258 85.7031 150.547 85.3164 118.051 117.184 117.656 156.898 117.59 163.242 118.438 169.375 119.926 175.254 98.4805 181.93 82.8008 201.809 82.5703 225.473 82.2852 254.832 105.84 278.855 135.199 279.141 139.48 279.191 143.629 278.668 147.625 277.75 160.371 296.902 182.059 309.609 206.797 309.855 221.582 310 235.367 305.66 246.867 298.113 261.105 308.496 278.941 302.398 283.945 297.812 285.594 297.984 287.262 298.094 288.953 298.113 318.312 298.398 342.336 274.836 342.629 245.484 342.824 225.773 332.234 208.504 316.398 199.168" class="MsftOfcThm_Accent6_lumMod_75_Fill_v2" stroke="#43270E" fill="#548235"/><path d="M142.402 292.016C133.297 290.219 124.469 296.172 122.684 305.27 120.914 314.379 126.855 323.219 135.965 324.988 145.07 326.77 153.902 320.82 155.684 311.719 157.461 302.609 151.52 293.781 142.402 292.016" class="MsftOfcThm_Accent6_lumMod_75_Fill_v2" stroke="#43270E" fill="#548235"/><path d="M109.062 317.723C103.105 316.555 97.3281 320.445 96.168 326.41 95.0078 332.352 98.8906 338.141 104.848 339.297 110.801 340.453 116.578 336.566 117.742 330.621 118.898 324.656 115.02 318.895 109.062 317.723" class="MsftOfcThm_Accent6_lumMod_75_Fill_v2" stroke="#43270E" fill="#548235"/></g></svg>