<?xml version="1.0" encoding="UTF-8" standalone="no"?><svg xmlns="http://www.w3.org/2000/svg" xmlns:xlink="http://www.w3.org/1999/xlink" contentScriptType="text/ecmascript" fill="#000000" width="633" zoomAndPan="magnify" contentStyleType="text/css" viewBox="0.0 -0.7 633.0 157.2" height="157.2" preserveAspectRatio="xMidYMid meet" version="1"><defs><clipPath id="a"><path d="M 0 123 L 633 123 L 633 152.941406 L 0 152.941406 Z M 0 123"/></clipPath></defs><g><g><path fill="#c7c9cf" d="M 50.28125 142.449219 C 50.28125 143.496094 48.332031 144.347656 45.925781 144.347656 C 43.519531 144.347656 41.570312 143.496094 41.570312 142.449219 L 41.570312 72.714844 C 41.570312 71.664062 43.519531 70.816406 45.925781 70.816406 C 48.332031 70.816406 50.28125 71.664062 50.28125 72.714844 L 50.28125 142.449219"/></g><g><path fill="#2969b9" d="M 41.570312 78.375 L 41.570312 127.128906 C 43.332031 128.324219 46.320312 128.238281 48.75 127.933594 C 49.339844 127.933594 49.835938 127.824219 50.28125 127.648438 L 50.28125 78.292969 C 47.476562 77.261719 44.304688 77.074219 41.570312 78.375"/></g><g><path fill="#2969b9" d="M 108.683594 78.695312 C 108.683594 78.695312 90.636719 81.75 79.148438 81.757812 C 67.65625 81.75 49.609375 78.695312 49.609375 78.695312 L 47.886719 125.960938 C 50.695312 128.957031 77.914062 128.816406 79.148438 128.808594 C 80.378906 128.816406 107.601562 128.957031 110.40625 125.960938 Z M 88.578125 92.550781 L 66.941406 92.550781 C 64.71875 92.550781 62.921875 90.75 62.921875 88.527344 C 62.921875 86.308594 64.71875 84.507812 66.941406 84.507812 L 88.578125 84.507812 C 90.796875 84.507812 92.597656 86.308594 92.597656 88.527344 C 92.597656 90.75 90.796875 92.550781 88.578125 92.550781"/></g><g><path fill="#2a5391" d="M 56.53125 79.746094 C 52.425781 79.171875 49.609375 78.695312 49.609375 78.695312 L 47.886719 125.960938 C 48.832031 126.972656 52.550781 127.625 57.109375 128.046875 C 49.289062 113.996094 50 94.5625 56.53125 79.746094"/></g><g><path fill="#2a5391" d="M 108.683594 78.695312 C 108.683594 78.695312 106.085938 79.132812 102.234375 79.679688 C 106.351562 95.488281 108.058594 113.441406 101.164062 128.046875 C 105.730469 127.625 109.460938 126.972656 110.40625 125.960938 L 108.683594 78.695312"/></g><g><path fill="#c7c9cf" d="M 108.011719 142.449219 C 108.011719 143.496094 109.964844 144.347656 112.367188 144.347656 C 114.773438 144.347656 116.722656 143.496094 116.722656 142.449219 L 116.722656 72.714844 C 116.722656 71.664062 114.773438 70.816406 112.367188 70.816406 C 109.964844 70.816406 108.011719 71.664062 108.011719 72.714844 L 108.011719 142.449219"/></g><g><path fill="#2969b9" d="M 116.722656 78.375 L 116.722656 127.128906 C 114.964844 128.324219 111.972656 128.238281 109.546875 127.933594 C 108.957031 127.933594 108.460938 127.824219 108.011719 127.648438 L 108.011719 78.292969 C 110.816406 77.261719 113.988281 77.074219 116.722656 78.375"/></g><g><path fill="#c7c9cf" d="M 153.503906 138.914062 C 153.503906 139.960938 151.554688 140.808594 149.148438 140.808594 C 146.742188 140.808594 144.792969 139.960938 144.792969 138.914062 L 144.792969 69.179688 C 144.792969 68.128906 146.742188 67.28125 149.148438 67.28125 C 151.554688 67.28125 153.503906 68.128906 153.503906 69.179688 L 153.503906 138.914062"/></g><g><path fill="#2969b9" d="M 144.792969 74.84375 L 144.792969 123.59375 C 146.554688 124.789062 149.546875 124.703125 151.972656 124.398438 C 152.558594 124.398438 153.058594 124.289062 153.503906 124.113281 L 153.503906 74.757812 C 150.699219 73.726562 147.527344 73.539062 144.792969 74.84375"/></g><g><path fill="#2969b9" d="M 211.90625 75.160156 C 211.90625 75.160156 193.859375 78.214844 182.367188 78.222656 C 170.878906 78.214844 152.835938 75.160156 152.835938 75.160156 L 151.109375 122.429688 C 153.917969 125.421875 181.140625 125.28125 182.367188 125.273438 C 183.601562 125.28125 210.820312 125.421875 213.628906 122.429688 Z M 191.800781 89.015625 L 170.164062 89.015625 C 167.941406 89.015625 166.140625 87.214844 166.140625 84.992188 C 166.140625 82.773438 167.941406 80.972656 170.164062 80.972656 L 191.800781 80.972656 C 194.019531 80.972656 195.820312 82.773438 195.820312 84.992188 C 195.820312 87.214844 194.019531 89.015625 191.800781 89.015625"/></g><g><path fill="#2a5391" d="M 159.753906 76.210938 C 155.648438 75.632812 152.835938 75.160156 152.835938 75.160156 L 151.109375 122.429688 C 152.058594 123.4375 155.773438 124.089844 160.335938 124.511719 C 152.515625 110.460938 153.222656 91.027344 159.753906 76.210938"/></g><g><path fill="#2a5391" d="M 211.90625 75.160156 C 211.90625 75.160156 209.308594 75.597656 205.457031 76.144531 C 209.574219 91.957031 211.28125 109.90625 204.386719 124.511719 C 208.953125 124.089844 212.679688 123.4375 213.628906 122.429688 L 211.90625 75.160156"/></g><g><path fill="#c7c9cf" d="M 211.234375 138.914062 C 211.234375 139.960938 213.1875 140.808594 215.589844 140.808594 C 217.996094 140.808594 219.945312 139.960938 219.945312 138.914062 L 219.945312 69.179688 C 219.945312 68.128906 217.996094 67.28125 215.589844 67.28125 C 213.1875 67.28125 211.234375 68.128906 211.234375 69.179688 L 211.234375 138.914062"/></g><g><path fill="#2969b9" d="M 219.945312 74.84375 L 219.945312 123.59375 C 218.1875 124.789062 215.195312 124.703125 212.769531 124.398438 C 212.179688 124.398438 211.679688 124.289062 211.234375 124.113281 L 211.234375 74.757812 C 214.039062 73.726562 217.214844 73.539062 219.945312 74.84375"/></g><g><path fill="#c7c9cf" d="M 291.371094 141.742188 C 291.371094 142.789062 289.421875 143.636719 287.011719 143.636719 C 284.609375 143.636719 282.660156 142.789062 282.660156 141.742188 L 282.660156 72.007812 C 282.660156 70.960938 284.609375 70.109375 287.011719 70.109375 C 289.421875 70.109375 291.371094 70.960938 291.371094 72.007812 L 291.371094 141.742188"/></g><g><path fill="#2969b9" d="M 282.660156 77.671875 L 282.660156 126.425781 C 284.421875 127.617188 287.410156 127.53125 289.839844 127.222656 C 290.425781 127.222656 290.925781 127.117188 291.371094 126.941406 L 291.371094 77.585938 C 288.5625 76.558594 285.394531 76.367188 282.660156 77.671875"/></g><g><path fill="#2969b9" d="M 349.773438 77.988281 C 349.773438 77.988281 331.726562 81.042969 320.234375 81.050781 C 308.742188 81.042969 290.699219 77.988281 290.699219 77.988281 L 288.976562 125.257812 C 291.78125 128.25 319.003906 128.109375 320.234375 128.101562 C 321.46875 128.109375 348.6875 128.25 351.492188 125.257812 Z M 329.664062 91.84375 L 308.027344 91.84375 C 305.808594 91.84375 304.007812 90.042969 304.007812 87.824219 C 304.007812 85.601562 305.808594 83.800781 308.027344 83.800781 L 329.664062 83.800781 C 331.886719 83.800781 333.6875 85.601562 333.6875 87.824219 C 333.6875 90.042969 331.886719 91.84375 329.664062 91.84375"/></g><g><path fill="#2a5391" d="M 297.617188 79.039062 C 293.515625 78.464844 290.699219 77.988281 290.699219 77.988281 L 288.976562 125.257812 C 289.921875 126.265625 293.640625 126.917969 298.199219 127.335938 C 290.378906 113.289062 291.089844 93.855469 297.617188 79.039062"/></g><g><path fill="#2a5391" d="M 349.773438 77.988281 C 349.773438 77.988281 347.171875 78.425781 343.320312 78.972656 C 347.4375 94.78125 349.148438 112.734375 342.253906 127.34375 C 346.820312 126.917969 350.546875 126.265625 351.492188 125.257812 L 349.773438 77.988281"/></g><g><path fill="#c7c9cf" d="M 349.101562 141.742188 C 349.101562 142.789062 351.050781 143.636719 353.457031 143.636719 C 355.859375 143.636719 357.8125 142.789062 357.8125 141.742188 L 357.8125 72.007812 C 357.8125 70.960938 355.859375 70.109375 353.457031 70.109375 C 351.050781 70.109375 349.101562 70.960938 349.101562 72.007812 L 349.101562 141.742188"/></g><g><path fill="#2969b9" d="M 357.8125 77.671875 L 357.8125 126.425781 C 356.054688 127.617188 353.0625 127.53125 350.632812 127.222656 C 350.046875 127.222656 349.546875 127.117188 349.101562 126.941406 L 349.101562 77.585938 C 351.90625 76.558594 355.078125 76.367188 357.8125 77.671875"/></g><g><path fill="#c7c9cf" d="M 404.960938 138.914062 C 404.960938 139.960938 403.011719 140.808594 400.605469 140.808594 C 398.199219 140.808594 396.253906 139.960938 396.253906 138.914062 L 396.253906 69.179688 C 396.253906 68.128906 398.199219 67.28125 400.605469 67.28125 C 403.011719 67.28125 404.960938 68.128906 404.960938 69.179688 L 404.960938 138.914062"/></g><g><path fill="#2969b9" d="M 396.253906 74.84375 L 396.253906 123.59375 C 398.011719 124.789062 401 124.703125 403.429688 124.398438 C 404.019531 124.398438 404.519531 124.289062 404.960938 124.113281 L 404.960938 74.757812 C 402.15625 73.726562 398.984375 73.539062 396.253906 74.84375"/></g><g><path fill="#2969b9" d="M 463.363281 75.160156 C 463.363281 75.160156 445.320312 78.214844 433.828125 78.222656 C 422.335938 78.214844 404.289062 75.160156 404.289062 75.160156 L 402.566406 122.429688 C 405.375 125.421875 432.597656 125.28125 433.828125 125.273438 C 435.0625 125.28125 462.277344 125.421875 465.089844 122.429688 Z M 443.261719 89.015625 L 421.621094 89.015625 C 419.402344 89.015625 417.601562 87.214844 417.601562 84.992188 C 417.601562 82.773438 419.402344 80.972656 421.621094 80.972656 L 443.261719 80.972656 C 445.480469 80.972656 447.28125 82.773438 447.28125 84.992188 C 447.28125 87.214844 445.480469 89.015625 443.261719 89.015625"/></g><g><path fill="#2a5391" d="M 411.214844 76.210938 C 407.105469 75.632812 404.289062 75.160156 404.289062 75.160156 L 402.566406 122.429688 C 403.515625 123.4375 407.230469 124.089844 411.792969 124.511719 C 403.972656 110.460938 404.683594 91.027344 411.214844 76.210938"/></g><g><path fill="#2a5391" d="M 463.363281 75.160156 C 463.363281 75.160156 460.769531 75.597656 456.914062 76.144531 C 461.03125 91.957031 462.738281 109.90625 455.84375 124.511719 C 460.414062 124.089844 464.140625 123.4375 465.089844 122.429688 L 463.363281 75.160156"/></g><g><path fill="#c7c9cf" d="M 462.691406 138.914062 C 462.691406 139.960938 464.644531 140.808594 467.050781 140.808594 C 469.453125 140.808594 471.402344 139.960938 471.402344 138.914062 L 471.402344 69.179688 C 471.402344 68.128906 469.453125 67.28125 467.050781 67.28125 C 464.644531 67.28125 462.691406 68.128906 462.691406 69.179688 L 462.691406 138.914062"/></g><g><path fill="#2969b9" d="M 471.402344 74.84375 L 471.402344 123.59375 C 469.644531 124.789062 466.652344 124.703125 464.226562 124.398438 C 463.636719 124.398438 463.140625 124.289062 462.691406 124.113281 L 462.691406 74.757812 C 465.5 73.726562 468.671875 73.539062 471.402344 74.84375"/></g><g><path fill="#c7c9cf" d="M 526.097656 138.441406 C 526.097656 139.488281 524.144531 140.339844 521.738281 140.339844 C 519.335938 140.339844 517.386719 139.488281 517.386719 138.441406 L 517.386719 68.707031 C 517.386719 67.660156 519.335938 66.8125 521.738281 66.8125 C 524.144531 66.8125 526.097656 67.660156 526.097656 68.707031 L 526.097656 138.441406"/></g><g><path fill="#2969b9" d="M 517.386719 74.371094 L 517.386719 123.125 C 519.144531 124.320312 522.136719 124.234375 524.5625 123.925781 C 525.152344 123.925781 525.648438 123.816406 526.097656 123.640625 L 526.097656 74.285156 C 523.289062 73.257812 520.117188 73.066406 517.386719 74.371094"/></g><g><path fill="#2969b9" d="M 584.496094 74.6875 C 584.496094 74.6875 566.453125 77.742188 554.960938 77.753906 C 543.472656 77.742188 525.425781 74.6875 525.425781 74.6875 L 523.703125 121.957031 C 526.511719 124.949219 553.730469 124.808594 554.960938 124.800781 C 556.191406 124.808594 583.414062 124.949219 586.222656 121.957031 Z M 564.390625 88.542969 L 542.757812 88.542969 C 540.53125 88.542969 538.734375 86.746094 538.734375 84.523438 C 538.734375 82.304688 540.53125 80.503906 542.757812 80.503906 L 564.390625 80.503906 C 566.609375 80.503906 568.410156 82.304688 568.410156 84.523438 C 568.410156 86.746094 566.609375 88.542969 564.390625 88.542969"/></g><g><path fill="#2a5391" d="M 532.34375 75.742188 C 528.238281 75.164062 525.425781 74.6875 525.425781 74.6875 L 523.703125 121.957031 C 524.648438 122.964844 528.363281 123.617188 532.925781 124.039062 C 525.105469 109.992188 525.8125 90.558594 532.34375 75.742188"/></g><g><path fill="#2a5391" d="M 584.496094 74.6875 C 584.496094 74.6875 581.898438 75.128906 578.046875 75.675781 C 582.164062 91.484375 583.875 109.4375 576.980469 124.042969 C 581.546875 123.621094 585.273438 122.96875 586.222656 121.957031 L 584.496094 74.6875"/></g><g><path fill="#c7c9cf" d="M 583.824219 138.441406 C 583.824219 139.488281 585.777344 140.339844 588.183594 140.339844 C 590.589844 140.339844 592.539062 139.488281 592.539062 138.441406 L 592.539062 68.707031 C 592.539062 67.660156 590.589844 66.8125 588.183594 66.8125 C 585.777344 66.8125 583.824219 67.660156 583.824219 68.707031 L 583.824219 138.441406"/></g><g><path fill="#2969b9" d="M 592.539062 74.371094 L 592.539062 123.125 C 590.777344 124.320312 587.785156 124.234375 585.359375 123.925781 C 584.769531 123.925781 584.273438 123.816406 583.824219 123.640625 L 583.824219 74.285156 C 586.632812 73.257812 589.804688 73.066406 592.539062 74.371094"/></g><g><path fill="#654e2d" d="M 127.675781 137.261719 C 127.621094 137.152344 121.921875 124.617188 122.484375 106.417969 C 131.222656 90.601562 143.917969 83.722656 143.9375 83.882812 C 144.933594 84.628906 132.789062 93.105469 124.964844 107.347656 C 124.679688 122.875 128.980469 137.382812 127.675781 137.261719"/></g><g><path fill="#654e2d" d="M 59.214844 89.890625 C 59.269531 90.011719 55.332031 90.605469 49.539062 88.371094 C 43.761719 86.195312 36.863281 80.773438 31.457031 73.261719 C 20.484375 58.214844 17.164062 43.296875 17.738281 43.230469 C 18.550781 42.878906 22.988281 57.191406 33.585938 71.675781 C 43.773438 87.382812 59.449219 89.457031 59.214844 89.890625"/></g><g><path fill="#654e2d" d="M 141.230469 85.648438 C 141.429688 86.328125 134.710938 88.90625 126.046875 90.597656 C 117.394531 92.328125 110.1875 92.519531 110.121094 91.777344 C 110.050781 91.0625 116.992188 89.707031 125.53125 87.996094 C 134.074219 86.328125 141.019531 84.921875 141.230469 85.648438"/></g><g><path fill="#f6da57" d="M 45.546875 123.355469 L 52.617188 102.617188 C 52.617188 102.617188 46.492188 102.382812 45.078125 93.898438 L 44.605469 79.050781 L 84.195312 86.589844 L 123.316406 84.234375 C 123.316406 84.234375 121.902344 100.730469 117.660156 104.03125 C 113.417969 107.332031 109.175781 106.386719 109.175781 106.386719 L 104.167969 125.769531 L 45.546875 123.355469"/></g><g><path fill="#e3c341" d="M 78.539062 92.71875 C 90.835938 94.765625 103.109375 92.335938 111.640625 84.9375 L 84.195312 86.589844 L 56.691406 81.351562 C 61.273438 88.632812 70.535156 90.050781 78.539062 92.71875"/></g><g><path fill="#ae755e" d="M 69.820312 86.710938 C 69.820312 86.710938 69.15625 104.363281 84.433594 103.207031 C 99.988281 102.027344 97.160156 86.003906 97.160156 86.003906 L 69.820312 86.710938"/></g><g><path fill="#be8f7f" d="M 20.914062 33.546875 C 22.132812 38.070312 20.824219 42.351562 17.996094 43.113281 C 15.167969 43.875 11.890625 40.824219 10.671875 36.296875 C 9.457031 31.773438 10.761719 27.488281 13.589844 26.730469 C 16.417969 25.96875 19.699219 29.019531 20.914062 33.546875"/></g><g><path fill="#f495be" d="M 206.160156 101.300781 C 205.808594 100.789062 205.453125 100.285156 205.09375 99.789062 C 205.09375 99.789062 213.816406 96.019531 214.757812 84.707031 C 214.757812 84.707031 211.222656 84.941406 207.449219 81.878906 C 203.679688 78.816406 195.195312 72.453125 185.296875 74.101562 C 175.398438 75.75 147.828125 80.464844 147.828125 80.464844 C 147.828125 80.464844 145.941406 77.871094 142.40625 79.757812 C 138.871094 81.644531 135.808594 84.707031 129.914062 84.234375 C 129.914062 84.234375 133.921875 102.144531 147.121094 102.382812 C 147.121094 102.382812 147.964844 109.164062 150.304688 114.75 C 170.070312 114.855469 189.539062 113.496094 206.160156 101.300781"/></g><g><path fill="#f2b4c9" d="M 206.160156 101.300781 C 189.179688 111.664062 167.886719 113.367188 150.304688 114.75 C 150.363281 114.886719 150.417969 115.03125 150.476562 115.167969 C 152.953125 120.824219 155.957031 125.769531 155.957031 125.769531 L 220.175781 125.714844 C 220.175781 125.714844 213.722656 112.167969 206.160156 101.300781"/></g><g><path fill="#ec89b2" d="M 195.941406 75.128906 C 192.730469 74.03125 189.121094 73.464844 185.296875 74.101562 C 175.398438 75.75 147.828125 80.464844 147.828125 80.464844 C 147.828125 80.464844 145.941406 77.871094 142.40625 79.757812 C 141.214844 80.390625 140.078125 81.160156 138.867188 81.882812 C 159.0625 92.140625 179.203125 88.496094 195.941406 75.128906"/></g><g><path fill="#e3b488" d="M 156.3125 80.699219 C 156.3125 80.699219 159.375 96.253906 170.449219 94.367188 C 181.527344 92.484375 180.113281 76.691406 180.113281 76.691406 L 156.3125 80.699219"/></g><g><path fill="#654e2d" d="M 226.480469 91.558594 C 224.425781 88.5 221.519531 87.550781 219.359375 86.679688 C 217.285156 85.992188 215.941406 85.703125 214.660156 85.539062 C 214.660156 85.929688 214.503906 86.316406 214.503906 86.710938 C 215.65625 87.132812 216.917969 87.632812 218.65625 88.417969 C 220.574219 89.375 223.148438 90.640625 224.386719 92.816406 C 225.679688 94.6875 224.644531 98.542969 222.21875 98.480469 C 210.292969 95.210938 201.613281 85.210938 201.027344 86.710938 C 200.8125 86.988281 202.765625 89.046875 206.210938 92.132812 C 209.902344 94.828125 214.105469 100.113281 222.390625 101.128906 C 227.621094 100.597656 228.550781 94.386719 226.480469 91.558594"/></g><g><path fill="#3d1a2a" d="M 40.96875 57.136719 C 40.628906 55.734375 41.019531 54.339844 41.871094 53.3125 C 40.296875 52.953125 38.980469 51.75 38.578125 50.070312 C 38.089844 48.039062 39.105469 46.007812 40.898438 45.125 C 40.09375 44.527344 39.46875 43.675781 39.222656 42.628906 C 38.714844 40.515625 39.835938 38.402344 41.769531 37.578125 C 40.804688 36.992188 40.074219 36.035156 39.785156 34.851562 C 39.21875 32.496094 40.671875 30.128906 43.03125 29.5625 C 43.4375 29.46875 43.839844 29.449219 44.234375 29.464844 C 44.039062 29.117188 43.878906 28.75 43.773438 28.34375 C 43.210938 25.984375 44.664062 23.613281 47.019531 23.050781 C 47.523438 22.933594 48.015625 22.917969 48.5 22.972656 C 48.363281 22.691406 48.253906 22.394531 48.175781 22.078125 C 47.613281 19.722656 49.058594 17.351562 51.417969 16.785156 C 52.058594 16.632812 52.691406 16.640625 53.292969 16.757812 C 53.652344 15.195312 54.851562 13.878906 56.53125 13.476562 C 58.058594 13.109375 59.582031 13.597656 60.625 14.632812 C 60.621094 14.617188 60.609375 14.601562 60.609375 14.582031 C 60.042969 12.226562 61.496094 9.855469 63.851562 9.289062 C 65.417969 8.910156 66.972656 9.4375 68.027344 10.519531 C 67.777344 8.34375 69.15625 6.28125 71.339844 5.757812 C 72.933594 5.375 74.523438 5.933594 75.566406 7.054688 C 76.066406 5.75 77.175781 4.703125 78.644531 4.355469 C 80.359375 3.941406 82.070312 4.609375 83.097656 5.90625 C 83.527344 4.449219 84.683594 3.25 86.269531 2.867188 C 87.941406 2.464844 89.605469 3.09375 90.640625 4.324219 C 91.117188 3.941406 91.6875 3.652344 92.328125 3.5 C 94.683594 2.929688 97.050781 4.386719 97.613281 6.742188 C 97.621094 6.765625 97.617188 6.789062 97.621094 6.808594 C 98.804688 6.710938 99.933594 7.09375 100.796875 7.816406 C 101.289062 7.417969 101.871094 7.109375 102.527344 6.949219 C 104.816406 6.402344 107.089844 7.757812 107.746094 9.988281 C 109.636719 9.972656 111.347656 11.191406 111.9375 13.039062 C 112.398438 12.695312 112.933594 12.433594 113.53125 12.296875 C 115.886719 11.730469 118.253906 13.183594 118.824219 15.535156 C 119.132812 16.828125 118.820312 18.109375 118.105469 19.109375 C 119.5625 19.539062 120.753906 20.695312 121.136719 22.273438 C 121.425781 23.484375 121.171875 24.695312 120.550781 25.671875 C 122.539062 25.660156 124.351562 27.003906 124.835938 29.023438 C 125.148438 30.320312 124.835938 31.605469 124.105469 32.609375 C 125.886719 32.8125 127.4375 34.089844 127.878906 35.929688 C 128.242188 37.410156 127.796875 38.898438 126.835938 39.9375 C 127.785156 40.523438 128.519531 41.476562 128.800781 42.65625 C 129.140625 44.058594 128.746094 45.460938 127.882812 46.488281 C 128.9375 47.066406 129.746094 48.046875 130.046875 49.296875 C 130.550781 51.390625 129.460938 53.484375 127.558594 54.328125 C 128.039062 54.859375 128.410156 55.5 128.59375 56.242188 C 129.160156 58.601562 127.703125 60.96875 125.347656 61.53125 C 125.679688 61.992188 125.933594 62.515625 126.070312 63.097656 C 126.640625 65.457031 125.179688 67.824219 122.828125 68.390625 C 123.390625 70.746094 121.941406 73.113281 119.578125 73.679688 C 119.183594 73.777344 118.777344 73.796875 118.382812 73.777344 C 118.316406 75.703125 117.003906 77.421875 115.035156 77.898438 C 114.136719 78.113281 113.242188 78.03125 112.4375 77.71875 C 112.085938 79.300781 110.878906 80.625 109.199219 81.03125 C 107.480469 81.445312 105.761719 80.777344 104.730469 79.480469 C 104.304688 80.933594 103.152344 82.132812 101.566406 82.515625 C 99.386719 83.039062 97.214844 81.824219 96.449219 79.777344 C 96.011719 81.210938 94.859375 82.390625 93.289062 82.761719 C 91.34375 83.234375 89.398438 82.304688 88.464844 80.640625 C 87.949219 81.910156 86.859375 82.917969 85.425781 83.265625 C 83.578125 83.707031 81.734375 82.898438 80.746094 81.394531 C 80.378906 81.609375 79.984375 81.792969 79.546875 81.898438 C 77.5 82.390625 75.449219 81.355469 74.570312 79.535156 C 74.003906 80.164062 73.242188 80.632812 72.351562 80.847656 C 70.523438 81.289062 68.699219 80.503906 67.699219 79.027344 C 67.191406 79.464844 66.589844 79.800781 65.894531 79.96875 C 63.53125 80.535156 61.160156 79.082031 60.597656 76.722656 C 60.582031 76.660156 60.585938 76.597656 60.578125 76.535156 C 60.054688 76.996094 59.433594 77.351562 58.710938 77.527344 C 56.351562 78.089844 53.984375 76.640625 53.414062 74.28125 C 53.402344 74.203125 53.402344 74.121094 53.386719 74.046875 C 53 74.285156 52.578125 74.484375 52.101562 74.597656 C 49.746094 75.164062 47.375 73.710938 46.808594 71.355469 C 46.511719 70.101562 46.792969 68.855469 47.464844 67.867188 C 45.578125 67.765625 43.902344 66.460938 43.433594 64.527344 C 43.070312 63.007812 43.550781 61.492188 44.566406 60.445312 C 42.859375 60.183594 41.394531 58.921875 40.96875 57.136719"/></g><g><path fill="#be8f7f" d="M 49.421875 51.558594 C 47.144531 70.308594 60.503906 87.351562 79.257812 89.628906 C 98.003906 91.898438 115.046875 78.535156 117.328125 59.785156 C 119.589844 41.035156 106.238281 23.996094 87.480469 21.726562 C 68.734375 19.453125 51.695312 32.808594 49.421875 51.558594"/></g><g><path fill="#3d1a2a" d="M 45.546875 57.808594 C 44.722656 57.300781 44.09375 56.464844 43.859375 55.429688 C 43.546875 54.027344 44.050781 52.644531 45.042969 51.777344 C 44.898438 51.496094 44.773438 51.199219 44.699219 50.875 C 44.363281 49.378906 44.957031 47.898438 46.078125 47.050781 C 45.886719 46.714844 45.71875 46.355469 45.632812 45.953125 C 45.253906 44.289062 46.027344 42.652344 47.417969 41.878906 C 47.257812 41.578125 47.121094 41.269531 47.042969 40.921875 C 46.589844 38.925781 47.785156 36.960938 49.710938 36.484375 C 49.710938 34.78125 50.84375 33.253906 52.535156 32.871094 C 52.878906 32.792969 53.230469 32.785156 53.570312 32.808594 C 53.320312 30.914062 54.496094 29.113281 56.351562 28.695312 C 56.878906 28.570312 57.40625 28.589844 57.914062 28.703125 C 57.878906 28.589844 57.828125 28.484375 57.800781 28.367188 C 57.351562 26.347656 58.570312 24.351562 60.535156 23.910156 C 61.347656 23.726562 62.144531 23.84375 62.847656 24.175781 C 62.636719 22.308594 63.808594 20.550781 65.636719 20.136719 C 66.742188 19.886719 67.832031 20.195312 68.667969 20.859375 C 68.933594 19.457031 69.976562 18.28125 71.425781 17.953125 C 72.789062 17.644531 74.128906 18.175781 74.996094 19.1875 C 75.492188 18.464844 76.238281 17.914062 77.152344 17.707031 C 78.769531 17.34375 80.371094 18.152344 81.144531 19.570312 C 81.425781 18.1875 82.457031 17.03125 83.890625 16.707031 C 85.476562 16.347656 87.050781 17.117188 87.839844 18.480469 C 88.179688 18.269531 88.539062 18.097656 88.949219 18.007812 C 90.707031 17.609375 92.449219 18.597656 93.132812 20.246094 C 93.597656 19.785156 94.167969 19.445312 94.847656 19.289062 C 96.8125 18.847656 98.777344 20.121094 99.230469 22.140625 C 99.242188 22.195312 99.242188 22.253906 99.257812 22.3125 C 99.652344 22.003906 100.125 21.765625 100.652344 21.644531 C 102.613281 21.199219 104.578125 22.476562 105.035156 24.496094 C 105.058594 24.605469 105.058594 24.71875 105.078125 24.835938 C 105.371094 24.664062 105.695312 24.519531 106.046875 24.441406 C 108.007812 23.996094 109.96875 25.269531 110.425781 27.289062 C 110.550781 27.839844 110.539062 28.378906 110.433594 28.890625 C 112.292969 28.648438 114.070312 29.871094 114.5 31.777344 C 114.667969 32.5 114.605469 33.21875 114.382812 33.863281 C 116.003906 33.925781 117.460938 35.085938 117.84375 36.78125 C 118.085938 37.828125 117.863281 38.863281 117.324219 39.6875 C 118.910156 39.789062 120.308594 40.933594 120.691406 42.597656 C 120.960938 43.800781 120.625 44.988281 119.902344 45.855469 C 121.019531 46.285156 121.914062 47.261719 122.199219 48.539062 C 122.519531 49.933594 122.019531 51.300781 121.042969 52.167969 C 121.851562 52.683594 122.476562 53.511719 122.703125 54.535156 C 123.023438 55.925781 122.527344 57.296875 121.550781 58.167969 C 122.359375 58.679688 122.980469 59.507812 123.210938 60.53125 C 123.667969 62.550781 122.445312 64.546875 120.476562 64.988281 C 118.515625 65.433594 116.546875 64.160156 116.09375 62.136719 C 115.777344 60.75 116.269531 59.378906 117.253906 58.515625 C 116.441406 57.996094 115.824219 57.167969 115.59375 56.144531 C 115.269531 54.753906 115.769531 53.382812 116.742188 52.515625 C 115.929688 52.003906 115.316406 51.175781 115.085938 50.148438 C 114.808594 48.949219 115.148438 47.757812 115.867188 46.894531 C 114.753906 46.464844 113.859375 45.484375 113.574219 44.207031 C 113.335938 43.160156 113.554688 42.125 114.089844 41.304688 C 112.511719 41.199219 111.101562 40.0625 110.730469 38.394531 C 110.566406 37.671875 110.625 36.957031 110.847656 36.3125 C 109.21875 36.246094 107.769531 35.085938 107.386719 33.386719 C 107.261719 32.84375 107.265625 32.296875 107.371094 31.785156 C 105.519531 32.03125 103.738281 30.804688 103.308594 28.898438 C 103.285156 28.789062 103.28125 28.671875 103.265625 28.558594 C 102.96875 28.730469 102.652344 28.871094 102.304688 28.953125 C 100.332031 29.398438 98.375 28.121094 97.917969 26.101562 C 97.902344 26.046875 97.90625 25.988281 97.898438 25.933594 C 97.496094 26.242188 97.023438 26.480469 96.503906 26.597656 C 94.742188 26.992188 92.988281 26.011719 92.316406 24.359375 C 91.855469 24.816406 91.277344 25.164062 90.597656 25.316406 C 89.015625 25.671875 87.449219 24.90625 86.65625 23.535156 C 86.320312 23.746094 85.953125 23.921875 85.546875 24.015625 C 83.925781 24.382812 82.324219 23.570312 81.546875 22.152344 C 81.277344 23.53125 80.242188 24.6875 78.800781 25.015625 C 77.441406 25.324219 76.097656 24.796875 75.238281 23.773438 C 74.734375 24.503906 73.996094 25.054688 73.082031 25.257812 C 71.972656 25.511719 70.882812 25.203125 70.039062 24.535156 C 69.777344 25.941406 68.730469 27.117188 67.285156 27.445312 C 66.476562 27.628906 65.671875 27.507812 64.972656 27.175781 C 65.183594 29.046875 64.015625 30.800781 62.1875 31.214844 C 61.65625 31.335938 61.125 31.320312 60.625 31.203125 C 60.65625 31.320312 60.710938 31.425781 60.734375 31.542969 C 61.191406 33.5625 59.964844 35.558594 58 36.003906 C 57.652344 36.082031 57.300781 36.089844 56.957031 36.0625 C 57.21875 37.9375 56.066406 39.714844 54.246094 40.15625 C 54.25 41.515625 53.519531 42.746094 52.375 43.390625 C 52.535156 43.6875 52.671875 44 52.746094 44.34375 C 53.085938 45.839844 52.5 47.324219 51.371094 48.171875 C 51.566406 48.507812 51.730469 48.867188 51.820312 49.265625 C 52.136719 50.667969 51.632812 52.050781 50.636719 52.921875 C 50.785156 53.203125 50.90625 53.496094 50.984375 53.816406 C 51.285156 55.164062 50.828125 56.488281 49.921875 57.363281 C 50.515625 57.820312 50.976562 58.480469 51.15625 59.28125 C 51.554688 61.066406 50.476562 62.835938 48.730469 63.230469 C 46.992188 63.621094 45.242188 62.492188 44.84375 60.703125 C 44.601562 59.632812 44.902344 58.574219 45.546875 57.808594"/></g><g><path fill="#7077c3" d="M 62.886719 23.359375 C 62.886719 23.359375 65.09375 26.488281 66.878906 26.878906 C 68.660156 27.269531 66.265625 29.179688 65.011719 29.261719 C 63.761719 29.335938 60.992188 27.246094 60.371094 25.398438 C 59.757812 23.554688 61.84375 22.792969 62.886719 23.359375"/></g><g><path fill="#7077c3" d="M 57.699219 28.835938 C 57.699219 28.835938 59.90625 31.964844 61.6875 32.359375 C 63.472656 32.746094 61.078125 34.65625 59.828125 34.734375 C 58.574219 34.8125 55.804688 32.722656 55.1875 30.878906 C 54.570312 29.03125 56.660156 28.273438 57.699219 28.835938"/></g><g><path fill="#231f20" d="M 61.113281 44.578125 C 61.496094 44.972656 63.035156 43.070312 65.28125 43.039062 C 67.5625 43.160156 69.230469 44.941406 69.53125 44.59375 C 69.847656 44.503906 68.6875 41.882812 65.328125 41.558594 C 61.871094 41.757812 60.855469 44.589844 61.113281 44.578125"/></g><g><path fill="#231f20" d="M 96.992188 44.421875 C 97.371094 44.816406 98.914062 42.914062 101.160156 42.882812 C 103.4375 43.003906 105.105469 44.78125 105.410156 44.4375 C 105.722656 44.347656 104.5625 41.722656 101.207031 41.40625 C 97.742188 41.601562 96.730469 44.429688 96.992188 44.421875"/></g><g><path fill="#a16145" d="M 81.132812 67.617188 C 81.023438 67.652344 81.871094 68.703125 83.386719 68.707031 C 84.84375 68.671875 85.832031 67.988281 85.753906 67.878906 C 85.695312 67.75 84.679688 68.175781 83.386719 68.207031 C 82.082031 68.21875 81.246094 67.484375 81.132812 67.617188"/></g><g><path fill="#be6b81" d="M 99.4375 64.699219 C 99.410156 66.160156 101.621094 67.382812 104.378906 67.433594 C 107.144531 67.484375 109.40625 66.335938 109.425781 64.878906 C 109.453125 63.425781 107.238281 62.203125 104.476562 62.152344 C 101.714844 62.101562 99.46875 63.242188 99.4375 64.699219"/></g><g><path fill="#be6b81" d="M 56.832031 64.457031 C 56.800781 65.917969 59.019531 67.140625 61.78125 67.195312 C 64.535156 67.242188 66.789062 66.097656 66.824219 64.640625 C 66.851562 63.1875 64.632812 61.964844 61.875 61.914062 C 59.117188 61.863281 56.859375 63.007812 56.832031 64.457031"/></g><g><path fill="#ffffff" d="M 93.144531 73.074219 C 93.144531 73.074219 88.101562 73.742188 82.847656 73.777344 C 78.03125 73.816406 72.964844 73.21875 72.964844 73.21875 C 72.964844 73.21875 74.316406 82.449219 84.257812 81.476562 C 91.148438 80.808594 93.144531 73.074219 93.144531 73.074219"/></g><g><path fill="#231f20" d="M 97.980469 57.5 C 97.855469 59.066406 99.015625 60.441406 100.589844 60.566406 C 102.15625 60.691406 103.523438 59.527344 103.648438 57.953125 C 103.78125 56.394531 102.613281 55.019531 101.046875 54.890625 C 99.480469 54.765625 98.113281 55.933594 97.980469 57.5"/></g><g><path fill="#231f20" d="M 62.195312 57.523438 C 62.050781 59.089844 63.222656 60.457031 64.785156 60.589844 C 66.355469 60.714844 67.722656 59.546875 67.851562 57.984375 C 67.976562 56.417969 66.8125 55.046875 65.246094 54.917969 C 63.683594 54.792969 62.308594 55.957031 62.195312 57.523438"/></g><g><path fill="#6c5c6a" d="M 44.855469 41.308594 C 45.179688 41.179688 44.472656 39.957031 44.824219 38.46875 C 45.015625 36.929688 45.839844 35.820312 45.644531 35.695312 C 45.5625 35.578125 44.402344 36.574219 44.15625 38.351562 C 43.769531 40.101562 44.882812 41.429688 44.855469 41.308594"/></g><g><path fill="#6c5c6a" d="M 50.554688 28.042969 C 50.796875 27.996094 50.347656 26.410156 51.601562 25 C 52.78125 23.617188 54.179688 22.871094 54.089844 22.699219 C 54.035156 22.535156 52.425781 23.015625 51.074219 24.574219 C 49.609375 26.265625 50.449219 28.203125 50.554688 28.042969"/></g><g><path fill="#6c5c6a" d="M 120.371094 44.886719 C 120.335938 45.03125 122.195312 44.484375 122.726562 42.390625 C 123.113281 40.371094 122.246094 38.898438 122.109375 38.992188 C 121.914062 39.046875 122.414062 40.53125 122.070312 42.238281 C 121.664062 43.945312 120.234375 44.671875 120.371094 44.886719"/></g><g><path fill="#6c5c6a" d="M 122.132812 60.496094 C 121.980469 60.679688 123.59375 60.183594 123.628906 58.707031 C 123.847656 57.367188 123.515625 56.332031 123.339844 56.363281 C 123.148438 56.386719 123.164062 57.421875 122.964844 58.582031 C 122.894531 59.855469 122.03125 60.167969 122.132812 60.496094"/></g><g><path fill="#6c5c6a" d="M 96.695312 18.214844 C 96.550781 18.308594 98.050781 19.132812 99.558594 18.046875 C 100.875 16.953125 101.152344 15.585938 100.988281 15.546875 C 100.8125 15.464844 100.25 16.609375 99.148438 17.507812 C 98.003906 18.367188 96.753906 17.976562 96.695312 18.214844"/></g><g><path fill="#6c5c6a" d="M 78.527344 15.714844 C 78.824219 15.734375 78.257812 13.910156 80.109375 13.210938 C 81.726562 12.464844 83.328125 12.390625 83.308594 12.183594 C 83.320312 12.027344 81.683594 11.761719 79.804688 12.609375 C 77.507812 13.554688 78.445312 16.019531 78.527344 15.714844"/></g><g><path fill="#6c5c6a" d="M 63.570312 20.796875 C 63.609375 20.6875 63.988281 18.574219 66.957031 18.875 C 69.480469 18.875 71.558594 19.324219 71.597656 19.121094 C 71.648438 18.964844 69.625 18.203125 66.949219 18.203125 C 63.683594 17.757812 63.003906 20.964844 63.570312 20.796875"/></g><g><path fill="#6c5c6a" d="M 45.371094 54.226562 C 45.628906 54.136719 44.933594 52.898438 45.277344 51.535156 C 45.652344 50.15625 47.027344 49.644531 46.902344 49.453125 C 46.957031 49.300781 45.214844 49.503906 44.628906 51.339844 C 44.222656 53.171875 45.332031 54.316406 45.371094 54.226562"/></g><g><path fill="#6c5c6a" d="M 115.515625 30.433594 C 115.621094 30.234375 112.640625 30.660156 113.285156 27.546875 C 113.582031 25.027344 114.480469 23.019531 114.277344 22.949219 C 114.148438 22.878906 112.945312 24.746094 112.613281 27.488281 C 111.921875 31.191406 116.023438 30.78125 115.515625 30.433594"/></g><g><path fill="#523215" d="M 181.535156 14.632812 C 181.535156 14.632812 179.765625 1.546875 196.109375 2.457031 C 212.453125 3.367188 201.246094 33.746094 207.152344 36.433594 C 213.066406 39.125 213.515625 31.976562 213.515625 31.976562 C 213.515625 31.976562 211.328125 57.300781 198.097656 48.644531 C 184.859375 39.988281 181.535156 14.632812 181.535156 14.632812"/></g><g><path fill="#725c44" d="M 203.6875 33.070312 C 202.152344 33.53125 202.773438 23.4375 199.96875 12.414062 C 198.601562 8.574219 196.621094 12.484375 196.214844 14.714844 C 195.550781 17.128906 195.191406 19.386719 194.878906 21.273438 C 194.289062 25.058594 194.027344 27.414062 193.898438 27.414062 C 193.78125 27.398438 193.804688 25.019531 194.230469 21.183594 C 194.460938 19.273438 194.757812 16.988281 195.398438 14.492188 C 195.761719 13.253906 196.09375 11.929688 196.992188 10.671875 C 198.234375 8.738281 200.644531 10.695312 200.8125 12.050781 C 203.769531 23.675781 202.609375 33.285156 203.6875 33.070312"/></g><g><path fill="#725c44" d="M 189.113281 5.8125 C 189.269531 6.183594 185.796875 6.398438 184.691406 10.054688 C 183.515625 13.40625 183.726562 16.480469 183.441406 16.476562 C 183.234375 16.535156 182.554688 13.410156 183.828125 9.71875 C 185.144531 5.570312 189.398438 5.609375 189.113281 5.8125"/></g><g><path fill="#725c44" d="M 188.332031 20.011719 C 188.203125 20.128906 187.714844 15.308594 190.972656 10.695312 C 194.164062 6.171875 198.363281 4.242188 198.417969 4.464844 C 198.578125 4.695312 194.75 6.921875 191.722656 11.21875 C 188.652344 15.558594 188.714844 20.058594 188.332031 20.011719"/></g><g><path fill="#523215" d="M 145.878906 13.558594 C 145.878906 13.558594 148.921875 0.707031 132.570312 0.0117188 C 116.21875 -0.695312 124.378906 30.640625 118.242188 32.734375 C 112.09375 34.835938 112.34375 27.675781 112.34375 27.675781 C 112.34375 27.675781 112.039062 53.097656 126.050781 45.777344 C 140.074219 38.460938 145.878906 13.558594 145.878906 13.558594"/></g><g><path fill="#725c44" d="M 122.019531 29.738281 C 123.503906 30.34375 123.878906 20.234375 127.75 9.539062 C 129.484375 5.851562 131.078125 9.9375 131.257812 12.195312 C 131.6875 14.664062 131.828125 16.949219 131.945312 18.855469 C 132.160156 22.679688 132.183594 25.054688 132.316406 25.058594 C 132.4375 25.0625 132.644531 22.683594 132.597656 18.835938 C 132.558594 16.90625 132.484375 14.605469 132.097656 12.058594 C 131.859375 10.789062 131.660156 9.4375 130.878906 8.097656 C 129.835938 6.050781 127.242188 7.769531 126.949219 9.089844 C 122.867188 20.371094 123.066406 30.050781 122.019531 29.738281"/></g><g><path fill="#725c44" d="M 139.203125 4.039062 C 139.011719 4.394531 142.445312 4.949219 143.1875 8.695312 C 144.027344 12.148438 143.511719 15.1875 143.800781 15.207031 C 144 15.28125 144.980469 12.238281 144.074219 8.441406 C 143.175781 4.191406 138.9375 3.808594 139.203125 4.039062"/></g><g><path fill="#725c44" d="M 138.585938 18.246094 C 138.703125 18.371094 139.65625 13.625 136.878906 8.71875 C 134.144531 3.898438 130.15625 1.570312 130.078125 1.777344 C 129.890625 1.992188 133.488281 4.589844 136.078125 9.164062 C 138.703125 13.78125 138.199219 18.257812 138.585938 18.246094"/></g><g><path fill="#f4ca9d" d="M 200.945312 47.976562 C 199.886719 68.765625 182.179688 84.761719 161.386719 83.707031 C 140.601562 82.644531 124.601562 64.933594 125.660156 44.136719 C 126.71875 23.355469 144.425781 7.355469 165.21875 8.417969 C 186.007812 9.472656 202.011719 27.1875 200.945312 47.976562"/></g><g><path fill="#745432" d="M 165.21875 8.417969 C 144.425781 7.355469 125.636719 23.300781 124.582031 44.089844 C 124.347656 48.574219 125.996094 52.972656 127.238281 57.039062 C 129.171875 55.226562 130.742188 46.875 131.320312 38.347656 C 132.152344 26.015625 170.335938 41.570312 179.957031 22.675781 C 179.957031 22.675781 179.324219 31.101562 186.347656 34.964844 C 193.371094 38.824219 194.480469 41.355469 194.144531 47.9375 C 193.914062 52.441406 196.4375 60.140625 198.226562 60.238281 C 199.777344 56.429688 201.507812 52.195312 201.726562 47.855469 C 202.789062 27.066406 186.007812 9.472656 165.21875 8.417969"/></g><g><path fill="#8d745d" d="M 128.789062 39.351562 C 128.867188 39.441406 128.660156 36.179688 131.722656 32.351562 C 134.945312 28.371094 142.058594 27.191406 149.121094 27.382812 C 156.3125 27.679688 162.707031 27.820312 167.148438 26.289062 C 171.640625 24.976562 173.527344 22.589844 173.566406 22.660156 C 173.800781 22.726562 171.988281 25.464844 167.390625 27.019531 C 162.902344 28.785156 156.160156 28.757812 149.113281 28.464844 C 142.085938 28.285156 135.367188 29.339844 132.285156 32.867188 C 129.277344 36.289062 129.140625 39.507812 128.789062 39.351562"/></g><g><path fill="#8d745d" d="M 130.027344 31.171875 C 129.882812 31.246094 130.523438 28.332031 134.214844 26.34375 C 137.71875 24.28125 143.183594 22.792969 149.289062 22.484375 C 155.453125 22.308594 160.859375 23.570312 164.34375 21.332031 C 167.796875 19.546875 169.175781 17.367188 169.289062 17.488281 C 169.425781 17.515625 168.253906 19.9375 164.695312 22.003906 C 161.117188 24.554688 155.132812 23.386719 149.339844 23.558594 C 136.867188 23.535156 129.175781 30.515625 130.027344 31.171875"/></g><g><path fill="#8d745d" d="M 131.734375 26.097656 C 131.273438 26.015625 133.945312 20.816406 140.117188 18.332031 C 145.984375 15.613281 151.230469 15.070312 151.253906 15.335938 C 151.332031 15.660156 146.25 16.671875 140.578125 19.3125 C 134.625 21.726562 131.898438 26.1875 131.734375 26.097656"/></g><g><path fill="#8d745d" d="M 196.789062 44.464844 C 196.527344 44.578125 195.464844 37.425781 188.324219 32.492188 C 185.058594 30.210938 181.632812 27.0625 182.140625 23.828125 C 182.242188 20.960938 183.113281 19.382812 183.21875 19.4375 C 183.578125 19.128906 180.253906 27.390625 189.011719 31.652344 C 196.378906 36.726562 197.203125 44.675781 196.789062 44.464844"/></g><g><path fill="#8d745d" d="M 199.195312 45.820312 C 198.898438 45.851562 198.941406 38.753906 194.867188 31.1875 C 190.972656 23.632812 186.128906 18.558594 186.367188 18.359375 C 186.546875 18.132812 191.835938 22.953125 195.832031 30.703125 C 200.023438 38.488281 199.503906 45.945312 199.195312 45.820312"/></g><g><path fill="#231f20" d="M 141.863281 39.179688 C 142.195312 39.515625 143.503906 37.894531 145.417969 37.871094 C 147.355469 37.972656 148.777344 39.488281 149.035156 39.199219 C 149.300781 39.113281 148.320312 36.882812 145.460938 36.609375 C 142.511719 36.773438 141.648438 39.179688 141.863281 39.179688"/></g><g><path fill="#231f20" d="M 177.417969 39.273438 C 177.742188 39.617188 179.058594 37.988281 180.96875 37.964844 C 182.917969 38.066406 184.335938 39.589844 184.589844 39.289062 C 184.855469 39.210938 183.875 36.972656 181.015625 36.695312 C 178.0625 36.871094 177.199219 39.28125 177.417969 39.273438"/></g><g><path fill="#e09f68" d="M 162.222656 63.152344 C 162.148438 63.25 163.46875 63.6875 164.78125 62.835938 C 166.027344 61.996094 166.507812 60.847656 166.382812 60.800781 C 166.257812 60.71875 165.617188 61.671875 164.511719 62.40625 C 163.390625 63.136719 162.246094 62.976562 162.222656 63.152344"/></g><g><path fill="#f3a4a1" d="M 179.8125 60.78125 C 179.800781 62.285156 182.109375 63.519531 184.960938 63.542969 C 187.808594 63.546875 190.117188 62.339844 190.128906 60.835938 C 190.132812 59.332031 187.832031 58.097656 184.984375 58.085938 C 182.136719 58.070312 179.816406 59.28125 179.8125 60.78125"/></g><g><path fill="#f3a4a1" d="M 137.34375 60.894531 C 137.324219 62.398438 139.609375 63.652344 142.460938 63.691406 C 145.308594 63.730469 147.632812 62.539062 147.65625 61.035156 C 147.679688 59.523438 145.382812 58.277344 142.535156 58.238281 C 139.683594 58.199219 137.355469 59.386719 137.34375 60.894531"/></g><g><path fill="#ffffff" d="M 173.03125 66.871094 C 173.03125 66.871094 167.546875 68.105469 163.105469 68.175781 C 158.671875 68.242188 153.105469 66.980469 153.105469 66.980469 C 153.105469 66.980469 155.125 77.738281 164.917969 76.59375 C 171.703125 75.804688 173.03125 66.871094 173.03125 66.871094"/></g><g><path fill="#84997c" d="M 131.28125 27.878906 C 131.28125 27.878906 132.890625 32.757812 134.558594 33.460938 C 136.222656 34.160156 133.28125 37.261719 131.769531 36.566406 C 130.253906 35.871094 128.414062 29.441406 131.28125 27.878906"/></g><g><path fill="#84997c" d="M 193.921875 31.066406 C 193.921875 31.066406 191.824219 35.753906 190.097656 36.28125 C 188.359375 36.816406 190.976562 40.203125 192.550781 39.660156 C 194.132812 39.125 196.609375 32.90625 193.921875 31.066406"/></g><g><path fill="#231f20" d="M 148.191406 53.632812 C 148.21875 55.164062 147.003906 56.425781 145.46875 56.453125 C 143.9375 56.480469 142.671875 55.269531 142.648438 53.734375 C 142.613281 52.203125 143.832031 50.945312 145.363281 50.914062 C 146.894531 50.878906 148.15625 52.097656 148.191406 53.632812"/></g><g><path fill="#231f20" d="M 183.882812 53.664062 C 183.914062 55.199219 182.703125 56.464844 181.164062 56.496094 C 179.632812 56.527344 178.367188 55.304688 178.339844 53.777344 C 178.3125 52.246094 179.527344 50.984375 181.058594 50.949219 C 182.589844 50.921875 183.855469 52.136719 183.882812 53.664062"/></g><g><path fill="#be8f7f" d="M 199.617188 70.289062 C 204.132812 71.539062 207.160156 74.84375 206.375 77.664062 C 205.589844 80.488281 201.296875 81.757812 196.78125 80.507812 C 192.265625 79.253906 189.242188 75.953125 190.027344 73.128906 C 190.8125 70.304688 195.105469 69.039062 199.617188 70.289062"/></g><g><path fill="#f4ca9d" d="M 199.617188 76.933594 C 202.714844 80.449219 203.441406 84.867188 201.242188 86.800781 C 199.046875 88.738281 194.753906 87.453125 191.65625 83.9375 C 188.5625 80.421875 187.832031 76.003906 190.03125 74.066406 C 192.230469 72.132812 196.523438 73.414062 199.617188 76.933594"/></g><g><path fill="#e27ea7" d="M 150.832031 85.117188 C 151.121094 85.269531 149.183594 88.800781 148.132812 93.578125 C 146.988281 98.347656 147.355469 102.359375 147.121094 102.382812 C 146.875 102.453125 146.089844 98.3125 147.269531 93.390625 C 148.359375 88.449219 150.703125 85.011719 150.832031 85.117188"/></g><g><path fill="#e27ea7" d="M 197.9375 89.800781 C 198.082031 89.640625 200.234375 91.464844 202.242188 94.273438 C 204.28125 97.058594 205.320312 99.691406 205.09375 99.789062 C 204.871094 99.894531 203.519531 97.511719 201.527344 94.789062 C 199.5625 92.050781 197.746094 89.996094 197.9375 89.800781"/></g><g><path fill="#f7e89d" d="M 57.152344 94.132812 C 57.367188 94.292969 56.207031 96.105469 54.941406 98.414062 C 53.652344 100.710938 52.839844 102.675781 52.617188 102.617188 C 52.363281 102.554688 52.835938 100.355469 54.167969 97.988281 C 55.472656 95.609375 56.980469 93.996094 57.152344 94.132812"/></g><g><path fill="#f7e89d" d="M 108.410156 95.898438 C 108.605469 95.765625 109.847656 98.039062 109.871094 101.066406 C 109.980469 104.058594 109.414062 106.429688 109.175781 106.386719 C 108.929688 106.351562 109.09375 103.984375 108.992188 101.105469 C 108.960938 98.195312 108.175781 96.023438 108.410156 95.898438"/></g><g><path fill="#654e2d" d="M 612.371094 85.214844 C 612.710938 85.289062 612.539062 87.738281 611.144531 91.4375 C 609.925781 94.542969 606.78125 101.734375 599.074219 100.648438 C 587.007812 96.132812 582.261719 87.039062 582.5 86.984375 C 583.109375 86.035156 589.488281 94.355469 599.621094 98.050781 C 604.621094 99.042969 607.816406 93.726562 609.4375 90.65625 C 611.183594 87.359375 612 85.121094 612.371094 85.214844"/></g><g><path fill="#654e2d" d="M 521.875 91.753906 C 522.257812 91.523438 515.914062 103.597656 500.121094 106.320312 C 495.054688 106.730469 492.921875 101.171875 492.949219 98.296875 C 492.683594 94.992188 493.074219 92.128906 493.488281 89.761719 C 494.398438 85.039062 495.554688 82.292969 495.890625 82.386719 C 496.257812 82.480469 495.761719 85.371094 495.347656 90.007812 C 495.222656 93.746094 493.945312 103.417969 500.0625 103.671875 C 513.527344 101.496094 521.332031 90.671875 521.875 91.753906"/></g><g><path fill="#f2911e" d="M 514.742188 88.21875 C 514.742188 88.21875 517.808594 103.300781 526.054688 103.300781 C 526.054688 103.300781 523.289062 120.152344 522.582031 129.578125 C 522.582031 129.578125 591.808594 129.933594 591.101562 129.226562 C 590.394531 128.519531 589.453125 110.84375 583.085938 96.703125 C 583.085938 96.703125 589.214844 88.457031 588.273438 80.207031 C 588.273438 80.207031 584.972656 81.855469 580.378906 81.855469 C 575.78125 81.855469 573.132812 77.96875 568.183594 77.96875 C 563.234375 77.96875 533.011719 80.441406 533.011719 80.441406 C 533.011719 80.441406 528.414062 80.972656 526.292969 84.152344 C 524.171875 87.335938 518.574219 88.394531 514.742188 88.21875"/></g><g><path fill="#d57221" d="M 562.855469 94.148438 C 569.96875 92.371094 575.964844 87.789062 579.785156 81.824219 C 575.550781 81.511719 572.914062 77.96875 568.183594 77.96875 C 563.234375 77.96875 533.011719 80.441406 533.011719 80.441406 C 533.011719 80.441406 529.0625 80.902344 526.796875 83.503906 C 537.929688 94.242188 550.390625 96.917969 562.855469 94.148438"/></g><g><path fill="#f8ce59" d="M 540.785156 79.332031 C 540.785156 79.332031 541.359375 99.816406 555.453125 99.816406 C 569.539062 99.816406 569.539062 78.269531 569.539062 78.269531 L 540.785156 79.332031"/></g><g><path fill="#e3b488" d="M 543.558594 82.503906 C 543.558594 82.503906 544.027344 96.171875 555.574219 96.171875 C 567.121094 96.171875 567.121094 81.796875 567.121094 81.796875 L 543.558594 82.503906"/></g><g><path fill="#a24632" d="M 506.839844 100.480469 C 507.136719 103.898438 508.265625 106.738281 504.851562 107.035156 C 504.851562 107.035156 508.320312 110.5 511.925781 105.5 C 515.09375 101.117188 514.742188 95.683594 514.328125 92.1875 C 506.417969 92.5625 506.550781 97.175781 506.839844 100.480469"/></g><g><path fill="#a24632" d="M 514.160156 90.847656 C 514.210938 91.25 514.269531 91.703125 514.328125 92.1875 C 514.578125 92.179688 514.8125 92.15625 515.082031 92.152344 C 523.777344 92.0625 524.328125 86.898438 522.984375 82.996094 C 522.863281 82.660156 522.746094 82.328125 522.628906 81.984375 C 521.4375 82.242188 520.238281 82.480469 519.109375 82.699219 C 514.15625 83.679688 513.742188 87.550781 514.160156 90.847656"/></g><g><path fill="#a24632" d="M 523.394531 71.722656 C 520.003906 74.347656 521.34375 78.335938 522.628906 81.984375 C 526.65625 81.105469 530.539062 79.941406 530.9375 77.953125 C 531.445312 75.378906 528.75 67.574219 523.394531 71.722656"/></g><g><path fill="#de226f" d="M 510.386719 86.730469 C 509.488281 86.730469 506.597656 91.015625 507.773438 91.5625 C 508.34375 91.820312 511.09375 91.882812 513.886719 92.058594 C 512.199219 89.394531 510.652344 86.730469 510.386719 86.730469"/></g><g><path fill="#de226f" d="M 520.382812 93.394531 C 519.929688 92.554688 516.882812 92.238281 513.886719 92.058594 C 515.089844 93.957031 516.371094 95.859375 517.308594 96.804688 C 518.1875 97.6875 521.257812 95.019531 520.382812 93.394531"/></g><g><path fill="#a24632" d="M 601.628906 98.898438 C 601.394531 102.046875 600.378906 104.6875 603.53125 104.921875 C 603.53125 104.921875 600.363281 108.160156 596.984375 103.585938 C 594.015625 99.574219 594.277344 94.554688 594.621094 91.324219 C 601.929688 91.582031 601.855469 95.84375 601.628906 98.898438"/></g><g><path fill="#a24632" d="M 594.761719 90.082031 C 594.71875 90.457031 594.671875 90.875 594.621094 91.324219 C 594.394531 91.316406 594.175781 91.300781 593.929688 91.296875 C 585.898438 91.308594 585.328125 86.550781 586.535156 82.933594 C 586.636719 82.621094 586.742188 82.308594 586.851562 81.996094 C 587.949219 82.21875 589.0625 82.425781 590.105469 82.617188 C 594.6875 83.46875 595.117188 87.035156 594.761719 90.082031"/></g><g><path fill="#a24632" d="M 586.027344 72.53125 C 589.1875 74.921875 587.996094 78.613281 586.851562 81.996094 C 583.117188 81.226562 579.523438 80.199219 579.132812 78.367188 C 578.636719 75.992188 581.042969 68.761719 586.027344 72.53125"/></g><g><path fill="#de226f" d="M 595.890625 85.554688 C 596.617188 85.308594 600.132812 87.988281 599.324219 88.753906 C 598.9375 89.117188 596.730469 89.921875 594.511719 90.820312 C 595.152344 88.203125 595.679688 85.625 595.890625 85.554688"/></g><g><path fill="#de226f" d="M 589.613281 93.683594 C 589.753906 92.878906 592.132812 91.789062 594.511719 90.820312 C 594.054688 92.691406 593.542969 94.582031 593.035156 95.605469 C 592.566406 96.558594 589.347656 95.238281 589.613281 93.683594"/></g><g><path fill="#f4ca9d" d="M 593.570312 51.179688 C 592.773438 72.792969 574.597656 89.667969 552.984375 88.875 C 531.371094 88.070312 514.492188 69.894531 515.289062 48.277344 C 516.09375 26.664062 534.265625 9.785156 555.882812 10.585938 C 577.496094 11.386719 594.375 29.5625 593.570312 51.179688"/></g><g><path fill="#a24632" d="M 555.796875 8.167969 C 534.183594 7.367188 513.738281 23.179688 514.171875 48.234375 C 514.253906 52.90625 515.769531 57.449219 517.117188 61.652344 C 519.097656 59.742188 521.039062 54.082031 522.867188 45.394531 C 525.613281 32.371094 561.675781 44.960938 571.398438 25.191406 C 571.398438 25.191406 570.867188 33.953125 578.21875 37.863281 C 585.566406 41.78125 586.753906 44.390625 586.507812 51.238281 C 586.328125 55.921875 589.0625 63.882812 590.929688 63.960938 C 592.476562 59.976562 593.871094 55.527344 594.378906 51.046875 C 597.242188 26.164062 577.410156 8.96875 555.796875 8.167969"/></g><g><path fill="#c08177" d="M 518.480469 43.257812 C 518.558594 43.347656 518.296875 39.957031 521.421875 35.9375 C 524.714844 31.757812 532.085938 30.429688 539.429688 30.523438 C 546.902344 30.730469 553.550781 30.78125 558.140625 29.132812 C 562.789062 27.699219 564.710938 25.191406 564.765625 25.265625 C 565.003906 25.335938 563.160156 28.207031 558.40625 29.882812 C 553.769531 31.785156 546.765625 31.851562 539.4375 31.648438 C 532.132812 31.566406 525.160156 32.757812 522.007812 36.46875 C 518.945312 40.066406 518.839844 43.414062 518.480469 43.257812"/></g><g><path fill="#c08177" d="M 519.644531 34.738281 C 519.492188 34.816406 520.117188 31.78125 523.925781 29.660156 C 527.53125 27.46875 533.195312 25.839844 539.53125 25.433594 C 545.933594 25.160156 551.570312 26.394531 555.15625 24.019531 C 558.726562 22.117188 560.113281 19.835938 560.242188 19.957031 C 560.382812 19.980469 559.207031 22.515625 555.535156 24.71875 C 551.851562 27.421875 545.617188 26.285156 539.601562 26.550781 C 526.640625 26.703125 518.746094 34.066406 519.644531 34.738281"/></g><g><path fill="#c08177" d="M 521.34375 29.441406 C 520.867188 29.363281 523.5625 23.921875 529.941406 21.25 C 536.003906 18.34375 541.441406 17.707031 541.472656 17.976562 C 541.558594 18.308594 536.292969 19.4375 530.433594 22.261719 C 524.285156 24.859375 521.515625 29.535156 521.34375 29.441406"/></g><g><path fill="#c08177" d="M 589.207031 47.589844 C 588.9375 47.714844 587.730469 40.292969 580.238281 35.273438 C 576.808594 32.953125 573.207031 29.722656 573.6875 26.355469 C 573.746094 23.371094 574.636719 21.722656 574.742188 21.777344 C 575.109375 21.449219 571.773438 30.089844 580.9375 34.386719 C 588.664062 39.554688 589.632812 47.804688 589.207031 47.589844"/></g><g><path fill="#c08177" d="M 591.726562 48.96875 C 591.410156 49 591.355469 41.628906 587.019531 33.820312 C 582.859375 26.027344 577.757812 20.824219 577.996094 20.613281 C 578.175781 20.371094 583.738281 25.308594 588.015625 33.304688 C 592.476562 41.335938 592.046875 49.089844 591.726562 48.96875"/></g><g><path fill="#231f20" d="M 531.855469 43.386719 C 532.207031 43.730469 533.542969 42.027344 535.527344 41.976562 C 537.542969 42.054688 539.046875 43.609375 539.304688 43.300781 C 539.582031 43.207031 538.527344 40.910156 535.550781 40.660156 C 532.492188 40.878906 531.628906 43.390625 531.855469 43.386719"/></g><g><path fill="#231f20" d="M 568.839844 43.105469 C 569.164062 43.46875 570.574219 41.8125 572.5625 41.84375 C 574.578125 42.003906 576.011719 43.628906 576.28125 43.320312 C 576.558594 43.246094 575.609375 40.894531 572.644531 40.53125 C 569.574219 40.628906 568.609375 43.105469 568.839844 43.105469"/></g><g><path fill="#e09f68" d="M 552.851562 67.667969 C 552.777344 67.761719 554.152344 68.203125 555.507812 67.296875 C 556.785156 66.40625 557.273438 65.203125 557.140625 65.160156 C 557.007812 65.078125 556.351562 66.074219 555.222656 66.855469 C 554.066406 67.636719 552.871094 67.476562 552.851562 67.667969"/></g><g><path fill="#f3a4a1" d="M 570.5 65.191406 C 570.492188 66.75 572.898438 68.015625 575.859375 68.023438 C 578.820312 68.023438 581.21875 66.753906 581.226562 65.183594 C 581.222656 63.625 578.824219 62.351562 575.859375 62.359375 C 572.90625 62.363281 570.496094 63.628906 570.5 65.191406"/></g><g><path fill="#f3a4a1" d="M 526.929688 65.363281 C 526.929688 66.925781 529.320312 68.199219 532.285156 68.191406 C 535.242188 68.1875 537.640625 66.917969 537.640625 65.351562 C 537.644531 63.792969 535.238281 62.523438 532.28125 62.523438 C 529.320312 62.527344 526.921875 63.796875 526.929688 65.363281"/></g><g><path fill="#ffffff" d="M 564.671875 71.621094 C 564.671875 71.621094 558.953125 72.800781 554.34375 72.796875 C 549.730469 72.796875 543.972656 71.382812 543.972656 71.382812 C 543.972656 71.382812 545.878906 82.597656 556.074219 81.582031 C 563.136719 80.886719 564.671875 71.621094 564.671875 71.621094"/></g><g><path fill="#231f20" d="M 538.761719 57.921875 C 538.816406 59.519531 537.566406 60.859375 535.960938 60.910156 C 534.363281 60.964844 533.019531 59.71875 532.972656 58.113281 C 532.910156 56.515625 534.164062 55.179688 535.765625 55.125 C 537.363281 55.066406 538.703125 56.320312 538.761719 57.921875"/></g><g><path fill="#231f20" d="M 575.230469 57.714844 C 575.285156 59.316406 574.039062 60.65625 572.4375 60.714844 C 570.832031 60.765625 569.488281 59.511719 569.445312 57.914062 C 569.390625 56.316406 570.636719 54.976562 572.238281 54.921875 C 573.832031 54.867188 575.179688 56.121094 575.230469 57.714844"/></g><g><path fill="#f4ca9d" d="M 502.066406 75.0625 C 501.378906 79.695312 498.46875 83.101562 495.574219 82.667969 C 492.675781 82.238281 490.886719 78.128906 491.578125 73.496094 C 492.269531 68.859375 495.175781 65.457031 498.070312 65.886719 C 500.972656 66.320312 502.757812 70.425781 502.066406 75.0625"/></g><g><path fill="#8c72c0" d="M 383.023438 65.316406 C 383.023438 65.316406 383.410156 60.851562 393.058594 59.746094 C 402.707031 58.636719 404.046875 62.210938 404.046875 62.210938 L 395.160156 69.386719 L 383.023438 65.316406"/></g><g><path fill="#8c72c0" d="M 487.980469 67.15625 C 487.980469 67.15625 485.53125 62.996094 481.71875 60.894531 C 477.902344 58.792969 473.621094 60.585938 473.621094 60.585938 L 477.671875 69.53125 L 487.980469 67.15625"/></g><g><path fill="#654e2d" d="M 398.265625 76.015625 C 397.890625 76.65625 387.769531 65.796875 385.09375 48.507812 C 382.183594 31.507812 385.492188 17.699219 386.183594 17.921875 C 386.945312 17.996094 384.925781 31.636719 387.75 48.039062 C 390.304688 64.636719 398.945312 75.558594 398.265625 76.015625"/></g><g><path fill="#654e2d" d="M 475.304688 75.601562 C 474.613281 75.089844 486.585938 66.335938 488.523438 49.265625 C 490.671875 32.691406 486.605469 19.164062 487.453125 19.035156 C 487.996094 18.703125 493.417969 32.207031 491.191406 49.652344 C 489.078125 67.847656 475.269531 76.527344 475.304688 75.601562"/></g><g><path fill="#a5bee5" d="M 398.800781 134.253906 C 398.800781 134.253906 394.84375 109.34375 398.652344 96.332031 C 398.652344 96.332031 386.34375 77.285156 383.023438 65.316406 C 383.023438 65.316406 392.78125 69.074219 404.046875 62.210938 C 404.046875 62.210938 406.605469 85.089844 433.660156 84.660156 C 460.71875 84.226562 473.621094 60.585938 473.621094 60.585938 C 473.621094 60.585938 475.277344 66.570312 487.980469 67.15625 C 487.980469 67.15625 477.617188 90.914062 468.023438 100.144531 L 471.679688 126.894531 L 398.800781 134.253906"/></g><g><path fill="#7da2d6" d="M 418.539062 81.785156 C 410.0625 77.828125 406.476562 70.695312 405.007812 66.21875 C 399.644531 70.234375 392.566406 71.601562 385.214844 71.480469 C 389.960938 82.878906 398.652344 96.332031 398.652344 96.332031 C 394.84375 109.34375 422.449219 83.609375 418.539062 81.785156"/></g><g><path fill="#a587cb" d="M 405.007812 66.21875 C 404.226562 63.839844 404.046875 62.210938 404.046875 62.210938 C 392.761719 67.9375 383.023438 65.316406 383.023438 65.316406 C 383.554688 67.222656 384.3125 69.316406 385.214844 71.480469 C 392.566406 71.601562 399.644531 70.234375 405.007812 66.21875"/></g><g><path fill="#a587cb" d="M 486.296875 70.835938 C 487.363281 68.574219 487.980469 67.15625 487.980469 67.15625 C 477.519531 66.800781 473.621094 60.585938 473.621094 60.585938 C 473.621094 60.585938 472.855469 61.980469 471.320312 64.09375 C 473.980469 69.105469 480.5625 70.078125 486.296875 70.835938"/></g><g><path fill="#7da2d6" d="M 471.320312 64.09375 C 468.703125 67.695312 463.835938 73.386719 456.621094 77.875 C 450.609375 81.613281 468.023438 100.144531 468.023438 100.144531 C 475.28125 93.164062 482.976562 77.871094 486.296875 70.835938 C 480.5625 70.078125 473.980469 69.105469 471.320312 64.09375"/></g><g><path fill="#a587cb" d="M 426.65625 94.214844 C 426.65625 94.214844 423.464844 93.890625 421.421875 95.171875 C 419.375 96.449219 419.1875 99.175781 416.5 99.4375 C 413.816406 99.695312 411.589844 95.300781 412.464844 90.339844 C 413.34375 85.378906 415.976562 79.886719 420.324219 80.011719 C 424.671875 80.132812 427.585938 83.199219 427.585938 83.199219 L 426.65625 94.214844"/></g><g><path fill="#a587cb" d="M 435.695312 94.679688 C 435.695312 94.679688 438.894531 95.085938 440.519531 96.941406 C 442.144531 98.796875 441.558594 101.761719 444.101562 102.675781 C 446.636719 103.585938 450.042969 99.40625 450.597656 93.886719 C 451.148438 88.363281 450.136719 81.855469 445.871094 80.964844 C 441.605469 80.066406 437.910156 82.660156 437.910156 82.660156 L 435.695312 94.679688"/></g><g><path fill="#a587cb" d="M 427.191406 95.066406 L 428.347656 108.957031 L 434.824219 108.695312 L 433.742188 94.617188 L 427.191406 95.066406"/></g><g><path fill="#e3b488" d="M 422.828125 83.472656 C 422.828125 83.472656 420.398438 95.808594 431.257812 96.03125 C 442.121094 96.25 445.214844 83.3125 445.214844 83.3125 L 422.828125 83.472656"/></g><g><path fill="#f4ca9d" d="M 473.148438 49.308594 C 473.871094 69.570312 458.035156 86.589844 437.773438 87.316406 C 417.507812 88.046875 400.492188 72.207031 399.765625 51.941406 C 399.035156 31.683594 414.875 14.664062 435.140625 13.9375 C 455.402344 13.210938 472.421875 29.050781 473.148438 49.308594"/></g><g><path fill="#ceaf21" d="M 399.851562 53.28125 C 399.851562 53.28125 398.96875 46.359375 402.351562 40.214844 C 402.351562 40.214844 407.175781 41.390625 425.84375 39.507812 C 444.515625 37.625 452.253906 25.992188 452.253906 25.992188 C 452.253906 25.992188 450.652344 46.003906 463.160156 50.511719 C 463.160156 50.511719 464.9375 56.949219 471.816406 58.246094 C 478.695312 59.542969 484.265625 55.15625 484.25 54.714844 C 484.238281 54.273438 479.515625 54.886719 477.3125 48.792969 C 475.113281 42.699219 479.566406 31.738281 474.78125 24.195312 C 469.988281 16.652344 459.9375 12.9375 459.9375 12.9375 C 459.9375 12.9375 463.402344 11.269531 464.867188 11.992188 C 466.320312 12.710938 467.953125 12.207031 467.441406 10.132812 C 466.925781 8.054688 461.480469 3.734375 457.386719 9.503906 C 457.386719 9.503906 455.378906 2.632812 452.183594 2.632812 C 448.988281 2.636719 453.445312 7.21875 451.980469 9.144531 C 451.980469 9.144531 443.074219 2.015625 429.726562 3.238281 C 407.527344 5.273438 403.238281 20.808594 399.03125 23.976562 C 392.636719 28.792969 391.667969 24.578125 389.949219 25.816406 C 388.226562 27.054688 389.960938 32.773438 394.847656 33.769531 C 394.847656 33.769531 391.316406 46.03125 399.851562 53.28125"/></g><g><path fill="#f5d934" d="M 401.898438 40.773438 C 401.816406 40.785156 403.226562 37.199219 406.921875 34.429688 C 410.621094 31.628906 414.570312 31.539062 414.515625 31.75 C 414.5625 31.882812 410.832031 32.238281 407.289062 34.925781 C 403.742188 37.570312 402.117188 40.929688 401.898438 40.773438"/></g><g><path fill="#f5d934" d="M 435.109375 8.980469 C 435.0625 9.15625 432.757812 7.609375 428.5625 7.839844 C 424.328125 7.925781 418.914062 10.371094 415.105469 15.71875 C 410.910156 20.917969 404.234375 28.9375 400.472656 30.226562 C 396.523438 31.664062 394.871094 33.832031 394.847656 33.769531 C 394.71875 33.746094 396.328125 31.394531 400.308594 29.820312 C 404.234375 28.355469 410.511719 20.394531 414.660156 15.292969 C 418.382812 9.988281 424.273438 7.296875 428.546875 7.402344 C 432.859375 7.285156 435.160156 9.019531 435.109375 8.980469"/></g><g><path fill="#f5d934" d="M 463.042969 50.261719 C 462.925781 50.320312 461.804688 48.265625 461.289062 45.449219 C 460.734375 42.636719 461.113281 40.296875 461.292969 40.328125 C 461.449219 40.347656 461.355469 42.613281 461.894531 45.339844 C 462.390625 48.066406 463.234375 50.179688 463.042969 50.261719"/></g><g><path fill="#f5d934" d="M 448.777344 15.101562 C 448.683594 15.472656 443.570312 11.613281 436.1875 11.90625 C 428.820312 12.121094 423.8125 15.996094 423.78125 15.78125 C 423.589844 15.738281 428.558594 11.53125 436.167969 11.292969 C 443.8125 11.003906 448.890625 15.207031 448.777344 15.101562"/></g><g><path fill="#f5d934" d="M 467.785156 25.878906 C 467.492188 26.015625 467.183594 22.851562 464.246094 20.964844 C 461.273438 19.230469 458.253906 19.492188 458.292969 19.277344 C 458.214844 19.164062 461.332031 18.574219 464.570312 20.4375 C 467.808594 22.554688 467.828125 26.019531 467.785156 25.878906"/></g><g><path fill="#f5d934" d="M 478.980469 52.039062 C 478.976562 52.136719 476.453125 50.894531 474.878906 47.964844 C 473.273438 45.058594 473.558594 42.257812 473.703125 42.308594 C 473.894531 42.285156 473.902344 44.9375 475.425781 47.671875 C 476.894531 50.429688 479.136719 51.839844 478.980469 52.039062"/></g><g><path fill="#231f20" d="M 458.613281 42.882812 C 458.226562 43.214844 456.960938 41.367188 454.910156 41.183594 C 452.824219 41.136719 451.175781 42.640625 450.921875 42.308594 C 450.644531 42.191406 451.882812 39.882812 454.96875 39.832031 C 458.121094 40.253906 458.847656 42.902344 458.613281 42.882812"/></g><g><path fill="#231f20" d="M 420.261719 39.910156 C 419.878906 40.253906 418.605469 38.402344 416.5625 38.210938 C 414.472656 38.15625 412.816406 39.675781 412.574219 39.335938 C 412.296875 39.230469 413.527344 36.910156 416.621094 36.851562 C 419.769531 37.285156 420.492188 39.941406 420.261719 39.910156"/></g><g><path fill="#e09f68" d="M 433.785156 63.890625 C 433.855469 63.996094 432.40625 64.359375 431.066406 63.335938 C 429.800781 62.332031 429.382812 61.0625 429.519531 61.027344 C 429.660156 60.949219 430.269531 62.019531 431.394531 62.898438 C 432.535156 63.78125 433.773438 63.703125 433.785156 63.890625"/></g><g><path fill="#f3a4a1" d="M 417.710938 60.710938 C 417.539062 62.316406 414.925781 63.355469 411.878906 63.035156 C 408.832031 62.695312 406.511719 61.128906 406.679688 59.523438 C 406.859375 57.914062 409.46875 56.867188 412.511719 57.203125 C 415.554688 57.53125 417.886719 59.105469 417.710938 60.710938"/></g><g><path fill="#f3a4a1" d="M 461.859375 63.9375 C 461.761719 65.546875 459.207031 66.703125 456.144531 66.511719 C 453.089844 66.3125 450.695312 64.84375 450.796875 63.230469 C 450.894531 61.613281 453.464844 60.46875 456.519531 60.65625 C 459.574219 60.855469 461.972656 62.320312 461.859375 63.9375"/></g><g><path fill="#ffffff" d="M 422.4375 67.84375 C 422.4375 67.84375 428.289062 69.363281 433.054688 69.597656 C 437.824219 69.824219 443.84375 68.664062 443.84375 68.664062 C 443.84375 68.664062 441.296875 80.148438 430.8125 78.578125 C 423.546875 77.492188 422.4375 67.84375 422.4375 67.84375"/></g><g><path fill="#231f20" d="M 451.269531 55.167969 C 451.113281 56.804688 452.308594 58.261719 453.953125 58.414062 C 455.59375 58.574219 457.046875 57.382812 457.199219 55.738281 C 457.363281 54.101562 456.164062 52.648438 454.523438 52.488281 C 452.886719 52.324219 451.429688 53.527344 451.269531 55.167969"/></g><g><path fill="#231f20" d="M 414.113281 52.527344 C 413.960938 54.175781 415.148438 55.628906 416.796875 55.789062 C 418.4375 55.945312 419.894531 54.746094 420.046875 53.109375 C 420.207031 51.46875 419.007812 50.011719 417.367188 49.855469 C 415.730469 49.695312 414.273438 50.890625 414.113281 52.527344"/></g><g><path fill="#f4ca9d" d="M 391.746094 10.300781 C 391.496094 15.0625 388.882812 18.792969 385.910156 18.636719 C 382.929688 18.480469 380.71875 14.496094 380.972656 9.734375 C 381.21875 4.972656 383.832031 1.242188 386.804688 1.398438 C 389.785156 1.554688 391.992188 5.539062 391.746094 10.300781"/></g><g><path fill="#f4ca9d" d="M 488.6875 9.738281 C 490.5625 14.121094 489.863281 18.621094 487.128906 19.796875 C 484.386719 20.972656 480.644531 18.371094 478.769531 13.988281 C 476.886719 9.609375 477.585938 5.105469 480.324219 3.933594 C 483.0625 2.757812 486.804688 5.359375 488.6875 9.738281"/></g><g><path fill="#f4ca9d" d="M 619.429688 78.359375 C 618.738281 82.996094 615.828125 86.402344 612.9375 85.96875 C 610.035156 85.535156 608.25 81.429688 608.941406 76.796875 C 609.632812 72.160156 612.539062 68.753906 615.433594 69.1875 C 618.332031 69.621094 620.117188 73.726562 619.429688 78.359375"/></g><g clip-path="url(#a)"><path fill="#f8cc5d" d="M 27.65625 123.347656 L 604.074219 123.347656 L 633 152.941406 L 0 152.941406 L 27.65625 123.347656"/></g><g><path fill="#e3b747" d="M 254.769531 132.675781 C 267.261719 144.03125 286.570312 139.488281 301.335938 134.945312 C 328.59375 126.996094 361.527344 156.523438 385.378906 133.808594 C 389.039062 130.148438 388.273438 126.488281 385.386719 123.347656 L 254.4375 123.347656 C 253.261719 126.625 253.257812 130.402344 254.769531 132.675781"/></g><g><path fill="#9c282d" d="M 367.570312 123.707031 C 362.085938 126.671875 355.289062 131.925781 357.4375 132.074219 C 367.691406 132.78125 373.699219 121.820312 373.699219 121.820312 C 373.699219 121.820312 370.777344 121.976562 367.570312 123.707031"/></g><g><path fill="#654e2d" d="M 346.808594 112.007812 C 346.863281 111.75 350.578125 112.066406 356.128906 114.398438 C 358.867188 115.597656 362.136719 117.308594 364.988281 120.316406 C 367.484375 122.925781 371.242188 128.511719 366.847656 133.332031 C 356.972656 137.472656 349.210938 133.980469 343.3125 133.605469 C 337.515625 132.507812 334.015625 131.445312 334.085938 131.09375 C 334.15625 130.730469 337.769531 131.136719 343.582031 131.75 C 348.972656 131.933594 358.390625 134.160156 365.097656 131.339844 C 367.613281 128.96875 365.550781 124.453125 363.195312 121.96875 C 360.785156 119.226562 357.816406 117.429688 355.308594 116.085938 C 350.222656 113.433594 346.683594 112.449219 346.808594 112.007812"/></g><g><path fill="#9c282d" d="M 258.105469 124.648438 C 257.039062 120.652344 286.738281 129.953125 286.738281 129.953125 C 286.738281 129.953125 259.519531 129.953125 258.105469 124.648438"/></g><g><path fill="#654e2d" d="M 309.871094 128.054688 C 312.203125 130.59375 298.128906 133.539062 282.875 133.046875 C 275.429688 132.933594 266.34375 131.433594 264.816406 124.75 C 264.324219 118.835938 267.648438 116.558594 267.628906 116.742188 C 268.160156 116.863281 265.742188 119.863281 266.640625 124.316406 C 267.816406 128.898438 275.546875 130.335938 282.925781 130.398438 C 298.21875 130.785156 311.273438 129.332031 309.871094 128.054688"/></g><g><path fill="#be3f4f" d="M 367.570312 123.707031 C 370.777344 121.976562 373.699219 121.820312 373.699219 121.820312 C 373.699219 121.820312 361.328125 103.4375 314.664062 105.207031 C 268.003906 106.972656 257.039062 120.652344 258.105469 124.648438 C 257.039062 120.652344 286.738281 129.953125 286.738281 129.953125 L 293.101562 126.417969 C 293.101562 126.417969 315.019531 127.125 326.332031 124.648438 C 337.644531 122.175781 347.1875 131.367188 357.4375 132.074219 C 355.289062 131.925781 362.085938 126.671875 367.570312 123.707031"/></g><g><path fill="#b23244" d="M 351.308594 108.902344 C 342.503906 106.347656 330.582031 104.605469 314.664062 105.207031 C 292.785156 106.035156 278.757812 109.484375 270.132812 113.324219 C 275.839844 120.269531 282.886719 125.074219 290.566406 127.828125 L 293.101562 126.417969 C 293.101562 126.417969 315.019531 127.125 326.332031 124.648438 C 328.414062 124.191406 330.441406 124.140625 332.421875 124.347656 C 339.453125 120.710938 345.9375 115.535156 351.308594 108.902344"/></g><g><path fill="#f4ca9d" d="M 347.925781 90.140625 C 347.925781 112.171875 331.449219 128.019531 307.496094 127.339844 C 299.757812 127.121094 293.070312 127.828125 286.953125 124.015625 C 275.65625 116.96875 268.144531 104.433594 268.144531 90.140625 C 268.144531 68.109375 286.003906 50.25 308.035156 50.25 C 330.066406 50.25 347.925781 68.109375 347.925781 90.140625"/></g><g><path fill="#f08521" d="M 267.816406 114.574219 C 267.816406 114.574219 276.25 103.546875 273.652344 90.898438 C 273.652344 90.898438 275.601562 105.167969 301.871094 102.578125 C 301.871094 102.578125 293.4375 100.953125 290.195312 91.871094 C 290.195312 91.871094 299.601562 102.25 310.304688 102.898438 C 321.007812 103.546875 336.25 105.167969 336.574219 112.304688 C 336.574219 112.304688 341.765625 108.089844 336.25 99.332031 C 336.25 99.332031 344.359375 106.792969 341.117188 114.898438 C 341.117188 114.898438 346.304688 112.304688 346.304688 104.519531 C 346.304688 104.519531 346.953125 110.035156 350.847656 111.332031 C 350.847656 111.332031 347.277344 106.464844 349.222656 99.332031 C 351.171875 92.195312 346.953125 85.707031 346.953125 85.707031 C 346.953125 85.707031 351.492188 86.683594 354.414062 83.117188 C 354.414062 83.117188 350.519531 83.4375 348.898438 80.84375 C 348.898438 80.84375 354.089844 80.523438 354.089844 73.710938 C 354.089844 73.710938 348.253906 77.601562 341.117188 65.601562 C 333.980469 53.601562 316.140625 41.277344 289.546875 52.628906 C 289.546875 52.628906 273.007812 55.546875 264.246094 72.734375 C 255.492188 89.925781 262.628906 100.953125 266.519531 105.496094 C 266.519531 105.496094 266.195312 114.25 267.816406 114.574219"/></g><g><path fill="#f08521" d="M 285.007812 57.816406 C 285.007812 57.816406 281.113281 49.601562 274.195312 51.761719 C 274.195312 51.761719 280.25 45.277344 288.035156 50.898438 C 288.035156 50.898438 291.925781 43.113281 299.710938 42.464844 C 299.710938 42.464844 292.574219 48.949219 296.46875 55.871094 L 285.007812 57.816406"/></g><g><path fill="#f4bf2c" d="M 310.953125 88.953125 C 311.097656 88.96875 303.65625 89.941406 296.007812 85.542969 C 288.320312 81.25 285.183594 74.449219 285.4375 74.464844 C 285.59375 74.273438 288.960938 80.695312 296.40625 84.839844 C 303.789062 89.105469 311.058594 88.527344 310.953125 88.953125"/></g><g><path fill="#f4bf2c" d="M 285.007812 91.328125 C 285.015625 91.433594 280.996094 89.949219 277.976562 85.757812 C 274.789062 81.347656 276.757812 76.710938 277.007812 77.058594 C 277.152344 76.996094 275.691406 81.25 278.648438 85.300781 C 281.457031 89.234375 285.222656 91.050781 285.007812 91.328125"/></g><g><path fill="#f4bf2c" d="M 318.089844 58.25 C 318.105469 58.585938 311.398438 58.214844 303.445312 59.90625 C 295.222656 61.339844 290.617188 66.558594 290.84375 66.679688 C 290.140625 66.386719 294.855469 60.550781 303.269531 59.117188 C 311.394531 57.394531 318.117188 58.140625 318.089844 58.25"/></g><g><path fill="#f4bf2c" d="M 303.601562 76.410156 C 303.640625 76.59375 299.835938 77.246094 295.15625 76.699219 C 290.480469 76.210938 286.878906 74.886719 286.953125 74.683594 C 287.019531 74.460938 290.65625 75.414062 295.246094 75.894531 C 299.828125 76.429688 303.570312 76.148438 303.601562 76.410156"/></g><g><path fill="#f4bf2c" d="M 344.253906 90.25 C 343.8125 90.414062 343.453125 85.320312 339.34375 81.246094 C 335.207031 77.164062 330.050781 76.921875 330.195312 76.628906 C 330.042969 76.480469 335.472656 76.335938 339.90625 80.660156 C 344.277344 85.039062 344.253906 90.398438 344.253906 90.25"/></g><g><path fill="#f4bf2c" d="M 336.25 99.332031 C 336.078125 99.484375 334.574219 97.820312 332.082031 96.847656 C 329.628906 95.828125 327.386719 95.835938 327.386719 95.546875 C 327.34375 95.394531 329.722656 94.996094 332.394531 96.097656 C 335.097656 97.160156 336.453125 99.230469 336.25 99.332031"/></g><g><path fill="#231f20" d="M 286.5625 104.863281 C 286.429688 105.207031 285.003906 104.53125 283.414062 104.578125 C 281.800781 104.632812 281.253906 106.136719 281.003906 106.054688 C 280.65625 106.199219 280.90625 103.804688 283.332031 103.589844 C 285.453125 103.5625 286.652344 104.734375 286.5625 104.863281"/></g><g><path fill="#231f20" d="M 291.140625 113.214844 C 290.945312 113.097656 290.101562 114.1875 287.265625 114.480469 C 284.3125 114.898438 283.832031 114.3125 283.878906 114.460938 C 283.988281 114.792969 284.757812 115.429688 287.363281 115.128906 C 290.996094 114.648438 291.394531 112.953125 291.140625 113.214844"/></g><g><path fill="#231f20" d="M 322.738281 109.136719 C 322.542969 109.019531 321.699219 110.113281 318.863281 110.402344 C 315.910156 110.820312 315.429688 110.234375 315.480469 110.382812 C 315.589844 110.714844 316.355469 111.351562 318.964844 111.050781 C 322.59375 110.570312 322.992188 108.875 322.738281 109.136719"/></g><g><path fill="#f3a4a1" d="M 280.355469 116.882812 C 280.1875 117.796875 282.121094 118.570312 284.679688 118.621094 C 287.238281 118.660156 289.445312 117.964844 289.609375 117.054688 C 289.78125 116.140625 287.835938 115.367188 285.28125 115.316406 C 282.71875 115.273438 280.515625 115.972656 280.355469 116.882812"/></g><g><path fill="#f3a4a1" d="M 319.605469 113.773438 C 319.726562 114.695312 321.804688 114.84375 324.253906 114.113281 C 326.703125 113.371094 328.59375 112.039062 328.476562 111.121094 C 328.359375 110.199219 326.273438 110.054688 323.824219 110.78125 C 321.367188 111.523438 319.484375 112.855469 319.605469 113.773438"/></g><g><path fill="#cb9d72" d="M 301.390625 122.980469 C 301.476562 123.109375 300.757812 123.9375 299.617188 123.539062 C 298.421875 123.164062 298.5625 122.140625 298.742188 122.085938 C 298.960938 121.9375 299.054688 122.375 299.960938 122.628906 C 300.796875 122.929688 301.335938 122.6875 301.390625 122.980469"/></g><g><path fill="#f4ca9d" d="M 321.289062 129.238281 C 321.289062 131.53125 318.121094 133.390625 314.21875 133.390625 C 310.3125 133.390625 307.148438 131.53125 307.148438 129.238281 C 307.148438 126.945312 310.3125 125.085938 314.21875 125.085938 C 318.121094 125.085938 321.289062 126.945312 321.289062 129.238281"/></g><g><path fill="#f4ca9d" d="M 334.222656 130.417969 C 334.222656 132.710938 331.058594 134.570312 327.152344 134.570312 C 323.246094 134.570312 320.085938 132.710938 320.085938 130.417969 C 320.085938 128.125 323.246094 126.265625 327.152344 126.265625 C 331.058594 126.265625 334.222656 128.125 334.222656 130.417969"/></g><g><path fill="#7077c3" d="M 83.273438 109.675781 C 83.273438 111.398438 81.875 112.796875 80.148438 112.796875 C 78.425781 112.796875 77.027344 111.398438 77.027344 109.675781 C 77.027344 107.949219 78.425781 106.550781 80.148438 106.550781 C 81.875 106.550781 83.273438 107.949219 83.273438 109.675781"/></g></g></svg>