<?xml version="1.0" encoding="UTF-8" standalone="no"?><svg xmlns="http://www.w3.org/2000/svg" xmlns:xlink="http://www.w3.org/1999/xlink" contentScriptType="text/ecmascript" fill="#000000" width="90" zoomAndPan="magnify" contentStyleType="text/css" viewBox="3.0 15.0 90.0 64.7" height="64.7" preserveAspectRatio="xMidYMid meet" version="1"><g id="change1_7"><path fill="#f9f9f9" d="M21.547,54.15251c-0.6058,1.3208-1.2048,2.85649-0.5929,4.17449 c0.798,1.71931,3.0842,1.99391,4.9794,2.02851c3.1148,0.0569,6.2296,0.1137,9.3445,0.1707 c2.0195,0.03679,4.4227-0.1266,5.4601-1.8598c0.7336-1.2259,0.4687-2.7786,0.1806-4.1778c-0.5242-2.5452-1.062-5.1295-2.275-7.4278 c-1.213-2.2981-3.2147-4.3126-5.7403-4.9241c-1.4245-0.3448-3.509-0.4219-4.9004,0.1227 c-1.0766,0.4213-1.3528,1.3234-1.8457,2.3131C24.5767,47.74531,23.0249,50.93021,21.547,54.15251z"/></g><g id="change2_1"><path fill="#ffb793" d="M79.145,59.72121c-6.9378,0.0014-18.6807,0.3896-25.6176,0.5839 c-12.6978,0.3558-24.7656,0.7557-38.0938,1.0673c-1.5625,0.03659-8.99682,9.5475-11.56678,12.9495 C3.31339,75.0545,3,76.1321,3,77.27711v0.2156c0,2.1298,1.08573,1.9624,2.42506,1.9624H90.5749 c1.3394,0,2.4251,0.1674,2.4251-1.9624v-0.0001c0-1.2409-0.3688-2.3959-1.0022-3.1205 C87.5869,69.32651,80.1108,59.721,79.145,59.72121z"/></g><g id="change1_1"><path fill="#f9f9f9" d="M80.1602,60.6189c-0.5979,0.7193-1.663,0.7754-2.59731,0.738c-1.0369-0.0467-2.0646-0.1308-3.09219-0.2428 c-0.74741-0.08411-1.4855-0.1682-2.2328-0.2616c-1.7097-0.20551-3.3632-0.5326-5.0822-0.5605 c-1.7658-0.0281-3.5408,0.12141-5.2784,0.43911c-0.1776,0.0373-0.3738,0.056-0.5046-0.0562 c-0.1121-0.1027-0.1214-0.2802-0.1308-0.439c-0.0093-1.1024,2.728-12.2571,4.2975-15.9848 c0.3176-0.738,0.2429-1.6536,0.6913-2.3356c0.2617-0.4016,0.6446-0.6913,1.0745-0.8968c0.6259-0.3083,1.3639-0.4485,2.0084-0.5512 c1.4108-0.2336,2.8402-0.3923,4.2602-0.2242c1.2613,0.1588,2.5224,0.6073,3.4753,1.43869 c0.1215,0.09351,0.2336,0.19621,0.3364,0.30831c1.0276,1.05569,1.5322,2.5131,1.8964,3.9425 c1.0277,4.0639,1.2146,8.2773,1.3454,12.472c0,0.0093,0,0.0093,0,0.0093C80.6553,59.18031,80.6553,60.03041,80.1602,60.6189z"/></g><g id="change3_1"><path fill="#ffdbbb" d="M64.3972,55.3814c-0.0874-0.392-0.1675-0.7857-0.2519-1.17841 c-0.2542-1.18319-0.3351-2.36519-1.5971-4.07339c-0.2207-0.2987-0.5136-0.5368-0.7704-0.8051 c-0.5136-0.5369-1.0272-1.0736-1.5408-1.6104c-1.8561-1.9399-3.7122-3.8797-5.5682-5.8196 c-0.0309-0.0323-0.0617-0.0646-0.0927-0.0969c-0.0001-0.0001-0.0001-0.0002-0.0002-0.0002 c-0.3446-0.3906-0.6361-0.7073-0.8878-0.9649c-0.4317-0.5893-1.2432-1.5581-1.5694-1.7814 c-0.1991-0.1362-0.4256-0.2539-0.6667-0.2498c-0.736,0.0124-0.5205,0.6881-0.2315,1.207c-0.5245-0.0109-1.0497-0.0156-1.5729-0.0439 c-0.0624-0.0018-0.1344,0.0059-0.2031,0.0093c-0.3635-0.0163-0.7274-0.0205-1.0905,0.0029 c-0.323,0.021-0.5273,0.10239-0.6608,0.2025c-0.1701,0.0174-0.34,0.0375-0.5081,0.0634c-0.1897,0.0293-0.4235,0.1081-0.4396,0.29949 c-0.0019,0.02311,0.0162,0.04111,0.0212,0.06291c-0.0385,0.0058-0.0778,0.0037-0.1161,0.0103 c-0.2171,0.0374-0.4727,0.1267-0.5171,0.3426c-0.0313,0.1516,0.0656,0.3061,0.1947,0.3916 c0.1291,0.0855,0.2851,0.1173,0.4363,0.1507c0.824,0.1815,1.6153,0.4751,2.3766,0.836c0.4194,0.4345,0.9335,0.7681,1.444,1.0951 c0.3345,0.2142,0.6655,0.44279,0.9633,0.7042c0.0392,0.2997,0.0923,0.5979,0.1542,0.8893c0.5743,2.707,1.3074,5.4097,2.6088,7.8519 c1.3015,2.4422,3.2177,4.626,5.6992,5.8508c1.0816,0.5338,2.4449,0.8552,3.4447,0.1803 C64.528,58.18381,64.6789,56.64441,64.3972,55.3814z"/></g><g id="change1_2"><path fill="#f9f9f9" d="M60.7872,48.99041c0.0578,0.3689,0.1698,0.7419,0.2462,1.0533c0.3046,1.2402,0.6116,2.4814,1.0054,3.6969 c0.1957,0.6036,0.4088,1.2043,0.6615,1.7866c0.1766,0.4072,0.3469,0.9455,0.5696,1.31579 c0.142,0.23581,0.4321,0.40681,0.6939,0.32141c0.2748-0.0896,0.399-0.4013,0.4821-0.678 c1.4528-4.8399,0.9338-10.0976,2.3392-14.9514c0.24049-0.83039-1.1565,0.48461-1.3231,0.6594 c-0.5498,0.5765-1.0114,1.2266-1.5305,1.8293c-0.7674,0.8911-1.5039,1.8087-2.2075,2.7509 c-0.304,0.4072-0.8042,0.8985-0.9294,1.3883C60.7302,48.41531,60.742,48.70151,60.7872,48.99041z"/></g><g id="change4_1"><path fill="#809bd8" d="M70.5829,46.56111c-0.0487-0.1944-0.1212-0.3815-0.1831-0.57211 c-0.0518-0.501-0.2001-0.98969-0.4431-1.41279c-0.0136-0.0236-0.0307-0.04921-0.0555-0.052 c-0.022-0.0025-0.0302,0.0193-0.038,0.0402c-0.0068-0.013-0.0117-0.0277-0.0187-0.0405c0.0359-0.2284,0.02261-0.4755-0.1278-0.47591 c-0.0785-0.00019-0.2155,0.153-0.307,0.32891c-0.1187,0.0884-0.2436,0.2498-0.2956,0.305 c-0.6372,0.6747-1.1703,1.4557-1.5254,2.3152c-0.1945,0.4706-0.3346,0.9641-0.4071,1.4685 c-0.01991,0.138-0.0343,0.282,0.0097,0.4143c0.0441,0.1324,0.1622,0.2499,0.3016,0.2498c0.17841-0.7266,0.36311-1.459,0.6385-2.1522 c0.0391,0.1448,0.1041,0.2829,0.2275,0.3267c0.157,0.0556,0.3198-0.0577,0.44379-0.1805 c0.24561-0.2435,0.4298-0.5555,0.56441-0.89271c0.04179,0.24921,0.1084,0.49111,0.23499,0.69961 c0.11131,0.1832,0.29391,0.3519,0.4855,0.3027c0.0366-0.0094,0.0661-0.0362,0.0975-0.059 c0.02071,0.6143,0.0177,1.2296,0.0527,1.8434c0.0078,0.1365,0.0516,0.31029,0.1874,0.3251 c0.1374,0.0147,0.2171-0.1497,0.2476-0.2846C70.8584,48.23831,70.7874,47.37651,70.5829,46.56111z M68.5712,46.65771 c-0.064-0.04971-0.0598-0.1572-0.0449-0.2438c0.0332-0.1922,0.1048-0.3714,0.174-0.5506c0.21339-0.3401,0.4425-0.6704,0.6618-1.0067 c0.0031-0.0047,0.0126-0.0175,0.017-0.0238c0.01051,0.0103,0.0261,0.0125,0.0381,0.0209 c-0.0008,0.0145-0.0043,0.0287-0.00529,0.04329c-0.0611,0.14991-0.0812,0.36081-0.0882,0.549 c-0.0984,0.40291-0.2662,0.78421-0.5042,1.103C68.7563,46.63361,68.6518,46.72021,68.5712,46.65771z M69.7982,46.47091 c-0.0876,0.0023-0.1323-0.1161-0.151-0.213c-0.0462-0.2401-0.0728-0.4846-0.0888-0.7298c0.0276-0.2051,0.0323-0.4124,0.0155-0.6192 c0.0442,0.0024,0.0892,0.0061,0.1305-0.0094c0.0224-0.0083,0.0465-0.0514,0.0694-0.1067c0.0952,0.234,0.1647,0.4761,0.2221,0.7215 c0.0094,0.2526-0.00481,0.5069-0.0541,0.7536C69.9235,46.35931,69.881,46.46891,69.7982,46.47091z M33.9262,56.33041 c-0.1683,1.2875-0.863,2.437-1.5422,3.54359c-0.0849,0.13831-0.1912,0.2911-0.3523,0.31071 c-0.1964,0.0239-0.3488-0.1599-0.4599-0.3235c-0.5232-0.7707-1.0599-1.5747-1.2042-2.495 c-0.0827-0.5278-0.0311-1.06621,0.0209-1.598c0.0981-1.0053,0.1963-2.0104,0.2944-3.0156c0.1718-1.7593,0.3435-3.5183,0.5152-5.2775 c0.0225-0.2302,0.0102-0.611,0.0742-0.9394c-0.0879-0.0652-0.171-0.1373-0.2417-0.2198c-0.1609-0.1876-0.4678-0.8575-0.4678-0.8575 s0.792-0.8557,0.9849-1.0145c0.4459-0.3673,0.2252,0.0062,0.6712-0.3611c0.0461-0.038,0.1085-0.078,0.1609-0.0493 c0.0278,0.0151,0.0429,0.0456,0.0564,0.0742c0.1405,0.2982,0.0034,0.3831,0.1439,0.68129c0.0653,0.1386,0.4101,0.4481,0.4179,0.6012 c0.0109,0.2141-0.0946,0.4619-0.1962,0.65079c-0.0732,0.13581-0.1556,0.2676-0.2541,0.3852 c0.1287,0.2365,0.2148,0.5025,0.2582,0.6899c0.5332,2.29889,0.7938,4.651,1.0533,6.9966 C33.9407,54.8497,34.0223,55.59521,33.9262,56.33041z M82.0099,46.32511c-0.14011-1.3266-0.5045-2.6906-1.39191-3.6902 c-0.7819-0.8641-1.97739-1.2432-3.1123-1.2957c-0.3438-0.0159-0.708,0.077-0.9478,0.324c-0.1565,0.1612-0.2479,0.3732-0.3354,0.5803 c-0.8647,2.0444-1.6946,4.1151-2.8399,6.0166c-0.443,0.7354-0.9381,1.4502-1.5755,2.0254c-0.6374,0.5752-1.4308,1.0058-2.285,1.0919 c-0.8542,0.086-1.7668-0.2082-2.3185-0.866c-0.6177-0.7363-0.702-1.7728-0.7002-2.7339c0.0028-1.5542,0.1581-3.1079,0.4617-4.632 c0.0891-0.44751,0.547-1.4389,0.39169-1.8854c-0.17699-0.509-0.9601,0.4006-1.1261,0.6554 c-0.44839,0.682-4.6009,13.9414-4.9888,18.3204c0.0094,0.1588,0.0187,0.3363,0.1308,0.439c0.1308,0.1122,0.327,0.0935,0.5046,0.0562 c1.7376-0.3177,3.5126-0.4672,5.2784-0.43911c1.719,0.0279,3.3725,0.355,5.0822,0.5605c0.7473,0.0934,1.4854,0.17749,2.2328,0.2616 c0.2802,0.0093,0.56049,0.0186,0.8408,0.0186c1.8872-0.0093,3.9517-0.5699,4.9981-2.1394c0.1215-0.1868,0.2242-0.3737,0.3177-0.5792 c0.3363-0.7473,0.4671-1.5695,0.5885-2.3636c0.14021-0.88751,0-1.7471,0.18681-2.6159 C81.9072,51.09911,82.2715,48.70741,82.0099,46.32511z"/></g><g id="change4_2"><path fill="#809bd8" d="M35.1547,71.89911c1.3648,0.53989,2.9716,1.8074,4.4363,1.7131c8.5287-0.549,10.8584-1.4236,22.5734,1.2183 c0.3487,0.0787,0.7632-0.8836,0.1533-1.4976c-0.8568-0.8627-1.5392-1.8234-2.6399-2.33971 c-2.9868-1.4013-6.0123-2.8154-9.2525-3.43629c-4.4876-0.85991-9.1043-0.1511-13.6711-0.0024 c-2.8846,0.0939-5.8179-0.0361-8.6501,0.6188c-0.4706,0.1088-2.9728,0.4985-2.2298,1.5561 c1.3791,0.28799,3.8064,0.59309,4.5171,0.7417C32.0159,70.81081,33.6114,71.2886,35.1547,71.89911z"/></g><g id="change1_5"><path fill="#f9f9f9" d="M63.7771,65.89361c-0.0196-0.6297-0.0675-1.2929-0.4163-1.8175c-0.3969-0.5969-1.1049-0.8986-1.7863-1.1213 c-1.7435-0.5695-3.5865-0.7654-5.4197-0.7573c-2.4629,0.0108-4.4411,0.3022-6.1009,0.7909 c-2.5732-2.1931-5.908-2.6523-7.491-2.5646c-2.8145,0.1561-5.4503,1.39-7.9223,2.7446c-3.0863,1.6912-6.0497,3.6067-8.8593,5.726 c-0.1088,0.0822-0.0579,0.2579,0.078,0.26849c3.599,0.2804,7.2876,0.6371,10.4742,2.3168c0.837,0.4412,2.2509,1.1758,3.2748,1.1948 c0.0045,0.0005,0.0089,0.0026,0.0134,0.003c0.0221,0.0019,0.0437-0.0057,0.0657-0.0051c0.0724-0.0015,0.1486,0.0038,0.2162-0.00591 c0.0212-0.003,0.0356-0.0112,0.0554-0.0153c0.1641-0.028,0.3267-0.0703,0.4861-0.11971 c4.2633-1.3192,8.8692-1.51389,13.2285-0.5588c2.4484,0.53661,8.4481,2.7113,8.9579,2.3457 C63.0213,74.0389,63.8514,68.29011,63.7771,65.89361z"/></g><g id="change3_2"><path fill="#ffdbbb" d="M46.6147,55.48321c-0.1015-0.7029-0.4346-1.3941-1.008-1.8133c-0.8942-0.6534-2.1367-0.5174-3.1943-0.1888 c-1.5162,0.4712-5.7893,3.9345-8.5845,6.298c-0.3897-0.0813-0.7735-0.0986-1.1711-0.2169 c-1.2213-0.3637-2.4407-0.7329-3.6611-1.0993c-2.4406-0.73291-4.8813-1.4658-7.3219-2.1987 c-0.9765-0.2931-1.9626-0.58821-2.9795-0.6604c-1.0168-0.0721-2.0816,0.0964-2.9276,0.6651 c-0.7937,0.5335-1.5491,1.6286-1.2127,2.6095c0.3438,1.0025,0.7855,1.9424,1.5345,2.7111c1.584,1.6258,4.014,1.9526,6.1763,1.9734 c1.2907,0.0124,3.523,0.0389,5.6412,0.0709c-0.3454,0.452-0.623,0.9778-0.8793,1.4841c-0.1725,0.3407-0.3311,0.7941-0.0641,1.0672 c0.2264,0.2313,0.6298,0.1593,0.8857-0.0389c0.0692-0.0535,0.122-0.1241,0.1808-0.18829 c-0.0473,0.0907-0.089,0.18349-0.1092,0.28339c-0.0335,0.16541-0.0036,0.3534,0.118,0.4705 c0.1198,0.115,0.3049,0.1388,0.4669,0.1022c0.1157-0.0263,0.2213-0.0813,0.3245-0.1411c0.2778,0.3606,0.8233,0.4065,1.2519,0.1715 c0.8269-0.45341,1.591-0.4463,2.489-0.6554c0.5654-0.1317,1.0796-0.43,1.5048-0.8248c3.1344-1.197,6.2931-2.4188,9.0744-4.2933 c0.9598-0.64691,1.8822-1.38191,2.5545-2.324C46.3762,57.80461,46.7805,56.62881,46.6147,55.48321z"/></g><g id="change3_3"><path fill="#ffdbbb" d="M84.507,60.34241c-0.20251-0.9035-1.0669-1.2076-1.8503-1.558c-1.8504-0.8276-3.977-0.85141-5.9635-1.0058 c-3.2571-0.2533-6.5368-0.1828-9.7835,0.1816c-0.5605-0.0897-1.2395,0.0798-1.7175,0.1646 c-0.9912,0.1757-1.9667,0.43919-2.912,0.7854c-1.0934,0.4005-2.1464,0.91179-3.1354,1.5269 c-0.1851,0.1151-0.3711,0.24889-0.5078,0.4143c-0.244,0.208-0.4644,0.4424-0.6326,0.7154c-0.205,0.3329-0.3446,0.7055-0.415,1.1129 c-0.0473,0.2802-0.1036,0.7686,0.2647,0.8548c0.2354,0.055,0.4356-0.1634,0.5907-0.3488c0.2185-0.2615,0.4677-0.4944,0.732-0.7094 c0.0103,0.0086,0.0207,0.0178,0.0311,0.0263c-0.1924,0.2931-0.3732,0.5938-0.5344,0.9055 c-0.1187,0.2293-0.2182,0.5379-0.0353,0.7202c0.1881,0.1876,0.5058,0.0748,0.7369-0.056c0.3717-0.2104,0.7288-0.4446,1.0822-0.6844 c0.035,0.0201,0.0672,0.046,0.1025,0.0652c-0.0918,0.2386-0.1449,0.4968-0.1703,0.7505c-0.0172,0.1726-0.0235,0.3528,0.042,0.5134 c0.0657,0.1605,0.2211,0.2961,0.3944,0.2872c0.1928-0.00999,0.3307-0.1805,0.4633-0.3208c0.4759-0.5032,1.1623-0.7305,1.7997-1.0014 c0.7269-0.30909,1.6781-1.02869,2.1312-1.39779c1.9438,0.3326,3.8608,0.8225,5.722,1.4739c1.43,0.5003,2.8288,1.0928,4.2828,1.5181 c0.7028,0.2057,1.4232,0.3717,2.1495,0.4667c0.77641,0.1015,1.55991,0.1215,2.33611,0.0217 c1.50259-0.1934,2.9822-0.87569,3.92229-2.0637C84.3475,62.79771,84.7643,61.49021,84.507,60.34241z"/></g><g id="change1_6"><path fill="#f9f9f9" d="M83.9524,47.51381c0.4615,1.2221,0.8176,2.4835,1.0779,3.7634c0.4002,1.9675,0.5764,3.9816,0.5312,5.9886 c-0.0433,1.9203-0.1506,3.9985-1.134,5.6984c-0.0838,0.14479-0.1832,0.2956-0.339,0.3563 c-0.2107,0.0822-0.4434-0.0272-0.6416-0.1364c-1.4131-0.7794-2.7527-1.6917-3.997-2.7193 c-0.576-0.4756-2.7501-2.3072-2.9824-3.0189c-0.1529-0.4684-0.0984-0.976-0.0424-1.4656c0.4757-4.156,1.0832-8.3121,3.1993-11.9937 c0.2038-0.3545,0.4542-0.7312,0.8479-0.8412c0.37431-0.1045,0.7818,0.073,1.0549,0.3495c0.2747,0.2784,0.4221,0.6507,0.6522,0.9586 c0.2439,0.3263,0.46941,0.6521,0.6808,1.0062C83.2527,46.117,83.6808,46.79461,83.9524,47.51381z"/></g><g id="change1_3"><path fill="#f9f9f9" d="M26.5221,41.56731c0,0,0.266,9.1054-0.4358,10.62569c-0.2728,0.59121-0.6373,1.1356-0.9031,1.73021 c-0.1657,0.3702-0.1714,0.8436-0.3664,1.1882c-0.2422,0.4279-0.9018,0.6621-1.3112,0.891c-0.5473,0.3061-1.1015,0.6-1.6617,0.8814 c-2.2902,1.1504-4.6843,2.0936-7.1442,2.8126c-0.1385,0.0404-0.2895,0.0798-0.4234,0.0264 c-0.2415-0.0963-0.2807-0.4169-0.2733-0.6767c0.0904-3.1342,1.2427-6.1251,2.6056-8.8869 C19.6019,44.09341,24.1813,40.33551,26.5221,41.56731z M36.2182,42.086c-0.2274,0.90751-1.2814,6.14071-1.041,7.07581 c0.4765,1.8533,1.1176,3.6868,2.1624,5.3021c0.252,0.3899,0.5429,0.7796,0.9584,0.9866c0.4211,0.2099,0.9128,0.2043,1.3832,0.1943 c2.0516-0.044,4.4691,0.0477,6.5208,0.0037c0.3245-0.0069,0.7152-0.0546,0.8522-0.3487c0.0731-0.1567,0.0476-0.3395,0.0182-0.51 c-0.2933-1.6991-1.7106-6.2699-4.6233-9.9904c-0.8477-1.0828-1.7939-2.155-3.0578-2.6966 C37.8582,41.446,36.6944,40.18531,36.2182,42.086z"/></g><g id="change5_1"><path fill="#5f6277" d="M43.449,30.93131c-0.1268,1.2985-0.6956,2.54969-1.5906,3.4989c-0.261,0.27679-0.6117,0.5471-0.9841,0.4701 c-0.2713-0.0561-0.477-0.2917-0.5745-0.5509c-0.0974-0.2591-0.1052-0.5421-0.1118-0.819c-0.0145-0.6079-0.029-1.216-0.0435-1.824 c-0.025-1.0485-0.0438-2.1323,0.3552-3.1022c0.3186-0.7746,1.3961-2.1608,2.1962-1.163 C43.4059,28.32631,43.5542,29.85341,43.449,30.93131z"/></g><g id="change5_2"><path fill="#5f6277" d="M31.9749,44.01c0.0282,0.02781,0.0287,0.07341,0.0004,0.10221l-2.1604,2.1957 c-0.0141,0.01409-0.0324,0.0216-0.0513,0.0216c-0.0018,0-0.0033-0.002-0.0051-0.0021c-0.0097,0.0047-0.0161,0.0158-0.0269,0.0158 c-0.0122,0-0.024-0.0033-0.0352-0.0094c-0.9024-0.5046-1.7195-1.1423-2.4288-1.8964c-0.0273-0.0292-0.0258-0.0749,0.0033-0.1021 c0.0278-0.02731,0.0749-0.0259,0.1021,0.0033c0.6897,0.7328,1.4845,1.3523,2.3601,1.8466l2.1396-2.1747 C31.9005,43.98271,31.9462,43.98131,31.9749,44.01z M34.6964,45.20461c-0.3203,0.2897-0.6703,0.5502-1.0389,0.7785l-1.4558-1.6662 c-0.0259-0.0306-0.0715-0.0325-0.1021-0.007c-0.0301,0.0263-0.0329,0.072-0.0071,0.10209l1.4817,1.69581 c0.0024,0.0027,0.0062,0.0018,0.0089,0.0041c0.0009,0.0019-0.0024,0.0035-0.0013,0.0053c0.0136,0.0222,0.0372,0.0349,0.0616,0.0349 c0.0127,0,0.0259-0.0038,0.0377-0.0108c0.3958-0.2405,0.77-0.5197,1.1122-0.82931c0.0296-0.02689,0.032-0.07259,0.0052-0.1022 C34.7712,45.17921,34.7255,45.17781,34.6964,45.20461z M74.9982,43.95681c-0.0302-0.0235-0.0772-0.0164-0.1007,0.0156 c-0.4745,0.64859-1.012,1.3838-1.7425,1.8309c-0.659,0.4034-1.6399,0.5823-2.3468,0.07769 c-0.5764-0.41179-0.8091-1.15939-0.974-1.8532c0.006-0.0064,0.0106-0.0143,0.0166-0.0206 c0.0273-0.02921,0.0264-0.0748-0.0028-0.1026c-0.0147-0.014-0.0342,0.0003-0.0537,0.0015 c-0.0143-0.0313-0.0439-0.0555-0.07619-0.0481c-0.03951,0.0089-0.0631,0.048-0.0546,0.08661 c0.0037,0.0161,0.0089,0.0329,0.0126,0.0491c-0.1081,0.1241-0.21111,0.2529-0.3063,0.3816 c-0.2052,0.2772-0.39819,0.5394-0.68629,0.7239c-0.34731,0.2212-0.8745,0.2994-1.2133,0.01979 c-0.3229-0.26549-0.3757-0.74939-0.386-1.141c-0.0009-0.039-0.033-0.07059-0.07249-0.07059c-0.00101,0-0.00101,0-0.0019,0 c-0.03951,0.0014-0.0715,0.0344-0.0706,0.0744c0.0113,0.42219,0.0706,0.9461,0.4387,1.24919 c0.1855,0.15251,0.4076,0.21461,0.6316,0.21461c0.2711,0,0.5441-0.0918,0.7512-0.225c0.31071-0.19861,0.52151-0.4838,0.72491-0.7597 c0.07349-0.0993,0.15569-0.1953,0.2356-0.2926c0.1708,0.689,0.4178,1.4116,1.0022,1.8304 c0.33141,0.2367,0.71741,0.3346,1.1043,0.3346c0.5027,0,1.0082-0.1652,1.4026-0.4067c0.755-0.4617,1.3019-1.2091,1.7839-1.86861 C75.0377,44.02561,75.0311,43.98041,74.9982,43.95681z"/></g><g id="change5_3"><path fill="#5f6277" d="M41.8464,26.35681c-0.63,2.1416-2.8147,2.9097-4.4956,4.0517c-1.8968,1.2889-3.6925,2.727-5.3648,4.2963 c-0.9931,0.9319-2.0212,1.8217-3.0129,2.7395c-1.0699,0.99-1.6824,2.3717-2.7206,3.39869 c-0.9712,0.96081-2.4251,1.14211-3.6905,0.665c-1.2422-0.46849-2.2204-1.45679-3.0041-2.52849 c-1.385-1.8943-2.1277-4.0009-2.5673-6.2834c-0.3875-2.0115-0.6855-4.0506-0.1338-6.0703 c0.3777-1.3829,1.1873-2.6963,2.3562-3.54581c0.5261-0.38229,1.1078-0.62889,1.6207-1.021 c0.6542-0.50029,1.3433-0.93589,2.0701-1.328c3.0031-1.62059,6.4658-2.46649,9.88-2.129 c3.2246,0.31871,6.842,1.68591,8.5489,4.61221c0.0406,0.0695,0.0796,0.1401,0.117,0.21179 C41.9196,24.32641,42.1317,25.38691,41.8464,26.35681z M60.6797,30.03391c-0.1228,2.7057,0.5511,5.3819,1.3378,7.9737 c0.348,1.1465,0.7113,2.42439,0.1826,3.4996c-0.1965,0.3997-0.5103,0.87-0.2613,1.2393c0.1106,0.164,0.3059,0.247,0.4942,0.3083 c1.1126,0.3627,2.327,0.2629,3.4666-0.0031c0.9267-0.2161,1.8345-0.523,2.74181-0.8076c0.3106-0.0975,0.5936-0.2656,0.9123-0.32411 c0.475-0.08719,1.00259-0.05879,1.4851-0.08419c2.0237-0.1063,4.0514-0.1806,6.0779-0.1151 c0.6314,0.0205,1.2726,0.05629,1.8692,0.2641c0.5966,0.208,1.152,0.61219,1.4052,1.1911c0.1407,0.3219,0.1857,0.6878,0.3835,0.97809 c0.3527,0.51791,1.11411,0.66031,1.6958,0.42731c2.8704-1.1491,3.5266-8.0468,3.6428-10.7583 c0.1351-3.155-0.46059-6.339-1.7272-9.23179c-0.5718-1.3057-1.3142-2.5938-2.472-3.4251c-0.7621-0.5475-1.6609-0.8657-2.5461-1.1769 c-1.0264-0.3609-2.11909-0.8918-3.1897-1.03021c-1.0208-0.13209-2.1034-0.12559-3.1295-0.04169 c-2.1173,0.1734-4.1931,0.7788-6.0983,1.7126c-1.1852,0.5809-2.2366,1.3326-3.124,2.2222 C61.9502,24.73291,60.8068,27.23021,60.6797,30.03391z"/></g><g id="change3_4"><path fill="#ffdbbb" d="M42.4359,33.37671c-0.0281,0.1682-0.0468,0.3363-0.0748,0.5045c-0.0654,0.5791-0.2709,2.1114-0.6633,3.7089 c-0.1962,0.8221-0.4391,1.66289-0.7474,2.3917c-0.2242,0.5698-0.4951,1.0743-0.7941,1.4666 c-1.0931,1.4201-2.4851,2.66259-4.176,3.1858c-2.4196,0.7381-5.0356,0.4204-7.4552-0.2803 c-2.0179-0.5698-4.0079-1.4388-5.5307-2.8774c-0.9996-0.9529-1.7377-2.1114-2.3729-3.3259 c-0.4671-0.8781-1.0277-1.4761-1.2238-2.4663c-0.1962-1.0651-0.3831-2.1208-0.3925-3.1951c-0.0187-1.3266,0.243-2.6719,0.953-3.793 c1.2892-2.018,3.7836-2.8681,6.0912-3.5501c2.7186-0.8035,5.5213-1.5602,8.3614-1.5134c2.3636,0.03729,4.8112,0.6819,6.689,2.1767 C43.1552,27.43491,42.7441,31.02241,42.4359,33.37671z M83.5047,30.37781c-0.9715-2.0086-3.167-3.0643-5.2224-3.9424 c-2.4197-1.037-4.9046-2.0368-7.5392-2.3076c-2.1768-0.2336-4.49371,0.0934-6.39021,1.2706 c-2.074,1.2705-2.0833,4.6244-2.0554,6.8199v0.4764c0.0094,0.5886,0.1309,2.32629,0.3831,4.0079 c0.1028,0.6446,0.2149,1.2892,0.3644,1.8497c0.1308,0.5326,0.2803,0.9996,0.4578,1.3453c0.7473,1.4855,1.9993,2.728,3.5033,3.3913 c2.1394,0.9529,4.5777,0.9436,6.8853,0.5699c1.9246-0.3083,3.8584-0.8875,5.41859-2.0554c1.0183-0.7567,1.8311-1.7469,2.5504-2.7933 c0.5231-0.76611,1.1025-1.2519,1.39201-2.1394c0.299-0.953,0.5886-1.9058,0.7101-2.8962 C84.1214,32.76,84.0372,31.48021,83.5047,30.37781z"/></g><g id="change5_4"><path fill="#5f6277" d="M91.2582,76.548H4.42796c-0.04001,0-0.07249-0.03239-0.07249-0.07249 c0-0.03999,0.03248-0.0724,0.07249-0.0724H91.2582c0.0396,0,0.0725,0.0324,0.0725,0.0724 C91.3307,76.5156,91.2978,76.548,91.2582,76.548z M39.1626,71.8271c3.227-3.1996,6.8046-6.0609,10.6336-8.5051 c0.0339-0.02119,0.0442-0.06589,0.0226-0.09979c-0.0226-0.0344-0.0688-0.0443-0.0998-0.0217 c-3.8379,2.449-7.424,5.3173-10.6581,8.524c-0.0282,0.02831-0.0287,0.07391-0.0004,0.1022 c0.0141,0.0141,0.0324,0.0216,0.0513,0.0216C39.1301,71.8483,39.1485,71.8412,39.1626,71.8271z M22.815,56.12151 c0.2965-1.4647,0.5615-3.033,0.818-4.55c0.2561-1.5156,0.5211-3.083,0.8176-4.5449c0.0075-0.0395-0.0174-0.07761-0.0565-0.08561 c-0.0414-0.0048-0.0776,0.0178-0.0856,0.0564c-0.2966,1.4648-0.5616,3.0331-0.8181,4.5501c-0.256,1.5156-0.521,3.0829-0.8175,4.5449 c-0.0076,0.0395,0.0174,0.07759,0.0564,0.08559c0.0052,0.001,0.0099,0.0014,0.0146,0.0014 C22.7778,56.17941,22.8079,56.15541,22.815,56.12151z M38.8741,55.53551c-0.001-3.0043-0.2038-6.035-0.603-9.0083 c-0.0051-0.04-0.0437-0.0649-0.0809-0.0621c-0.04,0.0052-0.0678,0.0414-0.0621,0.081c0.3981,2.9671,0.6001,5.9917,0.601,8.9894 c0,0.04,0.0325,0.07249,0.0725,0.07249C38.8416,55.608,38.8741,55.5755,38.8741,55.53551z M38.2489,35.79551 c-0.7747-0.2683-1.282,0.9563-0.4954,1.28149C38.5808,37.41911,39.0519,36.07371,38.2489,35.79551z M30.7087,36.3632 c-0.1794,0.2177-0.19,0.5578-0.0245,0.7864c0.1133,0.1565,0.3015,0.2574,0.4947,0.261c0.2836,0.00539,0.5528-0.2084,0.6243-0.4828 C31.9753,36.268,31.1445,35.83441,30.7087,36.3632z M30.592,33.61281c0.3158-0.1314,0.6067-0.2081,0.9979-0.1511 c0.2739,0.0409,0.5078-0.1455,0.5459-0.4086c0.0377-0.2636-0.1449-0.5078-0.4085-0.546c-0.6481-0.0927-1.1249,0.057-1.5062,0.2161 c-0.2457,0.1021-0.3619,0.3845-0.2593,0.6302c0.0772,0.185,0.256,0.2965,0.4448,0.2965 C30.4687,33.64991,30.5313,33.63821,30.592,33.61281z M39.4342,33.32381c0.1153-0.2401,0.0136-0.5277-0.2264-0.6425 c-0.4952-0.2382-1.0647-0.3149-1.6078-0.2156c-0.2617,0.0476-0.4354,0.2984-0.3874,0.5606 c0.0475,0.26169,0.3003,0.43869,0.5606,0.3874c0.3417-0.06171,0.7041-0.01371,1.0185,0.1369 c0.0668,0.032,0.1379,0.0471,0.2076,0.0471C39.1791,33.59771,39.3518,33.497,39.4342,33.32381z M66.1826,36.15721 c0.75999-0.21321,0.4274-1.3967-0.31561-1.2346C65.0969,35.09071,65.3831,36.38131,66.1826,36.15721z M71.6785,36.673 c0.0358,0.2606,0.2601,0.487,0.5219,0.51321c0.1783,0.01779,0.3625-0.0544,0.4842-0.1861c0.1774-0.1923,0.205-0.5066,0.0637-0.7268 C72.405,35.73851,71.5924,36.04661,71.6785,36.673z M73.9053,33.25461c0.11481-0.2401,0.01311-0.5277-0.2269-0.643 c-0.3502-0.1675-0.786-0.3323-1.4026-0.2763c-0.2646,0.024-0.4604,0.258-0.43681,0.5234c0.02351,0.266,0.2607,0.4627,0.5234,0.4368 c0.3549-0.032,0.609,0.0466,0.8999,0.1859c0.0668,0.032,0.1374,0.0471,0.208,0.0471 C73.6501,33.52851,73.8224,33.42781,73.9053,33.25461z M65.6251,32.82861c0.2984-0.1012,0.6288-0.1073,0.931-0.01361 c0.2513,0.07811,0.5234-0.06449,0.6024-0.31779c0.0791-0.2546-0.064-0.5243-0.3181-0.6029 c-0.4933-0.1525-1.0336-0.1454-1.526,0.0221c-0.2523,0.0857-0.3869,0.3592-0.3012,0.6114c0.0687,0.2006,0.256,0.3267,0.4566,0.3267 C65.5215,32.85451,65.5733,32.84651,65.6251,32.82861z"/></g><g id="change1_4"><path fill="#f9f9f9" d="M36.2874,38.80061c0.0007,0.0068-0.0045,0.0209-0.0105,0.0283c-0.0032,0.0342-0.0204,0.0632-0.0369,0.0989 c-0.0053,0.0141-0.0099,0.035-0.0219,0.0498c-0.277,0.0092-0.5541,0.0183-0.8318,0.0208c-0.3716,0.0126-0.7366,0.0243-1.1088,0.0301 c-0.318,0.0069-0.636,0.0136-0.9599,0.0278c-0.0745,0.0011-0.155,0.0097-0.2496,0.0131c-0.0074-0.006-0.0081-0.0127-0.0155-0.0187 c-0.0089-0.0194-0.0252-0.0448-0.0414-0.0702c0,0,0,0-0.0007-0.0067c-0.0375-0.0977-0.0758-0.2022-0.0777-0.2833 c0.0104-0.1571,0.2651-0.1843,0.3978-0.2119c0.8695-0.1131,1.749-0.1323,2.6197-0.0421c0.1162,0.008,0.2598,0.0198,0.3196,0.13549 C36.2978,38.64361,36.2996,38.72481,36.2874,38.80061z M69.8029,38.25431c-0.1807-0.2192-0.6686-0.0981-0.90601-0.0806 c-0.2323,0.0026-0.4469-0.0218-0.6712-0.09071c-0.1454-0.03359-0.3224-0.11929-0.4735-0.0887 c-0.1608,0.0355-0.2317,0.193-0.2504,0.3434c-0.0082,0.0716,0.0012,0.1409,0.0203,0.20529 c0.0525,0.18341,0.2018,0.32571,0.3612,0.43841c0.3264,0.228,0.73,0.3753,1.121,0.3199c0.3736-0.0531,0.737-0.3164,0.832-0.6884 c0.0125-0.0123,0.01019-0.0296,0.0153-0.0444C69.8724,38.46,69.8711,38.34391,69.8029,38.25431z"/></g><g id="change5_5"><path fill="#5f6277" d="M67.8223,30.24c-1.4901,0.50671-3.0634,0.89341-4.6275,0.718c-0.489-0.05469-1.0291-0.20429-1.271-0.63279 c-0.2087-0.3697-0.128-0.8287-0.0349-1.2428c0.2824-1.2553,0.5796-2.5767,1.0037-3.7835c0.382-1.0871,1.2707-2.1288,2.1129-2.8881 c1.7943-1.6175,4.2012-2.485,6.6145-2.5943c3.2978-0.1494,6.9526,0.9506,9.2949,3.3411c0.3899,0.3978,0.71799,0.8509,1.0446,1.3022 c0.6559,0.9061,1.3118,1.8123,1.9676,2.7185c0.7455,1.03,1.4925,2.10269,1.407,3.4144c-0.048,0.7379-0.0103,1.4694-0.0989,2.209 c-0.0932,0.7775-0.2397,1.5481-0.4168,2.3105c-0.1525,0.6565-0.31,1.3254-0.6589,1.9019c-0.3488,0.5767-0.9276,1.056-1.5994,1.1094 c-0.4198,0.0332-0.86259-0.1158-1.1365-0.4357c-0.4747-0.5547-0.3092-1.1095-0.3494-1.7621 c-0.04121-0.6694-0.2923-1.3285-0.72131-1.8455c-0.5325-0.6418-1.30109-1.0557-1.82529-1.7044 c-0.4838-0.5986-0.72421-1.3523-0.94981-2.0881c-0.18449-0.6012-0.35149-1.3514-0.75819-1.8486 c-0.2674-0.3268-0.7332-0.8984-1.1884-0.8808c-0.45821,0.01769-0.7314,0.4971-0.9626,0.8929 c-0.65051,1.1133-1.65511,2.016-2.8313,2.544c-1.1763,0.5281-2.5184,0.679-3.7826,0.4252 c-0.5792-0.1162-1.2386-0.4277-1.30531-1.0147c1.3196,0.1282,2.67931,0.1627,3.9413-0.2434 c1.2621-0.4061,2.4223-1.322,2.82211-2.586c-0.632,0.3856-1.279,0.7466-1.9389,1.0819 C70.363,29.27351,69.1083,29.80271,67.8223,30.24z M29.2334,32.29411c0.8671,0.47089,1.9022,0.5103,2.886,0.4343 c0.2592-0.02,0.5313-0.0521,0.7419-0.20441c0.2108-0.15239,0.328-0.465,0.1833-0.681c1.3985,0.74121,3.0798,0.93131,4.6085,0.52121 c-0.0183-0.2166-0.0367-0.4333-0.055-0.65c1.3536,0.55079,2.8068,0.8557,4.2677,0.8955c0.395,0.0108,0.8092-0.0024,1.1543-0.1949 c0.6089-0.3397,0.8082-1.1116,0.8908-1.8039c0.5217-4.3755-1.4416-8.9635-4.967-11.6071 c-5.4052-4.0532-14.0035-2.9946-18.162,2.3861c-0.3285,0.4252-0.6272,0.8733-0.8942,1.3397 c-1.2206,2.13239-1.8611,4.5611-2.1208,7.00439c-0.175,1.64671-0.2012,3.44041,0.4308,5.00071 c0.3092,0.7631,0.7431,1.1689,1.3249,1.7005c0.565,0.5163,1.0067,1.4271,1.943,1.1614c0.5731-0.1627,0.6322-0.539,0.8319-0.9954 c0.2401-0.5487,0.6253-0.961,1.1311-1.2814c0.613-0.3883,1.3083-0.6376,1.9036-1.0523c1.4284-0.9949,2.0638-2.7596,2.6167-4.4102 C27.7262,30.81851,28.3663,31.82321,29.2334,32.29411z"/></g><g id="change3_5"><path fill="#ffdbbb" d="M21.5378,37.11431c0.6914,0.6228,1.1733,2.5635,0.0533,3.0055c-0.3193,0.126-0.6828,0.0066-0.9831-0.1596 c-0.5837-0.3231-1.0647-0.8284-1.3588-1.4273c-0.1453-0.296-0.2469-0.6232-0.2208-0.952 C19.1227,36.39091,20.8467,36.49171,21.5378,37.11431z M81.1112,37.9719c-0.705,0.4976-1.3619,2.2319-0.379,2.7618 c0.2802,0.1511,0.6279,0.0812,0.9229-0.039c0.5729-0.2335,1.0713-0.6459,1.4078-1.1651 c0.1664-0.25661,0.29591-0.5469,0.30801-0.8525C83.4147,37.57091,81.816,37.47441,81.1112,37.9719z"/></g><g id="change2_2"><path fill="#ffb793" d="M82.5177,38.762c-0.2645,0.07891-0.5092,0.21661-0.7247,0.3904c0.0009,0.0021,0.0047,0.0004,0.0055,0.00259 l0.2212,0.59451c0.0142,0.0371-0.0056,0.0791-0.0423,0.0927c-0.0085,0.0033-0.017,0.0047-0.0254,0.0047 c-0.02921,0-0.0575-0.0183-0.0678-0.0475l-0.2039-0.548c-0.1988,0.184-0.3688,0.3994-0.4852,0.6435 c-0.0122,0.0259-0.0376,0.0414-0.0649,0.0414c-0.01041,0-0.02081-0.00231-0.03111-0.007 c-0.0357-0.0174-0.0518-0.06031-0.0339-0.0965c0.273-0.5752,0.8011-1.0275,1.4111-1.2092 c0.0386-0.0141,0.07909,0.01039,0.0904,0.0485C82.5779,38.71021,82.5563,38.75071,82.5177,38.762z M50.6886,40.174 c-0.0142-0.03759-0.0546-0.05359-0.0932-0.04229c-0.183,0.0688-0.3603,0.151-0.5323,0.243c-0.6643-0.1784-1.355-0.238-2.0056-0.2816 c-0.0014,0-0.0033-0.0005-0.0047-0.0005c-0.0377,0-0.0697,0.0297-0.072,0.0677c-0.0028,0.0396,0.0273,0.0744,0.0673,0.0768 c0.5959,0.04,1.2239,0.1027,1.8321,0.2491c-0.2531,0.1514-0.4951,0.3206-0.7141,0.5187c-0.6925-0.2214-1.4117-0.3632-2.138-0.4205 c-0.0391-0.0061-0.0749,0.0264-0.0777,0.0664c-0.0033,0.0396,0.0264,0.0744,0.0664,0.0777c0.6899,0.0543,1.3725,0.1899,2.0331,0.395 c-0.0916,0.0893-0.1847,0.1772-0.2685,0.2743c-0.0264,0.0301-0.0226,0.0758,0.0075,0.1017 c0.0132,0.0117,0.0301,0.0178,0.0471,0.0178c0.0207,0,0.0405-0.0084,0.0546-0.0254c0.4726-0.5474,1.0797-0.971,1.7556-1.2247 C50.6838,40.25311,50.7027,40.2112,50.6886,40.174z M50.8599,41.94191c0.0179,0.0353,0.0037,0.079-0.032,0.0969 c-0.0103,0.00519-0.0217,0.008-0.033,0.008c-0.0263,0-0.0517-0.0146-0.0649-0.04c-0.2683-0.5309-0.2702-1.1912-0.0047-1.7236 c0.0188-0.0358,0.063-0.048,0.097-0.032c0.0357,0.0174,0.0508,0.0612,0.0329,0.0969C50.6095,40.84,50.6114,41.451,50.8599,41.94191z M61.6742,61.91891c0.0311,0.0245,0.0377,0.0696,0.0132,0.1012c-0.3116,0.4067-0.594,0.8396-0.8416,1.2873 c-0.0132,0.024-0.0376,0.03759-0.0631,0.03759c-0.0122,0-0.0235-0.0033-0.0348-0.0089c-0.0348-0.0193-0.048-0.0636-0.0282-0.0984 c0.2504-0.4542,0.5375-0.8933,0.8528-1.3051C61.597,61.9,61.6422,61.89441,61.6742,61.91891z M60.49,61.0302 c0.0367-0.016,0.079-0.0014,0.096,0.0363c0.016,0.0362,0,0.0791-0.0358,0.09549c-0.4726,0.21281-0.8613,0.58421-1.0938,1.04591 c-0.0132,0.0254-0.0386,0.04-0.065,0.04c-0.0113,0-0.0226-0.0028-0.0329-0.008c-0.0349-0.01791-0.0499-0.0617-0.032-0.097 C59.575,61.65161,59.9882,61.25671,60.49,61.0302z M33.5756,59.8978c0.0302-0.0249,0.0763-0.0235,0.1017,0.0075 c0.0264,0.0301,0.0231,0.0758-0.0075,0.1017c-0.2147,0.18591-0.4166,0.38311-0.6115,0.57371 c-0.5388,0.5262-1.0477,1.02329-1.7894,1.27229c-0.2965,0.0993-0.6063,0.1647-0.9051,0.22871 c-0.3159,0.0669-0.6421,0.1365-0.9489,0.2448c-0.5738,0.2029-1.2958,1.2214-1.3029,1.2313 c-0.0141,0.0202-0.0367,0.0311-0.0593,0.0311c-0.0146,0-0.0291-0.0043-0.0414-0.0132c-0.033-0.0231-0.0405-0.0683-0.0179-0.1008 c0.0306-0.0437,0.7568-1.0665,1.3734-1.28491c0.3154-0.11159,0.6467-0.18169,0.9668-0.24989 c0.2951-0.0627,0.6006-0.1276,0.8891-0.2246c0.7103-0.2381,1.2078-0.7239,1.7345-1.2383 C33.1539,60.28521,33.3572,60.08651,33.5756,59.8978z M29.6252,63.82751c-0.5181,0.6156-0.9959,1.2731-1.42,1.9542 c-0.0136,0.02209-0.0372,0.0344-0.0612,0.0344c-0.0131,0-0.0263-0.0038-0.0381-0.01131c-0.0339-0.0207-0.0443-0.0654-0.0231-0.0993 c0.4274-0.6872,0.9094-1.3504,1.4314-1.9712c0.0258-0.0296,0.072-0.03431,0.1021-0.009 C29.6469,63.75121,29.6506,63.79691,29.6252,63.82751z M30.352,64.55c0.0297,0.0268,0.032,0.0729,0.0052,0.1021 c-0.4985,0.54789-0.9442,1.1484-1.325,1.7848c-0.0136,0.0226-0.0376,0.0353-0.0621,0.0353c-0.0128,0-0.0255-0.0033-0.0372-0.0103 c-0.0344-0.0207-0.0452-0.065-0.0249-0.0994c0.3859-0.64429,0.8373-1.2529,1.3418-1.8073 C30.2772,64.52451,30.3228,64.52311,30.352,64.55z M27.7764,39.16681c-0.0971-0.2349-0.1443-0.494-0.1086-0.7456 c0.0356-0.2513,0.1529-0.4871,0.314-0.683c0.7672-0.9323,2.4937-0.7909,2.9335,0.4009c0.1971,0.5344,0.0625,1.1725-0.3228,1.59189 c-0.3853,0.41951-1.0005,0.60781-1.5578,0.491C28.4772,40.10521,27.9941,39.69321,27.7764,39.16681z M21.3446,39.115 c0.0127,0.03761-0.008,0.07861-0.0456,0.0918c-0.0076,0.0023-0.0156,0.0037-0.0231,0.0037c-0.0301,0-0.0584-0.0193-0.0687-0.0494 c-0.0941-0.2796-0.2504-0.5356-0.4429-0.76L20.472,38.97c-0.0132,0.02491-0.0382,0.03951-0.0645,0.03951 c-0.0113,0-0.0226-0.0028-0.033-0.008c-0.0358-0.0183-0.0494-0.0621-0.0315-0.0974l0.3135-0.6081 c0.002-0.00389,0.0081,0,0.0107-0.0034c-0.2103-0.2167-0.4577-0.39761-0.7342-0.5171c-0.0367-0.016-0.0536-0.05851-0.0376-0.0951 c0.0155-0.0363,0.0588-0.0537,0.0951-0.0377C20.6193,37.91471,21.1257,38.465,21.3446,39.115z M41.6978,37.59011 c-0.1962,0.8221-0.4391,1.66289-0.7474,2.3917c-0.2896,0.1213-0.6073,0.1494-0.9062,0.084 c-0.5606-0.1215-1.0464-0.5326-1.2612-1.0557c-0.0934-0.2429-0.1401-0.49511-0.1122-0.7473 c0.0374-0.2523,0.1589-0.4859,0.3177-0.6821C39.6611,36.75861,41.0718,36.76791,41.6978,37.59011z M35.5202,38.72451 c-0.0053,0.014,0.71,0.2383,0.6979,0.2531c-0.0777,0.2252-0.2528,0.4269-0.4619,0.5646c-0.2673,0.164-0.5767,0.2513-0.8769,0.2969 c-0.214,0.0296-0.4358,0.0465-0.6486,0.0217c-0.1028-0.0094-0.2003-0.0329-0.3052-0.0624c-0.33-0.1072-0.612-0.3348-0.7991-0.6268 c-0.0163-0.0254-0.034-0.0641-0.0584-0.1022c-0.0074-0.006,1.5281-0.5145,1.5206-0.5205 C34.5798,38.52951,35.5367,38.6888,35.5202,38.72451z M75.3227,38.50231c0.0053,0.23569-0.0666,0.4691-0.1819,0.6746 c-0.2582,0.4609-0.7483,0.7873-1.2745,0.8337c-0.526,0.04639-1.0718-0.1946-1.3806-0.6232 c-0.3088-0.4286-0.3628-1.0311-0.12251-1.5015c0.5358-1.0491,2.1413-0.9897,2.7453-0.047 C75.2355,38.03711,75.3174,38.26711,75.3227,38.50231z M65.3899,36.72121c0.1308,0.1963,0.215,0.42979,0.215,0.6634 c0.0093,0.23339-0.0655,0.467-0.1776,0.6727c-0.2617,0.4671-0.7474,0.794-1.28,0.84069 c-0.3922,0.03741-0.794-0.09339-1.1023-0.34569c-0.1495-0.5605-0.2616-1.2051-0.3644-1.8497 C63.2505,35.72171,64.8014,35.79631,65.3899,36.72121z"/></g></svg>