<?xml version="1.0" encoding="UTF-8" standalone="no"?><svg xmlns="http://www.w3.org/2000/svg" xmlns:xlink="http://www.w3.org/1999/xlink" contentScriptType="text/ecmascript" fill="#000000" width="468.5" zoomAndPan="magnify" contentStyleType="text/css" viewBox="404.0 247.3 468.5 1695.0" height="1695" preserveAspectRatio="xMidYMid meet" version="1"><g fill="#6e832c" id="change1_1"><path fill="inherit" d="M 715.8125 345.605469 C 724.4375 310.125 743.492188 275.714844 774.386719 256.242188 C 781.589844 251.71875 789.605469 247.96875 798.109375 247.628906 C 806.617188 247.289062 815.667969 250.953125 819.917969 258.316406 C 825.496094 268 821.472656 280.179688 817.058594 290.433594 C 797.464844 335.96875 771.78125 378.886719 740.964844 417.699219 C 727.078125 435.183594 708.652344 463.222656 708.125 425.476562 C 707.75 398.820312 709.503906 371.570312 715.8125 345.605469"/><path fill="inherit" d="M 572.570312 442.960938 C 571.734375 432.988281 571.234375 422.453125 575.710938 413.507812 C 580.179688 404.554688 591.386719 398.175781 600.441406 402.4375 C 604.542969 404.363281 607.511719 408.0625 610.117188 411.785156 C 635.816406 448.441406 639.523438 495.738281 640.886719 540.492188 C 642.082031 579.773438 651.726562 637.457031 638.308594 674.332031 C 592.867188 618.953125 578.375 512.347656 572.570312 442.960938"/><path fill="inherit" d="M 840.519531 434.597656 C 845.523438 433.398438 850.773438 432.375 855.773438 433.585938 C 863.769531 435.519531 869.59375 443.109375 871.054688 451.214844 C 872.519531 459.308594 870.214844 467.699219 866.386719 474.992188 C 859.722656 487.660156 848.75 497.449219 837.640625 506.476562 C 783.046875 550.851562 718.054688 584.429688 654.367188 614 C 677.507812 561.742188 703.28125 515.078125 748.632812 479.410156 C 775.621094 458.1875 807.078125 442.535156 840.519531 434.597656"/><path fill="inherit" d="M 472.667969 663.28125 C 470.757812 654.398438 469.125 645.179688 471.738281 635.910156 C 474.351562 626.648438 482.183594 617.238281 493.152344 614.070312 C 504.328125 610.839844 515.679688 614.761719 523.761719 620.511719 C 541.082031 632.851562 548.085938 652.53125 553.609375 671.558594 C 573.9375 741.550781 598.265625 806.289062 595.621094 882.378906 C 546.878906 849.058594 528.171875 809.378906 505.496094 760.789062 C 490.925781 729.578125 479.890625 696.921875 472.667969 663.28125"/><path fill="inherit" d="M 725.679688 657.339844 C 738.253906 646 751.605469 635.320312 766.6875 627.640625 C 776.03125 622.878906 786.425781 619.25 796.847656 620.441406 C 807.265625 621.628906 817.550781 628.730469 819.71875 638.988281 C 821.457031 647.210938 817.902344 655.558594 813.984375 663 C 793.472656 701.921875 761.511719 732.550781 728.398438 760.769531 C 711.488281 775.191406 693.957031 788.851562 676.953125 803.148438 C 646.304688 828.929688 622.621094 862.050781 592.164062 888.21875 C 601.132812 846.28125 616.6875 804.78125 637.710938 767.46875 C 660.878906 726.359375 690.625 688.941406 725.679688 657.339844"/><path fill="inherit" d="M 694.378906 865.050781 C 700.539062 859.738281 707.109375 854.511719 714.933594 852.269531 C 722.753906 850.03125 732.160156 851.46875 737.300781 857.78125 C 742.382812 864.011719 742.0625 872.96875 740.703125 880.890625 C 734.457031 917.398438 712.382812 948.949219 690.5625 978.878906 C 652.5 1031.089844 619.464844 1088.078125 579.589844 1138.789062 C 551.867188 1121.851562 589.941406 1014.871094 600.863281 990.78125 C 622.597656 942.851562 654.496094 899.460938 694.378906 865.050781"/><path fill="inherit" d="M 511.058594 898.089844 C 505.960938 886.058594 500.1875 873.878906 490.539062 865.070312 C 480.894531 856.269531 466.433594 851.539062 454.4375 856.710938 C 433.894531 865.558594 433.320312 894.339844 438.144531 916.179688 C 449.804688 968.96875 473.132812 1018.371094 496.957031 1066.898438 C 522.21875 1118.359375 546.351562 1171.921875 575.925781 1221 C 583.144531 1200.898438 575.820312 1183.351562 572.242188 1163.320312 C 566.78125 1132.75 564.03125 1101.640625 558.730469 1071 C 548.519531 1011.988281 534.460938 953.378906 511.058594 898.089844"/><path fill="inherit" d="M 609.269531 1219.878906 C 625.882812 1173.71875 708.246094 1094.898438 708.441406 1186.078125 C 708.613281 1267.171875 627.703125 1383.578125 595.460938 1453.988281 C 566.046875 1401.019531 590.109375 1273.128906 609.269531 1219.878906"/><path fill="inherit" d="M 471.796875 1132.929688 C 463.949219 1119.5 455.566406 1105.96875 443.511719 1096.148438 C 436.597656 1090.519531 427.375 1086.101562 418.9375 1088.980469 C 404.96875 1093.75 404.027344 1113 406.554688 1127.539062 C 416.761719 1186.269531 440.792969 1242.550781 476.15625 1290.539062 C 498.96875 1321.5 526.300781 1348.761719 549.5625 1379.359375 C 563.117188 1397.179688 572.246094 1422.429688 588.273438 1437.25 C 593.394531 1405.429688 571.0625 1359.828125 561.011719 1329.859375 C 538.042969 1261.359375 508.265625 1195.308594 471.796875 1132.929688"/><path fill="inherit" d="M 613.917969 1560.699219 C 617.054688 1495.828125 632.65625 1424.320312 697.722656 1409.410156 C 701.078125 1408.640625 704.855469 1408.179688 707.746094 1410.050781 C 710.574219 1411.878906 711.722656 1415.410156 712.503906 1418.679688 C 718.601562 1444.230469 714.582031 1471.191406 707.242188 1496.410156 C 697.1875 1530.960938 681.09375 1563.390625 665.074219 1595.628906 C 655.609375 1614.691406 653.3125 1642.03125 639.539062 1658.460938 C 611.882812 1691.449219 613.980469 1642.148438 613.53125 1619.058594 C 613.191406 1601.691406 612.914062 1581.539062 613.917969 1560.699219"/><path fill="inherit" d="M 555.917969 1477.898438 C 546.191406 1453.5 535.570312 1428.671875 517.246094 1409.839844 C 506.222656 1398.519531 488.527344 1389.519531 475.160156 1397.949219 C 459.820312 1407.621094 463.238281 1430.558594 468.535156 1447.898438 C 474.945312 1468.859375 481.515625 1490.171875 493.78125 1508.339844 C 506.160156 1526.660156 523.675781 1540.808594 538.492188 1557.21875 C 549.175781 1569.050781 561.636719 1578.601562 571.9375 1590.761719 C 590.734375 1612.960938 631.167969 1684.699219 614.066406 1625.121094 C 599.917969 1575.851562 574.910156 1525.539062 555.917969 1477.898438"/><path fill="inherit" d="M 701.292969 1619.308594 C 709.511719 1604.359375 719.972656 1589.128906 735.964844 1583.191406 C 739.804688 1581.761719 744.410156 1581.019531 747.753906 1583.390625 C 750.132812 1585.070312 751.3125 1587.960938 752.242188 1590.730469 C 763.007812 1622.78125 756.214844 1657.828125 748.136719 1690.660156 C 732.398438 1754.640625 711.359375 1865.46875 676.894531 1921.480469 C 657.058594 1883.960938 660.84375 1692.921875 701.292969 1619.308594"/><path fill="inherit" d="M 613.953125 1772.339844 C 607.058594 1754.300781 600.109375 1736.160156 590.117188 1719.640625 C 580.90625 1704.410156 569.269531 1690.828125 557.6875 1677.320312 C 551.480469 1670.078125 545.101562 1662.699219 536.8125 1657.988281 C 528.523438 1653.28125 517.800781 1651.691406 509.527344 1656.429688 C 501.410156 1661.070312 497.3125 1670.890625 497.257812 1680.238281 C 497.199219 1689.601562 500.5625 1698.621094 504.367188 1707.160156 C 538.394531 1783.648438 627.429688 1838.699219 668.308594 1911.761719 C 658.851562 1894.859375 657.335938 1868.460938 652.242188 1848.648438 C 646.40625 1825.949219 622.402344 1794.429688 613.953125 1772.339844"/><path fill="inherit" d="M 670.824219 1942.289062 C 662.273438 1907.03125 654.34375 1872.648438 646.949219 1838.828125 C 609.917969 1669.46875 586.617188 1515.019531 575.714844 1366.648438 C 563.480469 1200.207031 567.574219 1039.167969 587.878906 888.007812 C 610.042969 723.011719 651.796875 568.136719 711.992188 427.65625 C 713.40625 424.347656 717.230469 422.824219 720.535156 424.238281 C 723.839844 425.652344 725.371094 429.480469 723.953125 432.785156 C 608.507812 702.214844 563 1016.082031 588.695312 1365.699219 C 603.277344 1564.136719 639.265625 1757.390625 683.023438 1938.050781 C 678.964844 1939.488281 674.898438 1940.898438 670.824219 1942.289062"/></g></svg>