<?xml version="1.0" encoding="UTF-8" standalone="no"?><svg xmlns="http://www.w3.org/2000/svg" xmlns:xlink="http://www.w3.org/1999/xlink" contentScriptType="text/ecmascript" fill="#000000" width="288.9" zoomAndPan="magnify" contentStyleType="text/css" viewBox="112.8 85.6 288.9 309.2" height="309.2" preserveAspectRatio="xMidYMid meet" version="1"><g><g id="change1_1"><path fill="#f7f7f7" d="M394.75,276.1C394.75,276.1,394.75,276.1,394.75,276.1c-7.34-14.15-21.34-21.49-38.61-20.68 c-6.36-6.18-15.87-12.92-28.61-15.4c0.19-0.92,0.36-1.85,0.51-2.79c5.63-2.08,11.44-5.33,16.68-10.36 c8.02-7.71,17.13-22.17,14.93-47.3c-1.54-17.53-8.94-31.85-21.43-41.41c-9.68-7.42-20.8-10.67-30.39-11.97 c-1.78-6.16-4.78-12.66-9.7-18.73c-7.33-9.05-21.53-20.02-47.54-20.93c-25.48-0.89-47.63,9.66-62.29,29.72 c-0.97,1.33-1.91,2.7-2.81,4.1c-7.32-1.25-15.01-0.71-22.69,1.69c-24.41,7.61-45.04,32.98-47.99,59.02 c-1.99,17.55,4.08,34.2,16.54,46.67c-0.19,1.18-0.33,2.38-0.42,3.59c-1.15,16.47,8.33,34.37,23.58,44.54 c13.5,9,30.2,10.22,49.86,3.68c-1.94,22.89-8.73,52.01-29.64,64.9c-10.56,6.51-13.86,20.4-7.35,30.96 c4.13,6.7,11.29,10.69,19.16,10.69c4.17,0,8.25-1.16,11.8-3.34c19.61-12.08,34.07-31.7,42.65-57.53c1.17,1.6,2.46,3.11,3.9,4.52 c3.88,3.8,8.33,6.52,12.79,8.45c0.86,13.06,5.7,23.51,14.18,30.21c2.36,1.86,5.98,4.08,10.77,5.18c0.06,1.1,0.2,2.21,0.43,3.32 c2.14,10.42,11.4,17.98,22.04,17.98c1.51,0,3.03-0.15,4.53-0.46c11.97-2.45,21.87-9.97,28.99-21.74c1.22,0.39,2.46,0.74,3.72,1.04 c3.8,0.91,7.63,1.37,11.37,1.37c13.58,0,25.42-5.95,32.48-16.33c7.67-11.29,8.73-25.42,3.3-40.05 C399.71,304.92,401.76,289.62,394.75,276.1z"/></g><g><g id="change2_1"><path fill="#f9c4ce" d="M226.67,243.26c-23.66,15.43-45.77,23.14-59.66,13.89c-13.89-9.26-19.54-29.31-5.66-36 c0,0-27.26-10.29-24.17-37.54c3.09-27.26,38.06-56.57,59.14-32.4c0,0,9.26-43.71,53.49-42.17c44.23,1.54,37.54,39.6,37.54,39.6 s46.29-8.23,49.89,32.91s-32.4,36.51-32.4,36.51s10.29,30.63-24.69,43.09C245.18,273.6,226.67,243.26,226.67,243.26z"/></g><g id="change3_2"><path fill="#666666" d="M263.8,269.14c-19.78,0-32.8-12.5-38.35-19.18c-26.89,16.69-47.47,20.51-61.21,11.34 c-10.04-6.69-16.55-18.52-15.84-28.76c0.28-4.01,1.61-7.55,3.86-10.43c-10.34-6.49-22.27-19.45-20.04-39.08 c2.14-18.93,18.21-38.79,35.81-44.28c9.44-2.94,18.39-1.67,25.88,3.55c1.7-4.38,4.41-10.07,8.54-15.73 c7.87-10.77,22.49-23.44,47.54-22.55c15.59,0.54,27.22,5.41,34.55,14.46c6.77,8.35,8.12,18.24,8.17,24.57 c8.35-0.45,23.39,0.21,34.87,9.01c8.6,6.59,13.53,16.36,14.64,29.04c1.28,14.64-1.96,25.79-9.62,33.15 c-6.9,6.63-15.74,8.46-21.71,8.86c1.24,10.94-0.37,32.52-29.06,42.74C275.31,268.18,269.29,269.14,263.8,269.14z M230.93,240.64 c0.7,1.12,16.97,26.68,47.55,15.79c12.57-4.48,20.02-11.91,22.15-22.1c1.64-7.86-0.52-14.64-0.54-14.71 c-0.53-1.63-0.19-3.43,0.9-4.75c1.09-1.32,2.78-2,4.48-1.78c0.11,0.01,12.48,1.41,20.25-6.11c5.33-5.16,7.53-13.58,6.53-25.01 c-0.85-9.75-4.46-17.14-10.72-21.95c-12.87-9.9-33.12-6.51-33.32-6.48c-1.61,0.28-3.25-0.24-4.4-1.39 c-1.15-1.15-1.67-2.79-1.39-4.4c0.02-0.12,2.15-13.42-5.71-23.04c-5.44-6.66-14.55-10.26-27.08-10.69 c-0.7-0.02-1.39-0.04-2.07-0.04c-37.63,0-46.01,36.67-46.35,38.26c-0.4,1.85-1.81,3.32-3.64,3.79c-1.83,0.47-3.77-0.12-5.02-1.55 c-5.87-6.73-13.13-8.81-21.56-6.18c-13.93,4.34-27.14,20.77-28.85,35.86c-2.62,23.12,20.73,32.21,20.97,32.3 c1.87,0.71,3.14,2.46,3.23,4.46s-1.02,3.86-2.83,4.72c-3.21,1.55-4.9,4.03-5.15,7.59c-0.47,6.72,4.33,15.02,11.41,19.74 c13.41,8.94,36.85-2.63,54.15-13.91c1.13-0.74,2.52-0.99,3.83-0.69C229.08,238.68,230.22,239.5,230.93,240.64z"/></g></g><g id="change3_4"><path fill="#666666" d="M186.56,368.6c-1.68,0-3.32-0.84-4.26-2.38c-1.45-2.35-0.72-5.43,1.63-6.88 c47.64-29.35,37.88-114.63,37.77-115.48c-0.33-2.74,1.62-5.23,4.36-5.57c2.74-0.34,5.23,1.62,5.57,4.36 c0.11,0.93,2.74,23.2-0.98,49.7c-5.01,35.76-19.35,61.86-41.48,75.5C188.36,368.36,187.45,368.6,186.56,368.6z"/></g><g id="change4_1"><path fill="#f1f6ce" d="M245.69,212.4c-17.49,0-37.61,0.51-38.61-23.66c-0.99-24.17,39.12-16.63,53.52-10.11 C275.01,185.15,274.49,212.4,245.69,212.4z"/></g><g><g id="change5_1"><path fill="#d9c1fb" d="M330.04,335.32c-2.33-18.09-34.46,23.14-44.23,15.43c-9.77-7.71-4.11-30.34-4.11-30.34 s-25.2,0.51-25.2-16.97S293.27,288,293.27,288s-2.83-23.66,19.8-26.23c22.63-2.57,33.94,18,33.94,18s20.57-7.2,27.77,6.69 s-12.86,28.29-12.86,28.29s14.4,18.51,5.66,31.37C358.84,358.97,332.09,351.26,330.04,335.32z"/></g><g id="change3_3"><path fill="#666666" d="M353.71,357.6c-2.35,0-4.8-0.29-7.31-0.89c-9.57-2.29-19.88-9.59-21.32-20.75v0c0-0.02-0.01-0.04-0.01-0.07 c-3.05,1.05-9.4,5.78-13.37,8.75c-11.02,8.23-21.43,16-28.99,10.03c-8.78-6.93-8.19-21.39-6.99-29.63 c-5.43-0.68-13.24-2.57-18.57-7.79c-3.7-3.62-5.65-8.4-5.65-13.82c0-4.49,1.77-8.53,5.11-11.69c7.9-7.47,23.37-8.72,31.65-8.82 c0.33-4.59,1.63-11.17,5.97-16.65c4.26-5.38,10.41-8.57,18.28-9.46c19.92-2.26,32.01,10.78,36.69,17.19 c7.3-1.65,23.02-3.35,30.03,10.16c6.88,13.26-4.33,25.89-10.61,31.56c4.24,6.95,11.09,21.48,3.11,33.21 C367.9,354.54,361.33,357.6,353.71,357.6z M335,334.68c0.83,6.4,7.69,10.87,13.72,12.31c5.08,1.21,11.62,0.88,14.72-3.68 c6.47-9.52-5.35-25.34-5.47-25.5c-0.83-1.07-1.19-2.44-0.99-3.78s0.93-2.55,2.03-3.34c0.16-0.11,16.37-12.21,11.33-21.92 c-5.1-9.84-21.53-4.32-21.69-4.26c-2.3,0.79-4.85-0.18-6.02-2.31c-0.39-0.7-10.07-17.59-29-15.44c-5.2,0.59-8.98,2.47-11.57,5.73 c-4.75,6-3.84,14.85-3.83,14.94c0.17,1.47-0.31,2.94-1.32,4.02c-1.01,1.08-2.44,1.66-3.92,1.57c-8.46-0.46-23.97,0.76-29.52,6.01 c-1.36,1.29-1.97,2.65-1.97,4.42c0,2.77,0.84,4.89,2.64,6.66c4.59,4.52,14.17,5.36,17.47,5.31c0.03,0,0.05,0,0.08,0 c1.52,0,2.97,0.7,3.92,1.89c0.97,1.22,1.32,2.81,0.94,4.32c-1.57,6.32-3.05,20.7,2.25,25.11c2.88,0.41,11.99-6.42,16.93-10.1 c9.72-7.25,17.39-12.99,23.81-10.27C331.65,327.26,334.32,329.43,335,334.68L335,334.68z M324.84,334.93L324.84,334.93z"/></g></g><g id="change3_1"><path fill="#666666" d="M305.1,377.39c-2.33,0-4.41-1.63-4.89-4c-0.55-2.71,1.19-5.35,3.89-5.9c15.9-3.26,18.62-34.75,18.65-35.06 c0.2-2.75,2.58-4.82,5.35-4.63c2.75,0.2,4.83,2.59,4.63,5.35c-0.12,1.6-3.12,39.32-26.61,44.14 C305.77,377.35,305.43,377.39,305.1,377.39z"/></g><g id="change4_2"><path fill="#f1f6ce" d="M326.53,313.8c-7.88,1.97-19.08-2.36-18.87-10.29c0.21-7.94,20.58-15.87,24.23-3.86 C335.53,311.66,331.68,312.51,326.53,313.8z"/></g></g></svg>