<?xml version="1.0" encoding="UTF-8" standalone="no"?><svg xmlns="http://www.w3.org/2000/svg" xmlns:xlink="http://www.w3.org/1999/xlink" contentScriptType="text/ecmascript" fill="#000000" width="271.8" zoomAndPan="magnify" contentStyleType="text/css" viewBox="113.8 153.6 271.8 191.7" height="191.7" preserveAspectRatio="xMidYMid meet" version="1"><g><g id="change1_1"><path fill="#f4f4f4" d="M382.43,248.77c-2.57-5.95-6.91-10.93-12.55-14.4c-3.43-2.11-7.16-3.52-11.04-4.2 c-7.17-13.23-15.7-25.45-25.42-36.45c-6.48-7.32-12.96-14.41-21.09-20.55c-9.38-7.09-20.68-12.43-32.67-15.43 c-16.72-4.18-34.35-3.94-51,0.69c-11.17,3.11-21.48,8.02-30.64,14.6c-8.75,6.28-16.31,14.09-23.11,23.87 c-8.67,12.47-15.8,25.46-21.27,38.76c-0.11-0.01-0.22-0.02-0.33-0.03c-8.13-0.76-16.74,1.68-23.63,6.69 c-7.18,5.23-12.18,12.67-14.07,20.97c-1.81,7.94-0.97,16.26,2.43,24.05c1.35,3.09,3.11,6,5.27,8.69c-0.73,2.17-1.22,4.46-1.46,6.85 c-1.44,13.98,6.93,27.65,20.34,33.25c9.92,4.14,21.16,3.36,31.77-1.88c4.75,3.49,10,6.23,15.58,8.1 c5.71,1.92,11.75,2.88,17.93,2.88c5.3,0,10.7-0.71,16.06-2.13c9.19-2.43,16.91-7.57,22.31-14.87c0.06-0.08,0.12-0.17,0.18-0.25 c8.35-11.74,9.55-27.9,3.05-41.15c-2.67-5.46-6.81-10.43-11.96-14.39c-0.4-0.31-0.8-0.61-1.2-0.9c1.79-2.08,3.5-3.88,5.19-5.48 c4-3.78,7.91-7.28,11.68-8.6c3.15-1.11,7.12-1.27,12.13-0.49c4.36,0.68,8.91,2.39,14.74,5.56c1.01,0.55,1.97,1.08,2.88,1.61 c-1.72,2.42-3.09,5.44-3.65,9.24c-0.78,5.29-0.06,10.86,2.09,16.1c4.16,10.15,13.06,17.63,23.24,19.53 c7.05,1.31,14.37,0.05,20.63-3.36c7.26,0.71,14.88-0.73,21.33-4.23c2.59-1.41,4.96-3.17,7.04-5.21c3.03,0.3,6.07,0.16,9.08-0.44 c7-1.39,13.14-5.3,17.28-11c4.46-6.14,5.37-12.8,5.66-17.92c0-0.04,0-0.09,0.01-0.13C385.6,259.83,384.67,253.96,382.43,248.77z"/></g><g><g id="change2_2"><path fill="#efede4" d="M230.82,317.45c-5.24,7.23-13.59,8.31-19.07,9.03c-2.05,0.26-9.55,1.06-18.27-2.37 c-9.87-3.87-15.41-10.82-17.59-13.91c-3.2,3.3-6.35,5.31-8.51,6.49c-3,1.63-6.21,3.38-10.75,3.53c-1.8,0.06-5.33,0.13-9-1.97 c-0.8-0.46-6.4-3.78-7.28-10.12c-0.13-0.89-0.7-5.02,1.56-8.54c1.23-1.91,2.25-2.51,2.87-4.45c0.55-1.68-0.14-3.55-1.24-4.94 c-1.09-1.39-2.55-2.44-3.84-3.64c-5.77-5.32-8.19-14.2-5.33-21.51c2.86-7.31,11.12-12.28,18.83-10.8 c3.34,0.64,6.41,2.35,8.93,4.63c0.44,0.4,0.9,0.84,1.49,0.93c0.43,0.06,0.84-0.07,1.22-0.29h0.01c0.32-0.18,0.61-0.41,0.89-0.64 c4.44-3.56,9.62-6.51,15.29-7.08c1.72-0.17,3.49-0.09,5.2,0.25c3.93,0.77,7.57,2.87,9.65,6.25c1.32,2.13,1.94,4.6,2.46,7.07 c0.06,0.34,0.13,0.68,0.2,1.02c0.15,0.73,0.31,1.51,0.84,2.04c1.17,1.18,3.11,0.43,4.71,0c3.15-0.84,6.66,0.12,9.09,2.26 c0.82,0.73,1.53,1.59,2.05,2.57c1.47,2.74,1.56,5.98,2.15,9.04c0.08,0.43,0.2,0.91,0.56,1.17c0.46,0.34,1.07,0.25,1.17,0.24 c1.25-0.13,9.69,3.41,13.6,11.78C235.89,302.31,235.47,311.05,230.82,317.45z"/></g><g id="change3_4"><path fill="#5e5c5a" d="M228.66,316.19c-2.44,3.3-6.06,5.34-9.94,6.46c-3.08,0.88-5.81,1.3-8.73,1.51 c-8.83,0.64-17.87-2.1-24.78-7.66c-1.66-1.34-3.21-2.82-4.64-4.4c-0.54-0.6-1.05-1.22-1.56-1.85c-0.44-0.54,0.19,0.25-0.06-0.07 c-0.1-0.13-0.2-0.26-0.29-0.39c-0.21-0.28-0.41-0.56-0.61-0.84c-0.91-1.29-2.72-1.74-3.93-0.51c-3.06,3.11-6.57,5.48-10.47,7.4 c-3.39,1.67-7.35,2.43-11.09,1.64c-1.57-0.33-3.03-0.92-4.37-1.8c-0.18-0.12-0.36-0.25-0.54-0.37c-0.53-0.37,0.03,0.05-0.3-0.23 c-0.58-0.48-1.14-0.99-1.66-1.54c-1.07-1.14-1.99-2.52-2.49-4.12c-0.16-0.52-0.28-1.04-0.38-1.58c-0.03-0.16-0.05-0.32-0.07-0.47 c0.01,0.05,0.05,0.69,0.03,0.22c-0.03-0.76-0.11-1.5-0.08-2.26c0.09-1.98,0.78-3.77,1.97-5.35c1.53-2.02,3.01-3.99,2.76-6.68 c-0.48-5.09-5.39-7.18-8.13-10.88c-4.79-6.47-5.07-15.87,0.94-21.65c3.03-2.91,7.2-4.56,11.41-4.22c2.38,0.19,4.67,1.21,6.65,2.5 c1.12,0.74,2.03,1.72,3.12,2.47c1.5,1.03,3.1,0.93,4.69,0.17c-0.42,0.11-0.84,0.23-1.26,0.34c1.13,0,2-0.84,2.83-1.5 c0.82-0.65,1.67-1.25,2.53-1.83c1.72-1.15,3.55-2.21,5.48-2.98c4-1.59,8.31-2.04,12.41-0.55c3.57,1.3,5.95,4.04,7.04,7.64 c0.61,2.03,0.68,4.4,1.67,6.29c1.19,2.27,3.67,2.71,5.98,2.27c1.83-0.35,3.38-1,5.27-0.55c1.68,0.4,3.27,1.29,4.36,2.66 c1.31,1.65,1.67,3.88,1.99,5.91c0.33,2.1,0.26,4.97,2.28,6.25c0.69,0.44,1.61,0.66,2.43,0.58c0.47-0.05-0.3-0.06-0.3-0.06 c0.03-0.04,0.44,0.1,0.48,0.12c0.21,0.07,1.27,0.48,0.66,0.21c0.52,0.22,1.02,0.47,1.51,0.74c2.6,1.41,4.78,3.21,6.66,5.56 C233.47,299.47,233.58,309.27,228.66,316.19c-0.78,1.1-0.19,2.78,0.9,3.42c1.25,0.73,2.64,0.21,3.42-0.9 c5.1-7.17,5.57-17,1.72-24.83c-1.7-3.46-4.31-6.42-7.35-8.75c-2-1.54-4.33-3.04-6.8-3.7c-0.41-0.11-0.91-0.25-1.33-0.22 c-0.07,0.01-0.3-0.02-0.34,0.02c-0.27,0.26,0.88,1.22,0.94,0.57c0.03-0.3-0.13-0.69-0.19-1c-0.39-2.3-0.57-4.66-1.4-6.86 c-1.74-4.63-5.77-7.72-10.68-8.25c-2.22-0.24-4.16,0.46-6.3,0.88c-0.58,0.11-0.24-0.21-0.12,0.09c0.17,0.44-0.17-0.82-0.2-0.94 c-0.24-1.14-0.46-2.28-0.76-3.41c-1.2-4.5-3.69-8.34-7.82-10.66c-4.63-2.6-10.19-3.01-15.27-1.68c-2.55,0.67-5.01,1.75-7.29,3.06 c-2.21,1.27-4.09,2.98-6.23,4.32c0.42-0.11,0.84-0.23,1.26-0.34c-0.25,0-0.72,0.05-0.97,0.22c-0.73,0.47,0.31-0.07,0.29,0.12 c0.03-0.2-1-0.88-1.2-1.04c-1.12-0.91-2.29-1.74-3.55-2.43c-2.37-1.28-4.92-2.08-7.6-2.33c-4.46-0.42-9.13,1.08-12.73,3.7 c-3.88,2.83-6.81,6.86-7.88,11.58c-1.08,4.75-0.44,9.67,1.5,14.11c0.97,2.22,2.32,4.27,3.93,6.07c1.59,1.77,3.88,3.06,5.18,5.07 c1.37,2.1-0.04,3.49-1.31,5.17c-1.63,2.15-2.47,4.59-2.75,7.26c-0.75,7.3,3.95,14.08,10.58,16.84c10.41,4.34,22.05-2,29.31-9.39 c-1.31-0.17-2.62-0.34-3.93-0.51c5.16,7.29,12.4,12.86,20.9,15.72c7.98,2.68,16.71,2.59,24.81,0.45 c5.47-1.45,10.16-4.35,13.54-8.92c0.8-1.09,0.18-2.79-0.9-3.42C230.81,314.55,229.46,315.1,228.66,316.19z"/></g></g><g><g id="change2_1"><path fill="#efede4" d="M366.78,265.93c-0.15,2.86-0.58,5.86-2.29,8.17c-2.35,3.16-6.75,4.31-10.61,3.59 c-3.87-0.72-7.27-3.04-10.16-5.72c1.14,4-0.55,8.48-3.64,11.27c-3.08,2.79-7.34,4.03-11.5,4.07c-2.8,0.03-5.69-0.51-8.06-1.93 c-2.77,4.24-8.41,6.59-13.4,5.34c-5.98-1.51-10.29-7.69-10.01-13.85c0.03-0.81,0.16-1.67,0.65-2.31c0.44-0.58,1.13-0.92,1.78-1.24 c1.45-0.71,2.89-1.41,4.34-2.11c1.09-0.54,2.25-1.12,2.89-2.16c0.51-0.82,0.63-1.82,0.68-2.78c0.14-2.33,0-4.69,0.01-7.03 c0.01-1.99,0.13-3.97,0.62-5.9c0.23-0.9,0.55-1.81,1.19-2.48c0.63-0.65,1.5-1.01,2.37-1.27c2.29-0.67,4.76-0.71,7.07-0.13 c0.35,0.09,0.75,0.19,1.06-0.01c0.29-0.19,0.37-0.57,0.41-0.91c0.01-0.13,0.02-0.25,0.03-0.38c0.12-1.86-0.34-3.77,0.11-5.58 c0.58-2.36,2.6-4.1,4.73-5.29c2.23-1.24,4.7-2.06,7.23-2.4c1.05-0.15,2.12-0.21,3.18-0.19c1.07,0.02,2.15,0.13,3.14,0.53 c2.83,1.14,4.28,4.35,4.63,7.38c0.36,3.03-0.09,6.12,0.33,9.14c1.24-1.08,2.67-1.95,4.2-2.55c2.4-0.97,5.05-1.31,7.61-0.88 c4.18,0.69,7.99,3.44,9.86,7.25C366.78,258.74,366.97,262.4,366.78,265.93z"/></g><g id="change3_1"><path fill="#5e5c5a" d="M364.28,265.93c-0.13,2.25-0.38,4.74-1.75,6.63c-1.15,1.6-3.11,2.48-5.02,2.76 c-4.59,0.67-8.81-2.16-12.03-5.11c-1.82-1.66-4.83-0.05-4.18,2.43c1.17,4.45-1.76,8.62-5.62,10.58c-4.11,2.09-9.86,2.33-13.91,0 c-1.23-0.71-2.66-0.23-3.42,0.9c-1.63,2.42-4.45,4.06-7.34,4.38c-3.02,0.34-5.88-0.83-8-2.97c-2.12-2.14-3.43-5.1-3.42-8.13 c0-0.46-0.06-1.03,0.23-1.4c0.24-0.29,0.84-0.46,1.19-0.63c0.58-0.28,1.16-0.57,1.74-0.85c1.73-0.84,3.65-1.56,5.08-2.88 c1.67-1.54,2.04-3.67,2.14-5.84c0.1-2.19-0.03-4.38-0.01-6.56c0.01-1.95,0.01-4.17,0.76-6c0.57-1.42,2.66-1.6,4.01-1.66 c0.89-0.05,1.79-0.01,2.67,0.15c1.16,0.22,2.21,0.52,3.34,0.01c2.35-1.07,2.02-4.02,1.92-6.15c-0.09-1.77,0.06-3.16,1.35-4.45 c1.2-1.21,2.79-2.05,4.37-2.67c2.12-0.82,4.37-1.27,6.64-1.27c1.79,0,3.34,0.28,4.4,1.83c2.48,3.61,1.14,8.64,1.65,12.72 c0.27,2.19,2.51,3.25,4.27,1.77c3.93-3.32,9.64-3.83,13.96-1.01C363.88,255.51,364.52,260.88,364.28,265.93 c-0.16,3.22,4.84,3.21,5,0c0.18-3.67-0.06-7.41-1.53-10.82c-1.28-2.96-3.51-5.43-6.25-7.12c-6.28-3.86-14.22-2.65-19.71,1.99 c1.42,0.59,2.85,1.18,4.27,1.77c-0.58-4.68,0.42-9.4-1.58-13.85c-0.79-1.76-2.05-3.32-3.69-4.36c-1.97-1.24-4.42-1.43-6.69-1.33 c-4.51,0.22-9.12,1.68-12.66,4.52c-1.56,1.26-2.81,2.9-3.42,4.82c-0.38,1.21-0.42,2.53-0.37,3.79c0.04,1,0.31,2.23-0.06,3.19 c0.21-0.37,0.43-0.74,0.64-1.1c-0.08,0.08-0.15,0.16-0.23,0.24c0.37-0.21,0.74-0.43,1.1-0.64c0.09,0,0.18,0.01,0.27,0.01 c-0.29-0.07-0.58-0.14-0.87-0.19c-0.37-0.07-0.74-0.12-1.11-0.16c-0.74-0.09-1.48-0.16-2.23-0.14c-1.65,0.03-3.39,0.28-4.93,0.87 c-3.18,1.22-4.43,3.82-4.92,7.04c-0.51,3.3-0.27,6.61-0.3,9.93c-0.01,0.96,0.18,2.54-0.4,3.39c-0.64,0.94-2.32,1.42-3.3,1.89 c-2.87,1.39-6.06,2.46-6.59,6.04c-0.38,2.58,0.08,5.3,1.07,7.7c1.96,4.79,6.15,8.89,11.36,9.86c6.01,1.12,12.13-1.62,15.52-6.64 c-1.14,0.3-2.28,0.6-3.42,0.9c5.74,3.3,13.56,2.92,19.31-0.19c5.67-3.07,9.25-9.63,7.56-16.04c-1.39,0.81-2.79,1.62-4.18,2.43 c4.72,4.33,10.66,7.64,17.25,6.33c2.97-0.59,5.67-2.26,7.45-4.71c1.97-2.71,2.44-6.18,2.63-9.43 C369.46,262.72,364.46,262.73,364.28,265.93z"/></g></g><g><g id="change4_1"><path fill="#f4b2bc" d="M320.21,248.16c-0.01,0.13-0.02,0.25-0.03,0.38c-0.04,0.34-0.12,0.72-0.41,0.91 c-0.31,0.2-0.71,0.1-1.06,0.01c-2.31-0.58-4.78-0.54-7.07,0.13c-0.87,0.26-1.74,0.62-2.37,1.27c-0.64,0.67-0.96,1.58-1.19,2.48 c-0.49,1.93-0.61,3.91-0.62,5.9c-6.87-6.27-13.15-9.76-16.94-11.85c-6.68-3.66-13.13-7.2-22.48-8.63 c-4.74-0.72-12.18-1.86-20.81,1.06c-7.55,2.55-12.48,7.03-17.81,11.86c-4.38,3.98-7.22,7.46-9.73,10.59 c-2.22,2.76-4.45,5.54-6.51,8.42c-2.43-2.14-5.94-3.1-9.09-2.26c-1.6,0.43-3.54,1.18-4.71,0c-0.53-0.53-0.69-1.31-0.84-2.04 c-0.07-0.34-0.14-0.68-0.2-1.02c4.57-9.84,12.49-22.54,26.01-32.75c5.86-4.43,14.13-10.53,26.48-12.6 c12.67-2.13,22.81,1.12,31.38,3.86c13.3,4.25,22.51,10.67,27,14.14C313.53,241.36,317.17,244.83,320.21,248.16z"/></g><g id="change3_3"><path fill="#5e5c5a" d="M317.71,248.16c0.01,0.14-0.04,0.26-0.12,0.38c0.21-0.37,0.43-0.74,0.64-1.1c-0.08,0.08-0.15,0.16-0.23,0.24 c0.37-0.21,0.74-0.43,1.1-0.64c0.42,0.03,0.36,0-0.17-0.09c-0.22-0.05-0.44-0.09-0.66-0.12c-0.51-0.09-1.03-0.15-1.55-0.2 c-0.97-0.09-1.94-0.08-2.9,0.03c-1.85,0.2-3.83,0.6-5.38,1.68c-3.33,2.31-3.45,7.25-3.49,10.91c1.42-0.59,2.85-1.18,4.27-1.77 c-5.31-4.81-11.18-8.8-17.45-12.24c-6.55-3.6-13.23-6.95-20.62-8.44c-7.18-1.46-14.65-1.99-21.82-0.19 c-7.9,1.98-14.26,6.63-20.22,11.99c-6.86,6.17-12.72,13.36-18.1,20.85c1.31-0.17,2.62-0.34,3.93-0.51 c-2.49-2.11-5.63-3.43-8.94-3.29c-1.54,0.07-2.89,0.62-4.38,0.86c0.35-0.06-1.06,0.17-0.75,0.06c0.13-0.05,0.31,0.13,0.35,0.26 c-0.23-0.68-0.35-1.41-0.48-2.11c-0.08,0.64-0.17,1.28-0.25,1.93c7.61-16.32,20.08-30.58,36.08-39.12 c9.22-4.93,19.89-6.74,30.22-5.07c4.69,0.75,9.24,2.1,13.76,3.54c4.99,1.59,9.83,3.52,14.48,5.95 c8.81,4.6,16.68,10.68,23.4,18.01c2.18,2.38,5.71-1.17,3.54-3.54c-7.1-7.75-15.57-14.24-24.92-19.05 c-5.51-2.83-11.27-4.99-17.17-6.82c-5.65-1.76-11.41-3.15-17.33-3.57c-12.25-0.85-24.17,2.9-34.26,9.74 c-9.55,6.47-17.87,14.39-24.42,23.91c-1.65,2.4-3.18,4.87-4.59,7.41c-0.62,1.12-1.22,2.25-1.79,3.39 c-0.7,1.39-1.82,3.04-1.56,4.63c0.26,1.62,0.66,3.26,1.95,4.39c1.54,1.35,3.58,1.27,5.45,0.81c1.34-0.33,2.56-0.74,3.96-0.58 c1.49,0.18,2.98,0.83,4.13,1.8c1.31,1.11,2.93,0.87,3.93-0.51c4.43-6.16,9.25-12.3,14.79-17.52c5.13-4.84,10.6-9.68,17.35-12.06 c6.5-2.29,13.38-2.22,19.9-1.2c7.16,1.11,13.59,3.87,19.92,7.3c6.58,3.57,12.83,7.48,18.4,12.53c1.58,1.44,4.25,0.47,4.27-1.77 c0.02-1.83,0.1-3.65,0.58-5.43c0.43-1.57,1.54-1.86,3.07-2.12c1.66-0.28,3.17-0.03,4.8,0.26c1.11,0.2,2.27,0.07,3.13-0.73 c0.89-0.83,1.08-1.9,1.17-3.06c0.11-1.35-1.23-2.5-2.5-2.5C318.77,245.66,317.81,246.81,317.71,248.16z"/></g></g><g><g id="change5_1"><path fill="#e0e799" d="M332.28,234.89c-2.53,0.34-5,1.16-7.23,2.4c-2.13,1.19-4.15,2.93-4.73,5.29c-0.45,1.81,0.01,3.72-0.11,5.58 c-3.04-3.33-6.68-6.8-11-10.14c-4.49-3.47-13.7-9.89-27-14.14c-8.57-2.74-18.71-5.99-31.38-3.86 c-12.35,2.07-20.62,8.17-26.48,12.6c-13.52,10.21-21.44,22.91-26.01,32.75c-0.52-2.47-1.14-4.94-2.46-7.07 c-2.08-3.38-5.72-5.48-9.65-6.25c3.39-8.94,8.63-19.03,16.78-28.69c5.29-6.27,13.21-15.45,27-21.6c3.5-1.56,13.5-5.65,27.01-5.88 c10.07-0.17,17.51,1.89,24.05,3.76c5.31,1.51,17.65,5.13,29.68,13.44C320.17,219.59,327.16,227.41,332.28,234.89z"/></g><g id="change3_2"><path fill="#5e5c5a" d="M331.61,232.48c-3.86,0.56-7.83,2.1-10.75,4.74c-1.3,1.18-2.33,2.67-2.86,4.35c-0.68,2.15-0.21,4.4-0.3,6.59 c1.42-0.59,2.85-1.18,4.27-1.77c-13.39-14.61-31.42-24.09-50.73-28.19c-11.27-2.4-22.78-1.48-33.37,3.14 c-4.12,1.8-7.96,4.15-11.6,6.76c-4.09,2.94-8.03,6.07-11.63,9.6c-7.7,7.57-13.9,16.63-18.46,26.4c1.52,0.2,3.05,0.4,4.57,0.6 c-0.81-3.79-2.02-7.51-4.81-10.34c-2.43-2.46-5.68-4.03-9.05-4.73c0.58,1.03,1.16,2.05,1.75,3.08 c4.41-11.58,11.04-21.98,19.27-31.22c3.4-3.82,7.09-7.44,11.21-10.48c2.48-1.84,5.1-3.5,7.82-4.96c1.42-0.76,2.87-1.48,4.34-2.13 c0.28-0.12,0.56-0.25,0.84-0.37c0.55-0.24-0.53,0.22,0.07-0.03c0.25-0.1,0.5-0.2,0.74-0.3c10.7-4.27,22.62-5.88,34.05-4.27 c5.18,0.73,10.23,2.14,15.23,3.61c4.88,1.44,9.67,3.16,14.29,5.29c13.59,6.29,25.14,15.94,33.63,28.29 c0.76,1.11,2.19,1.61,3.42,0.9c1.1-0.64,1.67-2.3,0.9-3.42c-8.04-11.69-18.61-21.38-31.2-28c-9.65-5.07-20.38-8.68-31.08-10.83 c-12.73-2.56-26.13-1.61-38.37,2.76c-10.4,3.72-19.61,9.99-27.21,17.98c-9.88,10.4-17.65,22.42-22.77,35.84 c-0.46,1.21,0.52,2.82,1.75,3.08c2.56,0.53,4.98,1.56,6.84,3.44c2.17,2.2,2.9,5.2,3.52,8.13c0.43,2.01,3.66,2.54,4.57,0.6 c7.61-16.32,20.08-30.58,36.08-39.12c9.22-4.93,19.89-6.74,30.22-5.07c4.69,0.75,9.24,2.1,13.76,3.54 c4.99,1.59,9.83,3.52,14.48,5.95c8.81,4.6,16.68,10.68,23.4,18.01c1.53,1.67,4.18,0.3,4.27-1.77c0.06-1.6-0.35-3.35,0.02-4.92 c0.27-1.13,1.06-2.01,1.95-2.73c2.3-1.87,5.38-2.79,8.27-3.21c1.34-0.19,2.07-1.89,1.75-3.08 C334.29,232.79,332.95,232.29,331.61,232.48z"/></g></g><g><g id="change6_1"><path fill="#ceafd8" d="M347.76,249.2c-1.53,0.6-2.96,1.47-4.2,2.55c-0.42-3.02,0.03-6.11-0.33-9.14c-0.35-3.03-1.8-6.24-4.63-7.38 c-0.99-0.4-2.07-0.51-3.14-0.53c-1.06-0.02-2.13,0.04-3.18,0.19c-5.12-7.48-12.11-15.3-21.53-21.81 c-12.03-8.31-24.37-11.93-29.68-13.44c-6.54-1.87-13.98-3.93-24.05-3.76c-13.51,0.23-23.51,4.32-27.01,5.88 c-13.79,6.15-21.71,15.33-27,21.6c-8.15,9.66-13.39,19.75-16.78,28.69c-1.71-0.34-3.48-0.42-5.2-0.25 c-5.67,0.57-10.85,3.52-15.29,7.08c-0.28,0.23-0.57,0.46-0.89,0.64c5.64-19.25,13.37-33.61,19.38-43.1 c6.63-10.46,12.35-19.3,23.4-27.52c13.5-10.02,27.26-13.41,35.23-14.65c7.34-1.15,26.2-3.06,46.29,6.43 c13.47,6.36,21.16,14.85,30.34,25.2C327.58,214.99,338.44,229.17,347.76,249.2z"/></g><g id="change3_5"><path fill="#5e5c5a" d="M347.09,246.79c-1.97,0.81-3.67,1.81-5.3,3.19c1.42,0.59,2.85,1.18,4.27,1.77 c-0.6-4.85,0.48-9.78-1.81-14.33c-0.9-1.8-2.39-3.42-4.23-4.28c-2.4-1.11-5.17-1.09-7.74-0.75c0.72,0.41,1.44,0.83,2.16,1.24 c-8.04-11.69-18.61-21.38-31.2-28c-9.65-5.07-20.38-8.68-31.08-10.83c-12.73-2.56-26.13-1.61-38.37,2.76 c-10.4,3.72-19.61,9.99-27.21,17.98c-9.88,10.4-17.65,22.42-22.77,35.84c1.03-0.58,2.05-1.16,3.08-1.75 c-4.4-0.81-8.79-0.28-12.93,1.4c-1.88,0.76-3.69,1.68-5.41,2.76c-1.73,1.09-3.25,2.49-4.97,3.56c1.22,0.94,2.45,1.88,3.67,2.82 c4.8-16.29,12-31.43,21.16-45.69c4.65-7.24,9.66-14.15,16.13-19.89c7.06-6.25,15.45-11.08,24.32-14.23 c3.49-1.24,7.06-2.24,10.68-2.99c1.37-0.29,2.75-0.53,4.14-0.75c0.23-0.04,0.47-0.07,0.7-0.11c0.19-0.03,0.86-0.12,0.3-0.04 c0.65-0.09,1.3-0.16,1.96-0.24c7.1-0.76,14.35-0.65,21.4,0.51c9.59,1.57,18.9,4.9,27.16,10.07c7.17,4.49,13.16,10.43,18.81,16.67 c4.9,5.4,9.63,10.93,13.92,16.83c5.33,7.34,10.09,15.09,14.25,23.15c1.19,2.3,2.33,4.63,3.43,6.98c0.57,1.22,2.33,1.53,3.42,0.9 c1.25-0.73,1.47-2.19,0.9-3.42c-7.38-15.8-16.92-30.56-28.48-43.63c-5.82-6.58-11.72-13.07-18.75-18.39 c-7.95-6.01-17.26-10.25-26.91-12.67c-13.99-3.5-28.93-3.28-42.82,0.59c-9.14,2.54-17.89,6.65-25.6,12.18 c-7.65,5.5-13.94,12.29-19.3,20.01c-9.73,13.99-17.67,29.1-23.2,45.24c-0.86,2.51-1.66,5.04-2.41,7.58 c-0.61,2.06,1.82,3.98,3.67,2.82c1.48-0.93,2.8-2.14,4.27-3.11c1.51-1,3.09-1.91,4.75-2.63c3.26-1.42,6.9-2.13,10.44-1.48 c1.43,0.26,2.56-0.39,3.08-1.75c4.41-11.58,11.04-21.98,19.27-31.22c3.4-3.82,7.09-7.44,11.21-10.48c2.48-1.84,5.1-3.5,7.82-4.96 c1.42-0.76,2.87-1.48,4.34-2.13c0.28-0.12,0.56-0.25,0.84-0.37c0.55-0.24-0.53,0.22,0.07-0.03c0.25-0.1,0.5-0.2,0.74-0.3 c10.7-4.27,22.62-5.88,34.05-4.27c5.18,0.73,10.23,2.14,15.23,3.61c4.88,1.44,9.67,3.16,14.29,5.29 c13.59,6.29,25.14,15.94,33.63,28.29c0.46,0.67,1.27,1.35,2.16,1.24c1.67-0.22,3.77-0.51,5.38,0.14c1.19,0.48,1.99,1.65,2.45,2.8 c1.46,3.57,0.48,7.69,0.95,11.43c0.27,2.19,2.51,3.25,4.27,1.77c0.92-0.78,1.98-1.45,3.1-1.91c1.25-0.51,2.13-1.66,1.75-3.08 C349.84,247.36,348.35,246.28,347.09,246.79z"/></g></g></g></svg>