<?xml version="1.0" encoding="UTF-8" standalone="no"?><svg xmlns="http://www.w3.org/2000/svg" xmlns:xlink="http://www.w3.org/1999/xlink" contentScriptType="text/ecmascript" fill="#000000" width="491.9" zoomAndPan="magnify" contentStyleType="text/css" viewBox="-0.3 -3.7 491.9 503.7" height="503.7" preserveAspectRatio="xMidYMid meet" version="1"><g><path fill="#a02321" d="M411.56,444.93c-1.45-2.9-2.93-5.72-4.47-8.42-.76-4.46-130.53-3.56-131.23-2-1.44,3.2-2.82,6.49-4.15,9.87-4.66,11.8-8.71,24.66-12.23,38.2,5.88,2.18,11.88,4.11,17.94,5.9,18.15,5.35,37.07,8.9,56.55,10.49,7.65,.62,15.37,1.03,23.18,1.03,24.75,0,61.16-41.58,54.42-55.07Z"/></g><g><path fill="#8f1e0a" d="M267.9,134.43c-4.96,3.72-46.43-131.49,123.94-102.9,0,0,3.84-18.79,16.09-27.31,9.51-6.61,40.11-7.92,56.08,14.63,27.63,39.01-8.94,67.46-29.3,62.59,0,0,21.59,76.54-15.7,92.24,0,0-33.36-127.56-151.11-39.25Z"/></g><g><path fill="#7f180a" d="M464.01,18.85c-15.97-22.55-46.57-21.24-56.08-14.63-12.25,8.52-16.09,27.31-16.09,27.31-2.95-.5,19.29,10.69,29.04,23.44,8.28,10.82,13.83,26.48,13.83,26.48,20.36,4.86,56.93-23.58,29.3-62.59Z"/></g><g><path fill="#fcc7ad" d="M69.73,200.33c-.03,.19-.53,.55-1.19,.98-2.23,1.44-3.55,3.92-3.62,6.57-.14,5.61,1.68,9.42,14.14,22.26,12.56,12.93,24.94,11.11,41.82,25.88,.09,.09,.19,.18,.27,.28,3.79,3.93,9.76-2.05,5.98-5.97-2.46-2.56-5.59-5.23-8.96-8.03,2.41,1.05,4.88,1.78,7.34,2.1,.26,.29,.52,.58,.78,.87,2.29,2.56,5.48,1.14,6.65-1.27,1.66-.43,3.26-1.08,4.75-2.06,8.4-5.54,6.62-14.63,.83-19.75-5.09-14.83-12.74-33.83-20.95-47.12-7.72-12.49-26.57-19.43-38.41-27.57-16.49-11.33-18.09,1.43-5.81,14.25,1.53,1.6,3.38,1.5,4.84,.63,2.23,2.79,4.57,5.48,6.89,8.18,1.92,2.69,3.96,5.23,5.47,7.33-2.68,.58-4.88,4.4-2.57,7.36,1.44,1.86,2.84,3.74,4.21,5.64-1.08-.92-2.52-1.35-3.8-1.02-1.77-1.57-3.62-2.98-5.59-4.08-2.21-1.23-6.82,.32-7.17,7.25-1.96,.15-6.93,2.42-5.9,7.27Z"/></g><g><path fill="#ea8872" d="M85.35,208.73c4.04-.62,7.59-3.67,10.78-6.01,3.25-2.38,6.4-4.15,10.09-5.72,2.94-1.25,6.14-2.87,8.33-5.26,.63-.69,1.51-1.71,1.23-2.73-.36-1.29-2.13-2.05-3.23-2.54-4.99-2.24-10.61-2.36-15.98-2.35-2.91,0-5.81,.43-8.69,.98,.04,.06,.06,.12,.1,.17,1.44,1.86,2.84,3.74,4.21,5.64-1.08-.92-2.52-1.35-3.8-1.02-1.67-1.47-3.41-2.78-5.24-3.85-.99,.21-1.99,.42-2.98,.6-.06,1.27,.17,2.6,.16,3.99,0,1.83-.41,3.63-.84,5.4-.7,2.87-1.98,6.16-1.43,9.15,.58,3.16,4.57,3.96,7.3,3.55Z"/></g><g><path fill="#7f4c2e" d="M.95,61.05c1.27-1.21,3.32-1.01,4.37,.4L114.38,207.56c1.3,1.76,1.12,4.2-.42,5.75-1.93,1.93-5.14,1.65-6.71-.58L.54,64.92c-.84-1.19-.69-2.83,.37-3.83l.04-.04Z"/></g><g><path fill="#fcc7ad" d="M79.8,199.46c1.95-4.09,2.47-8.05,2.09-12.53-.17-1.95,1.44-3.47,3.11-4.07,5.27-1.89,10.55-3.78,15.82-5.67,.35,.22,15.25,.08,17.44,2.73,1.95,2.36,7.61,12.83-2.79,15.5-1.93,.18-3.96,.03-6.03,.03-3.59,0-7.17,.01-10.76,.02-.51,.53-1.02,1.06-1.5,1.56-3.7,3.81-7.59,6.83-12.62,8.63-3.82,1.37-6.21-3.18-4.77-6.21Z"/></g><g><path fill="#fcc7ad" d="M309.98,215.3c.43-2.99,1.93-5.03,3.94-6.22,3.17-3.41,7.96-3.74,11.83-1.7,4.24-.27,8.41,1.83,9.87,6.47,1.38-.84,2.91-1.3,4.47-1.45,.03-1.15,.05-2.29,.08-3.44,.26-11.7,17.42-14.37,20.59-2.77,.33,1.21,4.05-1.84,4.36-.63,4.04-.97-5.27,15.19-.67,33.62,1.4,5.63,40.83,15.53,40.83,15.53-.35,6.31-23.65,46.02-28.2,46.45,.02,.59-64.81,17.67-64.8,18.26-12.65,.22-34.74-43.91-45.27-47.88-2.04-.77-2.47-3.46-.81-4.88,11.17-9.55,44.76-23.66,44.73-26.11-.93-1.4-1.09-24.32-.96-25.26Z"/></g><g><path fill="#ee7854" d="M359.61,239.87c1.61-.23,3.22-.47,4.84-.71-4.57-18.42,4.72-34.55,.68-33.59-.32-1.21-4.03,1.84-4.36,.63-3.18-11.6-20.33-8.93-20.59,2.77-.03,1.15-.05,2.29-.08,3.44-1.56,.15-3.1,.61-4.47,1.45-1.46-4.64-5.63-6.74-9.87-6.47-3.87-2.04-8.66-1.71-11.83,1.7-2.01,1.19-3.51,3.23-3.94,6.22-.07,.49-.06,6.96,.1,13.24,11.84,12.46,33.69,13.55,49.53,11.33Z"/></g><g><path fill="#fbc6af" d="M270.6,106.22c-1.23,8.73-1.7,17.44-1.75,25.38-.12,18.7-4.05,28.19-3.78,37.98,1.36,49.65,41.26,63.85,64.37,64.1,72,.79,85.49-83.36,87.04-126.06-13.38-10.01-21.1-34.8-37-42.43-37.54-18.03-85.56-7.01-108.88,41.04Z"/></g><g><path fill="#ea8872" d="M319.01,174.73c-.28,0-.56-.12-.77-.34-2.71-2.94-3.69-9.47-.31-16.29,.26-.53,.91-.74,1.43-.48,.53,.26,.74,.9,.48,1.43-2.92,5.89-2.2,11.55-.04,13.89,.4,.43,.37,1.11-.06,1.51-.21,.19-.48,.29-.74,.28Z"/></g><g fill="#081b1c"><g><path d="M283.35,149.13c.02,5.17,2.53,9.36,5.6,9.34,3.07-.01,5.54-4.22,5.52-9.39-.02-5.17-2.53-9.36-5.6-9.34s-5.54,4.22-5.52,9.39Z"/><path d="M299.66,130.32s-10.02-16.35-19.91-.5c0,0,8.75-7.65,19.91,.5Z"/></g><g><path d="M361.21,148.79c.02,5.17-2.45,9.38-5.52,9.39-3.07,.01-5.58-4.17-5.6-9.34-.02-5.17,2.45-9.38,5.52-9.39,3.07-.01,5.58,4.17,5.6,9.34Z"/><path d="M344.73,130.13s9.88-16.44,19.9-.67c0,0-8.81-7.57-19.9,.67Z"/></g></g><g><path fill="#e77238" d="M201.42,277.97c.64,.35,1.28,.7,1.92,.99-.65-.3-1.29-.64-1.92-.99Z"/></g><g><path fill="#e77238" d="M169,247.37c2.83,3.01,5.65,5.99,8.39,8.84-2.74-2.85-5.57-5.83-8.39-8.84Z"/></g><g><path fill="#e77238" d="M208.28,367.27c-10.12-1.23-21.77-5.42-34.83-14.58,13.09,9.18,24.73,13.37,34.83,14.58Z"/></g><g><path fill="#e77238" d="M197.68,275.6c.92,.69,1.86,1.31,2.8,1.87-.94-.56-1.88-1.18-2.8-1.87Z"/></g><g><path fill="#e77238" d="M139.98,216.65c3.96,3.9,9.89,10.22,16.54,17.36-6.65-7.13-12.58-13.46-16.54-17.36-.3-.3-.93-.33-1.8-.12,.87-.21,1.5-.18,1.8,.12Z"/></g><g><path fill="#e77238" d="M185.28,264.27c2.5,2.49,4.83,4.75,6.92,6.67-2.09-1.92-4.43-4.18-6.92-6.67Z"/></g><g><path fill="#faa11b" d="M200.48,277.47c.31,.19,.63,.33,.94,.5-.31-.17-.63-.32-.94-.5Z"/></g><g><path fill="#faa11b" d="M225.61,280.37c.12-.03,.23-.05,.35-.08-.12,.03-.23,.05-.35,.08Z"/></g><g><path fill="#faa11b" d="M203.35,278.97c.38,.17,.76,.31,1.14,.47-.38-.15-.76-.29-1.14-.47Z"/></g><g><path fill="#faa11b" d="M221.81,281.12c.34-.05,.67-.09,1.01-.15-.34,.06-.67,.1-1.01,.15Z"/></g><g><path fill="#faa11b" d="M206.26,280.11c.41,.13,.82,.25,1.22,.36-.41-.12-.82-.23-1.22-.36Z"/></g><g><path fill="#faa11b" d="M117.17,230.61c1.79-1.64,3.62-3.21,5.44-4.65-1.82,1.45-3.65,3.01-5.44,4.65Z"/></g><g><path fill="#faa11b" d="M212.27,281.4c.42,.05,.85,.09,1.27,.12-.43-.03-.85-.07-1.27-.12Z"/></g><g><path fill="#faa11b" d="M125.32,223.88c1.78-1.32,3.52-2.51,5.13-3.53-1.61,1.02-3.35,2.21-5.13,3.53Z"/></g><g><path fill="#faa11b" d="M289.92,247.94c-.34,.11-.69,.25-1.03,.38,.35-.12,.7-.26,1.04-.38h0Z"/></g><g><path fill="#faa11b" d="M252.57,268.36c.08-.04,.15-.09,.23-.13-.08,.04-.15,.09-.23,.13Z"/></g><g><path fill="#e77238" d="M382.41,247.74c-.41,24.14-.47,24.08-.09-.05-.35-.03-.7-.08-1.06-.08-8.42-3.14-22.55,31.49-56.93,31.5-25.16,0-25.21-31.1-26.07-31.44-16.01-6.34-63.1,37.61-85.47,35.04-12.82-1.48-25-15.93-27.5-18.42-2.5-2.49-5.15-5.21-7.9-8.07-2.74-2.85-5.57-5.83-8.39-8.84-4.24-4.51-8.49-9.08-12.48-13.36-6.65-7.13-12.58-13.46-16.54-17.36-.3-.3-.93-.33-1.8-.12-1.75,.42-4.5,1.78-7.73,3.82-1.61,1.02-3.35,2.21-5.13,3.53-.89,.66-1.8,1.35-2.7,2.08-1.82,1.45-3.65,3.01-5.44,4.65-4.46,4.11-8.62,8.74-11.42,13.34-2.06,3.39,30.56,82.7,67.71,108.75,13.05,9.15,24.7,13.35,34.83,14.58,28.11,3.36,44.18-16.38,46.03-15.96,.2-.03,.27,.1,.19,.45h0c-2.86,31.3,12.76,50.4,16.44,92.06,.01,.12,.27,.31,.75,.55,.98,.49,3.03,.91,5.71,2.04,35.95,15.08,107.68,6.27,133.84-.61,.08-.02,.19-.34,.31-.87,3.12-13.87,17.31-193.79-29.15-197.19Zm-106.5,186.64s-.04,.09-.06,.13c-2.61-18.18-2.57-18.25,.06-.13Zm-3.81-107.4"/></g><g fill="#faa11b"><path d="M485.92,468.8c-8.22-38.25-20.36-92.76-28.82-122.01-10.59-36.66-25.76-97.6-74.69-99.11v.05c-.41,24.14-15.97,44.33-24.06,67.09-26.01,73.15-23.25,171.41-24.4,184.14,7.65,.62,15.37,1.03,23.18,1.03,24.75,0,81.87-3.06,128.78-31.2Z"/><path d="M277.25,310.37c6.85-19.86,13.54-63.35,12.24-63-.34,.12-12.69,2.72-50.74,26.28-9.54,5.91-19.79,8.61-26.49,7.77-10.53-1.32-27.57-15.01-43.27-34.04-3.94-4.78-8.49-9.08-12.48-13.36-6.65-7.13-12.58-13.46-16.54-17.36-.3-.3-.93-.33-1.8-.12-1.75,.42-4.5,1.78-7.73,3.82-1.61,1.02-3.35,2.21-5.13,3.53-.89,.66-1.8,1.35-2.7,2.08-1.82,1.45-3.65,3.01-5.44,4.65-4.46,4.11-8.62,8.74-11.42,13.34-2.06,3.39,30.56,82.7,67.71,108.75,13.05,9.15,24.7,13.35,34.83,14.58,28.11,3.36,44.18-16.38,46.03-15.96,.2-.03,.27,.1,.19,.45-6.2,29.47,6.07,75.23-4.7,127,3.2,1.32,6.41,2.61,9.66,3.81,5.88,2.18,11.88,4.11,17.94,5.9,.74-13.78,1.28-27.92,.99-31.78-.26-3.43-.6-6.86-.99-10.29-.45-3.97-.99-7.94-1.56-11.91-2.61-18.18-6.13-36.32-7.57-54.51-.95-11.97-1.56-24.16,.23-36.09,1.72-11.48,4.96-22.59,8.74-33.55Z"/></g><g><g><path fill="#052523" d="M311.06,187.9l28.18-3.85s3.45,15.47-11.2,18.71c-13.1,2.89-16.98-14.86-16.98-14.86Z"/></g><g><path fill="#f15f60" d="M322.79,202.8c1.56,.36,3.3,.39,5.24-.04,7.83-1.73,10.49-6.96,11.27-11.45-8.15,.09-13.92,2.97-16.51,11.49Z"/></g></g><g><path fill="#c16c29" d="M255.62,351.5c2.63-12.42,6.96-24.14,13.09-35.27,.74-1.35-1.32-2.56-2.06-1.21-6.22,11.3-10.66,23.22-13.33,35.84-.32,1.5,1.99,2.14,2.31,.64h0Z"/></g><g><path fill="#8f1e0a" d="M378.06,72.2s-36.77,43.26-114.65,49.75c0,0-25.96-60.57,71.39-71.39,97.34-10.82,93.02,97.34,93.02,97.34,0,0-60.57,21.63-49.75-75.71Z"/></g><g><g><path fill="#fcc7ad" d="M402.8,147.95s24.97-18.59,23.45,5.43c-1.83,28.86-27.09,30.65-27.09,30.65l3.64-36.08Z"/></g><g><path fill="#ee7854" d="M409.5,145.53c-3.76,5.48-5.64,11.74-5.58,18.38,.02,1.54,2.41,1.54,2.39,0-.07-6.26,1.71-12.01,5.25-17.18,.88-1.28-1.2-2.47-2.06-1.21h0Z"/></g><g><path fill="#ee7854" d="M407.88,155.81l2.92,6.04c.67,1.39,2.73,.17,2.06-1.21l-2.92-6.04c-.67-1.39-2.73-.17-2.06,1.21h0Z"/></g></g><g><path fill="#c16c29" d="M434.42,489.26c-.66-2.37-16.16-58.31-16.96-73.6l2.82-.15c.79,14.97,16.7,72.41,16.86,72.99l-2.72,.76Z"/></g><g fill="#77150b"><path d="M298.16,94.23c-3.56,0-7.19-.32-10.87-1.05l.37-1.84c16.78,3.34,32.86-2.19,43.4-7.41,13.55-6.71,25.53-16.37,37.11-25.71l1.18,1.46c-11.66,9.4-23.72,19.13-37.46,25.93-8.5,4.21-20.55,8.61-33.73,8.61Z"/><path d="M299.35,74.62l-.88-1.66c16.05-8.51,32.71-16.31,49.54-23.17l.71,1.74c-16.76,6.84-33.37,14.61-49.36,23.09Z"/><path d="M402.33,125.09c-6.56-4.86-10.7-13.38-11.37-23.37-.59-8.86,1.37-17.57,3.27-25.99l1.83,.41c-1.87,8.29-3.8,16.86-3.22,25.45,.63,9.44,4.5,17.46,10.62,21.99l-1.12,1.51Z"/><path d="M425.16,132.95c-2.02-20.3-5.87-40.53-11.46-60.14l1.81-.51c5.61,19.72,9.49,40.06,11.52,60.47l-1.87,.19Z"/></g></svg>