<?xml version="1.0" encoding="UTF-8" standalone="no"?><svg xmlns="http://www.w3.org/2000/svg" xmlns:xlink="http://www.w3.org/1999/xlink" contentScriptType="text/ecmascript" fill="#000000" width="411.9" zoomAndPan="magnify" contentStyleType="text/css" viewBox="-0.3 -4.5 411.9 504.8" height="504.8" preserveAspectRatio="xMidYMid meet" version="1"><g><path fill="#f7995e" d="M410.14,160.67c-1.2-1.05-2.95-1.09-4.55-1.05c-5.53,0.16-11.05,0.54-16.36,1.1 c4.01-3.7,8.01-7.4,12.01-11.09c1.24-1.15,2.49-2.32,3.33-3.78c0.84-1.46,1.2-3.3,0.55-4.85c-0.48-1.15-1.63-2.03-2.84-2.18 c0.22-0.42,0.16-0.94-0.21-1.27c-0.02-0.01-0.04-0.02-0.05-0.03c0.81-1.11,1.29-2.35,0.98-3.66c-0.49-2.06-2.83-3.21-4.93-3.09 c-2.11,0.13-4.02,1.2-5.84,2.27c-4.57,2.65-9.14,5.3-13.7,7.45c3.66-4.53,7.32-9.05,10.98-13.58c1.03-1.28,2.09-2.61,2.52-4.2 c0.43-1.59,0.03-3.52-1.35-4.42c-1.08-0.7-2.52-0.62-3.7-0.11c-1.18,0.5-2.16,1.38-3.11,2.23c-6.25,5.63-12.51,11.25-18.77,16.88 c-0.19-0.2-0.43-0.32-0.68-0.34c0.38-4.35,0.45-8.72,0.16-13.07c-0.13-2.02-0.52-4.34-2.28-5.34c-1.69-0.97-3.95-0.15-5.23,1.32 c-1.27,1.47-1.8,3.43-2.29,5.31c-1.96,7.5-3.9,15-5.86,22.5c-11.29,7.82-22.73,15.44-34.3,22.86c-0.16-0.25-0.4-0.41-0.67-0.46 c0.03-0.24,0.07-0.47,0.08-0.71c0.35-5.76-2.73-11.75-7.91-14.33c-3.14-1.56-6.96-1.67-10.23-0.47 c20.61-39.13,21.08-80.92,9.04-105.22c-1.46-4.92-3.97-9.58-7.11-13.65c-5.42-7.04-12.65-12.5-20.26-17.09 C248.29,0.94,211.85-4.51,178.65,3.82c-12.94,3.25-48.62,14.28-55.71,44.06c-0.51-4.28-1.41-8.49-2.66-12.61 c-0.41-1.31-0.86-2.65-1.71-3.74c-0.84-1.1-2.16-1.91-3.54-1.82c-1.32,0.08-2.49,1-3.16,2.15c-0.66,1.15-0.88,2.5-0.92,3.83 c-0.15,5.19,2.2,10.09,4.49,14.75c-3.81-3.2-7.65-5.73-11.81-7.45c-1.97-0.82-4.43-1.4-6.09-0.06c-1.83,1.47-1.49,4.54,0.08,6.3 s3.93,2.53,6.17,3.23c3.95,1.22,7.9,2.45,11.85,3.68c-35.57,28.96-17.53,80.02,1.82,99.58c-3.66-2.32-8.64-2.64-12.57-0.68 c-5.18,2.58-8.26,8.57-7.91,14.33c0.01,0.18,0.04,0.36,0.06,0.54c-0.28,0.05-0.53,0.2-0.7,0.46c-11.49-7.36-22.83-14.93-34.04-22.69 c-1.95-7.5-3.9-15-5.86-22.5c-0.49-1.88-1.01-3.84-2.29-5.31c-1.27-1.47-3.53-2.29-5.22-1.32c-1.76,1-2.15,3.32-2.28,5.34 c-0.28,4.35-0.22,8.72,0.16,13.07c-0.25,0.02-0.49,0.14-0.68,0.34c-6.26-5.62-12.51-11.25-18.77-16.88 c-0.95-0.85-1.93-1.73-3.11-2.23c-1.18-0.51-2.63-0.59-3.71,0.11c-1.38,0.9-1.77,2.83-1.35,4.42c0.43,1.59,1.49,2.92,2.53,4.2 c3.66,4.53,7.32,9.05,10.98,13.58c-4.56-2.15-9.13-4.8-13.7-7.45c-1.82-1.06-3.73-2.14-5.83-2.27c-2.11-0.13-4.45,1.03-4.94,3.09 c-0.27,1.13,0.06,2.21,0.67,3.19c-0.02,0.01-0.04,0.02-0.06,0.03c-0.45,0.37-0.52,1.03-0.16,1.49c0.07,0.09,0.15,0.18,0.23,0.26 c-1.19,0.17-2.31,1.04-2.79,2.17c-0.66,1.56-0.29,3.39,0.54,4.85c0.84,1.46,2.1,2.64,3.34,3.78c4,3.7,8.01,7.4,12.01,11.09 c-5.3-0.56-10.83-0.94-16.36-1.1c-1.59-0.04-3.35-0.01-4.54,1.05c-1.23,1.09-1.44,3.06-0.69,4.53c1.23,2.4,4.24,3.16,6.89,3.66 c4.97,0.94,9.95,1.87,14.92,2.81c5.39,5.81,12.54,9.91,20.16,10.98c23.93,19.09,42.71,34.3,64.62,51.8l0.02,0.01 c8.38-14.04,16.29-28.36,23.69-42.94c-1.15-0.64-2.28-1.28-3.4-1.93l-0.01,0.02c-1.54-0.92-3.08-1.85-4.61-2.78 c0.25-0.41,0.17-0.92-0.15-1.26c3.3-1.33,6.17-3.7,7.92-6.79c0.2,0.23,0.49,0.35,0.78,0.35c0.21,0,0.42-0.06,0.6-0.19 c0.01-0.01,0.01-0.02,0.02-0.02c2.64,3.67,5.83,7,9.39,9.98c5.04,4.25,10.78,7.81,16.63,10.69c4.68,2.3,9.52,4.28,14.47,5.92 c4.76,1.58,9.63,2.84,14.56,3.77h0l0.04,1.77l0.18,8.7c-2.48-1.25-5-2.49-7.52-3.73c-13.64-6.68-27.72-13.21-41.18-20.33 c-2.59-1.37-5.16-2.76-7.7-4.17c-7.4,14.58-15.31,28.9-23.69,42.94c-1.37,2.32-2.77,4.63-4.17,6.93c2.32,1.43,4.7,2.91,7.11,4.41 c12.57,7.83,26.11,16.4,37.94,23.54c0.15,0.14,0.34,0.26,0.56,0.29c-2.79,19.58-6.31,45.82-9.84,72.71h0 c-0.53,4.08-1.07,8.19-1.61,12.29c-0.49,0.14-0.83,0.6-0.76,1.12c0.04,0.34,0.25,0.61,0.52,0.77c-2.88,22.33-3.63,35.81-5.98,54.28 c-3.4,26.8-7.91,54.62-7.91,54.62c-0.03,0.22-0.08,0.45-0.14,0.7c-0.54,2.38-2.23,5.99-6.99,6.63c-1.58-0.14-3.15-0.28-4.73-0.24 c-0.36,0.01-0.71,0.03-1.07,0.05c-3.13,0.22-6.25,1.06-8.8,2.85c-2.18,1.53-3.88,3.82-4.54,6.37c-0.33,1.31,0.46,2.65,1.75,3.05 c16.73,5.19,33.66,10.2,50.64,15.06c1.3,0.37,2.66-0.33,3.13-1.6c0.49-1.31,1.02-2.82,1.61-4.49c1.17-3.35,2.53-7.37,4.01-11.84 c5.06-15.18,13.79-44.53,19.86-61.49l0.03-0.13c1.77,0.35,3.47,0.69,5.06,1c0.69-2.52,1.4-5.03,2.09-7.55 c1.58-5.7,1.01-2.36,2.59-8.06c1.7-6.12,3.4-12.24,5.11-18.36c0.34-1.22,0.8-2.47,1.01-3.71c0.28-1.72,1.98-2.71,3.52-3.3 c1.46-0.57,3.03-0.79,4.58-1.03v0.06l10.07-1.46c0.08,0.53,0.53,0.91,1.04,0.91c0.05,0,0.1,0,0.15-0.01l0.14-0.02 c3.54,12.79,7.4,30.73,11.93,44.09c2.18-0.43,4.36-0.86,6.54-1.29c5.75,15.08,14.45,41.36,20.99,58.96 c1.47,3.96,2.92,7.87,4.34,11.71c0.56,1.51,1.11,3,1.66,4.48c0.47,1.26,1.83,1.96,3.13,1.59c16.98-4.85,33.91-9.86,50.64-15.06 c1.3-0.4,2.08-1.74,1.75-3.05c-0.65-2.55-2.36-4.84-4.53-6.37c-2.55-1.81-5.68-2.64-8.81-2.85c-0.35-0.03-0.71-0.04-1.06-0.05 c-2.72-0.07-5.42,0.28-8.11,0.71c-1.29,0.21-2.53-0.57-2.89-1.82c-0.03-0.08-0.04-0.18-0.06-0.26c-0.3-1.64-0.59-3.29-0.88-4.95 c-2.5-14.35-6.39-37.31-8.27-52.5c-2.62-21.24-3.07-35.15-5.14-55.35c0.03,0,0.07,0,0.1,0c0.58-0.03,1.03-0.53,1-1.11 c-0.03-0.58-0.53-1.03-1.11-1c-0.07,0-0.13,0-0.2,0c-0.3-2.84-0.59-5.65-0.89-8.44l-0.53,0.05c-0.13-1.37-0.26-2.72-0.38-4.06 c-2.6-27.09-5.27-48.31-9.13-72.76c11.56-6.97,24.78-15.34,37.15-23.05c2.76-1.72,5.49-3.42,8.14-5.05c-1.41-2.3-2.8-4.61-4.18-6.93 c-2.1-3.51-4.16-7.04-6.2-10.58c2.04,3.54,4.1,7.07,6.2,10.58l0.02-0.01c21.92-17.5,40.69-32.71,64.62-51.8 c7.63-1.08,14.78-5.17,20.17-10.98c4.97-0.94,9.94-1.87,14.92-2.81c2.65-0.49,5.66-1.25,6.89-3.66 C411.58,163.73,411.37,161.76,410.14,160.67z M267.76,342.41c-4.45,0.16-8.83,0.31-13.08,0.45 C258.93,342.73,263.31,342.58,267.76,342.41z M283.94,189.6l-0.01-0.02c-1.13,0.65-2.26,1.3-3.4,1.93v0 c-2.5,1.39-5.03,2.76-7.58,4.11c-13.74,7.27-28.13,13.94-42.02,20.77c-2.28,1.12-4.55,2.25-6.8,3.38l0.2-9.92 c-1.54,0.26-3.09,0.47-4.65,0.66c1.55-0.18,3.1-0.4,4.65-0.66c3.95-0.64,7.86-1.54,11.71-2.67c1.11-0.33,2.21-0.67,3.3-1.05 c10.43-3.48,20.26-8.82,28.9-15.63c4.47-3.51,8.62-7.44,12.36-11.7c1.84,3.26,4.95,5.7,8.49,6.97c-0.02,0.22,0.01,0.44,0.13,0.65 C287.46,187.49,285.7,188.55,283.94,189.6z"/></g><g><path fill="#fcdbe7" d="M153.76,493.81c-0.59,1.67-1.12,3.18-1.61,4.49c-0.47,1.26-1.83,1.97-3.13,1.6 c-16.97-4.86-33.91-9.87-50.64-15.06c-1.29-0.4-2.08-1.75-1.75-3.05c0.66-2.55,2.37-4.84,4.54-6.37c2.55-1.79,5.67-2.64,8.8-2.85 c2.7,2.31,4.38,5.82,4.39,9.39C127.68,485.37,140.79,489.38,153.76,493.81z M309.47,473.88c-2.55-1.81-5.68-2.64-8.81-2.85 c-2.7,2.32-4.38,5.82-4.38,9.39c-13.33,3.43-26.46,7.43-39.45,11.87c0.56,1.51,1.11,3,1.66,4.48c0.47,1.26,1.83,1.96,3.13,1.59 c16.98-4.85,33.91-9.86,50.64-15.06c1.3-0.4,2.08-1.74,1.75-3.05C313.35,477.7,311.64,475.41,309.47,473.88z"/></g><g><path fill="#722e47" d="M111.05,472.51c1.58-0.03,3.15,0.1,4.73,0.24c4.76-0.64,6.45-4.25,6.99-6.63c1.99,0.58,3.71,2.11,4.44,4.05 c0.36,0.95,0.54,2.02,1.25,2.58c9.92,2.55,19.71,5.62,29.31,9.22c-1.48,4.47-2.84,8.48-4.01,11.84 c-12.97-4.43-26.08-8.44-39.39-11.86c-0.01-3.56-1.69-7.08-4.39-9.39C110.34,472.54,110.69,472.52,111.05,472.51z M299.6,470.98 c-2.72-0.07-5.42,0.28-8.11,0.71c-1.29,0.21-2.53-0.57-2.89-1.82c-0.03-0.08-0.04-0.18-0.06-0.26c-0.3-1.64-0.59-3.29-0.88-4.95 c-1.89,0.64-3.5,2.12-4.21,3.98c-0.36,0.95-0.54,2.03-1.25,2.58c-10.06,2.59-19.98,5.71-29.7,9.36c1.47,3.96,2.92,7.87,4.34,11.71 c12.98-4.44,26.12-8.44,39.45-11.87c0-3.56,1.68-7.07,4.38-9.39C300.31,471.01,299.95,470.99,299.6,470.98z"/></g><g><path fill="#f9c449" d="M279.38,412.15c-15.96,3.15-31.92,6.31-47.89,9.46c-2.18,0.43-4.36,0.86-6.54,1.29 c-4.58-13.53-8.48-31.77-12.06-44.58l-0.08-0.54l-11.2,1.62v-0.06c-1.55,0.23-3.11,0.46-4.58,1.03c-1.54,0.59-3.24,1.59-3.52,3.3 c-0.21,1.25-0.67,2.49-1.01,3.71c-1.71,6.12-3.41,12.24-5.11,18.36c-1.58,5.7-1.01,2.36-2.59,8.06c-0.69,2.52-1.4,5.03-2.09,7.55 c-1.59-0.32-3.29-0.65-5.06-1c-16.28-3.25-38.98-7.93-46.83-9.55c2.38-18.71,3.11-32.28,6.09-55.14c0.58-4.44,1.16-8.89,1.74-13.32 c5.45,0.21,10.79,0.39,15.95,0.56c23.47,0.74,42.95,1.08,49.64,1.19c2.3-0.04,5.96-0.1,10.67-0.2c9.49-0.18,23.22-0.5,38.69-1 c6.01-0.19,12.26-0.41,18.64-0.65c0.13,1.34,0.26,2.69,0.38,4.06l0.53-0.05c0.33,3.13,0.66,6.29,1,9.49 C276.3,376.53,276.71,390.54,279.38,412.15z"/></g><g><path fill="#ffffff" d="M230.39,153.36c3.85,2.48,5.44,7.36,4.64,11.7c-0.79,4.34-3.63,8.15-7.04,11.15 c-3.39,2.97-7.42,5.25-11.75,6.74c-1.88,0.64-12.77,2.24-20.65,0.25c-4.63-1.47-8.93-3.85-12.52-6.99c-3.4-3-6.24-6.81-7.04-11.15 s0.79-9.23,4.63-11.7c3.8-2.44,8.82-2.15,13.34-1.4c2.53,0.43,5.05,0.9,7.54,1.43c5.08,1.08,10.53-0.59,15.51-1.43 C221.58,151.21,226.6,150.92,230.39,153.36z"/></g><g><path fill="#e38b68" d="M120.34,158.32c0.05,0.06,0.09,0.12,0.13,0.18c-1-0.84-2.01-1.77-3.01-2.78 C118.56,156.4,119.54,157.27,120.34,158.32z"/></g><g><path fill="#613224" d="M179.14,107.92c-0.2,1.61-1.67,2.74-3.27,2.53c-4.28-0.54-8.91,0.54-12.7,2.96 c-0.49,0.31-1.04,0.46-1.57,0.46c-0.97,0-1.92-0.48-2.47-1.36c-0.88-1.36-0.48-3.17,0.89-4.04c5-3.2,10.89-4.56,16.59-3.83 C178.22,104.85,179.35,106.32,179.14,107.92z M248.26,108.25c-4.92-3.04-10.68-4.32-16.23-3.61c-1.6,0.2-2.74,1.67-2.53,3.27 c0.2,1.61,1.67,2.74,3.27,2.53c4.22-0.54,8.63,0.45,12.42,2.79c0.49,0.29,1.01,0.43,1.54,0.43c0.98,0,1.94-0.49,2.49-1.4 C250.07,110.9,249.64,109.09,248.26,108.25z M304.98,49.35c-1.46-4.92-3.97-9.58-7.11-13.65c-5.42-7.04-12.65-12.5-20.26-17.09 C248.29,0.94,211.85-4.51,178.65,3.82c-12.94,3.25-48.62,14.28-55.71,44.06c-0.51-4.28-1.41-8.49-2.66-12.61 c-0.41-1.31-0.86-2.65-1.71-3.74c-0.84-1.1-2.16-1.91-3.54-1.82c-1.32,0.08-2.49,1-3.16,2.15c-0.66,1.15-0.88,2.5-0.92,3.83 c-0.15,5.19,2.2,10.09,4.49,14.75c-3.81-3.2-7.65-5.73-11.81-7.45c-1.97-0.82-4.43-1.4-6.09-0.06c-1.83,1.47-1.49,4.54,0.08,6.3 s3.93,2.53,6.17,3.23c3.95,1.22,7.9,2.45,11.85,3.68c-35.57,28.96-17.53,80.02,1.82,99.58c1.1,0.69,2.08,1.56,2.88,2.6l0.31-0.24 c10.45-16.88,13.87-37.94,9.54-57.3c2.1-3.03,3.81-6.32,5.07-9.78c2.74-7.58,3.27-15.94,1.55-23.8 c11.57,15.63,29.17,26.72,48.3,30.26c10.89,2.02,23.23,1.27,31.46-6.13c2.92-2.63,5.03-5.92,6.33-9.55 c4.62,2.75,9.37,5.25,14.34,7.31c13.52,5.62,28.98,7.9,42.86,3.23c0.38-0.13,0.74-0.26,1.12-0.39c2.13,20.91,5.79,47.12,13.59,64.72 c0.38-0.69,0.74-1.38,1.11-2.07C316.55,115.44,317.01,73.65,304.98,49.35z"/></g><g><path fill="#f7995e" d="M279.38,412.15c1.87,15.19,5.77,38.16,8.27,52.5c-1.89,0.64-3.5,2.12-4.21,3.98 c-0.36,0.95-0.54,2.03-1.25,2.58c-10.06,2.59-19.98,5.71-29.7,9.36c-6.54-17.6-15.24-43.88-20.99-58.96 C247.46,418.46,263.42,415.31,279.38,412.15z M122.91,465.43c-0.03,0.22-0.08,0.45-0.14,0.7c1.99,0.58,3.71,2.11,4.44,4.05 c0.36,0.95,0.54,2.02,1.25,2.58c9.92,2.55,19.71,5.62,29.31,9.22c5.06-15.18,13.79-44.53,19.86-61.49l0.03-0.13 c-16.28-3.25-38.98-7.93-46.83-9.55C127.41,437.61,122.91,465.43,122.91,465.43z M410.83,165.2c-1.24,2.4-4.24,3.16-6.89,3.66 c-4.98,0.94-9.95,1.87-14.92,2.81c-5.39,5.81-12.54,9.91-20.17,10.98c-23.93,19.09-42.7,34.3-64.62,51.8l-0.02,0.01 c-8.38-14.04-16.29-28.36-23.68-42.94c1.15-0.64,2.28-1.28,3.4-1.93l0.01,0.02c1.97-1.18,3.93-2.36,5.9-3.56 c-3.85-1.17-7.27-3.75-9.24-7.24c-3.74,4.26-7.89,8.18-12.36,11.7c3.22-3.82,5.45-8.49,5.86-13.44c0.49-5.92-1.88-12.18-6.66-15.7 c-6.11-4.5-15.01-3.76-21.39,0.34c-6.38,4.09-10.56,10.92-13.26,18c-2.09,5.48-3.43,11.55-1.79,17.18c1.2,4.13,4.42,7.84,8.35,9.26 c-1.1,0.38-2.19,0.72-3.3,1.05c-3.85,1.13-7.76,2.02-11.71,2.67c-12.35,2.04-25.06,1.77-37.4-0.57c-4.93-0.93-9.8-2.19-14.56-3.77 c3.44-1.65,6.19-5.05,7.29-8.8c1.63-5.63,0.29-11.7-1.8-17.18c-2.7-7.09-6.88-13.91-13.26-18c-6.38-4.09-15.28-4.84-21.39-0.34 c-4.78,3.53-7.14,9.79-6.66,15.7c0.36,4.35,2.12,8.48,4.72,12.01c-3.95-3.31-7.46-7.05-10.26-11.22c-0.18,0.29-0.21,0.54-0.41,0.91 c-1.92,3.52-5.3,6.15-9.11,7.39l-0.05,0.08c1.96,1.19,3.92,2.37,5.89,3.55l0.01-0.02c1.13,0.65,2.26,1.3,3.4,1.93 c-7.4,14.58-15.31,28.9-23.69,42.94l-0.02-0.01c-21.91-17.5-40.69-32.71-64.62-51.8c-7.62-1.08-14.77-5.17-20.16-10.98 c-4.97-0.94-9.95-1.87-14.92-2.81c-2.65-0.49-5.66-1.25-6.89-3.66c-0.75-1.46-0.54-3.44,0.69-4.53c1.2-1.05,2.95-1.09,4.54-1.05 c5.53,0.16,11.06,0.54,16.36,1.1c-4.01-3.7-8.01-7.4-12.01-11.09c-1.24-1.15-2.5-2.32-3.34-3.78c-0.84-1.46-1.2-3.3-0.54-4.85 c0.65-1.55,2.52-2.63,4.1-2.04l0.13-0.13c-1.41-1.41-2.55-3.12-2.12-4.98c0.49-2.06,2.83-3.21,4.94-3.09 c2.1,0.13,4.02,1.2,5.83,2.27c4.57,2.65,9.14,5.3,13.7,7.45c-3.66-4.53-7.31-9.05-10.98-13.58c-1.04-1.28-2.1-2.61-2.53-4.2 c-0.42-1.59-0.03-3.52,1.35-4.42c1.08-0.7,2.53-0.62,3.71-0.11c1.18,0.5,2.16,1.38,3.11,2.23c6.51,5.86,13.02,11.71,19.53,17.56 c-0.47-4.68-0.54-9.39-0.24-14.09c0.13-2.02,0.53-4.34,2.28-5.34c1.69-0.97,3.95-0.15,5.22,1.32c1.28,1.47,1.81,3.43,2.29,5.31 c1.96,7.5,3.91,15,5.86,22.5c11.47,7.94,23.07,15.68,34.83,23.2l0.02-0.03c-0.08-0.49-0.13-0.98-0.16-1.48 c-0.35-5.76,2.73-11.75,7.91-14.33c3.92-1.96,8.9-1.64,12.57,0.68c1,1.01,2.01,1.94,3.01,2.78c-0.04-0.06-0.08-0.12-0.13-0.18 l0.31-0.24c10.45-16.88,13.87-37.94,9.54-57.3c2.1-3.03,3.81-6.32,5.07-9.78c2.74-7.58,3.27-15.94,1.55-23.8 c11.57,15.63,29.17,26.72,48.3,30.26c10.89,2.02,23.23,1.27,31.46-6.13c2.92-2.63,5.03-5.92,6.33-9.55 c4.62,2.75,9.37,5.25,14.34,7.31c13.52,5.62,28.98,7.9,42.86,3.23c0.38-0.13,0.74-0.26,1.12-0.39c2.13,20.91,5.79,47.12,13.59,64.72 c0.38-0.69,0.74-1.38,1.11-2.07c3.27-1.2,7.09-1.1,10.23,0.47c5.18,2.58,8.26,8.57,7.91,14.33c-0.03,0.57-0.1,1.13-0.19,1.68 c11.83-7.58,23.53-15.37,35.08-23.37c1.96-7.5,3.9-15,5.86-22.5c0.49-1.88,1.02-3.84,2.29-5.31c1.28-1.47,3.54-2.29,5.23-1.32 c1.76,1,2.15,3.32,2.28,5.34c0.31,4.69,0.23,9.41-0.24,14.1c6.51-5.86,13.03-11.71,19.53-17.57c0.95-0.85,1.93-1.73,3.11-2.23 c1.18-0.51,2.62-0.59,3.7,0.11c1.38,0.9,1.77,2.83,1.35,4.42c-0.43,1.59-1.49,2.92-2.52,4.2c-3.66,4.53-7.32,9.05-10.98,13.58 c4.56-2.15,9.13-4.8,13.7-7.45c1.82-1.06,3.73-2.14,5.84-2.27c2.1-0.13,4.44,1.03,4.93,3.09c0.44,1.86-0.69,3.56-2.11,4.98 l0.13,0.13c1.58-0.59,3.45,0.49,4.1,2.04c0.65,1.56,0.28,3.39-0.55,4.85c-0.84,1.46-2.09,2.64-3.33,3.78 c-4.01,3.7-8.01,7.4-12.01,11.09c5.3-0.56,10.83-0.94,16.36-1.1c1.6-0.04,3.35-0.01,4.55,1.05 C411.37,161.76,411.58,163.73,410.83,165.2z M175.87,110.45c1.6,0.21,3.07-0.93,3.27-2.53c0.21-1.6-0.93-3.07-2.53-3.27 c-5.7-0.73-11.59,0.63-16.59,3.83c-1.36,0.87-1.77,2.69-0.89,4.04c0.55,0.88,1.5,1.36,2.47,1.36c0.54,0,1.09-0.15,1.57-0.46 C166.96,110.99,171.59,109.91,175.87,110.45z M230.39,153.36c-3.79-2.44-8.81-2.15-13.33-1.4c-4.98,0.84-10.43,2.51-15.51,1.43 c-2.48-0.53-5.01-1-7.54-1.43c-4.52-0.75-9.54-1.05-13.34,1.4c-3.84,2.48-5.43,7.36-4.63,11.7c0.79,4.34,3.63,8.15,7.04,11.15 c3.58,3.15,7.89,5.52,12.52,6.99c7.87,1.99,18.76,0.39,20.65-0.25c4.33-1.49,8.37-3.77,11.75-6.74c3.4-3,6.24-6.81,7.04-11.15 C235.82,160.72,234.23,155.84,230.39,153.36z M248.26,108.25c-4.92-3.04-10.68-4.32-16.23-3.61c-1.6,0.2-2.74,1.67-2.53,3.27 c0.2,1.61,1.67,2.74,3.27,2.53c4.22-0.54,8.63,0.45,12.42,2.79c0.49,0.29,1.01,0.43,1.54,0.43c0.98,0,1.94-0.49,2.49-1.4 C250.07,110.9,249.64,109.09,248.26,108.25z M187.14,219.74l0.01,0.31c5.09,4.46,11.72,7.11,18.48,7.46 c4.4-0.23,8.73-1.44,12.64-3.47c-11.27-1.77-22.12-6.23-31.3-13L187.14,219.74z"/></g><g><path fill="#f67459" d="M177.86,179.53c2.09,5.47,3.43,11.55,1.8,17.18c-1.1,3.75-3.85,7.15-7.29,8.8 c-4.95-1.64-9.8-3.62-14.47-5.92c-5.86-2.89-11.6-6.44-16.63-10.69c-2.6-3.52-4.36-7.65-4.72-12.01c-0.49-5.91,1.88-12.17,6.66-15.7 c6.11-4.5,15.01-3.75,21.39,0.34S175.15,172.44,177.86,179.53z M246.05,161.7c-6.38,4.09-10.56,10.92-13.26,18 c-2.09,5.48-3.43,11.55-1.79,17.18c1.2,4.13,4.42,7.84,8.35,9.26c10.43-3.48,20.26-8.82,28.9-15.63c3.22-3.82,5.45-8.49,5.86-13.44 c0.49-5.92-1.88-12.18-6.66-15.7C261.33,156.86,252.43,157.6,246.05,161.7z M224.13,219.77l0.2-9.92 c-12.35,2.04-25.06,1.77-37.4-0.57l0.04,1.77c9.19,6.76,20.03,11.23,31.3,13c2.1-1.1,4.07-2.43,5.85-3.99L224.13,219.77z"/></g><g><path fill="#68bbab" d="M130.74,191.52c-7.4,14.58-15.31,28.9-23.69,42.94c-1.37,2.32-2.77,4.63-4.17,6.93 c2.32,1.43,4.7,2.91,7.11,4.41l28.46-50.11C135.85,194.32,133.28,192.94,130.74,191.52z"/></g><g><path fill="#68bbab" d="M194.36,230.77c6.96,2.97,15.13,2.96,22.07-0.04c6.39-2.75,11.65-8,14.49-14.34 c-2.28,1.12-4.55,2.25-6.8,3.38l-0.01,0.28c-5.09,4.46-11.73,7.11-18.49,7.46c-6.76-0.35-13.39-3-18.48-7.46l-0.01-0.31 c-2.48-1.25-5-2.49-7.52-3.73C182.43,222.56,187.81,227.97,194.36,230.77z"/></g><g><path fill="#68bbab" d="M308.4,241.39c-1.41-2.3-2.8-4.61-4.18-6.93c-8.38-14.04-16.29-28.36-23.68-42.94 c-2.5,1.39-5.03,2.76-7.58,4.11c9.1,16.94,18.2,33.88,27.3,50.82C303.02,244.71,305.75,243.02,308.4,241.39z"/></g><g><path fill="#92d0c5" d="M272.95,195.62c-13.74,7.27-28.13,13.94-42.02,20.77c-2.84,6.35-8.1,11.59-14.49,14.34 c-6.95,2.99-15.12,3.01-22.07,0.04c-6.55-2.8-11.93-8.21-14.74-14.75c-13.64-6.68-27.72-13.21-41.18-20.33l-28.46,50.11 c12.69,7.9,26.35,16.56,38.26,23.74l0.25,0.03c-2.79,19.58-6.32,45.85-9.85,72.78c5.45,0.21,10.79,0.39,15.95,0.56 c23.47,0.74,42.95,1.08,49.64,1.19c2.3-0.04,5.96-0.1,10.67-0.2c9.49-0.18,23.22-0.5,38.69-1c6.01-0.19,12.26-0.41,18.64-0.65 c-2.6-27.09-5.27-48.31-9.13-72.76c11.56-6.97,24.78-15.34,37.15-23.05C291.16,229.5,282.05,212.56,272.95,195.62z"/></g><g><path fill="#68b8a9" d="M262.89,269.15c-0.51,0-0.96-0.37-1.04-0.89c-1.17-7.39-2.49-15.31-4.03-24.2 c-0.1-0.58,0.29-1.12,0.86-1.22c0.58-0.1,1.12,0.29,1.22,0.86c1.54,8.9,2.86,16.82,4.04,24.23c0.09,0.58-0.3,1.12-0.88,1.21 C263,269.15,262.94,269.15,262.89,269.15z"/></g><g><path fill="#d05e4e" d="M213.39,139.78c0.4,0.43,0.37,1.1-0.06,1.49c-0.2,0.19-0.46,0.28-0.72,0.28c-0.28,0-0.57-0.11-0.78-0.34 c-1.87-2.03-4.63-3.27-7.38-3.31c-0.05,0-0.1,0-0.15,0c-2.71,0-5.44,1.14-7.33,3.07c-0.41,0.42-1.08,0.42-1.49,0.01 c-0.42-0.41-0.42-1.08-0.01-1.5c2.33-2.37,5.7-3.74,9.03-3.71C207.8,135.84,211.13,137.33,213.39,139.78z M105.75,169.12 c0.51,0.29,1.15,0.12,1.44-0.39c0.74-1.3,2.27-2.18,3.97-2.32c1.98-0.15,3.74,0.65,4.88,1.35c1.64,1,3,2.4,4.12,3.63 c0.21,0.23,0.49,0.35,0.78,0.35c0.25,0,0.51-0.09,0.71-0.27c0.43-0.39,0.46-1.06,0.07-1.49c-1.22-1.34-2.72-2.87-4.58-4.01 c-1.4-0.86-3.61-1.85-6.15-1.65c-2.39,0.19-4.55,1.48-5.64,3.37C105.07,168.18,105.25,168.83,105.75,169.12z M290.11,171.74 c0.29,0,0.57-0.12,0.78-0.35c1.12-1.23,2.48-2.63,4.12-3.63c1.14-0.7,2.91-1.5,4.88-1.35c1.7,0.13,3.23,1.02,3.97,2.32 c0.29,0.51,0.94,0.68,1.44,0.39c0.51-0.29,0.68-0.94,0.39-1.44c-1.09-1.89-3.25-3.18-5.64-3.37c-2.54-0.19-4.74,0.79-6.15,1.65 c-1.86,1.14-3.36,2.67-4.58,4.01c-0.39,0.43-0.36,1.1,0.07,1.49C289.6,171.65,289.85,171.74,290.11,171.74z M126.27,164.84 c-0.15-0.57-0.72-0.9-1.29-0.76c-0.57,0.15-0.9,0.72-0.76,1.29c1.19,4.62,3.26,9.09,6.17,13.29c0.21,0.3,0.54,0.46,0.87,0.46 c0.21,0,0.42-0.06,0.6-0.19c0.48-0.33,0.6-0.99,0.27-1.47C129.37,173.47,127.4,169.22,126.27,164.84z M313.2,170.23 c-7.77,4.98-15.72,9.94-23.63,14.74c-0.5,0.3-0.66,0.95-0.35,1.45c0.2,0.33,0.55,0.51,0.9,0.51c0.19,0,0.38-0.05,0.55-0.15 c7.92-4.81,15.88-9.78,23.67-14.77c0.49-0.31,0.64-0.97,0.32-1.46C314.34,170.06,313.69,169.91,313.2,170.23z M402.09,137.54 c-0.44-0.39-1.1-0.35-1.49,0.08c-0.44,0.49-0.98,1-1.7,1.6l-14.25,12.01c-0.45,0.38-0.5,1.04-0.13,1.49 c0.21,0.25,0.51,0.38,0.81,0.38c0.24,0,0.48-0.08,0.68-0.25l14.25-12.01c0.79-0.66,1.39-1.24,1.9-1.81 C402.56,138.6,402.52,137.93,402.09,137.54z M363.69,137.19c-0.45,0.37-0.51,1.04-0.14,1.49c4.21,5.08,5.41,12.52,2.97,18.52 c-0.22,0.54,0.04,1.16,0.58,1.38c0.13,0.05,0.26,0.08,0.4,0.08c0.42,0,0.81-0.25,0.98-0.66c2.72-6.7,1.39-15-3.3-20.66 C364.81,136.88,364.14,136.82,363.69,137.19z M122.36,185.37c-8.22-4.99-16.48-10.14-24.56-15.31c-0.49-0.31-1.15-0.17-1.46,0.32 c-0.32,0.49-0.17,1.15,0.32,1.46c8.09,5.19,16.37,10.35,24.6,15.34c0.17,0.1,0.36,0.15,0.55,0.15c0.36,0,0.71-0.18,0.9-0.51 C123.01,186.33,122.86,185.68,122.36,185.37z M12.37,139.23c-0.89-0.75-1.53-1.38-2.03-1.99c-0.37-0.45-1.03-0.52-1.49-0.16 c-0.45,0.37-0.52,1.03-0.16,1.49c0.58,0.72,1.31,1.44,2.31,2.28l14.25,12.01c0.2,0.17,0.44,0.25,0.68,0.25c0.3,0,0.6-0.13,0.81-0.38 c0.38-0.45,0.32-1.11-0.13-1.49L12.37,139.23z M46.09,137.33c-4.69,5.66-6.02,13.96-3.3,20.66c0.17,0.41,0.56,0.66,0.98,0.66 c0.13,0,0.27-0.03,0.4-0.08c0.54-0.22,0.8-0.84,0.58-1.38c-2.43-6-1.24-13.44,2.97-18.52c0.37-0.45,0.31-1.12-0.14-1.49 C47.12,136.82,46.46,136.88,46.09,137.33z"/></g><g><path fill="#68b8a9" d="M148.64,269.65c-0.05,0-0.1,0-0.15-0.01c-0.58-0.08-0.98-0.62-0.9-1.2c1.6-11.16,2.87-19.48,3.78-24.74 c0.1-0.58,0.64-0.96,1.22-0.86c0.58,0.1,0.96,0.65,0.86,1.22c-0.91,5.23-2.17,13.54-3.77,24.68 C149.61,269.27,149.15,269.65,148.64,269.65z"/></g><g><path fill="#f59549" d="M226.69,375.77c0.08,0.58-0.32,1.11-0.89,1.2l-12.91,1.87c-0.05,0.01-0.1,0.01-0.15,0.01 c-0.52,0-0.97-0.38-1.04-0.91c-0.08-0.58,0.32-1.11,0.89-1.2l12.91-1.87C226.08,374.79,226.61,375.19,226.69,375.77z M213.47,357.53 c1.53-4.37,2.01-8.99,2.48-13.45c0.06-0.58-0.36-1.1-0.94-1.16c-0.58-0.06-1.1,0.36-1.16,0.94c-0.45,4.34-0.92,8.83-2.37,12.97 c-1.31,3.75-3.39,6.81-5.94,8.85l-0.02-21.38c0-0.58-0.47-1.06-1.06-1.06h0c-0.58,0-1.06,0.47-1.06,1.06l0.02,30.78 c0,0.58,0.47,1.06,1.06,1.06h0c0.58,0,1.06-0.47,1.06-1.06l-0.01-6.81C209,366.05,211.81,362.26,213.47,357.53z M274.23,354.69 c-8.11,0.45-16.38-4.63-19.67-12.05c-0.24-0.53-0.86-0.78-1.39-0.54c-0.53,0.24-0.77,0.86-0.54,1.39 c3.54,7.98,11.88,13.33,20.58,13.33c0.38,0,0.76-0.01,1.14-0.03c0.58-0.03,1.03-0.53,1-1.11 C275.31,355.1,274.81,354.65,274.23,354.69z M155.01,342.1c-0.54-0.24-1.16,0-1.39,0.54c-2.84,6.4-9.28,11.09-16.42,11.94 c-0.58,0.07-0.99,0.59-0.92,1.17c0.06,0.54,0.52,0.93,1.05,0.93c0.04,0,0.08,0,0.13-0.01c7.86-0.94,14.96-6.11,18.1-13.18 C155.78,342.96,155.54,342.34,155.01,342.1z"/></g><g><path fill="#2b291e" d="M236.02,126.25c4.51,0,8.16,3.65,8.16,8.16c0,4.5-3.65,8.16-8.16,8.16c-4.5,0-8.16-3.66-8.16-8.16 C227.86,129.89,231.52,126.25,236.02,126.25z M166.88,134.4c0,4.5,3.66,8.16,8.16,8.16c4.51,0,8.16-3.66,8.16-8.16 c0-4.51-3.65-8.16-8.16-8.16C170.54,126.25,166.88,129.89,166.88,134.4z"/></g></svg>