<?xml version="1.0" encoding="UTF-8" standalone="no"?><svg xmlns="http://www.w3.org/2000/svg" xmlns:xlink="http://www.w3.org/1999/xlink" contentScriptType="text/ecmascript" fill="#000000" width="268.1" zoomAndPan="magnify" contentStyleType="text/css" viewBox="116.0 107.7 268.1 283.9" height="283.9" preserveAspectRatio="xMidYMid meet" version="1"><g><g id="change1_1"><path fill="#f2f2f2" d="M375.02,187.19c-5.36-5.32-12.63-8.49-21.61-9.42c-4.52-0.47-8.83-0.54-13-0.62c-1.34-0.02-2.67-0.05-4-0.09 c-6.11-0.18-12.69-0.32-20.11-0.45c-1.56-0.03-3.12-0.05-4.68-0.07c0.74-2.08,1.39-4.25,1.91-6.49l0.05-0.23 c1.12-5.19,1.5-10.68,1.22-17.27c-0.18-4.14-0.52-9.63-1.62-15.33c-0.89-4.59-2.58-11.39-7-17.32 c-5.95-7.98-14.94-12.24-24.05-11.39c-7.81,0.72-14.65,4.87-20.33,12.31c-2.93,3.83-5.54,8.09-7.76,12.66 c-0.16,0.32-0.31,0.65-0.47,0.97c-0.37-0.75-0.76-1.49-1.16-2.21c-5.67-10.37-12.61-16.62-21.2-19.11 c-8.68-2.51-19.03-0.97-27.67,4.14c-8.64,5.1-14.52,13.48-16.12,22.98c-1.25,7.43-0.38,15.7,2.6,24.58c0.91,2.71,2,5.4,3.27,8.07 c-4.34-0.11-8.64,0.01-12.82,0.37c-5.57,0.48-12.05,1.09-18.52,2.31c-9.38,1.76-17.87,5.7-25.24,11.71 c-10.89,8.89-17.48,22-19.58,38.98c-0.81,6.5-0.9,12.8-0.92,18.69c-0.02,4.35-0.03,8.71-0.04,13.06l-0.17,53.13 c-0.02,4.49-0.03,8.98-0.04,13.46c-0.01,4.83,0.41,10.55,3.61,16.32c2.3,4.15,5.7,7.75,10.41,11.02 c13.07,9.07,28.29,10.81,40.09,11.31c1.73,0.07,3.46,0.13,5.16,0.18c0.06,2.17,0.06,4.41,0.01,6.84c-0.04,1.94-0.14,6.49,2.5,11.26 c3.22,5.78,9.14,9.52,15.86,10c0.5,0.04,0.99,0.05,1.48,0.05c5.9,0,10.62-2.46,13.24-3.83l0.2-0.1c2.7-1.4,5.4-3.16,8.28-5.37 c3.97-3.05,7.9-6.58,12.37-11.11c2.57-2.6,4.77-5.09,6.68-7.56l40.88,0.12c7.89,10.61,18.88,18.89,31.22,23.31 c8.19,2.93,16.5,1.24,22.21-4.53c4.71-4.76,5.87-10.36,6.34-14.16l0.02-0.19c0.15-1.4,0.28-2.81,0.37-4.21 c3.36,0.02,6.79,0.03,10.23-0.03c5.97-0.11,13.76-0.75,21.12-4.8c9.24-5.09,14.67-14.33,15.28-26.02c0.26-4.9,0.22-9.67,0.18-14.29 c-0.02-1.97-0.03-3.93-0.03-5.89l0.41-99.19v-0.03C384.07,208.03,384.1,196.21,375.02,187.19z"/></g><g><g><g id="change2_1"><path fill="#bfb4c5" d="M366.06,213.67c-0.16,38.55-0.32,77.1-0.48,115.64c-0.01,3.38-0.07,6.93-1.74,9.88 c-3.44,6.06-11.75,6.77-18.72,6.75c-8.91-0.02-17.81-0.05-26.72-0.08c-10.57-0.02-21.14-0.06-31.71-0.09 c-20.25-0.06-40.51-0.11-60.77-0.17c-11.42-0.04-22.84-0.06-34.26-0.1c-3.5-0.01-6.98-0.02-10.48-0.03 c-13.96-0.04-28.8-0.33-40.48-7.97c-2.57-1.68-5.02-3.83-6.06-6.71c-0.7-1.95-0.7-4.07-0.7-6.14 c0.09-26.26,0.17-52.52,0.26-78.78c0.04-12.94,0.32-26.71,7.42-37.52c5.05-7.7,12.9-11.4,13.44-11.68 c4.28-2.23,8.66-3.44,17.38-4.44c10.6-1.22,15.9-1.83,26.58-0.98c10.74,0.85,21.48,1.44,32.24,1.86 c4.51,0.18,9.03,0.33,13.54,0.45c6.41,0.17,12.82,0.3,19.23,0.41c4.37,0.06,8.75,0.13,13.13,0.18 c23.92,0.29,47.85,0.4,71.74,1.36c2.78,0.11,10.31,0.33,14.36,5.5C365.97,204.48,366.07,209.26,366.06,213.67z"/></g><g id="change3_2"><path fill="#3d3a39" d="M363.56,213.67c-0.11,25.84-0.21,51.67-0.32,77.51c-0.05,12.85-0.07,25.7-0.16,38.56 c-0.02,2.6,0.01,5.44-1.2,7.82c-0.87,1.72-2.25,2.94-3.95,3.82c-3.74,1.95-8.35,2.05-12.48,2.05 c-25.57,0.03-51.13-0.14-76.7-0.22c-25.78-0.07-51.57-0.16-77.35-0.22c-11.18-0.03-22.69,0.55-33.72-1.6 c-5.15-1.01-10.18-2.66-14.68-5.4c-1.92-1.17-3.94-2.53-5.19-4.45c-1.56-2.39-1.39-5.16-1.38-7.9 c0.08-25.76,0.17-51.52,0.25-77.29c0.04-10.55-0.07-21.85,4.32-31.69c3.12-7,8.49-12.38,15.27-15.84 c3.07-1.57,6.51-2.59,10.2-3.26c5.29-0.96,10.71-1.49,16.06-1.92c11.59-0.93,23.23,0.67,34.81,1.29 c25.39,1.37,50.82,1.59,76.25,1.86c12.87,0.14,25.75,0.3,38.62,0.63c5.88,0.15,11.77,0.29,17.65,0.59 c1.82,0.09,2.88,0.19,4.63,0.61c1.87,0.45,3.75,1.14,5.27,2.35C363.59,204.04,363.57,209.22,363.56,213.67 c-0.01,3.22,4.99,3.22,5,0c0.01-5.48-0.34-11.39-4.47-15.49c-3.27-3.25-7.82-4.54-12.28-5c-5.24-0.54-10.59-0.48-15.86-0.63 c-6.64-0.19-13.28-0.33-19.93-0.44c-26.32-0.44-52.66-0.4-78.97-1.3c-13.18-0.45-26.33-1.26-39.49-2.18 c-5.27-0.37-10.52-0.36-15.78,0.09c-5.67,0.49-11.4,1.05-16.99,2.1c-6.8,1.28-12.94,4.11-18.3,8.48 c-8.82,7.2-12.64,17.88-14,28.88c-0.69,5.59-0.78,11.23-0.81,16.85c-0.03,6.59-0.04,13.19-0.07,19.78 c-0.04,13.3-0.09,26.59-0.13,39.89c-0.02,6.65-0.05,13.3-0.07,19.94c-0.01,3.04,0.16,6.06,1.67,8.78 c1.33,2.4,3.46,4.25,5.69,5.8c9.26,6.42,20.91,8.09,31.91,8.56c12.58,0.54,25.23,0.23,37.83,0.26 c13.26,0.04,26.53,0.08,39.79,0.11c26.49,0.08,52.98,0.14,79.46,0.22c6.34,0.02,12.69,0.15,19.03,0.04 c4.71-0.08,9.71-0.56,13.91-2.88c5-2.75,6.99-7.77,7.28-13.25c0.34-6.45,0.1-12.97,0.13-19.43c0.11-26.58,0.22-53.17,0.33-79.75 c0.03-6.48,0.05-12.96,0.08-19.44C368.57,210.45,363.57,210.45,363.56,213.67z"/></g></g><g><g id="change4_1"><path fill="#faf2ef" d="M299.9,278.84c-0.06-1.78-0.1-3.94-0.3-10.34c-0.26-8.28-0.34-9.71-0.44-11.07 c-0.27-3.67-0.42-3.9-0.99-10.41c-0.38-4.37-0.57-6.56-0.6-7.57c-0.1-3.72-0.6-7.43-0.63-11.16c-0.01-0.69-0.04-1.83-0.75-2.89 c-0.89-1.32-2.62-1.73-4.19-1.99c-8.24-1.35-16.64-1.35-25-1.34c-33.61,0.03-67.23,0.05-100.84,0.08l-0.56,1.45 c0.08,28.81,0.17,57.62,0.25,86.42c0.01,1.75,0.02,3.55,0.69,5.16c0.69,1.65,2.02,2.96,3.55,3.89c3.71,2.27,8.31,2.33,12.66,2.33 c34.17,0,68.34,0,102.51,0.01c3.5,0,7.03,0,10.42-0.87c1.3-0.33,2.62-0.82,3.53-1.8c1.49-1.62,1.57-3.79,1.59-4.76 C300.98,305.3,300.06,283.62,299.9,278.84z"/></g><g id="change3_6"><path fill="#3d3a39" d="M302.4,278.84c-0.23-7.26-0.22-14.56-0.77-21.81c-0.32-4.27-0.83-8.53-1.2-12.8 c-0.47-5.43-0.67-10.88-1-16.32c-0.2-3.38-2.12-5.78-5.41-6.64c-3.33-0.87-6.97-1.08-10.4-1.32 c-7.36-0.52-14.75-0.39-22.12-0.38c-14.98,0.01-29.95,0.02-44.93,0.03c-16.81,0.01-33.61,0.03-50.42,0.04 c-1.19,0-2.01,0.79-2.41,1.84c-0.16,0.4-0.34,0.81-0.47,1.22c-0.32,0.98-0.18,2.12-0.17,3.14c0.01,2.58,0.02,5.16,0.02,7.74 c0.02,5.25,0.03,10.49,0.05,15.74c0.03,10.32,0.06,20.65,0.09,30.97c0.02,5.25,0.03,10.49,0.05,15.74 c0.01,5.1-0.1,10.21,0.06,15.31c0.07,2.32,0.48,4.67,1.87,6.59c1.3,1.8,3.05,3.16,5.07,4.08c4.22,1.92,8.89,1.9,13.43,1.9 c20.65,0,41.3,0,61.96,0c10.37,0,20.74,0,31.1,0c5.02,0,10.14,0.28,15.14-0.22c4.66-0.47,9.77-1.71,11.03-6.9 c0.63-2.59,0.37-5.49,0.34-8.14c-0.04-3.26-0.12-6.52-0.21-9.77c-0.17-5.9-0.39-11.79-0.61-17.68 C302.46,280.41,302.43,279.62,302.4,278.84c-0.11-3.21-5.11-3.22-5,0c0.36,10.86,0.92,21.72,0.92,32.58 c0,2.44,0.47,5.43-2.33,6.44c-4.27,1.53-9.26,1.06-13.71,1.06c-9.95,0-19.91,0-29.86,0c-19.82,0-39.65,0-59.47,0 c-4.66,0-9.36,0.16-14.02-0.07c-3.42-0.17-8.08-0.87-9.89-4.24c-0.97-1.79-0.69-4.13-0.69-6.09c-0.01-2.5-0.01-5-0.02-7.49 c-0.01-5-0.03-9.99-0.04-14.99c-0.06-19.82-0.12-39.63-0.17-59.45c0-0.66,0.03-1.34-0.01-2c0,0.06,0-0.74-0.04-0.44 c-0.02,0.19,0.03-0.09,0.04-0.13c0.11-0.41,0.32-0.82,0.47-1.22c-0.8,0.61-1.61,1.22-2.41,1.84 c29.29-0.02,58.58-0.05,87.86-0.07c7.22-0.01,14.44-0.1,21.66,0.04c3.53,0.07,7.07,0.22,10.58,0.55 c1.53,0.15,3.07,0.33,4.59,0.57c0.88,0.14,2.49,0.22,3.15,0.92c0.68,0.72,0.43,2.18,0.47,3.09c0.07,1.86,0.23,3.72,0.36,5.58 c0.16,2.17,0.21,4.35,0.39,6.52c0.36,4.45,0.82,8.89,1.24,13.33c0.75,7.85,0.67,15.79,0.93,23.67 C297.5,282.05,302.5,282.06,302.4,278.84z"/></g></g><g><g id="change5_2"><path fill="#87837a" d="M225.92,345.6c-2.81,6.24-8.03,11.61-13.13,16.4c-4.82,4.51-9.93,9.03-16.14,11.28 c-1.03,0.37-2.35,0.59-3.04-0.25c-0.42-0.52-0.42-1.25-0.4-1.91c0.24-8.56-0.28-17.15-1.55-25.61 C203.08,345.53,214.5,345.56,225.92,345.6z"/></g><g id="change3_3"><path fill="#3d3a39" d="M223.76,344.34c-3.61,7.84-10.39,14.05-16.83,19.59c-3.05,2.63-6.41,5.11-10.17,6.64 c-0.47,0.19-0.97,0.31-1.43,0.49c-0.37,0.15-0.56-0.13,0.04,0.38c0.59,0.5,0.32,0.29,0.33-0.33c0.01-0.73,0.04-1.45,0.05-2.18 c0.03-2.42,0-4.85-0.09-7.27c-0.21-5.64-0.77-11.25-1.6-16.83c-0.8,1.05-1.61,2.11-2.41,3.16c11.42,0.04,22.84,0.06,34.26,0.1 c3.22,0.01,3.22-4.99,0-5c-11.42-0.04-22.84-0.06-34.26-0.1c-1.78-0.01-2.64,1.59-2.41,3.16c0.8,5.37,1.27,10.8,1.44,16.22 c0.09,2.75,0.09,5.49,0.03,8.24c-0.03,1.15-0.02,2.34,0.55,3.38c0.69,1.25,2,1.97,3.4,2.07c2.3,0.16,4.7-1.14,6.68-2.17 c2.12-1.1,4.09-2.45,5.98-3.9c3.83-2.94,7.4-6.28,10.79-9.71c3.91-3.96,7.6-8.34,9.95-13.43c0.56-1.23,0.35-2.69-0.9-3.42 C226.1,342.81,224.33,343.11,223.76,344.34z"/></g></g><g><g id="change5_1"><path fill="#87837a" d="M318.59,366.48c-0.18,1.66-0.74,3.67-2.37,4c-0.68,0.14-1.39-0.08-2.04-0.31 c-11.87-4.16-21.9-13.17-27.5-24.4c10.57,0.03,21.14,0.06,31.71,0.09C319.29,352.7,319.36,359.64,318.59,366.48z"/></g><g id="change3_10"><path fill="#3d3a39" d="M316.09,366.48c-0.05,0.42-0.37,1.04-0.45,1.51c-0.08,0.47-0.34-0.08,0.17,0.03 c-0.33-0.08-0.64-0.16-0.96-0.26c-1.6-0.54-3.15-1.21-4.66-1.96c-2.98-1.48-5.85-3.25-8.45-5.34 c-5.4-4.35-9.78-9.76-12.89-15.95c-0.72,1.25-1.44,2.51-2.16,3.76c10.57,0.03,21.14,0.06,31.71,0.09 c-0.83-0.83-1.67-1.67-2.5-2.5C316.77,352.71,316.84,359.62,316.09,366.48c-0.15,1.34,1.25,2.5,2.5,2.5 c1.47,0,2.35-1.15,2.5-2.5c0.75-6.86,0.68-13.78-0.19-20.63c-0.17-1.34-1.01-2.5-2.5-2.5c-10.57-0.02-21.14-0.06-31.71-0.09 c-1.99-0.01-2.99,2.1-2.16,3.76c5.88,11.7,16.29,21,28.63,25.42c2.07,0.74,4.31,0.83,5.96-0.84c1.36-1.37,1.74-3.29,1.97-5.13 c0.16-1.34-1.27-2.5-2.5-2.5C317.1,363.98,316.25,365.14,316.09,366.48z"/></g></g><g><g id="change6_1"><path fill="#f7f1c1" d="M342.96,272.07c-4.72-4.05-11.94-4.5-16.61-1.35c-3.07,2.07-4.47,5.3-4.68,5.78 c-0.37,0.88-1.1,2.68-1.01,5.05c0.14,3.68,2.18,6.21,3.09,7.34c2.98,3.7,6.92,4.94,8.53,5.34c0,0,1.99,0.96,6.47-0.43 c0.38-0.12,7.71-2.66,8.93-9.84C348.82,277.26,343.6,272.62,342.96,272.07z"/></g><g id="change3_1"><path fill="#3d3a39" d="M344.73,270.3c-6.19-5.17-16.02-5.86-21.95,0.15c-2.01,2.03-3.57,4.72-4.24,7.52 c-0.95,3.98,0.01,8.1,2.42,11.37c2.22,3.01,5.03,5.23,8.51,6.6c0.53,0.21,1.08,0.43,1.64,0.56c0.56,0.14,0.07,0.08-0.07-0.11 c0.12,0.15,0.53,0.24,0.75,0.31c1.05,0.33,2.24,0.39,3.34,0.31c5.24-0.36,10.25-3.16,13.1-7.62 C352.2,283.18,350.12,274.97,344.73,270.3c-1.02-0.88-2.53-1-3.54,0c-0.9,0.9-1.03,2.65,0,3.54c1.35,1.17,2.04,2.07,2.85,3.51 c1.32,2.36,1.68,5.12,0.77,7.76c-0.35,1-1.04,2.1-1.64,2.77c-0.39,0.44-0.81,0.86-1.25,1.24c-0.19,0.17-0.39,0.34-0.59,0.49 c0.28-0.21-0.28,0.19-0.37,0.25c-0.73,0.5-1.5,0.92-2.3,1.31c-0.13,0.06-0.26,0.11-0.38,0.17c0.18-0.09,0.55-0.18,0.19-0.08 c-0.13,0.04-0.25,0.09-0.38,0.14c-1.35,0.45-2.72,0.68-4.14,0.65c-0.28-0.01-0.59-0.08-0.12,0.01c-0.16-0.03-0.32-0.07-0.48-0.1 c-0.52-0.09-0.24-0.07,0.19,0.12c-0.84-0.36-2.18-0.7-2.78-0.97c-1.33-0.58-2.61-1.36-3.68-2.33c-0.58-0.53-1.11-1.11-1.61-1.72 c-0.36-0.43,0.12,0.18-0.18-0.23c-0.18-0.24-0.35-0.49-0.52-0.74c-0.75-1.15-1.33-2.4-1.53-3.77c-0.22-1.5,0.04-2.97,0.55-4.38 c0.1-0.29,0.36-0.85,0.08-0.23c0.05-0.11,0.09-0.21,0.14-0.32c0.22-0.45,0.45-0.89,0.71-1.31c1.58-2.61,4.06-4.36,7.09-4.82 c3.27-0.49,6.85,0.47,9.39,2.59c1.04,0.87,2.52,1.01,3.54,0C345.62,272.95,345.77,271.17,344.73,270.3z"/></g></g><g><g id="change6_2"><path fill="#f7f1c1" d="M345.55,226.55c-7.14-4.6-14.88-1.29-17.71-0.08c-1.9,0.81-4.54,1.99-6.35,4.8 c-1.95,3.03-1.79,6.19-1.68,8.29c0.09,1.81,0.42,6.86,4.43,11.26c3.96,4.35,8.92,5.22,10.35,5.42c1.32,0.21,6.2,0.82,11-2.18 c6.05-3.79,7.1-10.27,7.25-11.32C353.72,236.57,350.95,230.03,345.55,226.55z"/></g><g id="change3_4"><path fill="#3d3a39" d="M346.81,224.39c-6.98-4.35-15.6-2.82-22.47,0.98c-4.24,2.35-6.74,6.5-7.06,11.31 c-0.21,3.2,0.19,6.67,1.35,9.66c2.8,7.23,9.5,11.92,17.14,12.54c8.44,0.68,15.98-4.62,18.73-12.49 C357.33,238.27,353.89,229.08,346.81,224.39c-2.69-1.78-5.2,2.55-2.52,4.32c2.77,1.83,4.75,4.64,5.66,7.83 c0.46,1.62,0.62,3.25,0.52,4.93c-0.01,0.17-0.15,1.29-0.05,0.67c-0.02,0.1-0.03,0.21-0.05,0.31c-0.07,0.35-0.13,0.7-0.22,1.04 c-0.57,2.34-1.47,4.32-3.22,6.22c-2.4,2.6-5.75,4.11-9.28,4.22c-0.62,0.02-1.25,0-1.87-0.05c-0.11-0.01-0.86-0.09-0.43-0.04 c0.41,0.05-0.18-0.03-0.27-0.04c-1-0.16-1.98-0.39-2.95-0.71c-3.2-1.07-6.03-3.33-7.77-6.28c-1.41-2.4-1.93-4.9-2.06-7.24 c-0.18-3.34,0.23-6.61,3-8.86c1.21-0.98,2.7-1.61,4.12-2.21c-0.51,0.21,0.2-0.08,0.38-0.15c0.31-0.12,0.62-0.24,0.94-0.35 c0.73-0.26,1.47-0.5,2.22-0.7c3.91-1.03,7.84-0.74,11.32,1.42C347.02,230.41,349.54,226.09,346.81,224.39z"/></g></g><g><g id="change7_1"><path fill="#fdd4e2" d="M349.28,315.69c-0.23-0.27-0.63-0.29-0.98-0.29c-11.08,0-22.16,0-33.24,0l0.3,0.5 c-0.16,3.39-0.31,6.78-0.47,10.17c-0.01,0.3-0.02,0.64,0.18,0.87c0.22,0.25,0.6,0.28,0.93,0.28c10.76,0.17,21.52,0.21,32.28,0.12 c0.27,0,0.56-0.01,0.78-0.17c0.34-0.25,0.38-0.74,0.38-1.16c0.01-3.17,0.01-6.34,0.02-9.51 C349.48,316.22,349.47,315.91,349.28,315.69z"/></g><g id="change3_5"><path fill="#3d3a39" d="M350.54,313.53c-1.21-0.85-2.82-0.63-4.22-0.63c-1.49,0-2.98,0-4.47,0c-2.98,0-5.95,0-8.93,0 c-5.95,0-11.91,0-17.86,0c-1.87,0-3.15,2.13-2.16,3.76c0.1,0.17,0.2,0.34,0.3,0.5c-0.11-0.42-0.23-0.84-0.34-1.26 c-0.1,2.1-0.19,4.2-0.29,6.29c-0.09,1.88-0.74,4.67,0.54,6.26c1.41,1.75,4.13,1.29,6.13,1.32c2.15,0.03,4.3,0.05,6.46,0.07 c4.39,0.04,8.77,0.05,13.16,0.05c2.15,0,4.3-0.01,6.46-0.02c2.06-0.01,4.9,0.44,6.13-1.65c0.6-1.02,0.52-2.25,0.52-3.39 c0-1.19,0-2.38,0.01-3.57c0-1.11,0-2.22,0.01-3.33c0-1.24,0.07-2.39-0.53-3.51c-1.54-2.83-5.85-0.31-4.32,2.52 c-0.12-0.53-0.17-0.59-0.15-0.2c0,0.24,0,0.48,0,0.71c0,0.48,0,0.95,0,1.43c0,0.87,0,1.74,0,2.62s0,1.74,0,2.62 c0,0.7,0.14,1.59-0.09,2.17c0.21-0.37,0.43-0.74,0.64-1.1c-0.07,0.08-0.14,0.15-0.2,0.23c0.37-0.21,0.74-0.43,1.1-0.64 c-1.02,0.39-2.74,0.1-3.84,0.11c-1.32,0.01-2.65,0.01-3.97,0.02c-2.81,0.01-5.63,0.01-8.44,0c-2.73-0.01-5.46-0.03-8.19-0.06 c-1.32-0.01-2.65-0.03-3.97-0.05c-0.74-0.01-1.49-0.02-2.23-0.03c-0.33,0-0.66-0.01-0.99-0.02c-0.17,0-0.33-0.01-0.5-0.01 c-0.36-0.02-0.33,0,0.08,0.05c0.3,0.3,0.6,0.6,0.9,0.9c0.16,0.55,0.22,0.52,0.18-0.09c0.01-0.32,0.03-0.65,0.04-0.97 c0.02-0.48,0.04-0.97,0.07-1.45c0.05-1.13,0.1-2.26,0.16-3.39c0.09-1.89,0.55-3.96-0.47-5.64c-0.72,1.25-1.44,2.51-2.16,3.76 c5.62,0,11.25,0,16.87,0c2.73,0,5.46,0,8.19,0c1.41,0,2.81,0,4.22,0c0.74,0,1.49,0,2.23,0c0.33,0,0.66,0,0.99,0 c0.17,0,0.33,0,0.5,0c0.34,0.02,0.33,0-0.04-0.05c1.11,0.77,2.78,0.2,3.42-0.9C352.17,315.7,351.65,314.31,350.54,313.53z"/></g></g><g><g id="change7_2"><path fill="#fdd4e2" d="M244.8,193.55c-4.51-0.12-9.03-0.27-13.54-0.45c-5.38-5.33-10.64-10.81-15.11-16.92 c-5.46-7.48-9.73-16.04-11-25.22c-0.5-3.62-0.5-7.42,0.89-10.81c2.35-5.71,8.43-9.29,14.56-10.01c2.16-0.26,4.41-0.2,6.44,0.59 c2.14,0.83,3.9,2.4,5.41,4.13c2.29,2.63,4.08,5.66,5.55,8.82c4.51,9.64,6.18,20.38,6.67,31.02 C244.98,180.97,244.89,187.25,244.8,193.55z"/></g><g id="change3_9"><path fill="#3d3a39" d="M244.8,191.05c-4.52-0.12-9.03-0.27-13.54-0.45c0.59,0.24,1.18,0.49,1.77,0.73 c-7.04-6.98-13.94-14.24-18.94-22.87c-2.32-4.01-4.21-8.26-5.41-12.74c-1.17-4.35-2.01-9.27-0.66-13.67 c1.15-3.74,4.22-6.46,7.71-8.03c3.49-1.57,8.26-2.41,11.69-0.33c3.79,2.3,6.3,6.79,8.17,10.66c2.15,4.44,3.61,9.2,4.64,14.01 c2.48,11.55,2.25,23.45,2.08,35.19c-0.05,3.22,4.95,3.22,5,0c0.18-12.43,0.32-24.99-2.4-37.19c-1.29-5.77-3.25-11.47-6.1-16.67 c-2.61-4.77-6.42-10.07-11.91-11.66c-5.04-1.46-11.05-0.02-15.48,2.6c-4.51,2.66-7.84,7-8.72,12.21 c-0.96,5.67,0.2,11.67,2.01,17.06c1.8,5.35,4.42,10.41,7.56,15.08c3.78,5.62,8.27,10.74,12.97,15.6 c1.18,1.22,2.38,2.43,3.59,3.63c0.73,0.73,1.36,1.29,2.43,1.39c0.96,0.09,1.94,0.08,2.9,0.11c3.55,0.13,7.09,0.24,10.64,0.34 C248.01,196.14,248.01,191.13,244.8,191.05z"/></g></g><g><g id="change7_3"><path fill="#fdd4e2" d="M296,165.9c-1.06,4.76-3.23,9.19-5.68,13.4c-2.22,3.8-4.69,7.48-7.87,10.51c-1.64,1.58-3.45,2.97-5.3,4.32 c-4.38-0.05-8.76-0.11-13.13-0.18c-0.31-5.61-0.35-11.25-0.37-16.87c-0.01-5.76-0.01-11.54,0.81-17.24 c1.43-9.98,5.35-19.6,11.32-27.73c1.84-2.5,4.11-5.01,7.16-5.58c2.86-0.54,5.83,0.83,7.82,2.95c1.98,2.12,3.11,4.91,3.9,7.71 c1.31,4.66,1.77,9.51,2.04,14.34C296.99,156.33,297.05,161.2,296,165.9z"/></g><g id="change3_7"><path fill="#3d3a39" d="M293.59,165.24c-1.24,5.36-3.79,10.24-6.68,14.88c-2.95,4.73-6.52,8.57-11.02,11.87 c0.42-0.11,0.84-0.23,1.26-0.34c-4.38-0.05-8.75-0.11-13.13-0.18c0.83,0.83,1.67,1.67,2.5,2.5c-0.44-8.16-0.53-16.39-0.3-24.55 c0.21-7.5,1.34-14.8,3.99-21.84c1.24-3.3,2.81-6.48,4.63-9.51c1.62-2.7,3.39-5.65,5.84-7.68c2.31-1.92,5.13-1.81,7.46,0.06 c2.62,2.11,3.71,5.65,4.48,8.79c1.03,4.19,1.4,8.5,1.62,12.8C294.48,156.43,294.53,160.89,293.59,165.24 c-0.67,3.14,4.14,4.48,4.82,1.33c0.94-4.4,1.08-8.88,0.89-13.36c-0.19-4.36-0.53-8.75-1.36-13.05c-0.74-3.82-1.85-7.84-4.21-11 c-2.34-3.14-6.12-5.6-10.19-5.22c-4.1,0.38-7.05,3.15-9.44,6.28c-2.38,3.12-4.43,6.52-6.15,10.05 c-3.59,7.36-5.7,15.23-6.41,23.38c-0.43,4.96-0.39,9.95-0.37,14.92c0.02,5.13,0.09,10.26,0.36,15.38 c0.07,1.36,1.09,2.48,2.5,2.5c2.27,0.03,4.54,0.07,6.8,0.1c1.13,0.02,2.27,0.03,3.4,0.05c1.13,0.01,2.49,0.25,3.58-0.05 c0.99-0.27,1.88-1.2,2.68-1.82c0.81-0.62,1.6-1.25,2.37-1.92c1.57-1.36,3-2.85,4.3-4.46c5.05-6.24,9.42-13.92,11.24-21.79 C299.14,163.43,294.32,162.1,293.59,165.24z"/></g></g><g><g><g id="change8_1"><path fill="#ff9cd7" d="M245.87,255.62c-0.54-0.2-1.98-0.71-3.81-0.47c-2.23,0.29-3.76,1.44-4.45,2.14 c-3.34,3.36-5.05,8.27-4.54,12.98c-1.05-1.84-2.1-3.69-3.15-5.53c-2.06-3.62-2.85-4.28-3.62-4.86 c-0.77-0.58-3.05-2.29-5.78-1.73c-2.17,0.44-3.43,2.08-4.2,3.08c-2.09,2.72-2.12,5.71-2.11,6.56c0.01,0.99,0.15,3.03,1.66,5.88 c2.74,5.17,7.29,7.86,11.2,10.1c2.51,1.44,6.2,3.26,10.98,4.64c3.12-2.34,6.18-4.8,8.69-7.79c1.77-2.11,4.13-5.54,5.01-10.53 c0.42-2.37,1.23-6.99-1.4-10.82C249.86,258.53,248.47,256.57,245.87,255.62z"/></g><g id="change3_8"><path fill="#3d3a39" d="M246.54,253.21c-10.14-3.67-16.79,8.52-15.96,17.06c1.55-0.42,3.11-0.84,4.66-1.26 c-1.27-2.24-2.51-4.51-3.83-6.71c-0.76-1.26-1.58-2.59-2.64-3.62c-2.4-2.31-5.96-3.78-9.27-2.86c-3.94,1.1-6.8,5.34-7.51,9.19 c-0.63,3.39,0.05,6.64,1.62,9.7c3.63,7.07,11.44,11.35,18.53,14.27c0.99,0.41,2,0.79,3.02,1.13c1.43,0.48,2.94,1.21,4.34,0.31 c2.03-1.3,3.96-3.03,5.74-4.66c2.85-2.61,5.45-5.67,7.06-9.21c1.83-4.01,2.85-8.75,2.23-13.15 C253.86,258.75,250.9,254.93,246.54,253.21c-1.26-0.5-2.75,0.54-3.08,1.75c-0.39,1.42,0.49,2.58,1.75,3.08 c1.14,0.45,2.08,1.31,2.83,2.26c-0.32-0.4,0.01,0.02,0.07,0.12c0.22,0.34,0.44,0.67,0.63,1.03c0.37,0.69,0.61,1.45,0.77,2.22 c0.56,2.74,0.05,5.45-0.71,8.06c-1.85,6.38-6.81,10.61-12.02,14.53c0.64-0.08,1.28-0.17,1.93-0.25 c-4.07-1.2-7.86-2.9-11.52-5.04c-3.43-2.01-6.71-4.33-8.76-7.83c-1.72-2.92-2.33-5.65-1.13-8.63c0.2-0.51,0.48-0.99,0.78-1.44 c0.36-0.54,0.25-0.39,0.55-0.74c0.52-0.6,1.05-1.22,1.79-1.53c1.52-0.65,3.03,0.12,4.26,1c0.32,0.22,0.56,0.53,0.14,0.09 c0.16,0.16,0.35,0.3,0.51,0.46c0.1,0.1,0.65,0.75,0.36,0.37c0.26,0.33,0.49,0.68,0.72,1.03c1.64,2.51,3.03,5.2,4.52,7.8 c1.16,2.04,4.9,1.28,4.66-1.26c-0.34-3.55,0.52-7.11,2.71-9.97c1.68-2.2,3.99-3.32,6.92-2.26c1.27,0.46,2.74-0.52,3.08-1.75 C248.67,254.89,247.81,253.67,246.54,253.21z"/></g></g></g></g></g></svg>