<?xml version="1.0" encoding="UTF-8"?><svg xmlns="http://www.w3.org/2000/svg" xmlns:xlink="http://www.w3.org/1999/xlink" contentScriptType="text/ecmascript" fill="#000000" width="1555" zoomAndPan="magnify" contentStyleType="text/css" viewBox="-1.0 -1.7 1555.0 524.8" height="524.8" preserveAspectRatio="xMidYMid meet" version="1"><g id="change1_1"><path fill="#81a45a" d="M10.7,157.4c80.7-89.1,217-80,365.6-70.6c55.8,3.6,104.8,14.2,153.4,9.4c55.6-5.5,107.8-25.1,157.7-39 c86.1-23.9,215.1-50,313.1-56.1c45.5-2.8,101.5,0,149.7,4c77.9,6.5,171.6,33.7,223.9,57.5c30.5,13.9,61.7,23.9,82.3,39.7 c97.6,74.5,92.7,175.3,54,275.6c-6.7,17.4-26.5,42.1-44.9,54.5l-15,16.7c-30.5,19.1-63.9,33.2-98.9,41.7 c-124,32.3-332.4-29.9-489.6-39.6c-59.5-3.7-118.6,0.5-172.1,6.4s-98.3,23-160.9,18.1c-89.8-7.1-176.2-56.1-221.7-79.5 c-47.7-24.5-90.3-48.6-132.3-71.8l-64.8-19.9c-27.8-14.1-64.9-44.7-83.9-62.5c-14.2-13.4-27.3-37.4-26.2-53.4 C0.7,178.2,13.4,167.2,10.7,157.4"/></g></svg>