<?xml version="1.0" encoding="UTF-8" standalone="no"?><svg xmlns="http://www.w3.org/2000/svg" xmlns:xlink="http://www.w3.org/1999/xlink" contentScriptType="text/ecmascript" fill="#000000" width="116.1" zoomAndPan="magnify" contentStyleType="text/css" viewBox="154.9 85.8 116.1 255.4" height="255.4" preserveAspectRatio="xMidYMid meet" version="1"><g><g id="change1_1"><path fill="#5a478e" d="M173.56,136.92c-0.77-15.62,0.07-31.32,2.49-46.76c0.16-1.01,0.37-2.11,1.16-2.75 c0.74-0.6,1.78-0.63,2.74-0.63c23.43-0.01,46.87-0.02,70.3-0.02c1.56,0,3.35,0.11,4.29,1.36c0.53,0.7,0.65,1.61,0.75,2.48 c2.03,16.72,1.14,34.24,1.83,51.22c0.01,0.2-16.05,3.58-17.14,3.81c-7.02,1.49-14.17,2.42-21.34,2.8 c-14.03,0.73-28.17-0.67-41.77-4.23c-2.41-0.63-5.31-1.99-5.23-4.47L173.56,136.92z"/></g><g id="change2_8"><path fill="inherit" d="M211.44,149.61c-11.74,0-23.46-1.49-34.81-4.46c-3.94-1.03-6.06-2.97-5.98-5.47c0.01-0.19,0.07-0.37,0.17-0.53 l1.72-2.51c-0.74-15.56,0.11-31.25,2.52-46.63c0.14-0.91,0.38-2.44,1.52-3.37c1.05-0.86,2.45-0.86,3.37-0.86l70.3-0.02 c1.34,0.01,3.77,0,5.09,1.76c0.7,0.93,0.84,2.06,0.95,2.96c1.19,9.78,1.25,19.76,1.32,29.41c0.02,3.08,0.04,6.17,0.1,9.24 c0.01,0.74,0.06,1.5,0.1,2.28c0.23,3.91,0.49,8.33-3.11,11.21c-2.18,1.74-5.25,2.22-7.95,2.64c-1.05,0.16-2.05,0.32-2.95,0.53 C233.19,148.34,222.31,149.61,211.44,149.61z M172.67,140.01c0.2,1.88,3.16,2.87,4.48,3.21c21.53,5.64,44.42,5.86,66.2,0.63 c0.98-0.23,2.01-0.4,3.11-0.57c2.58-0.4,5.25-0.81,7.01-2.22c2.79-2.23,2.57-5.94,2.36-9.53c-0.05-0.8-0.09-1.6-0.11-2.36 c-0.06-3.09-0.08-6.18-0.1-9.27c-0.06-9.59-0.13-19.51-1.3-29.18c-0.09-0.7-0.18-1.5-0.56-2.01c-0.63-0.84-2.04-0.96-3.48-0.96 c0,0-0.01,0-0.01,0l-70.3,0.02c-0.85,0-1.65,0.03-2.11,0.41c-0.5,0.41-0.67,1.27-0.81,2.13c-2.41,15.36-3.24,31.03-2.48,46.56 c0.01,0.22-0.05,0.43-0.17,0.61L172.67,140.01z"/></g><g id="change3_1"><path fill="#d7ea53" d="M168.9,137.56c30.17,0.55,60.65-2.26,90.6,1.33c10.22,1.23,8.85,12.68,8.71,20.44 c-0.25,14.2,1.07,28.55,1.33,42.76c0.44,23.67,0.06,47.48-1.05,71.13c-0.41,8.84-1.45,17.76-4.18,26.21 c-2.83,8.75-8.29,15.39-14.14,22.35c-6.47,7.69-15.36,12.9-25.15,15.06c-19.52,4.33-41.18-3.01-54.45-17.86 c-5.28-5.9-9.17-12.97-11.23-20.62c-2.73-10.14-3-20.76-3.15-31.26c-0.34-24.66-0.07-49.33,0.82-73.97 c0.44-12.14,1.02-24.27,1.76-36.4C159.23,149.02,157.26,137.34,168.9,137.56z"/></g><g id="change2_9"><path fill="inherit" d="M213.74,339.05c-16.3,0-32.94-7.12-43.92-19.4c-5.42-6.06-9.37-13.33-11.45-21.03c-2.68-9.95-3.02-20.15-3.18-31.51 c-0.34-24.55-0.07-49.46,0.82-74.02c0.44-12.26,1.03-24.52,1.76-36.42c0.07-1.16,0.08-2.41,0.1-3.72 c0.06-4.99,0.12-10.66,3.45-13.89c1.78-1.73,4.33-2.58,7.61-2.51l0,0c10.37,0.19,20.96-0.02,31.2-0.23 c19.56-0.39,39.79-0.8,59.5,1.57c10.2,1.22,9.88,11.66,9.65,19.28c-0.02,0.75-0.05,1.47-0.06,2.17 c-0.15,8.46,0.27,17.13,0.67,25.51c0.27,5.65,0.56,11.49,0.66,17.21c0.43,23.17,0.08,47.12-1.05,71.19 c-0.67,14.38-4.85,28.55-11.75,39.89c-8.03,13.2-19.27,21.73-32.51,24.66C221.47,338.65,217.61,339.05,213.74,339.05z M168.59,138.55c-2.6,0-4.53,0.64-5.88,1.95c-2.73,2.65-2.79,7.87-2.84,12.47c-0.02,1.34-0.03,2.61-0.1,3.82 c-0.72,11.89-1.31,24.13-1.75,36.37c-0.88,24.53-1.16,49.4-0.82,73.92c0.16,11.22,0.5,21.29,3.11,31.01 c1.99,7.4,5.8,14.39,11.01,20.21c13.12,14.68,34.62,21.73,53.49,17.55c27.6-6.12,41.48-36.79,42.69-62.7 c1.13-24.03,1.48-47.94,1.05-71.06c-0.1-5.7-0.39-11.52-0.66-17.15c-0.41-8.42-0.83-17.12-0.68-25.65 c0.01-0.7,0.04-1.44,0.06-2.19c0.28-9.19-0.12-16.3-7.88-17.23c-19.57-2.35-39.73-1.94-59.22-1.55 c-10.26,0.21-20.87,0.42-31.28,0.23C168.79,138.55,168.69,138.55,168.59,138.55z"/></g><g id="change4_1"><path fill="#ffffff" d="M193.25,124.59c2.77-0.01,5.54-0.03,8.31-0.04c0.55-6.04,0.16-12.09,0.16-18.18c0-0.22-0.01-0.46-0.16-0.63 c-0.17-0.19-0.45-0.2-0.71-0.2c-2.07,0.01-4.14,0.01-6.2,0.02C194.18,105.57,193.35,123.36,193.25,124.59z"/></g><g id="change2_10"><path fill="inherit" d="M193.25,125.56c-0.27,0-0.52-0.11-0.7-0.31c-0.18-0.2-0.28-0.46-0.26-0.73c0.02-0.23,0.06-1.03,0.12-2.17 c0.94-17.74,1.02-17.74,2.25-17.74l6.2-0.02c0.29-0.01,0.95,0,1.42,0.52c0.4,0.45,0.4,1,0.4,1.27c0,1.79,0.03,3.58,0.07,5.36 c0.08,4.22,0.16,8.59-0.23,12.91c-0.04,0.49-0.46,0.87-0.96,0.88L193.25,125.56C193.26,125.56,193.26,125.56,193.25,125.56z M195.41,106.53c-0.36,2.61-0.88,12.47-1.07,15.92c-0.02,0.45-0.04,0.84-0.06,1.17l6.41-0.03c0.3-3.93,0.22-7.94,0.15-11.82 c-0.03-1.75-0.07-3.5-0.07-5.26L195.41,106.53z"/></g><g id="change4_2"><path fill="#ffffff" d="M226.08,124.59c2.77-0.01,5.54-0.03,8.31-0.04c0.55-6.04,0.16-12.09,0.16-18.18c0-0.22-0.01-0.46-0.16-0.63 c-0.17-0.19-0.45-0.2-0.71-0.2c-2.07,0.01-4.14,0.01-6.2,0.02C227.01,105.57,226.17,123.36,226.08,124.59z"/></g><g id="change2_11"><path fill="inherit" d="M226.08,125.56c-0.27,0-0.52-0.11-0.7-0.31c-0.18-0.2-0.28-0.46-0.26-0.73c0.02-0.23,0.06-1.02,0.12-2.15 c0.94-17.76,1.02-17.76,2.25-17.77l6.2-0.02c0.29-0.01,0.95,0,1.42,0.52c0.4,0.45,0.4,1,0.4,1.27c0,1.79,0.03,3.58,0.07,5.36 c0.08,4.22,0.16,8.59-0.23,12.91c-0.04,0.49-0.46,0.87-0.96,0.88L226.08,125.56C226.09,125.56,226.08,125.56,226.08,125.56z M228.23,106.53c-0.36,2.62-0.89,12.49-1.07,15.94c-0.02,0.44-0.04,0.83-0.06,1.15l6.41-0.03c0.3-3.93,0.22-7.94,0.15-11.82 c-0.03-1.75-0.07-3.5-0.07-5.26L228.23,106.53z"/></g><g id="change2_7"><path fill="inherit" d="M213.4,302.67c-0.46,0-0.92-0.03-1.38-0.08l0,0c-4.14-0.5-7.23-2.7-8.68-6.18c-1.5-3.59-0.93-7.91,1.46-11.01 c2.37-3.06,6.03-4.42,10.33-3.81c7.25,1.03,9.87,6.69,9.23,11.52C223.52,299.53,218.33,302.67,213.4,302.67z M213.19,283.46 c-2.82,0-5.2,1.1-6.8,3.17c-1.93,2.5-2.41,6.12-1.2,9.01c1.17,2.79,3.68,4.55,7.08,4.96l0,0c5.89,0.72,9.54-3.36,10.12-7.75 c0.53-4.01-1.59-8.44-7.53-9.28C214.29,283.5,213.73,283.46,213.19,283.46z"/></g><g id="change2_3"><path fill="inherit" d="M213.92,283c-0.55,0-0.99-0.44-1-0.99c-0.46-37.53-0.31-75.58,0.44-113.1c0.01-0.55,0.46-0.97,1.02-0.98 c0.55,0.01,0.99,0.47,0.98,1.02c-0.75,37.5-0.89,75.53-0.44,113.04c0.01,0.55-0.44,1-0.99,1.01C213.93,283,213.93,283,213.92,283 z"/></g><g id="change2_2"><path fill="inherit" d="M213.49,260.22c-0.24,0-0.49-0.09-0.68-0.27l-21.19-19.79c-0.91-0.85-1.93-1.8-2.52-3.11c-0.61-1.35-0.63-2.79-0.65-4.07 c-0.22-14.12-0.42-28.43-0.6-42.55c-0.01-0.55,0.44-1.01,0.99-1.01c0,0,0.01,0,0.01,0c0.55,0,0.99,0.44,1,0.99 c0.17,14.12,0.38,28.43,0.6,42.55c0.02,1.14,0.04,2.31,0.47,3.28c0.42,0.94,1.26,1.72,2.06,2.47l21.19,19.79 c0.4,0.38,0.43,1.01,0.05,1.41C214.03,260.11,213.76,260.22,213.49,260.22z"/></g><g id="change2_6"><path fill="inherit" d="M214.36,245.71c-0.23,0-0.46-0.08-0.65-0.24c-0.42-0.36-0.47-0.99-0.11-1.41l17.51-20.57c1.87-2.19,3.98-4.68,4.78-7.56 c0.5-1.8,0.5-3.77,0.49-5.67l-0.09-28c0-0.55,0.44-1,1-1c0,0,0,0,0,0c0.55,0,1,0.45,1,1l0.09,28c0.01,2.04,0.01,4.15-0.56,6.22 c-0.92,3.3-3.19,5.96-5.19,8.32l-17.51,20.57C214.93,245.59,214.65,245.71,214.36,245.71z"/></g><g id="change2_5"><path fill="inherit" d="M267.03,156.04c-0.01,0-0.02,0-0.03,0c-36.02-1.24-72.55-1.79-108.6-1.64c-0.58,0.01-1-0.44-1-1c0-0.55,0.44-1,1-1 c36.06-0.15,72.63,0.41,108.67,1.65c0.55,0.02,0.98,0.48,0.97,1.03C268.01,155.62,267.56,156.04,267.03,156.04z"/></g><g id="change2_4"><path fill="inherit" d="M179.44,315.69c-0.2,0-0.41-0.06-0.58-0.19c-4.56-3.29-8.16-8-10.13-13.27c-0.19-0.52,0.07-1.09,0.59-1.29 c0.52-0.19,1.09,0.07,1.29,0.59c1.83,4.9,5.18,9.29,9.42,12.35c0.45,0.32,0.55,0.95,0.23,1.4 C180.06,315.54,179.75,315.69,179.44,315.69z"/></g><g id="change2_1"><path fill="inherit" d="M181.03,305.96c-0.09,0-0.18-0.01-0.28-0.04c-2.86-0.83-4.94-3.69-4.83-6.67c0.02-0.55,0.49-1,1.04-0.96 c0.55,0.02,0.98,0.48,0.96,1.04c-0.07,2.05,1.41,4.11,3.39,4.68c0.53,0.15,0.84,0.71,0.68,1.24 C181.86,305.68,181.46,305.96,181.03,305.96z"/></g></g></svg>