<?xml version="1.0" encoding="UTF-8"?><svg xmlns="http://www.w3.org/2000/svg" xmlns:xlink="http://www.w3.org/1999/xlink" contentScriptType="text/ecmascript" fill="#000000" width="145.3" zoomAndPan="magnify" contentStyleType="text/css" viewBox="-4.8 -0.5 145.3 87.6" height="87.6" preserveAspectRatio="xMidYMid meet" version="1"><g data-name="Layer 2"><g id="change1_1" data-name="Women Portraits"><path fill="#94bd66" d="M140.13,23.26a20.26,20.26,0,0,0-.46-8.2A20.74,20.74,0,0,0,125.19.76C120.46-.47,115.48,0,110.63.63c-7.95,1-16,2.2-23.21,5.74-9.52,4.7-16.77,13.11-26.13,18.12a22.25,22.25,0,0,1-9.56,3c-5.26.2-10.17-2.32-15.2-3.83C16.91,17.73-4.8,30.64.94,52.76A42.71,42.71,0,0,0,27.68,81.82a42.7,42.7,0,0,0,39-6c1.94-1.83,5.11-1.62,7.49-.4s4.23,3.21,6.33,4.86a24.73,24.73,0,0,0,39.88-17c.58-5.81-.82-12.09,1.91-17.25,2.61-4.92,8.22-7.35,12.15-11.3A20.64,20.64,0,0,0,140.13,23.26Z"/></g></g></svg>