<?xml version="1.0" encoding="UTF-8"?><svg xmlns="http://www.w3.org/2000/svg" xmlns:xlink="http://www.w3.org/1999/xlink" contentScriptType="text/ecmascript" fill="#000000" width="2508.7" zoomAndPan="magnify" contentStyleType="text/css" viewBox="246.1 243.5 2508.7 2512.6" height="2512.6" preserveAspectRatio="xMidYMid meet" version="1"><g><g><path fill="#b88e81" d="M 738.222656 1056.507812 C 720.929688 982.386719 628.734375 976.480469 572.351562 1006.933594 C 499.039062 1046.546875 437.277344 1133.09375 422.351562 1214.671875 C 414.714844 1256.414062 420.734375 1296.078125 433.457031 1336.152344 C 446.425781 1377.019531 472.527344 1427.730469 454.738281 1470.558594 C 438.601562 1509.410156 391.289062 1526.574219 360.144531 1551.261719 C 328.550781 1576.3125 302.582031 1608.492188 286.898438 1645.777344 C 254.960938 1721.703125 272.558594 1825.625 356.683594 1856.804688 C 369.957031 1861.722656 379.03125 1843.113281 369.972656 1833.960938 C 302.320312 1765.683594 303.210938 1669.964844 372.007812 1602.699219 C 402.539062 1572.855469 444.242188 1557.253906 473.640625 1526.1875 C 500.582031 1497.734375 510.988281 1461.011719 506.519531 1422.398438 C 501.367188 1377.917969 481.117188 1337.628906 471.1875 1294.3125 C 459.808594 1244.652344 470.332031 1195.65625 494.800781 1151.523438 C 531.550781 1085.25 653.65625 960.527344 722.019531 1063.339844 C 727.546875 1071.648438 740.554688 1066.519531 738.222656 1056.507812"/></g><g><path fill="#b88e81" d="M 1899.332031 2137.632812 L 1899.558594 2138.300781 C 1982.609375 2279.8125 2040.03125 2444.332031 2067.855469 2605.832031 C 2098.902344 2626.191406 2133.324219 2610.261719 2163.609375 2590.480469 C 2182.324219 2421.390625 2143.269531 2108.292969 2104.710938 1936.433594 L 1899.332031 2137.632812"/></g><g><path fill="#c4c3c6" d="M 2031.027344 2446.90625 C 2021.621094 2414.609375 2011.078125 2382.539062 1999.414062 2350.898438 C 1999.429688 2350.867188 1999.441406 2350.847656 1999.453125 2350.816406 C 2011.101562 2382.46875 2021.671875 2414.539062 2031.078125 2446.847656 C 2031.054688 2446.867188 2031.039062 2446.886719 2031.027344 2446.90625"/></g><g><path fill="#ad7b70" d="M 2031.074219 2446.847656 C 2021.664062 2414.539062 2011.105469 2382.46875 1999.449219 2350.816406 C 2028.023438 2261.207031 2048.058594 2170.035156 2051.28125 2082.976562 C 2051.308594 2082.15625 2051.335938 2081.335938 2051.375 2080.515625 C 2051.546875 2075.078125 2051.652344 2069.636719 2051.703125 2064.226562 C 2051.730469 2062.457031 2051.730469 2060.707031 2051.730469 2058.9375 C 2051.730469 2057.964844 2051.730469 2056.996094 2051.730469 2056.035156 C 2054.613281 2052.714844 2057.480469 2049.375 2060.308594 2046.003906 C 2079.207031 2023.546875 2096.785156 2000.054688 2113.054688 1975.65625 C 2128.714844 2053.667969 2143.753906 2151.875 2154.207031 2250.746094 C 2152.847656 2254.007812 2151.484375 2257.308594 2150.125 2260.566406 C 2132.324219 2303.066406 2110.871094 2344.046875 2086.039062 2382.859375 C 2075.984375 2398.558594 2050.394531 2423.578125 2031.074219 2446.847656"/></g><g><path fill="#1b1818" d="M 2165.324219 2577.160156 C 2109.226562 2620.128906 2067.851562 2605.832031 2067.851562 2605.832031 C 2058.53125 2620.21875 2054.0625 2636.191406 2053.820312 2652.960938 C 2053.710938 2659.789062 2054.441406 2666.710938 2057.054688 2672.988281 C 2062.203125 2685.300781 2074.933594 2694.148438 2088.75 2695.03125 C 2102.578125 2695.898438 2116.851562 2688.738281 2124.273438 2677.222656 C 2132.371094 2664.671875 2132.113281 2649.082031 2131.601562 2634.5 C 2134.621094 2638.550781 2135.570312 2642.710938 2138.777344 2646.621094 C 2144.316406 2653.390625 2150.414062 2660.160156 2158.632812 2663.601562 C 2169.628906 2668.210938 2183.378906 2665.78125 2192.898438 2658.257812 C 2202.40625 2650.75 2207.605469 2638.671875 2207.242188 2626.980469 C 2206.863281 2615.300781 2201.199219 2604.160156 2192.558594 2596.179688 C 2184.757812 2588.992188 2172.460938 2584.96875 2165.324219 2577.160156"/></g><g><path fill="#b88e81" d="M 900.972656 1994.261719 C 920.726562 2186.28125 948.933594 2377.230469 986.578125 2565.46875 C 1023.78125 2594.148438 1054.78125 2591.039062 1083.609375 2570.5 C 1071.738281 2378.929688 1110.101562 2183.820312 1193.550781 2010.980469 C 1194.210938 2011.449219 1194.898438 2011.890625 1195.558594 2012.359375 L 1195.558594 1994.261719 L 900.972656 1994.261719"/></g><g><path fill="#1b1818" d="M 1083.609375 2570.511719 C 1019.429688 2592.589844 986.578125 2565.46875 986.578125 2565.46875 C 973.628906 2575.988281 964.566406 2589.589844 959.066406 2605.351562 C 956.824219 2611.761719 955.300781 2618.539062 955.683594 2625.320312 C 956.441406 2638.640625 965.148438 2651.191406 977.351562 2656.570312 C 989.558594 2661.949219 1004.699219 2659.890625 1015.03125 2651.460938 C 1026.289062 2642.28125 1030.96875 2627.46875 1035.089844 2613.539062 C 1036.558594 2618.359375 1036.101562 2622.589844 1037.761719 2627.351562 C 1040.640625 2635.558594 1044 2643.960938 1050.339844 2649.910156 C 1058.828125 2657.890625 1072 2660.128906 1082.960938 2656.160156 C 1093.910156 2652.199219 1102.410156 2642.511719 1105.761719 2631.351562 C 1109.101562 2620.199219 1107.5 2607.808594 1102.199219 2597.441406 C 1097.429688 2588.070312 1087.601562 2580.230469 1083.609375 2570.511719"/></g><g><path fill="#c45a64" d="M 1017.828125 2117.820312 C 1021.660156 2149.210938 1034 2179.519531 1053.199219 2204.648438 C 1078.160156 2237.308594 1113.589844 2260.421875 1140.851562 2291.179688 C 1155.570312 2307.789062 1151.558594 2329.621094 1127.660156 2330.179688 C 1096.28125 2330.921875 1070.070312 2304.660156 1050.210938 2283.640625 C 1034.660156 2267.199219 1019.121094 2250.75 1003.570312 2234.308594 C 1007.25 2261.210938 1017.800781 2287.140625 1033.949219 2308.96875 C 1048.539062 2328.679688 1068.160156 2346.230469 1073.550781 2370.148438 C 1075.5 2378.839844 1075.070312 2388.859375 1069.070312 2395.441406 C 1056.460938 2409.269531 1034.589844 2397.691406 1023.839844 2387.488281 C 998.136719 2363.089844 983.273438 2329.710938 969.050781 2297.261719 C 963.792969 2285.269531 958.539062 2273.289062 953.285156 2261.300781 C 957.910156 2271.859375 942.152344 2314.648438 973.351562 2366.03125 C 983.355469 2382.5 990.609375 2419.761719 983.0625 2438.359375 C 968.664062 2473.828125 894.101562 2412.300781 892.011719 2304.949219 C 891.726562 2290.28125 890.617188 2275.640625 889.917969 2260.980469 C 886.855469 2292.78125 883.792969 2324.589844 880.730469 2356.390625 C 878.402344 2380.558594 859.648438 2380.570312 849.121094 2362.378906 C 835.554688 2338.929688 829.539062 2307.988281 826.433594 2281.441406 C 819.300781 2220.488281 830.785156 2158.5 847.902344 2100.121094 C 894.085938 2086.210938 940.078125 2080.679688 987.851562 2087.328125 C 996.214844 2088.488281 1004.699219 2090.019531 1012.148438 2094 C 1019.601562 2097.980469 1016.808594 2109.441406 1017.828125 2117.820312"/></g><g><path fill="#e0ad97" d="M 2253.320312 1460.808594 C 2264.359375 1675.074219 2192.640625 1894.246094 2051.730469 2056.035156 C 2052.558594 2254.066406 1959.933594 2476.988281 1874.539062 2655.660156 C 1839.441406 2664.367188 1801.679688 2668.058594 1779.074219 2638.609375 C 1806.398438 2474.539062 1806.042969 2297.449219 1772.785156 2134.476562 C 1505.4375 2299.367188 1150.09375 2288.21875 894.917969 2105.046875 C 811.464844 2277.898438 773.101562 2473 784.972656 2664.578125 C 756.144531 2685.121094 725.144531 2688.21875 687.941406 2659.539062 C 597.644531 2208.015625 560.917969 1741.015625 567.699219 1280.605469 C 568.695312 1212.882812 571.042969 1143.628906 595.285156 1080.382812 C 613.332031 1033.308594 644.542969 989.8125 688.507812 965.125 C 721.199219 946.773438 759.097656 939.671875 796.527344 937.488281 C 978.355469 926.878906 1149.171875 1024.792969 1330.414062 1042.875 C 1454.167969 1055.210938 1581.519531 1028.914062 1690.273438 968.550781 C 1800.382812 907.441406 1895.53125 801.210938 1902.476562 675.472656 C 1995.328125 934.136719 2239.175781 1186.355469 2253.320312 1460.808594"/></g><g><path fill="#2a2425" d="M 1330.417969 1042.878906 C 1149.171875 1024.792969 978.355469 926.882812 796.527344 937.492188 C 759.097656 939.667969 721.199219 946.777344 688.507812 965.128906 C 644.542969 989.816406 613.332031 1033.300781 595.285156 1080.382812 C 571.042969 1143.632812 568.695312 1212.871094 567.699219 1280.597656 C 564.847656 1474.199219 569.800781 1668.972656 583.082031 1863.257812 C 627.964844 1902.835938 690.175781 1923.683594 746.914062 1906.664062 C 816.488281 1885.796875 861.582031 1812.917969 866.542969 1740.445312 C 869.640625 1695.261719 860.207031 1647.363281 879.121094 1606.203125 C 904.867188 1550.191406 985.664062 1528.941406 1035.632812 1565.035156 C 1061.042969 1583.402344 1076.964844 1612.082031 1100.214844 1633.105469 C 1152.453125 1680.328125 1241.945312 1677.886719 1291.539062 1627.878906 C 1341.113281 1577.867188 1342.792969 1488.355469 1295.125 1436.527344 C 1272.613281 1412.03125 1240.316406 1394.136719 1229.742188 1362.59375 C 1214.515625 1317.140625 1255.714844 1269.316406 1301.828125 1256.230469 C 1321.375 1250.660156 1342.105469 1249.261719 1362.226562 1252.132812 C 1382.019531 1254.957031 1401.007812 1261.800781 1420.59375 1265.78125 C 1520.574219 1286.054688 1627.050781 1223.226562 1670.371094 1130.863281 C 1694.167969 1080.128906 1700.261719 1023.050781 1692.105469 967.507812 C 1691.484375 967.851562 1690.886719 968.21875 1690.277344 968.550781 C 1581.519531 1028.914062 1454.167969 1055.214844 1330.417969 1042.878906"/></g><g><path fill="#2a2425" d="M 1766.578125 2138.128906 C 1817.003906 2080.148438 1849.953125 2004.847656 1840.613281 1929.207031 C 1831.179688 1852.894531 1773.492188 1782.152344 1698.132812 1766.898438 C 1622.761719 1751.644531 1537.253906 1800.914062 1521.058594 1876.078125 C 1512.898438 1913.976562 1521.21875 1954.628906 1508.800781 1991.359375 C 1494.320312 2034.226562 1450 2065.078125 1404.773438 2063.777344 C 1368.523438 2062.738281 1335.6875 2043.609375 1301.855469 2030.558594 C 1256.039062 2012.878906 1206.101562 2006.027344 1157.21875 2010.6875 C 1116.953125 2014.53125 1073.132812 2029.539062 1054.882812 2065.648438 C 1041.453125 2092.210938 1045.152344 2124.410156 1054.859375 2152.550781 C 1060.992188 2170.296875 1069.570312 2187.007812 1080.121094 2202.390625 C 1303.242188 2283.449219 1560.359375 2262.628906 1766.578125 2138.128906"/></g><g><path fill="#2a2425" d="M 2011.71875 1329.941406 C 2046.542969 1385.8125 2078.417969 1445.941406 2084.988281 1511.460938 C 2091.582031 1576.964844 2067.730469 1649.210938 2011.820312 1683.96875 C 1964.175781 1713.597656 1898.902344 1710.097656 1853.078125 1677.722656 C 1807.230469 1645.359375 1782.207031 1586.832031 1787.648438 1530.988281 C 1789.753906 1509.472656 1795.976562 1488.414062 1796.796875 1466.804688 C 1797.632812 1445.195312 1791.898438 1421.675781 1774.894531 1408.304688 C 1758.328125 1395.28125 1735.257812 1394.804688 1716.152344 1385.886719 C 1687.84375 1372.671875 1670.96875 1341.21875 1669.070312 1310.039062 C 1667.160156 1278.871094 1678.257812 1248.136719 1693.773438 1221.011719 C 1733.613281 1151.359375 1804.691406 1100.378906 1883.4375 1084.957031 C 1890.738281 1140.800781 1902.546875 1191.179688 1925.027344 1242.824219 C 1935.125 1266.027344 1946.917969 1288.929688 1964.214844 1307.410156 C 1981.5 1325.886719 1986.441406 1328.824219 2011.71875 1329.941406"/></g><g><path fill="#d99e89" d="M 2013.839844 1694.136719 C 2010.796875 1692.148438 2007.761719 1690.109375 2004.757812 1688.058594 C 2007.15625 1686.78125 2009.515625 1685.402344 2011.839844 1683.960938 C 2016.558594 1681.027344 2021.046875 1677.820312 2025.308594 1674.378906 C 2021.59375 1681.027344 2017.753906 1687.613281 2013.839844 1694.136719"/></g><g><path fill="#c4c3c6" d="M 1764.101562 918.632812 C 1764.101562 918.617188 1764.101562 918.605469 1764.101562 918.578125 C 1786.261719 900.503906 1806.832031 880.484375 1824.960938 858.78125 C 1824.960938 858.796875 1824.960938 858.808594 1824.960938 858.824219 C 1806.820312 880.535156 1786.273438 900.554688 1764.101562 918.632812"/></g><g><path fill="#d99e89" d="M 1756.15625 1146.554688 C 1755.289062 1121.699219 1755.191406 1096.808594 1755.691406 1071.929688 C 1780.179688 1051.769531 1802.839844 1029.4375 1822.976562 1005.109375 C 1823.75 1004.179688 1824.507812 1003.25 1825.269531 1002.304688 C 1827.511719 1034.609375 1831.101562 1066.84375 1835.808594 1098.917969 C 1806.910156 1110.316406 1779.910156 1126.515625 1756.15625 1146.554688"/></g><g><path fill="#211d1e" d="M 2004.75 1688.058594 C 1987.746094 1676.375 1971.5625 1663.566406 1956.386719 1649.75 C 1856.261719 1558.53125 1797.164062 1428.660156 1772.070312 1295.5625 C 1762.769531 1246.277344 1757.894531 1196.492188 1756.152344 1146.550781 C 1779.902344 1126.515625 1806.914062 1110.316406 1835.804688 1098.914062 C 1837.210938 1108.5 1838.722656 1118.082031 1840.320312 1127.640625 C 1852.476562 1200.417969 1865.589844 1274.386719 1895.851562 1342.191406 C 1896.058594 1342.652344 1896.261719 1343.136719 1896.480469 1343.609375 C 1896.492188 1343.636719 1896.503906 1343.675781 1896.53125 1343.710938 C 1896.554688 1343.789062 1896.59375 1343.851562 1896.632812 1343.929688 C 1896.644531 1343.980469 1896.671875 1344.03125 1896.710938 1344.097656 C 1896.722656 1344.160156 1896.761719 1344.210938 1896.773438 1344.277344 C 1896.8125 1344.351562 1896.863281 1344.429688 1896.886719 1344.503906 C 1896.902344 1344.558594 1896.925781 1344.59375 1896.953125 1344.632812 C 1896.992188 1344.75 1897.054688 1344.890625 1897.117188 1345.003906 C 1898.117188 1347.207031 1899.140625 1349.40625 1900.175781 1351.59375 C 1939.523438 1434.328125 2005.492188 1503.027344 2085.617188 1538.789062 C 2069.625 1585.757812 2049.507812 1631.257812 2025.300781 1674.378906 C 2021.054688 1677.820312 2016.5625 1681.019531 2011.839844 1683.960938 C 2009.511719 1685.410156 2007.15625 1686.777344 2004.75 1688.058594"/></g><g><path fill="#c4c3c6" d="M 687.703125 2658.339844 C 687.660156 2658.148438 687.632812 2658.007812 687.59375 2657.820312 C 687.628906 2657.980469 687.667969 2658.179688 687.703125 2658.339844 M 687.476562 2657.210938 C 687.425781 2656.96875 687.375 2656.710938 687.324219 2656.460938 C 687.375 2656.710938 687.421875 2656.960938 687.476562 2657.210938 M 687.265625 2656.171875 C 619.496094 2316.230469 582.0625 1967.488281 570.683594 1619.496094 C 581.871094 1961.597656 618.238281 2304.417969 683.847656 2638.890625 C 684.980469 2644.648438 686.117188 2650.410156 687.265625 2656.171875 M 1419.144531 2248.308594 C 1518.4375 2240.648438 1616.515625 2214.828125 1706.933594 2170.710938 C 1616.492188 2214.839844 1518.464844 2240.660156 1419.144531 2248.308594 M 567.015625 1426.476562 C 566.953125 1415.304688 566.921875 1404.078125 566.910156 1392.90625 C 566.921875 1404.078125 566.953125 1415.304688 567.015625 1426.476562 M 566.910156 1387.277344 C 566.910156 1352.851562 567.15625 1318.449219 567.648438 1284.074219 C 567.648438 1284.113281 567.648438 1284.152344 567.648438 1284.175781 C 567.640625 1284.523438 567.636719 1284.804688 567.632812 1285.136719 L 567.632812 1285.160156 C 567.152344 1319.164062 566.910156 1353.207031 566.910156 1387.277344 M 567.648438 1283.933594 C 567.652344 1283.617188 567.660156 1283.257812 567.664062 1282.953125 C 567.664062 1282.964844 567.660156 1283.003906 567.660156 1283.027344 C 567.660156 1283.285156 567.65625 1283.527344 567.652344 1283.78125 C 567.652344 1283.832031 567.648438 1283.871094 567.648438 1283.933594 M 567.667969 1282.671875 C 567.671875 1282.390625 567.675781 1282.070312 567.679688 1281.789062 C 567.679688 1281.816406 567.679688 1281.828125 567.679688 1281.855469 C 567.675781 1282.019531 567.675781 1282.222656 567.671875 1282.402344 C 567.671875 1282.492188 567.667969 1282.582031 567.667969 1282.671875 M 567.6875 1281.316406 C 567.691406 1281.085938 567.695312 1280.84375 567.699219 1280.601562 C 568.578125 1220.691406 570.519531 1159.578125 587.746094 1102.472656 C 570.519531 1159.578125 568.578125 1220.691406 567.699219 1280.601562 C 567.695312 1280.84375 567.691406 1281.074219 567.6875 1281.316406 M 1393.925781 1045.84375 C 1497.0625 1045.253906 1600.058594 1018.632812 1690.269531 968.5625 C 1690.308594 968.539062 1690.359375 968.511719 1690.398438 968.488281 C 1690.359375 968.511719 1690.308594 968.539062 1690.269531 968.5625 C 1687.246094 970.238281 1684.207031 971.898438 1681.152344 973.519531 C 1681.078125 973.554688 1681 973.59375 1680.9375 973.632812 C 1680.785156 973.710938 1680.644531 973.785156 1680.476562 973.875 C 1592.894531 1020.382812 1493.894531 1045.140625 1394.742188 1045.84375 C 1394.476562 1045.84375 1394.207031 1045.84375 1393.925781 1045.84375 M 1692.097656 967.542969 C 1717.1875 953.484375 1741.476562 937.074219 1764.089844 918.636719 C 1741.476562 937.074219 1717.1875 953.484375 1692.097656 967.542969 M 796.960938 937.472656 C 806.117188 936.949219 815.226562 936.691406 824.328125 936.691406 L 824.324219 936.691406 C 815.222656 936.691406 806.117188 936.949219 796.960938 937.472656"/></g><g><path fill="#d99e89" d="M 784.925781 2663.851562 C 784.917969 2663.789062 784.914062 2663.722656 784.914062 2663.660156 C 784.914062 2663.722656 784.917969 2663.789062 784.925781 2663.851562 M 784.871094 2662.992188 C 784.871094 2662.980469 784.867188 2662.949219 784.867188 2662.941406 C 784.871094 2662.960938 784.871094 2662.960938 784.871094 2662.992188 M 784.820312 2662.179688 C 784.820312 2662.148438 784.820312 2662.101562 784.816406 2662.070312 C 784.820312 2662.113281 784.820312 2662.148438 784.820312 2662.179688 M 1874.742188 2655.21875 C 1874.785156 2655.121094 1874.824219 2655.019531 1874.878906 2654.921875 C 1874.824219 2655.019531 1874.785156 2655.121094 1874.742188 2655.21875 M 1874.964844 2654.742188 C 1875.019531 2654.628906 1875.058594 2654.53125 1875.113281 2654.421875 C 1875.058594 2654.53125 1875.019531 2654.628906 1874.964844 2654.742188 M 1875.171875 2654.289062 C 1875.238281 2654.171875 1875.28125 2654.0625 1875.351562 2653.941406 C 1875.28125 2654.0625 1875.238281 2654.171875 1875.171875 2654.289062 M 1875.378906 2653.878906 C 1946.347656 2505.230469 2022.019531 2326.210938 2044.820312 2156.433594 C 1965.324219 2203.042969 1880.339844 2240.683594 1792.578125 2268.582031 C 1788.292969 2223.210938 1781.730469 2178.332031 1772.773438 2134.472656 C 1751.371094 2147.683594 1729.371094 2159.761719 1706.929688 2170.710938 C 1616.5 2214.832031 1518.433594 2240.652344 1419.132812 2248.3125 C 1398.199219 2249.933594 1377.226562 2250.730469 1356.226562 2250.730469 C 1194.925781 2250.730469 1033.75 2203.101562 899.671875 2108.433594 C 898.074219 2107.3125 896.5 2106.191406 894.914062 2105.050781 C 872.011719 2152.480469 852.503906 2201.59375 836.503906 2251.839844 C 799.242188 2238.542969 762.933594 2222.753906 728.300781 2203.492188 C 679.082031 2176.113281 641.714844 2140.242188 603.917969 2103.410156 C 622.855469 2283.332031 649.210938 2462.269531 683.847656 2638.890625 C 618.234375 2304.421875 581.871094 1961.601562 570.679688 1619.492188 C 568.574219 1555.097656 567.363281 1490.769531 567.015625 1426.488281 C 566.953125 1415.308594 566.917969 1404.085938 566.910156 1392.910156 C 566.910156 1391.027344 566.90625 1389.175781 566.90625 1387.285156 C 566.910156 1353.207031 567.152344 1319.171875 567.628906 1285.164062 C 564.921875 1477.269531 569.898438 1670.492188 583.078125 1863.261719 C 617.226562 1893.382812 661.40625 1912.652344 705.570312 1912.652344 C 719.457031 1912.652344 733.339844 1910.742188 746.910156 1906.671875 C 760.753906 1902.523438 773.625 1896.3125 785.40625 1888.453125 C 877.632812 1961.441406 1003.128906 1997.601562 1120.148438 2017.621094 C 1092.558594 2025.671875 1067.546875 2040.570312 1054.878906 2065.652344 C 1041.449219 2092.210938 1045.148438 2124.410156 1054.859375 2152.550781 C 1060.988281 2170.300781 1069.570312 2187.011719 1080.117188 2202.390625 C 1168.558594 2234.519531 1262.378906 2250.640625 1356.207031 2250.652344 C 1499.113281 2250.660156 1642.09375 2213.28125 1766.570312 2138.132812 C 1816.996094 2080.152344 1849.953125 2004.851562 1840.609375 1929.210938 C 1839.230469 1918.050781 1836.808594 1907.003906 1833.453125 1896.230469 C 1845.128906 1887.523438 1856.542969 1878.363281 1867.75 1868.703125 C 1925.941406 1818.523438 1974.691406 1759.292969 2013.824219 1694.140625 C 2073.9375 1733.332031 2143.46875 1758.472656 2214.027344 1764.0625 C 2234.742188 1698.621094 2247.691406 1630.640625 2252.402344 1562.15625 C 2252.414062 1562.15625 2252.402344 1562.15625 2252.414062 1562.15625 C 2240.351562 1738.28125 2173.800781 1911.113281 2060.296875 2046.011719 C 2057.464844 2049.382812 2054.605469 2052.722656 2051.714844 2056.042969 C 2051.714844 2057.003906 2051.730469 2057.972656 2051.714844 2058.941406 C 2051.714844 2060.710938 2051.714844 2062.460938 2051.703125 2064.230469 C 2051.648438 2069.640625 2051.535156 2075.082031 2051.355469 2080.519531 C 2051.328125 2081.34375 2051.300781 2082.160156 2051.257812 2082.980469 C 2044.226562 2273.429688 1956.6875 2483.589844 1875.378906 2653.878906 M 1779.171875 2637.980469 C 1779.171875 2637.929688 1779.1875 2637.890625 1779.199219 2637.839844 C 1779.1875 2637.878906 1779.171875 2637.941406 1779.171875 2637.980469 M 1779.296875 2637.210938 L 1779.296875 2637.210938 M 1779.410156 2636.519531 C 1779.421875 2636.511719 1779.421875 2636.5 1779.421875 2636.492188 C 1779.421875 2636.5 1779.421875 2636.5 1779.410156 2636.519531 M 567.628906 1285.136719 C 567.636719 1284.804688 567.640625 1284.53125 567.644531 1284.183594 C 567.640625 1284.503906 567.636719 1284.820312 567.628906 1285.136719 M 567.648438 1283.785156 C 567.65625 1283.535156 567.660156 1283.285156 567.660156 1283.039062 C 567.660156 1283.285156 567.65625 1283.550781 567.648438 1283.785156 M 567.667969 1282.402344 C 567.671875 1282.234375 567.675781 1282.027344 567.679688 1281.863281 C 567.675781 1282.027344 567.671875 1282.222656 567.667969 1282.402344 M 1671.140625 1129.210938 C 1694.285156 1078.898438 1700.171875 1022.460938 1692.101562 967.546875 C 1717.183594 953.480469 1741.460938 937.089844 1764.082031 918.644531 C 1762.355469 939.34375 1761.527344 959.90625 1760.132812 979.140625 C 1757.921875 1010.011719 1756.332031 1040.980469 1755.683594 1071.945312 C 1731.652344 1091.75 1705.851562 1109.4375 1678.960938 1124.816406 C 1676.378906 1126.308594 1673.753906 1127.757812 1671.140625 1129.210938 M 1390.457031 1045.855469 C 1391.621094 1045.855469 1392.765625 1045.855469 1393.914062 1045.84375 C 1394.203125 1045.84375 1394.464844 1045.84375 1394.742188 1045.84375 C 1393.304688 1045.855469 1391.882812 1045.855469 1390.457031 1045.855469 M 1680.480469 973.875 C 1680.632812 973.792969 1680.773438 973.722656 1680.921875 973.640625 C 1680.773438 973.722656 1680.632812 973.792969 1680.480469 973.875 M 1681.144531 973.53125 C 1684.210938 971.898438 1687.238281 970.242188 1690.265625 968.570312 C 1687.238281 970.242188 1684.210938 971.898438 1681.144531 973.53125 M 824.320312 936.703125 L 824.324219 936.703125 L 824.320312 936.703125"/></g><g><path fill="#211d1e" d="M 705.570312 1912.652344 C 661.40625 1912.652344 617.226562 1893.382812 583.078125 1863.261719 C 569.902344 1670.484375 564.921875 1477.269531 567.632812 1285.167969 L 567.632812 1285.140625 C 567.636719 1284.824219 567.640625 1284.496094 567.644531 1284.179688 C 567.644531 1284.15625 567.644531 1284.117188 567.644531 1284.078125 C 567.648438 1284.027344 567.648438 1283.976562 567.648438 1283.925781 C 567.648438 1283.875 567.648438 1283.839844 567.648438 1283.789062 C 567.652344 1283.546875 567.65625 1283.28125 567.660156 1283.027344 C 567.660156 1283.015625 567.660156 1282.976562 567.660156 1282.953125 C 567.664062 1282.839844 567.664062 1282.789062 567.667969 1282.671875 C 567.667969 1282.585938 567.667969 1282.496094 567.671875 1282.40625 C 567.671875 1282.21875 567.675781 1282.027344 567.679688 1281.863281 C 567.679688 1281.839844 567.679688 1281.8125 567.679688 1281.789062 C 567.683594 1281.625 567.683594 1281.484375 567.6875 1281.320312 C 567.6875 1281.078125 567.691406 1280.851562 567.695312 1280.609375 C 568.578125 1220.699219 570.515625 1159.585938 587.742188 1102.484375 C 589.984375 1095.050781 592.488281 1087.683594 595.28125 1080.394531 C 613.328125 1033.316406 644.542969 989.824219 688.503906 965.140625 C 721.195312 946.785156 759.09375 939.683594 796.523438 937.496094 C 796.667969 937.496094 796.816406 937.480469 796.957031 937.46875 C 806.113281 936.949219 815.21875 936.695312 824.320312 936.695312 L 824.324219 936.695312 C 995.835938 936.695312 1158.4375 1025.734375 1330.414062 1042.886719 C 1350.363281 1044.875 1370.414062 1045.851562 1390.464844 1045.851562 C 1391.894531 1045.851562 1393.3125 1045.851562 1394.742188 1045.835938 C 1493.882812 1045.140625 1592.882812 1020.382812 1680.476562 973.875 C 1680.640625 973.796875 1680.78125 973.722656 1680.933594 973.632812 C 1680.996094 973.597656 1681.074219 973.558594 1681.148438 973.519531 C 1684.210938 971.898438 1687.238281 970.242188 1690.261719 968.570312 C 1690.3125 968.546875 1690.351562 968.519531 1690.402344 968.496094 C 1690.972656 968.179688 1691.527344 967.863281 1692.097656 967.546875 C 1700.160156 1022.457031 1694.289062 1078.886719 1671.136719 1129.21875 C 1590.210938 1173.75 1497.222656 1197.886719 1404.550781 1197.886719 C 1368.019531 1197.886719 1331.515625 1194.128906 1295.84375 1186.394531 C 1176.148438 1160.445312 1068.648438 1083.75 943.320312 1083.75 C 942.574219 1083.75 941.820312 1083.75 941.074219 1083.75 C 883.847656 1084.179688 825.96875 1102.332031 786.570312 1145.546875 C 743.824219 1192.40625 725.058594 1258.40625 705.691406 1317.292969 C 662.917969 1447.382812 622.605469 1588.550781 667.867188 1723.878906 C 691.070312 1793.261719 732.828125 1846.839844 785.40625 1888.453125 C 773.625 1896.3125 760.753906 1902.523438 746.910156 1906.671875 C 733.339844 1910.742188 719.457031 1912.652344 705.570312 1912.652344"/></g><g><path fill="#d99e89" d="M 1407.53125 2063.820312 C 1406.609375 2063.820312 1405.691406 2063.808594 1404.769531 2063.78125 C 1374.929688 2062.921875 1347.410156 2049.808594 1319.730469 2037.921875 C 1330.160156 2038.191406 1340.601562 2038.328125 1351.03125 2038.328125 C 1395.878906 2038.328125 1440.691406 2035.738281 1484.878906 2030.058594 C 1464.78125 2050.808594 1436.460938 2063.820312 1407.53125 2063.820312"/></g><g><path fill="#211d1e" d="M 1356.207031 2250.648438 C 1262.382812 2250.640625 1168.558594 2234.519531 1080.121094 2202.390625 C 1069.570312 2187.007812 1060.992188 2170.296875 1054.859375 2152.550781 C 1045.152344 2124.410156 1041.453125 2092.210938 1054.882812 2065.648438 C 1067.550781 2040.566406 1092.5625 2025.667969 1120.152344 2017.617188 C 1136.722656 2020.449219 1153.121094 2022.96875 1169.226562 2025.210938 C 1218.765625 2032.117188 1269.191406 2036.589844 1319.730469 2037.917969 C 1347.414062 2049.808594 1374.933594 2062.917969 1404.773438 2063.777344 C 1405.691406 2063.808594 1406.609375 2063.820312 1407.53125 2063.820312 C 1436.460938 2063.820312 1464.777344 2050.808594 1484.886719 2030.058594 C 1610.117188 2013.980469 1730.535156 1973.109375 1833.460938 1896.230469 C 1836.808594 1907 1839.226562 1918.050781 1840.613281 1929.207031 C 1849.953125 2004.847656 1817.003906 2080.148438 1766.578125 2138.128906 C 1642.097656 2213.277344 1499.109375 2250.660156 1356.207031 2250.648438"/></g><g><path fill="#d48f79" d="M 2214.042969 1764.058594 C 2143.484375 1758.46875 2073.949219 1733.328125 2013.839844 1694.136719 C 2017.75 1687.617188 2021.589844 1681.027344 2025.308594 1674.386719 C 2064.554688 1642.695312 2084.519531 1590.636719 2086 1538.941406 C 2124.109375 1555.910156 2165.441406 1565.390625 2208.609375 1565.390625 C 2223.023438 1565.390625 2237.644531 1564.339844 2252.414062 1562.15625 C 2247.703125 1630.636719 2234.753906 1698.617188 2214.042969 1764.058594"/></g><g><path fill="#98979e" d="M 1764.085938 918.640625 C 1786.273438 900.566406 1806.816406 880.546875 1824.957031 858.832031 L 1824.957031 858.84375 C 1806.816406 880.546875 1786.257812 900.578125 1764.085938 918.640625"/></g><g><path fill="#d48f79" d="M 1755.691406 1071.9375 C 1756.335938 1040.960938 1757.925781 1010 1760.144531 979.132812 C 1761.539062 959.898438 1762.363281 939.328125 1764.097656 918.640625 C 1786.257812 900.566406 1806.832031 880.53125 1824.972656 858.832031 C 1821.609375 906.632812 1821.964844 954.554688 1825.273438 1002.304688 C 1824.511719 1003.25 1823.75 1004.183594 1822.976562 1005.113281 C 1802.835938 1029.429688 1780.175781 1051.773438 1755.691406 1071.9375"/></g><g><path fill="#1b1819" d="M 2025.308594 1674.382812 C 2049.507812 1631.257812 2069.625 1585.773438 2085.609375 1538.792969 C 2085.738281 1538.832031 2085.863281 1538.882812 2085.992188 1538.949219 C 2084.519531 1590.636719 2064.558594 1642.695312 2025.308594 1674.382812"/></g><g><path fill="#c4c3c6" d="M 700.769531 2668.339844 C 696.574219 2665.820312 692.300781 2662.898438 687.9375 2659.539062 C 687.859375 2659.140625 687.78125 2658.75 687.699219 2658.339844 C 687.777344 2658.730469 687.863281 2659.148438 687.9375 2659.539062 C 692.300781 2662.898438 696.574219 2665.820312 700.769531 2668.339844 M 784.96875 2664.578125 C 784.953125 2664.328125 784.941406 2664.089844 784.925781 2663.851562 C 784.941406 2664.101562 784.953125 2664.328125 784.96875 2664.578125 M 784.914062 2663.660156 C 784.898438 2663.441406 784.886719 2663.210938 784.871094 2662.988281 C 784.886719 2663.21875 784.898438 2663.441406 784.914062 2663.660156 M 784.871094 2662.941406 C 784.855469 2662.691406 784.839844 2662.429688 784.824219 2662.179688 C 784.839844 2662.441406 784.855469 2662.679688 784.871094 2662.941406 M 784.816406 2662.070312 C 783.503906 2640.070312 782.855469 2618.050781 782.855469 2596 C 782.871094 2490.761719 797.785156 2385.378906 826.753906 2284.109375 C 826.769531 2284.230469 826.78125 2284.339844 826.796875 2284.449219 C 791.800781 2406.839844 777.246094 2535.179688 784.816406 2662.070312 M 687.59375 2657.820312 C 687.554688 2657.621094 687.515625 2657.421875 687.476562 2657.210938 C 687.511719 2657.410156 687.558594 2657.621094 687.59375 2657.820312 M 687.324219 2656.460938 C 687.304688 2656.371094 687.285156 2656.261719 687.265625 2656.171875 C 687.289062 2656.28125 687.300781 2656.351562 687.324219 2656.460938"/></g><g><path fill="#ba4756" d="M 826.796875 2284.449219 C 826.78125 2284.339844 826.769531 2284.230469 826.753906 2284.109375 C 829.84375 2273.300781 833.09375 2262.550781 836.503906 2251.839844 C 836.546875 2251.859375 836.589844 2251.871094 836.632812 2251.890625 C 833.191406 2262.691406 829.914062 2273.550781 826.796875 2284.449219"/></g><g><path fill="#98979e" d="M 740.542969 2680.519531 C 740.347656 2680.519531 740.15625 2680.519531 739.960938 2680.519531 C 740.152344 2680.519531 740.347656 2680.519531 740.542969 2680.519531 M 741.132812 2680.519531 C 756.128906 2680.378906 770.21875 2674.839844 783.808594 2665.390625 C 770.21875 2674.839844 756.132812 2680.378906 741.132812 2680.519531 M 700.769531 2668.339844 C 696.574219 2665.820312 692.300781 2662.898438 687.9375 2659.539062 C 687.863281 2659.148438 687.777344 2658.730469 687.699219 2658.339844 C 687.667969 2658.179688 687.628906 2657.980469 687.59375 2657.820312 C 687.558594 2657.621094 687.511719 2657.410156 687.476562 2657.210938 C 687.421875 2656.960938 687.375 2656.710938 687.324219 2656.460938 C 687.300781 2656.351562 687.289062 2656.28125 687.265625 2656.171875 C 686.117188 2650.410156 684.980469 2644.648438 683.847656 2638.890625 C 685.203125 2645.78125 686.5625 2652.648438 687.941406 2659.539062 C 692.300781 2662.898438 696.574219 2665.820312 700.769531 2668.339844 M 783.816406 2665.390625 C 784.070312 2665.210938 784.328125 2665.03125 784.582031 2664.851562 C 784.328125 2665.03125 784.070312 2665.210938 783.816406 2665.390625 M 784.714844 2664.761719 C 784.800781 2664.699219 784.886719 2664.640625 784.96875 2664.578125 C 784.886719 2664.640625 784.800781 2664.699219 784.714844 2664.761719"/></g><g><path fill="#d48f79" d="M 740.542969 2680.519531 C 740.347656 2680.519531 740.152344 2680.519531 739.960938 2680.519531 C 727.597656 2680.398438 714.609375 2676.621094 700.769531 2668.339844 C 696.574219 2665.820312 692.300781 2662.898438 687.941406 2659.539062 C 686.5625 2652.648438 685.203125 2645.78125 683.847656 2638.890625 C 649.210938 2462.269531 622.855469 2283.328125 603.921875 2103.410156 C 641.71875 2140.238281 679.082031 2176.109375 728.304688 2203.488281 C 762.933594 2222.75 799.242188 2238.539062 836.503906 2251.839844 C 833.09375 2262.550781 829.84375 2273.300781 826.753906 2284.109375 C 797.785156 2385.378906 782.871094 2490.761719 782.855469 2596 C 782.855469 2618.050781 783.503906 2640.070312 784.816406 2662.070312 C 784.820312 2662.101562 784.820312 2662.148438 784.824219 2662.179688 C 784.839844 2662.429688 784.855469 2662.691406 784.871094 2662.941406 C 784.871094 2662.949219 784.871094 2662.980469 784.871094 2662.988281 C 784.886719 2663.210938 784.898438 2663.441406 784.914062 2663.660156 C 784.917969 2663.71875 784.921875 2663.789062 784.925781 2663.851562 C 784.941406 2664.089844 784.953125 2664.328125 784.96875 2664.578125 C 784.886719 2664.640625 784.800781 2664.699219 784.714844 2664.761719 C 784.671875 2664.789062 784.628906 2664.820312 784.582031 2664.851562 C 784.328125 2665.03125 784.070312 2665.210938 783.816406 2665.390625 C 783.8125 2665.390625 783.8125 2665.390625 783.808594 2665.390625 C 770.21875 2674.839844 756.128906 2680.378906 741.132812 2680.519531 C 740.9375 2680.519531 740.738281 2680.519531 740.542969 2680.519531"/></g><g><path fill="#c4c3c6" d="M 1783.097656 2612.96875 C 1799.683594 2500.699219 1803.320312 2383.089844 1792.5 2268.609375 C 1792.535156 2268.601562 1792.558594 2268.589844 1792.578125 2268.578125 C 1803.398438 2383.070312 1799.691406 2500.699219 1783.097656 2612.96875"/></g><g><path fill="#d99e89" d="M 1831.660156 2661.910156 C 1811.273438 2661.898438 1792.496094 2656.109375 1779.070312 2638.609375 C 1792.496094 2656.109375 1811.273438 2661.910156 1831.660156 2661.910156 C 1845.59375 2661.910156 1860.285156 2659.199219 1874.527344 2655.660156 C 1874.597656 2655.511719 1874.667969 2655.371094 1874.734375 2655.21875 C 1874.667969 2655.359375 1874.597656 2655.519531 1874.527344 2655.660156 C 1860.285156 2659.199219 1845.59375 2661.910156 1831.660156 2661.910156 M 1874.886719 2654.917969 C 1874.910156 2654.871094 1874.941406 2654.789062 1874.964844 2654.738281 C 1874.941406 2654.800781 1874.910156 2654.859375 1874.886719 2654.917969 M 1875.117188 2654.421875 C 1875.136719 2654.378906 1875.160156 2654.332031 1875.183594 2654.289062 C 1875.171875 2654.332031 1875.136719 2654.378906 1875.117188 2654.421875 M 1875.34375 2653.9375 C 1875.355469 2653.929688 1875.367188 2653.898438 1875.378906 2653.878906 C 1875.367188 2653.898438 1875.355469 2653.917969 1875.34375 2653.9375 M 1779.070312 2638.609375 C 1779.101562 2638.398438 1779.136719 2638.191406 1779.171875 2637.980469 C 1779.136719 2638.191406 1779.101562 2638.398438 1779.070312 2638.609375 M 1779.195312 2637.839844 C 1779.230469 2637.628906 1779.277344 2637.421875 1779.296875 2637.210938 C 1779.277344 2637.421875 1779.230469 2637.628906 1779.195312 2637.839844 M 1779.296875 2637.210938 C 1779.34375 2636.980469 1779.378906 2636.75 1779.414062 2636.519531 C 1779.378906 2636.75 1779.34375 2636.980469 1779.296875 2637.210938 M 1779.425781 2636.492188 C 1780.714844 2628.679688 1781.933594 2620.839844 1783.09375 2612.96875 C 1799.6875 2500.699219 1803.402344 2383.070312 1792.574219 2268.578125 C 1804.160156 2391.089844 1799.097656 2517.199219 1779.425781 2636.492188"/></g><g><path fill="#d48f79" d="M 1831.65625 2661.910156 C 1811.269531 2661.910156 1792.503906 2656.109375 1779.066406 2638.609375 C 1779.105469 2638.402344 1779.144531 2638.191406 1779.167969 2637.980469 C 1779.179688 2637.941406 1779.191406 2637.878906 1779.191406 2637.839844 C 1779.230469 2637.628906 1779.269531 2637.417969 1779.292969 2637.210938 C 1779.34375 2636.980469 1779.382812 2636.75 1779.40625 2636.519531 C 1779.417969 2636.5 1779.417969 2636.5 1779.417969 2636.488281 C 1799.101562 2517.199219 1804.15625 2391.089844 1792.578125 2268.582031 C 1880.34375 2240.679688 1965.320312 2203.039062 2044.820312 2156.429688 C 2022.023438 2326.210938 1946.355469 2505.230469 1875.375 2653.878906 C 1875.375 2653.898438 1875.363281 2653.929688 1875.351562 2653.941406 C 1875.285156 2654.0625 1875.238281 2654.167969 1875.175781 2654.289062 C 1875.160156 2654.332031 1875.136719 2654.378906 1875.125 2654.421875 C 1875.074219 2654.53125 1875.023438 2654.628906 1874.972656 2654.742188 C 1874.9375 2654.789062 1874.910156 2654.871094 1874.871094 2654.917969 C 1874.824219 2655.019531 1874.785156 2655.121094 1874.734375 2655.21875 C 1874.671875 2655.371094 1874.597656 2655.507812 1874.535156 2655.660156 C 1860.285156 2659.199219 1845.59375 2661.910156 1831.65625 2661.910156"/></g><g><path fill="#e0ad97" d="M 1889.761719 721.742188 C 1887.949219 706.757812 1885.300781 690.871094 1883.734375 674.867188 C 1857.066406 695.304688 1817.632812 701.089844 1783.050781 696.050781 C 1736.09375 689.203125 1692.011719 667.988281 1644.878906 662.519531 C 1573.179688 654.203125 1498.128906 685.835938 1454.019531 742.980469 C 1409.90625 800.117188 1398.308594 880.738281 1424.515625 948.003906 C 1465.894531 924.082031 1512.980469 927.105469 1560.992188 930.128906 C 1587.976562 931.828125 1615.261719 933.523438 1641.957031 930.429688 C 1680.226562 925.996094 1717.253906 911.144531 1747.964844 887.890625 C 1778.921875 864.445312 1803.171875 833.058594 1834.183594 809.699219 C 1853.167969 795.394531 1876.4375 784.402344 1899.707031 781.753906 C 1895.261719 762.136719 1892.210938 742.105469 1889.761719 721.742188"/></g><g><path fill="#e0ad97" d="M 2659.367188 676.003906 C 2615.714844 625.597656 2544.847656 600.335938 2479.148438 611.742188 C 2435.964844 619.246094 2396.394531 641.105469 2353.441406 649.875 C 2326.046875 655.460938 2294.882812 653.726562 2270.351562 641.839844 C 2275.570312 659.980469 2280.023438 678.289062 2282.292969 697.015625 C 2284.160156 712.4375 2284.027344 727.363281 2282.257812 741.953125 C 2292.847656 745.886719 2303 751.207031 2312.222656 757.359375 C 2342.035156 777.269531 2366.03125 804.964844 2395.8125 824.972656 C 2425.339844 844.816406 2460.273438 856.605469 2495.789062 858.691406 C 2520.503906 860.15625 2545.480469 857.191406 2570.226562 854.222656 C 2614.414062 848.917969 2657.78125 843.617188 2697.25 863.558594 C 2717.925781 800.164062 2703.019531 726.414062 2659.367188 676.003906"/></g><g><path fill="#c45a64" d="M 2603.589844 731.246094 C 2586.386719 715.960938 2567.222656 702.441406 2545.597656 694.582031 C 2505.644531 680.054688 2461.4375 686.097656 2419.589844 693.660156 C 2377.757812 701.234375 2334.652344 710.132812 2293.167969 700.839844 C 2289.535156 700.03125 2285.9375 699.023438 2282.371094 697.851562 C 2284.136719 712.957031 2283.988281 727.617188 2282.257812 741.960938 C 2292.835938 745.890625 2303.007812 751.207031 2312.21875 757.347656 C 2342.03125 777.273438 2366.019531 804.972656 2395.800781 824.980469 C 2425.351562 844.824219 2460.265625 856.59375 2495.789062 858.691406 C 2520.472656 860.144531 2545.414062 857.222656 2570.09375 854.285156 C 2611.960938 849.316406 2653.066406 844.347656 2690.851562 860.738281 C 2673.15625 811.214844 2642.914062 766.179688 2603.589844 731.246094 M 1899.710938 781.746094 C 1876.449219 784.40625 1853.171875 795.398438 1834.1875 809.695312 C 1803.167969 833.054688 1778.933594 864.4375 1747.964844 887.878906 C 1717.257812 911.140625 1680.230469 925.996094 1641.960938 930.4375 C 1615.292969 933.523438 1588.0625 931.855469 1561.113281 930.1875 C 1515.660156 927.382812 1471.023438 924.558594 1431.261719 944.550781 C 1447.371094 889.941406 1477.3125 839.425781 1517.691406 799.261719 C 1535.339844 781.695312 1555.222656 765.914062 1578.113281 756.09375 C 1620.410156 737.964844 1668.558594 741.796875 1714.238281 747.410156 C 1759.917969 753.039062 1807.046875 760.023438 1851.308594 747.441406 C 1865.191406 743.496094 1878.644531 736.910156 1890.628906 728.441406 C 1892.925781 746.484375 1895.746094 764.28125 1899.710938 781.746094"/></g><g><path fill="#d99e89" d="M 2419.585938 693.675781 C 2419.6875 693.644531 2419.777344 693.628906 2419.882812 693.613281 C 2419.777344 693.628906 2419.6875 693.644531 2419.585938 693.675781"/></g><g><path fill="#ba4756" d="M 2456.832031 806.585938 C 2452.902344 806.585938 2448.972656 806.445312 2445.09375 806.195312 C 2398.753906 803.15625 2353.730469 784.097656 2318.785156 753.578125 C 2317.847656 737.085938 2316.9375 720.308594 2314.277344 704.078125 C 2320.019531 704.582031 2325.78125 704.816406 2331.554688 704.816406 C 2360.867188 704.816406 2390.539062 698.914062 2419.585938 693.671875 C 2419.695312 693.65625 2419.789062 693.640625 2419.882812 693.609375 C 2443.011719 689.445312 2466.847656 685.753906 2490.304688 685.753906 C 2498.207031 685.753906 2506.082031 686.175781 2513.859375 687.128906 C 2530.492188 697.382812 2543.609375 711.542969 2546.816406 730.433594 C 2550.902344 754.472656 2536.285156 779.011719 2515.609375 791.921875 C 2498.238281 802.765625 2477.457031 806.585938 2456.832031 806.585938"/></g><g><path fill="#d99e89" d="M 1795.386719 754.496094 C 1768.425781 754.496094 1741.074219 750.722656 1714.226562 747.417969 C 1711.113281 747.03125 1707.976562 746.65625 1704.824219 746.296875 C 1707.976562 746.65625 1711.113281 747.03125 1714.226562 747.417969 C 1741.074219 750.722656 1768.425781 754.496094 1795.386719 754.496094 C 1809.625 754.496094 1823.769531 753.445312 1837.667969 750.707031 C 1823.757812 753.445312 1809.625 754.496094 1795.386719 754.496094"/></g><g><path fill="#ba4756" d="M 1665.511719 859.804688 C 1654.40625 859.804688 1643.328125 858.765625 1632.429688 856.507812 C 1615.425781 852.976562 1598.15625 845.902344 1587.714844 832 C 1582.8125 825.460938 1579.65625 817.722656 1577.6875 809.773438 C 1572.953125 790.730469 1575.984375 771.082031 1584.183594 753.714844 C 1605.910156 745.546875 1629.023438 742.777344 1652.46875 742.777344 C 1669.890625 742.777344 1687.503906 744.3125 1704.828125 746.292969 C 1707.984375 746.652344 1711.113281 747.027344 1714.230469 747.414062 C 1741.066406 750.726562 1768.417969 754.492188 1795.378906 754.492188 C 1809.628906 754.492188 1823.753906 753.4375 1837.671875 750.710938 C 1834.417969 765.488281 1832.394531 780.871094 1830.800781 795.800781 C 1830.554688 795.964844 1830.304688 796.132812 1830.070312 796.296875 C 1800.835938 816.265625 1770.21875 834.753906 1736.886719 846.675781 C 1714.023438 854.847656 1689.707031 859.804688 1665.511719 859.804688"/></g><g><path fill="#f2bdaa" d="M 2400.273438 1045.324219 C 2374.109375 1011.636719 2352.3125 974.886719 2342.289062 933.054688 C 2330.707031 884.769531 2326.367188 834.109375 2321.082031 784.828125 C 2316.839844 745.1875 2319.839844 700.507812 2302.335938 663.667969 C 2286.121094 629.527344 2251.066406 623.328125 2216.648438 622.394531 C 2125.863281 619.921875 2031.394531 624.101562 1943.359375 647.824219 C 1910.714844 656.640625 1874.460938 671.347656 1855.574219 702.53125 C 1834.105469 738.003906 1831.554688 789.726562 1827.4375 830.050781 C 1817.285156 929.355469 1823.875 1029.390625 1840.308594 1127.652344 C 1852.636719 1201.449219 1865.941406 1276.4375 1897.109375 1345.011719 C 1962.726562 1489.414062 2109.058594 1593.332031 2271.460938 1558.710938 C 2370.796875 1537.542969 2454.449219 1462.320312 2489.191406 1366.277344 C 2533.917969 1242.644531 2475.261719 1141.832031 2400.273438 1045.324219"/></g><g><path fill="#2a2425" d="M 2386.664062 1026.773438 C 2366.707031 998.207031 2350.496094 967.355469 2342.28125 933.0625 C 2330.699219 884.773438 2326.367188 834.109375 2321.082031 784.824219 C 2318.179688 757.707031 2318.664062 728.234375 2313.65625 700.515625 C 2274.871094 709.039062 2237.34375 723.226562 2204.792969 745.730469 C 2162.433594 775.015625 2129.078125 819.335938 2119.882812 870.015625 C 2110.703125 920.675781 2128.449219 977.046875 2169.519531 1008.101562 C 2189.59375 1023.300781 2213.957031 1031.96875 2238.617188 1037.050781 C 2287.667969 1047.152344 2339.398438 1043.257812 2386.664062 1026.773438"/></g><g><path fill="#c45a64" d="M 2145.605469 1106.75 C 2044.449219 1139.441406 1949.4375 1190.910156 1866.519531 1257.40625 C 1874.46875 1287.332031 1884.261719 1316.730469 1897.113281 1345.011719 C 1962.742188 1489.40625 2109.066406 1593.316406 2271.472656 1558.707031 C 2370.800781 1537.535156 2454.460938 1462.316406 2489.199219 1366.277344 C 2530.085938 1253.261719 2484.574219 1159.308594 2419.164062 1070.289062 C 2327.152344 1065.246094 2233.132812 1078.46875 2145.605469 1106.75"/></g><g><path fill="#df6e7d" d="M 2094.347656 1154.992188 C 2069.289062 1145.757812 2048.71875 1154.539062 2030.042969 1173.660156 C 2017.148438 1186.851562 1989.234375 1233.835938 2019.324219 1245.257812 C 2040.371094 1253.253906 2066.980469 1217.773438 2081.542969 1206.324219 C 2093.929688 1196.597656 2123.109375 1165.597656 2094.347656 1154.992188"/></g><g><path fill="#df6e7d" d="M 2422.320312 1109.980469 C 2410.980469 1079.058594 2358.417969 1073.40625 2338.433594 1098.191406 C 2303.460938 1141.585938 2438.234375 1153.359375 2422.320312 1109.980469"/></g><g><path fill="#c4c3c6" d="M 2430.882812 1464.167969 C 2454.96875 1436.933594 2474.324219 1405.375 2487.414062 1371.046875 C 2488.023438 1369.457031 2488.621094 1367.867188 2489.1875 1366.277344 C 2489.234375 1366.167969 2489.277344 1366.046875 2489.324219 1365.9375 C 2489.324219 1365.894531 2489.339844 1365.847656 2489.371094 1365.800781 C 2489.386719 1365.726562 2489.417969 1365.664062 2489.433594 1365.585938 C 2489.460938 1365.542969 2489.476562 1365.480469 2489.492188 1365.433594 C 2489.523438 1365.375 2489.539062 1365.3125 2489.570312 1365.234375 C 2489.585938 1365.191406 2489.601562 1365.128906 2489.628906 1365.082031 C 2489.644531 1365.023438 2489.660156 1364.960938 2489.691406 1364.898438 C 2489.707031 1364.839844 2489.722656 1364.777344 2489.753906 1364.714844 C 2489.769531 1364.671875 2489.785156 1364.609375 2489.8125 1364.5625 C 2489.828125 1364.488281 2489.84375 1364.441406 2489.875 1364.378906 C 2489.890625 1364.320312 2489.90625 1364.273438 2489.921875 1364.210938 C 2489.953125 1364.136719 2489.984375 1364.089844 2489.996094 1364.027344 C 2490.011719 1363.96875 2490.027344 1363.921875 2490.042969 1363.875 C 2490.074219 1363.8125 2490.105469 1363.738281 2490.121094 1363.675781 C 2490.136719 1363.628906 2490.152344 1363.585938 2490.164062 1363.539062 C 2490.195312 1363.460938 2490.210938 1363.402344 2490.242188 1363.324219 C 2490.257812 1363.292969 2490.273438 1363.25 2490.273438 1363.21875 C 2490.304688 1363.140625 2490.335938 1363.066406 2490.363281 1362.988281 C 2490.378906 1362.957031 2490.378906 1362.925781 2490.394531 1362.898438 C 2490.53125 1362.5 2490.671875 1362.117188 2490.792969 1361.71875 C 2490.808594 1361.703125 2490.824219 1361.671875 2490.824219 1361.644531 C 2490.855469 1361.566406 2490.882812 1361.472656 2490.914062 1361.398438 C 2490.914062 1361.367188 2490.929688 1361.335938 2490.929688 1361.304688 C 2490.960938 1361.214844 2490.992188 1361.136719 2491.023438 1361.0625 C 2491.039062 1361.03125 2491.054688 1361 2491.054688 1360.953125 C 2491.082031 1360.878906 2491.113281 1360.785156 2491.144531 1360.710938 C 2491.144531 1360.679688 2491.160156 1360.664062 2491.160156 1360.632812 C 2491.191406 1360.542969 2491.222656 1360.464844 2491.25 1360.375 C 2491.265625 1360.34375 2491.265625 1360.328125 2491.28125 1360.296875 C 2491.3125 1360.207031 2491.34375 1360.128906 2491.375 1360.039062 C 2491.375 1360.007812 2491.390625 1360.007812 2491.390625 1359.976562 C 2491.417969 1359.882812 2491.449219 1359.792969 2491.480469 1359.6875 C 2491.480469 1359.6875 2491.496094 1359.65625 2491.496094 1359.65625 C 2491.710938 1358.996094 2491.953125 1358.308594 2492.152344 1357.652344 C 2491.222656 1360.511719 2490.242188 1363.386719 2489.1875 1366.277344 C 2476.113281 1402.453125 2456.082031 1435.679688 2430.882812 1464.167969 M 2492.183594 1357.605469 C 2492.214844 1357.515625 2492.230469 1357.421875 2492.261719 1357.332031 C 2492.230469 1357.421875 2492.214844 1357.515625 2492.183594 1357.605469 M 2492.351562 1357.023438 C 2492.367188 1357.023438 2492.367188 1357.007812 2492.367188 1356.996094 C 2492.367188 1357.007812 2492.367188 1357.023438 2492.351562 1357.023438 M 1872.503906 682.21875 C 1892.195312 664.421875 1918.800781 654.453125 1943.359375 647.832031 C 1918.800781 654.453125 1892.210938 664.421875 1872.503906 682.21875 M 1943.359375 647.832031 C 1943.480469 647.800781 1943.617188 647.753906 1943.742188 647.726562 C 1943.617188 647.753906 1943.480469 647.800781 1943.359375 647.832031 M 1943.910156 647.679688 C 1943.984375 647.664062 1944.0625 647.648438 1944.125 647.617188 C 1944.0625 647.648438 1943.984375 647.664062 1943.910156 647.679688 M 1944.320312 647.570312 C 1944.382812 647.554688 1944.445312 647.542969 1944.503906 647.527344 C 1944.445312 647.542969 1944.382812 647.554688 1944.320312 647.570312 M 1944.765625 647.449219 L 1944.765625 647.449219"/></g><g><path fill="#d99e89" d="M 1856.695312 700.722656 C 1861.175781 693.753906 1866.507812 687.625 1872.496094 682.222656 C 1866.523438 687.625 1861.175781 693.753906 1856.695312 700.722656"/></g><g><path fill="#f0b09c" d="M 2271.460938 1558.710938 C 2369.144531 1537.890625 2451.671875 1464.804688 2487.425781 1371.050781 C 2474.335938 1405.367188 2454.960938 1436.929688 2430.890625 1464.179688 C 2389.207031 1511.324219 2333.390625 1545.511719 2271.460938 1558.710938 M 2489.320312 1365.945312 C 2489.320312 1365.898438 2489.351562 1365.835938 2489.367188 1365.804688 C 2489.351562 1365.835938 2489.320312 1365.898438 2489.320312 1365.945312 M 2489.441406 1365.59375 C 2489.457031 1365.53125 2489.472656 1365.484375 2489.503906 1365.441406 C 2489.472656 1365.484375 2489.457031 1365.546875 2489.441406 1365.59375 M 2489.566406 1365.242188 C 2489.582031 1365.195312 2489.609375 1365.148438 2489.625 1365.089844 C 2489.609375 1365.132812 2489.582031 1365.195312 2489.566406 1365.242188 M 2489.6875 1364.90625 C 2489.703125 1364.84375 2489.734375 1364.78125 2489.75 1364.722656 C 2489.734375 1364.78125 2489.703125 1364.84375 2489.6875 1364.90625 M 2489.808594 1364.566406 C 2489.824219 1364.492188 2489.839844 1364.445312 2489.871094 1364.382812 C 2489.839844 1364.445312 2489.824219 1364.492188 2489.808594 1364.566406 M 2489.933594 1364.214844 C 2489.960938 1364.15625 2489.976562 1364.09375 2489.992188 1364.03125 C 2489.976562 1364.09375 2489.960938 1364.140625 2489.933594 1364.214844 M 2490.054688 1363.863281 C 2490.070312 1363.820312 2490.101562 1363.742188 2490.117188 1363.679688 C 2490.101562 1363.742188 2490.070312 1363.820312 2490.054688 1363.863281 M 2490.160156 1363.527344 C 2490.191406 1363.46875 2490.222656 1363.40625 2490.238281 1363.328125 C 2490.222656 1363.40625 2490.191406 1363.46875 2490.160156 1363.527344 M 2490.285156 1363.207031 C 2490.316406 1363.144531 2490.328125 1363.054688 2490.359375 1362.992188 C 2490.328125 1363.070312 2490.316406 1363.144531 2490.285156 1363.207031 M 2490.390625 1362.886719 C 2490.527344 1362.503906 2490.667969 1362.105469 2490.804688 1361.722656 C 2490.667969 1362.105469 2490.527344 1362.503906 2490.390625 1362.886719 M 2490.835938 1361.648438 C 2490.851562 1361.554688 2490.878906 1361.480469 2490.910156 1361.386719 C 2490.878906 1361.480469 2490.851562 1361.554688 2490.835938 1361.648438 M 2490.941406 1361.296875 C 2490.972656 1361.21875 2491.003906 1361.144531 2491.035156 1361.066406 C 2491.003906 1361.144531 2490.972656 1361.21875 2490.941406 1361.296875 M 2491.0625 1360.960938 C 2491.09375 1360.882812 2491.125 1360.789062 2491.140625 1360.714844 C 2491.125 1360.789062 2491.09375 1360.882812 2491.0625 1360.960938 M 2491.171875 1360.636719 C 2491.203125 1360.546875 2491.230469 1360.453125 2491.261719 1360.378906 C 2491.230469 1360.453125 2491.203125 1360.546875 2491.171875 1360.636719 M 2491.277344 1360.300781 C 2491.308594 1360.210938 2491.355469 1360.117188 2491.371094 1360.027344 C 2491.355469 1360.117188 2491.308594 1360.210938 2491.277344 1360.300781 M 2491.386719 1359.980469 C 2491.414062 1359.890625 2491.460938 1359.78125 2491.492188 1359.691406 C 2491.460938 1359.796875 2491.414062 1359.890625 2491.386719 1359.980469 M 2491.492188 1359.660156 C 2491.828125 1358.679688 2492.148438 1357.703125 2492.457031 1356.738281 C 2492.425781 1356.816406 2492.394531 1356.90625 2492.363281 1357 C 2492.363281 1357.015625 2492.363281 1357.027344 2492.363281 1357.027344 C 2492.332031 1357.136719 2492.300781 1357.226562 2492.273438 1357.335938 C 2492.242188 1357.425781 2492.210938 1357.519531 2492.179688 1357.59375 C 2492.164062 1357.625 2492.164062 1357.625 2492.164062 1357.65625 C 2491.949219 1358.3125 2491.722656 1358.988281 2491.492188 1359.660156 M 2492.484375 1356.632812 C 2492.5 1356.570312 2492.53125 1356.507812 2492.546875 1356.464844 C 2492.53125 1356.523438 2492.5 1356.570312 2492.484375 1356.632812 M 1896.933594 1344.644531 C 1896.921875 1344.597656 1896.90625 1344.566406 1896.875 1344.503906 C 1896.90625 1344.550781 1896.921875 1344.597656 1896.933594 1344.644531 M 1896.765625 1344.277344 C 1896.75 1344.214844 1896.722656 1344.167969 1896.691406 1344.109375 C 1896.722656 1344.167969 1896.75 1344.214844 1896.765625 1344.277344 M 1896.613281 1343.941406 C 1896.582031 1343.863281 1896.554688 1343.785156 1896.523438 1343.726562 C 1896.554688 1343.785156 1896.582031 1343.863281 1896.613281 1343.941406 M 1896.460938 1343.617188 C 1896.261719 1343.144531 1896.046875 1342.65625 1895.835938 1342.195312 C 1865.570312 1274.394531 1852.46875 1200.425781 1840.308594 1127.652344 C 1823.871094 1029.390625 1817.28125 929.367188 1827.433594 830.0625 C 1831.5625 789.738281 1834.101562 738.007812 1855.570312 702.527344 C 1855.953125 701.933594 1856.320312 701.320312 1856.703125 700.726562 C 1861.167969 693.75 1866.519531 687.636719 1872.5 682.222656 C 1892.210938 664.421875 1918.800781 654.453125 1943.359375 647.832031 C 1943.484375 647.800781 1943.621094 647.753906 1943.742188 647.722656 C 1943.804688 647.707031 1943.851562 647.691406 1943.910156 647.679688 C 1943.972656 647.664062 1944.0625 647.648438 1944.125 647.617188 C 1944.203125 647.601562 1944.261719 647.585938 1944.324219 647.570312 C 1944.386719 647.554688 1944.429688 647.539062 1944.492188 647.523438 C 1944.585938 647.507812 1944.660156 647.480469 1944.753906 647.449219 C 1944.769531 647.449219 1944.769531 647.449219 1944.769531 647.449219 C 1974.34375 639.558594 2004.636719 633.898438 2035.265625 629.910156 C 2034.835938 630.136719 2034.40625 630.382812 2033.980469 630.613281 L 2107.441406 623.425781 C 2107.5625 623.425781 2107.699219 623.410156 2107.839844 623.410156 C 1982.921875 700.175781 1926.953125 853.199219 1907.210938 998.484375 C 1900.101562 1050.890625 1896.539062 1104.347656 1905.175781 1156.523438 C 1908.585938 1177.089844 1914.0625 1197.308594 1921.355469 1216.820312 C 1902.5625 1229.632812 1884.257812 1243.183594 1866.503906 1257.417969 C 1874.335938 1286.855469 1883.921875 1315.757812 1896.460938 1343.617188"/></g><g><path fill="#ba4756" d="M 2208.605469 1565.402344 C 2072.105469 1565.402344 1954.128906 1470.492188 1897.113281 1345.011719 C 1897.054688 1344.886719 1896.992188 1344.765625 1896.945312 1344.640625 C 1896.914062 1344.59375 1896.898438 1344.550781 1896.882812 1344.503906 C 1896.851562 1344.441406 1896.808594 1344.347656 1896.777344 1344.289062 C 1896.746094 1344.226562 1896.714844 1344.164062 1896.699219 1344.101562 C 1896.667969 1344.042969 1896.636719 1343.996094 1896.621094 1343.933594 C 1896.589844 1343.855469 1896.546875 1343.796875 1896.515625 1343.71875 C 1896.5 1343.6875 1896.484375 1343.65625 1896.46875 1343.609375 C 1883.929688 1315.765625 1874.347656 1286.84375 1866.515625 1257.414062 C 1884.253906 1243.183594 1902.5625 1229.632812 1921.359375 1216.816406 C 1954.894531 1306.488281 2027.214844 1381.871094 2117.503906 1413.882812 C 2149.855469 1425.375 2184.113281 1430.945312 2218.40625 1430.945312 C 2300.695312 1430.945312 2383.179688 1398.855469 2439.902344 1339.148438 C 2467.238281 1310.367188 2487.777344 1275.597656 2500.882812 1238.171875 C 2507.558594 1275.492188 2505.945312 1314.675781 2492.542969 1356.457031 C 2492.53125 1356.519531 2492.515625 1356.5625 2492.484375 1356.625 C 2492.484375 1356.65625 2492.46875 1356.6875 2492.453125 1356.734375 C 2492.144531 1357.703125 2491.820312 1358.6875 2491.5 1359.65625 C 2491.5 1359.65625 2491.484375 1359.6875 2491.484375 1359.6875 C 2491.453125 1359.777344 2491.421875 1359.886719 2491.390625 1359.980469 C 2491.390625 1359.996094 2491.375 1360.011719 2491.375 1360.023438 C 2491.34375 1360.117188 2491.3125 1360.210938 2491.285156 1360.300781 C 2491.269531 1360.332031 2491.269531 1360.332031 2491.253906 1360.363281 C 2491.222656 1360.457031 2491.207031 1360.546875 2491.175781 1360.625 C 2491.160156 1360.65625 2491.144531 1360.6875 2491.144531 1360.71875 C 2491.113281 1360.792969 2491.082031 1360.886719 2491.050781 1360.964844 C 2491.050781 1360.996094 2491.039062 1361.023438 2491.023438 1361.054688 C 2491.007812 1361.132812 2490.976562 1361.226562 2490.945312 1361.300781 C 2490.929688 1361.332031 2490.914062 1361.363281 2490.914062 1361.394531 C 2490.882812 1361.488281 2490.851562 1361.5625 2490.820312 1361.640625 C 2490.820312 1361.671875 2490.804688 1361.703125 2490.804688 1361.71875 C 2490.667969 1362.117188 2490.53125 1362.503906 2490.40625 1362.886719 C 2490.390625 1362.917969 2490.375 1362.949219 2490.359375 1362.996094 C 2490.34375 1363.054688 2490.3125 1363.132812 2490.285156 1363.210938 C 2490.269531 1363.257812 2490.253906 1363.285156 2490.238281 1363.332031 C 2490.222656 1363.394531 2490.207031 1363.457031 2490.175781 1363.53125 C 2490.160156 1363.578125 2490.144531 1363.625 2490.113281 1363.6875 C 2490.097656 1363.734375 2490.082031 1363.808594 2490.050781 1363.871094 C 2490.023438 1363.917969 2490.023438 1363.964844 2490.007812 1364.023438 C 2489.976562 1364.085938 2489.960938 1364.148438 2489.929688 1364.210938 C 2489.914062 1364.269531 2489.882812 1364.316406 2489.882812 1364.378906 C 2489.851562 1364.441406 2489.820312 1364.488281 2489.804688 1364.5625 C 2489.792969 1364.609375 2489.777344 1364.671875 2489.746094 1364.71875 C 2489.730469 1364.777344 2489.714844 1364.839844 2489.683594 1364.902344 C 2489.667969 1364.964844 2489.652344 1365.023438 2489.621094 1365.085938 C 2489.605469 1365.132812 2489.589844 1365.195312 2489.574219 1365.242188 C 2489.546875 1365.316406 2489.515625 1365.363281 2489.5 1365.425781 C 2489.484375 1365.488281 2489.453125 1365.53125 2489.4375 1365.59375 C 2489.421875 1365.65625 2489.390625 1365.734375 2489.375 1365.792969 C 2489.34375 1365.839844 2489.328125 1365.886719 2489.3125 1365.933594 C 2489.285156 1366.054688 2489.238281 1366.164062 2489.191406 1366.285156 C 2488.621094 1367.871094 2488.023438 1369.457031 2487.421875 1371.054688 C 2451.671875 1464.800781 2369.152344 1537.890625 2271.464844 1558.710938 C 2250.1875 1563.25 2229.203125 1565.402344 2208.605469 1565.402344"/></g><g><path fill="#7f403e" d="M 2356.082031 394.5625 C 2344.125 341.8125 2324.070312 288.207031 2283.449219 252.488281 C 2277.984375 247.6875 2268.9375 243.457031 2264.269531 249.039062 C 2307.546875 300.230469 2308.121094 376.71875 2285.511719 439.832031 C 2276.058594 466.246094 2262.5625 491.953125 2241.625 510.621094 C 2220.691406 529.308594 2191.347656 540.066406 2163.988281 533.792969 C 2166.066406 538.40625 2157.511719 535.988281 2159.589844 540.589844 C 2179.816406 585.472656 2214.5 632.046875 2236.265625 676.203125 C 2292.984375 667.40625 2337.953125 619.109375 2355.914062 564.605469 C 2373.871094 510.097656 2368.765625 450.535156 2356.082031 394.5625"/></g><g><path fill="#7f403e" d="M 1971.878906 565.199219 C 1947.09375 578.375 1915.960938 575.621094 1890.898438 563.023438 C 1865.816406 550.425781 1846.109375 529.121094 1830.097656 506.066406 C 1791.859375 451.023438 1772.53125 377 1801.011719 316.316406 C 1795.042969 312.144531 1787.421875 318.578125 1783.382812 324.644531 C 1753.453125 369.679688 1748.027344 426.667969 1750.1875 480.707031 C 1752.496094 538.058594 1763.050781 596.894531 1794.5625 644.863281 C 1826.074219 692.832031 1882.058594 727.773438 1939.113281 721.507812 C 1948.644531 673.226562 1970.03125 619.222656 1977.898438 570.625 C 1978.707031 565.628906 1971.085938 570.214844 1971.878906 565.199219"/></g><g><path fill="#141112" d="M 2014.816406 923.875 C 2014.816406 962.203125 1983.738281 993.28125 1945.40625 993.28125 C 1907.078125 993.28125 1876.015625 962.203125 1876.015625 923.875 C 1876.015625 885.558594 1907.078125 854.480469 1945.40625 854.480469 C 1983.738281 854.480469 2014.816406 885.558594 2014.816406 923.875"/></g><g><path fill="#141112" d="M 2339.015625 872.714844 C 2339.015625 911.042969 2307.9375 942.109375 2269.621094 942.109375 C 2231.292969 942.109375 2200.210938 911.042969 2200.210938 872.714844 C 2200.210938 834.386719 2231.292969 803.316406 2269.621094 803.316406 C 2307.9375 803.316406 2339.015625 834.386719 2339.015625 872.714844"/></g><g><path fill="#2a2425" d="M 2185.359375 1244.179688 C 2174.828125 1225.589844 2156.546875 1209.496094 2134.296875 1209.011719 C 2076.515625 1207.726562 2054.507812 1281.914062 2091.351562 1320.335938 C 2109.847656 1339.601562 2142.128906 1314.789062 2128.332031 1291.808594 C 2123.011719 1282.941406 2117.640625 1273.410156 2124.441406 1263.6875 C 2129.316406 1256.707031 2139.886719 1253.199219 2148.164062 1254.886719 C 2173.101562 1259.949219 2179.621094 1291.3125 2189.070312 1309.683594 C 2190.3125 1312.101562 2193.808594 1311.277344 2194.566406 1308.96875 C 2200.613281 1290.394531 2194.890625 1261.027344 2185.359375 1244.179688"/></g><g><path fill="#2a2425" d="M 2339.105469 1162.039062 C 2323.847656 1175.910156 2319.671875 1195.71875 2322.878906 1215.570312 C 2324.59375 1226.1875 2328.53125 1236.285156 2334.09375 1245.519531 C 2340.433594 1255.988281 2348.726562 1260.941406 2357.34375 1269.21875 C 2358.882812 1270.710938 2361.789062 1269.25 2361.058594 1267.070312 C 2358.253906 1258.523438 2357.332031 1248.890625 2354.808594 1240.148438 C 2351.828125 1229.769531 2348.976562 1217.507812 2354.511719 1207.425781 C 2359.507812 1198.328125 2380.359375 1189.273438 2380.777344 1205.980469 C 2381.566406 1237.628906 2431.144531 1237.660156 2429.980469 1205.980469 C 2428.3125 1161.21875 2375.988281 1128.539062 2339.105469 1162.039062"/></g><g><path fill="#8d9f24" d="M 2602.730469 1508.398438 C 2502.363281 1441.847656 2381.21875 1410.726562 2261.195312 1413.1875 C 2255.5 1421.488281 2248.003906 1428.617188 2238.96875 1433.699219 C 2215.347656 1446.976562 2188.578125 1441.136719 2174.855469 1420.769531 C 2174.519531 1420.816406 2174.183594 1420.847656 2173.847656 1420.898438 C 2101.855469 1432.347656 2030.921875 1455.835938 1966.25 1489.515625 C 1933.527344 1506.558594 1901.945312 1526.117188 1872.496094 1548.367188 C 1869.414062 1550.699219 1866.03125 1553.109375 1862.53125 1555.609375 C 1865.851562 1564.386719 1869.574219 1573.007812 1873.621094 1581.496094 C 1877.890625 1577.847656 1882.046875 1574.398438 1886.023438 1571.507812 C 1913.242188 1551.816406 1941.4375 1533.546875 1970.96875 1517.539062 C 2033.539062 1483.617188 2100.410156 1458.976562 2170.621094 1446.808594 C 2316.382812 1421.539062 2464.714844 1452.597656 2590.292969 1529.648438 C 2603.898438 1537.988281 2615.824219 1517.085938 2602.730469 1508.398438"/></g><g><path fill="#141112" d="M 2278.523438 1362.511719 C 2272.613281 1353.851562 2257.476562 1358.910156 2260.820312 1369.980469 C 2266.730469 1389.554688 2264.691406 1406.660156 2246.988281 1419.570312 C 2234.121094 1428.941406 2210.960938 1434.3125 2195.441406 1429.335938 C 2164.757812 1419.515625 2172.226562 1386.152344 2154.664062 1366.480469 C 2151.746094 1363.21875 2146.261719 1363.601562 2143.296875 1366.480469 C 2126.023438 1383.332031 2134.738281 1412.34375 2146.273438 1430.386719 C 2160.875 1453.234375 2185.492188 1464.542969 2212.277344 1462.574219 C 2257.277344 1459.269531 2310.214844 1408.96875 2278.523438 1362.511719"/></g><g><path fill="#fccfc1" d="M 2659.6875 1480.355469 C 2668.304688 1463.625 2674.523438 1445.722656 2677.804688 1426.554688 C 2681.4375 1405.273438 2684.359375 1368.292969 2654.261719 1364.554688 C 2626.511719 1361.113281 2606.519531 1401.074219 2597.171875 1421.222656 C 2590.546875 1435.503906 2586.121094 1450.261719 2583.617188 1465.292969 C 2564.351562 1452.246094 2542.296875 1443.683594 2518.519531 1440.476562 C 2489.09375 1436.503906 2449.175781 1438.195312 2435.371094 1469.503906 C 2420.109375 1504.132812 2455.226562 1523.242188 2482.453125 1532.726562 C 2503.308594 1539.992188 2524.839844 1543.285156 2546.386719 1543.273438 C 2513.347656 1580.914062 2480.136719 1632.125 2524.195312 1651.191406 C 2547.078125 1661.105469 2575.894531 1642.074219 2590.53125 1625.5625 C 2595.632812 1619.816406 2599.808594 1613.542969 2603.339844 1606.945312 C 2608.226562 1620.84375 2614.460938 1633.8125 2622.859375 1644.40625 C 2637.023438 1667.453125 2662.847656 1677.183594 2687.539062 1661.253906 C 2727.371094 1635.554688 2711.214844 1582.40625 2679.796875 1553.914062 C 2713.765625 1554.722656 2745.910156 1547.414062 2749.644531 1517.066406 C 2754.734375 1475.714844 2703.253906 1474.863281 2659.6875 1480.355469"/></g><g><path fill="#2a2425" d="M 784.96875 2664.578125 C 720.789062 2686.671875 687.941406 2659.539062 687.941406 2659.539062 C 674.988281 2670.058594 665.929688 2683.660156 660.425781 2699.421875 C 658.183594 2705.828125 656.660156 2712.609375 657.046875 2719.398438 C 657.800781 2732.710938 666.507812 2745.269531 678.714844 2750.640625 C 690.917969 2756.019531 706.058594 2753.96875 716.394531 2745.53125 C 727.652344 2736.351562 732.335938 2721.539062 736.453125 2707.609375 C 737.917969 2712.429688 737.460938 2716.660156 739.125 2721.421875 C 741.996094 2729.628906 745.363281 2738.03125 751.703125 2743.988281 C 760.191406 2751.960938 773.363281 2754.199219 784.316406 2750.230469 C 795.269531 2746.269531 803.769531 2736.578125 807.117188 2725.429688 C 810.464844 2714.269531 808.855469 2701.878906 803.5625 2691.511719 C 798.785156 2682.140625 788.960938 2674.300781 784.96875 2664.578125"/></g><g><path fill="#2a2425" d="M 1880.542969 2643.648438 C 1813.417969 2665.742188 1779.066406 2638.609375 1779.066406 2638.609375 C 1765.515625 2649.128906 1756.050781 2662.742188 1750.292969 2678.488281 C 1747.953125 2684.910156 1746.351562 2691.679688 1746.757812 2698.46875 C 1747.542969 2711.78125 1756.644531 2724.339844 1769.421875 2729.71875 C 1782.175781 2735.089844 1798.019531 2733.039062 1808.820312 2724.609375 C 1820.601562 2715.421875 1825.492188 2700.621094 1829.796875 2686.679688 C 1831.332031 2691.511719 1830.851562 2695.738281 1832.59375 2700.492188 C 1835.601562 2708.699219 1839.113281 2717.101562 1845.746094 2723.0625 C 1854.628906 2731.039062 1868.398438 2733.269531 1879.851562 2729.308594 C 1891.308594 2725.351562 1900.199219 2715.660156 1903.699219 2704.5 C 1907.199219 2693.339844 1905.511719 2680.960938 1899.988281 2670.582031 C 1894.980469 2661.222656 1884.722656 2653.378906 1880.542969 2643.648438"/></g><g><path fill="#2a2425" d="M 2284.191406 592.828125 C 2271.914062 582.613281 2254.394531 581.882812 2238.480469 583.476562 C 2232.46875 584.078125 2226.496094 584.953125 2220.550781 586.089844 C 2223.425781 584.5625 2226.265625 582.988281 2229.058594 581.316406 C 2237.457031 576.25 2245.917969 569.867188 2249.097656 560.578125 C 2254.164062 545.769531 2242.945312 529.1875 2228.363281 523.457031 C 2213.796875 517.722656 2197.34375 520.273438 2182.257812 524.480469 C 2158.921875 530.976562 2136.722656 541.351562 2116.636719 554.878906 C 2142.066406 534.289062 2165.515625 511.261719 2186.480469 486.15625 C 2205.351562 463.582031 2223.164062 434.902344 2215.515625 406.503906 C 2201.113281 353.027344 2132.632812 359.132812 2095.414062 381.28125 C 2065.515625 399.082031 2038.234375 427.304688 2017.433594 454.992188 C 1998.773438 479.820312 1970.695312 521.214844 1971.539062 553.9375 C 1971.296875 544.4375 1970.710938 534.953125 1969.496094 525.535156 C 1962.542969 471.816406 1912.511719 503.109375 1903.042969 565.109375 C 1899.84375 586.121094 1901.03125 607.492188 1903.253906 628.636719 C 1898.855469 608.5 1894.453125 588.363281 1890.050781 568.226562 C 1887.144531 554.960938 1882.859375 539.859375 1870.5 534.191406 C 1854.035156 526.621094 1835.390625 541.660156 1828.179688 558.289062 C 1818.144531 581.414062 1820.402344 608.644531 1830.324219 631.835938 C 1840.230469 655.023438 1857.167969 674.59375 1875.941406 691.433594 C 1966.734375 772.792969 2125.84375 731.59375 2228.199219 693.429688 C 2250.105469 685.246094 2272.628906 675.144531 2286.5625 656.375 C 2300.511719 637.601562 2302.167969 607.785156 2284.191406 592.828125"/></g><g><path fill="#f7a12e" d="M 2656.507812 1521.332031 C 2656.507812 1546.578125 2636.039062 1567.0625 2610.792969 1567.0625 C 2585.53125 1567.0625 2565.0625 1546.578125 2565.0625 1521.332031 C 2565.0625 1496.070312 2585.53125 1475.601562 2610.792969 1475.601562 C 2636.039062 1475.601562 2656.507812 1496.070312 2656.507812 1521.332031"/></g><g><path fill="#ffffff" d="M 1988.265625 895.234375 C 1989.472656 903.710938 1983.585938 911.566406 1975.121094 912.773438 C 1966.632812 913.984375 1958.792969 908.09375 1957.570312 899.617188 C 1956.359375 891.140625 1962.25 883.289062 1970.738281 882.078125 C 1979.203125 880.871094 1987.054688 886.757812 1988.265625 895.234375"/></g><g><path fill="#ffffff" d="M 2318.996094 843.046875 C 2320.207031 851.53125 2314.3125 859.375 2305.832031 860.582031 C 2297.359375 861.792969 2289.519531 855.914062 2288.292969 847.429688 C 2287.082031 838.960938 2292.976562 831.105469 2301.460938 829.894531 C 2309.929688 828.683594 2317.789062 834.578125 2318.996094 843.046875"/></g><g><path fill="#2a2425" d="M 431.320312 2165.808594 C 437.601562 2112.800781 426.445312 2049.820312 379.496094 2024.429688 C 357.242188 2012.390625 330.480469 2011.039062 308.027344 1999.378906 C 258.347656 1973.578125 246.0625 1907.679688 251.015625 1851.910156 C 255.480469 1801.628906 269.179688 1752.179688 291.222656 1706.769531 C 318.53125 1702.648438 343.53125 1722.648438 362.710938 1742.519531 C 409.355469 1790.839844 448.578125 1847.941406 467.109375 1912.488281 C 490.296875 1993.28125 474.140625 2093.480469 431.320312 2165.808594"/></g></g></svg>