<?xml version="1.0" encoding="UTF-8"?><svg xmlns="http://www.w3.org/2000/svg" xmlns:xlink="http://www.w3.org/1999/xlink" contentScriptType="text/ecmascript" fill="#000000" width="2541" zoomAndPan="magnify" contentStyleType="text/css" viewBox="217.6 317.4 2541.0 2373.4" height="2373.4" preserveAspectRatio="xMidYMid meet" version="1"><g><g><path fill="#ebbda2" d="M 986.496094 1926.199219 L 779.382812 1926.199219 C 725.96875 1978.878906 663.796875 2021.390625 593.351562 2047.078125 C 496.488281 2082.410156 396.714844 2150.949219 384.632812 2253.339844 C 380.449219 2288.820312 388.292969 2335.921875 422.28125 2346.898438 C 475.976562 2364.238281 469.371094 2305.578125 484.832031 2293.460938 C 480.347656 2308.769531 459.636719 2342.621094 477.113281 2385.960938 C 488.027344 2413.03125 524.867188 2432.75 544.328125 2411.011719 C 560.265625 2393.210938 553.171875 2360.53125 572.695312 2346.761719 C 562.421875 2383.519531 552.109375 2440.949219 586.546875 2457.421875 C 645.65625 2485.691406 671.59375 2415.859375 693.632812 2384.199219 C 723.820312 2340.820312 764.953125 2305.191406 810.214844 2278.269531 C 864.492188 2245.988281 924.789062 2225.550781 986.496094 2211.289062 L 986.496094 1926.199219"/></g><g><path fill="#e7ac8f" d="M 639.917969 2334.589844 C 597.136719 2334.589844 554.613281 2322.691406 517.53125 2301.378906 C 526.214844 2282.679688 536.503906 2265.269531 548.46875 2249.289062 C 597.601562 2282.121094 651.484375 2307.25 707.855469 2324.601562 C 686.566406 2330.910156 664.449219 2334.351562 642.222656 2334.570312 C 641.453125 2334.578125 640.683594 2334.589844 639.917969 2334.589844"/></g><g><path fill="#a7a7ae" d="M 488.914062 2403.769531 C 483.878906 2398.578125 479.742188 2392.480469 477.113281 2385.960938 C 459.636719 2342.621094 480.347656 2308.769531 484.832031 2293.460938 C 480.347656 2308.769531 459.636719 2342.621094 477.113281 2385.960938 C 479.742188 2392.480469 483.878906 2398.578125 488.914062 2403.769531 M 459.84375 2342.609375 C 459.847656 2342.609375 459.855469 2342.601562 459.859375 2342.601562 C 459.855469 2342.601562 459.847656 2342.609375 459.84375 2342.609375 M 459.898438 2342.558594 C 467.964844 2334.871094 471.660156 2322.570312 475.210938 2311.949219 C 471.660156 2322.570312 467.964844 2334.871094 459.898438 2342.558594 M 383.605469 2270.96875 C 383.605469 2269.640625 383.625 2268.308594 383.660156 2266.988281 C 383.625 2268.308594 383.605469 2269.640625 383.605469 2270.96875 M 384.671875 2253.011719 C 384.675781 2253.011719 384.675781 2253 384.675781 2252.988281 C 384.675781 2253 384.675781 2253.011719 384.671875 2253.011719"/></g><g><path fill="#e7ac8f" d="M 523.371094 2420.300781 C 511.417969 2420.300781 498.523438 2413.679688 488.914062 2403.769531 C 483.878906 2398.578125 479.742188 2392.480469 477.113281 2385.960938 C 459.636719 2342.621094 480.347656 2308.769531 484.832031 2293.460938 C 480.496094 2296.859375 477.894531 2303.921875 475.210938 2311.949219 C 471.660156 2322.570312 467.964844 2334.871094 459.898438 2342.558594 C 459.886719 2342.570312 459.871094 2342.589844 459.859375 2342.601562 C 459.855469 2342.601562 459.847656 2342.609375 459.84375 2342.609375 C 455.058594 2347.160156 448.738281 2350.078125 440.007812 2350.078125 C 434.960938 2350.078125 429.109375 2349.101562 422.28125 2346.898438 C 393.703125 2337.660156 383.609375 2302.898438 383.605469 2270.96875 C 383.605469 2269.640625 383.625 2268.308594 383.660156 2266.988281 C 383.78125 2262.320312 384.113281 2257.738281 384.632812 2253.339844 C 384.648438 2253.230469 384.660156 2253.121094 384.671875 2253.011719 C 384.675781 2253.011719 384.675781 2253 384.675781 2252.988281 C 388.078125 2224.648438 398.378906 2199.011719 413.292969 2175.851562 C 420.097656 2199.121094 431.96875 2221.371094 446.835938 2240.421875 C 466.117188 2265.128906 490.367188 2285.78125 517.53125 2301.378906 C 503.425781 2331.761719 493.546875 2365.558594 487.535156 2402.199219 C 497.28125 2412.960938 510.867188 2420.289062 523.417969 2420.289062 C 531.167969 2420.289062 538.519531 2417.5 544.328125 2411.011719 C 560.265625 2393.210938 553.171875 2360.53125 572.695312 2346.761719 C 553.171875 2360.53125 560.265625 2393.210938 544.328125 2411.011719 C 538.511719 2417.511719 531.140625 2420.300781 523.371094 2420.300781"/></g><g><path fill="#6f707b" d="M 633.796875 2459.019531 C 660.304688 2445.878906 676.816406 2409.820312 691.273438 2387.699219 C 676.816406 2409.820312 660.308594 2445.878906 633.796875 2459.019531 M 565.238281 2429.070312 C 563.539062 2422.300781 562.824219 2414.851562 562.828125 2407.101562 C 562.832031 2386.769531 567.769531 2364.390625 572.695312 2346.761719 C 565.890625 2371.101562 559.074219 2404.5 565.238281 2429.070312 M 691.316406 2387.640625 C 692.082031 2386.460938 692.84375 2385.328125 693.601562 2384.238281 C 692.84375 2385.328125 692.082031 2386.460938 691.316406 2387.640625"/></g><g><path fill="#e39679" d="M 612.847656 2464.011719 C 604.875 2464.011719 596.140625 2462.011719 586.546875 2457.421875 C 574.910156 2451.851562 568.382812 2441.609375 565.238281 2429.070312 C 559.074219 2404.5 565.890625 2371.101562 572.695312 2346.761719 C 572.695312 2346.761719 572.695312 2346.761719 572.691406 2346.761719 C 572.695312 2346.761719 572.695312 2346.761719 572.695312 2346.761719 C 553.171875 2360.53125 560.265625 2393.210938 544.328125 2411.011719 C 538.519531 2417.5 531.167969 2420.289062 523.417969 2420.289062 C 510.867188 2420.289062 497.28125 2412.960938 487.535156 2402.199219 C 493.546875 2365.558594 503.425781 2331.761719 517.53125 2301.378906 C 554.613281 2322.691406 597.136719 2334.589844 639.917969 2334.589844 C 640.683594 2334.589844 641.453125 2334.578125 642.222656 2334.570312 C 664.449219 2334.351562 686.566406 2330.910156 707.855469 2324.601562 C 715.828125 2327.058594 723.835938 2329.351562 731.902344 2331.5 C 716.535156 2347.449219 703.480469 2365.011719 693.601562 2384.238281 C 692.84375 2385.328125 692.082031 2386.460938 691.316406 2387.640625 C 691.304688 2387.660156 691.289062 2387.679688 691.273438 2387.699219 C 676.816406 2409.820312 660.304688 2445.878906 633.796875 2459.019531 C 627.425781 2462.179688 620.480469 2464.011719 612.847656 2464.011719"/></g><g><path fill="#ebbda2" d="M 2542.003906 1468.1875 C 2553.527344 1423.527344 2611.441406 1398.117188 2652.109375 1419.867188 C 2692.796875 1441.617188 2703.8125 1503.898438 2673.0625 1538.285156 C 2695.621094 1524.195312 2728.84375 1542.007812 2734.191406 1568.066406 C 2739.523438 1594.117188 2721.195312 1621.199219 2696.570312 1631.269531 C 2717.097656 1628.136719 2738.726562 1643.085938 2743.058594 1663.386719 C 2747.390625 1683.675781 2733.75 1706.15625 2713.746094 1711.6875 C 2744.9375 1731.507812 2758.59375 1774.898438 2744.378906 1809.007812 C 2730.179688 1843.117188 2689.75 1863.988281 2653.71875 1855.808594 C 2667.359375 1866.335938 2671.269531 1887.527344 2662.296875 1902.25 C 2653.347656 1916.96875 2632.714844 1923.199219 2617.113281 1915.917969 C 2628.738281 1942.097656 2606.601562 1974.097656 2578.710938 1980.636719 C 2550.820312 1987.1875 2521.628906 1974.386719 2499.421875 1956.289062 C 2465 1928.25 2442.644531 1888.40625 2421.675781 1849.269531 C 2394.597656 1798.726562 2370.089844 1744.808594 2387.132812 1686.96875 C 2400.316406 1642.128906 2426.09375 1602.558594 2436.957031 1556.367188 C 2445.148438 1521.628906 2443.761719 1472.90625 2463.867188 1442.855469 C 2489.066406 1405.148438 2555.324219 1416.558594 2542.003906 1468.1875"/></g><g><path fill="#a7a7ae" d="M 2563.492188 1982.378906 C 2559.871094 1982.378906 2556.269531 1982.097656 2552.703125 1981.578125 C 2556.269531 1982.097656 2559.871094 1982.378906 2563.492188 1982.378906 C 2568.558594 1982.378906 2573.660156 1981.828125 2578.707031 1980.636719 C 2588.925781 1978.246094 2598.367188 1972.4375 2605.65625 1964.746094 C 2598.367188 1972.4375 2588.925781 1978.246094 2578.707031 1980.636719 C 2573.660156 1981.828125 2568.574219 1982.378906 2563.492188 1982.378906 M 2620.265625 1930.96875 C 2620.265625 1925.886719 2619.273438 1920.796875 2617.101562 1915.917969 C 2617.21875 1915.976562 2617.355469 1916.027344 2617.488281 1916.085938 C 2617.355469 1916.027344 2617.21875 1915.976562 2617.101562 1915.917969 C 2619.273438 1920.796875 2620.265625 1925.886719 2620.265625 1930.96875 M 2643.882812 1916.777344 C 2648.628906 1915.109375 2653.039062 1912.507812 2656.691406 1909.097656 C 2653.039062 1912.507812 2648.628906 1915.109375 2643.882812 1916.777344 M 2662.230469 1902.386719 C 2662.246094 1902.335938 2662.28125 1902.289062 2662.296875 1902.246094 C 2662.28125 1902.289062 2662.246094 1902.335938 2662.230469 1902.386719 M 2667.128906 1884.46875 C 2667.144531 1873.535156 2662.398438 1862.519531 2653.714844 1855.808594 C 2662.398438 1862.519531 2667.144531 1873.535156 2667.128906 1884.46875 M 2686.519531 1855.75 C 2710.269531 1850.566406 2731.949219 1834.75 2742.636719 1812.847656 C 2731.949219 1834.75 2710.285156 1850.566406 2686.519531 1855.75 M 2743.664062 1667.257812 C 2743.53125 1665.957031 2743.328125 1664.667969 2743.058594 1663.386719 C 2742.066406 1658.757812 2740.179688 1654.398438 2737.621094 1650.476562 C 2740.179688 1654.398438 2742.066406 1658.757812 2743.058594 1663.378906 C 2743.328125 1664.667969 2743.53125 1665.957031 2743.664062 1667.257812 M 2696.566406 1631.269531 C 2698.402344 1630.988281 2700.222656 1630.847656 2702.054688 1630.847656 C 2700.222656 1630.847656 2698.402344 1630.988281 2696.566406 1631.269531 M 2702.375 1630.847656 C 2702.273438 1630.847656 2702.191406 1630.847656 2702.089844 1630.847656 C 2702.191406 1630.847656 2702.273438 1630.847656 2702.375 1630.847656 M 2735.113281 1577.238281 C 2735.113281 1574.699219 2734.910156 1572.136719 2734.472656 1569.585938 C 2734.910156 1572.136719 2735.113281 1574.699219 2735.113281 1577.238281 M 2734.1875 1568.066406 C 2734.171875 1568.027344 2734.171875 1567.996094 2734.171875 1567.96875 C 2734.171875 1567.996094 2734.171875 1568.027344 2734.1875 1568.066406 M 2734.15625 1567.929688 C 2734.15625 1567.90625 2734.136719 1567.886719 2734.136719 1567.867188 C 2734.136719 1567.886719 2734.15625 1567.90625 2734.15625 1567.929688"/></g><g><path fill="#e7ac8f" d="M 2563.476562 1982.382812 C 2559.867188 1982.382812 2556.253906 1982.101562 2552.679688 1981.582031 C 2544.292969 1980.351562 2536.007812 1977.761719 2528.078125 1974.203125 C 2545.085938 1913.011719 2552.375 1849.183594 2548.628906 1786.191406 C 2583.214844 1771.335938 2606.378906 1745.492188 2591.886719 1692.855469 C 2600.085938 1702.625 2612.167969 1707.066406 2624.667969 1707.066406 C 2642.871094 1707.066406 2661.953125 1697.644531 2671.199219 1681.542969 C 2686.789062 1654.375 2677.019531 1617.671875 2654.445312 1595.964844 C 2655.355469 1595.992188 2656.285156 1596.015625 2657.195312 1596.015625 C 2685.777344 1596.015625 2713.851562 1581.402344 2730.738281 1558.394531 C 2732.257812 1561.382812 2733.4375 1564.554688 2734.128906 1567.875 C 2734.128906 1567.894531 2734.144531 1567.914062 2734.144531 1567.933594 C 2734.144531 1567.945312 2734.144531 1567.953125 2734.144531 1567.972656 C 2734.164062 1568.003906 2734.164062 1568.035156 2734.179688 1568.074219 C 2734.265625 1568.585938 2734.367188 1569.085938 2734.464844 1569.59375 C 2734.886719 1572.144531 2735.109375 1574.703125 2735.109375 1577.242188 C 2735.125 1600.234375 2718.285156 1622.382812 2696.558594 1631.273438 C 2698.378906 1630.992188 2700.21875 1630.851562 2702.039062 1630.851562 C 2702.058594 1630.851562 2702.058594 1630.851562 2702.074219 1630.851562 C 2702.175781 1630.851562 2702.257812 1630.851562 2702.359375 1630.851562 C 2716.296875 1630.964844 2729.960938 1638.832031 2737.605469 1650.484375 C 2740.167969 1654.402344 2742.058594 1658.765625 2743.039062 1663.394531 C 2743.324219 1664.671875 2743.527344 1665.964844 2743.644531 1667.261719 C 2745.617188 1686.425781 2732.527344 1706.433594 2713.851562 1711.664062 C 2713.816406 1711.671875 2713.765625 1711.683594 2713.730469 1711.695312 C 2736.574219 1726.203125 2750.023438 1753.371094 2749.988281 1780.265625 C 2749.988281 1790.09375 2748.167969 1799.882812 2744.371094 1809.011719 C 2743.832031 1810.3125 2743.257812 1811.59375 2742.632812 1812.851562 C 2731.9375 1834.753906 2710.257812 1850.574219 2686.5 1855.753906 C 2680.984375 1856.953125 2675.367188 1857.582031 2669.75 1857.582031 C 2664.367188 1857.582031 2658.984375 1857.011719 2653.703125 1855.8125 C 2653.703125 1855.8125 2653.703125 1855.8125 2653.71875 1855.8125 C 2653.703125 1855.8125 2653.703125 1855.8125 2653.703125 1855.8125 C 2662.390625 1862.523438 2667.132812 1873.542969 2667.117188 1884.472656 C 2667.117188 1890.703125 2665.546875 1896.902344 2662.292969 1902.253906 C 2662.273438 1902.292969 2662.242188 1902.34375 2662.207031 1902.394531 C 2660.671875 1904.882812 2658.796875 1907.132812 2656.691406 1909.101562 C 2653.027344 1912.511719 2648.609375 1915.113281 2643.867188 1916.785156 C 2639.820312 1918.210938 2635.515625 1918.972656 2631.246094 1918.972656 C 2626.523438 1918.972656 2621.800781 1918.042969 2617.464844 1916.09375 C 2617.347656 1916.03125 2617.210938 1915.984375 2617.09375 1915.921875 C 2619.269531 1920.804688 2620.246094 1925.894531 2620.246094 1930.972656 C 2620.265625 1943.171875 2614.546875 1955.363281 2605.652344 1964.753906 C 2598.347656 1972.441406 2588.917969 1978.253906 2578.695312 1980.644531 C 2573.648438 1981.832031 2568.554688 1982.382812 2563.476562 1982.382812"/></g><g><path fill="#f1ccb3" d="M 2522.34375 1651.214844 C 2445.34375 1426.527344 2211.3125 1281.8125 1975.210938 1255.820312 C 1739.128906 1229.84375 1502.664062 1304.113281 1287.984375 1405.75 C 1344.753906 1566.148438 1337.261719 1739.765625 1260.933594 1891.835938 C 1184.601562 2043.90625 1060.621094 2180.949219 898.914062 2233.910156 C 797.1875 2267.21875 691.285156 2334.910156 675.21875 2440.738281 C 669.652344 2477.398438 676.164062 2526.550781 711.054688 2539.109375 C 766.175781 2558.960938 761.34375 2497.867188 777.804688 2485.820312 C 772.621094 2501.550781 749.960938 2535.96875 766.597656 2581.539062 C 776.992188 2610 814.539062 2631.738281 835.488281 2609.847656 C 852.636719 2591.929688 846.402344 2557.777344 867.136719 2544.167969 C 855.207031 2581.949219 842.527344 2641.1875 877.691406 2659.46875 C 938.050781 2690.839844 967.375 2619.28125 991.335938 2587.1875 C 1024.160156 2543.21875 1068.070312 2507.667969 1115.960938 2481.289062 C 1189.394531 2440.859375 1272.34375 2420.710938 1355.28125 2408.597656 C 1413.371094 2400.109375 1473.792969 2394.796875 1525.132812 2366.347656 C 1576.484375 2337.910156 1631.464844 2275.246094 1615.601562 2218.726562 C 1628.828125 2231.4375 1637.003906 2248.347656 1646.742188 2263.886719 C 1689.890625 2332.808594 1765.578125 2376.277344 1844.175781 2397.128906 C 1922.769531 2417.96875 2005.117188 2418.679688 2086.429688 2418.910156 C 2104.894531 2418.96875 2124.195312 2415.027344 2140.890625 2407.167969 C 2280.71875 2341.316406 2403.710938 2235.378906 2477.441406 2099.527344 C 2551.160156 1963.6875 2572.464844 1797.425781 2522.34375 1651.214844"/></g><g><path fill="#a7a7ae" d="M 897.191406 2666.398438 C 891.070312 2665.289062 884.578125 2663.050781 877.6875 2659.46875 C 842.523438 2641.191406 855.203125 2581.949219 867.136719 2544.160156 C 867.136719 2544.171875 867.136719 2544.171875 867.136719 2544.171875 C 855.203125 2581.949219 842.523438 2641.191406 877.6875 2659.46875 C 884.578125 2663.050781 891.070312 2665.289062 897.191406 2666.398438 M 835.414062 2609.921875 C 835.4375 2609.898438 835.460938 2609.871094 835.484375 2609.851562 C 849.28125 2595.429688 847.941406 2570.511719 857.691406 2554.21875 C 847.945312 2570.511719 849.28125 2595.429688 835.484375 2609.851562 C 835.460938 2609.871094 835.4375 2609.898438 835.414062 2609.921875 M 992.351562 2585.828125 C 999.769531 2576 1007.75 2566.589844 1016.199219 2557.621094 C 1016.21875 2557.621094 1016.25 2557.621094 1016.269531 2557.628906 C 1007.808594 2566.609375 999.785156 2575.988281 992.351562 2585.828125 M 675.214844 2440.738281 C 675.230469 2440.640625 675.246094 2440.539062 675.261719 2440.441406 C 675.246094 2440.539062 675.230469 2440.640625 675.214844 2440.738281 M 675.28125 2440.308594 C 675.289062 2440.261719 675.296875 2440.199219 675.304688 2440.148438 C 675.296875 2440.199219 675.289062 2440.261719 675.28125 2440.308594 M 675.332031 2439.980469 C 675.335938 2439.941406 675.34375 2439.898438 675.351562 2439.859375 C 675.34375 2439.898438 675.335938 2439.941406 675.332031 2439.980469 M 675.378906 2439.671875 C 675.386719 2439.640625 675.390625 2439.609375 675.394531 2439.578125 C 675.390625 2439.609375 675.386719 2439.640625 675.378906 2439.671875 M 675.429688 2439.359375 C 675.433594 2439.339844 675.433594 2439.320312 675.4375 2439.300781 C 675.4375 2439.320312 675.433594 2439.339844 675.429688 2439.359375 M 675.480469 2439.050781 C 675.480469 2439.039062 675.480469 2439.039062 675.480469 2439.039062 C 675.480469 2439.039062 675.480469 2439.039062 675.480469 2439.050781"/></g><g><path fill="#eec0a2" d="M 906.382812 2667.25 C 903.410156 2667.25 900.351562 2666.96875 897.191406 2666.398438 C 891.070312 2665.289062 884.578125 2663.050781 877.6875 2659.46875 C 842.523438 2641.191406 855.203125 2581.949219 867.136719 2544.171875 C 867.136719 2544.160156 867.136719 2544.160156 867.136719 2544.160156 C 863.085938 2546.820312 860.0625 2550.269531 857.691406 2554.21875 C 847.941406 2570.511719 849.28125 2595.429688 835.484375 2609.851562 C 835.460938 2609.871094 835.4375 2609.898438 835.414062 2609.921875 C 829.449219 2616.121094 822.152344 2618.789062 814.519531 2618.789062 C 795.679688 2618.789062 774.816406 2602.511719 767.027344 2582.671875 C 772.28125 2596.039062 783.488281 2607.761719 796 2614 C 804.613281 2568.628906 821.59375 2524.808594 846.253906 2486.03125 C 895.675781 2523.71875 955.113281 2548.960938 1016.199219 2557.621094 C 1007.75 2566.589844 999.769531 2576 992.351562 2585.828125 C 992.011719 2586.28125 991.671875 2586.730469 991.335938 2587.191406 C 971.519531 2613.730469 948.046875 2667.25 906.382812 2667.25 M 767.027344 2582.671875 C 766.984375 2582.558594 766.945312 2582.460938 766.90625 2582.351562 C 766.945312 2582.460938 766.988281 2582.570312 767.027344 2582.671875 M 766.898438 2582.339844 C 766.882812 2582.289062 766.863281 2582.25 766.847656 2582.199219 C 766.863281 2582.25 766.882812 2582.289062 766.898438 2582.339844 M 766.835938 2582.171875 C 766.816406 2582.128906 766.800781 2582.078125 766.785156 2582.039062 C 766.800781 2582.078125 766.820312 2582.128906 766.835938 2582.171875 M 766.777344 2582.019531 C 766.761719 2581.96875 766.742188 2581.929688 766.722656 2581.878906 C 766.742188 2581.929688 766.761719 2581.96875 766.777344 2582.019531 M 766.710938 2581.839844 C 766.695312 2581.800781 766.683594 2581.761719 766.667969 2581.730469 C 766.683594 2581.769531 766.695312 2581.800781 766.710938 2581.839844 M 766.652344 2581.691406 C 766.636719 2581.640625 766.617188 2581.589844 766.601562 2581.539062 C 766.617188 2581.589844 766.636719 2581.640625 766.652344 2581.691406"/></g><g><path fill="#dc7c5e" d="M 693.601562 2384.238281 C 703.480469 2365.011719 716.535156 2347.449219 731.902344 2331.5 C 716.535156 2347.449219 703.480469 2365.011719 693.601562 2384.238281"/></g><g><path fill="#eec0a2" d="M 767.027344 2582.671875 L 767.027344 2582.671875 M 766.90625 2582.351562 C 766.902344 2582.351562 766.902344 2582.339844 766.898438 2582.339844 C 766.898438 2582.339844 766.902344 2582.351562 766.90625 2582.351562 M 766.847656 2582.199219 C 766.84375 2582.191406 766.839844 2582.179688 766.835938 2582.171875 C 766.839844 2582.179688 766.84375 2582.191406 766.847656 2582.199219 M 766.785156 2582.039062 C 766.78125 2582.03125 766.78125 2582.03125 766.777344 2582.019531 C 766.78125 2582.03125 766.78125 2582.03125 766.785156 2582.039062 M 766.722656 2581.878906 C 766.71875 2581.859375 766.714844 2581.851562 766.710938 2581.839844 C 766.714844 2581.851562 766.71875 2581.859375 766.722656 2581.878906 M 766.667969 2581.730469 C 766.664062 2581.710938 766.65625 2581.699219 766.652344 2581.691406 C 766.65625 2581.699219 766.664062 2581.710938 766.667969 2581.730469 M 846.253906 2486.03125 C 837.648438 2479.460938 829.351562 2472.519531 821.394531 2465.21875 C 783.566406 2430.511719 751.464844 2385.421875 745.4375 2334.941406 C 796.324219 2347.28125 848.789062 2353.488281 901.21875 2353.488281 C 947.691406 2353.5 994.125 2348.621094 1039.46875 2338.828125 C 995.433594 2356 953.710938 2377.21875 916.792969 2406.800781 C 888.914062 2429.140625 865.296875 2456.078125 846.253906 2486.03125 M 675.261719 2440.441406 C 675.265625 2440.398438 675.273438 2440.351562 675.28125 2440.308594 C 675.273438 2440.359375 675.265625 2440.398438 675.261719 2440.441406 M 675.304688 2440.148438 C 675.3125 2440.089844 675.320312 2440.039062 675.332031 2439.980469 C 675.320312 2440.039062 675.3125 2440.101562 675.304688 2440.148438 M 675.351562 2439.859375 C 675.359375 2439.800781 675.371094 2439.738281 675.378906 2439.671875 C 675.371094 2439.738281 675.359375 2439.800781 675.351562 2439.859375 M 675.394531 2439.578125 C 675.40625 2439.511719 675.417969 2439.429688 675.429688 2439.359375 C 675.417969 2439.441406 675.40625 2439.5 675.394531 2439.578125 M 675.4375 2439.300781 C 675.453125 2439.21875 675.464844 2439.128906 675.480469 2439.050781 C 675.464844 2439.128906 675.453125 2439.21875 675.4375 2439.300781 M 675.480469 2439.039062 C 677.234375 2428.171875 679.9375 2417.71875 683.488281 2407.660156 C 686.332031 2399.601562 689.722656 2391.789062 693.601562 2384.238281 C 703.480469 2365.011719 716.535156 2347.449219 731.902344 2331.5 C 731.945312 2331.511719 732.011719 2331.53125 732.054688 2331.539062 C 703.089844 2361.550781 682.230469 2397.269531 675.480469 2439.039062"/></g><g><path fill="#6f707b" d="M 730.648438 2543.050781 C 725.117188 2543.050781 718.652344 2541.851562 711.054688 2539.109375 C 718.652344 2541.851562 725.117188 2543.050781 730.648438 2543.050781 M 749.375 2536.648438 C 765.328125 2523.46875 766.867188 2493.820312 777.800781 2485.820312 C 766.867188 2493.820312 765.328125 2523.46875 749.375 2536.648438 M 674.902344 2442.910156 C 674.910156 2442.839844 674.921875 2442.761719 674.933594 2442.679688 C 674.921875 2442.761719 674.910156 2442.839844 674.902344 2442.910156"/></g><g><path fill="#e9ad8e" d="M 796 2614 C 783.488281 2607.761719 772.28125 2596.039062 767.027344 2582.671875 C 766.988281 2582.570312 766.945312 2582.460938 766.90625 2582.351562 C 766.902344 2582.351562 766.898438 2582.339844 766.898438 2582.339844 C 766.882812 2582.289062 766.863281 2582.25 766.847656 2582.199219 C 766.84375 2582.191406 766.839844 2582.179688 766.835938 2582.171875 C 766.820312 2582.128906 766.800781 2582.078125 766.785156 2582.039062 C 766.78125 2582.03125 766.78125 2582.03125 766.777344 2582.019531 C 766.761719 2581.96875 766.742188 2581.929688 766.722656 2581.878906 C 766.71875 2581.859375 766.714844 2581.851562 766.710938 2581.839844 C 766.695312 2581.800781 766.683594 2581.769531 766.667969 2581.730469 C 766.664062 2581.710938 766.65625 2581.699219 766.652344 2581.691406 C 766.636719 2581.640625 766.617188 2581.589844 766.601562 2581.539062 C 762.261719 2569.660156 760.59375 2558.53125 760.59375 2548.300781 C 760.589844 2519.289062 773.972656 2497.449219 777.800781 2485.820312 C 766.867188 2493.820312 765.328125 2523.46875 749.375 2536.648438 C 744.621094 2540.578125 738.589844 2543.050781 730.648438 2543.050781 C 725.117188 2543.050781 718.652344 2541.851562 711.054688 2539.109375 C 683.21875 2529.078125 673.441406 2495.78125 673.453125 2464.101562 C 673.457031 2456.851562 673.972656 2449.691406 674.902344 2442.910156 C 674.910156 2442.839844 674.921875 2442.761719 674.933594 2442.679688 C 675.023438 2442.03125 675.117188 2441.378906 675.214844 2440.738281 C 675.230469 2440.640625 675.246094 2440.539062 675.261719 2440.441406 C 675.265625 2440.398438 675.273438 2440.359375 675.28125 2440.308594 C 675.289062 2440.261719 675.296875 2440.199219 675.304688 2440.148438 C 675.3125 2440.101562 675.320312 2440.039062 675.332031 2439.980469 C 675.335938 2439.941406 675.34375 2439.898438 675.351562 2439.859375 C 675.359375 2439.800781 675.371094 2439.738281 675.378906 2439.671875 C 675.386719 2439.640625 675.390625 2439.609375 675.394531 2439.578125 C 675.40625 2439.5 675.417969 2439.441406 675.429688 2439.359375 C 675.433594 2439.339844 675.4375 2439.320312 675.4375 2439.300781 C 675.453125 2439.21875 675.464844 2439.128906 675.480469 2439.050781 C 675.480469 2439.039062 675.480469 2439.039062 675.480469 2439.039062 C 682.230469 2397.269531 703.089844 2361.550781 732.054688 2331.539062 C 736.511719 2332.71875 740.957031 2333.851562 745.4375 2334.941406 C 751.464844 2385.421875 783.566406 2430.511719 821.394531 2465.21875 C 829.351562 2472.519531 837.648438 2479.460938 846.253906 2486.03125 C 821.59375 2524.808594 804.613281 2568.628906 796 2614"/></g><g><path fill="#eec0a2" d="M 1159.480469 2299.898438 C 1180.621094 2290.539062 1201.230469 2279.949219 1221.183594 2268.109375 C 1311.761719 2214.390625 1389.953125 2135.289062 1428.191406 2037.167969 C 1442.621094 2000.160156 1450.726562 1960.339844 1451.988281 1920.5 C 1478.40625 1847.527344 1492.078125 1767.730469 1492.078125 1690.058594 C 1492.078125 1612.398438 1478.40625 1536.863281 1450.195312 1472.417969 C 1449.855469 1471.632812 1449.507812 1470.832031 1449.15625 1470.046875 C 1444.375 1459.320312 1439.285156 1448.945312 1433.859375 1438.878906 C 1467.246094 1441.554688 1500.96875 1444.710938 1534.816406 1447.851562 C 1621.542969 1455.941406 1709.167969 1464.019531 1794.476562 1464.019531 C 1952.507812 1464.019531 2102.628906 1436.285156 2224.523438 1329.492188 C 2245.5 1339.992188 2265.902344 1351.503906 2285.601562 1363.972656 C 2253.28125 1403.191406 2213.765625 1436.84375 2170.355469 1463.304688 C 2087.738281 1513.65625 1991.910156 1539.542969 1895.648438 1549.175781 C 1866.257812 1552.105469 1836.726562 1553.5625 1807.183594 1553.5625 C 1714.203125 1553.5625 1621.207031 1539.078125 1532.699219 1510.585938 C 1557.433594 1629.1875 1575.089844 1740.980469 1567.335938 1861.890625 C 1559.566406 1982.800781 1514.976562 2106.449219 1422.121094 2184.269531 C 1348.199219 2246.230469 1253.609375 2272.570312 1159.480469 2299.898438"/></g><g><path fill="#ebbda2" d="M 1166.765625 1438.078125 C 1280.675781 1424.011719 1406.773438 1435.945312 1534.800781 1447.863281 C 1788.695312 1471.515625 2050.164062 1495.167969 2239.148438 1316.167969 C 2295.734375 1262.578125 2335.074219 1186.851562 2320.445312 1107.246094 C 2305.019531 1023.238281 2231.039062 977.855469 2152.609375 961.324219 C 1957.351562 920.167969 1762.207031 1010.203125 1586.085938 1083.046875 C 1480.335938 1126.785156 1374.585938 1170.519531 1268.84375 1214.269531 C 1241.644531 1225.503906 1214.457031 1236.761719 1187.265625 1248.007812 C 1178.734375 1251.53125 1167.875 1254.355469 1160.078125 1259.238281 C 1136.726562 1273.894531 1143.136719 1269.710938 1151.527344 1296.671875 C 1165.335938 1341.007812 1181.777344 1391.851562 1166.765625 1438.078125"/></g><g><path fill="#ee8986" d="M 1586.957031 1357.742188 C 1564.613281 1357.742188 1542.28125 1357.074219 1519.960938 1355.636719 C 1458.820312 1351.691406 1400.929688 1340.832031 1344.859375 1323.359375 C 1337.433594 1316.394531 1329.789062 1309.707031 1321.9375 1303.25 C 1346.972656 1301.304688 1372.261719 1300.0625 1380.179688 1298.480469 C 1418.675781 1290.796875 1456.636719 1280.605469 1494.191406 1269.25 C 1570.101562 1246.277344 1644.152344 1217.777344 1719.015625 1191.734375 C 1791.917969 1166.371094 1865.042969 1145.394531 1940.429688 1128.929688 C 1967.386719 1123.050781 2004.277344 1112.726562 2038.238281 1112.726562 C 2063.226562 1112.726562 2086.640625 1118.320312 2103.328125 1135.375 C 2129.984375 1162.632812 2115.953125 1206.027344 2093.605469 1231.066406 C 2034.28125 1297.460938 1930.996094 1316.75 1848.199219 1332.585938 C 1830.703125 1335.917969 1813.21875 1339.1875 1795.710938 1342.359375 C 1726.347656 1351.324219 1656.660156 1357.742188 1586.957031 1357.742188"/></g><g><path fill="#a7a7ae" d="M 2224.566406 1329.460938 C 2229.457031 1325.160156 2234.335938 1320.722656 2239.144531 1316.160156 C 2239.199219 1316.121094 2239.238281 1316.078125 2239.292969 1316.023438 C 2239.238281 1316.078125 2239.199219 1316.121094 2239.144531 1316.160156 C 2234.335938 1320.722656 2229.457031 1325.160156 2224.566406 1329.460938"/></g><g><path fill="#a7a7ae" d="M 2239.375 1315.945312 C 2239.402344 1315.929688 2239.414062 1315.917969 2239.457031 1315.875 C 2239.414062 1315.902344 2239.402344 1315.929688 2239.375 1315.945312 M 2239.523438 1315.808594 C 2239.550781 1315.78125 2239.566406 1315.765625 2239.59375 1315.738281 C 2239.566406 1315.765625 2239.550781 1315.78125 2239.523438 1315.808594 M 2239.675781 1315.65625 C 2239.691406 1315.65625 2239.703125 1315.628906 2239.730469 1315.613281 C 2239.703125 1315.628906 2239.703125 1315.640625 2239.675781 1315.65625 M 2240.226562 1315.132812 C 2240.226562 1315.132812 2240.226562 1315.132812 2240.238281 1315.132812 L 2240.226562 1315.132812"/></g><g><path fill="#e9ad8e" d="M 1794.46875 1464.011719 C 1952.507812 1464.011719 2102.628906 1436.28125 2224.527344 1329.488281 C 2102.628906 1436.28125 1952.507812 1464.011719 1794.46875 1464.011719"/></g><g><path fill="#e7ac8f" d="M 1794.480469 1464.015625 C 1709.160156 1464.015625 1621.546875 1455.933594 1534.816406 1447.851562 C 1500.964844 1444.703125 1467.257812 1441.550781 1433.863281 1438.871094 C 1426.265625 1424.761719 1418.042969 1411.234375 1409.253906 1398.351562 C 1538.679688 1384.238281 1667.597656 1365.582031 1795.707031 1342.351562 C 1823.425781 1338.773438 1851.105469 1334.78125 1878.714844 1330.621094 C 1945.5625 1320.527344 2012.550781 1309.398438 2076.976562 1288.871094 C 2167.296875 1260.082031 2251.476562 1212.503906 2323.253906 1150.617188 C 2320.046875 1213.429688 2285.882812 1271.5 2240.246094 1315.125 C 2240.230469 1315.125 2240.230469 1315.125 2240.230469 1315.140625 C 2240.058594 1315.296875 2239.902344 1315.453125 2239.730469 1315.613281 C 2239.71875 1315.625 2239.6875 1315.640625 2239.6875 1315.652344 C 2239.660156 1315.683594 2239.632812 1315.710938 2239.589844 1315.738281 C 2239.574219 1315.753906 2239.5625 1315.78125 2239.53125 1315.796875 C 2239.519531 1315.824219 2239.488281 1315.839844 2239.460938 1315.882812 C 2239.417969 1315.910156 2239.40625 1315.925781 2239.375 1315.9375 C 2239.363281 1315.980469 2239.320312 1315.996094 2239.304688 1316.011719 C 2239.261719 1316.066406 2239.203125 1316.109375 2239.160156 1316.152344 C 2234.34375 1320.714844 2229.46875 1325.148438 2224.582031 1329.449219 C 2224.550781 1329.464844 2224.550781 1329.464844 2224.523438 1329.480469 C 2102.632812 1436.292969 1952.503906 1464.015625 1794.480469 1464.015625"/></g><g><path fill="#eb6d6e" d="M 1409.253906 1398.351562 C 1393.171875 1374.777344 1375.179688 1353.273438 1355.527344 1333.652344 C 1352.023438 1330.167969 1348.464844 1326.710938 1344.863281 1323.351562 C 1400.9375 1340.832031 1458.828125 1351.683594 1519.960938 1355.628906 C 1542.28125 1357.074219 1564.609375 1357.734375 1586.953125 1357.734375 C 1656.652344 1357.734375 1726.34375 1351.320312 1795.707031 1342.355469 C 1667.605469 1365.578125 1538.675781 1384.238281 1409.253906 1398.351562"/></g><g><path fill="#dcab95" d="M 976.503906 1336.695312 C 1136.628906 1279.363281 1299.457031 1220.617188 1435.507812 1118.558594 C 1571.546875 1016.488281 1679.234375 862.644531 1683.925781 692.625 C 1685.734375 626.328125 1671.945312 560.175781 1648.921875 497.972656 C 1623.027344 428.070312 1577.769531 356.40625 1505.496094 338.109375 C 1425.128906 317.753906 1341.257812 374.640625 1303.21875 448.296875 C 1265.167969 521.949219 1262.199219 608.128906 1260.847656 691.011719 C 1259.5 773.898438 1258.316406 859.78125 1223.199219 934.867188 C 1190.988281 1003.75 1133.167969 1056.933594 1074.148438 1104.871094 C 983.195312 1178.738281 879.578125 1246.996094 762.707031 1255.304688 C 841.132812 1276.285156 902.855469 1302.550781 976.503906 1336.695312"/></g><g><path fill="#e88280" d="M 1194.066406 1065.277344 C 1195.007812 1064.390625 1195.9375 1063.5 1196.867188 1062.597656 C 1271.148438 991.121094 1322.277344 891.835938 1321.226562 788.738281 C 1320.675781 734.011719 1305.808594 680.023438 1307.097656 625.3125 C 1307.597656 604.027344 1311.097656 581.507812 1324.855469 565.269531 C 1336.847656 551.109375 1354.867188 544.617188 1373.449219 544.617188 C 1390.148438 544.617188 1407.296875 549.859375 1420.917969 559.484375 C 1449.679688 579.835938 1465.066406 614.363281 1473.347656 648.601562 C 1494.675781 736.800781 1476.539062 831.625 1435.039062 912.308594 C 1429.265625 923.527344 1423.066406 934.496094 1416.496094 945.207031 C 1351.296875 999.328125 1274.976562 1041.175781 1194.066406 1065.277344"/></g><g><path fill="#a7a7ae" d="M 987.902344 1168.996094 C 987.886719 1168.996094 987.890625 1168.996094 987.878906 1168.996094 C 1017.808594 1149.15625 1046.566406 1127.273438 1074.148438 1104.867188 C 1082.167969 1098.371094 1090.136719 1091.738281 1098.039062 1085.011719 C 1098.058594 1085.011719 1098.078125 1085.011719 1098.097656 1085.011719 C 1090.175781 1091.738281 1082.175781 1098.351562 1074.148438 1104.867188 C 1046.566406 1127.273438 1017.828125 1149.15625 987.902344 1168.996094 M 1684.078125 680.984375 C 1684.078125 618.585938 1670.589844 556.53125 1648.917969 497.984375 C 1670.589844 556.53125 1684.078125 618.585938 1684.078125 680.984375 M 1648.917969 497.984375 C 1623.054688 428.140625 1577.855469 356.550781 1505.707031 338.160156 C 1577.855469 356.550781 1623.054688 428.140625 1648.917969 497.984375"/></g><g><path fill="#d49680" d="M 1224.441406 1240.167969 C 1192.503906 1224.023438 1158.714844 1210.539062 1123.613281 1199.492188 C 1173.011719 1182.578125 1218.921875 1151.511719 1259.792969 1118.09375 C 1320.273438 1068.625 1375.753906 1011.609375 1416.503906 945.195312 C 1422.152344 940.503906 1427.722656 935.714844 1433.203125 930.84375 C 1506.746094 865.460938 1567.246094 782.816406 1594.453125 688.246094 C 1621.664062 593.675781 1612.855469 486.683594 1559.214844 404.171875 C 1542.316406 378.171875 1520.664062 355.144531 1495.925781 336.238281 C 1499.125 336.808594 1502.324219 337.285156 1505.503906 338.101562 C 1505.574219 338.117188 1505.644531 338.132812 1505.714844 338.148438 C 1577.863281 356.535156 1623.066406 428.128906 1648.917969 497.976562 C 1670.605469 556.527344 1684.101562 618.582031 1684.085938 680.957031 C 1684.085938 683.292969 1684.070312 685.617188 1684.019531 687.953125 C 1683.988281 689.503906 1683.972656 691.058594 1683.921875 692.609375 C 1683.921875 692.773438 1683.921875 692.953125 1683.90625 693.117188 C 1679.035156 862.925781 1571.421875 1016.59375 1435.515625 1118.550781 C 1370.234375 1167.511719 1298.792969 1206.519531 1224.441406 1240.167969 M 1024.082031 1174.964844 C 1012.101562 1172.757812 1000.035156 1170.761719 987.90625 1169 C 1017.832031 1149.144531 1046.574219 1127.261719 1074.152344 1104.871094 C 1082.183594 1098.351562 1090.183594 1091.734375 1098.101562 1085 C 1130.523438 1081.308594 1162.652344 1074.640625 1194.074219 1065.273438 C 1144.824219 1111.933594 1086.414062 1147.558594 1024.082031 1174.964844"/></g><g><path fill="#e36567" d="M 1123.609375 1199.496094 C 1091.390625 1189.347656 1058.078125 1181.253906 1024.078125 1174.976562 C 1086.410156 1147.570312 1144.820312 1111.933594 1194.070312 1065.277344 C 1274.980469 1041.175781 1351.296875 999.335938 1416.496094 945.207031 C 1375.753906 1011.613281 1320.273438 1068.632812 1259.789062 1118.085938 C 1218.917969 1151.515625 1173.007812 1182.578125 1123.609375 1199.496094"/></g><g><path fill="#eec0a2" d="M 1039.46875 2338.828125 C 1078.238281 2323.699219 1118.820312 2311.710938 1159.480469 2299.898438 C 1120.949219 2316.960938 1080.660156 2329.929688 1039.46875 2338.828125"/></g><g><path fill="#e7ac8f" d="M 548.46875 2249.289062 C 544.191406 2246.441406 539.933594 2243.511719 535.726562 2240.53125 C 511.191406 2223.171875 474.296875 2192.800781 449.875 2158.679688 C 485.601562 2186.191406 524.863281 2209.121094 566.597656 2227.601562 C 560.175781 2234.5 554.132812 2241.738281 548.46875 2249.289062"/></g><g><path fill="#e39679" d="M 707.855469 2324.601562 C 651.484375 2307.25 597.601562 2282.121094 548.46875 2249.289062 C 554.132812 2241.738281 560.175781 2234.5 566.597656 2227.601562 C 589.550781 2237.761719 613.269531 2246.589844 637.523438 2254.070312 C 686.355469 2269.128906 737.453125 2278.789062 789.328125 2283.191406 C 765.003906 2301.789062 737.214844 2315.910156 707.855469 2324.601562"/></g><g><path fill="#dc7c5e" d="M 731.902344 2331.5 C 723.835938 2329.351562 715.828125 2327.058594 707.855469 2324.601562 C 737.214844 2315.910156 765.003906 2301.789062 789.328125 2283.191406 C 790.164062 2283.261719 791.019531 2283.328125 791.855469 2283.398438 C 769.757812 2297.378906 749.34375 2313.390625 731.902344 2331.5"/></g><g><path fill="#d45c4b" d="M 731.902344 2331.5 C 749.34375 2313.390625 769.757812 2297.378906 791.855469 2283.398438 L 791.859375 2283.398438 C 769.757812 2297.378906 749.34375 2313.390625 731.902344 2331.5"/></g><g><path fill="#e9ad8e" d="M 901.21875 2353.488281 C 848.789062 2353.488281 796.324219 2347.28125 745.4375 2334.941406 C 744.960938 2330.949219 744.644531 2326.921875 744.507812 2322.859375 C 744.464844 2321.710938 744.554688 2320.539062 744.550781 2319.390625 C 740.238281 2323.328125 736.070312 2327.378906 732.054688 2331.539062 C 732.011719 2331.53125 731.945312 2331.511719 731.902344 2331.5 C 749.34375 2313.390625 769.757812 2297.378906 791.859375 2283.398438 C 812.824219 2285.109375 833.921875 2285.949219 855.03125 2285.949219 C 1023.210938 2285.96875 1192.828125 2232.121094 1314.25 2129.171875 C 1375.679688 2077.089844 1422.03125 2003.179688 1451.980469 1920.5 C 1450.730469 1960.339844 1442.621094 2000.160156 1428.191406 2037.171875 C 1389.949219 2135.289062 1311.761719 2214.390625 1221.179688 2268.109375 C 1201.230469 2279.949219 1180.621094 2290.539062 1159.480469 2299.898438 C 1118.820312 2311.710938 1078.238281 2323.699219 1039.46875 2338.828125 C 994.125 2348.621094 947.691406 2353.5 901.21875 2353.488281"/></g><g><path fill="#e59977" d="M 745.4375 2334.941406 C 740.957031 2333.851562 736.511719 2332.71875 732.054688 2331.539062 C 736.070312 2327.378906 740.238281 2323.328125 744.550781 2319.390625 C 744.554688 2320.539062 744.464844 2321.710938 744.507812 2322.859375 C 744.644531 2326.921875 744.960938 2330.949219 745.4375 2334.941406"/></g><g><path fill="#fcd9c5" d="M 290.234375 1946.625 C 444.039062 2339.871094 1020.425781 2378.292969 1314.242188 2129.171875 C 1484.742188 1984.613281 1539.035156 1671.945312 1449.140625 1470.058594 C 1353.675781 1255.644531 1126.484375 1172.820312 892.960938 1159.523438 C 674.796875 1147.097656 437.328125 1281.382812 432.855469 1521.203125 C 431.980469 1568 445.347656 1623.5 432.539062 1669.117188 C 412.464844 1740.640625 334.296875 1730.125 289.527344 1773.09375 C 245.191406 1815.652344 271.125 1897.753906 290.234375 1946.625"/></g><g><path fill="#a7a7ae" d="M 291.246094 1949.171875 C 291.242188 1949.160156 291.238281 1949.148438 291.234375 1949.148438 C 291.242188 1949.171875 291.234375 1949.148438 291.246094 1949.171875 M 291.085938 1948.769531 C 291.078125 1948.75 291.070312 1948.730469 291.066406 1948.71875 C 291.074219 1948.738281 291.074219 1948.738281 291.085938 1948.769531 M 290.75 1947.921875 C 290.734375 1947.890625 290.722656 1947.851562 290.707031 1947.808594 C 290.71875 1947.839844 290.742188 1947.898438 290.75 1947.921875 M 290.597656 1947.53125 C 290.578125 1947.488281 290.558594 1947.441406 290.542969 1947.390625 C 290.5625 1947.441406 290.578125 1947.480469 290.597656 1947.53125 M 290.441406 1947.140625 C 290.425781 1947.089844 290.40625 1947.050781 290.390625 1947 C 290.40625 1947.050781 290.421875 1947.089844 290.441406 1947.140625 M 289.53125 1773.089844 C 289.574219 1773.050781 289.613281 1773.011719 289.65625 1772.96875 C 289.613281 1773.011719 289.570312 1773.050781 289.53125 1773.089844 M 289.699219 1772.929688 C 289.726562 1772.898438 289.757812 1772.871094 289.785156 1772.851562 C 289.757812 1772.871094 289.726562 1772.898438 289.699219 1772.929688 M 289.828125 1772.808594 C 289.855469 1772.78125 289.882812 1772.75 289.910156 1772.730469 C 289.882812 1772.75 289.855469 1772.78125 289.828125 1772.808594 M 289.960938 1772.679688 C 289.988281 1772.648438 290.015625 1772.628906 290.042969 1772.601562 C 290.015625 1772.628906 289.984375 1772.648438 289.960938 1772.679688 M 290.082031 1772.570312 C 290.109375 1772.539062 290.144531 1772.511719 290.175781 1772.480469 C 290.144531 1772.511719 290.109375 1772.539062 290.082031 1772.570312 M 290.210938 1772.441406 C 290.242188 1772.410156 290.273438 1772.378906 290.304688 1772.351562 C 290.277344 1772.378906 290.238281 1772.421875 290.210938 1772.441406 M 290.335938 1772.328125 C 290.371094 1772.289062 290.402344 1772.261719 290.441406 1772.230469 C 290.402344 1772.261719 290.371094 1772.289062 290.335938 1772.328125 M 290.464844 1772.210938 C 290.5 1772.171875 290.542969 1772.128906 290.582031 1772.089844 C 290.539062 1772.128906 290.503906 1772.171875 290.464844 1772.210938 M 290.585938 1772.089844 C 332.300781 1733.269531 401.683594 1738.839844 427.347656 1683.058594 C 427.382812 1683.070312 427.414062 1683.078125 427.449219 1683.089844 C 401.804688 1738.941406 332.316406 1733.25 290.585938 1772.089844"/></g><g><path fill="#fbceb7" d="M 586.277344 2064.839844 C 454.222656 2011.621094 368.046875 1885.140625 293.996094 1769.28125 C 292.507812 1770.550781 290.957031 1771.71875 289.53125 1773.089844 C 271.519531 1790.378906 265.101562 1814.191406 265.117188 1839.660156 C 265.101562 1814.191406 271.519531 1790.378906 289.53125 1773.089844 C 289.570312 1773.050781 289.613281 1773.011719 289.65625 1772.96875 C 289.667969 1772.960938 289.6875 1772.941406 289.699219 1772.929688 C 289.726562 1772.898438 289.757812 1772.871094 289.785156 1772.851562 C 289.800781 1772.828125 289.8125 1772.820312 289.828125 1772.808594 C 289.855469 1772.78125 289.882812 1772.75 289.910156 1772.730469 C 289.925781 1772.710938 289.941406 1772.699219 289.960938 1772.679688 C 289.984375 1772.648438 290.015625 1772.628906 290.042969 1772.601562 C 290.054688 1772.589844 290.066406 1772.578125 290.082031 1772.570312 C 290.109375 1772.539062 290.144531 1772.511719 290.175781 1772.480469 C 290.1875 1772.46875 290.195312 1772.460938 290.210938 1772.441406 C 290.238281 1772.421875 290.277344 1772.378906 290.304688 1772.351562 C 290.3125 1772.351562 290.328125 1772.328125 290.335938 1772.328125 C 290.371094 1772.289062 290.402344 1772.261719 290.441406 1772.230469 C 290.449219 1772.21875 290.453125 1772.210938 290.464844 1772.210938 C 290.503906 1772.171875 290.539062 1772.128906 290.582031 1772.089844 C 290.585938 1772.089844 290.585938 1772.089844 290.585938 1772.089844 C 332.316406 1733.25 401.804688 1738.941406 427.449219 1683.089844 C 459.585938 1693.449219 490.113281 1709.648438 517.601562 1729.378906 C 594.289062 1784.441406 653.234375 1877 636.589844 1969.929688 C 630.097656 2006.148438 611.789062 2038.71875 586.277344 2064.839844"/></g><g><path fill="#a7a7ae" d="M 435.1875 2146.941406 C 373.429688 2095.730469 323.355469 2029.980469 291.246094 1949.171875 C 323.355469 2029.980469 373.429688 2095.730469 435.1875 2146.941406"/></g><g><path fill="#e7ac8f" d="M 449.875 2158.679688 C 444.910156 2154.851562 440.011719 2150.941406 435.1875 2146.941406 C 440.011719 2150.941406 444.910156 2154.851562 449.875 2158.679688"/></g><g><path fill="#a7a7ae" d="M 987.882812 1168.996094 C 959.832031 1164.90625 931.40625 1161.980469 902.882812 1160.109375 C 931.40625 1161.980469 959.832031 1164.90625 987.882812 1168.996094 M 892.96875 1159.5 C 892.675781 1159.5 892.367188 1159.476562 892.074219 1159.453125 C 892.371094 1159.476562 892.667969 1159.5 892.96875 1159.5"/></g><g><path fill="#e7ac8f" d="M 1321.933594 1303.269531 C 1292.132812 1278.785156 1259.390625 1257.871094 1224.429688 1240.1875 C 1259.390625 1257.871094 1292.132812 1278.785156 1321.933594 1303.269531"/></g><g><path fill="#eb6d6e" d="M 1344.851562 1323.367188 C 1337.421875 1316.40625 1329.78125 1309.722656 1321.929688 1303.269531 C 1329.78125 1309.722656 1337.421875 1316.40625 1344.851562 1323.367188"/></g><g><path fill="#e54d55" d="M 1355.511719 1333.660156 C 1352.015625 1330.175781 1348.457031 1326.730469 1344.855469 1323.367188 C 1348.457031 1326.730469 1352.015625 1330.175781 1355.511719 1333.660156"/></g><g><path fill="#ca7c67" d="M 1224.441406 1240.1875 C 1192.496094 1224.023438 1158.695312 1210.554688 1123.601562 1199.503906 C 1158.707031 1210.554688 1192.496094 1224.023438 1224.441406 1240.1875 M 1024.078125 1174.96875 C 1012.097656 1172.769531 1000.027344 1170.78125 987.902344 1169.003906 C 1000.027344 1170.78125 1012.097656 1172.769531 1024.078125 1174.96875"/></g><g><path fill="#db4552" d="M 1123.613281 1199.503906 C 1091.390625 1189.347656 1058.078125 1181.25 1024.078125 1174.96875 C 1058.078125 1181.25 1091.390625 1189.347656 1123.613281 1199.503906"/></g><g><path fill="#e39679" d="M 566.597656 2227.601562 C 524.863281 2209.121094 485.601562 2186.191406 449.875 2158.679688 C 485.601562 2186.191406 524.863281 2209.121094 566.597656 2227.601562"/></g><g><path fill="#fbceb7" d="M 855.03125 2285.949219 C 780.816406 2285.949219 706.875 2275.460938 637.523438 2254.070312 C 613.269531 2246.589844 589.550781 2237.757812 566.597656 2227.601562 C 524.867188 2209.121094 485.601562 2186.191406 449.875 2158.679688 C 444.910156 2154.851562 440.011719 2150.9375 435.191406 2146.9375 C 373.429688 2095.730469 323.355469 2029.980469 291.246094 1949.167969 C 319.59375 2020.511719 361.984375 2080 414.007812 2128.21875 C 419.710938 2128.832031 425.453125 2129.230469 431.226562 2129.371094 C 432.769531 2129.410156 434.316406 2129.429688 435.859375 2129.429688 C 491.867188 2129.429688 547.425781 2104.609375 586.277344 2064.839844 C 597.25 2069.261719 608.546875 2073.179688 620.175781 2076.539062 C 661.691406 2088.550781 704.566406 2094.160156 747.605469 2094.160156 C 834.550781 2094.160156 922.097656 2071.25 1000.03125 2031.878906 C 1125.96875 1968.269531 1233.375 1855.535156 1261.152344 1717.203125 C 1289.324219 1576.847656 1229.421875 1426.121094 1122.171875 1331.28125 C 1025.289062 1245.609375 894.527344 1203.734375 764.867188 1203.734375 C 751.007812 1203.734375 737.148438 1204.210938 723.359375 1205.167969 C 689.980469 1207.484375 656.949219 1212.5 624.402344 1219.753906 C 696.570312 1179.867188 781.425781 1158.71875 865.082031 1158.71875 C 874.09375 1158.71875 883.105469 1158.96875 892.070312 1159.464844 C 892.363281 1159.476562 892.671875 1159.5 892.964844 1159.511719 C 896.269531 1159.703125 899.578125 1159.894531 902.878906 1160.121094 C 931.40625 1161.984375 959.828125 1164.910156 987.878906 1169 C 987.894531 1169 987.890625 1169 987.90625 1169 C 1000.03125 1170.773438 1012.101562 1172.761719 1024.082031 1174.976562 C 1058.078125 1181.242188 1091.390625 1189.355469 1123.609375 1199.5 C 1158.695312 1210.546875 1192.507812 1224.023438 1224.441406 1240.175781 C 1259.390625 1257.855469 1292.136719 1278.777344 1321.9375 1303.253906 C 1329.789062 1309.703125 1337.425781 1316.402344 1344.859375 1323.363281 C 1348.460938 1326.714844 1352.019531 1330.171875 1355.519531 1333.664062 C 1393.578125 1371.640625 1425.421875 1416.78125 1449.15625 1470.054688 C 1449.503906 1470.84375 1449.855469 1471.625 1450.195312 1472.414062 C 1478.414062 1536.871094 1492.070312 1612.398438 1492.070312 1690.058594 C 1492.070312 1855.75 1429.894531 2031.121094 1314.246094 2129.167969 C 1192.832031 2232.121094 1023.210938 2285.96875 855.03125 2285.949219 M 291.234375 1949.148438 C 291.1875 1949.03125 291.132812 1948.890625 291.085938 1948.769531 C 291.132812 1948.898438 291.183594 1949.019531 291.234375 1949.148438 M 291.066406 1948.71875 C 290.960938 1948.460938 290.851562 1948.179688 290.75 1947.917969 C 290.855469 1948.1875 290.960938 1948.449219 291.066406 1948.71875 M 290.707031 1947.808594 C 290.671875 1947.71875 290.632812 1947.628906 290.597656 1947.53125 C 290.632812 1947.621094 290.671875 1947.71875 290.707031 1947.808594 M 290.542969 1947.390625 C 290.503906 1947.300781 290.480469 1947.230469 290.441406 1947.140625 C 290.476562 1947.21875 290.507812 1947.308594 290.542969 1947.390625 M 290.390625 1947 C 290.339844 1946.878906 290.285156 1946.738281 290.238281 1946.621094 C 290.289062 1946.75 290.339844 1946.871094 290.390625 1947"/></g><g><path fill="#fbc2a8" d="M 435.859375 2129.429688 C 434.316406 2129.429688 432.769531 2129.410156 431.226562 2129.371094 C 425.453125 2129.230469 419.714844 2128.828125 414.007812 2128.21875 C 361.984375 2080 319.59375 2020.511719 291.246094 1949.171875 C 291.234375 1949.148438 291.242188 1949.171875 291.234375 1949.148438 C 291.183594 1949.019531 291.136719 1948.898438 291.085938 1948.769531 C 291.074219 1948.738281 291.074219 1948.738281 291.066406 1948.71875 C 290.960938 1948.449219 290.855469 1948.191406 290.75 1947.921875 C 290.742188 1947.898438 290.71875 1947.839844 290.707031 1947.808594 C 290.671875 1947.71875 290.632812 1947.621094 290.597656 1947.53125 C 290.578125 1947.480469 290.5625 1947.441406 290.542969 1947.390625 C 290.507812 1947.308594 290.476562 1947.21875 290.441406 1947.140625 C 290.421875 1947.089844 290.40625 1947.050781 290.390625 1947 C 290.339844 1946.871094 290.289062 1946.75 290.238281 1946.621094 C 278.890625 1917.601562 265.136719 1876.871094 265.117188 1839.660156 C 265.101562 1814.191406 271.519531 1790.378906 289.53125 1773.089844 C 290.957031 1771.71875 292.507812 1770.550781 293.996094 1769.28125 C 368.046875 1885.140625 454.222656 2011.621094 586.277344 2064.839844 C 547.425781 2104.609375 491.867188 2129.429688 435.859375 2129.429688"/></g><g><path fill="#946557" d="M 290.238281 1946.621094 C 301.429688 1975.230469 315.09375 2001.738281 330.484375 2026.621094 C 342.964844 2039.488281 358.78125 2049.488281 377.5625 2054.789062 C 429.558594 2069.488281 493.964844 2036.78125 496.117188 1979.199219 C 496.367188 1972.410156 487.328125 1970.761719 483.964844 1975.910156 C 459.097656 2013.929688 425.039062 2047.320312 375.578125 2027.609375 C 347.644531 2016.480469 323.558594 1989.578125 311.984375 1959.789062 C 311.667969 1950.941406 311.648438 1942.070312 312.015625 1933.191406 C 313.433594 1898.988281 323.386719 1866.738281 327.328125 1833.070312 C 327.804688 1829.011719 322.15625 1828.390625 320.273438 1831.160156 C 299.910156 1861.089844 289.40625 1898.691406 287.214844 1938.710938 C 288.230469 1941.410156 289.246094 1944.078125 290.238281 1946.621094"/></g><g><path fill="#fcd9c5" d="M 2261.332031 2293.75 C 2309.464844 2291.300781 2342.8125 2350.832031 2329.03125 2397.019531 C 2315.28125 2443.199219 2270.492188 2473.589844 2224.960938 2489.371094 C 2078.996094 2539.949219 1901.960938 2480.710938 1772.988281 2565.761719 C 1740.570312 2587.128906 1713.824219 2616.402344 1680.722656 2636.722656 C 1647.636719 2657.039062 1603.703125 2667.128906 1570.542969 2646.910156 C 1537.386719 2626.691406 1531.644531 2568.160156 1566.953125 2551.980469 C 1548.304688 2587.441406 1489.515625 2590.640625 1467.140625 2557.402344 C 1444.746094 2524.171875 1469.800781 2470.902344 1509.679688 2466.949219 C 1491.855469 2483.917969 1458.59375 2472.171875 1449.71875 2449.199219 C 1440.847656 2426.242188 1451.9375 2399.3125 1470.3125 2382.941406 C 1488.699219 2366.558594 1512.949219 2358.621094 1536.671875 2352.101562 C 1588.90625 2337.761719 1637.691406 2326.390625 1691.652344 2321.902344 C 1631.296875 2295.570312 1590.519531 2234.46875 1577.8125 2169.863281 C 1565.121094 2105.25 1577.625 2037.78125 1601.335938 1976.363281 C 1651.3125 1846.933594 1756.472656 1735.722656 1889.472656 1696.269531 C 2047.652344 1649.351562 2209.902344 1739.230469 2312.722656 1859.75 C 2359.808594 1914.941406 2369.546875 1996.78125 2363.9375 2067.691406 C 2356.246094 2164.960938 2339.527344 2235.390625 2261.332031 2293.75"/></g><g><path fill="#151517" d="M 580.289062 1662.21875 C 580.289062 1721.679688 532.089844 1769.878906 472.632812 1769.878906 C 413.171875 1769.878906 364.972656 1721.679688 364.972656 1662.21875 C 364.972656 1602.769531 413.171875 1554.570312 472.632812 1554.570312 C 532.089844 1554.570312 580.289062 1602.769531 580.289062 1662.21875"/></g><g><path fill="#151517" d="M 1004.878906 1829.46875 C 1004.878906 1888.921875 956.683594 1937.121094 897.226562 1937.121094 C 837.769531 1937.121094 789.570312 1888.921875 789.570312 1829.46875 C 789.570312 1770.011719 837.769531 1721.808594 897.226562 1721.808594 C 956.683594 1721.808594 1004.878906 1770.011719 1004.878906 1829.46875"/></g><g><path fill="#f25e6b" d="M 388.953125 1792.789062 C 449 1835.03125 392.890625 1874.871094 346.234375 1890.429688 C 299.082031 1906.160156 274.90625 1876.75 258.304688 1832.75 C 217.566406 1724.800781 337.269531 1756.441406 388.953125 1792.789062"/></g><g><path fill="#ebbda2" d="M 1118.140625 1610.050781 C 1110.289062 1590.039062 1098.058594 1578.25 1079.921875 1567.171875 C 1062.621094 1556.601562 1045.171875 1547.878906 1024.351562 1553.269531 C 1003.078125 1558.78125 994.460938 1579.949219 997.859375 1599.929688 C 1001.171875 1619.449219 1019.011719 1631.238281 1034.011719 1641.78125 C 1048.039062 1651.640625 1063.441406 1659.441406 1081.121094 1658.640625 C 1103.628906 1657.621094 1127.761719 1634.550781 1118.140625 1610.050781"/></g><g><path fill="#ebbda2" d="M 547.546875 1381.617188 C 527.234375 1362.257812 500.191406 1363 474.394531 1367.964844 C 451.726562 1372.316406 423.640625 1389.777344 426.527344 1416.503906 C 428.402344 1433.855469 436.527344 1443.882812 452.335938 1450.402344 C 463.679688 1455.085938 478.664062 1451.8125 490.417969 1450.734375 C 507.183594 1449.230469 525.875 1449.792969 540.101562 1439.414062 C 558.535156 1425.957031 566.152344 1399.332031 547.546875 1381.617188"/></g><g><path fill="#f1ccb3" d="M 1768.804688 1054.71875 C 1785.316406 1026.878906 1756.460938 984.164062 1723.972656 996.394531 C 1693.945312 998.101562 1651.738281 1061.382812 1677.039062 1100.820312 C 1714.871094 1159.800781 1758.714844 1071.722656 1768.804688 1054.71875"/></g><g><path fill="#f1ccb3" d="M 1928.25 949.792969 C 1917.566406 936.382812 1900.59375 932.246094 1884.230469 934.785156 C 1856.460938 942.800781 1794.859375 987.65625 1816.652344 1038.363281 C 1845.527344 1105.519531 1921.449219 1015.25 1931.523438 996.296875 C 1939.414062 981.722656 1938.742188 962.960938 1928.25 949.792969"/></g><g><path fill="#f1ccb3" d="M 2088.164062 911.144531 C 2026.820312 871.234375 1905.96875 979.265625 1973.242188 1020.96875 C 2017.871094 1048.644531 2160.648438 958.296875 2088.164062 911.144531"/></g><g><path fill="#f1ccb3" d="M 2255.324219 955.589844 C 2225.796875 901.324219 2125.484375 941.566406 2111.019531 990.109375 C 2083.960938 1080.894531 2297.46875 1032.972656 2255.324219 955.589844"/></g><g><path fill="#f1ccb3" d="M 2348.90625 1044.433594 C 2340.566406 982.425781 2232.945312 1010.328125 2241.894531 1063.242188 C 2250.394531 1113.554688 2356.539062 1101.28125 2348.90625 1044.433594"/></g><g><path fill="#f1ccb3" d="M 2255.554688 1143.132812 C 2216.425781 1119.734375 2140.933594 1169.585938 2193.554688 1200.832031 C 2231.589844 1223.40625 2305.683594 1173.09375 2255.554688 1143.132812"/></g><g><path fill="#f1ccb3" d="M 2215.761719 1077.300781 C 2202.058594 1034.941406 2118.625 1063.75 2137.507812 1101.789062 C 2152.726562 1132.460938 2228.765625 1117.472656 2215.761719 1077.300781"/></g><g><path fill="#f1ccb3" d="M 1637.773438 1103.734375 C 1635.027344 1068.921875 1594.917969 1054.660156 1570.269531 1077.945312 C 1555.28125 1092.097656 1546.03125 1123.558594 1549.566406 1143.476562 C 1561.617188 1211.660156 1644.800781 1155.292969 1637.773438 1103.734375"/></g><g><path fill="#f1ccb3" d="M 1487.246094 1183.351562 C 1488.933594 1141.425781 1434.054688 1148.527344 1428.171875 1183.144531 C 1419.324219 1235.175781 1481.191406 1228.320312 1487.246094 1183.351562"/></g><g><path fill="#f1ccb3" d="M 1468.621094 362.027344 C 1434.824219 317.425781 1353.492188 321.609375 1389.453125 389.609375 C 1402.773438 414.804688 1440.152344 457.925781 1471.253906 432.234375 C 1492.203125 414.9375 1482.625 380.507812 1468.621094 362.027344"/></g><g><path fill="#f1ccb3" d="M 1552.1875 475.976562 C 1532.015625 453.824219 1495.34375 444.761719 1482.355469 478.59375 C 1471.953125 505.648438 1488.746094 546.785156 1506.976562 567.070312 C 1529.566406 592.230469 1564.074219 595.726562 1577.632812 559.042969 C 1588.007812 530.9375 1570.984375 496.589844 1552.1875 475.976562"/></g><g><path fill="#f1ccb3" d="M 1414.128906 465.464844 C 1363.449219 453.433594 1381.460938 542.378906 1418.75 551.3125 C 1475.820312 565 1459.582031 476.261719 1414.128906 465.464844"/></g><g><path fill="#f1ccb3" d="M 1310.5 467.925781 C 1254.578125 424.714844 1233.230469 504.074219 1268.480469 542.261719 C 1314.460938 592.027344 1360.492188 506.539062 1310.5 467.925781"/></g><g><path fill="#f1ccb3" d="M 1321.101562 699.109375 C 1314.210938 671 1291.339844 628.21875 1256.511719 630.75 C 1223 633.179688 1225.382812 667.929688 1231.460938 692.707031 C 1237.742188 718.273438 1254.609375 761.941406 1287.671875 759.789062 C 1316.910156 757.882812 1327.121094 723.703125 1321.101562 699.109375"/></g><g><path fill="#f1ccb3" d="M 1289.273438 829.492188 C 1283.554688 804.492188 1255.996094 765.921875 1226.382812 785.042969 C 1202.90625 800.214844 1208.503906 847.964844 1217.894531 869.472656 C 1244.3125 929.996094 1300.804688 879.902344 1289.273438 829.492188"/></g><g><path fill="#f1ccb3" d="M 1236.214844 929.617188 C 1208.222656 881.066406 1127.183594 988.636719 1182.121094 1014.855469 C 1224.261719 1034.953125 1253.292969 959.246094 1236.214844 929.617188"/></g><g><path fill="#f1ccb3" d="M 1555.613281 709.777344 C 1532.757812 654.023438 1489.8125 700.496094 1494.617188 738.535156 C 1502.878906 804.164062 1580.136719 769.625 1555.613281 709.777344"/></g><g><path fill="#f1ccb3" d="M 1579.628906 615.101562 C 1543.394531 606.066406 1549.625 678.207031 1576.324219 686.859375 C 1622.96875 701.972656 1621.339844 625.484375 1579.628906 615.101562"/></g><g><path fill="#f1ccb3" d="M 1953.328125 1062.84375 C 1928.441406 1036.328125 1875.695312 1078.742188 1897.441406 1107.96875 C 1920.953125 1139.550781 1981.542969 1092.917969 1953.328125 1062.84375"/></g><g><path fill="#f1ccb3" d="M 1831.496094 1108.871094 C 1806.707031 1076.78125 1749.246094 1121.132812 1766.863281 1154.367188 C 1788.691406 1195.558594 1859.09375 1144.574219 1831.496094 1108.871094"/></g><g><path fill="#fde5d6" d="M 1778.214844 1749.273438 C 1732.3125 1737.789062 1685.300781 1786.714844 1665.496094 1823.886719 C 1655.96875 1841.777344 1648.703125 1863.519531 1651.707031 1884.011719 C 1653.589844 1896.808594 1663.226562 1915.652344 1679.042969 1912.820312 C 1705.074219 1908.152344 1722.320312 1875.695312 1741.285156 1859.054688 C 1768.035156 1835.574219 1799.171875 1821.394531 1803.78125 1782.835938 C 1805.519531 1768.214844 1791.75 1752.652344 1778.214844 1749.273438"/></g><g><path fill="#fde5d6" d="M 1976.078125 1687.648438 C 1962.894531 1633.402344 1882.363281 1656.984375 1855.707031 1684.683594 C 1840.433594 1700.550781 1846.820312 1728.492188 1868.789062 1734.289062 C 1901.75 1742.980469 1989.726562 1743.824219 1976.078125 1687.648438"/></g><g><path fill="#fde5d6" d="M 2175.089844 1692.542969 C 2146.753906 1664.242188 2091.050781 1658.414062 2057.125 1679.074219 C 2042.476562 1687.992188 2036.832031 1711.800781 2051.332031 1724.082031 C 2074.429688 1743.644531 2115.730469 1762.503906 2146.765625 1760.953125 C 2180.707031 1759.253906 2200.566406 1717.972656 2175.089844 1692.542969"/></g><g><path fill="#fde5d6" d="M 2306.105469 1833.980469 C 2311.382812 1826.089844 2312.660156 1815.25 2310.433594 1806.511719 C 2306.234375 1790.101562 2294.824219 1775.289062 2280.667969 1765.929688 C 2275.785156 1762.699219 2270.394531 1759.949219 2264.945312 1757.839844 C 2258.179688 1755.21875 2251.367188 1755.988281 2244.628906 1754.21875 C 2224.808594 1749.019531 2213.117188 1771.140625 2223.246094 1786.238281 C 2229.375 1804.097656 2240.742188 1824.539062 2254.261719 1839.210938 C 2258.832031 1844.167969 2265.074219 1847.007812 2271.671875 1848.199219 C 2273.542969 1848.859375 2275.460938 1849.339844 2277.417969 1849.589844 C 2277.585938 1849.660156 2277.757812 1849.71875 2277.941406 1849.78125 C 2286.839844 1852.980469 2298.246094 1847.6875 2302.714844 1839.699219 C 2302.800781 1839.550781 2302.882812 1839.390625 2302.96875 1839.242188 C 2304.21875 1837.578125 2305.269531 1835.839844 2306.105469 1833.980469"/></g><g><path fill="#fde5d6" d="M 2014.542969 1795.453125 C 1987.496094 1803.292969 1981.445312 1834.945312 1998.820312 1855.003906 C 2002.769531 1859.566406 2007.738281 1862.863281 2012.597656 1866.414062 C 2013.851562 1867.332031 2017.984375 1870.34375 2014.449219 1867.722656 C 2022.648438 1873.8125 2030.9375 1880.011719 2039.933594 1884.953125 C 2062.964844 1897.605469 2098.902344 1897.644531 2108.496094 1868.074219 C 2124.671875 1818.265625 2055.328125 1783.632812 2014.542969 1795.453125"/></g><g><path fill="#fde5d6" d="M 2217.113281 1891.277344 C 2206.765625 1889.828125 2198.363281 1890.289062 2189.824219 1896.886719 C 2182.839844 1902.277344 2176.261719 1912.039062 2177.480469 1921.46875 C 2179.21875 1934.769531 2183.089844 1947.398438 2189.878906 1959.117188 C 2202.234375 1980.4375 2229.539062 1993.308594 2251.109375 1976.636719 C 2285.945312 1949.71875 2253.589844 1896.417969 2217.113281 1891.277344"/></g><g><path fill="#fde5d6" d="M 2341.347656 2034.042969 C 2333.503906 2006.773438 2316.726562 1991.0625 2289.148438 1988.0625 C 2284.304688 1987.53125 2279.160156 1991.152344 2276.808594 1995.144531 C 2273.234375 2001.234375 2269.703125 2005.691406 2267.324219 2012.484375 C 2263.359375 2023.84375 2263.851562 2035.722656 2264.296875 2047.632812 C 2265.191406 2071 2265.738281 2091.582031 2283.730469 2108.863281 C 2293.042969 2117.8125 2306.5625 2119.242188 2317.808594 2113.261719 C 2347.097656 2097.664062 2349.695312 2063.0625 2341.347656 2034.042969"/></g><g><path fill="#fde5d6" d="M 2021.328125 1938.542969 L 2021.328125 1939.113281 C 2017.789062 1919.691406 2002.59375 1905.84375 1982.976562 1897.242188 C 1962.847656 1888.421875 1941.714844 1887.222656 1921.738281 1897.042969 C 1904.058594 1905.753906 1901.164062 1933.351562 1915.394531 1946.28125 C 1923.066406 1953.242188 1923.589844 1953.804688 1932.316406 1959.09375 C 1937.359375 1962.152344 1942.351562 1965.253906 1947.355469 1968.382812 C 1948.421875 1969.050781 1949.8125 1969.902344 1950.171875 1970.0625 C 1953.550781 1972.554688 1956.714844 1975.332031 1960.304688 1977.542969 C 1967.109375 1981.710938 1973.875 1983.644531 1980.902344 1984.125 C 1983.632812 1984.8125 1986.390625 1985.171875 1989.207031 1985.171875 C 1991.46875 1985.632812 1993.789062 1985.933594 1996.347656 1985.773438 C 2004.667969 1985.273438 2014.402344 1981.472656 2018.148438 1973.261719 C 2020.460938 1968.210938 2021.625 1963.972656 2022 1959.640625 C 2023.824219 1953.113281 2023.75 1946.203125 2021.328125 1938.542969"/></g><g><path fill="#fde5d6" d="M 2124.183594 2014.375 C 2114.28125 2015.96875 2108.015625 2024.667969 2108.410156 2034.058594 C 2106.90625 2042.15625 2108.261719 2051.195312 2112.480469 2058.078125 C 2108.804688 2052.097656 2111.636719 2056.976562 2112.453125 2059.328125 C 2114.203125 2064.457031 2116.113281 2067.867188 2118.5 2072.289062 C 2124.101562 2082.625 2132.347656 2091.558594 2144.050781 2094.777344 C 2156 2098.066406 2169.640625 2094.738281 2178.253906 2085.746094 C 2210.558594 2051.988281 2161.261719 1998.507812 2124.183594 2014.375"/></g><g><path fill="#fde5d6" d="M 2260.5 2162.671875 C 2254.382812 2148.3125 2238.1875 2133.761719 2221.652344 2141.042969 C 2217.894531 2142.691406 2214.84375 2145.871094 2212.222656 2148.851562 C 2209.941406 2151.699219 2209.660156 2152.101562 2211.402344 2150.050781 C 2209.882812 2152.03125 2208.339844 2154.019531 2206.804688 2156 C 2204.675781 2159.640625 2203.574219 2164.050781 2202.183594 2168.011719 C 2199.105469 2176.839844 2198.113281 2185.011719 2199.550781 2194.421875 C 2199.910156 2196.789062 2200.636719 2201.421875 2200.59375 2201.269531 C 2201.511719 2205.269531 2204.257812 2209.761719 2206.320312 2213.511719 C 2213.117188 2225.910156 2230.804688 2230.53125 2242.824219 2223.082031 C 2264.398438 2209.710938 2270.246094 2185.628906 2260.5 2162.671875"/></g><g><path fill="#fde5d6" d="M 2199.554688 2194.542969 L 2199.542969 2194.421875 C 2199.296875 2192.882812 2199.203125 2192.273438 2199.554688 2194.542969"/></g><g><path fill="#fde5d6" d="M 862.949219 1344.507812 C 855.855469 1302.109375 807.714844 1290.992188 771.296875 1291.390625 C 724.8125 1291.894531 686.152344 1307.707031 645.890625 1328.78125 C 621.734375 1341.4375 634.941406 1375.4375 658.941406 1376.980469 C 696.527344 1379.371094 733.6875 1378.855469 771.296875 1380.386719 C 802.972656 1381.675781 831.316406 1385.199219 857.757812 1364.144531 C 863.617188 1359.46875 864.0625 1351.15625 862.949219 1344.507812"/></g><g><path fill="#fde5d6" d="M 1064.949219 1358.375 C 1061.640625 1344.898438 1060.40625 1332.746094 1047.460938 1321.214844 C 1036.039062 1311.03125 1021.121094 1304.324219 1006.628906 1299.832031 C 993.632812 1295.804688 979.878906 1294.140625 966.347656 1295.195312 C 950.394531 1296.464844 942.101562 1301.644531 928.710938 1308.980469 C 911.324219 1318.515625 910.34375 1347.117188 928.710938 1356.378906 C 936.824219 1360.46875 942.683594 1365.816406 951.226562 1369.4375 C 959.484375 1372.953125 967.792969 1376.503906 975.886719 1380.363281 C 983.964844 1384.203125 991.609375 1388.882812 999.699219 1392.683594 C 1012.320312 1398.617188 1026.859375 1396.144531 1035.519531 1397.015625 C 1056.042969 1399.046875 1069.269531 1375.949219 1064.949219 1358.375"/></g><g><path fill="#fde5d6" d="M 895.855469 1425.261719 C 867.328125 1422.011719 831.628906 1424.941406 811.035156 1447.328125 C 800.769531 1458.488281 803.613281 1473.699219 815.511719 1482.089844 C 837.980469 1497.929688 877.363281 1502.761719 904.414062 1503.78125 C 924 1504.511719 954.917969 1496.261719 956.0625 1472.511719 C 957.503906 1442.570312 919.464844 1427.949219 895.855469 1425.261719"/></g><g><path fill="#fde5d6" d="M 1070.378906 1433.828125 C 1061.171875 1435.710938 1053.398438 1440.011719 1049.53125 1449.621094 C 1045.789062 1458.921875 1046.789062 1472.171875 1055.109375 1479.109375 C 1055.679688 1479.578125 1063.191406 1489.25 1062.410156 1488.46875 C 1066.269531 1492.300781 1072.148438 1496.398438 1076.25 1499.449219 C 1082.75 1504.269531 1089.308594 1509.128906 1096.28125 1513.238281 C 1109.148438 1520.800781 1121.609375 1525.921875 1136.839844 1522.601562 C 1149.320312 1519.890625 1160.261719 1511.589844 1164.351562 1499.300781 C 1180.808594 1449.820312 1110.199219 1420.441406 1070.378906 1433.828125"/></g><g><path fill="#fde5d6" d="M 1303.109375 1594.371094 C 1290.578125 1568.210938 1271.070312 1557.328125 1245.800781 1547.640625 C 1234.710938 1543.398438 1224.519531 1554.109375 1223.980469 1564.261719 C 1224.21875 1559.679688 1222.660156 1567.988281 1222.460938 1569.21875 C 1221.601562 1574.539062 1222.050781 1579.050781 1221.570312 1584.238281 C 1220.390625 1597.128906 1221.160156 1607.558594 1223.199219 1620.441406 C 1224.710938 1630 1226.261719 1639.410156 1229.25 1648.648438 C 1231.648438 1656.070312 1234.441406 1663.398438 1239.230469 1669.578125 C 1241.929688 1673.058594 1247.300781 1676.328125 1249.46875 1680.050781 C 1259.371094 1697.058594 1288.96875 1699.738281 1298.128906 1680.050781 C 1304.839844 1665.648438 1313.699219 1658.480469 1313.871094 1640.738281 C 1314.03125 1624.578125 1310.058594 1608.898438 1303.109375 1594.371094"/></g><g><path fill="#fde5d6" d="M 1219.519531 1739.011719 C 1201.710938 1744.050781 1194.578125 1761.628906 1189.109375 1777.601562 C 1186.269531 1785.898438 1184.058594 1793.699219 1182.871094 1802.429688 C 1182.140625 1807.820312 1181.589844 1812.289062 1182.289062 1817.691406 C 1182.789062 1821.460938 1185.5 1826.21875 1185.601562 1829.878906 C 1186.210938 1851.070312 1213.878906 1865.101562 1229.429688 1848.03125 C 1238.171875 1838.441406 1246.640625 1834.050781 1251.828125 1821.28125 C 1256.671875 1809.351562 1258.289062 1796.839844 1257.808594 1783.96875 C 1257.101562 1764.601562 1245.359375 1731.691406 1219.519531 1739.011719"/></g><g><path fill="#fde5d6" d="M 1268.878906 1395.300781 C 1266.40625 1376.613281 1254.105469 1361.828125 1238.496094 1349.011719 C 1221.824219 1335.328125 1204.648438 1327.230469 1183.570312 1323.726562 C 1164.714844 1320.59375 1146.839844 1338.8125 1157.699219 1357.375 C 1167.332031 1373.839844 1177.550781 1389.285156 1189.597656 1404.371094 C 1203.628906 1421.9375 1217.714844 1437.441406 1241.480469 1437.925781 C 1254.484375 1438.183594 1264.015625 1428.972656 1268.230469 1417.566406 C 1271.050781 1409.890625 1269.96875 1403.007812 1268.878906 1395.300781"/></g><g><path fill="#fde5d6" d="M 1435.070312 1544.988281 C 1426.351562 1525.121094 1412.359375 1515.109375 1396.941406 1501.140625 C 1376.449219 1482.589844 1341.820312 1506.328125 1357.398438 1531.648438 C 1363.921875 1542.269531 1364.519531 1558.988281 1367.371094 1571.171875 C 1369.390625 1579.800781 1372.269531 1588.558594 1377.558594 1595.691406 C 1381.769531 1601.371094 1388.128906 1604.78125 1392.390625 1609.871094 C 1402.25 1621.628906 1419.28125 1615.839844 1426.78125 1605.441406 C 1431.949219 1598.261719 1437.859375 1592.699219 1440.390625 1583.480469 C 1443.898438 1570.710938 1440.21875 1556.71875 1435.070312 1544.988281"/></g><g><path fill="#fde5d6" d="M 902.300781 1209.464844 C 878.140625 1183.136719 836.683594 1187.761719 805.390625 1197.582031 C 789.757812 1202.488281 740.472656 1226.6875 759.492188 1251.488281 C 775.121094 1271.863281 799.671875 1271.917969 823.59375 1272.542969 C 852.070312 1273.289062 880.414062 1274.546875 902.300781 1253.570312 C 914.839844 1241.554688 913.507812 1221.691406 902.300781 1209.464844"/></g><g><path fill="#fde5d6" d="M 1100.894531 1211.171875 C 1088.34375 1187.371094 1059.574219 1184.585938 1035.644531 1188.453125 C 1015.664062 1191.683594 990.664062 1205.546875 996.40625 1229.582031 C 1000.476562 1246.632812 1018.644531 1253.082031 1033.476562 1257.851562 C 1051.394531 1263.609375 1072.207031 1268.496094 1088.84375 1257.136719 C 1104.324219 1246.554688 1109.886719 1228.203125 1100.894531 1211.171875"/></g><g><path fill="#fde5d6" d="M 662.394531 1245.453125 C 645.144531 1226.675781 620.78125 1228.839844 599.234375 1238.011719 C 580.847656 1245.84375 561.066406 1254.796875 552.109375 1273.964844 C 545.804688 1287.46875 550.761719 1302.523438 565.652344 1307.246094 C 584.597656 1313.25 604.78125 1307.441406 623.535156 1303.308594 C 644.839844 1298.609375 660.886719 1288.609375 668.171875 1267.308594 C 670.800781 1259.605469 667.617188 1251.140625 662.394531 1245.453125"/></g><g><path fill="#fde5d6" d="M 710.214844 1466.5 C 695.691406 1458.78125 684.433594 1454.679688 667.164062 1456.789062 C 652.816406 1458.539062 639.671875 1461.289062 629.089844 1471.859375 C 620.773438 1480.160156 620.757812 1494.328125 629.089844 1502.648438 C 639.675781 1513.21875 652.78125 1515.96875 667.164062 1517.71875 C 684.265625 1519.789062 695.761719 1515.691406 710.214844 1508 C 725.863281 1499.679688 725.863281 1474.820312 710.214844 1466.5"/></g><g><path fill="#fde5d6" d="M 895.441406 1578.839844 C 884.226562 1560.789062 861.992188 1548.660156 840.210938 1549.640625 C 821.796875 1550.460938 791.238281 1561.660156 799.300781 1586.101562 C 803.640625 1599.238281 814.617188 1607.378906 826.3125 1614.320312 C 830.453125 1616.769531 834.574219 1619.308594 838.816406 1621.578125 C 848.15625 1626.589844 856.269531 1628.050781 866.628906 1629.050781 C 892.058594 1631.519531 907.9375 1598.949219 895.441406 1578.839844"/></g><g><path fill="#fde5d6" d="M 917.769531 2101.75 C 912.300781 2104.941406 910.21875 2114.058594 915.609375 2118.488281 C 947.078125 2144.359375 981.722656 2150.25 1022.160156 2146.351562 C 1051.839844 2143.480469 1113.539062 2132.761719 1112.789062 2091.28125 C 1111.558594 2023.929688 946.265625 2085.148438 917.769531 2101.75"/></g><g><path fill="#fde5d6" d="M 1243.628906 2113.820312 C 1213.289062 2110.980469 1181.339844 2141.449219 1156.851562 2156.609375 C 1145.191406 2163.828125 1110.828125 2185.691406 1124.96875 2203.738281 C 1143.578125 2227.511719 1180.128906 2220.511719 1204.960938 2211.789062 C 1236.738281 2200.640625 1271.089844 2180.410156 1273.710938 2143.910156 C 1274.960938 2126.621094 1258.851562 2115.25 1243.628906 2113.820312"/></g><g><path fill="#fde5d6" d="M 1303.808594 1956.378906 C 1296.71875 1959.058594 1282.089844 1964.808594 1272.519531 1972.75 C 1265.398438 1978.660156 1258.878906 1985.410156 1252.140625 1991.738281 C 1238.171875 2004.878906 1219.960938 2017.730469 1214.910156 2037.210938 C 1212.429688 2046.738281 1216.378906 2059.550781 1225.859375 2064.121094 C 1250.199219 2075.839844 1276.738281 2065.011719 1297.558594 2050.601562 C 1309.148438 2042.578125 1319.550781 2033.171875 1327.609375 2021.550781 C 1331.300781 2016.238281 1334.328125 2010.710938 1336.441406 2004.539062 C 1338.828125 1997.53125 1338.558594 1986.480469 1338.671875 1982.929688 C 1339.160156 1966.289062 1320.46875 1950.058594 1303.808594 1956.378906"/></g><g><path fill="#fde5d6" d="M 1445.851562 1802.960938 C 1441.28125 1800.441406 1434.808594 1799.828125 1430.289062 1802.960938 C 1409.421875 1817.421875 1399.441406 1840.671875 1392.980469 1864.519531 C 1386.511719 1888.410156 1373.429688 1918.808594 1381.429688 1943.390625 C 1384.480469 1952.738281 1393.691406 1961.558594 1404.289062 1960.789062 C 1467.738281 1956.160156 1506.460938 1836.390625 1445.851562 1802.960938"/></g><g><path fill="#fde5d6" d="M 1397.578125 1722.21875 C 1394.890625 1707.648438 1378.691406 1697.128906 1364.640625 1697.128906 C 1349.308594 1697.128906 1336.148438 1707.820312 1331.691406 1722.21875 C 1327.308594 1736.351562 1326.460938 1749.300781 1327.441406 1765.339844 C 1327.859375 1772.210938 1329.75 1778.53125 1333.550781 1784.289062 C 1334.800781 1786.191406 1338.980469 1790.601562 1335.988281 1787.429688 C 1338.148438 1789.710938 1339.441406 1791.421875 1342.628906 1792.539062 C 1381.96875 1806.359375 1403.160156 1752.429688 1397.578125 1722.21875"/></g><g><path fill="#fde5d6" d="M 856.144531 2213.988281 C 847.296875 2199.550781 833.089844 2196.988281 817.632812 2195.519531 C 807.925781 2194.589844 798.257812 2194.039062 788.570312 2192.808594 C 779.804688 2191.691406 769.25 2192.550781 761.144531 2189.640625 C 745.085938 2183.871094 731.632812 2204.03125 739.628906 2217.628906 C 745.183594 2227.070312 748.21875 2237.039062 756.539062 2244.671875 C 764.5625 2252.03125 774.230469 2258.210938 784.410156 2262 C 808.597656 2270.988281 845.652344 2273.648438 857.921875 2245.359375 C 862.507812 2234.789062 862.3125 2224.058594 856.144531 2213.988281"/></g><g><path fill="#fde5d6" d="M 854.957031 2028.359375 C 841.867188 2028.320312 831.757812 2026.351562 818.75 2029.640625 C 806.644531 2032.699219 794.671875 2035.261719 782.28125 2036.929688 C 764.398438 2039.339844 740.519531 2043.828125 737.648438 2065.410156 C 733.476562 2096.789062 774.59375 2107.289062 797.640625 2108.910156 C 812.429688 2109.960938 828.519531 2107.460938 842.574219 2102.769531 C 861.515625 2096.441406 868.171875 2085.128906 878.566406 2069.5 C 890.285156 2051.878906 874.746094 2028.429688 854.957031 2028.359375"/></g><g><path fill="#fde5d6" d="M 1050.578125 1954.519531 C 1055.429688 1956.851562 1053.371094 1956.03125 1044.378906 1952.050781 C 1038.199219 1950.390625 1032.019531 1950.390625 1025.839844 1952.050781 C 1018.28125 1953.699219 1011.570312 1957.328125 1004.609375 1960.550781 C 993.78125 1965.558594 984.09375 1970.5 974.542969 1977.691406 C 960.921875 1987.929688 957.53125 2009.238281 974.542969 2018.808594 C 1006.578125 2036.828125 1060.640625 2029.28125 1069.988281 1988.710938 C 1073.488281 1973.53125 1065.359375 1959.378906 1050.578125 1954.519531"/></g><g><path fill="#fde5d6" d="M 1137.679688 1813.421875 C 1137.398438 1813.160156 1137.25 1813 1136.851562 1812.628906 C 1130.78125 1806.828125 1123.25 1805.398438 1115.808594 1807.109375 C 1106.679688 1807.808594 1097.359375 1814.28125 1093.128906 1821.96875 C 1091.699219 1824.578125 1090.140625 1827.039062 1088.800781 1829.679688 C 1087.269531 1832.519531 1086.140625 1835.5 1085.300781 1838.578125 C 1085.910156 1835.949219 1082.210938 1847.050781 1081.820312 1848.789062 C 1080.980469 1852.5 1080.671875 1856.289062 1080.21875 1860.058594 C 1079.179688 1868.898438 1087.75 1879.628906 1096.378906 1881.28125 C 1108.558594 1883.621094 1119.648438 1881.511719 1129.570312 1873.851562 C 1139.261719 1866.359375 1145.878906 1857.449219 1148.121094 1845.148438 C 1150.199219 1833.679688 1147.328125 1820.660156 1137.679688 1813.421875"/></g><g><path fill="#fde5d6" d="M 1076.171875 1684.460938 C 1072.019531 1677.761719 1066.289062 1671.609375 1059.589844 1667.441406 C 1053.519531 1663.671875 1047.75 1662.269531 1041.550781 1662.039062 C 1037.371094 1661.578125 1033.238281 1661.53125 1029.261719 1662.449219 C 1024.25 1662.929688 1019.488281 1664.539062 1015.539062 1668.488281 C 1010.460938 1673.578125 1008.769531 1681.140625 1009.871094 1688.128906 C 1009.871094 1691.25 1010.171875 1694.429688 1010.738281 1697.878906 L 1010.738281 1697.699219 C 1013.839844 1717.511719 1029.269531 1736.480469 1048.460938 1741.5 C 1059.640625 1744.429688 1072.050781 1739.570312 1077.910156 1729.519531 C 1086.171875 1715.351562 1084.691406 1698.230469 1076.171875 1684.460938"/></g><g><path fill="#fde5d6" d="M 545.335938 1486.089844 C 532.070312 1478.46875 521.386719 1475 505.804688 1478.449219 C 493.359375 1481.210938 481.226562 1486.140625 472.402344 1495.488281 C 463.214844 1505.238281 466.195312 1524.28125 480.78125 1527.230469 C 491.507812 1529.398438 501.707031 1528.75 512.574219 1528.511719 C 525.554688 1528.21875 533.992188 1523.890625 545.335938 1518.859375 C 558.707031 1512.929688 556.6875 1492.609375 545.335938 1486.089844"/></g><g><path fill="#ffffff" d="M 431.585938 1605.539062 C 416.519531 1605.539062 402.082031 1618.789062 402.777344 1634.351562 C 403.480469 1649.960938 415.4375 1663.148438 431.585938 1663.148438 C 446.652344 1663.148438 461.085938 1649.910156 460.390625 1634.351562 C 459.691406 1618.738281 447.734375 1605.539062 431.585938 1605.539062"/></g><g><path fill="#ffffff" d="M 869.003906 1779.738281 C 831.933594 1779.738281 831.871094 1837.351562 869.003906 1837.351562 C 906.070312 1837.351562 906.132812 1779.738281 869.003906 1779.738281"/></g><g><path fill="#fbceb7" d="M 1680.730469 2636.71875 C 1680.792969 2636.679688 1680.867188 2636.636719 1680.9375 2636.589844 C 1680.867188 2636.636719 1680.792969 2636.679688 1680.730469 2636.71875"/></g><g><path fill="#fbceb7" d="M 1680.949219 2636.582031 C 1681 2636.550781 1681.0625 2636.511719 1681.132812 2636.472656 C 1681.0625 2636.511719 1681 2636.542969 1680.949219 2636.582031"/></g><g><path fill="#fbceb7" d="M 1681.160156 2636.449219 C 1681.210938 2636.410156 1681.28125 2636.371094 1681.34375 2636.339844 C 1681.273438 2636.378906 1681.222656 2636.410156 1681.160156 2636.449219"/></g><g><path fill="#fbceb7" d="M 1681.371094 2636.320312 C 1681.421875 2636.28125 1681.484375 2636.238281 1681.558594 2636.210938 C 1681.496094 2636.238281 1681.421875 2636.28125 1681.371094 2636.320312"/></g><g><path fill="#fbceb7" d="M 1681.558594 2636.199219 C 1683.039062 2635.289062 1684.488281 2634.359375 1685.925781 2633.421875 C 1684.488281 2634.359375 1683.039062 2635.289062 1681.558594 2636.199219"/></g><g><path fill="#fbceb7" d="M 1685.980469 2633.386719 C 1686.023438 2633.359375 1686.074219 2633.328125 1686.136719 2633.289062 C 1686.074219 2633.328125 1686.023438 2633.359375 1685.980469 2633.386719"/></g><g><path fill="#fbceb7" d="M 1686.191406 2633.242188 C 1686.234375 2633.222656 1686.273438 2633.191406 1686.316406 2633.171875 C 1686.273438 2633.191406 1686.234375 2633.222656 1686.191406 2633.242188"/></g><g><path fill="#fbceb7" d="M 1686.414062 2633.101562 C 1686.445312 2633.082031 1686.476562 2633.0625 1686.496094 2633.042969 C 1686.476562 2633.0625 1686.445312 2633.082031 1686.414062 2633.101562"/></g><g><path fill="#fbceb7" d="M 1686.640625 2632.960938 C 1686.648438 2632.941406 1686.671875 2632.929688 1686.691406 2632.921875 C 1686.671875 2632.929688 1686.648438 2632.949219 1686.640625 2632.960938"/></g><g><path fill="#fbceb7" d="M 1686.835938 2632.828125 C 1686.855469 2632.820312 1686.867188 2632.808594 1686.886719 2632.800781 C 1686.867188 2632.808594 1686.855469 2632.820312 1686.835938 2632.828125"/></g><g><path fill="#a7a7ae" d="M 2070.796875 2512.78125 C 2123.6875 2510.929688 2176.066406 2506.308594 2224.957031 2489.371094 C 2270.5 2473.589844 2315.285156 2443.199219 2329.039062 2397.019531 C 2329.726562 2394.730469 2330.285156 2392.398438 2330.753906 2390.050781 C 2330.285156 2392.398438 2329.726562 2394.71875 2329.039062 2397.019531 C 2315.285156 2443.199219 2270.5 2473.589844 2224.957031 2489.371094 C 2176.066406 2506.308594 2123.6875 2510.929688 2070.796875 2512.78125 M 2330.753906 2389.980469 C 2330.753906 2389.960938 2330.769531 2389.949219 2330.769531 2389.929688 C 2330.769531 2389.949219 2330.753906 2389.960938 2330.753906 2389.980469"/></g><g><path fill="#fbceb7" d="M 1730.953125 2598.390625 C 1665.582031 2583.960938 1606.472656 2544.671875 1565.601562 2491.628906 C 1563.882812 2489.421875 1562.207031 2487.171875 1560.558594 2484.890625 C 1649.605469 2433.871094 1750.371094 2403.199219 1852.84375 2397.109375 C 1869.496094 2396.121094 1886.160156 2395.761719 1902.855469 2395.761719 C 1926.339844 2395.761719 1949.882812 2396.480469 1973.386719 2397.203125 C 1996.902344 2397.929688 2020.402344 2398.652344 2043.859375 2398.652344 C 2080.199219 2398.652344 2116.382812 2396.910156 2152.222656 2390.738281 C 2209.613281 2380.859375 2267.835938 2355.050781 2309.820312 2315.8125 C 2326.945312 2335.089844 2335.757812 2363.921875 2330.769531 2389.929688 C 2330.769531 2389.949219 2330.757812 2389.960938 2330.757812 2389.980469 C 2330.757812 2390 2330.742188 2390.03125 2330.742188 2390.050781 C 2330.285156 2392.402344 2329.710938 2394.730469 2329.035156 2397.019531 C 2315.28125 2443.203125 2270.5 2473.589844 2224.960938 2489.371094 C 2176.066406 2506.3125 2123.691406 2510.929688 2070.800781 2512.78125 C 1965.933594 2516.449219 1859.0625 2509.21875 1773.371094 2565.511719 C 1773.242188 2565.589844 1773.113281 2565.671875 1772.984375 2565.761719 C 1758.179688 2575.519531 1744.554688 2586.941406 1730.953125 2598.390625"/></g><g><path fill="#a7a7ae" d="M 1680.921875 2636.589844 C 1680.933594 2636.589844 1680.933594 2636.589844 1680.945312 2636.582031 C 1680.933594 2636.589844 1680.933594 2636.589844 1680.921875 2636.589844 M 1681.136719 2636.472656 C 1681.136719 2636.460938 1681.15625 2636.453125 1681.15625 2636.453125 C 1681.148438 2636.460938 1681.148438 2636.460938 1681.136719 2636.472656 M 1681.335938 2636.34375 C 1681.335938 2636.332031 1681.347656 2636.332031 1681.359375 2636.320312 C 1681.347656 2636.332031 1681.335938 2636.332031 1681.335938 2636.34375 M 1681.550781 2636.210938 C 1681.550781 2636.203125 1681.5625 2636.203125 1681.5625 2636.203125 C 1681.5625 2636.203125 1681.550781 2636.203125 1681.550781 2636.210938 M 1685.925781 2633.421875 C 1685.9375 2633.410156 1685.957031 2633.402344 1685.957031 2633.390625 C 1685.957031 2633.402344 1685.9375 2633.410156 1685.925781 2633.421875 M 1686.128906 2633.292969 C 1686.136719 2633.28125 1686.167969 2633.261719 1686.191406 2633.242188 C 1686.167969 2633.261719 1686.136719 2633.28125 1686.128906 2633.292969 M 1686.308594 2633.171875 C 1686.339844 2633.140625 1686.382812 2633.121094 1686.414062 2633.101562 C 1686.382812 2633.121094 1686.339844 2633.140625 1686.308594 2633.171875 M 1686.488281 2633.042969 C 1686.542969 2633.019531 1686.582031 2632.992188 1686.636719 2632.960938 C 1686.582031 2632.992188 1686.542969 2633.011719 1686.488281 2633.042969 M 1686.679688 2632.921875 C 1686.730469 2632.890625 1686.785156 2632.863281 1686.816406 2632.832031 C 1686.785156 2632.863281 1686.730469 2632.890625 1686.679688 2632.921875 M 1686.871094 2632.800781 C 1702.417969 2622.53125 1716.65625 2610.441406 1730.953125 2598.390625 C 1730.953125 2598.390625 1730.953125 2598.390625 1730.960938 2598.390625 C 1716.65625 2610.441406 1702.417969 2622.53125 1686.871094 2632.800781 M 1449.78125 2449.382812 L 1449.78125 2449.382812 M 1449.75 2449.292969 C 1449.730469 2449.261719 1449.730469 2449.230469 1449.71875 2449.203125 C 1443.578125 2433.324219 1446.988281 2415.554688 1455.75 2400.691406 C 1446.988281 2415.554688 1443.578125 2433.324219 1449.71875 2449.203125 C 1449.730469 2449.230469 1449.730469 2449.261719 1449.75 2449.292969"/></g><g><path fill="#fbceb7" d="M 1514.640625 2580.519531 C 1496.070312 2580.519531 1477.621094 2572.960938 1467.140625 2557.398438 C 1449.289062 2530.898438 1461.648438 2491.730469 1487.589844 2474.921875 C 1472.03125 2474.519531 1455.691406 2464.398438 1449.789062 2449.378906 C 1449.78125 2449.351562 1449.769531 2449.320312 1449.761719 2449.289062 C 1449.738281 2449.261719 1449.730469 2449.230469 1449.71875 2449.199219 C 1443.589844 2433.320312 1447 2415.550781 1455.761719 2400.691406 C 1459.671875 2394.050781 1464.648438 2387.988281 1470.320312 2382.941406 C 1486.988281 2368.089844 1508.480469 2360.191406 1530.039062 2353.980469 C 1527.621094 2365.109375 1524.820312 2376.621094 1524.789062 2389.558594 C 1524.691406 2424.261719 1540.5 2457.171875 1560.558594 2484.890625 C 1526.519531 2504.390625 1494.179688 2526.859375 1464.121094 2552.070312 C 1465.03125 2553.890625 1465.980469 2555.679688 1467.140625 2557.398438 C 1477.621094 2572.960938 1496.070312 2580.519531 1514.640625 2580.519531 C 1526.179688 2580.519531 1537.769531 2577.601562 1547.53125 2571.878906 C 1537.769531 2577.601562 1526.179688 2580.519531 1514.640625 2580.519531"/></g><g><path fill="#6f707b" d="M 1627.960938 2656.6875 C 1646.023438 2653.9375 1663.964844 2646.820312 1679.59375 2637.410156 C 1663.964844 2646.820312 1646.023438 2653.9375 1627.960938 2656.6875 M 1570.429688 2646.828125 C 1570.417969 2646.820312 1570.40625 2646.820312 1570.386719 2646.808594 C 1570.40625 2646.820312 1570.417969 2646.820312 1570.429688 2646.828125 M 1570.261719 2646.730469 L 1570.261719 2646.730469 M 1570.128906 2646.648438 C 1570.128906 2646.648438 1570.121094 2646.640625 1570.109375 2646.628906 C 1570.121094 2646.640625 1570.128906 2646.640625 1570.128906 2646.648438 M 1569.984375 2646.558594 L 1569.976562 2646.550781 L 1569.984375 2646.558594 M 1569.839844 2646.46875 C 1569.832031 2646.46875 1569.820312 2646.457031 1569.820312 2646.449219 C 1569.832031 2646.457031 1569.832031 2646.457031 1569.839844 2646.46875 M 1569.707031 2646.378906 C 1569.695312 2646.378906 1569.695312 2646.367188 1569.6875 2646.367188 C 1569.695312 2646.367188 1569.695312 2646.378906 1569.707031 2646.378906 M 1569.5625 2646.289062 C 1569.550781 2646.277344 1569.542969 2646.277344 1569.53125 2646.269531 C 1569.542969 2646.277344 1569.550781 2646.277344 1569.5625 2646.289062 M 1569.429688 2646.199219 C 1569.417969 2646.199219 1569.417969 2646.1875 1569.40625 2646.1875 C 1569.417969 2646.1875 1569.417969 2646.199219 1569.429688 2646.199219 M 1569.273438 2646.097656 C 1569.273438 2646.097656 1569.261719 2646.097656 1569.261719 2646.089844 C 1569.261719 2646.097656 1569.273438 2646.097656 1569.273438 2646.097656 M 1569.140625 2646.007812 L 1569.128906 2646.007812 C 1569.140625 2646.007812 1569.140625 2646.007812 1569.140625 2646.007812 M 1568.996094 2645.917969 L 1568.984375 2645.910156 L 1568.996094 2645.917969 M 1568.851562 2645.828125 C 1568.851562 2645.820312 1568.851562 2645.820312 1568.839844 2645.820312 C 1568.851562 2645.820312 1568.851562 2645.820312 1568.851562 2645.828125 M 1568.574219 2645.640625 L 1568.574219 2645.628906 L 1568.574219 2645.640625 M 1680.101562 2637.109375 C 1680.265625 2637.007812 1680.429688 2636.910156 1680.59375 2636.796875 C 1680.429688 2636.910156 1680.265625 2637.007812 1680.101562 2637.109375"/></g><g><path fill="#fbc2a8" d="M 1612.046875 2657.929688 C 1597.445312 2657.929688 1583.203125 2654.628906 1570.546875 2646.910156 C 1570.503906 2646.878906 1570.460938 2646.859375 1570.417969 2646.828125 C 1570.40625 2646.820312 1570.398438 2646.820312 1570.386719 2646.808594 C 1570.34375 2646.789062 1570.300781 2646.757812 1570.257812 2646.730469 C 1570.214844 2646.699219 1570.175781 2646.679688 1570.132812 2646.648438 C 1570.121094 2646.640625 1570.109375 2646.640625 1570.097656 2646.628906 C 1570.058594 2646.609375 1570.023438 2646.578125 1569.984375 2646.558594 L 1569.972656 2646.550781 C 1569.929688 2646.53125 1569.886719 2646.5 1569.84375 2646.46875 C 1569.835938 2646.457031 1569.835938 2646.457031 1569.824219 2646.449219 C 1569.78125 2646.429688 1569.738281 2646.410156 1569.707031 2646.378906 C 1569.695312 2646.378906 1569.695312 2646.371094 1569.683594 2646.371094 C 1569.644531 2646.339844 1569.601562 2646.320312 1569.558594 2646.289062 C 1569.546875 2646.28125 1569.546875 2646.28125 1569.535156 2646.269531 C 1569.496094 2646.25 1569.453125 2646.21875 1569.417969 2646.199219 C 1569.410156 2646.199219 1569.410156 2646.1875 1569.398438 2646.1875 C 1569.367188 2646.160156 1569.324219 2646.128906 1569.269531 2646.101562 C 1569.269531 2646.101562 1569.261719 2646.101562 1569.261719 2646.089844 C 1569.207031 2646.070312 1569.175781 2646.039062 1569.132812 2646.007812 C 1569.132812 2646.007812 1569.132812 2646.007812 1569.121094 2646.007812 C 1569.078125 2645.980469 1569.027344 2645.949219 1568.996094 2645.917969 L 1568.984375 2645.910156 C 1568.941406 2645.878906 1568.890625 2645.847656 1568.855469 2645.828125 C 1568.855469 2645.820312 1568.855469 2645.820312 1568.847656 2645.820312 C 1568.75 2645.757812 1568.664062 2645.699219 1568.570312 2645.640625 L 1568.570312 2645.628906 C 1552.152344 2634.5 1543.03125 2613.738281 1543.007812 2594.1875 C 1543 2586.320312 1544.476562 2578.648438 1547.535156 2571.878906 C 1537.773438 2577.597656 1526.175781 2580.519531 1514.644531 2580.519531 C 1496.070312 2580.519531 1477.625 2572.957031 1467.144531 2557.398438 C 1465.988281 2555.679688 1465.03125 2553.890625 1464.117188 2552.070312 C 1494.179688 2526.859375 1526.515625 2504.390625 1560.5625 2484.890625 C 1562.210938 2487.167969 1563.886719 2489.417969 1565.597656 2491.628906 C 1606.472656 2544.667969 1665.578125 2583.960938 1730.960938 2598.390625 C 1716.667969 2610.4375 1702.417969 2622.527344 1686.882812 2632.800781 C 1686.859375 2632.808594 1686.847656 2632.820312 1686.828125 2632.828125 C 1686.796875 2632.859375 1686.742188 2632.890625 1686.691406 2632.917969 C 1686.667969 2632.929688 1686.648438 2632.9375 1686.648438 2632.960938 C 1686.59375 2632.988281 1686.550781 2633.019531 1686.5 2633.039062 C 1686.476562 2633.058594 1686.457031 2633.078125 1686.425781 2633.101562 C 1686.394531 2633.121094 1686.351562 2633.140625 1686.316406 2633.167969 C 1686.285156 2633.1875 1686.242188 2633.21875 1686.203125 2633.238281 C 1686.179688 2633.257812 1686.148438 2633.277344 1686.128906 2633.289062 C 1686.074219 2633.332031 1686.019531 2633.359375 1685.96875 2633.390625 C 1685.957031 2633.398438 1685.945312 2633.410156 1685.9375 2633.417969 C 1684.492188 2634.359375 1683.046875 2635.289062 1681.570312 2636.199219 C 1681.570312 2636.199219 1681.5625 2636.199219 1681.5625 2636.210938 C 1681.496094 2636.238281 1681.433594 2636.277344 1681.371094 2636.320312 C 1681.359375 2636.332031 1681.347656 2636.332031 1681.347656 2636.339844 C 1681.296875 2636.371094 1681.222656 2636.410156 1681.15625 2636.449219 C 1681.15625 2636.449219 1681.148438 2636.460938 1681.148438 2636.46875 C 1681.070312 2636.507812 1681.007812 2636.550781 1680.957031 2636.578125 C 1680.945312 2636.589844 1680.945312 2636.589844 1680.933594 2636.589844 C 1680.859375 2636.640625 1680.796875 2636.679688 1680.722656 2636.71875 C 1680.679688 2636.75 1680.636719 2636.78125 1680.59375 2636.800781 C 1680.425781 2636.910156 1680.265625 2637.011719 1680.09375 2637.109375 C 1679.9375 2637.210938 1679.765625 2637.308594 1679.597656 2637.410156 C 1663.964844 2646.820312 1646.019531 2653.9375 1627.964844 2656.691406 C 1622.65625 2657.5 1617.324219 2657.929688 1612.046875 2657.929688"/></g><g><path fill="#f5778b" d="M 316.558594 1788.621094 C 294.324219 1755.929688 238.484375 1775.828125 264.53125 1813.191406 C 284.265625 1841.5 337.941406 1820.050781 316.558594 1788.621094"/></g><g><path fill="#f5778b" d="M 342.308594 1808.621094 C 319.613281 1809.058594 312.546875 1837.53125 332.105469 1848.25 C 362.371094 1864.828125 377.035156 1807.941406 342.308594 1808.621094"/></g></g></svg>