<?xml version="1.0" encoding="UTF-8" standalone="no"?><svg xmlns="http://www.w3.org/2000/svg" xmlns:xlink="http://www.w3.org/1999/xlink" contentScriptType="text/ecmascript" fill="#000000" width="269.2" zoomAndPan="magnify" contentStyleType="text/css" viewBox="76.1 84.0 269.2 257.1" height="257.1" preserveAspectRatio="xMidYMid meet" version="1"><g><g id="change1_1"><path fill="#d7ea53" d="M216.55,85.04c-48.81,1.8-95.56,31.98-117.28,75.73c-23.15,46.63-19.48,112.85,19.21,150.54 c18.15,17.67,42.04,26.27,67,28.1c18.68,1.37,37.64,1.15,55.88-3.11c51.39-12.01,92.7-58.76,98.31-111.24 s-24.91-106.89-72.6-129.48C247.44,86.29,216.55,85.04,216.55,85.04z"/></g><g id="change2_1"><path fill="inherit" d="M86.5,246.78c-0.49,0-0.91-0.35-0.99-0.85c-4.42-29.05,0.27-60.25,12.86-85.6c10.74-21.63,27.63-40.3,48.83-53.99 c21.21-13.7,45.17-21.41,69.3-22.29c0.39,0.01,31.4,1.36,50.98,10.63c4.96,2.35,9.85,5.1,14.51,8.17 c0.46,0.3,0.59,0.92,0.29,1.38s-0.92,0.59-1.39,0.29c-4.59-3.02-9.38-5.72-14.27-8.03c-19.21-9.1-49.82-10.43-50.12-10.44 c-48.11,1.78-94.9,31.99-116.34,75.18c-12.41,24.99-17.03,55.76-12.67,84.42c0.08,0.55-0.29,1.06-0.84,1.14 C86.6,246.78,86.55,246.78,86.5,246.78z"/></g><g id="change2_2"><path fill="inherit" d="M204.73,341.16c-6.08,0-12.5-0.25-19.32-0.75c-12.48-0.91-24.23-3.47-34.91-7.61c-0.52-0.2-0.77-0.78-0.57-1.29 c0.2-0.52,0.78-0.77,1.29-0.57c10.5,4.06,22.06,6.58,34.34,7.48c22.01,1.61,39.67,0.63,55.58-3.09 c50.96-11.91,91.98-58.33,97.54-110.37c0.89-8.31,0.87-16.84-0.05-25.37c-0.06-0.55,0.34-1.04,0.89-1.1 c0.56-0.07,1.04,0.34,1.1,0.89c0.93,8.66,0.95,17.34,0.05,25.79c-5.64,52.86-47.31,100-99.07,112.1 C230.42,339.88,218.43,341.16,204.73,341.16z"/></g><g id="change2_3"><path fill="inherit" d="M189.2,339.92c-0.12,0-0.24-0.02-0.36-0.07c-32.35-12.64-61.63-47.41-71.2-84.55c-8.54-33.13-7.28-66.08,3.65-95.29 c11.46-30.63,32.89-54.76,61.98-69.79c0.49-0.25,1.09-0.06,1.35,0.43c0.25,0.49,0.06,1.09-0.43,1.35 c-28.65,14.8-49.75,38.56-61.03,68.71c-10.78,28.82-12.02,61.35-3.58,94.09c9.42,36.56,38.2,70.77,69.99,83.19 c0.51,0.2,0.77,0.78,0.57,1.3C189.98,339.68,189.6,339.92,189.2,339.92z"/></g><g id="change2_4"><path fill="inherit" d="M205.21,341.16c-0.28,0-0.55-0.11-0.75-0.34c-0.78-0.88-1.83-2.04-3-3.33c-2.8-3.09-6.29-6.94-8.05-9.2 c-39.85-51.29-52.13-120.07-32.05-179.51l1.12-3.33c7.73-23.06,17.36-51.77,42.4-60.55c0.52-0.19,1.09,0.09,1.27,0.61 c0.18,0.52-0.09,1.09-0.61,1.27c-24.12,8.46-33.57,36.65-41.17,59.3l-1.12,3.33c-19.87,58.81-7.71,126.88,31.74,177.65 c1.71,2.2,5.17,6.01,7.95,9.08c1.18,1.3,2.24,2.47,3.02,3.35c0.37,0.41,0.33,1.05-0.09,1.41 C205.68,341.07,205.45,341.16,205.21,341.16z"/></g><g id="change2_5"><path fill="inherit" d="M245.26,336.31c-0.4,0-0.78-0.24-0.93-0.64c-0.2-0.51,0.05-1.09,0.57-1.3c17.28-6.75,48.32-26.07,62.13-79.66 c8.3-32.21,6.73-66.17-4.42-95.63c-11.78-31.15-33.18-55.45-61.86-70.27c-0.49-0.25-0.68-0.86-0.43-1.35s0.86-0.68,1.35-0.43 c29.13,15.05,50.85,39.72,62.81,71.34c11.29,29.84,12.88,64.24,4.48,96.84c-14.03,54.45-45.7,74.14-63.34,81.03 C245.5,336.29,245.38,336.31,245.26,336.31z"/></g><g id="change2_6"><path fill="inherit" d="M221.38,340.44c-0.23,0-0.47-0.08-0.66-0.25c-0.41-0.37-0.45-1-0.09-1.41c1.06-1.2,2.62-2.81,4.27-4.52 c2.46-2.54,5.24-5.42,6.7-7.29c39.44-50.76,51.6-118.83,31.74-177.65l-1.12-3.33c-7.6-22.65-17.05-50.84-41.17-59.3 c-0.52-0.18-0.8-0.75-0.61-1.27c0.18-0.52,0.75-0.8,1.27-0.61c25.04,8.78,34.67,37.49,42.4,60.55l1.12,3.33 c20.08,59.44,7.8,128.23-32.05,179.51c-1.52,1.95-4.22,4.75-6.84,7.45c-1.64,1.69-3.18,3.29-4.21,4.45 C221.94,340.33,221.66,340.44,221.38,340.44z"/></g><g id="change2_7"><path fill="inherit" d="M209.7,338.96c-0.02,0-0.04,0-0.06,0c-0.55-0.03-0.97-0.51-0.94-1.06c1.73-28.39,3.05-194.74,0.43-252.39 c-0.02-0.55,0.4-1.02,0.95-1.04c0.54-0.05,1.02,0.4,1.04,0.95c2.62,57.69,1.3,224.19-0.43,252.6 C210.66,338.55,210.22,338.96,209.7,338.96z"/></g><g id="change2_8"><path fill="inherit" d="M218.58,139.28c-30.85,0-59.94-5.6-88.38-16.97c-0.51-0.21-0.76-0.79-0.56-1.3c0.21-0.51,0.79-0.76,1.3-0.56 c34.99,13.98,71,19.17,110.09,15.86c19.41-1.65,39.7-4.45,55.78-18.76c0.41-0.37,1.04-0.33,1.41,0.08 c0.37,0.41,0.33,1.04-0.08,1.41c-16.54,14.72-38.06,17.66-56.94,19.26C233.55,138.95,226.01,139.28,218.58,139.28z"/></g><g id="change2_9"><path fill="inherit" d="M208.19,182.28c-8.54,0-16.98-0.27-25.24-0.62c-14.09-0.6-29.05-1.52-43.31-5.43c-15.75-4.32-28.7-11.95-37.44-22.07 c-0.36-0.42-0.31-1.05,0.1-1.41c0.42-0.36,1.05-0.32,1.41,0.1c8.48,9.82,21.09,17.24,36.46,21.45 c14.06,3.85,28.88,4.76,42.86,5.36c23.94,1.03,49.5,1.31,74.2-3.53c28.61-5.61,47.48-14.38,63.09-29.31 c0.4-0.38,1.03-0.37,1.41,0.03c0.38,0.4,0.37,1.03-0.03,1.41c-20,19.13-43.62,25.81-64.09,29.83 C241.26,181.3,224.55,182.28,208.19,182.28z"/></g><g id="change2_10"><path fill="inherit" d="M122.19,315.73c-0.4,0-0.77-0.24-0.93-0.63c-0.2-0.51,0.04-1.09,0.56-1.3c36.08-14.42,51.01-20.38,89.57-20.74 c33.97-0.3,51.59,6.63,71.98,14.67c2.59,1.02,5.24,2.06,7.98,3.12c0.52,0.2,0.77,0.78,0.57,1.29c-0.2,0.52-0.78,0.77-1.29,0.57 c-2.75-1.06-5.4-2.1-8-3.13c-21.02-8.29-37.61-14.82-71.22-14.53c-38.19,0.35-53.02,6.28-88.85,20.6 C122.43,315.7,122.31,315.73,122.19,315.73z"/></g><g id="change2_11"><path fill="inherit" d="M98.53,284.99c-0.23,0-0.46-0.08-0.65-0.24c-0.42-0.36-0.46-0.99-0.1-1.41c9.54-11.06,51.23-26.72,66.27-30.36 c27.45-6.66,58.06-6.51,93.58,0.46c23.38,4.59,42.73,9.5,61.21,27.18c0.4,0.38,0.41,1.01,0.03,1.41 c-0.38,0.4-1.02,0.41-1.41,0.03c-18.12-17.34-36.39-21.99-60.21-26.66c-35.23-6.92-65.57-7.07-92.73-0.48 c-14.43,3.5-56.09,19.15-65.22,29.73C99.09,284.87,98.82,284.99,98.53,284.99z"/></g><g id="change2_12"><path fill="inherit" d="M164.79,220.72c-30.03,0-58.73-0.53-81.47-2.04c-0.55-0.04-0.97-0.51-0.93-1.06c0.04-0.55,0.52-0.95,1.06-0.93 c54.71,3.64,144.02,1.56,203.12,0.19c28.4-0.66,48.92-1.14,52.96-0.63c0.55,0.07,0.94,0.57,0.87,1.12s-0.58,0.92-1.12,0.87 c-3.9-0.49-24.35-0.01-52.67,0.65C252.03,219.67,207.09,220.72,164.79,220.72z"/></g></g></svg>