<?xml version="1.0" encoding="UTF-8"?><svg xmlns="http://www.w3.org/2000/svg" xmlns:xlink="http://www.w3.org/1999/xlink" contentScriptType="text/ecmascript" fill="#000000" width="457.5" zoomAndPan="magnify" contentStyleType="text/css" viewBox="-6.7 -7.7 457.5 641.6" height="641.6" preserveAspectRatio="xMidYMid meet" version="1"><defs><clipPath id="a"><path d="M 0 0 L 450.738281 0 L 450.738281 631.460938 L 0 631.460938 Z M 0 0"/></clipPath><clipPath id="b"><path d="M 204 545 L 266 545 L 266 565 L 204 565 Z M 204 545"/></clipPath><clipPath id="c"><path d="M 265.632812 555.472656 C 247.542969 552.128906 212.730469 546.207031 204.246094 564.3125 C 204.878906 556.785156 207.21875 549.308594 212.136719 546.523438 C 230.421875 544.757812 248.351562 546.625 265.632812 555.472656"/></clipPath><clipPath id="d"><path d="M 265.632812 555.472656 C 247.542969 552.128906 212.730469 546.207031 204.246094 564.3125 C 204.878906 556.785156 207.21875 549.308594 212.136719 546.523438 C 230.421875 544.757812 248.351562 546.625 265.632812 555.472656"/></clipPath><clipPath id="f"><path d="M 275 545 L 338 545 L 338 565 L 275 565 Z M 275 545"/></clipPath><clipPath id="g"><path d="M 275.671875 555.472656 C 293.757812 552.128906 328.574219 546.207031 337.0625 564.3125 C 336.421875 556.785156 334.101562 549.308594 329.171875 546.523438 C 310.886719 544.757812 292.953125 546.625 275.671875 555.472656"/></clipPath><clipPath id="h"><path d="M 275.671875 555.472656 C 293.757812 552.128906 328.574219 546.207031 337.0625 564.3125 C 336.421875 556.785156 334.101562 549.308594 329.171875 546.523438 C 310.886719 544.757812 292.953125 546.625 275.671875 555.472656"/></clipPath><clipPath id="j"><path d="M 185 293 L 353 293 L 353 367 L 185 367 Z M 185 293"/></clipPath><clipPath id="k"><path d="M 302.460938 351.199219 C 282.613281 358.117188 263.632812 362.410156 248.082031 349.480469 C 229.960938 336.523438 198.898438 292.511719 185.5625 294.195312 C 195.144531 301.65625 206.375 311.613281 218.660156 331.03125 C 238.304688 362.085938 250.832031 365.65625 279.527344 366.113281 C 308.25 366.566406 321.460938 346.21875 330.289062 327.351562 C 336.257812 314.589844 342.441406 302.148438 352.667969 293.03125 C 337.84375 295.976562 315.414062 346.023438 302.460938 351.199219"/></clipPath><clipPath id="l"><path d="M 302.460938 351.199219 C 282.613281 358.117188 263.632812 362.410156 248.082031 349.480469 C 229.960938 336.523438 198.898438 292.511719 185.5625 294.195312 C 195.144531 301.65625 206.375 311.613281 218.660156 331.03125 C 238.304688 362.085938 250.832031 365.65625 279.527344 366.113281 C 308.25 366.566406 321.460938 346.21875 330.289062 327.351562 C 336.257812 314.589844 342.441406 302.148438 352.667969 293.03125 C 337.84375 295.976562 315.414062 346.023438 302.460938 351.199219"/></clipPath><radialGradient gradientTransform="matrix(.03392 .96086 -1.03806 .0314 229.79 530.089)" xmlns:xlink="http://www.w3.org/1999/xlink" gradientUnits="userSpaceOnUse" xlink:type="simple" r="201.415" xlink:actuate="onLoad" cx="0" id="e" cy="0" xlink:show="other" fx="0" fy="0"><stop stop-color="#fcfbf5" offset="0.006"/><stop stop-color="#fbfbf5" offset="0.013"/><stop stop-color="#fbfaf4" offset="0.025"/><stop stop-color="#fbf9f3" offset="0.037"/><stop stop-color="#faf9f2" offset="0.041"/><stop stop-color="#faf8f2" offset="0.052"/><stop stop-color="#faf8f2" offset="0.056"/><stop stop-color="#f9f8f1" offset="0.06"/><stop stop-color="#f9f7f1" offset="0.064"/><stop stop-color="#f9f7f0" offset="0.068"/><stop stop-color="#f8f6f0" offset="0.072"/><stop stop-color="#f7f6ef" offset="0.083"/><stop stop-color="#f7f6ee" offset="0.095"/><stop stop-color="#f7f5ee" offset="0.099"/><stop stop-color="#f6f5ee" offset="0.103"/><stop stop-color="#f6f4ed" offset="0.107"/><stop stop-color="#f6f4ed" offset="0.11"/><stop stop-color="#f5f3ed" offset="0.114"/><stop stop-color="#f5f3ec" offset="0.118"/><stop stop-color="#f5f3ec" offset="0.122"/><stop stop-color="#f5f2eb" offset="0.126"/><stop stop-color="#f4f2eb" offset="0.138"/><stop stop-color="#f4f2ea" offset="0.149"/><stop stop-color="#f4f1ea" offset="0.153"/><stop stop-color="#f4f1e9" offset="0.157"/><stop stop-color="#f4f0e9" offset="0.161"/><stop stop-color="#f3f0e8" offset="0.165"/><stop stop-color="#f3f0e7" offset="0.169"/><stop stop-color="#f3efe7" offset="0.18"/><stop stop-color="#f2efe7" offset="0.184"/><stop stop-color="#f2eee6" offset="0.188"/><stop stop-color="#f1eee5" offset="0.2"/><stop stop-color="#f1ede5" offset="0.211"/><stop stop-color="#f0ede5" offset="0.215"/><stop stop-color="#f0ede4" offset="0.219"/><stop stop-color="#f0ece4" offset="0.223"/><stop stop-color="#f0ece3" offset="0.227"/><stop stop-color="#f0ebe3" offset="0.231"/><stop stop-color="#f0ebe2" offset="0.243"/><stop stop-color="#efebe2" offset="0.246"/><stop stop-color="#efebe2" offset="0.25"/><stop stop-color="#eeeae1" offset="0.254"/><stop stop-color="#eee9e1" offset="0.266"/><stop stop-color="#eee9e0" offset="0.274"/><stop stop-color="#eee8df" offset="0.281"/><stop stop-color="#ede7de" offset="0.289"/><stop stop-color="#ece6dd" offset="0.297"/><stop stop-color="#ece6dc" offset="0.305"/><stop stop-color="#ebe6dc" offset="0.312"/><stop stop-color="#eae5db" offset="0.32"/><stop stop-color="#eae4da" offset="0.328"/><stop stop-color="#e9e3d9" offset="0.347"/><stop stop-color="#e8e2d9" offset="0.355"/><stop stop-color="#e8e2d8" offset="0.363"/><stop stop-color="#e8e2d7" offset="0.371"/><stop stop-color="#e7e1d6" offset="0.379"/><stop stop-color="#e6e1d6" offset="0.386"/><stop stop-color="#e6e0d5" offset="0.394"/><stop stop-color="#e6dfd4" offset="0.41"/><stop stop-color="#e5dfd3" offset="0.417"/><stop stop-color="#e4ded2" offset="0.425"/><stop stop-color="#e3dcd1" offset="0.441"/><stop stop-color="#e3dcd0" offset="0.448"/><stop stop-color="#e2dbcf" offset="0.456"/><stop stop-color="#e1dbcf" offset="0.472"/><stop stop-color="#e1dace" offset="0.48"/><stop stop-color="#e0d9ce" offset="0.487"/><stop stop-color="#e0d9cd" offset="0.495"/><stop stop-color="#e0d9cc" offset="0.499"/><stop stop-color="#e0d9cc" offset="0.503"/><stop stop-color="#dfd8cb" offset="0.507"/><stop stop-color="#dfd8ca" offset="0.518"/><stop stop-color="#dfd7ca" offset="0.522"/><stop stop-color="#ded7c9" offset="0.534"/><stop stop-color="#ded6c8" offset="0.546"/><stop stop-color="#ded6c8" offset="0.549"/><stop stop-color="#ddd6c7" offset="0.553"/><stop stop-color="#ddd5c7" offset="0.557"/><stop stop-color="#dcd4c6" offset="0.561"/><stop stop-color="#dcd4c6" offset="0.565"/><stop stop-color="#dbd4c5" offset="0.577"/><stop stop-color="#dbd3c5" offset="0.58"/><stop stop-color="#dbd3c5" offset="0.584"/><stop stop-color="#dbd2c4" offset="0.588"/><stop stop-color="#dad2c4" offset="0.592"/><stop stop-color="#dad2c4" offset="0.596"/><stop stop-color="#dad3c3" offset="0.6"/><stop stop-color="#dad2c3" offset="0.604"/><stop stop-color="#d9d2c3" offset="0.608"/><stop stop-color="#d9d2c2" offset="0.612"/><stop stop-color="#d9d1c2" offset="0.615"/><stop stop-color="#d8d0c1" offset="0.627"/><stop stop-color="#d8d0c0" offset="0.631"/><stop stop-color="#d8d0c0" offset="0.639"/><stop stop-color="#d7cfbf" offset="0.647"/><stop stop-color="#d7cfbe" offset="0.654"/><stop stop-color="#d6cebe" offset="0.662"/><stop stop-color="#d5cdbd" offset="0.67"/><stop stop-color="#d5ccbc" offset="0.689"/><stop stop-color="#d5ccbb" offset="0.693"/><stop stop-color="#d4cbbb" offset="0.697"/><stop stop-color="#d4cbba" offset="0.705"/><stop stop-color="#d3cab9" offset="0.72"/><stop stop-color="#d2c9b8" offset="0.728"/><stop stop-color="#d2c9b8" offset="0.736"/><stop stop-color="#d2c9b7" offset="0.744"/><stop stop-color="#d1c8b6" offset="0.751"/><stop stop-color="#d1c8b6" offset="0.759"/><stop stop-color="#d0c7b6" offset="0.763"/><stop stop-color="#d0c7b5" offset="0.767"/><stop stop-color="#d0c6b5" offset="0.779"/><stop stop-color="#cfc6b4" offset="0.782"/><stop stop-color="#cfc6b4" offset="0.786"/><stop stop-color="#cec5b3" offset="0.79"/><stop stop-color="#cec5b3" offset="0.794"/><stop stop-color="#cec5b2" offset="0.798"/><stop stop-color="#cec5b2" offset="0.81"/><stop stop-color="#cec5b2" offset="0.814"/><stop stop-color="#cdc4b1" offset="0.817"/><stop stop-color="#ccc3b0" offset="0.825"/><stop stop-color="#ccc3af" offset="0.833"/><stop stop-color="#ccc2af" offset="0.841"/><stop stop-color="#cbc1ae" offset="0.86"/><stop stop-color="#cbc0ad" offset="0.868"/><stop stop-color="#cac0ac" offset="0.876"/><stop stop-color="#c9c0ac" offset="0.883"/><stop stop-color="#c9bfab" offset="0.887"/><stop stop-color="#c9bfab" offset="0.891"/><stop stop-color="#c9bfaa" offset="0.895"/><stop stop-color="#c8bea9" offset="0.907"/><stop stop-color="#c8bda9" offset="0.911"/><stop stop-color="#c8bda8" offset="0.918"/><stop stop-color="#c7bda8" offset="0.926"/><stop stop-color="#c6bca7" offset="0.934"/><stop stop-color="#c6bca6" offset="0.942"/><stop stop-color="#c5bba6" offset="0.946"/><stop stop-color="#c5bba5" offset="0.95"/><stop stop-color="#c5baa5" offset="0.961"/><stop stop-color="#c5baa4" offset="0.969"/><stop stop-color="#c4baa4" offset="0.977"/><stop stop-color="#c4b9a3" offset="0.981"/><stop stop-color="#c3b9a2" offset="0.988"/><stop stop-color="#c3b8a2" offset="0.992"/><stop stop-color="#c3b8a1" offset="1"/></radialGradient><radialGradient gradientTransform="matrix(-.06937 .95922 1.03629 .06421 314.022 535.396)" xmlns:xlink="http://www.w3.org/1999/xlink" gradientUnits="userSpaceOnUse" xlink:type="simple" r="185.931" xlink:actuate="onLoad" cx="0" id="i" cy="0" xlink:show="other" fx="0" fy="0"><stop stop-color="#fcfbf5" offset="0.006"/><stop stop-color="#fbfbf5" offset="0.013"/><stop stop-color="#fbfaf4" offset="0.025"/><stop stop-color="#fbf9f3" offset="0.037"/><stop stop-color="#faf9f2" offset="0.041"/><stop stop-color="#faf8f2" offset="0.052"/><stop stop-color="#faf8f2" offset="0.056"/><stop stop-color="#f9f8f1" offset="0.06"/><stop stop-color="#f9f7f1" offset="0.064"/><stop stop-color="#f9f7f0" offset="0.068"/><stop stop-color="#f8f6f0" offset="0.072"/><stop stop-color="#f7f6ef" offset="0.083"/><stop stop-color="#f7f6ee" offset="0.095"/><stop stop-color="#f7f5ee" offset="0.099"/><stop stop-color="#f6f5ee" offset="0.103"/><stop stop-color="#f6f4ed" offset="0.107"/><stop stop-color="#f6f4ed" offset="0.11"/><stop stop-color="#f5f3ed" offset="0.114"/><stop stop-color="#f5f3ec" offset="0.118"/><stop stop-color="#f5f3ec" offset="0.122"/><stop stop-color="#f5f2eb" offset="0.126"/><stop stop-color="#f4f2eb" offset="0.138"/><stop stop-color="#f4f2ea" offset="0.149"/><stop stop-color="#f4f1ea" offset="0.153"/><stop stop-color="#f4f1e9" offset="0.157"/><stop stop-color="#f4f0e9" offset="0.161"/><stop stop-color="#f3f0e8" offset="0.165"/><stop stop-color="#f3f0e7" offset="0.169"/><stop stop-color="#f3efe7" offset="0.18"/><stop stop-color="#f2efe7" offset="0.184"/><stop stop-color="#f2eee6" offset="0.188"/><stop stop-color="#f1eee5" offset="0.2"/><stop stop-color="#f1ede5" offset="0.211"/><stop stop-color="#f0ede5" offset="0.215"/><stop stop-color="#f0ede4" offset="0.219"/><stop stop-color="#f0ece4" offset="0.223"/><stop stop-color="#f0ece3" offset="0.227"/><stop stop-color="#f0ebe3" offset="0.231"/><stop stop-color="#f0ebe2" offset="0.243"/><stop stop-color="#efebe2" offset="0.246"/><stop stop-color="#efebe2" offset="0.25"/><stop stop-color="#eeeae1" offset="0.254"/><stop stop-color="#eee9e1" offset="0.266"/><stop stop-color="#eee9e0" offset="0.274"/><stop stop-color="#eee8df" offset="0.281"/><stop stop-color="#ede7de" offset="0.289"/><stop stop-color="#ece6dd" offset="0.297"/><stop stop-color="#ece6dc" offset="0.305"/><stop stop-color="#ebe6dc" offset="0.312"/><stop stop-color="#eae5db" offset="0.32"/><stop stop-color="#eae4da" offset="0.328"/><stop stop-color="#e9e3d9" offset="0.347"/><stop stop-color="#e8e2d9" offset="0.355"/><stop stop-color="#e8e2d8" offset="0.363"/><stop stop-color="#e8e2d7" offset="0.371"/><stop stop-color="#e7e1d6" offset="0.379"/><stop stop-color="#e6e1d6" offset="0.386"/><stop stop-color="#e6e0d5" offset="0.394"/><stop stop-color="#e6dfd4" offset="0.41"/><stop stop-color="#e5dfd3" offset="0.417"/><stop stop-color="#e4ded2" offset="0.425"/><stop stop-color="#e3dcd1" offset="0.441"/><stop stop-color="#e3dcd0" offset="0.448"/><stop stop-color="#e2dbcf" offset="0.456"/><stop stop-color="#e1dbcf" offset="0.472"/><stop stop-color="#e1dace" offset="0.48"/><stop stop-color="#e0d9ce" offset="0.487"/><stop stop-color="#e0d9cd" offset="0.495"/><stop stop-color="#e0d9cc" offset="0.499"/><stop stop-color="#e0d9cc" offset="0.503"/><stop stop-color="#dfd8cb" offset="0.507"/><stop stop-color="#dfd8ca" offset="0.518"/><stop stop-color="#dfd7ca" offset="0.522"/><stop stop-color="#ded7c9" offset="0.534"/><stop stop-color="#ded6c8" offset="0.546"/><stop stop-color="#ded6c8" offset="0.549"/><stop stop-color="#ddd6c7" offset="0.553"/><stop stop-color="#ddd5c7" offset="0.557"/><stop stop-color="#dcd4c6" offset="0.561"/><stop stop-color="#dcd4c6" offset="0.565"/><stop stop-color="#dbd4c5" offset="0.577"/><stop stop-color="#dbd3c5" offset="0.58"/><stop stop-color="#dbd3c5" offset="0.584"/><stop stop-color="#dbd2c4" offset="0.588"/><stop stop-color="#dad2c4" offset="0.592"/><stop stop-color="#dad2c4" offset="0.596"/><stop stop-color="#dad3c3" offset="0.6"/><stop stop-color="#dad2c3" offset="0.604"/><stop stop-color="#d9d2c3" offset="0.608"/><stop stop-color="#d9d2c2" offset="0.612"/><stop stop-color="#d9d1c2" offset="0.615"/><stop stop-color="#d8d0c1" offset="0.627"/><stop stop-color="#d8d0c0" offset="0.631"/><stop stop-color="#d8d0c0" offset="0.639"/><stop stop-color="#d7cfbf" offset="0.647"/><stop stop-color="#d7cfbe" offset="0.654"/><stop stop-color="#d6cebe" offset="0.662"/><stop stop-color="#d5cdbd" offset="0.67"/><stop stop-color="#d5ccbc" offset="0.689"/><stop stop-color="#d5ccbb" offset="0.693"/><stop stop-color="#d4cbbb" offset="0.697"/><stop stop-color="#d4cbba" offset="0.705"/><stop stop-color="#d3cab9" offset="0.72"/><stop stop-color="#d2c9b8" offset="0.728"/><stop stop-color="#d2c9b8" offset="0.736"/><stop stop-color="#d2c9b7" offset="0.744"/><stop stop-color="#d1c8b6" offset="0.751"/><stop stop-color="#d1c8b6" offset="0.759"/><stop stop-color="#d0c7b6" offset="0.763"/><stop stop-color="#d0c7b5" offset="0.767"/><stop stop-color="#d0c6b5" offset="0.779"/><stop stop-color="#cfc6b4" offset="0.782"/><stop stop-color="#cfc6b4" offset="0.786"/><stop stop-color="#cec5b3" offset="0.79"/><stop stop-color="#cec5b3" offset="0.794"/><stop stop-color="#cec5b2" offset="0.798"/><stop stop-color="#cec5b2" offset="0.81"/><stop stop-color="#cec5b2" offset="0.814"/><stop stop-color="#cdc4b1" offset="0.817"/><stop stop-color="#ccc3b0" offset="0.825"/><stop stop-color="#ccc3af" offset="0.833"/><stop stop-color="#ccc2af" offset="0.841"/><stop stop-color="#cbc1ae" offset="0.86"/><stop stop-color="#cbc0ad" offset="0.868"/><stop stop-color="#cac0ac" offset="0.876"/><stop stop-color="#c9c0ac" offset="0.883"/><stop stop-color="#c9bfab" offset="0.887"/><stop stop-color="#c9bfab" offset="0.891"/><stop stop-color="#c9bfaa" offset="0.895"/><stop stop-color="#c8bea9" offset="0.907"/><stop stop-color="#c8bda9" offset="0.911"/><stop stop-color="#c8bda8" offset="0.918"/><stop stop-color="#c7bda8" offset="0.926"/><stop stop-color="#c6bca7" offset="0.934"/><stop stop-color="#c6bca6" offset="0.942"/><stop stop-color="#c5bba6" offset="0.946"/><stop stop-color="#c5bba5" offset="0.95"/><stop stop-color="#c5baa5" offset="0.961"/><stop stop-color="#c5baa4" offset="0.969"/><stop stop-color="#c4baa4" offset="0.977"/><stop stop-color="#c4b9a3" offset="0.981"/><stop stop-color="#c3b9a2" offset="0.988"/><stop stop-color="#c3b8a2" offset="0.992"/><stop stop-color="#c3b8a1" offset="1"/></radialGradient><radialGradient gradientTransform="rotate(-90.392 333.708 55.966)" xmlns:xlink="http://www.w3.org/1999/xlink" gradientUnits="userSpaceOnUse" xlink:type="simple" r="126.012" xlink:actuate="onLoad" cx="0" id="m" cy="0" xlink:show="other" fx="0" fy="0"><stop stop-color="#fcfbf5" offset="0.006"/><stop stop-color="#fbfbf5" offset="0.013"/><stop stop-color="#fbfaf4" offset="0.025"/><stop stop-color="#fbf9f3" offset="0.037"/><stop stop-color="#faf9f2" offset="0.041"/><stop stop-color="#faf8f2" offset="0.052"/><stop stop-color="#faf8f2" offset="0.056"/><stop stop-color="#f9f8f1" offset="0.06"/><stop stop-color="#f9f7f1" offset="0.064"/><stop stop-color="#f9f7f0" offset="0.068"/><stop stop-color="#f8f6f0" offset="0.072"/><stop stop-color="#f7f6ef" offset="0.083"/><stop stop-color="#f7f6ee" offset="0.095"/><stop stop-color="#f7f5ee" offset="0.099"/><stop stop-color="#f6f5ee" offset="0.103"/><stop stop-color="#f6f4ed" offset="0.107"/><stop stop-color="#f6f4ed" offset="0.11"/><stop stop-color="#f5f3ed" offset="0.114"/><stop stop-color="#f5f3ec" offset="0.118"/><stop stop-color="#f5f3ec" offset="0.122"/><stop stop-color="#f5f2eb" offset="0.126"/><stop stop-color="#f4f2eb" offset="0.138"/><stop stop-color="#f4f2ea" offset="0.149"/><stop stop-color="#f4f1ea" offset="0.153"/><stop stop-color="#f4f1e9" offset="0.157"/><stop stop-color="#f4f0e9" offset="0.161"/><stop stop-color="#f3f0e8" offset="0.165"/><stop stop-color="#f3f0e7" offset="0.169"/><stop stop-color="#f3efe7" offset="0.18"/><stop stop-color="#f2efe7" offset="0.184"/><stop stop-color="#f2eee6" offset="0.188"/><stop stop-color="#f1eee5" offset="0.2"/><stop stop-color="#f1ede5" offset="0.211"/><stop stop-color="#f0ede5" offset="0.215"/><stop stop-color="#f0ede4" offset="0.219"/><stop stop-color="#f0ece4" offset="0.223"/><stop stop-color="#f0ece3" offset="0.227"/><stop stop-color="#f0ebe3" offset="0.231"/><stop stop-color="#f0ebe2" offset="0.243"/><stop stop-color="#efebe2" offset="0.246"/><stop stop-color="#efebe2" offset="0.25"/><stop stop-color="#eeeae1" offset="0.254"/><stop stop-color="#eee9e1" offset="0.266"/><stop stop-color="#eee9e0" offset="0.274"/><stop stop-color="#eee8df" offset="0.281"/><stop stop-color="#ede7de" offset="0.289"/><stop stop-color="#ece6dd" offset="0.297"/><stop stop-color="#ece6dc" offset="0.305"/><stop stop-color="#ebe6dc" offset="0.312"/><stop stop-color="#eae5db" offset="0.32"/><stop stop-color="#eae4da" offset="0.328"/><stop stop-color="#e9e3d9" offset="0.347"/><stop stop-color="#e8e2d9" offset="0.355"/><stop stop-color="#e8e2d8" offset="0.363"/><stop stop-color="#e8e2d7" offset="0.371"/><stop stop-color="#e7e1d6" offset="0.379"/><stop stop-color="#e6e1d6" offset="0.386"/><stop stop-color="#e6e0d5" offset="0.394"/><stop stop-color="#e6dfd4" offset="0.41"/><stop stop-color="#e5dfd3" offset="0.417"/><stop stop-color="#e4ded2" offset="0.425"/><stop stop-color="#e3dcd1" offset="0.441"/><stop stop-color="#e3dcd0" offset="0.448"/><stop stop-color="#e2dbcf" offset="0.456"/><stop stop-color="#e1dbcf" offset="0.472"/><stop stop-color="#e1dace" offset="0.48"/><stop stop-color="#e0d9ce" offset="0.487"/><stop stop-color="#e0d9cd" offset="0.495"/><stop stop-color="#e0d9cc" offset="0.499"/><stop stop-color="#e0d9cc" offset="0.503"/><stop stop-color="#dfd8cb" offset="0.507"/><stop stop-color="#dfd8ca" offset="0.518"/><stop stop-color="#dfd7ca" offset="0.522"/><stop stop-color="#ded7c9" offset="0.534"/><stop stop-color="#ded6c8" offset="0.546"/><stop stop-color="#ded6c8" offset="0.549"/><stop stop-color="#ddd6c7" offset="0.553"/><stop stop-color="#ddd5c7" offset="0.557"/><stop stop-color="#dcd4c6" offset="0.561"/><stop stop-color="#dcd4c6" offset="0.565"/><stop stop-color="#dbd4c5" offset="0.577"/><stop stop-color="#dbd3c5" offset="0.58"/><stop stop-color="#dbd3c5" offset="0.584"/><stop stop-color="#dbd2c4" offset="0.588"/><stop stop-color="#dad2c4" offset="0.592"/><stop stop-color="#dad2c4" offset="0.596"/><stop stop-color="#dad3c3" offset="0.6"/><stop stop-color="#dad2c3" offset="0.604"/><stop stop-color="#d9d2c3" offset="0.608"/><stop stop-color="#d9d2c2" offset="0.612"/><stop stop-color="#d9d1c2" offset="0.615"/><stop stop-color="#d8d0c1" offset="0.627"/><stop stop-color="#d8d0c0" offset="0.631"/><stop stop-color="#d8d0c0" offset="0.639"/><stop stop-color="#d7cfbf" offset="0.647"/><stop stop-color="#d7cfbe" offset="0.654"/><stop stop-color="#d6cebe" offset="0.662"/><stop stop-color="#d5cdbd" offset="0.67"/><stop stop-color="#d5ccbc" offset="0.689"/><stop stop-color="#d5ccbb" offset="0.693"/><stop stop-color="#d4cbbb" offset="0.697"/><stop stop-color="#d4cbba" offset="0.705"/><stop stop-color="#d3cab9" offset="0.72"/><stop stop-color="#d2c9b8" offset="0.728"/><stop stop-color="#d2c9b8" offset="0.736"/><stop stop-color="#d2c9b7" offset="0.744"/><stop stop-color="#d1c8b6" offset="0.751"/><stop stop-color="#d1c8b6" offset="0.759"/><stop stop-color="#d0c7b6" offset="0.763"/><stop stop-color="#d0c7b5" offset="0.767"/><stop stop-color="#d0c6b5" offset="0.779"/><stop stop-color="#cfc6b4" offset="0.782"/><stop stop-color="#cfc6b4" offset="0.786"/><stop stop-color="#cec5b3" offset="0.79"/><stop stop-color="#cec5b3" offset="0.794"/><stop stop-color="#cec5b2" offset="0.798"/><stop stop-color="#cec5b2" offset="0.81"/><stop stop-color="#cec5b2" offset="0.814"/><stop stop-color="#cdc4b1" offset="0.817"/><stop stop-color="#ccc3b0" offset="0.825"/><stop stop-color="#ccc3af" offset="0.833"/><stop stop-color="#ccc2af" offset="0.841"/><stop stop-color="#cbc1ae" offset="0.86"/><stop stop-color="#cbc0ad" offset="0.868"/><stop stop-color="#cac0ac" offset="0.876"/><stop stop-color="#c9c0ac" offset="0.883"/><stop stop-color="#c9bfab" offset="0.887"/><stop stop-color="#c9bfab" offset="0.891"/><stop stop-color="#c9bfaa" offset="0.895"/><stop stop-color="#c8bea9" offset="0.907"/><stop stop-color="#c8bda9" offset="0.911"/><stop stop-color="#c8bda8" offset="0.918"/><stop stop-color="#c7bda8" offset="0.926"/><stop stop-color="#c6bca7" offset="0.934"/><stop stop-color="#c6bca6" offset="0.942"/><stop stop-color="#c5bba6" offset="0.946"/><stop stop-color="#c5bba5" offset="0.95"/><stop stop-color="#c5baa5" offset="0.961"/><stop stop-color="#c5baa4" offset="0.969"/><stop stop-color="#c4baa4" offset="0.977"/><stop stop-color="#c4b9a3" offset="0.981"/><stop stop-color="#c3b9a2" offset="0.988"/><stop stop-color="#c3b8a2" offset="0.992"/><stop stop-color="#c3b8a1" offset="1"/></radialGradient></defs><g><g><path fill="#464c4e" d="M 294.757812 590.289062 C 295.105469 590.253906 295.488281 590.214844 295.488281 590.214844 C 295.488281 590.214844 295.066406 590.25 294.800781 590.273438 C 294.789062 590.277344 294.769531 590.285156 294.757812 590.289062"/></g><g clip-path="url(#a)"><path fill="#464c4e" d="M 445.445312 487.089844 C 443.023438 485.585938 440.246094 485.285156 437.59375 485.542969 C 438.492188 482.796875 439.195312 479.859375 439.195312 477.148438 C 439.195312 475.582031 438.964844 474.171875 438.515625 472.945312 C 437.648438 470.589844 435.980469 468.855469 433.6875 467.941406 C 429.914062 466.433594 424.984375 467.484375 419.058594 470.941406 C 417.453125 467.84375 415.484375 465.105469 413.171875 462.769531 C 407.796875 457.339844 398.132812 451.851562 382.089844 455.128906 C 381.71875 447.945312 380.203125 432.882812 374.328125 409.769531 C 371.933594 400.335938 368.871094 391.425781 365.90625 382.800781 C 360.511719 367.105469 354.976562 350.851562 353.121094 330.394531 C 359.609375 327.320312 365.175781 324.980469 369.992188 323.347656 C 382.953125 318.945312 393.289062 317.136719 399.390625 316.378906 C 399.347656 316.804688 399.246094 317.257812 399.246094 317.660156 C 399.246094 318.871094 399.460938 319.976562 399.878906 320.953125 C 400.695312 322.824219 402.257812 324.171875 404.289062 324.746094 C 408.628906 325.964844 413.304688 322.289062 418.207031 313.855469 C 420.238281 314.886719 421.960938 314.894531 423.175781 314.582031 C 425.136719 314.070312 427.664062 312.394531 428.574219 307.296875 C 428.953125 305.152344 429.144531 302.496094 429.144531 299.40625 C 429.144531 293.917969 428.554688 288.1875 428.117188 284.683594 C 428.320312 284.542969 428.539062 284.4375 428.734375 284.273438 C 431.542969 281.882812 432.90625 277.59375 432.90625 271.164062 L 432.871094 269.351562 C 432.476562 258.109375 428.542969 240.078125 419.097656 224.390625 C 420.742188 223.296875 422.671875 221.050781 422.804688 216.460938 C 422.804688 216.429688 422.808594 216.160156 422.808594 216.160156 C 422.808594 210.359375 417.992188 204.347656 412.890625 197.984375 C 411.414062 196.140625 409.996094 194.335938 408.71875 192.589844 C 409.121094 192.425781 409.546875 192.300781 409.914062 192.070312 C 411.558594 191.042969 413.539062 188.921875 413.671875 184.636719 C 413.671875 184.625 413.671875 184.316406 413.671875 184.316406 C 413.671875 178.859375 409.695312 171.445312 404.65625 162.0625 C 401.515625 156.207031 397.96875 149.597656 395.511719 143.433594 C 391.921875 134.414062 387.996094 122.039062 383.527344 105.644531 C 383.578125 104.898438 383.640625 103.957031 383.640625 103.957031 C 383.640625 96.460938 380.839844 78.273438 378.238281 64.550781 C 372.585938 34.507812 361.675781 14.195312 344.890625 2.460938 C 341.253906 -0.078125 337.238281 -0.667969 333.28125 0.761719 C 322.039062 4.820312 310.894531 26.445312 300.136719 64.960938 C 290.074219 64.308594 261.078125 62.894531 242.109375 66.554688 C 239.421875 60.175781 233.347656 46.300781 226.261719 33.597656 C 215.042969 13.488281 206.222656 4.71875 198.507812 5.992188 C 182.171875 8.683594 173.46875 26.382812 165.285156 45.847656 C 155.6875 68.699219 151.503906 108.914062 151.171875 112.234375 C 150.46875 114.785156 143.347656 140.625 137.191406 157.917969 C 134.078125 166.667969 126.835938 179.125 120.441406 190.117188 C 111.308594 205.816406 107.59375 212.632812 107.59375 216.902344 L 107.636719 217.664062 C 107.9375 220.269531 109.265625 222.332031 111.371094 223.476562 C 112.453125 224.0625 113.726562 224.347656 115.128906 224.410156 C 113.421875 228.195312 111.5 233.136719 109.695312 239.316406 C 108.480469 243.449219 107.890625 246.691406 107.890625 249.222656 C 107.890625 251.832031 108.503906 253.820312 109.765625 255.304688 C 110.617188 256.304688 112.546875 257.921875 115.902344 257.503906 C 116.238281 257.464844 116.914062 257.367188 118.085938 256.960938 C 116.234375 261.867188 114.410156 268.144531 113.636719 275.273438 C 113.277344 278.566406 113.09375 281.804688 113.09375 284.894531 C 113.09375 289.796875 113.605469 301.558594 118.34375 304.941406 C 119.929688 306.074219 121.894531 306.269531 123.609375 305.464844 C 124.457031 305.070312 125.328125 304.363281 126.21875 303.484375 C 127.839844 311.851562 130.59375 320.449219 135.285156 324.089844 C 141.382812 328.804688 145.332031 328.050781 147.570312 326.589844 C 148.761719 325.8125 150.117188 324.367188 150.660156 321.78125 C 157.644531 324.882812 169.464844 329.84375 182.484375 334.023438 C 182.484375 334.023438 187.644531 335.558594 190.359375 336.371094 C 189.808594 369.398438 180.675781 388.90625 172.578125 406.128906 C 166.425781 419.210938 160.136719 432.765625 158.359375 450.699219 C 154.410156 450.476562 150.507812 450.820312 146.707031 451.804688 C 126.304688 446.027344 96.984375 441.191406 71.480469 450.191406 C 62.191406 451.757812 51.925781 455.695312 40.953125 461.9375 C 12.59375 478.054688 3.542969 500.84375 0.941406 517.125 C 0.308594 521.089844 0 525.105469 0 529.125 C 0 548.304688 7.050781 567.507812 19.582031 581.300781 C 41.65625 605.589844 79.035156 608.898438 106.328125 611.3125 C 112.714844 611.875 118.742188 612.40625 123.894531 613.140625 C 132.988281 614.4375 140.613281 614.753906 147.34375 615.035156 C 161.046875 615.605469 171.867188 616.054688 187.207031 624.414062 C 199.808594 631.273438 208.042969 633.0625 213.117188 630.050781 C 214.238281 629.382812 215.113281 628.480469 215.769531 627.429688 C 217.1875 627.140625 218.46875 626.472656 219.496094 625.457031 C 221.910156 623.050781 223.035156 618.972656 223.035156 612.621094 C 223.035156 607.019531 222.160156 599.613281 220.3125 589.550781 C 222.351562 589.496094 224.109375 589.363281 225.222656 589.25 C 231.777344 593.070312 242.511719 591.484375 247.058594 590.539062 C 250.671875 592.042969 257.921875 593.261719 264.285156 591.964844 C 266.703125 591.472656 268.832031 590.65625 270.652344 589.546875 C 272.476562 590.65625 274.609375 591.472656 277.03125 591.96875 C 283.640625 593.308594 290.757812 591.972656 294.1875 590.519531 C 299.113281 591.546875 309.597656 593.039062 316.089844 589.25 C 321.148438 589.785156 331.363281 590.277344 336.320312 586.304688 C 340.746094 582.777344 341.226562 572.644531 341.226562 568.453125 C 341.226562 567.089844 341.089844 565.808594 340.996094 564.496094 C 341.507812 564.515625 341.527344 564.515625 342.023438 564.535156 C 342.019531 564.75 342.011719 564.96875 342.011719 565.179688 C 342.011719 574.484375 344.898438 581.570312 350.605469 586.261719 C 353.910156 588.980469 357.890625 590.34375 362.4375 590.324219 C 371.3125 591.265625 381.257812 586.507812 393.691406 575.351562 C 420.898438 553.300781 450.433594 511.984375 450.730469 499.488281 C 450.734375 499.265625 450.738281 499.050781 450.738281 498.832031 C 450.738281 493.222656 448.960938 489.273438 445.445312 487.089844 Z M 294.757812 590.289062 C 294.769531 590.285156 294.789062 590.277344 294.800781 590.273438 C 295.066406 590.25 295.488281 590.214844 295.488281 590.214844 C 295.488281 590.214844 295.105469 590.253906 294.757812 590.289062"/></g><g><path fill="#e2dbce" d="M 169.441406 464.109375 C 169.441406 464.109375 105.484375 434.171875 61.898438 458.898438 C 18.328125 483.621094 57.691406 525.257812 110.402344 521.351562 C 163.113281 517.457031 205.285156 488.175781 169.441406 464.109375"/></g><g><path fill="#464c4e" d="M 61.410156 458.035156 C 45.9375 466.816406 39.480469 478.429688 43.21875 490.734375 C 48.449219 507.941406 75.648438 524.917969 110.472656 522.339844 C 147.40625 519.609375 178.664062 504.671875 183.1875 487.59375 C 184.769531 481.609375 183.765625 472.539062 169.996094 463.289062 C 169.953125 463.261719 169.910156 463.234375 169.863281 463.214844 C 169.21875 462.914062 104.9375 433.34375 61.410156 458.035156 Z M 45.113281 490.15625 C 41.671875 478.828125 47.804688 468.03125 62.386719 459.761719 C 104.691406 435.761719 167.363281 464.242188 168.945312 464.972656 C 177.402344 470.664062 181.765625 476.953125 181.765625 483.355469 C 181.765625 484.59375 181.601562 485.839844 181.273438 487.085938 C 177.027344 503.121094 145.867188 517.738281 110.328125 520.367188 C 76.476562 522.871094 50.121094 506.636719 45.113281 490.15625"/></g><g><path fill="#555c5e" d="M 194.269531 325.527344 C 196.855469 395.800781 164.527344 409.453125 161.941406 455.003906 C 135.707031 450.671875 119.046875 476.234375 116.488281 488.398438 C 110.003906 519.324219 133.019531 555.472656 180.765625 558.617188 C 228.488281 561.765625 338.394531 558.234375 355.921875 561.628906 C 373.484375 565.050781 409.253906 536.9375 417.328125 510.691406 C 425.390625 484.449219 415.449219 449.144531 378.1875 460.195312 C 378.1875 460.195312 378.886719 443.941406 370.453125 410.757812 C 361.96875 377.359375 345.390625 351.78125 348.90625 302.976562 C 350.992188 273.992188 191.882812 260.242188 194.269531 325.527344"/></g><g><path fill="#3d4243" d="M 376.335938 465.996094 C 367.417969 465.996094 363.457031 479.859375 357.515625 476.890625 C 343.648438 467.976562 359.496094 446.183594 353.550781 431.328125 C 336.714844 448.167969 327.800781 475.898438 301.058594 477.882812 C 301.058594 475.898438 298.085938 475.898438 299.078125 473.917969 C 290.160156 474.910156 283.230469 482.832031 274.316406 478.871094 C 258.464844 472.929688 257.476562 452.128906 247.570312 439.253906 C 244.601562 450.148438 249.550781 465.003906 240.640625 469.957031 C 211.914062 484.8125 195.078125 448.167969 188.144531 423.40625 C 181.210938 436.28125 188.144531 452.128906 184.183594 464.015625 C 183.191406 465.996094 175.269531 465.003906 170.316406 465.003906 C 178.238281 467.976562 197.058594 474.910156 183.191406 482.832031 C 167.34375 491.746094 147.535156 490.757812 130.695312 484.8125 C 124.765625 482.835938 124.097656 476.917969 125.480469 470.839844 C 120.5625 477.03125 117.472656 483.710938 116.488281 488.398438 C 110.003906 519.324219 133.019531 555.472656 180.765625 558.617188 C 228.488281 561.765625 338.394531 558.234375 355.921875 561.628906 C 373.484375 565.050781 409.253906 536.9375 417.328125 510.691406 C 419.707031 502.9375 420.519531 494.390625 419.515625 486.484375 C 405.578125 482.53125 385.023438 485.996094 373.363281 478.871094 C 369.398438 475.898438 375.34375 470.945312 376.335938 465.996094"/></g><g><path fill="#e2dbce" d="M 390.140625 508.988281 C 367.644531 467.355469 317.039062 493.390625 305.804688 529.808594 C 290.800781 488.183594 290.359375 435.082031 298.0625 392.539062 C 300.628906 393.261719 308.988281 395.019531 312.445312 390.222656 C 318.777344 378.523438 312.824219 365.210938 314.230469 360.015625 C 324.765625 380.183594 346.617188 357.042969 349.164062 331.289062 C 348.363281 322.703125 348.15625 313.394531 348.90625 302.976562 C 350.992188 273.992188 191.882812 260.242188 194.269531 325.527344 C 194.355469 327.542969 194.382812 329.496094 194.410156 331.429688 C 196 346.636719 196.285156 359.339844 206.46875 371.898438 C 217.707031 377.113281 221.453125 363.265625 227.074219 358.058594 C 227.074219 373.671875 221.453125 389.292969 232.699219 399.703125 C 238.316406 399.703125 242.621094 396.660156 246.761719 386.683594 C 246.761719 428.324219 267.84375 471.257812 227.074219 514.203125 C 227.074219 493.390625 204.589844 488.175781 193.339844 493.390625 C 167.230469 500.277344 155.964844 523.210938 143.136719 546.976562 C 153.121094 553.347656 165.714844 557.632812 180.765625 558.617188 C 228.488281 561.765625 338.394531 558.234375 355.921875 561.628906 C 366.09375 563.597656 382.324219 555.007812 395.792969 542.339844 C 395.179688 530.890625 393.964844 519.640625 390.140625 508.988281"/></g><g><path fill="#bdb9ad" d="M 369.792969 504.285156 C 327.675781 561.757812 341.34375 526.472656 340.195312 491.1875 C 328.898438 498.921875 309.894531 516.527344 305.804688 529.808594 C 299.003906 510.949219 295.230469 489.738281 293.808594 468.222656 C 289.902344 472.078125 284.984375 474.253906 277.683594 472.5625 C 273.664062 468.84375 269.675781 459.796875 267.703125 451.136719 C 262.972656 461.453125 260.285156 470.914062 250.761719 468.765625 C 248.132812 483.871094 241.472656 499.042969 227.074219 514.203125 C 227.074219 508.0625 208.726562 501.996094 203.035156 496.878906 C 201.902344 508.832031 211.003906 552.65625 163.839844 513.179688 C 155.878906 522.878906 149.710938 534.8125 143.136719 546.976562 C 153.121094 553.347656 165.714844 557.632812 180.765625 558.617188 C 228.488281 561.765625 338.394531 558.234375 355.921875 561.628906 C 366.09375 563.597656 382.324219 555.007812 395.792969 542.339844 C 395.355469 534.261719 394.578125 526.277344 392.839844 518.535156 C 388.457031 520.691406 374.800781 502.429688 369.792969 504.285156"/></g><g><path fill="#464c4e" d="M 214.277344 291.128906 C 200.320312 299.195312 193.253906 310.269531 193.253906 324.054688 C 193.253906 324.554688 193.261719 325.058594 193.28125 325.5625 C 193.28125 325.566406 193.28125 325.566406 193.28125 325.566406 C 193.378906 328.203125 193.425781 330.761719 193.425781 333.246094 C 193.425781 368.871094 183.832031 389.273438 175.300781 407.410156 C 168.617188 421.625 162.324219 435.097656 161.050781 453.894531 C 134.542969 450.273438 117.988281 476.445312 115.519531 488.195312 C 112.324219 503.4375 116.183594 519.679688 126.105469 532.753906 C 138.085938 548.539062 157.476562 558.074219 180.699219 559.605469 C 204.257812 561.160156 243.523438 561.085938 278.164062 561.023438 C 313.53125 560.957031 346.941406 560.898438 355.730469 562.597656 C 374.660156 566.289062 410.3125 536.859375 418.273438 510.980469 C 422.800781 496.25 422.316406 476.28125 411.03125 464.886719 C 405.769531 459.570312 395.984375 454.335938 379.195312 458.90625 C 379.179688 454.425781 378.550781 438.59375 371.414062 410.511719 C 369.050781 401.207031 366.003906 392.347656 363.0625 383.78125 C 356.339844 364.21875 349.417969 344.074219 349.417969 316.027344 C 349.417969 311.882812 349.570312 307.5625 349.894531 303.050781 C 349.910156 302.832031 349.917969 302.613281 349.917969 302.394531 C 349.917969 298.261719 347.070312 294.386719 341.441406 290.859375 C 318.527344 276.515625 249.613281 270.707031 214.277344 291.128906 Z M 215.269531 292.847656 C 250.054688 272.742188 317.859375 278.433594 340.386719 292.539062 C 345.644531 295.828125 348.175781 299.316406 347.917969 302.90625 C 345.363281 338.371094 353.40625 361.78125 361.1875 384.421875 C 364.121094 392.953125 367.152344 401.773438 369.496094 411 C 377.785156 443.617188 377.203125 459.992188 377.195312 460.152344 C 377.183594 460.472656 377.324219 460.78125 377.578125 460.976562 C 377.828125 461.175781 378.164062 461.238281 378.46875 461.144531 C 391.652344 457.234375 402.425781 459.011719 409.625 466.28125 C 418.753906 475.496094 421.53125 493.640625 416.378906 510.398438 C 408.210938 536.953125 372.421875 563.832031 356.109375 560.65625 C 347.128906 558.917969 315.167969 558.972656 278.160156 559.042969 C 243.550781 559.105469 204.324219 559.179688 180.832031 557.625 C 158.1875 556.136719 139.3125 546.878906 127.683594 531.554688 C 118.105469 518.9375 114.378906 503.285156 117.460938 488.605469 C 119.84375 477.242188 135.984375 451.722656 161.78125 455.980469 C 162.058594 456.023438 162.34375 455.949219 162.5625 455.773438 C 162.78125 455.601562 162.914062 455.339844 162.933594 455.058594 C 164.007812 436.074219 170.363281 422.5625 177.09375 408.253906 C 186.316406 388.644531 196.765625 366.421875 195.261719 325.492188 C 194.761719 311.792969 201.492188 300.808594 215.269531 292.847656"/></g><g><path fill="#ede8e0" d="M 289.800781 343.617188 C 279.03125 363.554688 277.824219 387.929688 269.097656 408.8125 C 269.488281 411.789062 271.671875 414.152344 280.019531 408.460938 C 287.566406 403.308594 293.410156 391.40625 297.269531 381.28125 C 297.644531 368.714844 296.582031 356.164062 289.800781 343.617188"/></g><g><path fill="#ede8e0" d="M 249.425781 347.074219 C 248.125 364.09375 254.984375 381.644531 255.421875 398.773438 C 256.632812 400.773438 258.925781 401.851562 263.019531 395.558594 C 266.726562 389.882812 267.089844 379.878906 266.621094 371.667969 C 262.910156 362.691406 258.195312 354.109375 249.425781 347.074219"/></g><g><path fill="#555c5e" d="M 246.234375 409.070312 C 226.222656 412.28125 206.742188 417.578125 187.382812 422.464844 C 190.878906 450.695312 212.757812 546.179688 212.757812 546.179688 C 201.65625 551.300781 202.730469 579.390625 207.484375 583.183594 C 212.234375 586.984375 226.03125 585.132812 226.03125 585.132812 C 231.953125 590.191406 247.578125 586.324219 247.578125 586.324219 C 249.953125 588.238281 267.347656 591.667969 272.472656 582.085938 C 277.21875 573.203125 250.304688 430.472656 246.234375 409.070312"/></g><g><path fill="#e2dbce" d="M 264.464844 513.308594 C 264.144531 513.453125 263.800781 513.539062 263.421875 513.539062 C 251.535156 517.5 239.648438 509.574219 234.695312 498.679688 C 233.703125 502.640625 236.675781 507.59375 235.6875 511.554688 C 227.761719 503.632812 228.753906 489.765625 216.867188 484.8125 C 217.859375 488.773438 220.828125 491.746094 219.839844 495.710938 C 215.609375 488.945312 209.933594 482.921875 202.816406 482.53125 C 201.621094 483.015625 200.390625 483.601562 199.113281 484.320312 C 205.804688 515.847656 212.757812 546.179688 212.757812 546.179688 C 201.65625 551.300781 202.730469 579.390625 207.484375 583.183594 C 212.234375 586.984375 226.03125 585.132812 226.03125 585.132812 C 231.953125 590.191406 247.578125 586.324219 247.578125 586.324219 C 249.953125 588.238281 267.347656 591.667969 272.472656 582.085938 C 274.75 577.824219 270.214844 546.65625 264.464844 513.308594"/></g><g clip-path="url(#b)"><g clip-path="url(#c)"><g clip-path="url(#d)"><path fill="url(#e)" d="M 265.566406 542.902344 L 203.554688 544.777344 L 204.308594 566.167969 L 266.320312 564.292969 Z M 265.566406 542.902344"/></g></g></g><g><path fill="#a5a397" d="M 220.78125 577.597656 C 223.144531 576.710938 224.816406 567.175781 225.660156 563.46875 C 226.734375 573.628906 228.160156 586.101562 244.023438 580.460938 C 248.453125 578.832031 249.898438 571.027344 250.636719 563.160156 C 249.214844 578.265625 255.367188 588.109375 269.914062 585.164062 C 263.085938 590.796875 249.652344 587.988281 247.578125 586.324219 C 247.578125 586.324219 231.953125 590.191406 226.03125 585.132812 C 226.03125 585.132812 212.234375 586.984375 207.484375 583.183594 C 205.863281 581.898438 204.679688 577.8125 204.25 572.792969 C 208.84375 578.128906 215.761719 580.105469 220.78125 577.597656"/></g><g><path fill="#464c4e" d="M 247.214844 408.914062 C 246.558594 409.019531 272.082031 557.027344 272.082031 577.546875 C 272.082031 579.613281 271.929688 581.003906 271.597656 581.617188 C 270.101562 584.421875 267.304688 586.257812 263.289062 587.074219 C 256.949219 588.363281 249.511719 586.613281 248.199219 585.554688 C 247.960938 585.359375 247.640625 585.289062 247.339844 585.363281 C 247.191406 585.402344 232.140625 589.046875 226.675781 584.378906 C 226.464844 584.195312 226.179688 584.113281 225.902344 584.152344 C 222.179688 584.652344 211.726562 585.308594 208.105469 582.410156 C 206.429688 581.074219 205.058594 575.285156 205.058594 568.492188 C 205.058594 566.574219 205.167969 564.574219 205.410156 562.574219 C 206.382812 554.554688 209.210938 548.90625 213.175781 547.078125 C 213.53125 546.914062 213.75 546.558594 213.75 546.179688 C 213.75 546.105469 213.742188 546.03125 213.726562 545.957031 C 205.425781 509.738281 187.066406 422.542969 186.4375 422.703125 C 189.839844 450.027344 209.507812 536.402344 211.640625 545.722656 C 205.929688 548.972656 204.039062 557.421875 203.445312 562.335938 C 203.207031 564.289062 203.089844 566.375 203.089844 568.453125 C 203.089844 575.226562 204.347656 581.945312 206.867188 583.957031 C 211.527344 587.6875 223.636719 586.421875 225.824219 586.15625 C 231.792969 590.640625 244.902344 587.957031 247.414062 587.382812 C 249.863281 588.804688 257.378906 590.300781 263.683594 589.015625 C 268.304688 588.074219 271.558594 585.902344 273.347656 582.554688 C 278.285156 573.308594 252.214844 435.113281 247.214844 408.914062"/></g><g><path fill="#555c5e" d="M 297.421875 408.46875 C 292.683594 431.71875 264.121094 573.273438 268.835938 582.085938 C 273.957031 591.667969 291.351562 588.238281 293.722656 586.324219 C 293.722656 586.324219 309.347656 590.191406 315.277344 585.132812 C 315.277344 585.132812 329.070312 586.984375 333.820312 583.183594 C 338.578125 579.390625 339.644531 551.300781 328.550781 546.179688 C 328.550781 546.179688 348.957031 457.132812 353.503906 425.597656 C 338.980469 412.25 316.300781 413.300781 297.421875 408.46875"/></g><g><path fill="#e2dbce" d="M 339.519531 482.96875 C 333.050781 482.621094 326.9375 486.839844 322.847656 491.746094 C 321.855469 488.773438 324.828125 486.796875 325.820312 483.824219 C 315.914062 488.773438 313.933594 501.652344 303.039062 506.605469 C 305.019531 504.625 306.011719 502.640625 306.011719 499.671875 C 299.046875 506.632812 286.730469 515.886719 277.796875 509.289062 C 277.710938 509.285156 277.625 509.28125 277.539062 509.277344 C 271.46875 544.105469 266.460938 577.652344 268.835938 582.085938 C 273.957031 591.667969 291.351562 588.238281 293.722656 586.324219 C 293.722656 586.324219 309.347656 590.191406 315.277344 585.132812 C 315.277344 585.132812 329.070312 586.984375 333.820312 583.183594 C 338.578125 579.390625 339.644531 551.300781 328.550781 546.179688 C 328.550781 546.179688 335.496094 515.847656 342.199219 484.320312 C 341.28125 483.804688 340.390625 483.359375 339.519531 482.96875"/></g><g clip-path="url(#f)"><g clip-path="url(#g)"><g clip-path="url(#h)"><path fill="url(#i)" d="M 275.945312 540.96875 L 338.472656 544.84375 L 336.789062 568.101562 L 274.261719 564.226562 Z M 275.945312 540.96875"/></g></g></g><g><path fill="#a5a397" d="M 320.53125 577.597656 C 318.171875 576.710938 316.488281 567.175781 315.640625 563.46875 C 314.570312 573.628906 313.144531 586.101562 297.289062 580.460938 C 292.847656 578.832031 291.40625 571.027344 290.664062 563.160156 C 292.09375 578.265625 285.933594 588.109375 271.386719 585.164062 C 278.21875 590.796875 291.652344 587.988281 293.722656 586.324219 C 293.722656 586.324219 309.347656 590.191406 315.277344 585.132812 C 315.277344 585.132812 329.070312 586.984375 333.820312 583.183594 C 335.433594 581.898438 336.625 577.8125 337.0625 572.792969 C 332.457031 578.128906 325.539062 580.105469 320.53125 577.597656"/></g><g><path fill="#464c4e" d="M 327.585938 545.957031 C 327.566406 546.03125 327.558594 546.105469 327.558594 546.179688 C 327.558594 546.558594 327.777344 546.914062 328.136719 547.078125 C 332.097656 548.910156 334.929688 554.566406 335.898438 562.59375 C 336.140625 564.589844 336.246094 566.578125 336.246094 568.492188 C 336.246094 575.285156 334.878906 581.074219 333.203125 582.410156 C 329.578125 585.308594 319.128906 584.652344 315.410156 584.152344 C 315.128906 584.113281 314.847656 584.195312 314.636719 584.378906 C 309.160156 589.046875 294.109375 585.402344 293.960938 585.363281 C 293.65625 585.289062 293.34375 585.359375 293.101562 585.554688 C 291.789062 586.609375 284.363281 588.363281 278.023438 587.078125 C 274.003906 586.257812 271.207031 584.421875 269.707031 581.617188 C 269.398438 581.046875 269.253906 579.796875 269.253906 577.949219 C 269.253906 558.195312 297.09375 408.394531 296.460938 408.222656 C 293.53125 422.535156 284.15625 467.078125 276.953125 507.429688 C 270.324219 544.589844 265.601562 578.144531 267.960938 582.554688 C 269.753906 585.902344 273.003906 588.078125 277.632812 589.015625 C 283.9375 590.296875 291.441406 588.800781 293.886719 587.382812 C 296.398438 587.957031 309.511719 590.640625 315.488281 586.15625 C 317.671875 586.421875 329.78125 587.6875 334.441406 583.957031 C 336.960938 581.949219 338.21875 575.226562 338.21875 568.453125 C 338.21875 566.382812 338.101562 564.304688 337.863281 562.359375 C 337.269531 557.4375 335.382812 548.976562 329.671875 545.722656 C 331.714844 536.792969 349.863281 457.078125 354.367188 426.402344 C 353.800781 425.847656 335.578125 511.070312 327.585938 545.957031"/></g><g><path fill="#e2dbce" d="M 430.710938 491.71875 C 430.710938 491.71875 447.121094 483.109375 446.730469 499.394531 C 446.347656 515.652344 378.460938 603.976562 353.144531 583.171875 C 327.828125 562.363281 376.710938 486.613281 393.691406 474.773438 C 410.675781 462.949219 409.933594 482.878906 409.933594 482.878906 C 409.933594 482.878906 424.691406 468.65625 432.203125 471.65625 C 439.730469 474.660156 430.710938 491.71875 430.710938 491.71875"/></g><g><path fill="#bdb9ad" d="M 402.066406 498.355469 C 411.925781 488.40625 423.539062 472.503906 429.71875 483.066406 C 429.507812 491.671875 421.179688 504.265625 416.152344 513.542969 C 426.363281 507.007812 433.160156 486.828125 446.683594 497.972656 C 446.542969 483.78125 432.777344 490.621094 430.710938 491.71875 C 430.710938 491.71875 439.730469 474.660156 432.203125 471.65625 C 424.691406 468.65625 409.933594 482.878906 409.933594 482.878906 C 409.933594 482.878906 410.339844 471.539062 403.21875 471.074219 C 408.664062 476.410156 410.21875 486.003906 402.066406 498.355469"/></g><g><path fill="#bdb9ad" d="M 413.09375 551.019531 C 394.996094 567.34375 377.128906 578.945312 362.933594 574.546875 C 348.914062 570.207031 350.609375 544.589844 360.390625 520.03125 C 347.476562 544.597656 339.472656 571.910156 353.144531 583.171875 C 369.816406 596.882812 391.183594 575.46875 413.09375 551.019531"/></g><g><path fill="#464c4e" d="M 393.128906 473.960938 C 378.820312 483.933594 346.234375 533.714844 345.054688 563.4375 C 344.691406 572.671875 347.199219 579.570312 352.519531 583.9375 C 357.902344 588.363281 365.335938 588.449219 374.609375 584.199219 C 404.921875 570.3125 447.402344 512.933594 447.71875 499.417969 C 447.835938 494.597656 446.535156 491.308594 443.859375 489.644531 C 440.410156 487.503906 435.628906 488.699219 432.742188 489.769531 C 434.105469 486.753906 436.183594 481.472656 436.183594 477.148438 C 436.183594 476.003906 436.039062 474.929688 435.691406 473.984375 C 435.117188 472.429688 434.070312 471.335938 432.570312 470.738281 C 426.003906 468.113281 414.960938 477.058594 410.847656 480.699219 C 410.617188 477.785156 409.703125 472.808594 406.101562 470.84375 C 402.941406 469.117188 398.578125 470.164062 393.128906 473.960938 Z M 353.773438 582.410156 C 348.964844 578.453125 346.695312 572.097656 347.035156 563.515625 C 348.257812 532.644531 381.9375 484.175781 394.261719 475.585938 C 399.039062 472.257812 402.703125 471.246094 405.148438 472.578125 C 409.183594 474.777344 408.945312 482.761719 408.941406 482.84375 C 408.925781 483.246094 409.160156 483.617188 409.527344 483.785156 C 409.894531 483.949219 410.328125 483.871094 410.617188 483.59375 C 414.597656 479.761719 426.164062 470.3125 431.839844 472.578125 C 432.804688 472.964844 433.453125 473.644531 433.832031 474.667969 C 435.4375 479.03125 431.488281 488.121094 429.835938 491.257812 C 429.628906 491.640625 429.703125 492.109375 430.007812 492.417969 C 430.3125 492.726562 430.785156 492.796875 431.167969 492.597656 C 431.242188 492.558594 438.652344 488.738281 442.816406 491.332031 C 444.851562 492.597656 445.835938 495.304688 445.738281 499.371094 C 445.59375 505.449219 434.929688 523.050781 420.925781 540.3125 C 404.121094 561.03125 386.941406 576.371094 373.785156 582.398438 C 365.257812 586.308594 358.523438 586.308594 353.773438 582.410156 Z M 410.921875 482.878906 C 410.921875 482.878906 410.921875 482.902344 410.921875 482.914062 C 410.921875 482.910156 410.921875 482.882812 410.921875 482.878906"/></g><g><path fill="#dc9c9c" d="M 392.546875 550.195312 C 381.960938 564.351562 368.640625 571.945312 362.804688 567.128906 C 356.964844 562.34375 360.796875 546.976562 371.386719 532.839844 C 381.980469 518.691406 395.300781 511.109375 401.144531 515.894531 C 406.976562 520.691406 403.128906 536.054688 392.546875 550.195312"/></g><g><path fill="#e2dbce" d="M 90.722656 469.957031 C 90.722656 469.957031 87.914062 473.871094 99.863281 477.777344 C 111.804688 481.671875 156.085938 489.476562 173.660156 506.394531 C 191.230469 523.304688 188.414062 529.808594 188.414062 529.808594 C 188.414062 529.808594 205.992188 542.832031 211.621094 567.550781 C 217.238281 592.265625 224.261719 626.097656 213.019531 623.496094 C 213.019531 623.496094 213.019531 633.910156 189.121094 620.902344 C 165.222656 607.878906 151.875 613.085938 124.460938 609.183594 C 97.046875 605.277344 48.550781 607.230469 22.539062 578.613281 C -3.460938 549.980469 -6.738281 493.640625 42.929688 465.410156 C 87.5625 440.035156 106.179688 461.507812 90.722656 469.957031"/></g><g><path fill="#555c5e" d="M 204.980469 616.546875 C 190.125 585.839844 160.410156 563.058594 126.734375 562.070312 C 135.648438 556.128906 146.546875 555.136719 157.4375 557.117188 C 135.648438 533.347656 101.972656 528.394531 71.269531 529.386719 C 78.203125 521.460938 90.085938 524.433594 98.011719 519.480469 C 81.171875 512.546875 59.382812 519.480469 46.507812 504.625 C 40.5625 498.679688 39.574219 489.765625 42.542969 481.84375 C 47.839844 471.914062 55.789062 461.992188 65.503906 455.613281 C 58.957031 457.460938 51.414062 460.589844 42.929688 465.410156 C -6.738281 493.640625 -3.460938 549.980469 22.539062 578.613281 C 48.550781 607.230469 97.046875 605.277344 124.460938 609.183594 C 151.875 613.085938 165.222656 607.878906 189.121094 620.902344 C 209.570312 632.03125 212.519531 626.015625 212.945312 624.046875 C 209.519531 622.238281 206.636719 619.851562 204.980469 616.546875"/></g><g><path fill="#494f51" d="M 63.34375 581.878906 C 58.394531 580.890625 51.460938 577.917969 52.449219 572.964844 C 54.429688 566.03125 66.316406 565.042969 70.277344 558.109375 C 57.402344 559.097656 42.542969 562.070312 30.660156 554.144531 C 10.851562 541.269531 15.800781 518.488281 20.753906 497.691406 C 23.207031 487.261719 27.949219 477.601562 35.195312 470.339844 C -6.296875 499.78125 -2.027344 551.558594 22.539062 578.613281 C 48.550781 607.230469 97.046875 605.277344 124.460938 609.183594 C 151.875 613.085938 165.222656 607.878906 189.121094 620.902344 C 192.980469 623.003906 196.21875 624.492188 198.929688 625.515625 C 170.527344 583.488281 109.273438 592.902344 63.34375 581.878906"/></g><g><path fill="#ede8e0" d="M 68.152344 486.066406 C 90.917969 517.941406 141 499.722656 168.320312 531.59375 C 172.871094 540.703125 154.664062 536.148438 154.664062 536.148438 C 163.765625 554.367188 191.089844 563.46875 200.191406 586.230469 C 204.742188 522.484375 136.445312 495.175781 81.808594 481.511719 C 76.941406 481.511719 77.300781 476.289062 79.363281 469.363281 C 68.476562 473.675781 60.546875 478.464844 68.152344 486.066406"/></g><g><path fill="#464c4e" d="M 212.585938 567.328125 C 207.453125 544.789062 192.347656 531.707031 189.507812 529.414062 C 189.546875 529.171875 189.589844 528.921875 189.589844 528.5625 C 189.589844 525.59375 187.699219 518.527344 174.347656 505.679688 C 160.285156 492.144531 129.691406 484.445312 111.410156 479.847656 C 106.519531 478.617188 102.65625 477.644531 100.171875 476.835938 C 93.53125 474.664062 91.914062 472.632812 91.539062 471.609375 C 91.453125 471.382812 91.425781 471.183594 91.425781 471.023438 C 91.425781 470.832031 91.460938 470.710938 91.496094 470.625 C 93.699219 469.355469 95.324219 467.753906 96.234375 465.984375 C 94.039062 467.203125 91.640625 468.324219 90.246094 469.085938 C 90.117188 469.160156 90.003906 469.257812 89.917969 469.378906 C 89.832031 469.496094 89.109375 470.570312 89.632812 472.15625 C 90.4375 474.621094 93.777344 476.828125 99.558594 478.71875 C 102.105469 479.550781 106 480.527344 110.929688 481.769531 C 129.015625 486.320312 159.292969 493.9375 172.972656 507.109375 C 189.535156 523.042969 187.515625 529.382812 187.496094 529.445312 C 187.347656 529.855469 187.476562 530.347656 187.824219 530.605469 C 187.996094 530.734375 205.179688 543.722656 210.65625 567.769531 C 213.953125 582.273438 221.675781 616.242188 215.976562 621.917969 C 215.28125 622.605469 214.414062 622.800781 213.242188 622.53125 C 212.953125 622.464844 212.648438 622.535156 212.414062 622.71875 C 212.175781 622.902344 212.035156 623.1875 212.027344 623.484375 C 212.027344 623.542969 211.980469 624.945312 210.527344 625.78125 C 208.652344 626.867188 203.433594 627.5625 189.59375 620.03125 C 173.238281 611.117188 161.902344 610.644531 147.550781 610.046875 C 140.933594 609.773438 133.433594 609.460938 124.601562 608.203125 C 119.320312 607.449219 113.222656 606.910156 106.769531 606.339844 C 78.820312 603.867188 44.039062 600.792969 23.273438 577.945312 C 9.117188 562.355469 2.449219 539.351562 5.871094 517.910156 C 8.296875 502.710938 16.78125 481.414062 43.417969 466.273438 C 54.058594 460.222656 63.21875 456.84375 70.761719 455.339844 C 74.003906 454.695312 77.984375 453.585938 81.976562 452.507812 C 72.683594 451.953125 59.304688 454.964844 42.441406 464.554688 C 15.121094 480.078125 6.410156 501.96875 3.914062 517.597656 C 0.398438 539.617188 7.253906 563.253906 21.808594 579.277344 C 43.09375 602.699219 79.792969 605.945312 106.59375 608.3125 C 113.019531 608.882812 119.09375 609.417969 124.320312 610.164062 C 133.25 611.433594 140.804688 611.75 147.46875 612.027344 C 161.5625 612.613281 172.691406 613.078125 188.648438 621.773438 C 199.90625 627.898438 207.621094 629.8125 211.578125 627.460938 C 213.015625 626.609375 213.5625 625.441406 213.804688 624.582031 C 215.519531 624.691406 216.683594 624.007812 217.371094 623.320312 C 219.214844 621.488281 220.023438 617.832031 220.023438 612.621094 C 220.023438 602.617188 217.03125 586.882812 212.585938 567.328125"/></g><g><path fill="#555c5e" d="M 418.804688 216.34375 C 419.019531 208.804688 405.734375 197.71875 401.382812 188.433594 C 401.382812 188.433594 409.449219 192.058594 409.671875 184.519531 C 409.886719 176.980469 397.949219 160.339844 391.796875 144.917969 C 387.449219 133.996094 383.203125 119.707031 379.492188 106.070312 C 380.335938 102.226562 377.636719 82.84375 374.308594 65.292969 C 370.109375 42.984375 361.769531 19.144531 342.597656 5.738281 C 323.421875 -7.65625 305.550781 60.394531 303.109375 69.179688 C 303.109375 69.179688 261.578125 65.796875 239.679688 71.128906 C 239.679688 71.128906 213.78125 7.523438 199.160156 9.941406 C 184.546875 12.347656 176.453125 29.609375 168.972656 47.398438 C 159.191406 70.683594 155.113281 112.96875 155.113281 112.96875 C 155.113281 112.96875 147.554688 140.734375 140.960938 159.261719 C 134.367188 177.792969 110.863281 210.738281 111.609375 217.207031 C 112.355469 223.660156 122.6875 218.53125 122.6875 218.53125 C 122.6875 218.53125 117.734375 226.078125 113.53125 240.4375 C 110.402344 251.121094 112.183594 253.9375 115.410156 253.535156 C 118.632812 253.144531 126.914062 247.679688 126.914062 247.679688 C 126.914062 247.679688 119.371094 259.523438 117.613281 275.707031 C 115.847656 291.886719 118.980469 303.21875 121.90625 301.84375 C 124.84375 300.488281 128.660156 292.734375 128.660156 292.734375 C 128.660156 292.734375 130.761719 315.515625 137.738281 320.925781 C 144.722656 326.328125 148.378906 323.445312 146.378906 315.425781 C 146.378906 315.425781 163.699219 323.789062 183.707031 330.214844 C 203.707031 336.636719 224.667969 340.339844 245.773438 348.433594 C 266.878906 356.554688 285.539062 357.679688 302.925781 350.894531 C 320.308594 344.109375 347.207031 326.847656 368.707031 319.558594 C 390.214844 312.257812 404.882812 311.863281 404.882812 311.863281 C 404.882812 311.863281 400.886719 319.628906 405.378906 320.898438 C 409.886719 322.164062 416.953125 307.746094 416.953125 307.746094 C 416.953125 307.746094 423.089844 315.277344 424.632812 306.59375 C 426.171875 297.910156 423.726562 282.046875 423.726562 282.046875 C 423.726562 282.046875 429.378906 283.167969 428.875 269.496094 C 428.390625 255.808594 423.21875 236.226562 412.402344 221.203125 C 412.402344 221.203125 418.585938 223.875 418.804688 216.34375"/></g><g><path fill="#494f51" d="M 428.875 269.496094 C 428.390625 255.808594 423.21875 236.226562 412.402344 221.203125 C 412.402344 221.203125 418.585938 223.875 418.804688 216.34375 C 419.019531 208.804688 405.734375 197.71875 401.382812 188.433594 C 401.382812 188.433594 409.449219 192.058594 409.671875 184.519531 C 409.886719 176.980469 397.949219 160.339844 391.796875 144.917969 C 391.710938 144.703125 391.625 144.480469 391.539062 144.265625 C 391.878906 155.679688 393.097656 167.089844 396.140625 178.761719 C 396.140625 179.75 392.179688 179.75 389.210938 179.75 C 394.160156 192.625 404.066406 201.539062 409.019531 213.425781 C 410.007812 215.40625 403.074219 213.425781 405.054688 215.40625 C 415.953125 231.253906 424.867188 249.082031 420.902344 267.902344 C 420.902344 268.890625 415.953125 265.921875 415.953125 266.910156 C 412.980469 276.816406 421.894531 286.722656 416.941406 294.644531 C 413.972656 299.597656 411.988281 304.550781 410.007812 309.5 C 405.054688 307.519531 410.007812 302.566406 408.027344 299.597656 C 404.066406 301.578125 402.085938 305.539062 399.113281 308.511719 C 397.660156 310.253906 396.039062 311.734375 394.296875 313.066406 C 400.992188 311.972656 404.882812 311.863281 404.882812 311.863281 C 404.882812 311.863281 400.886719 319.628906 405.378906 320.898438 C 409.886719 322.164062 416.953125 307.746094 416.953125 307.746094 C 416.953125 307.746094 423.089844 315.277344 424.632812 306.59375 C 426.171875 297.910156 423.726562 282.046875 423.726562 282.046875 C 423.726562 282.046875 429.378906 283.167969 428.875 269.496094"/></g><g><path fill="#494f51" d="M 139.609375 314.453125 C 129.707031 305.539062 142.582031 286.722656 128.714844 279.785156 C 116.828125 274.835938 141.59375 255.023438 130.695312 241.160156 C 128.714844 238.1875 122.773438 244.128906 121.78125 242.148438 C 116.828125 227.292969 136.640625 217.386719 140.601562 202.53125 C 132.679688 206.492188 125.746094 220.359375 119.800781 213.425781 C 117.445312 210.679688 116.964844 206.992188 117.664062 202.996094 C 113.917969 209.726562 111.355469 215.003906 111.609375 217.207031 C 112.355469 223.660156 122.6875 218.53125 122.6875 218.53125 C 122.6875 218.53125 117.734375 226.078125 113.53125 240.4375 C 110.402344 251.121094 112.183594 253.9375 115.410156 253.535156 C 118.632812 253.144531 126.914062 247.679688 126.914062 247.679688 C 126.914062 247.679688 119.371094 259.523438 117.613281 275.707031 C 115.847656 291.886719 118.980469 303.21875 121.90625 301.84375 C 124.84375 300.488281 128.660156 292.734375 128.660156 292.734375 C 128.660156 292.734375 130.761719 315.515625 137.738281 320.925781 C 144.722656 326.328125 148.378906 323.445312 146.378906 315.425781 C 146.378906 315.425781 156.097656 320.117188 169.386719 325.175781 C 162.277344 313.382812 151.695312 301.503906 139.609375 314.453125"/></g><g><path fill="#494f51" d="M 310.964844 211.445312 C 301.058594 190.644531 307 165.882812 306.011719 143.101562 C 284.21875 171.828125 281.84375 214.765625 287.785156 248.441406 C 288.777344 250.421875 300.519531 248.972656 307.453125 252.441406 C 290.613281 273.242188 304.027344 325.679688 277.285156 325.347656 C 274.316406 329.308594 265.730469 328.320312 261.769531 322.378906 C 247.902344 301.578125 252.261719 268.613281 232.453125 251.773438 C 238.394531 250.785156 251.5 247.785156 256.453125 248.773438 C 257.367188 214.957031 256.5625 175.847656 233.222656 148.640625 C 239.824219 170.867188 236.792969 194.882812 230.734375 217.386719 C 224.789062 238.1875 200.03125 232.246094 182.199219 230.265625 C 184.183594 233.234375 184.675781 240.664062 186.65625 242.644531 C 209.4375 262.453125 221.820312 285.730469 233.703125 311.480469 C 239.648438 323.367188 248.5625 334.261719 260.449219 338.222656 C 271.34375 342.1875 286.199219 346.148438 293.132812 334.261719 C 308.980469 307.519531 312.941406 264.929688 350.578125 261.957031 C 365.4375 260.96875 369.398438 242.148438 372.371094 228.28125 C 351.570312 242.148438 319.875 232.246094 310.964844 211.445312"/></g><g><path fill="#494f51" d="M 284.65625 109.035156 C 283.34375 97.644531 291.777344 89.671875 298.15625 81.9375 C 288.183594 85.488281 278.195312 89.027344 274.390625 101.054688 C 270.390625 93.453125 273.570312 84.980469 269.570312 77.371094 C 270.632812 86.503906 263.222656 94.339844 264.269531 103.457031 C 258.492188 98.390625 256.421875 89.398438 247.828125 86.984375 C 250.929688 95.855469 255.0625 104.59375 257.128906 113.589844 C 250.335938 108.648438 243.386719 102.558594 234.175781 103.699219 C 246.730469 110.558594 266.730469 129.15625 268.554688 158.40625 C 268.328125 129.535156 291.074219 110.558594 313.835938 100.820312 C 303.199219 98.664062 293.351562 103.351562 284.65625 109.035156"/></g><g><path fill="#e2dbce" d="M 408.679688 285.175781 C 408.296875 279.429688 396.554688 272.65625 396.554688 272.65625 C 396.554688 272.65625 396.503906 267.703125 401.890625 260.941406 C 407.28125 254.179688 400.269531 241.824219 400.269531 241.824219 C 408.074219 245.25 410.65625 238.578125 410.65625 238.578125 C 409.460938 233.679688 405.726562 227.929688 400.683594 222.394531 C 393.121094 204.367188 382.496094 193.945312 373.605469 180.375 C 366.402344 169.378906 354.589844 140.0625 344.539062 135.03125 C 333.453125 129.929688 327.3125 143.421875 322.101562 142.488281 C 322.101562 142.488281 315.902344 124.054688 307.808594 127.828125 C 304.214844 129.140625 291.980469 182.800781 294.671875 202.859375 C 298.425781 223.496094 301.316406 239.496094 318.347656 247.507812 C 333.117188 254.203125 341.742188 257.671875 324.601562 258.433594 C 319.117188 258.679688 310.804688 265.035156 310.347656 266.507812 C 301.972656 293.507812 306.363281 330.464844 278.613281 337.179688 C 255.859375 342.816406 243.683594 293.851562 234.597656 268.945312 C 234.230469 267.941406 230.769531 263.945312 227.121094 261.109375 C 223.472656 258.269531 219.636719 256.585938 214.398438 255.566406 C 206.753906 254.082031 220.34375 250.167969 230.84375 245.601562 C 233.578125 244.414062 235.863281 242.949219 237.515625 241.375 C 261.007812 218.035156 232.21875 132.496094 227.15625 131.34375 C 208.683594 129.078125 211.71875 152.523438 209.394531 149.585938 C 192.695312 128.609375 184.441406 139.496094 172.523438 167.792969 C 164.980469 185.734375 157.121094 199.433594 151.652344 211.675781 C 142.085938 233.148438 137.597656 256.304688 140.019531 264.265625 C 142.433594 272.230469 146.769531 266.285156 146.769531 266.285156 C 144.144531 280.703125 147.878906 300.503906 153.59375 300.175781 C 159.304688 299.859375 160.699219 295.132812 160.699219 295.132812 C 164.503906 309.148438 179.816406 324.472656 186.09375 329.996094 C 204.632812 335.054688 223.695312 340.40625 243.015625 347.480469 C 265.203125 355.613281 284.859375 356.605469 303.242188 349.507812 C 321.625 342.386719 350.105469 324.464844 372.835938 316.796875 C 373.820312 316.46875 374.796875 316.136719 375.761719 315.839844 C 380.996094 312.027344 386.9375 307.871094 391.496094 305.308594 C 401.601562 299.601562 400.941406 289.199219 400.941406 289.199219 C 400.941406 289.199219 409.066406 290.929688 408.679688 285.175781"/></g><g><path fill="#c9c3ab" d="M 410.65625 238.578125 C 409.460938 233.679688 405.726562 227.929688 400.683594 222.394531 C 393.121094 204.367188 382.496094 193.945312 373.605469 180.375 C 366.402344 169.378906 354.589844 140.0625 344.539062 135.03125 C 344.492188 135.011719 344.449219 134.996094 344.398438 134.976562 C 352.09375 157.019531 362.226562 177.839844 377.265625 195.597656 C 372.5 194.605469 367.734375 194.605469 362.96875 194.605469 C 372.5 209.464844 394.421875 218.378906 391.558594 240.167969 C 389.652344 235.214844 385.84375 233.234375 382.03125 230.265625 C 394.421875 256.015625 388.699219 285.730469 372.5 308.511719 C 367.734375 314.453125 359.15625 322.378906 355.347656 317.425781 C 343.910156 303.558594 365.828125 289.691406 372.5 276.816406 C 342.957031 280.777344 325.800781 311.480469 318.179688 338.222656 C 317.234375 340.683594 315.585938 342.652344 314.046875 344.738281 C 331.679688 336.273438 354.191406 323.089844 372.835938 316.796875 C 373.820312 316.46875 374.796875 316.136719 375.761719 315.839844 C 380.996094 312.027344 386.9375 307.871094 391.496094 305.308594 C 401.601562 299.601562 400.941406 289.199219 400.941406 289.199219 C 400.941406 289.199219 409.066406 290.929688 408.679688 285.175781 C 408.296875 279.429688 396.554688 272.65625 396.554688 272.65625 C 396.554688 272.65625 396.503906 267.703125 401.890625 260.941406 C 407.28125 254.179688 400.269531 241.824219 400.269531 241.824219 C 408.074219 245.25 410.65625 238.578125 410.65625 238.578125"/></g><g><path fill="#c9c3ab" d="M 184.757812 292.664062 C 187.617188 300.585938 197.148438 305.539062 197.148438 315.445312 C 187.617188 311.480469 174.59375 307.191406 168.875 297.285156 C 158.394531 282.429688 163.792969 266.25 169.511719 247.101562 C 165.699219 250.074219 160.933594 253.042969 159.027344 257.996094 C 159.027344 235.214844 166.652344 214.417969 179.992188 196.589844 C 175.230469 200.550781 170.464844 202.53125 164.746094 205.503906 C 176.183594 186.683594 179.039062 163.902344 187.617188 144.09375 C 189.636719 139.894531 194.035156 139.652344 198.792969 139.871094 C 188.582031 134.765625 181.617188 146.195312 172.523438 167.792969 C 164.980469 185.734375 157.121094 199.433594 151.652344 211.675781 C 142.085938 233.148438 137.597656 256.304688 140.019531 264.265625 C 142.433594 272.230469 146.769531 266.285156 146.769531 266.285156 C 144.144531 280.703125 147.878906 300.503906 153.59375 300.175781 C 159.304688 299.859375 160.699219 295.132812 160.699219 295.132812 C 164.503906 309.148438 179.816406 324.472656 186.09375 329.996094 C 204.632812 335.054688 223.695312 340.40625 243.015625 347.480469 C 244.527344 348.035156 246.027344 348.550781 247.515625 349.035156 C 232.253906 323.074219 216.058594 291.734375 184.757812 292.664062"/></g><g><path fill="#464c4e" d="M 429.898438 271.164062 C 429.898438 270.613281 429.886719 270.046875 429.863281 269.460938 C 429.441406 257.5 425.09375 238.386719 414.507812 222.632812 C 415.414062 222.667969 416.433594 222.527344 417.359375 221.9375 C 418.898438 220.960938 419.714844 219.085938 419.796875 216.371094 C 419.796875 216.371094 419.800781 216.230469 419.800781 216.160156 C 419.800781 211.414062 415.296875 205.800781 410.539062 199.859375 C 407.914062 196.585938 405.265625 193.234375 403.414062 190.074219 C 404.910156 190.375 406.804688 190.46875 408.316406 189.519531 C 409.800781 188.59375 410.589844 186.917969 410.660156 184.546875 C 410.664062 184.472656 410.664062 184.394531 410.664062 184.316406 C 410.664062 179.617188 406.644531 172.132812 402.003906 163.484375 C 398.835938 157.574219 395.242188 150.878906 392.714844 144.550781 C 389.046875 135.335938 385.050781 122.714844 380.5 105.992188 C 380.582031 105.476562 380.632812 104.8125 380.632812 103.957031 C 380.632812 97.039062 378.070312 79.8125 375.28125 65.109375 C 369.777344 35.875 359.273438 16.191406 343.164062 4.929688 C 340.324219 2.941406 337.34375 2.492188 334.304688 3.59375 C 321.261719 8.300781 309.789062 41.113281 302.460938 67.8125 C 302.460938 67.8125 302.40625 68 302.371094 68.132812 C 296.5625 67.707031 260.574219 65.34375 240.28125 69.988281 C 236.425781 60.621094 213.503906 6.566406 199 8.964844 C 184.171875 11.40625 175.90625 28.355469 168.0625 47.015625 C 158.429688 69.945312 154.257812 111.558594 154.136719 112.789062 C 153.867188 113.78125 146.445312 140.894531 140.027344 158.925781 C 136.820312 167.9375 129.5 180.53125 123.039062 191.636719 C 115.386719 204.796875 110.601562 213.214844 110.601562 216.902344 C 110.601562 217.050781 110.609375 217.1875 110.625 217.320312 C 110.863281 219.371094 111.941406 220.363281 112.808594 220.832031 C 114.949219 221.992188 118.109375 221.3125 120.382812 220.542969 C 118.585938 223.855469 115.441406 230.382812 112.582031 240.160156 C 111.460938 243.984375 110.902344 246.972656 110.902344 249.222656 C 110.902344 251.089844 111.289062 252.449219 112.058594 253.355469 C 112.617188 254.015625 113.675781 254.75 115.53125 254.519531 C 117.625 254.265625 121.410156 252.210938 124.171875 250.5625 C 121.78125 255.238281 117.851562 264.328125 116.628906 275.597656 C 116.265625 278.910156 116.105469 282.03125 116.105469 284.894531 C 116.105469 294.28125 117.855469 300.898438 120.09375 302.492188 C 120.800781 302.996094 121.59375 303.085938 122.328125 302.742188 C 124.363281 301.800781 126.59375 298.453125 128.039062 295.964844 C 128.898438 302.492188 131.425781 317.285156 137.132812 321.710938 C 141.824219 325.339844 144.503906 324.996094 145.925781 324.066406 C 147.238281 323.210938 147.910156 321.566406 147.910156 319.300781 C 147.910156 318.636719 147.839844 317.914062 147.726562 317.152344 C 152.652344 319.433594 167.226562 325.960938 183.40625 331.15625 C 191.546875 333.773438 200.019531 335.984375 208.21875 338.121094 C 208.996094 338.324219 209.78125 338.527344 210.566406 338.734375 C 209.210938 337.554688 207.722656 336.542969 206.273438 335.5625 C 198.632812 333.566406 191.316406 331.617188 184.011719 329.269531 C 164.304688 322.941406 146.980469 314.617188 146.808594 314.53125 C 146.464844 314.367188 146.050781 314.414062 145.753906 314.65625 C 145.453125 314.898438 145.324219 315.292969 145.414062 315.664062 C 146.269531 319.09375 146.058594 321.617188 144.84375 322.410156 C 143.632812 323.199219 141.199219 322.351562 138.34375 320.140625 C 131.789062 315.058594 129.667969 292.867188 129.648438 292.644531 C 129.605469 292.203125 129.277344 291.839844 128.839844 291.761719 C 128.40625 291.679688 127.96875 291.898438 127.773438 292.296875 C 126.355469 295.171875 123.398438 300.0625 121.492188 300.945312 C 121.441406 300.96875 121.398438 300.988281 121.246094 300.882812 C 119.453125 299.601562 117.035156 290.132812 118.597656 275.8125 C 120.308594 260.066406 127.675781 248.328125 127.75 248.214844 C 128 247.816406 127.941406 247.300781 127.609375 246.972656 C 127.273438 246.648438 126.757812 246.597656 126.367188 246.855469 C 124.117188 248.339844 117.742188 252.257812 115.292969 252.554688 C 114.226562 252.683594 113.796875 252.34375 113.566406 252.070312 C 112.894531 251.285156 112.125 248.761719 114.484375 240.71875 C 118.585938 226.691406 123.46875 219.148438 123.515625 219.074219 C 123.761719 218.699219 123.726562 218.207031 123.429688 217.871094 C 123.132812 217.539062 122.648438 217.445312 122.246094 217.644531 C 120.625 218.445312 115.933594 220.273438 113.75 219.089844 C 113.085938 218.726562 112.707031 218.074219 112.59375 217.089844 C 112.25 214.125 118.605469 203.199219 124.753906 192.632812 C 131.253906 181.449219 138.625 168.777344 141.894531 159.589844 C 148.421875 141.242188 155.996094 113.507812 156.070312 113.230469 C 156.085938 113.175781 156.097656 113.121094 156.101562 113.066406 C 156.140625 112.644531 160.273438 70.660156 169.886719 47.785156 C 177.507812 29.65625 185.492188 13.195312 199.320312 10.917969 C 210.675781 9.039062 231.640625 54.015625 238.761719 71.503906 C 238.945312 71.957031 239.4375 72.207031 239.914062 72.09375 C 261.40625 66.855469 302.617188 70.132812 303.03125 70.167969 C 303.503906 70.207031 303.9375 69.902344 304.0625 69.445312 L 304.371094 68.335938 C 314.554688 31.238281 325.425781 8.90625 334.976562 5.453125 C 337.410156 4.578125 339.714844 4.933594 342.03125 6.550781 C 357.691406 17.5 367.933594 36.777344 373.339844 65.476562 C 376.925781 84.417969 379.253906 102.53125 378.527344 105.859375 C 378.492188 106.015625 378.496094 106.175781 378.539062 106.332031 C 383.132812 123.21875 387.167969 135.960938 390.875 145.28125 C 393.441406 151.714844 397.066406 158.46875 400.261719 164.421875 C 404.652344 172.605469 408.800781 180.335938 408.679688 184.488281 C 408.632812 186.15625 408.15625 187.285156 407.269531 187.839844 C 405.640625 188.863281 402.761719 187.960938 401.789062 187.527344 C 401.410156 187.359375 400.96875 187.441406 400.679688 187.738281 C 400.492188 187.929688 400.394531 188.179688 400.394531 188.433594 C 400.394531 188.574219 400.425781 188.71875 400.488281 188.851562 C 402.332031 192.792969 405.71875 197.015625 408.992188 201.097656 C 413.332031 206.515625 417.820312 212.109375 417.820312 216.160156 C 417.820312 216.210938 417.816406 216.261719 417.816406 216.3125 C 417.757812 218.328125 417.246094 219.65625 416.304688 220.265625 C 414.894531 221.164062 412.8125 220.300781 412.792969 220.289062 C 412.382812 220.117188 411.90625 220.238281 411.628906 220.585938 C 411.351562 220.929688 411.339844 221.417969 411.597656 221.78125 C 422.929688 237.523438 427.453125 257.34375 427.886719 269.53125 C 428.15625 276.957031 426.539062 279.542969 425.554688 280.425781 C 424.707031 281.179688 423.929688 281.074219 423.898438 281.070312 C 423.585938 281.023438 423.257812 281.125 423.035156 281.347656 C 422.8125 281.570312 422.699219 281.882812 422.746094 282.195312 C 422.769531 282.351562 425.148438 298 423.660156 306.421875 C 423.3125 308.367188 422.695312 309.546875 421.921875 309.75 C 420.644531 310.082031 418.539062 308.121094 417.722656 307.121094 C 417.507812 306.859375 417.175781 306.726562 416.839844 306.765625 C 416.507812 306.800781 416.214844 307.007812 416.066406 307.308594 C 413.28125 312.988281 408.203125 320.664062 405.644531 319.945312 C 405.054688 319.777344 404.675781 319.46875 404.460938 318.96875 C 403.664062 317.144531 405.132812 313.546875 405.765625 312.316406 C 405.925781 312.007812 405.90625 311.632812 405.722656 311.335938 C 405.535156 311.042969 405.203125 310.863281 404.855469 310.875 C 404.710938 310.878906 389.789062 311.355469 368.386719 318.621094 C 360.558594 321.273438 352.144531 325.179688 343.640625 329.46875 C 342.425781 330.914062 340.964844 332.265625 339.691406 333.710938 C 349.765625 328.503906 359.828125 323.613281 369.023438 320.496094 C 386.117188 314.691406 398.976562 313.277344 403.316406 312.949219 C 402.824219 314.191406 402.253906 315.980469 402.253906 317.660156 C 402.253906 318.402344 402.367188 319.117188 402.640625 319.757812 C 403.09375 320.800781 403.945312 321.523438 405.105469 321.851562 C 409.5625 323.101562 415.105469 313.476562 417.199219 309.453125 C 418.398438 310.609375 420.449219 312.179688 422.421875 311.667969 C 424.03125 311.25 425.105469 309.601562 425.609375 306.769531 C 425.992188 304.613281 426.132812 302.054688 426.132812 299.40625 C 426.132812 292.71875 425.222656 285.554688 424.855469 282.953125 C 425.421875 282.828125 426.09375 282.570312 426.78125 281.980469 C 428.851562 280.222656 429.898438 276.585938 429.898438 271.164062 Z M 423.53125 283.015625 C 423.550781 283.019531 423.671875 283.023438 423.730469 283.03125 C 423.664062 283.03125 423.597656 283.027344 423.53125 283.015625"/></g><g><path fill="#e2dbce" d="M 170.382812 100.460938 C 170.382812 100.460938 180.339844 88.179688 196.167969 86.765625 C 196.167969 86.765625 188.652344 81.632812 190.46875 79.382812 C 194.765625 74.085938 208.824219 80.902344 208.824219 80.902344 C 208.824219 80.902344 203.203125 72.152344 206.996094 71.421875 C 210.789062 70.683594 217.738281 76.300781 217.738281 76.300781 C 217.738281 76.300781 211.160156 38.300781 198.601562 32.296875 C 186.035156 26.308594 170.382812 100.460938 170.382812 100.460938"/></g><g><path fill="#c9c4b9" d="M 208.824219 80.902344 C 208.824219 80.902344 203.203125 72.152344 206.996094 71.421875 C 210.789062 70.683594 217.738281 76.300781 217.738281 76.300781 C 217.738281 76.300781 211.160156 38.300781 198.601562 32.296875 C 196.3125 31.207031 193.929688 32.78125 191.546875 36.070312 C 199.28125 43.578125 200.5 58.886719 198.121094 70.101562 C 193.636719 69.03125 184.664062 66.890625 185.21875 71.671875 C 186.226562 80.363281 184.148438 85.671875 181.714844 91.367188 C 185.671875 89.15625 190.546875 87.269531 196.167969 86.765625 C 196.167969 86.765625 188.652344 81.632812 190.46875 79.382812 C 194.765625 74.085938 208.824219 80.902344 208.824219 80.902344"/></g><g><path fill="#e2dbce" d="M 365.128906 92.359375 C 365.128906 92.359375 356.839844 79.925781 344.667969 78.746094 C 344.667969 78.746094 350.148438 73.335938 348.628906 71.050781 C 345.078125 65.691406 334.6875 72.929688 334.6875 72.929688 C 334.6875 72.929688 338.511719 63.851562 335.582031 63.160156 C 332.636719 62.46875 327.628906 68.359375 327.628906 68.359375 C 327.628906 68.359375 330.632812 29.199219 339.925781 22.832031 C 349.222656 16.445312 365.128906 92.359375 365.128906 92.359375"/></g><g><path fill="#c9c4b9" d="M 334.6875 72.929688 C 334.6875 72.929688 338.511719 63.851562 335.582031 63.160156 C 332.636719 62.46875 327.628906 68.359375 327.628906 68.359375 C 327.628906 68.359375 330.632812 29.199219 339.925781 22.832031 C 341.617188 21.65625 343.523438 23.242188 345.519531 26.5625 C 340 34.429688 339.878906 50.179688 342.296875 61.632812 C 345.664062 60.472656 352.421875 58.128906 352.246094 63.042969 C 351.949219 71.984375 353.816406 77.410156 355.980469 83.207031 C 352.828125 81.011719 349.003906 79.152344 344.667969 78.746094 C 344.667969 78.746094 350.148438 73.335938 348.628906 71.050781 C 345.078125 65.691406 334.6875 72.929688 334.6875 72.929688"/></g><g><path fill="#e2dbce" d="M 306.011719 299.597656 C 306.175781 311.726562 304.523438 318.59375 297.941406 329.628906 C 288.941406 342.472656 271.273438 343.078125 259.523438 336.523438 C 248.1875 329.683594 244.894531 320.882812 242.867188 307.273438 C 221.390625 304.140625 205.953125 294.769531 187.558594 284.675781 C 182.410156 282.269531 176.261719 280.695312 169.667969 281.394531 C 169.855469 281.570312 170.0625 281.757812 170.253906 281.941406 C 182.078125 293.144531 199.03125 299.984375 218.660156 331.03125 C 238.304688 362.085938 250.832031 365.65625 279.527344 366.113281 C 308.25 366.566406 321.460938 346.21875 330.289062 327.351562 C 339.109375 308.472656 348.410156 290.269531 370.53125 282.546875 C 371.152344 282.332031 371.734375 282.082031 372.332031 281.804688 C 348.769531 283.132812 329.191406 292.074219 306.011719 299.597656"/></g><g clip-path="url(#j)"><g clip-path="url(#k)"><g clip-path="url(#l)"><path fill="url(#m)" d="M 185.570312 367.710938 L 353.175781 366.5625 L 352.660156 291.367188 L 185.054688 292.515625 Z M 185.570312 367.710938"/></g></g></g><g><path fill="#98967e" d="M 339.109375 308.472656 C 332.078125 319.421875 326.734375 336.085938 316.152344 347.949219 C 305.675781 360.050781 288.382812 366.472656 270.519531 365.617188 C 252.398438 365.710938 235.351562 352.820312 226.03125 339.378906 C 216.515625 326.222656 208.167969 311.445312 198.757812 303.273438 C 189.929688 295.578125 182.8125 292.410156 178.777344 291.210938 C 182.347656 294.5 193.863281 301.035156 197.804688 307.902344 C 206.246094 316.984375 214.171875 328.894531 223.410156 342.910156 C 231.722656 357.03125 252.011719 371.324219 272.6875 370.84375 C 292.046875 372.039062 309.894531 363.441406 321.238281 348.820312 C 332.59375 334.796875 337.421875 322.152344 343.414062 311.113281 C 354.300781 287.472656 371.171875 283.253906 370.53125 282.546875 C 371.378906 282.371094 352.652344 284.554688 339.109375 308.472656"/></g><g><path fill="#98967e" d="M 277.054688 366.871094 C 277.449219 366.921875 279.039062 360.386719 278.335938 352.789062 C 277.671875 345.148438 275.160156 339.230469 274.839844 339.265625 C 274.414062 339.324219 273.195312 345.734375 273.851562 353.332031 C 274.554688 360.953125 276.71875 366.800781 277.054688 366.871094"/></g><g><path fill="#231f20" d="M 298.96875 327.90625 C 299.039062 334.394531 289.378906 344.566406 276.4375 344.945312 C 263.503906 345.320312 252.203125 335.761719 252.132812 329.28125 C 252.066406 322.804688 262.507812 320.136719 275.4375 319.773438 C 288.378906 319.386719 298.90625 321.429688 298.96875 327.90625"/></g><g><path fill="#303535" d="M 294.605469 328.054688 C 294.25 324.339844 287.0625 321.429688 277.617188 321.402344 C 267.480469 321.363281 258.597656 324.65625 257.667969 328.765625 C 270.25 325.65625 282.820312 326.273438 294.605469 328.054688"/></g><g><path fill="#231f20" d="M 226.410156 227.183594 C 224.570312 233.777344 217.738281 237.640625 211.132812 235.796875 C 204.550781 233.957031 200.695312 227.117188 202.546875 220.53125 C 204.375 213.925781 211.203125 210.074219 217.808594 211.917969 C 224.414062 213.761719 228.246094 220.613281 226.410156 227.183594"/></g><g><path fill="#231f20" d="M 340.453125 226.285156 C 338.621094 232.867188 331.773438 236.742188 325.195312 234.882812 C 318.59375 233.03125 314.761719 226.171875 316.601562 219.613281 C 318.4375 213.019531 325.261719 209.171875 331.867188 211.003906 C 338.445312 212.847656 342.296875 219.683594 340.453125 226.285156"/></g><g><path fill="#464c4e" d="M 194.9375 31.507812 C 182.785156 37.515625 169.953125 97.695312 169.414062 100.253906 C 169.320312 100.703125 169.542969 101.15625 169.957031 101.351562 C 170.371094 101.550781 170.863281 101.4375 171.152344 101.082031 C 171.25 100.964844 181.050781 89.109375 196.257812 87.753906 C 196.671875 87.714844 197.019531 87.421875 197.125 87.015625 C 197.230469 86.613281 197.074219 86.183594 196.726562 85.949219 C 194.550781 84.460938 191.394531 81.726562 191.183594 80.304688 C 191.15625 80.109375 191.210938 80.042969 191.238281 80.007812 C 194.351562 76.167969 204.675781 79.992188 208.390625 81.792969 C 208.789062 81.984375 209.269531 81.890625 209.5625 81.558594 C 209.855469 81.226562 209.894531 80.738281 209.65625 80.367188 C 208.160156 78.035156 206.203125 73.980469 206.761719 72.683594 C 206.808594 72.570312 206.882812 72.453125 207.183594 72.394531 C 209.921875 71.863281 215.28125 75.589844 217.113281 77.070312 C 217.4375 77.328125 217.882812 77.359375 218.238281 77.152344 C 218.59375 76.941406 218.78125 76.535156 218.714844 76.128906 C 218.441406 74.558594 211.902344 37.558594 199.03125 31.402344 C 197.71875 30.777344 196.34375 30.8125 194.9375 31.507812 Z M 195.816406 33.28125 C 196.671875 32.859375 197.421875 32.832031 198.175781 33.191406 C 208.347656 38.054688 214.601562 65.636719 216.285156 74 C 213.804688 72.292969 209.695312 69.886719 206.808594 70.449219 C 205.683594 70.667969 205.171875 71.359375 204.941406 71.902344 C 204.773438 72.289062 204.703125 72.730469 204.703125 73.214844 C 204.703125 74.929688 205.617188 77.109375 206.496094 78.828125 C 201.992188 77.066406 193.226562 74.414062 189.699219 78.761719 C 189.367188 79.171875 189.195312 79.664062 189.195312 80.203125 C 189.195312 80.332031 189.203125 80.460938 189.226562 80.59375 C 189.5 82.464844 191.824219 84.652344 193.628906 86.101562 C 183.277344 87.773438 175.757812 93.699219 172.105469 97.207031 C 176.371094 78.066406 187.011719 37.636719 195.816406 33.28125"/></g><g><path fill="#464c4e" d="M 339.367188 22.015625 C 329.789062 28.574219 326.765625 66.664062 326.640625 68.28125 C 326.609375 68.710938 326.855469 69.109375 327.253906 69.273438 C 327.648438 69.4375 328.105469 69.328125 328.382812 69 C 330.300781 66.746094 333.734375 63.742188 335.355469 64.125 C 335.410156 64.140625 335.464844 64.152344 335.53125 64.285156 C 336.179688 65.558594 334.894531 69.882812 333.773438 72.546875 C 333.601562 72.953125 333.71875 73.421875 334.0625 73.699219 C 334.40625 73.976562 334.890625 73.996094 335.253906 73.742188 C 335.316406 73.699219 341.578125 69.386719 345.589844 70.152344 C 346.558594 70.339844 347.28125 70.8125 347.804688 71.597656 C 348.433594 72.542969 346.289062 75.75 343.972656 78.039062 C 343.699219 78.308594 343.605469 78.714844 343.734375 79.078125 C 343.863281 79.4375 344.191406 79.695312 344.574219 79.730469 C 356.121094 80.851562 364.222656 92.789062 364.304688 92.910156 C 364.566406 93.304688 365.074219 93.457031 365.511719 93.273438 C 365.949219 93.089844 366.195312 92.621094 366.097656 92.15625 C 364.671875 85.351562 351.890625 25.554688 342.269531 21.699219 C 341.261719 21.296875 340.257812 21.40625 339.367188 22.015625 Z M 340.488281 23.648438 C 340.828125 23.414062 341.140625 23.382812 341.53125 23.539062 C 347.738281 26.023438 357.570312 62.242188 363.269531 88.421875 C 360.078125 84.824219 354.230469 79.496094 346.664062 78.050781 C 348.039062 76.472656 349.875 74 349.875 71.972656 C 349.875 71.441406 349.746094 70.945312 349.453125 70.503906 C 348.632812 69.265625 347.460938 68.492188 345.960938 68.207031 C 342.882812 67.621094 339.054688 69.285156 336.597656 70.621094 C 337.132812 68.988281 337.664062 66.960938 337.664062 65.308594 C 337.664062 64.566406 337.558594 63.902344 337.296875 63.390625 C 336.980469 62.765625 336.464844 62.351562 335.808594 62.199219 C 333.570312 61.671875 330.765625 63.8125 328.863281 65.621094 C 330.042969 53.332031 333.746094 28.265625 340.488281 23.648438"/></g><g><path fill="#464c4e" d="M 224.296875 562.539062 C 224.246094 564.515625 223.847656 581.957031 225.636719 585.542969 C 225.882812 586.03125 226.476562 586.230469 226.96875 585.984375 C 227.457031 585.738281 227.65625 585.144531 227.410156 584.65625 C 226.21875 582.273438 226.078125 570.15625 226.277344 562.589844 C 226.289062 562.042969 225.859375 561.589844 225.3125 561.574219 C 224.765625 561.5625 224.3125 561.992188 224.296875 562.539062"/></g><g><path fill="#464c4e" d="M 249.308594 564.488281 C 248.734375 573.960938 247.65625 584.476562 246.84375 585.664062 C 246.492188 586.070312 246.519531 586.679688 246.910156 587.046875 C 247.300781 587.410156 247.902344 587.402344 248.28125 587.023438 C 249.808594 585.492188 250.820312 572.320312 251.285156 564.605469 C 251.316406 564.058594 250.902344 563.589844 250.355469 563.558594 C 249.808594 563.523438 249.339844 563.941406 249.308594 564.488281"/></g><g><path fill="#464c4e" d="M 317.152344 562.785156 C 317.203125 564.765625 317.601562 582.207031 315.808594 585.789062 C 315.566406 586.277344 314.96875 586.476562 314.480469 586.230469 C 313.992188 585.988281 313.792969 585.394531 314.039062 584.902344 C 315.226562 582.523438 315.367188 570.402344 315.171875 562.839844 C 315.15625 562.292969 315.589844 561.835938 316.136719 561.824219 C 316.683594 561.808594 317.136719 562.238281 317.152344 562.785156"/></g><g><path fill="#464c4e" d="M 292.140625 564.734375 C 292.714844 574.210938 293.792969 584.722656 294.605469 585.914062 C 294.957031 586.316406 294.929688 586.929688 294.539062 587.292969 C 294.148438 587.65625 293.546875 587.648438 293.167969 587.273438 C 291.640625 585.738281 290.628906 572.570312 290.164062 564.855469 C 290.132812 564.308594 290.546875 563.839844 291.09375 563.804688 C 291.640625 563.773438 292.109375 564.1875 292.140625 564.734375"/></g><g><path fill="#444a4c" d="M 348.167969 158.621094 C 348.167969 158.621094 342.59375 152.414062 331.675781 151.648438 C 320.753906 150.875 318.601562 155.828125 320.28125 157.15625 C 321.964844 158.484375 333.808594 153.859375 348.167969 158.621094"/></g><g><path fill="#444a4c" d="M 194.472656 160.210938 C 194.472656 160.210938 198.90625 153.761719 209.261719 153.179688 C 219.632812 152.597656 222.425781 157.863281 221.019531 159.230469 C 219.582031 160.589844 207.539062 155.472656 194.472656 160.210938"/></g><g><path fill="#646b70" d="M 233.46875 97.210938 C 212.585938 86.082031 188.472656 100.511719 170.082031 110.980469 C 159.421875 108.4375 167.34375 73.441406 167.34375 73.441406 C 157.636719 85.324219 160.519531 109.398438 156.902344 123.707031 C 152.964844 139.292969 145.597656 156.570312 139.101562 171.265625 C 134.722656 181.171875 128.210938 189 122.527344 197.464844 C 127.152344 197.03125 131.671875 195.035156 136.242188 193.859375 C 130.328125 202.003906 122.601562 213.714844 123.070312 224.453125 C 129.945312 208.269531 143.832031 196.6875 150.109375 179.964844 C 148.164062 181.484375 145.53125 182.285156 143.660156 183.644531 C 152.839844 159.335938 169.394531 137.6875 192.863281 126.230469 C 189.246094 125.351562 186.152344 123.894531 182.726562 122.152344 C 191.117188 115.996094 201.019531 103.8125 233.46875 97.210938"/></g><g><path fill="#646b70" d="M 320.371094 86.644531 C 345.132812 86.152344 345.066406 94.996094 363.457031 105.464844 C 374.117188 102.921875 366.761719 73.441406 366.761719 73.441406 C 376.46875 85.324219 373.585938 109.398438 377.199219 123.707031 C 381.136719 139.292969 381.902344 142.046875 388.398438 156.738281 C 392.777344 166.644531 399.289062 174.472656 404.972656 182.9375 C 400.347656 182.507812 395.828125 181.832031 391.257812 180.65625 C 397.171875 188.796875 411.503906 213.714844 411.03125 224.453125 C 404.160156 208.269531 383.667969 183.480469 377.390625 166.757812 C 379.335938 168.277344 381.96875 169.078125 383.839844 170.4375 C 374.660156 146.128906 364.707031 137.6875 341.242188 126.230469 C 344.855469 125.351562 357.554688 120.574219 360.980469 118.835938 C 352.59375 112.679688 352.820312 93.25 320.371094 86.644531"/></g><g><path fill="#646b70" d="M 233.277344 69.90625 C 228.984375 59.90625 212.386719 4.117188 193.757812 19.953125 L 203 21.273438 C 206.011719 24.703125 209.3125 26.945312 211.566406 31.050781 C 216.527344 40.078125 237.550781 79.242188 223.238281 84.992188 C 226.589844 84.023438 229.902344 82.277344 233.378906 81.683594 C 236.390625 81.167969 239.734375 81.796875 242.265625 80.117188 C 237.304688 79.222656 235.058594 74.0625 233.277344 69.90625"/></g><g><path fill="#646b70" d="M 310.28125 63.679688 C 313.601562 53.316406 324.820312 -3.800781 344.871094 10.195312 L 335.796875 12.390625 C 333.121094 16.085938 330.050781 18.636719 328.195312 22.933594 C 324.117188 32.394531 306.914062 73.382812 321.703125 77.742188 C 318.277344 77.097656 314.816406 75.671875 311.296875 75.410156 C 308.253906 75.183594 304.980469 76.128906 302.304688 74.699219 C 307.15625 73.335938 308.898438 67.984375 310.28125 63.679688"/></g><g><path fill="#636a6e" d="M 344.621094 356.699219 C 343.367188 363.097656 340.769531 368.589844 336.605469 373.460938 C 333 377.679688 320.027344 383.566406 319.382812 373.535156 C 319.722656 379.855469 319.253906 387.375 316.976562 393.308594 C 315.371094 397.484375 306.097656 412.148438 302.953125 400.699219 C 298.222656 403.050781 299.546875 409.007812 299.046875 413.5625 C 298.011719 422.957031 296.554688 432.347656 295.609375 441.765625 C 294.339844 454.433594 288.511719 473.261719 291.648438 485.308594 L 296.105469 467.480469 C 297.738281 461.378906 299.921875 449.875 303.285156 440.453125 C 304.722656 428.363281 312.957031 418.710938 322.847656 411.519531 C 322.847656 415.480469 322.847656 419.441406 319.875 422.414062 C 333.742188 419.441406 337.703125 401.613281 339.6875 388.738281 C 359.824219 390.390625 371.300781 441.167969 366.992188 462.636719 C 369.109375 458.957031 370.261719 455.066406 371.148438 450.472656 C 377.726562 416.441406 359.390625 385.824219 344.621094 356.699219"/></g><g><path fill="#636a6e" d="M 247.074219 441.765625 C 246.128906 432.347656 244.671875 422.957031 243.640625 413.5625 C 243.140625 409.007812 244.464844 403.050781 239.734375 400.699219 C 236.589844 412.148438 227.3125 397.484375 225.710938 393.308594 C 223.433594 387.375 222.960938 379.855469 223.304688 373.535156 C 222.660156 383.566406 209.6875 377.679688 206.078125 373.460938 C 201.914062 368.589844 199.316406 363.097656 198.0625 356.699219 C 191.609375 394.183594 164.960938 416.441406 171.535156 450.472656 C 171.742188 451.53125 171.921875 452.371094 172.101562 453.089844 C 172.492188 442.253906 174.320312 431.445312 179.320312 422.058594 C 181.027344 415.511719 189.558594 399.285156 195.203125 396.316406 C 196.53125 395.617188 197.585938 395.714844 198.441406 396.363281 C 207.128906 396.089844 204.722656 414.351562 209.933594 420.433594 C 209.933594 415.480469 211.914062 411.519531 213.894531 406.566406 C 216.503906 416.128906 226.738281 420.351562 232.554688 427.9375 C 240.15625 435.347656 244.039062 457.972656 246.582031 467.480469 L 251.039062 485.308594 C 254.175781 473.261719 248.347656 454.433594 247.074219 441.765625"/></g></g></svg>