<?xml version="1.0" encoding="UTF-8" standalone="no"?><svg xmlns="http://www.w3.org/2000/svg" xmlns:xlink="http://www.w3.org/1999/xlink" contentScriptType="text/ecmascript" fill="#000000" width="266.2" zoomAndPan="magnify" contentStyleType="text/css" viewBox="79.5 116.9 266.2 191.2" height="191.2" preserveAspectRatio="xMidYMid meet" version="1"><g><g id="change1_1"><path fill="#d7ea53" d="M334.34,305.52H90.86c-7.06,0-11.33-7.8-7.54-13.75l32.04-50.25c0.76-1.19,2.07-1.91,3.48-1.91h187.51 c1.41,0,2.72,0.72,3.48,1.91l32.04,50.25C345.68,297.72,341.4,305.52,334.34,305.52z"/></g><g id="change2_1"><path fill="#5a478e" d="M341.81,291.66c-1.55,2.38-4.21,4.06-7.47,4.06H90.86c-3.27,0-5.92-1.68-7.47-4.06l-0.07,0.11 c-3.8,5.95,0.48,13.75,7.54,13.75h243.48c7.06,0,11.33-7.8,7.54-13.75L341.81,291.66z"/></g><g id="change1_2"><path fill="#d7ea53" d="M302.88,242.97H122.4c-6.49,0-11.8-5.31-11.8-11.8V130.49c0-6.49,5.31-11.8,11.8-11.8 c0,0,180.27,0,180.48,0c9.7,0,11.39,8.13,11.21,15.72c-0.26,11.14-0.03,22.31-0.04,33.45c0,14.56-0.03,29.11-0.05,43.67 C313.99,221.47,318.51,242.97,302.88,242.97z"/></g><g id="change3_1"><path fill="#ffffff" d="M288.8,233.28H136.46c-5.48,0-9.96-4.48-9.96-9.96v-84.98c0-5.48,4.48-9.96,9.96-9.96 c0,0,152.16,0,152.34,0c8.19,0,9.62,6.86,9.47,13.27c-0.22,9.4-0.02,18.83-0.03,28.24c0,12.29-0.03,24.57-0.04,36.86 C298.18,215.13,302,233.28,288.8,233.28z"/></g><g id="change4_3"><path fill="inherit" d="M150.73,245c-8.71,0-17.43-0.05-26.13-0.17c-16.07-0.23-15.85-15.91-15.69-27.37c0.01-0.95,0.03-1.88,0.03-2.77 c0.03-7.49,0.35-15.09,0.66-22.44c0.27-6.5,0.55-13.22,0.64-19.83c0.03-2.17,0.04-4.49-0.08-6.8 c0-5.08-0.21-10.42-0.42-15.58c-0.21-5.18-0.42-10.54-0.42-15.61c0-8.96,6.4-16.1,15.21-16.98 c12.9-0.52,23.18-0.35,34.05-0.18c7.16,0.12,14.56,0.23,23.41,0.19c0,0,0,0,0.01,0c0.55,0,1,0.44,1,0.99 c0,0.55-0.44,1-0.99,1.01c-8.87,0.05-16.29-0.07-23.45-0.19c-10.85-0.17-21.09-0.34-33.88,0.17 c-7.83,0.79-13.35,6.95-13.35,14.99c0,5.03,0.21,10.37,0.42,15.53c0.21,5.18,0.42,10.54,0.42,15.61 c0.12,2.32,0.11,4.67,0.08,6.88c-0.08,6.64-0.36,13.38-0.64,19.89c-0.31,7.33-0.62,14.91-0.66,22.36 c0,0.9-0.02,1.83-0.03,2.79c-0.16,11.2-0.35,25.14,13.72,25.34c29.92,0.42,60.12-0.01,89.33-0.42 c29.09-0.41,59.17-0.84,88.94-0.43c0.55,0.01,0.99,0.46,0.99,1.01s-0.46,1-1.01,0.99c-29.73-0.41-59.8,0.01-88.88,0.43 C193.25,244.69,172.01,244.99,150.73,245z"/></g><g id="change4_4"><path fill="inherit" d="M157.39,207.13c-0.2,0-0.39-0.06-0.57-0.18c-0.46-0.31-0.57-0.94-0.26-1.39l37.69-54.85 c0.31-0.46,0.94-0.57,1.39-0.26c0.46,0.31,0.57,0.94,0.26,1.39l-37.69,54.85C158.03,206.98,157.71,207.13,157.39,207.13z"/></g><g id="change4_5"><path fill="inherit" d="M204.32,195.12c-0.19,0-0.39-0.06-0.56-0.17c-0.46-0.31-0.57-0.93-0.26-1.39c9.29-13.57,17.98-27.76,25.85-42.2 c0.26-0.48,0.87-0.66,1.36-0.4c0.49,0.26,0.66,0.87,0.4,1.36c-7.9,14.49-16.64,28.75-25.96,42.37 C204.95,194.97,204.64,195.12,204.32,195.12z"/></g><g id="change4_6"><path fill="inherit" d="M235.03,208.05c-0.14,0-0.29-0.03-0.43-0.1c-0.5-0.24-0.71-0.83-0.48-1.33c7.87-16.66,16.45-33.24,25.51-49.28 c0.27-0.48,0.88-0.65,1.36-0.38c0.48,0.27,0.65,0.88,0.38,1.36c-9.04,16-17.6,32.53-25.45,49.15 C235.76,207.84,235.4,208.05,235.03,208.05z"/></g><g id="change4_7"><path fill="inherit" d="M300.08,119.69c-0.01,0-0.01,0-0.02,0c-21-0.34-38.33-0.25-56.68-0.16c-13.45,0.07-27.37,0.14-43.93,0.05 c-0.55,0-1-0.45-1-1c0-0.55,0.45-1,1-1c0,0,0,0,0,0c16.55,0.08,30.46,0.02,43.91-0.05c18.36-0.09,35.7-0.18,56.72,0.16 c0.55,0.01,0.99,0.46,0.98,1.02C301.07,119.25,300.62,119.69,300.08,119.69z"/></g><g id="change4_8"><path fill="inherit" d="M184.56,235.53c-16.38,0-32.86-0.46-49.16-2.08c-2.81-0.28-5.73-0.72-7.76-2.72c-2.64-2.59-2.63-6.49-2.39-10.27 c1.67-26.94,0.66-54.39-0.32-80.94c-0.17-4.56,2.2-8.06,6.86-10.11c4.26-1.89,9.07-1.85,13.31-1.82l22.81,0.16 c0.55,0,1,0.46,0.99,1.01s-0.45,0.99-1.01,0.99l-22.81-0.16c-4.03-0.03-8.61-0.06-12.48,1.65c-3.9,1.72-5.8,4.49-5.67,8.21 c0.98,26.59,1.99,54.09,0.31,81.13c-0.21,3.31-0.24,6.72,1.8,8.72c1.57,1.54,4,1.9,6.56,2.15c27.25,2.7,55.11,2.17,82.05,1.65 l16.58-0.32c1.67-0.03,5.82,0.04,11.07,0.13c14.57,0.26,38.96,0.68,45.18-0.53c0.54-0.11,1.07,0.25,1.17,0.79 s-0.25,1.07-0.79,1.17c-6.43,1.25-30.95,0.82-45.6,0.57c-5.23-0.09-9.36-0.17-11-0.13l-16.58,0.32 C206.76,235.31,195.69,235.53,184.56,235.53z"/></g><g id="change4_9"><path fill="inherit" d="M139.55,308.11c-20.01,0-38.25-0.05-46.15-0.22c-7.34-0.16-11.73-3.76-12.06-9.87c-0.23-4.36,2.44-8.1,4.79-11.39 c0.66-0.92,1.28-1.79,1.83-2.65L115,241.55c0.3-0.47,0.92-0.6,1.38-0.31c0.47,0.3,0.6,0.92,0.31,1.38l-27.05,42.42 c-0.58,0.91-1.21,1.8-1.89,2.74c-2.27,3.18-4.62,6.46-4.42,10.12c0.36,6.76,6.48,7.9,10.1,7.98 c19.5,0.42,102.15,0.13,118.51,0.07c21.75-0.08,45.51-0.23,72.63-0.45c7.03-0.06,14.06-0.12,21.09-0.18 c7.79-0.07,15.57-0.14,23.36-0.2c0.39,0,0.78-0.02,1.17-0.03c0.87-0.03,1.77-0.06,2.66,0.02c0.55,0.05,0.96,0.54,0.9,1.09 c-0.05,0.55-0.53,0.96-1.09,0.9c-0.76-0.07-1.6-0.04-2.4-0.01c-0.41,0.02-0.83,0.03-1.23,0.03c-7.79,0.06-15.57,0.13-23.36,0.2 c-7.03,0.06-14.06,0.13-21.09,0.18c-27.13,0.22-50.89,0.36-72.64,0.45C202.21,308,168.97,308.11,139.55,308.11z"/></g><g id="change4_10"><path fill="inherit" d="M300.84,297.01H92.35c-0.55,0-1-0.45-1-1s0.45-1,1-1h208.49c0.55,0,1,0.45,1,1S301.39,297.01,300.84,297.01z"/></g><g id="change2_2"><path fill="#5a478e" d="M321.64 286.77L107.09 286.77 131.57 248.99 297.15 248.99z"/></g><g id="change4_11"><path fill="inherit" d="M112.78,279.42c-0.5,0-0.93-0.37-0.99-0.88c-0.07-0.55,0.32-1.05,0.87-1.12c0.46-0.06,0.92-0.11,1.39-0.16 c0.47-0.05,0.94-0.11,1.41-0.16c0.04-0.01,0.08-0.01,0.12-0.01h200.93c0.55,0,1,0.45,1,1s-0.45,1-1,1H115.64 c-0.45,0.06-0.91,0.11-1.36,0.16c-0.46,0.05-0.91,0.1-1.37,0.16C112.86,279.42,112.82,279.42,112.78,279.42z"/></g><g id="change4_12"><path fill="inherit" d="M117.91,270.25c-0.5,0-0.93-0.37-0.99-0.88c-0.07-0.55,0.32-1.05,0.87-1.12c0.47-0.06,0.94-0.11,1.41-0.16 c0.46-0.05,0.92-0.11,1.39-0.16c0.04,0,0.08-0.01,0.12-0.01h189.58c0.55,0,1,0.45,1,1s-0.45,1-1,1H120.77 c-0.45,0.05-0.9,0.11-1.34,0.16c-0.46,0.05-0.92,0.11-1.39,0.16C117.99,270.25,117.95,270.25,117.91,270.25z"/></g><g id="change4_13"><path fill="inherit" d="M122.23,260.67c-0.5,0-0.93-0.37-0.99-0.88c-0.07-0.55,0.32-1.05,0.87-1.12c0.47-0.06,0.94-0.11,1.41-0.16 c0.46-0.05,0.92-0.11,1.39-0.16c0.04,0,0.08-0.01,0.12-0.01h179.05c0.55,0,1,0.45,1,1s-0.45,1-1,1H125.09 c-0.45,0.05-0.9,0.11-1.34,0.16c-0.46,0.05-0.93,0.11-1.39,0.16C122.31,260.67,122.27,260.67,122.23,260.67z"/></g><g id="change4_14"><path fill="inherit" d="M122.23,287.77c-0.17,0-0.34-0.04-0.5-0.14c-0.48-0.28-0.64-0.89-0.36-1.37l21.89-37.5c0.28-0.48,0.89-0.64,1.37-0.36 c0.48,0.28,0.64,0.89,0.36,1.37l-21.89,37.5C122.91,287.59,122.57,287.77,122.23,287.77z"/></g><g id="change4_15"><path fill="inherit" d="M145.24,287.77c-0.14,0-0.28-0.03-0.41-0.09c-0.5-0.23-0.73-0.82-0.5-1.32l16.95-37.78c0.23-0.5,0.82-0.73,1.32-0.5 c0.5,0.23,0.73,0.82,0.5,1.32l-16.95,37.78C145.99,287.55,145.62,287.77,145.24,287.77z"/></g><g id="change4_19"><path fill="inherit" d="M173.86,279.42c-0.07,0-0.15-0.01-0.22-0.02c-0.54-0.12-0.88-0.66-0.76-1.19l6.61-29.48c0.12-0.54,0.66-0.88,1.19-0.76 c0.54,0.12,0.88,0.66,0.76,1.19l-6.61,29.48C174.73,279.11,174.32,279.42,173.86,279.42z"/></g><g id="change4_20"><path fill="inherit" d="M276.53,287.8c-0.34,0-0.68-0.18-0.86-0.5l-21.89-37.5c-0.28-0.48-0.12-1.09,0.36-1.37s1.09-0.12,1.37,0.36l21.89,37.5 c0.28,0.48,0.12,1.09-0.36,1.37C276.87,287.75,276.7,287.8,276.53,287.8z"/></g><g id="change4_2"><path fill="inherit" d="M293.63,279.42c-0.34,0-0.68-0.18-0.86-0.5l-17.1-29.29c-0.28-0.48-0.12-1.09,0.36-1.37c0.48-0.28,1.09-0.12,1.37,0.36 l17.1,29.29c0.28,0.48,0.12,1.09-0.36,1.37C293.97,279.38,293.8,279.42,293.63,279.42z"/></g><g id="change4_17"><path fill="inherit" d="M253.52,287.8c-0.38,0-0.75-0.22-0.91-0.59l-16.95-37.78c-0.23-0.5,0-1.1,0.5-1.32c0.5-0.23,1.1,0,1.32,0.5 l16.95,37.78c0.23,0.5,0,1.1-0.5,1.32C253.8,287.77,253.66,287.8,253.52,287.8z"/></g><g id="change4_1"><path fill="inherit" d="M224.9,279.45c-0.46,0-0.87-0.32-0.97-0.78l-6.61-29.48c-0.12-0.54,0.22-1.07,0.76-1.19c0.53-0.12,1.07,0.22,1.19,0.76 l6.61,29.48c0.12,0.54-0.22,1.07-0.76,1.19C225.05,279.44,224.97,279.45,224.9,279.45z"/></g><g id="change4_16"><path fill="inherit" d="M199.46,279.42c-0.01,0-0.01,0-0.02,0c-0.55-0.01-0.99-0.46-0.99-1.01l0.44-29.48c0.01-0.55,0.45-0.99,1-0.99 c0.01,0,0.01,0,0.02,0c0.55,0.01,0.99,0.46,0.99,1.01l-0.44,29.48C200.45,278.98,200.01,279.42,199.46,279.42z"/></g><g id="change4_18"><path fill="inherit" d="M314.6,188.24c-0.55,0-1-0.45-1-1v-43.92c0-0.55,0.45-1,1-1s1,0.45,1,1v43.92C315.6,187.79,315.15,188.24,314.6,188.24 z"/><path fill="inherit" d="M314.6,215.08c-0.55,0-1-0.45-1-1v-12.97c0-0.55,0.45-1,1-1s1,0.45,1,1v12.97C315.6,214.63,315.15,215.08,314.6,215.08 z"/></g></g></svg>