<?xml version="1.0" encoding="UTF-8" standalone="no"?><svg xmlns="http://www.w3.org/2000/svg" xmlns:xlink="http://www.w3.org/1999/xlink" contentScriptType="text/ecmascript" fill="#000000" width="476.8" zoomAndPan="magnify" contentStyleType="text/css" viewBox="9.8 53.5 476.8 374.5" height="374.5" data-name="Layer 1" preserveAspectRatio="xMidYMid meet" version="1"><g><rect rx="25.43" x="337.99" width="148.64" fill="#e6e7e8" y="117.71" height="116.58"/></g><g><circle fill="#939598" r="6.54" cx="439.94" cy="176"/></g><g><circle fill="#939598" r="6.54" cx="412.31" cy="176"/></g><g><circle fill="#939598" r="6.54" cx="384.67" cy="176"/></g><g><path fill="#7c4b38" d="M375.27,213.66c13.11,5.59,67.49,36,67.49,36l16.3-49,17.92.56s-3.45,79.46-19.42,85.43-73.26-23.06-73.26-23.06S360.31,207.3,375.27,213.66Z" fill-rule="evenodd"/></g><g><path fill="#afc6a6" d="M375.27,213.66c19.33,6,50.51,26.61,50.51,26.61l-7.68,43.52-39.17-14.27S353.47,206.88,375.27,213.66Z" fill-rule="evenodd"/></g><g><path fill="#7c4b38" d="M454.29,162.45c.42-2.58,0-19.54,2.82-28.55,1.45-4.64,5.74-3.82,5.86-1,.26,6.07-.41,25.68.24,26.5,1.12,1.41,4.15.64,5.31,1,2.38,1,3.51,2.46,3.55,4.29,2.2-.89,5.94,1.27,6.4,4,2.41-.2,5.35,2.14,4.73,6.42s-1.92,18.28-3,20.8A33.08,33.08,0,0,1,477,201.3l-3,19.89-17.54-1.6,2.61-18.85s-9.82-7.4-10.94-9.39c-.9-1.6-3.62-7.76-4.21-8.89-1.94-3.71-4.57-9.78-7.9-13.64s6.14-6.14,9.55-.54,5.72,7.56,7,7.52S453.89,164.87,454.29,162.45Z"/></g><g><path fill="#4f2a1e" d="M475.86,184.06a4.74,4.74,0,0,1-2.69-.72,2.55,2.55,0,0,1-1-1.41,4.42,4.42,0,0,1-4.39.37,4.06,4.06,0,0,1-2.44-3,3.41,3.41,0,0,1-2.65-.48,5.13,5.13,0,0,1-2.47-4.85c.15-1.45,3.95-12.09,4.78-12.92s3-1.08,3.44-1.14a.45.45,0,0,1,.12.89,7.52,7.52,0,0,0-2.93.89c-.62.72-4.38,11-4.51,12.37a4.2,4.2,0,0,0,2,4,2.26,2.26,0,0,0,2.36.19.44.44,0,0,1,.48,0,.43.43,0,0,1,.22.42,3.06,3.06,0,0,0,1.94,2.85,3.53,3.53,0,0,0,4-.75.43.43,0,0,1,.49-.09.44.44,0,0,1,.28.41,1.76,1.76,0,0,0,.72,1.55,5,5,0,0,0,3.75.34,9,9,0,0,0,3.35-3.08,32.63,32.63,0,0,0,2-5,.45.45,0,1,1,.85.28,33.77,33.77,0,0,1-2.09,5.22,9.75,9.75,0,0,1-3.8,3.42A6.43,6.43,0,0,1,475.86,184.06Z"/></g><g><path fill="#4f2a1e" d="M465.78,179.05a.45.45,0,0,1-.3-.11.46.46,0,0,1,0-.64c2.65-2.94,4.62-7.31,6.19-13.76a.45.45,0,1,1,.87.21c-1.61,6.6-3.64,11.1-6.39,14.15A.45.45,0,0,1,465.78,179.05Z"/></g><g><path fill="#4f2a1e" d="M472.53,181.51a.46.46,0,0,1-.27-.09.45.45,0,0,1-.09-.63A38,38,0,0,0,478,168.48a.46.46,0,0,1,.56-.31.45.45,0,0,1,.3.56,38.86,38.86,0,0,1-6,12.6A.44.44,0,0,1,472.53,181.51Z"/></g><g><path fill="#4f2a1e" d="M469.91,189.55a.46.46,0,0,1-.45-.37,20.36,20.36,0,0,0-2.46-7.4.45.45,0,0,1,.77-.47,21.22,21.22,0,0,1,2.58,7.72.45.45,0,0,1-.37.51Z"/></g><g><path fill="#7c4b38" d="M300.69,211.49s12.88-3.1,15.75-9.55,1.8-35.12,1.8-35.12l31.11,1.73s-5.45,27.75-3.81,32.9S363,213.15,363,213.15C365.83,241.06,316.22,239.42,300.69,211.49Z"/></g><g><path fill="#3c2415" d="M309,165.62c-21.54-20.22-29-48.19-6.08-58.38,7.15-22.9,59.9-18,65.19,3.5,6.57,26.59,2.34,35.3,2.34,35.3Z" fill-rule="evenodd"/></g><g><path fill="#7c4b38" d="M310.9,124.3c-1.71,6.42,3.09,34.62,3.65,34.65-15.92-1.71-9.92,20.78,4.48,13.75,4.65,10.36,20.29,18.2,31.91,17.32,20.47-3.38,28.14-18.8,27.68-28.42-.53-11.26-12.14-43.6-13.5-46.41C361.05,106.74,312.3,119,310.9,124.3Z" fill-rule="evenodd"/></g><g><path fill="#3c2415" d="M365.12,116.37c-1,4.71-4.25,5.51-9.23,3.46-2.58,3.48-5.92,4.31-10.57.59-1.93,3.85-4.82,4.7-8.75,2.31-2.13,5.38-5.85,7.12-11.56,4.34-2,5.82-6.22,7.67-12.6,5.72,2.31,4.84.84,6.78-4.09,6.07-.07,4.31-1.89,6.59-6.94,5.14-4.24,2.93-7.83,2.79-10.19-3.24-6.52-.83-8.87-5.33-7.82-12.81-5.15-3.69-5.7-7.89-1.73-12.6-4.46-6.61-3.22-10.57,2.53-12.44-3.52-7.16-1.23-10.08,5.82-9.54,1.92-9,6.71-11.16,13.67-8.13,1.64-7.32,5.85-9.82,13.44-6,3.44-6.92,8.19-8.09,14.21-3.73,3.6-5.35,7.64-5.78,12.07-1.78,5.7-3,9.76-1.16,12.51,4.48,5.82-.94,8.93,1.89,9.14,8.75,5.68,2.57,6.86,6.6,5.66,11.39,3.09,2.46,3.8,5.56.37,9.77C373,114.3,370.38,116.49,365.12,116.37Z"/></g><g><path fill="#4f2a1e" d="M315.64,171a.6.6,0,0,1-.6-.56c-.31-3.44-2.16-5.62-5.68-6.66a.61.61,0,0,1,.35-1.17c4,1.18,6.19,3.78,6.54,7.73a.61.61,0,0,1-.55.66Z"/></g><g><ellipse rx="4.7" ry="5.96" fill="#3c2415" cx="336.81" transform="rotate(-9.55 336.89 147.002)" cy="146.99"/></g><g><ellipse rx="4.7" ry="5.96" fill="#3c2415" cx="363.29" transform="rotate(-9.55 363.407 141.984)" cy="141.96"/></g><g><path fill="#3c2415" d="M322.47,143.62a2.49,2.49,0,0,1-.53-.07,2.05,2.05,0,0,1-1.44-2.5,11.07,11.07,0,0,1,6.54-7.13,9.92,9.92,0,0,1,8.78.34,2,2,0,0,1-2,3.53,5.84,5.84,0,0,0-5.19-.11,7.06,7.06,0,0,0-4.16,4.43A2,2,0,0,1,322.47,143.62Z"/></g><g><path fill="#3c2415" d="M354.26,133.43A2,2,0,0,1,353,133a2,2,0,0,1-.34-2.86c2.12-2.68,4.46-4.17,7-4.43s4.92.64,7.39,2.68a2,2,0,1,1-2.59,3.14c-1.59-1.32-3.06-1.92-4.37-1.78s-2.78,1.13-4.19,2.92A2.06,2.06,0,0,1,354.26,133.43Z"/></g><g><path fill="#4f2a1e" d="M347.64,190.6a24.51,24.51,0,0,1-10.3-2.16.61.61,0,0,1,.52-1.1A24.65,24.65,0,0,0,352,189a.61.61,0,0,1,.7.5.62.62,0,0,1-.5.7A27.85,27.85,0,0,1,347.64,190.6Z"/></g><g><path fill="#4f2a1e" d="M353.17,165.62a.6.6,0,0,1-.59-.47.61.61,0,0,1,.45-.73c3.11-.72,6.56-2.14,6.71-3.2.18-1.37-1.93-4.94-3.31-6.86a.61.61,0,0,1,.14-.85.6.6,0,0,1,.85.14c.39.55,3.84,5.44,3.52,7.74s-6.41,3.94-7.63,4.22Z"/></g><g><path fill="#ffffff" d="M356.59,172.15l-16.24,2.15C343.79,188.49,355.76,179.46,356.59,172.15Z" fill-rule="evenodd"/></g><g><ellipse rx="5.78" ry="5.2" fill="#925f59" cx="333.29" transform="rotate(-9.55 333.365 160.33)" cy="160.28"/></g><g><ellipse rx="5.78" ry="5.2" fill="#925f59" cx="368.57" transform="rotate(-9.55 368.642 154.356)" cy="154.34"/></g><g><path fill="#afc6a6" d="M305.2,208.84s-17.25,2.39-28.79,11.88,2.23,134,2.23,134H384.51s4.06-127.22-9.24-141c-3.61-1.8-18.7-5.06-18.7-5.06C363.2,231.13,323.84,234.19,305.2,208.84Z" fill-rule="evenodd"/></g><g><path fill="#92b286" d="M385.54,354.74l-2.07-.07c0-.82,2.55-82.28-3.21-121.24l2.05-.3C388.1,272.27,385.57,353.92,385.54,354.74Z"/></g><g><path fill="#7c4b38" d="M291.89 302.59L286.69 354.7 254.65 354.7 259.03 297.39 291.89 302.59z"/></g><g><path fill="#afc6a6" d="M273,225.56c-14.44,27.48-18.38,76.36-18.38,76.36l41.49,4.37s3.52-19.81,8.95-46.67S284.06,204.59,273,225.56Z"/></g><g><path fill="#92b286" d="M297.16,306.47l-2-.36c0-.2,3.58-20.13,8.95-46.7l2,.41C300.74,286.37,297.2,306.27,297.16,306.47Z"/></g><g><path fill="#e6e7e8" d="M105.62,53.55h-43A52.81,52.81,0,0,0,9.8,106.36v11a52.81,52.81,0,0,0,52.81,52.81h17.3l29,20.81-9.62-20.81h6.3a52.81,52.81,0,0,0,52.81-52.81v-11A52.81,52.81,0,0,0,105.62,53.55Z"/></g><g><circle fill="#939598" r="6.54" cx="111.75" cy="111.84"/></g><g><circle fill="#939598" r="6.54" cx="84.12" cy="111.84"/></g><g><circle fill="#939598" r="6.54" cx="56.48" cy="111.84"/></g><g><path fill="#cf797a" d="M222.34,225.83c2.65-11.14-3.56-22.38-.92-40.47,2.75-18.84,4.47-33.13-8-39.6-2-28.69-55.49-29.2-71.05-11-14.36,16.77-13.5,29.67-18.22,40.44s-12,18.19-13.7,23.14C95,243.52,211.51,271.3,222.34,225.83Z" fill-rule="evenodd"/></g><g><path fill="#ffe8f3" d="M141.22,246.32c-23,24.53-49.93,46.58-56.93,57.16s5.94,23.83,19.32,17,48.32-30.67,62.18-43.24S154.87,231.77,141.22,246.32Z"/></g><g><path fill="#fbcdc4" d="M72.77,243.48l-8.58-15.89a34.24,34.24,0,0,0,.72-10.15c-.62-7.35-1.75-14.79-2.74-15.82-6-6.26-7.53-9.87-8.33-10.45-1.13-.84-3,1-3.29,3.45s1.62,5.41,3.6,7.84c.38.47,1,2.83.51,3.27s-5.54-1.35-6.76-2-5.36-5.45-5.36-5.45-2.86-8.41-4.53-10.21c-2.45-2.65-5.55-2.1-5.86-1.07,0,0-.35-.58-.61-.92-1.66-2.19-7.66-2.26-6,1.24.58,1.19,1.46,2.94,1.46,2.94-.61,0-2.57.16-1.79,2.59.29.91,1.09,3.38,1.09,3.38-.62-.18-1.45-.12-1.26,1,.09.58,2.35,10.25,3,11.5s4.92,10.32,5.51,10.92c1.25,1.26,17.41,15.14,17.41,15.14l9.06,17Z"/></g><g><path fill="#dba19f" d="M57.31,224.39a.52.52,0,0,1-.46-.29c-3.05-6-4.16-11.21-3.4-15.83a.51.51,0,0,1,1,.17c-.72,4.39.36,9.37,3.31,15.2a.51.51,0,0,1-.23.69A.46.46,0,0,1,57.31,224.39Z"/></g><g><path fill="#dba19f" d="M44,216.84a.49.49,0,0,1-.21,0,.53.53,0,0,1-.27-.68,24.11,24.11,0,0,1,5.84-8.05.52.52,0,1,1,.69.77,23.07,23.07,0,0,0-5.58,7.69A.52.52,0,0,1,44,216.84Z"/></g><g><path fill="#dba19f" d="M55.54,226.55a.51.51,0,0,1-.48-.32c-.57-1.44-2-2.38-3.62-3.28l-12.08-6.89a.53.53,0,0,1-.2-.71.53.53,0,0,1,.71-.19L52,222.05c1.75,1,3.38,2,4.07,3.8a.52.52,0,0,1-.3.67Z"/></g><g><path fill="#dba19f" d="M43.43,207.16A.49.49,0,0,1,43,207l-4.49-5.81a.75.75,0,0,1-.07-.12,108.57,108.57,0,0,0-6.18-12.75l-.59-1.05a.52.52,0,0,1,.21-.7.52.52,0,0,1,.7.21c.15.28.34.62.58,1a108.45,108.45,0,0,1,6.2,12.81l4.45,5.76a.52.52,0,0,1-.4.83Z"/></g><g><path fill="#dba19f" d="M40.1,210.16a.5.5,0,0,1-.42-.22l-5.45-7.74a.54.54,0,0,1-.07-.13C30.74,191.76,29,190.86,27,190.75a.51.51,0,1,1,.05-1c2.83.15,4.76,2,8.07,11.94l5.41,7.68a.51.51,0,0,1-.12.72A.53.53,0,0,1,40.1,210.16Z"/></g><g><path fill="#dba19f" d="M36.41,214.38a.53.53,0,0,1-.46-.27l-4.14-7.68a.58.58,0,0,1,0-.14c-1.47-7.48-3.81-9.82-5.35-9.57a.53.53,0,0,1-.6-.42.52.52,0,0,1,.43-.59c1-.17,4.49.07,6.51,10.3l4.11,7.61a.52.52,0,0,1-.21.7A.53.53,0,0,1,36.41,214.38Z"/></g><g><path fill="#ffe8f3" d="M64.19,227.59l-14.38,7.89s23,71.21,35.72,82c14,11.82,29.88-3.94,20.68-20.5C96.84,280.08,64.19,227.59,64.19,227.59Z"/></g><g><path fill="#fbcdc4" d="M190.07,194c.52,10.44,1,27.85,4.69,36.23s5.35,2.61,10.06,7.26c-16.18,11.68-32.08,18.27-49.95,6.38,4.65-5.69,10-3.48,11.51-12.68s-.78-23-3.55-32.75C171.86,196.58,180.9,195,190.07,194Z"/></g><g><path fill="#ffe8f3" d="M146.41,242.8c-4.41,1.61-8.56,6.19-9.21,10.11-1.48,8.81,1.07,11.46.34,21-.55,7.12-4.14,18.64-4.6,27.41s4.58,16.39,11.69,21.62c-1.64,23.28-3.79,46.53-7.42,69.55,30.71,4.89,61.23,5.56,91.72-.8-3.11-9.75-7.8-27.4-7.28-36.41C222.94,332.43,232,304,235,286c3.16-19-.1-31.91-8.1-42.23s-19.45-6.51-25.86-9.92-4.19-10.38-6-10.38c-11,0-22.05,1.29-31.94,4.46-.76.24,1.54,5.52-1.34,8.72S150.82,241.19,146.41,242.8Z"/></g><g><path fill="#e6cfd2" d="M180.87,321.24a.93.93,0,0,1-.7-.31c-13.68-14.79-7.89-27.57,1.1-42.75a1,1,0,1,1,1.65,1c-8.86,15-14.15,26.62-1.34,40.46a1,1,0,0,1-.05,1.36A.94.94,0,0,1,180.87,321.24Z"/></g><g><path fill="#e6cfd2" d="M137.21,393.46h-.15a1,1,0,0,1-.8-1.1c3.12-19.78,5.4-41.06,7.37-68.92-6.16-5.16-12.23-11.87-11.63-22.32a84.82,84.82,0,0,1,2.31-13.73A78.25,78.25,0,0,0,136.62,273a1,1,0,0,1,1-.93,1,1,0,0,1,.93,1,79.83,79.83,0,0,1-2.35,14.77,82.5,82.5,0,0,0-2.27,13.42c-.57,9.78,5.11,15.9,11.32,21l.38.32,0,.49c-2,28.16-4.27,49.62-7.42,69.57A1,1,0,0,1,137.21,393.46Z"/></g><g><path fill="#fbcdc4" d="M192.86,192.41c-7.06,15-18.81,21.28-28.75,22.44-10.74,1.26-28.19-9.44-25.41-25.53,2.41-13.94,4.1-37.24,8.62-42.33,7.45-8.4,43.06-3,46.41,8.19C196.69,165.06,192.86,192.41,192.86,192.41Z"/></g><g><path fill="#cf797a" d="M160.66,146.34c-12.06,3.12-19.07,12.14-22.95,24.78,0,0,2.5-25.13,8.79-30.8s46.74-4.85,52.35,5.05,2.1,36.25,2.1,36.25C182.62,177,161.34,161.62,160.66,146.34Z" fill-rule="evenodd"/></g><g><circle fill="#e7a8a2" r="4.48" cx="145.13" cy="185.15"/></g><g><circle fill="#e7a8a2" r="4.48" cx="178.81" cy="190.94"/></g><g><path fill="#dba19f" d="M163.07,215.75a11.37,11.37,0,0,1-1.15-.06.83.83,0,0,1-.74-.92.84.84,0,0,1,.91-.75,8.79,8.79,0,0,0,1.92,0,31.76,31.76,0,0,0,9.33-2.59A.83.83,0,0,1,174,213a33.39,33.39,0,0,1-9.82,2.73A10.23,10.23,0,0,1,163.07,215.75Z"/></g><g><path fill="#fbcdc4" d="M203.36,192.41c-.73,4.79-6.59,8.92-11,8.26s-5.58-5.87-4.85-10.67,4.86-8.14,9.22-7.47S204.09,187.62,203.36,192.41Z"/></g><g><path fill="#dba19f" d="M191.34,196.64a.83.83,0,0,1-.79-.57,8,8,0,0,1,3.77-9.43c2.13-1.12,5.29-1.16,7.72,2.05a.84.84,0,0,1-1.34,1c-1.55-2.06-3.6-2.64-5.61-1.58a6.34,6.34,0,0,0-3,7.43.82.82,0,0,1-.53,1A.78.78,0,0,1,191.34,196.64Z"/></g><g><ellipse rx="5.4" ry="4.13" fill="#3c2415" cx="173.06" transform="rotate(-81.34 173.052 180.099)" cy="180.1"/></g><g><ellipse rx="5.4" ry="4.13" fill="#3c2415" cx="150.71" transform="rotate(-81.34 150.696 176.72)" cy="176.72"/></g><g><path fill="#dba19f" d="M153.76,190.83l-.21,0a5.42,5.42,0,0,1-3.85-3.69,2.32,2.32,0,0,1,.91-2.38,40.07,40.07,0,0,0,3.84-3.21.83.83,0,1,1,1.17,1.19,40.52,40.52,0,0,1-4,3.36.64.64,0,0,0-.26.72,3.84,3.84,0,0,0,2.62,2.39.83.83,0,0,1,.61,1A.84.84,0,0,1,153.76,190.83Z"/></g><g><path fill="#ffffff" d="M154.48,196.31c6.76,10.93,13.85,9.24,13.38.17Z"/></g><g><path fill="#372940" d="M181.22,168a1.41,1.41,0,0,1-1.32-.91,4,4,0,0,0-6.05-2.65,1.41,1.41,0,1,1-1-2.62,6.72,6.72,0,0,1,9.73,4.28,1.41,1.41,0,0,1-.82,1.81A1.43,1.43,0,0,1,181.22,168Z"/></g><g><path fill="#372940" d="M147.21,161.75a1.45,1.45,0,0,1-.84-.27,1.42,1.42,0,0,1-.3-2,5.64,5.64,0,0,1,3.92-2.57,6,6,0,0,1,4.61,1.91,1.41,1.41,0,0,1-1.91,2.08,3.45,3.45,0,0,0-2.42-1.19,3.06,3.06,0,0,0-1.93,1.44A1.4,1.4,0,0,1,147.21,161.75Z"/></g><g><path fill="#fbcdc4" d="M300.08,271.09l14.66-10.84a34.5,34.5,0,0,1,3.7-9.58c3.71-6.46,7.93-12.77,9.29-13.29,8.19-3.14,11.11-5.79,12.09-6,1.39-.28,2.33,2.18,1.52,4.57s-3.8,4.24-6.65,5.61c-.55.27-2.08,2.19-1.87,2.78s5.64,1.13,7.05,1,7.23-2.69,7.23-2.69,6.22-6.46,8.52-7.39c3.38-1.36,6,.47,5.82,1.54,0,0,.57-.38.95-.58,2.45-1.29,8,1.23,4.93,3.7-1,.84-2.59,2.06-2.59,2.06.54.29,2.28,1.25.52,3.14l-2.45,2.62c.65.1,1.38.5.74,1.44-.34.49-6.55,8.37-7.63,9.25s-8.92,7.32-9.72,7.62c-1.68.61-20.85,5.21-20.85,5.21l-17.11,12.76Z"/></g><g><path fill="#dba19f" d="M322.62,260.32a.51.51,0,0,1-.4-.2.52.52,0,0,1,.08-.73c5.2-4.07,8.32-8.15,9.54-12.48a.52.52,0,0,1,.65-.35.51.51,0,0,1,.35.64c-1.28,4.54-4.52,8.8-9.89,13A.57.57,0,0,1,322.62,260.32Z"/></g><g><path fill="#dba19f" d="M338,259.13h0a.52.52,0,0,1-.51-.53,23.46,23.46,0,0,0-1.8-9.43.52.52,0,0,1,.27-.68.51.51,0,0,1,.68.28,24.14,24.14,0,0,1,1.89,9.85A.53.53,0,0,1,338,259.13Z"/></g><g><path fill="#dba19f" d="M323.31,263.06a.52.52,0,0,1-.35-.9c1.38-1.31,3.31-1.56,5.34-1.72l14-1.12a.52.52,0,1,1,.08,1l-14,1.12c-1.84.15-3.58.37-4.72,1.44A.51.51,0,0,1,323.31,263.06Z"/></g><g><path fill="#dba19f" d="M342.7,250.53a.52.52,0,0,1-.46-.29.53.53,0,0,1,.22-.7l6.54-3.35a108.54,108.54,0,0,1,11.17-9l1-.7a.52.52,0,0,1,.62.84l-1,.7a107,107,0,0,0-11.12,9l-.11.08-6.6,3.39A.53.53,0,0,1,342.7,250.53Z"/></g><g><path fill="#dba19f" d="M344.45,254.7a.52.52,0,0,1-.26-1l8.24-4.7c7.3-7.69,9.85-8.53,12.5-7.46a.52.52,0,0,1,.28.68.54.54,0,0,1-.68.29c-1.84-.76-3.86-.7-11.4,7.26a.47.47,0,0,1-.12.09l-8.3,4.74A.51.51,0,0,1,344.45,254.7Z"/></g><g><path fill="#dba19f" d="M346,260.14a.51.51,0,0,1-.42-.21.52.52,0,0,1,.11-.73l7-5.19c6.24-8.49,9.52-7.22,10.38-6.63a.52.52,0,0,1,.13.72.52.52,0,0,1-.72.14c-1.31-.91-4.45.24-9,6.45a1.14,1.14,0,0,1-.11.11L346.33,260A.63.63,0,0,1,346,260.14Z"/></g><g><path fill="#ffe8f3" d="M254.35,297.4c9.35-7.2,56.27-36.7,56.27-36.7l12.49,14.7s-37.93,36.86-49.8,46.12C255,335.81,235,312.31,254.35,297.4Z"/></g><g><path fill="#ffe8f3" d="M225.27,242.6c12.39,14,36.87,46.42,47.82,62.9,9.84,14.8-12.83,23.2-20.59,17.54s-30.88-32.15-37.76-42.24S213.28,229.08,225.27,242.6Z"/></g><g><path fill="#e6cfd2" d="M252.5,324a.93.93,0,0,1-.57-.19c-8.08-5.89-31.36-32.76-38-42.47a1,1,0,0,1,.25-1.33,1,1,0,0,1,1.34.25c7.18,10.54,30.06,36.56,37.53,42a1,1,0,0,1-.57,1.74Z"/></g><g><path fill="#a3978e" d="M283.32,267.4,232,265.82c-14.08,3.17-27.28,4.37-32.41,21.94-7.23,24.77,7.2,140.28,7.2,140.28H310.68s8.3-143.72-4.12-153.41C300.75,270.1,296.7,269.77,283.32,267.4Z"/></g><g><path fill="#ffc1a5" d="M273.33,231.69c-1.83,11.59-2.66,23.64.95,30.37,1.78,3.29,6.44,4.71,9,5.34,0,0,14.39,27.8-8.68,27.8S232,265.82,232,265.82s8.83-1.57,11.4-6,4.85-24.39,2.07-37.38Z"/></g><g><path fill="#633a48" d="M219.8,184.3c-2.89,6.9-1,14.87-.31,17.75,4.22,17.74,20,25.95,22.76,27.31,35.36-21.71,57.82-48.16,53.38-58.94C289.53,155.58,229.58,160.9,219.8,184.3Z"/></g><g><path fill="#ffc1a5" d="M292.75,171s9.52,30.47,11.88,45.93-13.43,29.55-29.74,28.4-26.28-14.4-26.28-14.4-1.56-5-4.18-14.83c7.18-17.57-.56-27.57,1.18-29.7C248.71,182.58,292.75,171,292.75,171Z"/></g><g><ellipse rx="3.9" ry="5.14" fill="#ffada4" cx="262.41" transform="rotate(-86.59 262.392 218.02)" cy="218.02"/></g><g><ellipse rx="3.28" ry="4.32" fill="#ffada4" cx="297.57" transform="rotate(-86.59 297.546 210.66)" cy="210.66"/></g><g><path fill="#ec876c" d="M276.82,245.87a33.31,33.31,0,0,1-12.74-2.68.53.53,0,0,1-.27-.69.52.52,0,0,1,.69-.27,31.51,31.51,0,0,0,14,2.54.52.52,0,0,1,.56.48.53.53,0,0,1-.49.56C278,245.85,277.41,245.87,276.82,245.87Z"/></g><g><path fill="#ffc1a5" d="M248.61,230.88c-15.63,7.64-21.74-20.48-4.18-14.83Z"/></g><g><path fill="#633a48" d="M245.61,186.35c33.46-12.87,39.52-8.16,53.12-15s8.42-30.83,3.29-34c-3.6,7.48-20,8.86-42.54,7.61-21.52-1.18-42.34,11.19-39.68,39.34C220.5,191.74,245.61,186.35,245.61,186.35Z"/></g><g><path fill="#ec876c" d="M246.19,227.29a.52.52,0,0,1-.29-.09L236,220.67a.52.52,0,0,1,.57-.88l9.88,6.54a.52.52,0,0,1,.15.72A.53.53,0,0,1,246.19,227.29Z"/></g><g><ellipse rx="4.53" ry="5.62" fill="#3c2415" cx="266.37" transform="rotate(-10.5 266.238 206.152)" cy="206.25"/></g><g><ellipse rx="4.53" ry="5.62" fill="#3c2415" cx="291.21" transform="rotate(-10.5 291.077 201.575)" cy="201.66"/></g><g><path fill="#ec876c" d="M288,220.07a.54.54,0,0,1-.42-.21.52.52,0,0,1,.11-.73s3-2.33,2.07-4.09a10.56,10.56,0,0,0-3.1-2.76,18.65,18.65,0,0,1-4.39-3.85.54.54,0,0,1,.11-.74.52.52,0,0,1,.73.11,18,18,0,0,0,4.15,3.63,10.82,10.82,0,0,1,3.43,3.12c1.36,2.58-2.22,5.3-2.37,5.42A.55.55,0,0,1,288,220.07Z"/></g><g><path fill="#633a48" d="M252.79,194.61a1.88,1.88,0,0,1-.46-.06,1.84,1.84,0,0,1-1.32-2.24,8.35,8.35,0,0,1,6.24-6.26,7.39,7.39,0,0,1,7.35,2.35,1.84,1.84,0,1,1-2.83,2.35,3.76,3.76,0,0,0-3.72-1.11,4.67,4.67,0,0,0-3.48,3.6A1.84,1.84,0,0,1,252.79,194.61Z"/></g><g><path fill="#633a48" d="M291.17,186.22a1.84,1.84,0,0,1-1.46-.72,3.76,3.76,0,0,0-6.23-.05,1.84,1.84,0,0,1-3-2.16,7.61,7.61,0,0,1,6-3.15,7.51,7.51,0,0,1,6.11,3.13,1.83,1.83,0,0,1-1.46,2.95Z"/></g><g><path fill="#ffffff" d="M270.33,226c-.15,16.33,12.49,15,17-1.12Z"/></g><g><path fill="#a3978e" d="M199.15,288.83c-3,34-3.61,78.48-.38,91.8s20.11,17.32,24.52,1.7S235.5,335.16,235.73,315,201.07,267.37,199.15,288.83Z"/></g><g><path fill="#918378" d="M224.29,382.61l-2-.56c2-7.18,12.14-44.11,12.4-67.1l2.08,0C236.5,338.22,226.33,375.4,224.29,382.61Z"/></g><g><path fill="#ffc1a5" d="M247.8,363.86l39-3.43a21.15,21.15,0,0,1,8.49-7.81c7.63-3.77,15.66-7.07,17.28-6.7,9.77,2.24,14.22,1.59,15.28,2,1.49.62.82,3.55-1.47,5.3s-6.31,1.62-9.88,1.1c-.7-.1-3.37.75-3.54,1.44s1.43,2.34,2.82,3.15,8.13,2.35,8.13,2.35,13.66-.12,16.43.46c4.07.86,5.36,4.25,4.54,5.16,0,0,.78,0,1.27.06,3.15.34,6.78,6.24,2.32,6.65-1.52.14-3.77.31-3.77.31.33.61,1.37,2.62-1.51,3.3l-4,.93c.55.51,1,1.36-.22,1.84-.63.25-11.54,3.77-13.13,3.92s-13.13,1.26-14.07,1c-2-.49-24-7-24-7l-35.87,2.25Z"/></g><g><path fill="#ec876c" d="M326.55,369.86l-8.56-1a.58.58,0,0,1-.52-.66.61.61,0,0,1,.66-.53l8.42,1,18.21-2.35a.6.6,0,0,1,.15,1.19Z"/></g><g><path fill="#ec876c" d="M328.64,377.14h-.06L316.53,376a.58.58,0,0,1-.53-.65.59.59,0,0,1,.65-.54l12,1.18,15.94-2.6a.6.6,0,1,1,.19,1.18l-16,2.61Z"/></g><g><path fill="#ec876c" d="M325.78,381.55h0l-9.94-.49a.61.61,0,0,1-.57-.63.65.65,0,0,1,.63-.57l9.86.49L339,377.58a.6.6,0,1,1,.24,1.17l-13.38,2.78Z"/></g><g><path fill="#a3978e" d="M211.61,363.75c-12.26,5-20,30.4,4.75,28.83,23.78-1.5,70.42-8.86,70.42-8.86l-1.57-23.43S222.87,359.12,211.61,363.75Z"/></g><g><path fill="#918378" d="M216.43,393.62l-.13-2.08c23.45-1.48,69.86-8.77,70.32-8.85l.33,2.06C286.48,384.82,240,392.13,216.43,393.62Z"/></g><g><path fill="#918378" d="M212,364.71l-.78-1.92c11.32-4.66,71.45-3.59,74-3.54l0,2.08C284.56,361.31,222.94,360.22,212,364.71Z"/></g><g><path fill="#a3978e" d="M307,274.76c4.32,3.38,48.15,50.63,55.07,60.76,7.95,11.64,6.55,36.21-8.76,28s-58.63-40.69-66.38-50.64S295.28,265.63,307,274.76Z"/></g><g><path fill="#ffc1a5" d="M380.77,234.75c1.06-2.15,5.26-17,10.11-24.15,2.5-3.66,6-1.8,5.39.67-1.4,5.36-7.24,22.29-6.89,23.17.6,1.53,3.45,1.67,4.37,2.28,1.8,1.52,2.4,3.09,1.95,4.7,2.15-.19,4.84,2.69,4.52,5.17,2.15.46,4.09,3.29,2.41,6.86s-6.57,15.42-8.17,17.34a29.9,29.9,0,0,1-4.3,3.92l-6.1,17.91-14.87-6.1,5.49-17.1s-6.58-9.09-7-11.12c-.36-1.63-1.08-7.74-1.29-8.89-.7-3.75-1.38-9.74-3.24-14s7-3.71,8.47,2.08,3,8.13,4.09,8.44S379.79,236.75,380.77,234.75Z"/></g><g><path fill="#ec876c" d="M395.44,259.83a5.52,5.52,0,0,1-3.94-1.7,2.49,2.49,0,0,1-.51-1.35,4.2,4.2,0,0,1-3.87-1,3.93,3.93,0,0,1-1.41-3.25,3.35,3.35,0,0,1-2.11-1.18,4.87,4.87,0,0,1-.89-5.09c.52-1.23,6.76-9.58,7.71-10.08s2.84-.19,3.43-.09a.6.6,0,0,1-.19,1.18,7,7,0,0,0-2.68,0,78.65,78.65,0,0,0-7.16,9.48,3.65,3.65,0,0,0,.67,3.83,1.87,1.87,0,0,0,1.81.75.6.6,0,0,1,.73.79,2.61,2.61,0,0,0,.88,2.79,3,3,0,0,0,3.51.41.61.61,0,0,1,.67.07.59.59,0,0,1,.18.64,1.46,1.46,0,0,0,.19,1.37,4.42,4.42,0,0,0,3,1.22,8,8,0,0,0,3.64-1.75,30,30,0,0,0,3-3.77A.59.59,0,0,1,403,253a.6.6,0,0,1,.15.83,30.3,30.3,0,0,1-3.26,4,9,9,0,0,1-4.34,2Z"/></g><g><path fill="#ec876c" d="M386.48,252.51a.6.6,0,0,1-.31-1.11c3.07-1.84,5.94-5.11,9-10.29a.6.6,0,1,1,1,.62c-3.18,5.35-6.18,8.75-9.43,10.7A.64.64,0,0,1,386.48,252.51Z"/></g><g><path fill="#ec876c" d="M391.7,256.46a.6.6,0,0,1-.35-1.09,34.45,34.45,0,0,0,8.37-9.11.59.59,0,0,1,.83-.17.6.6,0,0,1,.17.83,35.69,35.69,0,0,1-8.67,9.42A.57.57,0,0,1,391.7,256.46Z"/></g><g><path fill="#ec876c" d="M387.26,262.77h-.08a.58.58,0,0,1-.51-.67,18.53,18.53,0,0,0-.16-7,.6.6,0,0,1,1.16-.29,20.39,20.39,0,0,1,.19,7.49A.61.61,0,0,1,387.26,262.77Z"/></g><g><path fill="#a3978e" d="M366,362.23c-6.9,10.79-26.87-5.49-19.28-28.21,6.59-19.73,25.9-62.44,25.9-62.44L392,281.07S372.29,352.32,366,362.23Z"/></g><g><path fill="#ffffff" d="M191.64,281a51.29,51.29,0,0,0-51.23,51.23v11a51.28,51.28,0,0,0,51.23,51.22h43a51.28,51.28,0,0,0,51.22-51.22v-11A51.28,51.28,0,0,0,234.65,281h-1.22a1.57,1.57,0,0,1-1.54-2l5.89-24.3-23.56,25.75a1.57,1.57,0,0,1-1.17.51Z"/></g><g><circle fill="#e6e7e8" r="6.54" cx="240.78" cy="337.66"/></g><g><circle fill="#e6e7e8" r="6.54" cx="213.14" cy="337.66"/></g><g><circle fill="#e6e7e8" r="6.54" cx="185.51" cy="337.66"/></g></svg>