<?xml version="1.0" encoding="UTF-8"?><svg xmlns="http://www.w3.org/2000/svg" xmlns:xlink="http://www.w3.org/1999/xlink" contentScriptType="text/ecmascript" fill="#000000" width="444.4" zoomAndPan="magnify" contentStyleType="text/css" viewBox="-8.8 -3.3 444.4 628.2" height="628.2" preserveAspectRatio="xMidYMid meet" version="1"><defs><clipPath id="a"><path d="M 388 391 L 432.558594 391 L 432.558594 449 L 388 449 Z M 388 391"/></clipPath><clipPath id="b"><path d="M 106 464 L 206 464 L 206 624.851562 L 106 624.851562 Z M 106 464"/></clipPath><clipPath id="c"><path d="M 177 596 L 205 596 L 205 624.851562 L 177 624.851562 Z M 177 596"/></clipPath><clipPath id="d"><path d="M 154 600 L 181 600 L 181 624.851562 L 154 624.851562 Z M 154 600"/></clipPath><clipPath id="e"><path d="M 127 599 L 156 599 L 156 624.851562 L 127 624.851562 Z M 127 599"/></clipPath><clipPath id="f"><path d="M 86 420 L 194 420 L 194 485 L 86 485 Z M 86 420"/></clipPath><clipPath id="g"><path d="M 90.066406 420.902344 C 90.066406 420.902344 78.902344 437.355469 93.59375 446.761719 C 98.925781 450.171875 99.46875 453.8125 97.707031 463.214844 C 95.941406 472.613281 97.121094 486.132812 109.460938 483.785156 C 121.800781 481.429688 133.554688 474.378906 150.011719 475.550781 C 166.460938 476.730469 184.089844 484.960938 189.382812 476.730469 C 194.671875 468.503906 194.085938 459.6875 190.558594 454.984375 C 187.03125 450.285156 193.496094 449.109375 188.207031 439.121094 C 182.917969 429.132812 178.214844 432.070312 178.214844 432.070312 C 178.214844 432.070312 184.683594 442.648438 181.742188 449.109375 C 178.804688 455.574219 184.683594 470.265625 171.753906 466.15625 C 158.824219 462.039062 137.664062 462.234375 126.503906 465.171875 C 115.339844 468.109375 105.34375 467.914062 108.875 457.921875 C 112.398438 447.933594 104.171875 446.761719 100.644531 441.472656 C 97.121094 436.179688 91.832031 432.070312 90.066406 420.902344"/></clipPath><clipPath id="h"><path d="M 90.066406 420.902344 C 90.066406 420.902344 78.902344 437.355469 93.59375 446.761719 C 98.925781 450.171875 99.46875 453.8125 97.707031 463.214844 C 95.941406 472.613281 97.121094 486.132812 109.460938 483.785156 C 121.800781 481.429688 133.554688 474.378906 150.011719 475.550781 C 166.460938 476.730469 184.089844 484.960938 189.382812 476.730469 C 194.671875 468.503906 194.085938 459.6875 190.558594 454.984375 C 187.03125 450.285156 193.496094 449.109375 188.207031 439.121094 C 182.917969 429.132812 178.214844 432.070312 178.214844 432.070312 C 178.214844 432.070312 184.683594 442.648438 181.742188 449.109375 C 178.804688 455.574219 184.683594 470.265625 171.753906 466.15625 C 158.824219 462.039062 137.664062 462.234375 126.503906 465.171875 C 115.339844 468.109375 105.34375 467.914062 108.875 457.921875 C 112.398438 447.933594 104.171875 446.761719 100.644531 441.472656 C 97.121094 436.179688 91.832031 432.070312 90.066406 420.902344"/></clipPath><clipPath id="j"><path d="M 207 464 L 307 464 L 307 624.851562 L 207 624.851562 Z M 207 464"/></clipPath><clipPath id="k"><path d="M 208 596 L 236 596 L 236 624.851562 L 208 624.851562 Z M 208 596"/></clipPath><clipPath id="l"><path d="M 232 600 L 259 600 L 259 624.851562 L 232 624.851562 Z M 232 600"/></clipPath><clipPath id="m"><path d="M 256 599 L 286 599 L 286 624.851562 L 256 624.851562 Z M 256 599"/></clipPath><clipPath id="n"><path d="M 219 420 L 327 420 L 327 485 L 219 485 Z M 219 420"/></clipPath><clipPath id="o"><path d="M 322.78125 420.902344 C 322.78125 420.902344 333.949219 437.355469 319.257812 446.761719 C 313.921875 450.171875 313.378906 453.8125 315.140625 463.214844 C 316.90625 472.613281 315.726562 486.132812 303.386719 483.785156 C 291.046875 481.429688 279.296875 474.378906 262.839844 475.550781 C 246.386719 476.730469 228.757812 484.960938 223.464844 476.730469 C 218.175781 468.503906 218.765625 459.6875 222.289062 454.984375 C 225.816406 450.285156 219.351562 449.109375 224.640625 439.121094 C 229.929688 429.132812 234.632812 432.070312 234.632812 432.070312 C 234.632812 432.070312 228.164062 442.648438 231.105469 449.109375 C 234.042969 455.574219 228.164062 470.265625 241.097656 466.15625 C 254.023438 462.039062 275.183594 462.234375 286.34375 465.171875 C 297.511719 468.109375 307.503906 467.914062 303.972656 457.921875 C 300.449219 447.933594 308.675781 446.761719 312.203125 441.472656 C 315.726562 436.179688 321.015625 432.070312 322.78125 420.902344"/></clipPath><clipPath id="p"><path d="M 322.78125 420.902344 C 322.78125 420.902344 333.949219 437.355469 319.257812 446.761719 C 313.921875 450.171875 313.378906 453.8125 315.140625 463.214844 C 316.90625 472.613281 315.726562 486.132812 303.386719 483.785156 C 291.046875 481.429688 279.296875 474.378906 262.839844 475.550781 C 246.386719 476.730469 228.757812 484.960938 223.464844 476.730469 C 218.175781 468.503906 218.765625 459.6875 222.289062 454.984375 C 225.816406 450.285156 219.351562 449.109375 224.640625 439.121094 C 229.929688 429.132812 234.632812 432.070312 234.632812 432.070312 C 234.632812 432.070312 228.164062 442.648438 231.105469 449.109375 C 234.042969 455.574219 228.164062 470.265625 241.097656 466.15625 C 254.023438 462.039062 275.183594 462.234375 286.34375 465.171875 C 297.511719 468.109375 307.503906 467.914062 303.972656 457.921875 C 300.449219 447.933594 308.675781 446.761719 312.203125 441.472656 C 315.726562 436.179688 321.015625 432.070312 322.78125 420.902344"/></clipPath><clipPath id="r"><path d="M 10 498 L 95 498 L 95 608 L 10 608 Z M 10 498"/></clipPath><clipPath id="s"><path d="M 91.902344 538.300781 C 99.582031 565.816406 88.179688 601.574219 68.957031 606.9375 C 49.730469 612.300781 20.015625 586.792969 12.34375 559.28125 C 4.664062 531.769531 20.570312 504.515625 39.800781 499.152344 C 59.023438 493.789062 84.226562 510.796875 91.902344 538.300781"/></clipPath><clipPath id="t"><path d="M 91.902344 538.300781 C 99.582031 565.816406 88.179688 601.574219 68.957031 606.9375 C 49.730469 612.300781 20.015625 586.792969 12.34375 559.28125 C 4.664062 531.769531 20.570312 504.515625 39.800781 499.152344 C 59.023438 493.789062 84.226562 510.796875 91.902344 538.300781"/></clipPath><radialGradient gradientTransform="rotate(90 -136.817 277.424)" xmlns:xlink="http://www.w3.org/1999/xlink" gradientUnits="userSpaceOnUse" xlink:type="simple" r="72.002" xlink:actuate="onLoad" cx="0" id="i" cy="0" xlink:show="other" fx="0" fy="0"><stop stop-color="#94a7ab" offset="0"/><stop stop-color="#93a6aa" offset="0.008"/><stop stop-color="#92a6aa" offset="0.02"/><stop stop-color="#92a5aa" offset="0.031"/><stop stop-color="#91a4a9" offset="0.043"/><stop stop-color="#90a4a8" offset="0.055"/><stop stop-color="#8fa3a8" offset="0.066"/><stop stop-color="#8ea2a8" offset="0.078"/><stop stop-color="#8da1a7" offset="0.09"/><stop stop-color="#8ca1a7" offset="0.102"/><stop stop-color="#8ca0a7" offset="0.113"/><stop stop-color="#8ca0a6" offset="0.125"/><stop stop-color="#8b9fa5" offset="0.137"/><stop stop-color="#8a9ea5" offset="0.148"/><stop stop-color="#899ea5" offset="0.16"/><stop stop-color="#899da4" offset="0.172"/><stop stop-color="#889ca4" offset="0.184"/><stop stop-color="#879ca4" offset="0.195"/><stop stop-color="#869ba3" offset="0.207"/><stop stop-color="#859aa2" offset="0.219"/><stop stop-color="#8499a2" offset="0.23"/><stop stop-color="#8499a2" offset="0.242"/><stop stop-color="#8398a1" offset="0.254"/><stop stop-color="#8297a0" offset="0.273"/><stop stop-color="#8297a0" offset="0.281"/><stop stop-color="#8296a0" offset="0.289"/><stop stop-color="#8196a0" offset="0.297"/><stop stop-color="#8196a0" offset="0.305"/><stop stop-color="#80959f" offset="0.313"/><stop stop-color="#7f959f" offset="0.32"/><stop stop-color="#7f949f" offset="0.328"/><stop stop-color="#7e949e" offset="0.336"/><stop stop-color="#7e939e" offset="0.344"/><stop stop-color="#7d929d" offset="0.352"/><stop stop-color="#7d929d" offset="0.359"/><stop stop-color="#7c929d" offset="0.367"/><stop stop-color="#7c929d" offset="0.375"/><stop stop-color="#7b919d" offset="0.383"/><stop stop-color="#7b909c" offset="0.391"/><stop stop-color="#7a909b" offset="0.398"/><stop stop-color="#798f9b" offset="0.414"/><stop stop-color="#798f9b" offset="0.418"/><stop stop-color="#798e9b" offset="0.422"/><stop stop-color="#788e9a" offset="0.43"/><stop stop-color="#788d9a" offset="0.445"/><stop stop-color="#778d9a" offset="0.453"/><stop stop-color="#778c99" offset="0.461"/><stop stop-color="#768c99" offset="0.465"/><stop stop-color="#768b99" offset="0.473"/><stop stop-color="#758b99" offset="0.488"/><stop stop-color="#758a98" offset="0.496"/><stop stop-color="#758a98" offset="0.504"/><stop stop-color="#758998" offset="0.508"/><stop stop-color="#748998" offset="0.512"/><stop stop-color="#748897" offset="0.516"/><stop stop-color="#748897" offset="0.527"/><stop stop-color="#748797" offset="0.531"/><stop stop-color="#738797" offset="0.535"/><stop stop-color="#738797" offset="0.539"/><stop stop-color="#728797" offset="0.543"/><stop stop-color="#728696" offset="0.555"/><stop stop-color="#718596" offset="0.566"/><stop stop-color="#708595" offset="0.578"/><stop stop-color="#708495" offset="0.582"/><stop stop-color="#6f8394" offset="0.594"/><stop stop-color="#6f8393" offset="0.605"/><stop stop-color="#6e8293" offset="0.617"/><stop stop-color="#6e8293" offset="0.629"/><stop stop-color="#6d8193" offset="0.637"/><stop stop-color="#6c8192" offset="0.645"/><stop stop-color="#6c8092" offset="0.652"/><stop stop-color="#6b8092" offset="0.66"/><stop stop-color="#6b7f92" offset="0.668"/><stop stop-color="#6a7f91" offset="0.676"/><stop stop-color="#6a7e91" offset="0.684"/><stop stop-color="#697e90" offset="0.691"/><stop stop-color="#697d90" offset="0.699"/><stop stop-color="#687d90" offset="0.707"/><stop stop-color="#687d90" offset="0.715"/><stop stop-color="#677c90" offset="0.723"/><stop stop-color="#677c8f" offset="0.73"/><stop stop-color="#677b8f" offset="0.738"/><stop stop-color="#667b8e" offset="0.746"/><stop stop-color="#667b8e" offset="0.754"/><stop stop-color="#667b8e" offset="0.758"/><stop stop-color="#657a8e" offset="0.762"/><stop stop-color="#657a8e" offset="0.766"/><stop stop-color="#64798d" offset="0.777"/><stop stop-color="#64788d" offset="0.789"/><stop stop-color="#63788d" offset="0.801"/><stop stop-color="#63788d" offset="0.805"/><stop stop-color="#62778c" offset="0.809"/><stop stop-color="#62778c" offset="0.82"/><stop stop-color="#61768b" offset="0.828"/><stop stop-color="#61768b" offset="0.836"/><stop stop-color="#61758b" offset="0.844"/><stop stop-color="#60758b" offset="0.848"/><stop stop-color="#5f748a" offset="0.855"/><stop stop-color="#5f7489" offset="0.863"/><stop stop-color="#5f7389" offset="0.871"/><stop stop-color="#5e7389" offset="0.887"/><stop stop-color="#5e7389" offset="0.891"/><stop stop-color="#5d7289" offset="0.895"/><stop stop-color="#5c7288" offset="0.906"/><stop stop-color="#5b7187" offset="0.918"/><stop stop-color="#5b7187" offset="0.926"/><stop stop-color="#5b7087" offset="0.934"/><stop stop-color="#5a7087" offset="0.941"/><stop stop-color="#5a6f86" offset="0.953"/><stop stop-color="#596e86" offset="0.965"/><stop stop-color="#596e85" offset="0.973"/><stop stop-color="#586e85" offset="0.977"/><stop stop-color="#586d85" offset="0.98"/><stop stop-color="#586d85" offset="0.988"/><stop stop-color="#576d84" offset="1"/></radialGradient><radialGradient gradientTransform="matrix(0 1 1 0 272.241 414.241)" xmlns:xlink="http://www.w3.org/1999/xlink" gradientUnits="userSpaceOnUse" xlink:type="simple" r="72.002" xlink:actuate="onLoad" cx="0" id="q" cy="0" xlink:show="other" fx="0" fy="0"><stop stop-color="#94a7ab" offset="0"/><stop stop-color="#93a6aa" offset="0.008"/><stop stop-color="#92a6aa" offset="0.02"/><stop stop-color="#92a5aa" offset="0.031"/><stop stop-color="#91a4a9" offset="0.043"/><stop stop-color="#90a4a8" offset="0.055"/><stop stop-color="#8fa3a8" offset="0.066"/><stop stop-color="#8ea2a8" offset="0.078"/><stop stop-color="#8da1a7" offset="0.09"/><stop stop-color="#8ca1a7" offset="0.102"/><stop stop-color="#8ca0a7" offset="0.113"/><stop stop-color="#8ca0a6" offset="0.125"/><stop stop-color="#8b9fa5" offset="0.137"/><stop stop-color="#8a9ea5" offset="0.148"/><stop stop-color="#899ea5" offset="0.16"/><stop stop-color="#899da4" offset="0.172"/><stop stop-color="#889ca4" offset="0.184"/><stop stop-color="#879ca4" offset="0.195"/><stop stop-color="#869ba3" offset="0.207"/><stop stop-color="#859aa2" offset="0.219"/><stop stop-color="#8499a2" offset="0.23"/><stop stop-color="#8499a2" offset="0.242"/><stop stop-color="#8398a1" offset="0.254"/><stop stop-color="#8297a0" offset="0.273"/><stop stop-color="#8297a0" offset="0.281"/><stop stop-color="#8296a0" offset="0.289"/><stop stop-color="#8196a0" offset="0.297"/><stop stop-color="#8196a0" offset="0.305"/><stop stop-color="#80959f" offset="0.313"/><stop stop-color="#7f959f" offset="0.32"/><stop stop-color="#7f949f" offset="0.328"/><stop stop-color="#7e949e" offset="0.336"/><stop stop-color="#7e939e" offset="0.344"/><stop stop-color="#7d929d" offset="0.352"/><stop stop-color="#7d929d" offset="0.359"/><stop stop-color="#7c929d" offset="0.367"/><stop stop-color="#7c929d" offset="0.375"/><stop stop-color="#7b919d" offset="0.383"/><stop stop-color="#7b909c" offset="0.391"/><stop stop-color="#7a909b" offset="0.398"/><stop stop-color="#798f9b" offset="0.414"/><stop stop-color="#798f9b" offset="0.418"/><stop stop-color="#798e9b" offset="0.422"/><stop stop-color="#788e9a" offset="0.43"/><stop stop-color="#788d9a" offset="0.445"/><stop stop-color="#778d9a" offset="0.453"/><stop stop-color="#778c99" offset="0.461"/><stop stop-color="#768c99" offset="0.465"/><stop stop-color="#768b99" offset="0.473"/><stop stop-color="#758b99" offset="0.488"/><stop stop-color="#758a98" offset="0.496"/><stop stop-color="#758a98" offset="0.504"/><stop stop-color="#758998" offset="0.508"/><stop stop-color="#748998" offset="0.512"/><stop stop-color="#748897" offset="0.516"/><stop stop-color="#748897" offset="0.527"/><stop stop-color="#748797" offset="0.531"/><stop stop-color="#738797" offset="0.535"/><stop stop-color="#738797" offset="0.539"/><stop stop-color="#728797" offset="0.543"/><stop stop-color="#728696" offset="0.555"/><stop stop-color="#718596" offset="0.566"/><stop stop-color="#708595" offset="0.578"/><stop stop-color="#708495" offset="0.582"/><stop stop-color="#6f8394" offset="0.594"/><stop stop-color="#6f8393" offset="0.605"/><stop stop-color="#6e8293" offset="0.617"/><stop stop-color="#6e8293" offset="0.629"/><stop stop-color="#6d8193" offset="0.637"/><stop stop-color="#6c8192" offset="0.645"/><stop stop-color="#6c8092" offset="0.652"/><stop stop-color="#6b8092" offset="0.66"/><stop stop-color="#6b7f92" offset="0.668"/><stop stop-color="#6a7f91" offset="0.676"/><stop stop-color="#6a7e91" offset="0.684"/><stop stop-color="#697e90" offset="0.691"/><stop stop-color="#697d90" offset="0.699"/><stop stop-color="#687d90" offset="0.707"/><stop stop-color="#687d90" offset="0.715"/><stop stop-color="#677c90" offset="0.723"/><stop stop-color="#677c8f" offset="0.73"/><stop stop-color="#677b8f" offset="0.738"/><stop stop-color="#667b8e" offset="0.746"/><stop stop-color="#667b8e" offset="0.754"/><stop stop-color="#667b8e" offset="0.758"/><stop stop-color="#657a8e" offset="0.762"/><stop stop-color="#657a8e" offset="0.766"/><stop stop-color="#64798d" offset="0.777"/><stop stop-color="#64788d" offset="0.789"/><stop stop-color="#63788d" offset="0.801"/><stop stop-color="#63788d" offset="0.805"/><stop stop-color="#62778c" offset="0.809"/><stop stop-color="#62778c" offset="0.82"/><stop stop-color="#61768b" offset="0.828"/><stop stop-color="#61768b" offset="0.836"/><stop stop-color="#61758b" offset="0.844"/><stop stop-color="#60758b" offset="0.848"/><stop stop-color="#5f748a" offset="0.855"/><stop stop-color="#5f7489" offset="0.863"/><stop stop-color="#5f7389" offset="0.871"/><stop stop-color="#5e7389" offset="0.887"/><stop stop-color="#5e7389" offset="0.891"/><stop stop-color="#5d7289" offset="0.895"/><stop stop-color="#5c7288" offset="0.906"/><stop stop-color="#5b7187" offset="0.918"/><stop stop-color="#5b7187" offset="0.926"/><stop stop-color="#5b7087" offset="0.934"/><stop stop-color="#5a7087" offset="0.941"/><stop stop-color="#5a6f86" offset="0.953"/><stop stop-color="#596e86" offset="0.965"/><stop stop-color="#596e85" offset="0.973"/><stop stop-color="#586e85" offset="0.977"/><stop stop-color="#586d85" offset="0.98"/><stop stop-color="#586d85" offset="0.988"/><stop stop-color="#576d84" offset="1"/></radialGradient><radialGradient gradientTransform="rotate(74.31 -284.08 244.736)" xmlns:xlink="http://www.w3.org/1999/xlink" gradientUnits="userSpaceOnUse" xlink:type="simple" r="53.108" xlink:actuate="onLoad" cx="0" id="u" cy="0" xlink:show="other" fx="0" fy="0"><stop stop-color="#94a7ab" offset="0"/><stop stop-color="#93a6aa" offset="0.008"/><stop stop-color="#92a6aa" offset="0.02"/><stop stop-color="#92a5aa" offset="0.031"/><stop stop-color="#91a4a9" offset="0.043"/><stop stop-color="#90a4a8" offset="0.055"/><stop stop-color="#8fa3a8" offset="0.066"/><stop stop-color="#8ea2a8" offset="0.078"/><stop stop-color="#8da1a7" offset="0.09"/><stop stop-color="#8ca1a7" offset="0.102"/><stop stop-color="#8ca0a7" offset="0.113"/><stop stop-color="#8ca0a6" offset="0.125"/><stop stop-color="#8b9fa5" offset="0.137"/><stop stop-color="#8a9ea5" offset="0.148"/><stop stop-color="#899ea5" offset="0.16"/><stop stop-color="#899da4" offset="0.172"/><stop stop-color="#889ca4" offset="0.184"/><stop stop-color="#879ca4" offset="0.195"/><stop stop-color="#869ba3" offset="0.207"/><stop stop-color="#859aa2" offset="0.219"/><stop stop-color="#8499a2" offset="0.23"/><stop stop-color="#8499a2" offset="0.242"/><stop stop-color="#8398a1" offset="0.254"/><stop stop-color="#8297a0" offset="0.273"/><stop stop-color="#8297a0" offset="0.281"/><stop stop-color="#8296a0" offset="0.289"/><stop stop-color="#8196a0" offset="0.297"/><stop stop-color="#8196a0" offset="0.305"/><stop stop-color="#80959f" offset="0.313"/><stop stop-color="#7f959f" offset="0.32"/><stop stop-color="#7f949f" offset="0.328"/><stop stop-color="#7e949e" offset="0.336"/><stop stop-color="#7e939e" offset="0.344"/><stop stop-color="#7d929d" offset="0.352"/><stop stop-color="#7d929d" offset="0.359"/><stop stop-color="#7c929d" offset="0.367"/><stop stop-color="#7c929d" offset="0.375"/><stop stop-color="#7b919d" offset="0.383"/><stop stop-color="#7b909c" offset="0.391"/><stop stop-color="#7a909b" offset="0.398"/><stop stop-color="#798f9b" offset="0.414"/><stop stop-color="#798f9b" offset="0.418"/><stop stop-color="#798e9b" offset="0.422"/><stop stop-color="#788e9a" offset="0.43"/><stop stop-color="#788d9a" offset="0.445"/><stop stop-color="#778d9a" offset="0.453"/><stop stop-color="#778c99" offset="0.461"/><stop stop-color="#768c99" offset="0.465"/><stop stop-color="#768b99" offset="0.473"/><stop stop-color="#758b99" offset="0.488"/><stop stop-color="#758a98" offset="0.496"/><stop stop-color="#758a98" offset="0.504"/><stop stop-color="#758998" offset="0.508"/><stop stop-color="#748998" offset="0.512"/><stop stop-color="#748897" offset="0.516"/><stop stop-color="#748897" offset="0.527"/><stop stop-color="#748797" offset="0.531"/><stop stop-color="#738797" offset="0.535"/><stop stop-color="#738797" offset="0.539"/><stop stop-color="#728797" offset="0.543"/><stop stop-color="#728696" offset="0.555"/><stop stop-color="#718596" offset="0.566"/><stop stop-color="#708595" offset="0.578"/><stop stop-color="#708495" offset="0.582"/><stop stop-color="#6f8394" offset="0.594"/><stop stop-color="#6f8393" offset="0.605"/><stop stop-color="#6e8293" offset="0.617"/><stop stop-color="#6e8293" offset="0.629"/><stop stop-color="#6d8193" offset="0.637"/><stop stop-color="#6c8192" offset="0.645"/><stop stop-color="#6c8092" offset="0.652"/><stop stop-color="#6b8092" offset="0.66"/><stop stop-color="#6b7f92" offset="0.668"/><stop stop-color="#6a7f91" offset="0.676"/><stop stop-color="#6a7e91" offset="0.684"/><stop stop-color="#697e90" offset="0.691"/><stop stop-color="#697d90" offset="0.699"/><stop stop-color="#687d90" offset="0.707"/><stop stop-color="#687d90" offset="0.715"/><stop stop-color="#677c90" offset="0.723"/><stop stop-color="#677c8f" offset="0.73"/><stop stop-color="#677b8f" offset="0.738"/><stop stop-color="#667b8e" offset="0.746"/><stop stop-color="#667b8e" offset="0.754"/><stop stop-color="#667b8e" offset="0.758"/><stop stop-color="#657a8e" offset="0.762"/><stop stop-color="#657a8e" offset="0.766"/><stop stop-color="#64798d" offset="0.777"/><stop stop-color="#64788d" offset="0.789"/><stop stop-color="#63788d" offset="0.801"/><stop stop-color="#63788d" offset="0.805"/><stop stop-color="#62778c" offset="0.809"/><stop stop-color="#62778c" offset="0.82"/><stop stop-color="#61768b" offset="0.828"/><stop stop-color="#61768b" offset="0.836"/><stop stop-color="#61758b" offset="0.844"/><stop stop-color="#60758b" offset="0.848"/><stop stop-color="#5f748a" offset="0.855"/><stop stop-color="#5f7489" offset="0.863"/><stop stop-color="#5f7389" offset="0.871"/><stop stop-color="#5e7389" offset="0.887"/><stop stop-color="#5e7389" offset="0.891"/><stop stop-color="#5d7289" offset="0.895"/><stop stop-color="#5c7288" offset="0.906"/><stop stop-color="#5b7187" offset="0.918"/><stop stop-color="#5b7187" offset="0.926"/><stop stop-color="#5b7087" offset="0.934"/><stop stop-color="#5a7087" offset="0.941"/><stop stop-color="#5a6f86" offset="0.953"/><stop stop-color="#596e86" offset="0.965"/><stop stop-color="#596e85" offset="0.973"/><stop stop-color="#586e85" offset="0.977"/><stop stop-color="#586d85" offset="0.98"/><stop stop-color="#586d85" offset="0.988"/><stop stop-color="#576d84" offset="1"/></radialGradient></defs><g><g><path fill="#94a8ab" d="M 401.527344 444.410156 C 401.527344 444.410156 382.722656 493.1875 353.339844 492.597656 L 363.328125 502.589844 C 363.328125 502.589844 403.289062 467.914062 401.527344 444.410156"/></g><g><path fill="#4c6178" d="M 428.558594 392.699219 C 428.558594 392.699219 402.113281 395.046875 393.886719 410.328125 C 385.660156 425.601562 390.363281 452.046875 412.695312 446.761719 C 435.023438 441.472656 419.746094 419.726562 422.683594 411.503906 C 425.621094 403.273438 435.613281 392.699219 428.558594 392.699219"/></g><g clip-path="url(#a)"><path fill="#263b4f" d="M 428.421875 391.171875 C 427.308594 391.273438 401.0625 393.777344 392.539062 409.601562 C 386.9375 420.015625 387.332031 434.414062 393.449219 442.386719 C 396.5625 446.441406 402.484375 450.746094 413.046875 448.246094 C 429.921875 444.253906 427.09375 431.285156 425.03125 421.820312 C 424.171875 417.878906 423.359375 414.152344 424.125 412.011719 C 425.085938 409.320312 426.929688 406.210938 428.558594 403.46875 C 431.417969 398.65625 433.480469 395.179688 432.144531 392.824219 C 431.519531 391.722656 430.3125 391.164062 428.558594 391.164062 C 428.515625 391.164062 428.472656 391.171875 428.421875 391.171875 Z M 395.871094 440.523438 C 393.03125 436.828125 391.597656 431.535156 391.597656 425.972656 C 391.597656 420.882812 392.800781 415.566406 395.230469 411.050781 C 402.828125 396.9375 427.472656 394.339844 428.597656 394.226562 C 429.296875 394.234375 429.519531 394.375 429.519531 394.375 C 429.539062 394.433594 429.554688 394.507812 429.554688 394.589844 C 429.554688 395.816406 427.308594 399.589844 425.933594 401.90625 C 424.230469 404.769531 422.308594 408.011719 421.246094 410.988281 C 420.902344 411.949219 420.757812 413.011719 420.757812 414.167969 C 420.757812 416.578125 421.371094 419.382812 422.046875 422.472656 C 422.808594 425.957031 423.574219 429.492188 423.574219 432.722656 C 423.574219 438.394531 421.21875 443.167969 412.34375 445.277344 C 405.242188 446.953125 399.546875 445.308594 395.871094 440.523438"/></g><g><path fill="#263b4f" d="M 399.566406 444.023438 C 399.132812 444.230469 404.792969 443.914062 405.808594 437.011719 C 407.328125 431.03125 406.132812 422.390625 407.238281 414.273438 C 413.226562 399.828125 429.988281 393.367188 428.558594 392.699219 C 429.53125 393.464844 411.78125 394.445312 403.195312 413.503906 C 401.953125 423.199219 404.085938 430.984375 403.53125 436.652344 C 403.652344 442.679688 399.449219 443.734375 399.566406 444.023438"/></g><g><path fill="#263b4f" d="M 427.777344 400.53125 C 427.558594 399.785156 417.589844 406.917969 414.382812 420.875 C 414.605469 435.167969 410.800781 443.628906 410.148438 444.023438 C 410.9375 445.507812 418.917969 434.699219 418.402344 421.761719 C 421.195312 409.304688 427.710938 400.539062 427.777344 400.53125"/></g><g><path fill="#8092a0" d="M 43.054688 539.613281 C 43.054688 539.613281 39.527344 411.503906 121.800781 351.5625 C 204.074219 291.613281 308.675781 342.15625 333.355469 393.871094 C 358.039062 445.585938 390.949219 546.664062 358.039062 577.21875 C 325.132812 607.78125 126.503906 601.902344 97.121094 591.328125 C 67.738281 580.746094 45.40625 567.820312 43.054688 539.613281"/></g><g><path fill="#6c7f96" d="M 362.597656 473.480469 C 357.671875 508.125 348.769531 539.292969 321.605469 527.859375 C 305.152344 520.808594 314.554688 483.195312 291.046875 469.09375 C 244.035156 445.585938 234.632812 487.898438 206.425781 513.753906 C 197.023438 466.738281 150.011719 440.882812 114.75 471.441406 C 98.292969 485.546875 105.34375 541.960938 84.191406 534.910156 C 52.703125 523.101562 60.75 478.34375 60.074219 439.253906 C 41.71875 490.746094 43.054688 539.613281 43.054688 539.613281 C 45.40625 567.820312 67.738281 580.746094 97.121094 591.328125 C 126.503906 601.902344 325.132812 607.78125 358.039062 577.21875 C 377.550781 559.101562 373.925781 516.195312 362.597656 473.480469"/></g><g><path fill="#6c7f96" d="M 100.644531 396.21875 C 145.308594 389.167969 178.214844 419.726562 218.175781 412.675781 C 246.386719 405.625 279.296875 417.378906 307.503906 417.378906 C 319.683594 418.3125 330.226562 407.976562 344.71875 419.953125 C 340.910156 410.429688 337.039062 401.59375 333.355469 393.871094 C 308.675781 342.15625 204.074219 291.613281 121.800781 351.5625 C 106.804688 362.484375 94.664062 375.683594 84.832031 389.953125 C 89.3125 394.828125 97.039062 396.21875 100.644531 396.21875"/></g><g><path fill="#33485d" d="M 120.902344 350.324219 C 38.925781 410.046875 41.488281 538.367188 41.527344 539.652344 C 41.527344 539.683594 41.527344 539.707031 41.53125 539.738281 C 43.902344 568.144531 65.257812 581.476562 96.601562 592.765625 C 112.070312 598.332031 171.460938 602.210938 226.285156 601.226562 C 267.46875 600.488281 339.484375 596.535156 359.078125 578.339844 C 395.46875 544.554688 353.84375 433.246094 334.738281 393.210938 C 320.96875 364.359375 284.332031 338.046875 243.574219 327.726562 C 199.710938 316.628906 156.140625 324.652344 120.902344 350.324219 Z M 44.566406 537.828125 C 44.566406 522.324219 47.210938 407.796875 122.699219 352.789062 C 157.191406 327.664062 199.851562 319.816406 242.824219 330.691406 C 282.753906 340.800781 318.582031 366.453125 331.980469 394.53125 C 358.167969 449.394531 388.113281 547.210938 356.996094 576.101562 C 325.117188 605.707031 129.078125 601.207031 97.636719 589.890625 C 67.410156 579.007812 46.824219 566.273438 44.578125 539.507812 C 44.574219 539.363281 44.566406 538.820312 44.566406 537.828125"/></g><g><path fill="#8092a0" d="M 303.78125 98.003906 C 303.78125 98.003906 315.085938 92.757812 337.570312 85.984375 C 360.058594 79.195312 366.339844 54.316406 353.859375 43.367188 C 341.371094 32.425781 322.339844 41.511719 313.230469 61.136719 C 304.109375 80.730469 295.566406 86.988281 295.566406 86.988281 L 303.78125 98.003906"/></g><g><path fill="#33485d" d="M 336.988281 37.632812 C 327.050781 39.738281 317.410156 48.496094 311.847656 60.496094 C 303.042969 79.394531 294.738281 85.695312 294.65625 85.757812 C 294.332031 86 294.113281 86.367188 294.054688 86.765625 C 293.996094 87.164062 294.097656 87.574219 294.339844 87.898438 L 302.558594 98.917969 C 302.992188 99.496094 303.769531 99.691406 304.425781 99.390625 C 304.535156 99.335938 315.914062 94.101562 338.007812 87.445312 C 349.851562 83.875 358.703125 74.785156 361.097656 63.730469 C 362.929688 55.289062 360.605469 47.25 354.871094 42.21875 C 349.835938 37.804688 343.652344 36.222656 336.988281 37.632812 Z M 314.617188 61.78125 C 319.789062 50.636719 328.601562 42.53125 337.621094 40.621094 C 343.308594 39.417969 348.578125 40.757812 352.855469 44.515625 C 356.621094 47.824219 358.65625 52.710938 358.65625 58.140625 C 358.65625 59.746094 358.480469 61.40625 358.113281 63.082031 C 356.414062 70.894531 350.015625 80.632812 337.128906 84.523438 C 318.550781 90.117188 307.554688 94.695312 304.28125 96.113281 C 303.210938 94.683594 298.878906 88.871094 297.640625 87.21875 C 300.289062 84.839844 307.226562 77.65625 314.617188 61.78125"/></g><g><path fill="#ce8183" d="M 305.882812 95.476562 C 305.882812 95.476562 312.433594 91.964844 324.914062 87.171875 C 337.382812 82.367188 344.5625 67.164062 339.996094 60.929688 C 335.414062 54.722656 324.324219 60.804688 316.5625 72.921875 C 308.808594 85.0625 303.480469 89.082031 303.480469 89.082031 L 305.882812 95.476562"/></g><g><path fill="#883e3d" d="M 334.722656 57.296875 C 328.792969 57.496094 321.277344 63.378906 315.570312 72.289062 C 308.058594 84.050781 302.820312 88.105469 302.769531 88.148438 C 302.351562 88.457031 302.195312 89.007812 302.378906 89.496094 L 304.785156 95.890625 C 304.902344 96.210938 305.152344 96.457031 305.472656 96.578125 C 305.785156 96.699219 306.140625 96.675781 306.4375 96.515625 C 306.503906 96.480469 313.085938 92.976562 325.332031 88.269531 C 334.105469 84.890625 339.9375 76.890625 341.824219 70.460938 C 343.042969 66.308594 342.730469 62.671875 340.945312 60.234375 C 339.460938 58.222656 337.308594 57.207031 334.722656 57.296875 Z M 317.550781 73.550781 C 322.773438 65.40625 329.703125 59.816406 334.800781 59.640625 C 336.605469 59.582031 338.035156 60.25 339.050781 61.621094 C 339.8125 62.664062 340.199219 64.097656 340.199219 65.769531 C 340.199219 67 339.992188 68.363281 339.570312 69.804688 C 337.84375 75.675781 332.515625 82.988281 324.488281 86.078125 C 314.914062 89.753906 308.90625 92.632812 306.519531 93.832031 C 306.007812 92.464844 305.222656 90.378906 304.867188 89.445312 C 306.519531 88.003906 311.207031 83.492188 317.550781 73.550781"/></g><g><path fill="#8092a0" d="M 115.714844 70.761719 C 115.714844 70.761719 106.675781 62.1875 87.496094 48.621094 C 68.328125 35.082031 70.257812 9.460938 85.585938 3.0625 C 100.917969 -3.347656 116.042969 11.308594 118.472656 32.8125 C 120.890625 54.277344 127.007812 62.925781 127.007812 62.925781 L 115.714844 70.761719"/></g><g><path fill="#33485d" d="M 84.996094 1.652344 C 77.960938 4.589844 73.195312 11.46875 72.246094 20.054688 C 71.007812 31.308594 76.507812 42.730469 86.613281 49.871094 C 105.460938 63.203125 114.574219 71.785156 114.664062 71.867188 C 115.1875 72.371094 115.992188 72.429688 116.585938 72.019531 L 127.882812 64.175781 C 128.214844 63.945312 128.4375 63.585938 128.511719 63.1875 C 128.585938 62.789062 128.492188 62.371094 128.257812 62.039062 C 128.199219 61.957031 122.324219 53.351562 119.988281 32.640625 C 118.503906 19.480469 112.148438 8.113281 103.394531 2.976562 C 97.53125 -0.472656 91.167969 -0.929688 84.996094 1.652344 Z M 88.375 47.378906 C 78.570312 40.449219 75.140625 30.726562 75.140625 23.0625 C 75.140625 22.140625 75.191406 21.246094 75.28125 20.390625 C 76.109375 12.925781 80.175781 6.976562 86.171875 4.46875 C 91.425781 2.273438 96.84375 2.671875 101.847656 5.609375 C 109.785156 10.273438 115.574219 20.765625 116.953125 32.980469 C 118.914062 50.371094 123.207031 59.386719 124.964844 62.480469 C 123.265625 63.660156 117.3125 67.789062 115.84375 68.808594 C 113.191406 66.417969 104.226562 58.585938 88.375 47.378906"/></g><g><path fill="#ce8183" d="M 111.480469 63.894531 C 111.480469 63.894531 105.519531 57.039062 92.847656 45.160156 C 80.175781 33.269531 81.289062 18.648438 91.320312 18.042969 C 101.339844 17.410156 111.351562 29.140625 113.101562 42.21875 C 114.796875 55.316406 118.871094 61.628906 118.871094 61.628906 L 111.480469 63.894531"/></g><g><path fill="#883e3d" d="M 91.242188 16.871094 C 87.367188 17.101562 84.402344 19.289062 83.109375 22.875 C 81.128906 28.359375 83.125 37.636719 92.046875 46.011719 C 104.515625 57.707031 110.535156 64.597656 110.59375 64.664062 C 110.898438 65.015625 111.382812 65.152344 111.824219 65.015625 L 119.21875 62.746094 C 119.570312 62.644531 119.847656 62.371094 119.972656 62.03125 C 120.105469 61.6875 120.058594 61.304688 119.859375 60.992188 C 119.820312 60.929688 115.902344 54.691406 114.265625 42.066406 C 112.382812 27.992188 101.625 16.214844 91.242188 16.871094 Z M 93.652344 44.300781 C 87.300781 38.339844 84.742188 32.015625 84.742188 27.265625 C 84.742188 25.929688 84.941406 24.71875 85.320312 23.671875 C 86.292969 20.972656 88.449219 19.394531 91.386719 19.214844 C 100.445312 18.640625 110.238281 29.683594 111.9375 42.375 C 113.226562 52.324219 115.847656 58.410156 117.136719 60.929688 C 115.527344 61.421875 112.78125 62.265625 111.855469 62.550781 C 110.222656 60.726562 104.28125 54.265625 93.652344 44.300781"/></g><g><path fill="#8092a0" d="M 355.628906 227.269531 C 355.628906 227.269531 349.433594 134.894531 309.605469 81.03125 C 269.773438 27.128906 167.074219 7.648438 115.429688 56.605469 C 63.804688 105.5625 39.605469 202.179688 39.605469 202.179688 L 355.628906 227.269531"/></g><g><path fill="#33485d" d="M 114.375 55.496094 C 63.027344 104.195312 38.363281 200.839844 38.121094 201.8125 C 38.011719 202.246094 38.097656 202.710938 38.363281 203.074219 C 38.625 203.4375 39.035156 203.671875 39.480469 203.707031 L 355.503906 228.792969 C 355.949219 228.828125 356.382812 228.671875 356.703125 228.363281 C 357.015625 228.046875 357.183594 227.609375 357.152344 227.167969 C 357.089844 226.238281 350.46875 133.730469 310.835938 80.121094 C 289.660156 51.472656 250.117188 31.355469 207.632812 27.609375 C 169.96875 24.289062 136.847656 34.195312 114.375 55.496094 Z M 116.480469 57.710938 C 138.304688 37.023438 170.582031 27.414062 207.367188 30.652344 C 249.003906 34.324219 287.710938 53.972656 308.378906 81.9375 C 344.59375 130.921875 352.882812 213.015625 353.960938 225.605469 C 350.441406 225.328125 45.140625 201.089844 41.546875 200.808594 C 45.019531 187.9375 69.425781 102.335938 116.480469 57.710938"/></g><g><path fill="#94a8ab" d="M 147.398438 54.011719 C 144.292969 51.417969 141.742188 48.574219 139.488281 45.539062 C 194.273438 19.128906 275.273438 40.007812 309.585938 86.414062 C 310.84375 88.152344 312.070312 89.871094 313.277344 91.652344 C 261.265625 127.296875 192.390625 94.253906 147.398438 54.011719"/></g><g><path fill="#8092a0" d="M 319.550781 395.359375 C 258.417969 402.988281 231.0625 390.835938 214.894531 400.011719 C 198.875 409.089844 187.777344 398.703125 180.34375 392.824219 C 172.914062 386.957031 133.753906 386.605469 75.011719 361.144531 C 42.539062 347.066406 17.140625 327.035156 6.226562 299.585938 C -6.6875 256.476562 7.65625 208.605469 45.652344 182.550781 C 109.804688 138.59375 303.867188 164.226562 366.835938 226.929688 C 391.945312 251.914062 401.753906 280.121094 399.746094 307.097656 C 395.996094 357.144531 362.214844 390.015625 319.550781 395.359375"/></g><g><path fill="#6c7f96" d="M 319.015625 379.210938 C 357.082031 377 385.351562 340.125 399.867188 300.582031 C 399.847656 302.75 399.902344 304.933594 399.746094 307.097656 C 395.996094 357.144531 362.214844 390.015625 319.550781 395.359375 C 258.417969 402.988281 231.0625 390.835938 214.894531 400.011719 C 198.875 409.089844 187.777344 398.703125 180.34375 392.824219 C 172.914062 386.957031 133.753906 386.605469 75.011719 361.144531 C 42.539062 347.066406 17.140625 327.035156 6.226562 299.585938 C 1.085938 282.441406 0.316406 264.554688 3.605469 247.585938 C 27.933594 374.957031 208.875 387.117188 319.015625 379.210938"/></g><g><path fill="#94a8ab" d="M 59.179688 210.835938 C 37.351562 217.066406 21.089844 229.472656 6.417969 244.363281 C 15.140625 222.667969 30.507812 202.945312 50.429688 189.292969 C 111.699219 147.277344 297.070312 171.777344 357.21875 231.660156 C 371.03125 245.441406 381.152344 260.554688 387.675781 276.035156 C 301.652344 199.363281 170.726562 174.136719 59.179688 210.835938"/></g><g><path fill="#33485d" d="M 44.789062 181.292969 C 7.273438 207.011719 -8.808594 254.726562 4.761719 300.023438 C 15.078125 325.984375 38.496094 346.980469 74.402344 362.546875 C 111.996094 378.839844 142.0625 384.984375 160.027344 388.65625 C 169.875 390.671875 176.988281 392.121094 179.394531 394.027344 L 180.828125 395.171875 C 188.355469 401.21875 199.734375 410.359375 215.648438 401.34375 C 223.148438 397.085938 233.476562 397.671875 249.105469 398.5625 C 265.648438 399.507812 288.308594 400.796875 319.742188 396.871094 C 365.621094 391.128906 397.621094 355.929688 401.269531 307.210938 C 403.453125 277.871094 391.917969 249.734375 367.910156 225.847656 C 338.691406 196.746094 276.992188 172.75 206.894531 163.226562 C 137.019531 153.730469 74.902344 160.652344 44.789062 181.292969 Z M 182.742188 392.789062 L 181.292969 391.628906 C 178.3125 389.277344 171.660156 387.914062 160.636719 385.664062 C 142.789062 382.015625 112.917969 375.910156 75.617188 359.742188 C 40.476562 344.507812 17.605469 324.078125 7.644531 299.015625 C -5.5 255.125 10.101562 208.777344 46.515625 183.808594 C 110.425781 140.019531 304.355469 166.867188 365.757812 228.011719 C 387.253906 249.40625 398.472656 274.242188 398.472656 300.222656 C 398.472656 302.464844 398.390625 304.722656 398.222656 306.984375 C 394.691406 354.1875 363.738281 388.285156 319.363281 393.847656 C 288.203125 397.730469 265.710938 396.449219 249.277344 395.511719 C 233.109375 394.589844 222.425781 393.984375 214.140625 398.6875 C 200.027344 406.679688 190.039062 398.652344 182.742188 392.789062"/></g><g><path fill="#33485d" d="M 259.875 305.261719 C 259.875 305.261719 257.710938 279.996094 266.382812 271.03125 C 275.050781 262.054688 288.308594 270.078125 280.164062 287.796875 C 272.035156 305.496094 259.875 305.261719 259.875 305.261719"/></g><g><path fill="#33485d" d="M 152.90625 299.023438 C 152.90625 299.023438 157.441406 274.105469 149.679688 264.339844 C 141.894531 254.5625 127.945312 261.300781 134.359375 279.703125 C 140.769531 298.097656 152.90625 299.023438 152.90625 299.023438"/></g><g><path fill="#33485d" d="M 296.890625 95.589844 C 300.78125 93.660156 296.476562 85.511719 286.601562 80.121094 C 276.730469 74.726562 269.664062 79.183594 269.789062 82.4375 C 269.910156 85.730469 275.296875 85.175781 284.046875 89.144531 C 292.820312 93.128906 293.15625 97.449219 296.890625 95.589844"/></g><g><path fill="#33485d" d="M 173.347656 69.472656 C 175.453125 65.703125 167.316406 61.40625 156.128906 62.539062 C 144.902344 63.664062 141.621094 71.339844 143.570312 73.957031 C 145.519531 76.578125 149.621094 73.109375 159.121094 71.4375 C 168.589844 69.757812 171.308594 73.140625 173.347656 69.472656"/></g><g><path fill="#ccced4" d="M 213.78125 243.179688 C 179.003906 241.0625 170.988281 223.347656 170.429688 213.230469 C 169.875 203.089844 203.84375 114.136719 222.074219 118.351562 C 240.300781 122.566406 259.34375 220.472656 255.839844 225.488281 C 252.339844 230.511719 237.453125 244.617188 213.78125 243.179688"/></g><g><path fill="#b2b7be" d="M 255.839844 225.488281 C 254.046875 228.070312 249.203125 232.996094 241.789062 237.039062 C 241.085938 195.382812 238.460938 157.339844 224.507812 119.511719 C 241.941406 131.128906 259.195312 220.695312 255.839844 225.488281"/></g><g><path fill="#5f666a" d="M 212.808594 120.285156 C 194.203125 135.921875 168.371094 203.539062 168.90625 213.3125 C 169.675781 227.214844 181.84375 242.765625 213.691406 244.707031 C 237.777344 246.171875 253.183594 231.964844 257.09375 226.363281 C 260.390625 221.644531 250.328125 170.066406 239.328125 141.414062 C 233.472656 126.167969 227.941406 118.136719 222.414062 116.859375 C 219.53125 116.195312 216.300781 117.347656 212.808594 120.285156 Z M 171.953125 213.144531 C 171.949219 213.078125 171.949219 213.011719 171.949219 212.9375 C 171.949219 204.296875 196.46875 138.011719 214.769531 122.621094 C 217.492188 120.332031 219.828125 119.398438 221.730469 119.835938 C 223.816406 120.324219 227.273438 122.8125 231.867188 131.925781 C 246.15625 160.285156 256.429688 220.347656 254.542969 224.6875 C 250.953125 229.824219 236.5625 243.035156 213.871094 241.660156 C 176.3125 239.363281 172.296875 219.253906 171.953125 213.144531"/></g><g><path fill="#ffffff" d="M 213.980469 125.746094 C 195.046875 155.902344 183.566406 191.027344 181.347656 226.476562 C 176.023438 221.257812 174.398438 214.976562 174.3125 210.355469 C 174.164062 202.335938 198.054688 138.511719 213.980469 125.746094"/></g><g><path fill="#231f20" d="M 267.605469 158.6875 C 265.28125 165.550781 268.972656 172.996094 275.84375 175.320312 C 282.714844 177.636719 290.148438 173.941406 292.464844 167.0625 C 294.785156 160.199219 291.089844 152.757812 284.214844 150.449219 C 277.359375 148.132812 269.910156 151.820312 267.605469 158.6875"/></g><g><path fill="#231f20" d="M 132.214844 138.171875 C 129.894531 145.042969 133.589844 152.484375 140.449219 154.792969 C 147.328125 157.113281 154.761719 153.410156 157.078125 146.554688 C 159.390625 139.675781 155.691406 132.246094 148.828125 129.921875 C 141.957031 127.609375 134.511719 131.304688 132.214844 138.171875"/></g><g><path fill="#33485d" d="M 186.433594 349.949219 C 186.632812 349.417969 187.429688 364.785156 201.96875 366.394531 C 216.359375 370.300781 219.703125 353.722656 219.863281 354.707031 C 220.0625 354.667969 221.011719 357.902344 219.28125 363.101562 C 218.246094 368.71875 209.355469 374.515625 200.882812 372.195312 C 180.75 368.242188 185.5625 347.484375 186.433594 349.949219"/></g><g><path fill="#6c7f96" d="M 110.046875 474.96875 C 110.046875 474.96875 121.800781 466.15625 139.429688 465.5625 C 157.058594 464.976562 177.628906 473.792969 177.628906 473.792969 C 177.628906 473.792969 191.730469 530.207031 197.023438 556.652344 C 202.3125 583.09375 207.597656 614.242188 199.960938 617.773438 C 192.320312 621.292969 177.628906 624.230469 149.417969 623.058594 C 121.214844 621.882812 112.398438 620.710938 111.222656 612.476562 C 110.046875 604.253906 105.34375 498.476562 110.046875 474.96875"/></g><g><path fill="#8092a0" d="M 139.429688 465.5625 C 133.21875 465.773438 127.761719 467.007812 123.261719 468.511719 C 140.253906 517.917969 131.53125 570.761719 136.035156 622.378906 C 139.925781 622.632812 144.347656 622.851562 149.417969 623.058594 C 171.535156 623.980469 185.316406 622.371094 193.933594 619.933594 C 188.460938 569.671875 182.855469 518.574219 168.292969 470.417969 C 160.679688 468.003906 149.582031 465.230469 139.429688 465.5625"/></g><g><path fill="#607489" d="M 109.578125 584.0625 C 110.210938 599 110.875 610.039062 111.222656 612.476562 C 112.398438 620.710938 121.214844 621.882812 149.417969 623.058594 C 177.628906 624.230469 192.320312 621.292969 199.960938 617.773438 C 202.714844 616.5 203.78125 611.625 203.78125 604.679688 C 172.949219 617.882812 132.917969 610.273438 109.578125 584.0625"/></g><g clip-path="url(#b)"><path fill="#33485d" d="M 139.378906 464.039062 C 121.472656 464.636719 109.628906 473.371094 109.132812 473.746094 C 108.828125 473.972656 108.621094 474.300781 108.550781 474.664062 C 103.746094 498.679688 108.699219 605.613281 109.707031 612.695312 C 111.066406 622.195312 120.507812 623.386719 149.355469 624.582031 C 173.386719 625.589844 190.628906 623.761719 200.597656 619.152344 C 207.507812 615.96875 206.921875 598.363281 198.519531 556.351562 C 193.285156 530.175781 179.253906 473.988281 179.113281 473.421875 C 178.992188 472.957031 178.671875 472.574219 178.230469 472.390625 C 177.378906 472.023438 157.144531 463.449219 139.378906 464.039062 Z M 139.480469 467.089844 C 154.988281 466.578125 172.980469 473.546875 176.335938 474.914062 C 178.019531 481.679688 190.632812 532.488281 195.519531 556.953125 C 197.488281 566.765625 202.292969 590.792969 202.292969 605.179688 C 202.292969 611.097656 201.476562 615.382812 199.316406 616.382812 C 192.765625 619.410156 178.804688 622.753906 149.488281 621.53125 C 121.441406 620.363281 113.710938 619.078125 112.734375 612.261719 C 112.046875 607.441406 109.507812 556.105469 109.507812 516.59375 C 109.507812 498.84375 110.027344 483.535156 111.449219 475.851562 C 113.679688 474.335938 124.402344 467.59375 139.480469 467.089844"/></g><g><path fill="#94a8ab" d="M 148.246094 517.28125 C 148.363281 517.855469 152.105469 511.402344 161.300781 510.605469 C 176.453125 509.738281 156.621094 526.003906 145.460938 523.5625 C 138.949219 522.730469 135.316406 516.253906 137 510.765625 C 138.402344 505.390625 142.25 500.730469 146.113281 498.515625 C 154.214844 493.8125 160.796875 497.078125 160.585938 496.710938 C 160.953125 496.902344 154.804688 492.167969 145.011719 496.480469 C 140.390625 498.660156 135.746094 503.171875 133.535156 509.910156 C 130.839844 516.738281 135.863281 526.617188 144.761719 527.613281 C 153.351562 528.605469 160.082031 524.792969 165.371094 520.617188 C 167.609375 518.421875 170.984375 515.628906 169.636719 511.273438 C 167.03125 507.472656 163.523438 508.484375 161.132812 508.304688 C 150.546875 510.449219 148.261719 517.726562 148.246094 517.28125"/></g><g><path fill="#ccced4" d="M 189.089844 598.378906 C 179.378906 599.488281 178.839844 614.464844 178.804688 622.570312 C 188.941406 621.597656 195.605469 619.78125 199.960938 617.773438 C 201.128906 617.230469 201.988281 616.039062 202.601562 614.332031 C 200.636719 606.585938 197.199219 597.476562 189.089844 598.378906"/></g><g clip-path="url(#c)"><path fill="#5f666a" d="M 188.921875 596.855469 C 188.917969 596.859375 188.914062 596.859375 188.914062 596.859375 C 177.367188 598.179688 177.300781 615.894531 177.277344 622.5625 C 177.277344 622.992188 177.460938 623.410156 177.777344 623.695312 C 178.09375 623.988281 178.523438 624.136719 178.953125 624.089844 C 188.140625 623.210938 195.421875 621.546875 200.597656 619.152344 C 202.113281 618.457031 203.265625 617.003906 204.039062 614.839844 C 204.140625 614.554688 204.15625 614.246094 204.078125 613.953125 C 202.816406 608.957031 199.453125 595.6875 188.921875 596.855469 Z M 200.964844 614.214844 C 200.507812 615.308594 199.96875 616.082031 199.316406 616.382812 C 194.78125 618.472656 188.367188 619.960938 180.367188 620.835938 C 180.527344 611.789062 181.808594 600.75 189.261719 599.894531 C 194.617188 599.304688 198.230469 603.773438 200.964844 614.214844"/></g><g><path fill="#ccced4" d="M 163.523438 601.609375 C 155.640625 602.539062 155.8125 614.800781 156.085938 623.257812 C 165.027344 623.4375 172.449219 623.167969 178.585938 622.589844 C 177.175781 615.023438 171.265625 600.78125 163.523438 601.609375"/></g><g clip-path="url(#d)"><path fill="#5f666a" d="M 163.359375 600.089844 C 163.355469 600.089844 163.351562 600.09375 163.34375 600.09375 C 153.835938 601.210938 154.289062 615.042969 154.5625 623.308594 C 154.585938 624.121094 155.242188 624.765625 156.058594 624.78125 C 164.550781 624.957031 172.183594 624.722656 178.730469 624.113281 C 179.160156 624.070312 179.546875 623.851562 179.808594 623.511719 C 180.066406 623.167969 180.171875 622.730469 180.089844 622.3125 C 178.71875 614.9375 172.597656 599.101562 163.359375 600.089844 Z M 176.691406 621.183594 C 171.027344 621.648438 164.65625 621.851562 157.582031 621.75 C 157.554688 620.722656 157.519531 619.71875 157.519531 618.5625 C 157.519531 611.878906 158.339844 603.761719 163.699219 603.128906 C 169.597656 602.511719 174.859375 613.628906 176.691406 621.183594"/></g><g><path fill="#ccced4" d="M 140.3125 600.726562 C 130.273438 600.25 128.785156 612.796875 128.589844 621.769531 C 133.929688 622.335938 140.753906 622.699219 149.417969 623.058594 C 151.144531 623.128906 152.8125 623.183594 154.4375 623.230469 C 152.203125 614.003906 150.304688 601.203125 140.3125 600.726562"/></g><g clip-path="url(#e)"><path fill="#5f666a" d="M 132.742188 601.859375 C 127.949219 606.324219 127.203125 615.339844 127.058594 621.730469 C 127.042969 622.53125 127.636719 623.203125 128.429688 623.289062 C 134.238281 623.902344 141.925781 624.273438 149.355469 624.582031 C 149.359375 624.582031 154.398438 624.753906 154.398438 624.753906 C 154.871094 624.769531 155.324219 624.558594 155.621094 624.191406 C 155.925781 623.824219 156.03125 623.328125 155.921875 622.867188 L 155.289062 620.152344 C 153.191406 611.03125 150.578125 599.6875 140.382812 599.199219 C 137.359375 599.054688 134.789062 599.949219 132.742188 601.859375 Z M 134.828125 604.09375 C 136.269531 602.75 138.035156 602.144531 140.238281 602.253906 C 148.117188 602.625 150.34375 612.300781 152.308594 620.835938 C 152.308594 620.835938 152.421875 621.308594 152.496094 621.632812 C 151.054688 621.585938 149.484375 621.53125 149.484375 621.53125 C 142.683594 621.25 135.75 620.90625 130.210938 620.382812 C 130.542969 612.109375 132.03125 606.699219 134.828125 604.09375"/></g><g clip-path="url(#f)"><g clip-path="url(#g)"><g clip-path="url(#h)"><path fill="url(#i)" d="M 194.671875 420.902344 L 78.902344 420.902344 L 78.902344 486.132812 L 194.671875 486.132812 Z M 194.671875 420.902344"/></g></g></g><g><path fill="#33485d" d="M 190.558594 454.984375 C 190.273438 454.699219 195.574219 462.386719 189.988281 473.28125 C 184.429688 485.621094 164.902344 472.957031 146.808594 473.453125 C 127.644531 472.359375 111.214844 486.660156 101.746094 480.964844 C 94.714844 472.183594 98.730469 462.632812 97.707031 463.214844 C 98.707031 462.882812 92.625 471.125 100.199219 482.691406 C 113.621094 490.394531 128.878906 475.953125 146.773438 477.570312 C 155.691406 477.675781 164.230469 479.945312 172.273438 481.183594 C 179.601562 483.265625 190.332031 481.652344 192.070312 474.265625 C 197.1875 461.796875 190.382812 454.390625 190.558594 454.984375"/></g><g><path fill="#94a8ab" d="M 122.980469 451.855469 C 122.980469 451.855469 156.277344 445.191406 171.949219 454.59375 C 171.949219 454.59375 173.328125 445.214844 160.980469 443.628906 C 133.558594 440.101562 122.980469 451.855469 122.980469 451.855469"/></g><g><path fill="#6c7f96" d="M 302.800781 474.96875 C 302.800781 474.96875 291.046875 466.15625 273.417969 465.5625 C 255.789062 464.976562 235.21875 473.792969 235.21875 473.792969 C 235.21875 473.792969 221.117188 530.207031 215.824219 556.652344 C 210.535156 583.09375 205.25 614.242188 212.886719 617.773438 C 220.527344 621.292969 235.21875 624.230469 263.429688 623.058594 C 291.632812 621.882812 300.449219 620.710938 301.628906 612.476562 C 302.800781 604.253906 307.503906 498.476562 302.800781 474.96875"/></g><g><path fill="#8092a0" d="M 273.417969 465.5625 C 279.628906 465.773438 285.085938 467.007812 289.585938 468.511719 C 272.59375 517.917969 281.316406 570.761719 276.8125 622.378906 C 272.921875 622.632812 268.5 622.851562 263.429688 623.058594 C 241.3125 623.980469 227.53125 622.371094 218.914062 619.933594 C 224.390625 569.671875 229.992188 518.574219 244.554688 470.417969 C 252.164062 468.003906 263.265625 465.230469 273.417969 465.5625"/></g><g><path fill="#607489" d="M 303.265625 584.0625 C 302.636719 599 301.972656 610.039062 301.628906 612.476562 C 300.449219 620.710938 291.632812 621.882812 263.429688 623.058594 C 235.21875 624.230469 220.527344 621.292969 212.886719 617.773438 C 210.132812 616.5 209.066406 611.625 209.066406 604.679688 C 239.898438 617.882812 279.929688 610.273438 303.265625 584.0625"/></g><g clip-path="url(#j)"><path fill="#33485d" d="M 234.617188 472.390625 C 234.179688 472.574219 233.855469 472.957031 233.734375 473.421875 C 233.59375 473.988281 219.5625 530.175781 214.328125 556.351562 C 205.925781 598.363281 205.34375 615.96875 212.246094 619.152344 C 222.222656 623.761719 239.460938 625.589844 263.492188 624.582031 C 292.339844 623.386719 301.78125 622.195312 303.140625 612.695312 C 304.148438 605.613281 309.101562 498.679688 304.300781 474.664062 C 304.226562 474.300781 304.019531 473.972656 303.714844 473.746094 C 303.21875 473.371094 291.375 464.636719 273.46875 464.039062 C 255.703125 463.449219 235.472656 472.023438 234.617188 472.390625 Z M 273.367188 467.089844 C 288.445312 467.59375 299.167969 474.335938 301.398438 475.851562 C 302.820312 483.535156 303.339844 498.84375 303.339844 516.59375 C 303.339844 556.105469 300.800781 607.441406 300.113281 612.261719 C 299.140625 619.078125 291.40625 620.363281 263.359375 621.53125 C 234.042969 622.753906 220.082031 619.410156 213.53125 616.382812 C 211.371094 615.382812 210.554688 611.097656 210.554688 605.179688 C 210.554688 590.792969 215.363281 566.765625 217.328125 556.953125 C 222.21875 532.488281 234.828125 481.679688 236.511719 474.914062 C 239.867188 473.546875 257.859375 466.578125 273.367188 467.089844"/></g><g><path fill="#94a8ab" d="M 264.601562 517.28125 C 264.484375 517.855469 260.742188 511.402344 251.546875 510.605469 C 236.394531 509.738281 256.226562 526.003906 267.390625 523.5625 C 273.898438 522.730469 277.53125 516.253906 275.847656 510.765625 C 274.445312 505.390625 270.597656 500.730469 266.734375 498.515625 C 258.636719 493.8125 252.050781 497.078125 252.261719 496.710938 C 251.894531 496.902344 258.042969 492.167969 267.835938 496.480469 C 272.460938 498.660156 277.101562 503.171875 279.3125 509.910156 C 282.007812 516.738281 276.984375 526.617188 268.089844 527.613281 C 259.496094 528.605469 252.765625 524.792969 247.476562 520.617188 C 245.238281 518.421875 241.863281 515.628906 243.214844 511.273438 C 245.816406 507.472656 249.324219 508.484375 251.714844 508.304688 C 262.304688 510.449219 264.585938 517.726562 264.601562 517.28125"/></g><g><path fill="#ccced4" d="M 223.757812 598.378906 C 233.472656 599.488281 234.011719 614.464844 234.042969 622.570312 C 223.90625 621.597656 217.242188 619.78125 212.886719 617.773438 C 211.722656 617.230469 210.859375 616.039062 210.246094 614.332031 C 212.214844 606.585938 215.652344 597.476562 223.757812 598.378906"/></g><g clip-path="url(#k)"><path fill="#5f666a" d="M 208.769531 613.953125 C 208.691406 614.246094 208.707031 614.554688 208.808594 614.839844 C 209.582031 617.003906 210.734375 618.457031 212.246094 619.152344 C 217.425781 621.546875 224.714844 623.210938 233.894531 624.089844 C 234.324219 624.136719 234.753906 623.988281 235.066406 623.695312 C 235.386719 623.410156 235.570312 622.992188 235.570312 622.5625 C 235.546875 615.894531 235.480469 598.179688 223.933594 596.859375 C 223.933594 596.859375 223.929688 596.859375 223.925781 596.855469 C 213.394531 595.6875 210.03125 608.957031 208.769531 613.953125 Z M 223.585938 599.894531 C 231.039062 600.75 232.320312 611.789062 232.480469 620.835938 C 224.480469 619.960938 218.066406 618.472656 213.53125 616.382812 C 212.878906 616.082031 212.339844 615.308594 211.886719 614.214844 C 214.617188 603.773438 218.230469 599.304688 223.585938 599.894531"/></g><g><path fill="#ccced4" d="M 249.324219 601.609375 C 257.210938 602.539062 257.039062 614.800781 256.761719 623.257812 C 247.820312 623.4375 240.398438 623.167969 234.261719 622.589844 C 235.671875 615.023438 241.585938 600.78125 249.324219 601.609375"/></g><g clip-path="url(#l)"><path fill="#5f666a" d="M 232.757812 622.3125 C 232.675781 622.730469 232.78125 623.167969 233.039062 623.511719 C 233.300781 623.851562 233.6875 624.070312 234.117188 624.113281 C 240.671875 624.730469 248.296875 624.957031 256.789062 624.78125 C 257.605469 624.765625 258.261719 624.121094 258.285156 623.308594 C 258.558594 615.042969 259.011719 601.210938 249.503906 600.09375 C 249.496094 600.09375 249.492188 600.089844 249.488281 600.089844 C 240.25 599.101562 234.128906 614.9375 232.757812 622.3125 Z M 249.148438 603.128906 C 254.511719 603.761719 255.332031 611.878906 255.332031 618.5625 C 255.332031 619.71875 255.292969 620.722656 255.265625 621.75 C 248.191406 621.851562 241.820312 621.644531 236.15625 621.183594 C 237.988281 613.628906 243.253906 602.511719 249.148438 603.128906"/></g><g><path fill="#ccced4" d="M 272.535156 600.726562 C 282.574219 600.25 284.0625 612.796875 284.261719 621.769531 C 278.917969 622.335938 272.097656 622.699219 263.429688 623.058594 C 261.703125 623.128906 260.035156 623.183594 258.410156 623.230469 C 260.640625 614.003906 262.542969 601.203125 272.535156 600.726562"/></g><g clip-path="url(#m)"><path fill="#5f666a" d="M 272.464844 599.199219 C 262.269531 599.6875 259.65625 611.03125 257.558594 620.152344 L 256.925781 622.867188 C 256.816406 623.328125 256.921875 623.828125 257.226562 624.191406 C 257.523438 624.558594 257.976562 624.769531 258.449219 624.753906 L 263.488281 624.582031 C 270.925781 624.273438 278.605469 623.902344 284.425781 623.289062 C 285.210938 623.203125 285.804688 622.53125 285.789062 621.730469 C 285.644531 615.339844 284.898438 606.324219 280.105469 601.859375 C 278.058594 599.949219 275.488281 599.054688 272.464844 599.199219 Z M 260.539062 620.835938 C 262.503906 612.300781 264.730469 602.625 272.609375 602.253906 C 274.8125 602.144531 276.578125 602.75 278.019531 604.09375 C 280.816406 606.699219 282.304688 612.109375 282.640625 620.382812 C 277.097656 620.90625 270.164062 621.25 263.359375 621.53125 C 263.359375 621.53125 261.792969 621.585938 260.351562 621.632812 C 260.425781 621.308594 260.539062 620.835938 260.539062 620.835938"/></g><g clip-path="url(#n)"><g clip-path="url(#o)"><g clip-path="url(#p)"><path fill="url(#q)" d="M 218.175781 420.902344 L 333.949219 420.902344 L 333.949219 486.132812 L 218.175781 486.132812 Z M 218.175781 420.902344"/></g></g></g><g><path fill="#33485d" d="M 222.289062 454.984375 C 222.574219 454.699219 217.273438 462.386719 222.859375 473.28125 C 228.417969 485.621094 247.945312 472.957031 266.039062 473.453125 C 285.203125 472.359375 301.632812 486.660156 311.101562 480.964844 C 318.132812 472.183594 314.117188 462.632812 315.140625 463.214844 C 314.140625 462.882812 320.222656 471.125 312.648438 482.691406 C 299.226562 490.394531 283.96875 475.953125 266.074219 477.570312 C 257.15625 477.675781 248.617188 479.945312 240.574219 481.183594 C 233.253906 483.265625 222.515625 481.652344 220.777344 474.265625 C 215.660156 461.796875 222.464844 454.390625 222.289062 454.984375"/></g><g><path fill="#94a8ab" d="M 289.871094 451.855469 C 289.871094 451.855469 256.570312 445.191406 240.898438 454.59375 C 240.898438 454.59375 239.519531 445.214844 251.867188 443.628906 C 279.289062 440.101562 289.871094 451.855469 289.871094 451.855469"/></g><g clip-path="url(#r)"><g clip-path="url(#s)"><g clip-path="url(#t)"><path fill="url(#u)" d="M 92.636719 469.078125 L -26.191406 502.457031 L 11.605469 637.015625 L 130.4375 603.636719 Z M 92.636719 469.078125"/></g></g></g><g><path fill="#33485d" d="M 39.390625 497.675781 C 30.226562 500.234375 21.679688 507.546875 15.929688 517.738281 C 8.804688 530.382812 6.960938 545.675781 10.867188 559.691406 C 15.730469 577.113281 29.65625 594.828125 45.527344 603.773438 C 54.289062 608.714844 62.53125 610.3125 69.367188 608.40625 C 76.203125 606.503906 82.339844 601.003906 87.132812 592.507812 C 95.726562 577.265625 98.238281 555.316406 93.375 537.894531 C 85.75 510.578125 60.523438 491.785156 39.390625 497.675781 Z M 47.027344 601.113281 C 31.816406 592.539062 18.46875 575.566406 13.816406 558.871094 C 10.117188 545.632812 11.863281 531.183594 18.59375 519.238281 C 23.949219 509.75 31.824219 502.964844 40.210938 500.621094 C 57.550781 495.785156 82.714844 511.050781 90.433594 538.71875 C 95.089844 555.40625 92.695312 576.425781 84.46875 591.011719 C 80.089844 598.785156 74.582031 603.78125 68.542969 605.46875 C 62.507812 607.152344 55.070312 605.644531 47.027344 601.113281"/></g><g><path fill="#8092a0" d="M 43.953125 511.128906 C 60.230469 506.589844 81.117188 519.414062 89.980469 541.136719 C 89.683594 539.558594 89.324219 538.003906 88.898438 536.476562 C 81.792969 511.023438 58.476562 495.289062 40.691406 500.253906 C 22.90625 505.214844 8.1875 530.433594 15.289062 555.882812 C 15.894531 558.046875 16.652344 560.203125 17.535156 562.324219 C 13.175781 538.4375 27.199219 515.800781 43.953125 511.128906"/></g><g><path fill="#ccced4" d="M 70.089844 524.332031 C 69.300781 519.636719 69.699219 507.089844 63.425781 505.527344 C 54.023438 502.785156 54.414062 518.0625 53.632812 523.15625 C 51.671875 519.636719 44.621094 492.992188 37.179688 506.703125 C 34.042969 512.578125 39.527344 527.46875 42.664062 532.171875 C 38.355469 525.511719 19.550781 504.742188 18.375 522.765625 C 17.984375 532.171875 26.601562 541.175781 25.816406 549.800781 L 26.601562 554.5 C 36.394531 549.019531 43.839844 542.746094 54.8125 538.828125 C 57.550781 538.046875 69.699219 536.085938 71.65625 532.953125 C 72.828125 530.992188 70.480469 526.683594 70.089844 524.332031"/></g><g><path fill="#6c7f96" d="M 35.835938 505.972656 C 35.046875 507.457031 34.714844 509.367188 34.714844 511.484375 C 34.714844 514.980469 35.628906 519.046875 36.84375 522.789062 C 32.035156 517.851562 25.980469 513.09375 21.613281 514.230469 C 18.769531 514.972656 17.167969 517.808594 16.847656 522.671875 C 16.636719 527.746094 18.769531 532.539062 20.832031 537.167969 C 22.796875 541.578125 24.652344 545.734375 24.292969 549.660156 C 24.28125 549.792969 24.285156 549.921875 24.308594 550.050781 L 25.09375 554.75 C 25.179688 555.253906 25.480469 555.691406 25.945312 555.902344 C 26.40625 556.117188 26.917969 556.101562 27.347656 555.835938 L 36.605469 550.183594 C 42.542969 546.402344 48.152344 542.828125 55.324219 540.265625 C 55.324219 540.273438 57.855469 539.683594 57.855469 539.683594 C 64.8125 538.164062 71.199219 536.5625 72.953125 533.757812 C 74.125 531.800781 73.175781 529.023438 72.335938 526.570312 L 71.597656 524.082031 C 71.621094 524.175781 71.585938 523.988281 71.597656 524.082031 L 71.226562 520.65625 C 70.691406 514.644531 69.886719 505.566406 63.796875 504.046875 C 61.460938 503.363281 59.378906 503.601562 57.65625 504.777344 C 54.339844 507.042969 53.300781 512.144531 52.765625 516.808594 C 49.65625 508.625 46.40625 501.613281 41.90625 501.296875 C 39.652344 501.136719 37.609375 502.707031 35.835938 505.972656 Z M 27.34375 549.800781 C 27.34375 549.800781 27.34375 549.886719 27.339844 549.9375 C 27.34375 549.886719 27.339844 549.84375 27.34375 549.800781 Z M 38.527344 507.421875 C 39.640625 505.375 40.765625 504.273438 41.691406 504.34375 C 44.972656 504.578125 48.925781 515.210938 50.617188 519.753906 L 52.300781 523.898438 C 52.5625 524.550781 53.191406 524.886719 53.882812 524.792969 C 54.574219 524.695312 55.070312 524.089844 55.148438 523.386719 L 55.472656 520.296875 C 55.847656 516.179688 56.46875 509.285156 59.378906 507.300781 C 60.320312 506.660156 61.507812 506.554688 63 506.996094 C 67.035156 508.003906 67.726562 515.777344 68.179688 520.921875 C 68.179688 520.921875 68.582031 524.582031 68.582031 524.585938 C 68.585938 524.585938 69.445312 527.5625 69.445312 527.5625 C 69.84375 528.730469 70.464844 530.535156 70.464844 531.570312 C 70.464844 531.820312 70.429688 532.027344 70.34375 532.164062 C 69.148438 534.085938 60.472656 535.988281 57.203125 536.703125 L 54.386719 537.359375 C 46.800781 540.066406 41.054688 543.730469 34.964844 547.613281 C 34.964844 547.613281 30.101562 550.574219 27.734375 552.019531 C 27.542969 550.863281 27.371094 549.839844 27.347656 549.695312 C 27.371094 549.359375 27.394531 549.019531 27.394531 548.683594 C 27.394531 544.382812 25.480469 540.089844 23.625 535.921875 C 21.789062 531.800781 19.890625 527.539062 19.890625 523.386719 C 19.890625 523.199219 19.894531 523.011719 19.902344 522.828125 C 20.050781 520.53125 20.605469 517.652344 22.386719 517.191406 C 26.792969 516.039062 37.34375 526.761719 41.382812 533 C 41.382812 532.996094 41.382812 532.992188 41.382812 532.992188 C 41.382812 533 41.390625 533.007812 41.394531 533.015625 C 41.855469 533.714844 42.800781 533.90625 43.5 533.445312 C 43.949219 533.152344 44.191406 532.664062 44.191406 532.167969 C 44.191406 531.882812 44.113281 531.59375 43.949219 531.339844 C 43.945312 531.332031 43.9375 531.324219 43.933594 531.324219 L 43.9375 531.324219 C 40.925781 526.808594 35.824219 512.488281 38.527344 507.421875 Z M 68.585938 524.609375 C 68.585938 524.605469 68.582031 524.585938 68.582031 524.585938 C 68.558594 524.511719 68.582031 524.632812 68.585938 524.609375"/></g><g><path fill="#6c7f96" d="M 92.992188 557.519531 C 100.671875 585.035156 91.308594 611.683594 72.078125 617.046875 C 52.855469 622.410156 31.046875 604.457031 23.371094 576.949219 C 15.695312 549.441406 25.0625 522.789062 44.285156 517.421875 C 63.515625 512.058594 85.320312 530.015625 92.992188 557.519531"/></g><g><path fill="#607489" d="M 41.878906 574.871094 C 30.128906 563.117188 28.175781 546.480469 27.847656 530.375 C 20.582031 541.917969 18.433594 559.238281 23.371094 576.949219 C 31.046875 604.457031 52.855469 622.410156 72.078125 617.046875 C 84.871094 613.476562 93.265625 600.460938 95.207031 584.0625 C 79.113281 593.765625 59.175781 593.605469 41.878906 574.871094"/></g><g><path fill="#33485d" d="M 43.871094 515.953125 C 36.304688 518.0625 29.964844 523.332031 25.535156 531.183594 C 18.617188 543.460938 17.257812 560.71875 21.898438 577.359375 C 26.542969 593.996094 36.640625 608.0625 48.910156 614.980469 C 56.765625 619.410156 64.917969 620.628906 72.488281 618.519531 C 80.0625 616.40625 86.402344 611.140625 90.832031 603.289062 C 97.75 591.015625 99.109375 573.753906 94.464844 557.113281 C 89.824219 540.472656 79.726562 526.410156 67.453125 519.492188 C 59.601562 515.058594 51.445312 513.839844 43.871094 515.953125 Z M 50.414062 612.320312 C 38.832031 605.789062 29.273438 592.414062 24.84375 576.535156 C 20.414062 560.660156 21.667969 544.265625 28.199219 532.683594 C 32.214844 525.550781 37.917969 520.785156 44.695312 518.894531 C 51.46875 517.007812 58.820312 518.132812 65.953125 522.152344 C 77.535156 528.679688 87.097656 542.054688 91.523438 557.9375 C 95.953125 573.808594 94.703125 590.207031 88.167969 601.785156 C 84.148438 608.917969 78.441406 613.683594 71.667969 615.574219 C 64.894531 617.464844 57.546875 616.335938 50.414062 612.320312"/></g><g><path fill="#6c7f96" d="M 318.59375 538.300781 C 310.914062 565.816406 322.316406 601.574219 341.539062 606.9375 C 360.765625 612.300781 390.480469 586.792969 398.15625 559.28125 C 405.832031 531.769531 389.925781 504.515625 370.699219 499.152344 C 351.472656 493.789062 326.269531 510.796875 318.59375 538.300781"/></g><g><path fill="#33485d" d="M 317.125 537.894531 C 312.261719 555.316406 314.769531 577.265625 323.367188 592.507812 C 328.15625 601.003906 334.300781 606.503906 341.128906 608.40625 C 347.964844 610.3125 356.214844 608.714844 364.972656 603.773438 C 380.839844 594.828125 394.765625 577.113281 399.628906 559.691406 C 403.539062 545.675781 401.691406 530.382812 394.566406 517.738281 C 388.820312 507.546875 380.269531 500.234375 371.105469 497.675781 C 349.972656 491.785156 324.746094 510.578125 317.125 537.894531 Z M 341.953125 605.46875 C 335.914062 603.78125 330.410156 598.785156 326.027344 591.011719 C 317.804688 576.425781 315.40625 555.40625 320.066406 538.71875 C 327.785156 511.050781 352.945312 495.785156 370.289062 500.621094 C 378.671875 502.964844 386.554688 509.75 391.902344 519.238281 C 398.632812 531.183594 400.378906 545.632812 396.6875 558.871094 C 392.027344 575.566406 378.679688 592.539062 363.46875 601.113281 C 355.429688 605.644531 347.992188 607.152344 341.953125 605.46875"/></g><g><path fill="#8092a0" d="M 366.546875 511.128906 C 350.265625 506.589844 329.382812 519.414062 320.515625 541.136719 C 320.816406 539.558594 321.171875 538.003906 321.601562 536.476562 C 328.703125 511.023438 352.019531 495.289062 369.804688 500.253906 C 387.59375 505.214844 402.3125 530.433594 395.210938 555.882812 C 394.605469 558.046875 393.84375 560.203125 392.960938 562.324219 C 397.320312 538.4375 383.300781 515.800781 366.546875 511.128906"/></g><g><path fill="#ccced4" d="M 340.40625 524.332031 C 341.195312 519.636719 340.800781 507.089844 347.070312 505.527344 C 356.472656 502.785156 356.078125 518.0625 356.863281 523.15625 C 358.824219 519.636719 365.871094 492.992188 373.320312 506.703125 C 376.453125 512.578125 370.96875 527.46875 367.835938 532.171875 C 372.140625 525.511719 390.949219 504.742188 392.121094 522.765625 C 392.515625 532.171875 383.894531 541.175781 384.679688 549.800781 L 383.894531 554.5 C 374.101562 549.019531 366.660156 542.746094 355.6875 538.828125 C 352.945312 538.046875 340.800781 536.085938 338.84375 532.953125 C 337.667969 530.992188 340.019531 526.683594 340.40625 524.332031"/></g><g><path fill="#6c7f96" d="M 368.59375 501.296875 C 364.089844 501.613281 360.839844 508.625 357.730469 516.808594 C 357.195312 512.144531 356.15625 507.042969 352.839844 504.777344 C 351.117188 503.601562 349.035156 503.363281 346.644531 504.0625 C 340.609375 505.566406 339.804688 514.644531 339.273438 520.65625 L 338.902344 524.082031 C 338.910156 523.992188 338.875 524.175781 338.902344 524.082031 L 338.160156 526.570312 C 337.320312 529.019531 336.371094 531.800781 337.53125 533.738281 C 339.296875 536.5625 345.683594 538.164062 352.640625 539.683594 L 355.265625 540.296875 C 362.339844 542.828125 367.953125 546.402344 373.890625 550.183594 L 383.148438 555.835938 C 383.578125 556.101562 384.09375 556.117188 384.554688 555.902344 C 385.015625 555.691406 385.320312 555.253906 385.402344 554.75 L 386.191406 550.050781 C 386.210938 549.921875 386.214844 549.792969 386.203125 549.660156 C 385.84375 545.734375 387.699219 541.578125 389.664062 537.167969 C 391.726562 532.539062 393.859375 527.746094 393.648438 522.699219 C 393.328125 517.808594 391.726562 514.972656 388.882812 514.230469 C 384.515625 513.09375 378.460938 517.851562 373.660156 522.789062 C 374.871094 519.046875 375.785156 514.980469 375.785156 511.484375 C 375.785156 509.367188 375.453125 507.464844 374.664062 505.984375 C 372.886719 502.707031 370.84375 501.136719 368.59375 501.296875 Z M 358.199219 523.898438 L 359.882812 519.753906 C 361.570312 515.210938 365.523438 504.578125 368.808594 504.34375 C 369.730469 504.273438 370.855469 505.375 371.972656 507.433594 C 374.671875 512.488281 369.570312 526.808594 366.558594 531.324219 L 366.5625 531.324219 C 366.558594 531.324219 366.554688 531.332031 366.546875 531.339844 C 366.382812 531.59375 366.304688 531.882812 366.304688 532.167969 C 366.304688 532.664062 366.546875 533.152344 366.996094 533.445312 C 367.695312 533.90625 368.640625 533.710938 369.101562 533.015625 C 369.109375 533.007812 369.117188 533 369.117188 532.992188 C 369.117188 532.992188 369.117188 532.996094 369.117188 533 C 373.152344 526.761719 383.703125 516.039062 388.113281 517.191406 C 389.890625 517.652344 390.445312 520.53125 390.597656 522.863281 C 390.605469 523.046875 390.609375 523.226562 390.609375 523.410156 C 390.609375 527.539062 388.714844 531.796875 386.871094 535.921875 C 385.015625 540.089844 383.105469 544.382812 383.105469 548.683594 C 383.105469 549.019531 383.121094 549.359375 383.148438 549.695312 C 383.121094 549.839844 382.957031 550.863281 382.761719 552.019531 C 380.394531 550.574219 375.53125 547.613281 375.53125 547.613281 C 369.445312 543.730469 363.695312 540.066406 356.199219 537.386719 C 356.109375 537.359375 353.296875 536.703125 353.296875 536.703125 C 350.027344 535.988281 341.351562 534.085938 340.140625 532.136719 C 340.058594 532.011719 340.023438 531.816406 340.023438 531.574219 C 340.023438 530.558594 340.652344 528.738281 341.050781 527.5625 L 341.914062 524.585938 C 341.914062 524.582031 342.316406 520.921875 342.316406 520.921875 C 342.773438 515.777344 343.460938 508.003906 347.441406 507.011719 C 348.992188 506.554688 350.175781 506.660156 351.117188 507.300781 C 354.027344 509.285156 354.652344 516.179688 355.023438 520.296875 L 355.355469 523.386719 C 355.429688 524.089844 355.921875 524.695312 356.617188 524.792969 C 357.308594 524.886719 357.933594 524.550781 358.199219 523.898438 Z M 383.152344 549.800781 C 383.15625 549.84375 383.15625 549.886719 383.160156 549.9375 C 383.15625 549.886719 383.152344 549.84375 383.152344 549.800781 Z M 341.914062 524.585938 C 341.914062 524.585938 341.914062 524.605469 341.914062 524.609375 C 341.914062 524.632812 341.9375 524.511719 341.914062 524.585938"/></g><g><path fill="#6c7f96" d="M 317.503906 557.519531 C 309.828125 585.035156 319.191406 611.683594 338.421875 617.046875 C 357.640625 622.410156 379.449219 604.457031 387.125 576.949219 C 394.800781 549.441406 385.433594 522.789062 366.214844 517.421875 C 346.984375 512.058594 325.175781 530.015625 317.503906 557.519531"/></g><g><path fill="#607489" d="M 368.621094 574.871094 C 380.371094 563.117188 382.320312 546.480469 382.652344 530.375 C 389.914062 541.917969 392.066406 559.238281 387.125 576.949219 C 379.449219 604.457031 357.640625 622.410156 338.421875 617.046875 C 325.621094 613.476562 317.234375 600.460938 315.292969 584.0625 C 331.382812 593.765625 351.320312 593.605469 368.621094 574.871094"/></g><g><path fill="#33485d" d="M 343.042969 519.492188 C 330.769531 526.410156 320.671875 540.472656 316.03125 557.113281 C 311.386719 573.753906 312.746094 591.015625 319.667969 603.289062 C 324.09375 611.140625 330.4375 616.40625 338.007812 618.519531 C 345.578125 620.628906 353.730469 619.410156 361.585938 614.980469 C 373.859375 608.0625 383.953125 593.996094 388.597656 577.359375 C 393.242188 560.71875 391.882812 543.460938 384.964844 531.183594 C 380.53125 523.332031 374.191406 518.0625 366.625 515.953125 C 359.050781 513.839844 350.894531 515.0625 343.042969 519.492188 Z M 338.828125 615.574219 C 332.054688 613.683594 326.347656 608.917969 322.328125 601.785156 C 315.800781 590.207031 314.546875 573.808594 318.976562 557.9375 C 323.402344 542.054688 332.960938 528.679688 344.542969 522.152344 C 351.675781 518.132812 359.027344 517.007812 365.800781 518.894531 C 372.578125 520.785156 378.28125 525.550781 382.300781 532.683594 C 388.832031 544.265625 390.082031 560.660156 385.65625 576.535156 C 381.222656 592.414062 371.664062 605.789062 360.085938 612.320312 C 352.949219 616.339844 345.605469 617.464844 338.828125 615.574219"/></g></g></svg>