<?xml version="1.0" encoding="UTF-8"?><svg xmlns="http://www.w3.org/2000/svg" xmlns:xlink="http://www.w3.org/1999/xlink" contentScriptType="text/ecmascript" fill="#000000" width="232.9" zoomAndPan="magnify" contentStyleType="text/css" viewBox="95.6 99.2 232.9 230.9" height="230.9" preserveAspectRatio="xMidYMid meet" version="1.1">
 <g id="surface1">
  <g id="change1_1"><path fill="#f35ea7" d="m246.66 133.59c0 18.99-15.39 34.39-34.39 34.39-18.99 0-34.39-15.4-34.39-34.39 0-19 15.4-34.402 34.39-34.402 19 0 34.39 15.402 34.39 34.402"/></g>
  <g id="change1_2"><path fill="#f35ea7" d="m290.83 175.88c-12.37 14.41-34.08 16.06-48.5 3.69-14.41-12.37-16.06-34.09-3.69-48.5 12.38-14.41 34.09-16.06 48.5-3.69s16.07 34.08 3.69 48.5"/></g>
  <g id="change1_3"><path fill="#f35ea7" d="m296.8 236.73c-18.78 2.88-36.33-10.01-39.21-28.79-2.88-18.77 10.02-36.32 28.79-39.2 18.78-2.87 36.33 10.02 39.21 28.79 2.87 18.78-10.02 36.33-28.79 39.2"/></g>
  <g id="change1_4"><path fill="#f35ea7" d="m261.68 286.79c-16.13-10.05-21.05-31.25-11-47.38 10.05-16.11 31.27-21.03 47.38-10.99 16.13 10.06 21.05 31.27 11 47.38-10.06 16.13-31.27 21.04-47.38 10.99"/></g>
  <g id="change1_5"><path fill="#f35ea7" d="m202.42 301.9c-5.69-18.12 4.4-37.42 22.53-43.11 18.11-5.68 37.42 4.4 43.11 22.53 5.67 18.13-4.41 37.42-22.53 43.11-18.13 5.68-37.42-4.41-43.11-22.53"/></g>
  <g id="change1_6"><path fill="#f35ea7" d="m147.62 274.77c7.49-17.46 27.72-25.54 45.18-18.04 17.45 7.49 25.52 27.72 18.03 45.17-7.49 17.46-27.72 25.53-45.17 18.04-17.46-7.5-25.53-27.72-18.04-45.17"/></g>
  <g id="change1_7"><path fill="#f35ea7" d="m123.72 218.48c17.05-8.36 37.66-1.32 46.02 15.74 8.36 17.05 1.32 37.66-15.74 46.02s-37.66 1.31-46.02-15.73c-8.371-17.07-1.32-37.67 15.74-46.03"/></g>
  <g id="change1_8"><path fill="#f35ea7" d="m142.25 160.21c18.38 4.77 29.43 23.53 24.66 41.92-4.76 18.38-23.52 29.42-41.91 24.66-18.4-4.77-29.438-23.53-24.68-41.91 4.77-18.4 23.54-29.44 41.93-24.67"/></g>
  <g id="change1_9"><path fill="#f35ea7" d="m194.26 128.06c10.85 15.59 7.01 37.03-8.59 47.87-15.58 10.85-37.02 7-47.87-8.59-10.85-15.6-7-37.02 8.59-47.87 15.6-10.86 37.02-7.01 47.87 8.59"/></g>
  <g id="change1_10"><path fill="#f35ea7" d="m234.14 162.62c0 12.01-9.73 21.75-21.75 21.75-12.01 0-21.75-9.74-21.75-21.75 0-12.02 9.74-21.76 21.75-21.76 12.02 0 21.75 9.74 21.75 21.76"/></g>
  <g id="change1_11"><path fill="#f35ea7" d="m262.09 189.37c-7.83 9.11-21.57 10.17-30.68 2.34-9.12-7.83-10.17-21.57-2.34-30.68 7.83-9.12 21.57-10.17 30.68-2.34 9.12 7.83 10.16 21.56 2.34 30.68"/></g>
  <g id="change1_12"><path fill="#f35ea7" d="m265.86 227.86c-11.88 1.83-22.98-6.33-24.8-18.2-1.82-11.88 6.33-22.98 18.21-24.8s22.98 6.33 24.8 18.21-6.34 22.98-18.21 24.79"/></g>
  <g id="change1_13"><path fill="#f35ea7" d="m243.64 259.53c-10.19-6.35-13.3-19.77-6.95-29.97 6.36-10.19 19.78-13.31 29.97-6.95 10.2 6.36 13.31 19.78 6.95 29.97-6.35 10.2-19.77 13.31-29.97 6.95"/></g>
  <g id="change1_14"><path fill="#f35ea7" d="m206.16 269.09c-3.59-11.47 2.79-23.67 14.25-27.27s23.67 2.78 27.27 14.25c3.59 11.47-2.79 23.67-14.25 27.27-11.47 3.59-23.67-2.79-27.27-14.25"/></g>
  <g id="change1_15"><path fill="#f35ea7" d="m171.5 251.93c4.74-11.04 17.53-16.16 28.57-11.41 11.04 4.73 16.15 17.53 11.41 28.57s-17.53 16.15-28.57 11.41c-11.05-4.74-16.15-17.54-11.41-28.57"/></g>
  <g id="change1_16"><path fill="#f35ea7" d="m156.38 216.32c10.78-5.29 23.82-0.83 29.11 9.96 5.28 10.78 0.83 23.82-9.96 29.11s-23.82 0.83-29.1-9.95c-5.31-10.8-0.84-23.83 9.95-29.12"/></g>
  <g id="change1_17"><path fill="#f35ea7" d="m168.1 179.46c11.63 3.01 18.61 14.88 15.6 26.52-3.01 11.63-14.88 18.61-26.51 15.6-11.64-3.02-18.62-14.89-15.62-26.52 3.02-11.64 14.89-18.62 26.53-15.6"/></g>
  <g id="change1_18"><path fill="#f35ea7" d="m201 159.12c6.86 9.86 4.43 23.43-5.44 30.29-9.85 6.86-23.41 4.43-30.28-5.44-6.86-9.86-4.42-23.42 5.44-30.28 9.87-6.87 23.42-4.43 30.28 5.43"/></g>
  <g id="change1_19"><path fill="#f35ea7" d="m224.93 184c0 6.87-5.57 12.45-12.45 12.45-6.87 0-12.45-5.58-12.45-12.45 0-6.88 5.58-12.45 12.45-12.45 6.88 0 12.45 5.57 12.45 12.45"/></g>
  <g id="change1_20"><path fill="#f35ea7" d="m240.92 199.3c-4.48 5.22-12.33 5.82-17.56 1.34-5.22-4.48-5.81-12.34-1.33-17.55 4.47-5.22 12.34-5.82 17.56-1.34 5.21 4.48 5.81 12.34 1.33 17.55"/></g>
  <g id="change1_21"><path fill="#f35ea7" d="m243.07 221.34c-6.79 1.04-13.14-3.63-14.18-10.43-1.04-6.79 3.63-13.14 10.42-14.19 6.8-1.04 13.15 3.63 14.19 10.42 1.05 6.8-3.62 13.16-10.43 14.2"/></g>
  <g id="change1_22"><path fill="#f35ea7" d="m230.36 239.46c-5.83-3.64-7.61-11.32-3.97-17.15 3.63-5.84 11.31-7.62 17.15-3.98s7.61 11.32 3.98 17.15c-3.64 5.84-11.32 7.62-17.16 3.98"/></g>
  <g id="change1_23"><path fill="#f35ea7" d="m208.91 244.93c-2.05-6.57 1.6-13.55 8.16-15.61s13.54 1.59 15.61 8.16c2.05 6.56-1.6 13.54-8.16 15.6s-13.55-1.59-15.61-8.15"/></g>
  <g id="change1_24"><path fill="#f35ea7" d="m189.08 235.11c2.71-6.32 10.03-9.25 16.35-6.54 6.31 2.72 9.25 10.04 6.53 16.36-2.71 6.32-10.03 9.24-16.35 6.53s-9.25-10.04-6.53-16.35"/></g>
  <g id="change1_25"><path fill="#f35ea7" d="m180.42 214.73c6.18-3.03 13.64-0.48 16.67 5.7 3.02 6.17 0.47 13.63-5.7 16.66-6.18 3.02-13.63 0.47-16.66-5.7-3.03-6.18-0.48-13.63 5.69-16.66"/></g>
  <g id="change1_26"><path fill="#f35ea7" d="m187.13 193.64c6.66 1.72 10.66 8.51 8.93 15.17-1.72 6.65-8.51 10.65-15.17 8.93-6.66-1.73-10.66-8.52-8.94-15.18 1.73-6.66 8.52-10.65 15.18-8.92"/></g>
  <g id="change1_27"><path fill="#f35ea7" d="m205.96 182c3.93 5.64 2.53 13.4-3.11 17.32-5.64 3.93-13.4 2.54-17.33-3.1-3.92-5.65-2.54-13.41 3.11-17.33 5.65-3.93 13.41-2.54 17.33 3.11"/></g>
  <g id="change1_28"><path fill="#f35ea7" d="m225.45 182.78c0 7.17-5.81 12.98-12.97 12.98-7.17 0-12.98-5.81-12.98-12.98s5.81-12.98 12.98-12.98c7.16 0 12.97 5.81 12.97 12.98"/></g>
  <g id="change1_29"><path fill="#f35ea7" d="m242.12 198.74c-4.67 5.44-12.86 6.06-18.31 1.4-5.43-4.67-6.05-12.87-1.38-18.3 4.67-5.45 12.86-6.07 18.3-1.4 5.43 4.67 6.06 12.86 1.39 18.3"/></g>
  <g id="change1_30"><path fill="#f35ea7" d="m244.37 221.71c-7.09 1.08-13.71-3.78-14.8-10.87-1.08-7.08 3.79-13.7 10.87-14.79s13.71 3.78 14.79 10.86c1.09 7.09-3.77 13.71-10.86 14.8"/></g>
  <g id="change1_31"><path fill="#f35ea7" d="m231.12 240.6c-6.08-3.8-7.94-11.8-4.15-17.88s11.8-7.94 17.88-4.15c6.09 3.79 7.94 11.8 4.15 17.88-3.8 6.09-11.8 7.94-17.88 4.15"/></g>
  <g id="change1_32"><path fill="#f35ea7" d="m208.76 246.3c-2.15-6.84 1.66-14.12 8.5-16.27 6.84-2.14 14.12 1.66 16.27 8.5 2.14 6.84-1.67 14.13-8.5 16.27-6.84 2.15-14.13-1.66-16.27-8.5"/></g>
  <g id="change1_33"><path fill="#f35ea7" d="m188.08 236.06c2.83-6.58 10.46-9.63 17.04-6.81 6.59 2.83 9.64 10.46 6.81 17.05-2.82 6.59-10.46 9.63-17.04 6.81-6.59-2.83-9.64-10.47-6.81-17.05"/></g>
  <g id="change1_34"><path fill="#f35ea7" d="m179.06 214.82c6.43-3.16 14.21-0.5 17.37 5.94 3.15 6.43 0.49 14.21-5.95 17.36-6.43 3.16-14.2 0.5-17.36-5.93-3.16-6.44-0.5-14.21 5.94-17.37"/></g>
  <g id="change1_35"><path fill="#f35ea7" d="m186.05 192.83c6.94 1.8 11.11 8.88 9.31 15.82s-8.88 11.1-15.82 9.31c-6.94-1.8-11.11-8.89-9.31-15.82 1.79-6.95 8.88-11.11 15.82-9.31"/></g>
  <g id="change1_36"><path fill="#f35ea7" d="m205.68 180.7c4.09 5.88 2.64 13.97-3.24 18.06-5.88 4.1-13.97 2.64-18.07-3.24-4.09-5.88-2.64-13.97 3.24-18.06 5.89-4.1 13.98-2.65 18.07 3.24"/></g>
  <g id="change2_1"><path fill="#f2aa9d" d="m243.38 212.6c0 17-13.78 30.78-30.78 30.78-16.99 0-30.77-13.78-30.77-30.78 0-16.99 13.78-30.78 30.77-30.78 17 0 30.78 13.79 30.78 30.78"/></g>
 </g>
</svg>