<?xml version="1.0" encoding="UTF-8"?><svg xmlns="http://www.w3.org/2000/svg" xmlns:xlink="http://www.w3.org/1999/xlink" contentScriptType="text/ecmascript" fill="#000000" width="229.6" zoomAndPan="magnify" contentStyleType="text/css" viewBox="97.7 98.5 229.6 228.1" height="228.1" preserveAspectRatio="xMidYMid meet" version="1.1">
 <g id="surface1">
  <g id="change1_1"><path fill="#e9269d" d="m227.25 153.66c0 30.91-6.62 55.96-14.79 55.96s-14.8-25.05-14.8-55.96c0-24.38 4.43-45.42 10.18-53.09 1.54-2.05 2.89 4.81 4.62 4.81 1.53 0 3-6.798 4.4-5.16 6.02 7.08 10.39 28.33 10.39 53.44"/></g>
  <g id="change1_2"><path fill="#e9269d" d="m253.45 167.32c-14.33 27.39-31.81 46.51-39.06 42.72-7.23-3.79-1.48-29.06 12.85-56.43 11.31-21.61 24.99-38.2 33.64-42.32 2.32-1.11 0.33 5.6 1.86 6.4 1.36 0.71 5.82-4.63 6.29-2.53 2.05 9.07-3.93 29.92-15.58 52.16"/></g>
  <g id="change1_3"><path fill="#e9269d" d="m270.33 191.58c-25.39 17.62-49.76 26.45-54.41 19.73-4.65-6.71 12.15-26.43 37.56-44.04 20.04-13.89 39.84-22.25 49.43-21.89 2.55 0.1-2.31 5.12-1.33 6.53 0.87 1.26 7.3-1.39 6.75 0.68-2.39 8.98-17.36 24.68-38 38.99"/></g>
  <g id="change1_4"><path fill="#e9269d" d="m274.04 220.9c-30.67 3.83-56.35 0.36-57.36-7.76-1.01-8.1 23.03-17.77 53.7-21.6 24.19-3.01 45.62-1.23 53.94 3.53 2.23 1.28-4.41 3.47-4.2 5.18 0.19 1.52 7.11 2.14 5.67 3.73-6.29 6.85-26.83 13.82-51.75 16.92"/></g>
  <g id="change1_5"><path fill="#e9269d" d="m263.72 248.59c-28.94-10.83-50.08-25.82-47.22-33.47 2.87-7.65 28.65-5.07 57.59 5.77 22.84 8.55 41 20.07 46.16 28.15 1.38 2.16-5.52 1.02-6.13 2.63-0.53 1.44 5.32 5.2 3.3 5.93-8.75 3.16-30.18-0.2-53.7-9.01"/></g>
  <g id="change1_6"><path fill="#e9269d" d="m241.74 268.35c-20.62-23.03-32.4-46.11-26.31-51.56 6.08-5.45 27.73 8.8 48.35 31.82 16.27 18.17 27.01 36.79 27.84 46.34 0.22 2.56-5.37-1.65-6.65-0.5-1.14 1.02 2.29 7.07 0.17 6.78-9.22-1.26-26.65-14.18-43.4-32.88"/></g>
  <g id="change1_7"><path fill="#e9269d" d="m213.11 275.65c-7.59-29.96-7.33-55.87 0.59-57.88 7.92-2 20.49 20.65 28.08 50.62 5.99 23.63 6.87 45.12 3.17 53.97-0.99 2.36-3.98-3.96-5.65-3.54-1.49 0.38-1.25 7.33-3 6.09-7.58-5.39-17.03-24.92-23.19-49.26"/></g>
  <g id="change1_8"><path fill="#e9269d" d="m184.35 268.84c7.17-30.06 19.42-52.9 27.37-51 7.94 1.89 8.57 27.8 1.4 57.86-5.66 23.73-14.84 43.16-22.21 49.29-1.98 1.63-1.7-5.35-3.38-5.76-1.49-0.35-4.51 5.92-5.48 4-4.21-8.28-3.53-29.96 2.3-54.39"/></g>
  <g id="change1_9"><path fill="#e9269d" d="m162.03 249.47c20.29-23.31 41.74-37.86 47.9-32.49s-5.29 28.61-25.59 51.92c-16.02 18.39-33.17 31.35-42.54 33.35-2.51 0.54 0.97-5.52-0.32-6.65-1.16-1.01-6.74 3.15-6.71 1 0.11-9.3 10.77-28.19 27.26-47.13"/></g>
  <g id="change1_10"><path fill="#e9269d" d="m151.24 221.96c28.79-11.24 54.53-14.18 57.51-6.57 2.96 7.61-17.96 22.89-46.76 34.13-22.71 8.86-43.92 12.39-53.15 9.82-2.48-0.69 3.43-4.45 2.8-6.05-0.56-1.43-7.43-0.33-6.41-2.22 4.41-8.19 22.61-19.98 46.01-29.11"/></g>
  <g id="change1_11"><path fill="#e9269d" d="m154.44 192.58c30.72 3.4 54.89 12.73 53.99 20.85s-26.52 11.95-57.25 8.55c-24.23-2.68-44.66-9.39-51.649-15.95-1.867-1.75 5.099-2.35 5.289-4.05 0.17-1.53-6.425-3.75-4.64-4.95 7.7-5.21 29.3-7.21 54.26-4.45"/></g>
  <g id="change1_12"><path fill="#e9269d" d="m170.9 168.04c25.64 17.25 42.73 36.73 38.16 43.51-4.56 6.78-29.04-1.71-54.68-18.98-20.23-13.61-35.22-29.03-38.36-38.08-0.85-2.42 5.6 0.29 6.56-1.14 0.86-1.28-3.96-6.3-1.82-6.53 9.24-1.05 29.3 7.19 50.14 21.22"/></g>
  <g id="change1_13"><path fill="#e9269d" d="m196.86 153.93c14.71 27.18 20.82 52.36 13.63 56.25-7.18 3.89-24.93-14.99-39.64-42.17-11.61-21.45-17.74-42.06-16.33-51.54 0.38-2.54 4.84 2.85 6.35 2.03 1.35-0.73-0.59-7.41 1.41-6.63 8.67 3.36 22.63 19.97 34.58 42.06"/></g>
  <g id="change2_1"><path fill="#f2bc5f" d="m233.34 212.6c0 11.45-9.29 20.74-20.74 20.74-11.46 0-20.74-9.29-20.74-20.74 0-11.46 9.28-20.74 20.74-20.74 11.45 0 20.74 9.28 20.74 20.74"/></g>
 </g>
</svg>