<?xml version="1.0" encoding="UTF-8"?><svg xmlns="http://www.w3.org/2000/svg" xmlns:xlink="http://www.w3.org/1999/xlink" contentScriptType="text/ecmascript" fill="#000000" width="226.7" zoomAndPan="magnify" contentStyleType="text/css" viewBox="99.3 99.2 226.7 226.8" height="226.8" preserveAspectRatio="xMidYMid meet" version="1.1">
 <g id="surface1">
  <g id="change1_1"><path fill="#ca282f" d="m233.73 155.91c0 31.31-9.46 56.69-21.13 56.69s-21.13-25.38-21.13-56.69 9.46-56.695 21.13-56.695 21.13 25.385 21.13 56.695"/></g>
  <g id="change1_2"><path fill="#ca282f" d="m233.73 269.29c0 31.32-9.46 56.69-21.13 56.69s-21.13-25.37-21.13-56.69c0-31.31 9.46-56.69 21.13-56.69s21.13 25.38 21.13 56.69"/></g>
  <g id="change1_3"><path fill="#ca282f" d="m272.09 201.57c-26.86 16.1-53.49 21.04-59.49 11.03s10.9-31.17 37.76-47.28c26.85-16.1 53.48-21.04 59.48-11.03s-10.9 31.17-37.75 47.28"/></g>
  <g id="change1_4"><path fill="#ca282f" d="m174.84 259.88c-26.85 16.1-53.48 21.04-59.48 11.03s10.9-31.17 37.75-47.27c26.85-16.11 53.49-21.05 59.49-11.04s-10.9 31.17-37.76 47.28"/></g>
  <g id="change1_5"><path fill="#ca282f" d="m153.11 201.57c26.85 16.1 53.49 21.04 59.49 11.03s-10.9-31.17-37.76-47.28c-26.85-16.1-53.48-21.04-59.48-11.03s10.9 31.17 37.75 47.28"/></g>
  <g id="change1_6"><path fill="#ca282f" d="m250.36 259.88c26.85 16.1 53.48 21.04 59.48 11.03s-10.9-31.17-37.75-47.27c-26.86-16.11-53.49-21.05-59.49-11.04s10.9 31.17 37.76 47.28"/></g>
  <g id="change2_1"><path fill="#d82c33" d="m258.8 173.53c-15.34 27.29-36.03 44.79-46.2 39.07s-5.98-32.48 9.36-59.78c15.34-27.29 46.19-39.07 46.19-39.07s5.99 32.48-9.35 59.78"/></g>
  <g id="change2_2"><path fill="#d82c33" d="m203.25 272.38c-15.35 27.29-46.2 39.07-46.2 39.07s-5.99-32.49 9.35-59.78 36.03-44.79 46.2-39.07 5.99 32.48-9.35 59.78"/></g>
  <g id="change2_3"><path fill="#d82c33" d="m269.86 232.12c-31.29 0.89-56.93-7.85-57.26-19.52-0.33-11.66 24.78-21.83 56.08-22.72 31.29-0.88 57.26 19.53 57.26 19.53s-24.78 21.83-56.08 22.71"/></g>
  <g id="change2_4"><path fill="#d82c33" d="m156.52 235.32c-31.29 0.88-57.262-19.53-57.262-19.53s24.782-21.83 56.082-22.72c31.29-0.88 56.93 7.87 57.26 19.53 0.33 11.67-24.78 21.84-56.08 22.72"/></g>
  <g id="change2_5"><path fill="#d82c33" d="m166.15 173.84c15.52 27.19 36.31 44.55 46.45 38.76 10.13-5.78 5.77-32.52-9.75-59.71s-46.46-38.77-46.46-38.77-5.76 32.52 9.76 59.72"/></g>
  <g id="change2_6"><path fill="#d82c33" d="m222.35 272.31c15.52 27.19 46.45 38.76 46.45 38.76s5.77-32.51-9.75-59.71c-15.52-27.19-36.32-44.54-46.45-38.76-10.14 5.79-5.77 32.52 9.75 59.71"/></g>
  <g id="change3_1"><path fill="#f2bc5f" d="m230.09 212.6c0 9.66-7.83 17.49-17.49 17.49s-17.49-7.83-17.49-17.49 7.83-17.49 17.49-17.49 17.49 7.83 17.49 17.49"/></g>
 </g>
</svg>