<?xml version="1.0" encoding="UTF-8"?><svg xmlns="http://www.w3.org/2000/svg" xmlns:xlink="http://www.w3.org/1999/xlink" contentScriptType="text/ecmascript" fill="#000000" width="227.6" zoomAndPan="magnify" contentStyleType="text/css" viewBox="98.8 99.4 227.6 226.6" height="226.6" preserveAspectRatio="xMidYMid meet" version="1.1">
 <g id="surface1">
  <g id="change1_1"><path fill="#5799c8" d="m280.6 121.37c-3.43-2.61-9.88-0.6-17.69 4.8 0.85-9.45-0.59-16.05-4.55-17.74-8.37-3.57-24.82 16.19-36.75 44.14-10.23 23.96-13.81 46.14-9.36 54.25 0.4 0.86 0.95 1.57 1.65 2.11 0.12 0.1 0.27 0.18 0.41 0.26 0.06 0.04 0.13 0.09 0.2 0.13s0.14 0.07 0.21 0.11c0.14 0.08 0.28 0.16 0.43 0.23 0.81 0.35 1.7 0.47 2.65 0.39 9.25-0.14 26.77-14.19 42.56-34.92 18.41-24.18 27.48-48.25 20.24-53.76"/></g>
  <g id="change1_2"><path fill="#5799c8" d="m144.61 303.83c3.42 2.61 9.87 0.6 17.67-4.8-0.84 9.45 0.6 16.05 4.56 17.74 8.36 3.57 24.82-16.19 36.76-44.15 10.22-23.95 13.8-46.13 9.35-54.24-0.4-0.86-0.95-1.58-1.65-2.11-0.12-0.1-0.27-0.18-0.41-0.26-0.07-0.05-0.13-0.09-0.2-0.13s-0.14-0.08-0.21-0.11c-0.14-0.08-0.28-0.16-0.43-0.23-0.81-0.35-1.7-0.47-2.65-0.39-9.25 0.13-26.77 14.2-42.55 34.91-18.42 24.18-27.48 48.26-20.24 53.77"/></g>
  <g id="change1_3"><path fill="#5799c8" d="m254.34 318.45c4.02-1.54 5.71-8.09 5.23-17.56 7.58 5.69 13.96 7.95 17.48 5.48 7.44-5.24-0.69-29.64-18.17-54.5-14.98-21.31-31.94-36.03-41.18-36.52-0.95-0.12-1.84-0.03-2.66 0.28-0.15 0.06-0.3 0.14-0.44 0.22-0.08 0.03-0.15 0.06-0.22 0.1s-0.14 0.08-0.2 0.12c-0.15 0.08-0.29 0.15-0.43 0.25-0.72 0.5-1.29 1.19-1.72 2.04-4.76 7.94-2.03 30.24 7.27 54.57 10.85 28.39 26.54 48.77 35.04 45.52"/></g>
  <g id="change1_4"><path fill="#5799c8" d="m170.86 106.75c-4.02 1.54-5.71 8.09-5.22 17.56-7.59-5.7-13.97-7.95-17.49-5.48-7.45 5.23 0.69 29.63 18.17 54.5 14.98 21.31 31.95 36.03 41.18 36.52 0.95 0.11 1.84 0.03 2.66-0.28 0.15-0.06 0.3-0.14 0.44-0.22 0.08-0.03 0.15-0.06 0.22-0.1s0.13-0.08 0.2-0.12c0.14-0.08 0.29-0.15 0.43-0.25 0.71-0.5 1.28-1.2 1.72-2.04 4.76-7.94 2.03-30.24-7.27-54.57-10.85-28.39-26.54-48.77-35.04-45.52"/></g>
  <g id="change1_5"><path fill="#5799c8" d="m99.945 228.56c-0.648-4.25 4.205-8.95 12.685-13.21-8.69-3.79-13.806-8.22-13.396-12.5 0.876-9.06 26.116-14.04 56.366-11.11 25.93 2.5 47.11 9.99 52.1 17.78 0.56 0.77 0.92 1.59 1.06 2.46 0.02 0.16 0.02 0.32 0.03 0.48 0.01 0.08 0.01 0.16 0.01 0.24 0.01 0.09 0 0.16 0 0.24 0 0.17 0.01 0.33 0 0.49-0.09 0.88-0.41 1.71-0.93 2.51-4.55 8.06-25.29 16.7-51.04 20.62-30.04 4.58-55.52 1-56.885-8"/></g>
  <g id="change1_6"><path fill="#5799c8" d="m325.26 196.64c0.65 4.25-4.21 8.95-12.69 13.21 8.7 3.79 13.81 8.22 13.39 12.5-0.87 9.06-26.1 14.04-56.36 11.11-25.92-2.5-47.11-9.99-52.09-17.78-0.57-0.77-0.94-1.59-1.07-2.46-0.03-0.16-0.02-0.33-0.03-0.49-0.01-0.07-0.01-0.16-0.02-0.23v-0.25c0-0.16 0-0.32 0.01-0.48 0.09-0.88 0.41-1.72 0.93-2.51 4.55-8.06 25.29-16.7 51.04-20.62 30.05-4.58 55.52-1 56.89 8"/></g>
  <g id="change1_7"><path fill="#5799c8" d="m223 218.65c-3.35 5.74-10.71 7.69-16.45 4.35-5.74-3.35-7.69-10.71-4.35-16.45 3.35-5.75 10.71-7.69 16.45-4.35 5.74 3.35 7.69 10.71 4.35 16.45"/></g>
  <g id="change2_1"><path fill="#599ece" d="m237.89 166.32c0.12 21.13-11.11 38.32-25.09 38.4-13.96 0.07-25.39-16.99-25.5-38.12s7.04-67.026 24.94-67.123c17.9-0.098 25.54 45.723 25.65 66.843"/></g>
  <g id="change2_2"><path fill="#599ece" d="m241.34 258.03c-18.09-10.93-26.89-29.48-19.66-41.44s27.75-12.79 45.83-1.86c18.08 10.94 53.5 40.99 44.24 56.31-9.27 15.32-52.34-2.08-70.41-13.01"/></g>
  <g id="change2_3"><path fill="#599ece" d="m187.3 258.43c0.27-21.13 11.81-38.12 25.77-37.94 13.97 0.17 25.09 17.44 24.82 38.57-0.26 21.12-8.24 66.89-26.13 66.66-17.9-0.22-24.72-46.17-24.46-67.29"/></g>
  <g id="change2_4"><path fill="#599ece" d="m162.44 215.82c18.96-9.31 39.33-6.69 45.49 5.85s-4.23 30.26-23.2 39.57c-18.96 9.31-63.39 22.88-71.28 6.81-7.88-16.07 30.03-42.92 48.99-52.23"/></g>
  <g id="change2_5"><path fill="#599ece" d="m263.02 211.25c-18.27 10.63-38.77 9.45-45.79-2.63-7.03-12.07 2.08-30.48 20.34-41.1 18.27-10.63 61.63-27.29 70.63-11.82s-26.92 44.93-45.18 55.55"/></g>
  <g id="change2_6"><path fill="#599ece" d="m187.35 170.36c17.27 12.18 24.73 31.31 16.68 42.72-8.05 11.42-28.58 10.81-45.85-1.38-17.26-12.18-50.47-44.65-40.15-59.28s52.06 5.76 69.32 17.94"/></g>
  <g id="change3_1"><path fill="#f2bc5f" d="m254.23 212.6c0 22.99-18.63 41.63-41.63 41.63-22.99 0-41.62-18.64-41.62-41.63s18.63-41.63 41.62-41.63c23 0 41.63 18.64 41.63 41.63"/></g>
 </g>
</svg>