<?xml version="1.0" encoding="UTF-8"?><svg xmlns="http://www.w3.org/2000/svg" xmlns:xlink="http://www.w3.org/1999/xlink" contentScriptType="text/ecmascript" fill="#000000" width="226.8" zoomAndPan="magnify" contentStyleType="text/css" viewBox="99.2 103.1 226.8 224.1" height="224.1" preserveAspectRatio="xMidYMid meet" version="1.1">
 <g id="surface1">
  <g id="change1_1"><path fill="#d82c33" d="m166.32 164.13c-0.74-33.17 44.2-61.08 44.2-61.08s46.14 25.87 46.88 59.04-19.04 60.52-44.2 61.08c-25.15 0.56-46.14-25.87-46.88-59.04"/></g>
  <g id="change1_2"><path fill="#d82c33" d="m254.58 164.04c31.47-10.51 71.4 24.18 71.4 24.18s-11.07 51.72-42.54 62.23-63.44-0.31-71.41-24.17c-7.97-23.87 11.08-51.73 42.55-62.24"/></g>
  <g id="change1_3"><path fill="#d82c33" d="m284.05 246.47c19.34 26.96-1.99 75.37-1.99 75.37s-52.69 4.69-72.03-22.27-18.44-60.7 2-75.36 52.69-4.7 72.02 22.26"/></g>
  <g id="change1_4"><path fill="#d82c33" d="m212.09 300.69c-20.04 26.43-72.59 20.35-72.59 20.35s-20.05-48.94-0.01-75.38c20.04-26.45 52.54-35.56 72.58-20.36 20.05 15.19 20.06 48.95 0.02 75.39"/></g>
  <g id="change1_5"><path fill="#d82c33" d="m140.11 249.9c-31.18-11.33-40.895-63.33-40.895-63.33s40.835-33.62 72.015-22.29c31.18 11.34 49.49 39.69 40.9 63.33-8.59 23.65-40.84 33.62-72.02 22.29"/></g>
  <g id="change2_1"><path fill="#f2bc5f" d="m236.39 226.01c0 13.14-10.65 23.8-23.79 23.8s-23.8-10.66-23.8-23.8 10.66-23.8 23.8-23.8 23.79 10.66 23.79 23.8"/></g>
 </g>
</svg>