<?xml version="1.0" encoding="UTF-8"?><svg xmlns="http://www.w3.org/2000/svg" xmlns:xlink="http://www.w3.org/1999/xlink" contentScriptType="text/ecmascript" fill="#000000" width="19.2" zoomAndPan="magnify" contentStyleType="text/css" viewBox="-0.5 0.3 19.2 18.2" height="18.2" preserveAspectRatio="xMidYMid meet" version="1"><g fill-rule="evenodd"><g id="change1_1"><path fill="#ffc107" d="M 5.011719 3.976562 C 5.214844 1.886719 6.976562 0.253906 9.121094 0.253906 C 11.261719 0.253906 13.023438 1.886719 13.226562 3.976562 C 15.273438 3.523438 17.375 4.695312 18.035156 6.730469 C 18.699219 8.769531 17.6875 10.949219 15.761719 11.789062 C 16.828125 13.597656 16.363281 15.953125 14.628906 17.210938 C 12.894531 18.472656 10.511719 18.1875 9.121094 16.613281 C 7.726562 18.1875 5.34375 18.472656 3.609375 17.210938 C 1.875 15.953125 1.410156 13.597656 2.476562 11.789062 C 0.550781 10.949219 -0.460938 8.769531 0.203125 6.730469 C 0.863281 4.695312 2.964844 3.523438 5.011719 3.976562 Z M 5.011719 3.976562"/></g><g id="change2_1"><path fill="#ff5722" d="M 11.746094 9.625 C 11.746094 11.078125 10.570312 12.25 9.121094 12.25 C 7.667969 12.25 6.496094 11.078125 6.496094 9.625 C 6.496094 8.179688 7.667969 7.003906 9.121094 7.003906 C 10.570312 7.003906 11.746094 8.179688 11.746094 9.625 Z M 11.746094 9.625"/></g></g></svg>