<?xml version="1.0" encoding="UTF-8"?><svg xmlns="http://www.w3.org/2000/svg" xmlns:xlink="http://www.w3.org/1999/xlink" contentScriptType="text/ecmascript" fill="#000000" width="230" zoomAndPan="magnify" contentStyleType="text/css" viewBox="97.6 106.1 230.0 213.0" height="213" preserveAspectRatio="xMidYMid meet" version="1.1">
 <g id="surface1">
  <g id="change1_1"><path fill="#f5843f" d="m220.44 152.42c4.45 27.31-11.11 52.58-34.77 56.44-23.65 3.86-46.45-15.15-50.9-42.47-4.46-27.31 11.11-52.58 34.77-56.44 23.65-3.86 46.44 15.16 50.9 42.47"/></g>
  <g id="change1_2"><path fill="#f5843f" d="m198.26 152.42c-4.46 27.31 11.11 52.58 34.76 56.44 23.66 3.86 46.45-15.15 50.91-42.47 4.45-27.31-11.11-52.58-34.77-56.44s-46.45 15.16-50.9 42.47"/></g>
  <g id="change1_3"><path fill="#f5843f" d="m220.44 272.78c4.45-27.32-11.11-52.58-34.77-56.44-23.65-3.86-46.45 15.15-50.9 42.46-4.46 27.32 11.11 52.59 34.77 56.45 23.65 3.86 46.44-15.16 50.9-42.47"/></g>
  <g id="change1_4"><path fill="#f5843f" d="m272.85 173.03c-27.61 1.95-48.62 22.91-46.93 46.82s25.44 41.71 53.04 39.76c27.61-1.95 48.62-22.91 46.93-46.82s-25.43-41.71-53.04-39.76"/></g>
  <g id="change1_5"><path fill="#f5843f" d="m152.35 173.03c27.61 1.95 48.61 22.91 46.93 46.82-1.69 23.91-25.44 41.71-53.05 39.76-27.6-1.95-48.609-22.91-46.921-46.82 1.691-23.91 25.431-41.71 53.041-39.76"/></g>
  <g id="change1_6"><path fill="#f5843f" d="m198.26 272.78c-4.46-27.32 11.11-52.58 34.76-56.44 23.66-3.86 46.45 15.15 50.91 42.46 4.45 27.32-11.11 52.59-34.77 56.45s-46.45-15.16-50.9-42.47"/></g>
  <g id="change2_1"><path fill="#f2bc5f" d="m237.18 212.6c0 13.57-11.01 24.58-24.58 24.58s-24.58-11.01-24.58-24.58 11.01-24.58 24.58-24.58 24.58 11.01 24.58 24.58"/></g>
 </g>
</svg>