<?xml version="1.0" encoding="UTF-8"?><svg xmlns="http://www.w3.org/2000/svg" xmlns:xlink="http://www.w3.org/1999/xlink" contentScriptType="text/ecmascript" fill="#000000" width="516.8" zoomAndPan="magnify" contentStyleType="text/css" viewBox="-10.8 -1.8 516.8 235.0" height="235" preserveAspectRatio="xMidYMid meet" version="1"><defs><clipPath id="a"><path d="M 48 45 L 64 45 L 64 233.25 L 48 233.25 Z M 48 45"/></clipPath><clipPath id="b"><path d="M 185 57 L 200 57 L 200 233.25 L 185 233.25 Z M 185 57"/></clipPath><clipPath id="c"><path d="M 478 34 L 483 34 L 483 233.25 L 478 233.25 Z M 478 34"/></clipPath><clipPath id="d"><path d="M 121 65 L 126 65 L 126 233.25 L 121 233.25 Z M 121 65"/></clipPath><clipPath id="e"><path d="M 398 65 L 403 65 L 403 233.25 L 398 233.25 Z M 398 65"/></clipPath><clipPath id="f"><path d="M 478 159 L 504.410156 159 L 504.410156 196 L 478 196 Z M 478 159"/></clipPath></defs><g><g id="change1_1"><path fill="#f9c1bf" d="M 50.15625 41.3125 C 47.914062 34.480469 29.40625 9.125 41.121094 1.53125 C 45.855469 -1.757812 50.589844 1.027344 55.074219 2.546875 C 61.304688 4.820312 65.042969 4.570312 66.289062 12.667969 C 67.535156 20.007812 62.550781 41.617188 55.574219 41.566406 L 50.15625 41.3125"/></g><g id="change1_2"><path fill="#f9c1bf" d="M 50.699219 45.851562 C 43.238281 44.777344 9.542969 39.730469 19.332031 26.535156 C 22.316406 22.449219 29.523438 21.921875 34.050781 20.625 C 40.671875 18.871094 44.246094 26.277344 48.171875 30.921875 C 52.480469 36.269531 56.589844 37.925781 53.183594 44.1875 L 50.699219 45.851562"/></g><g id="change1_3"><path fill="#f9c1bf" d="M 50.699219 42.234375 C 54.839844 35.847656 73.730469 7.066406 81.296875 21.691406 C 83.660156 26.179688 81.046875 33.019531 80.265625 37.730469 C 79 44.558594 70.878906 44.679688 65.066406 46.296875 C 58.464844 47.96875 55.234375 51.03125 51.113281 45.230469 L 50.699219 42.234375"/></g><g id="change2_1"><path fill="#e6cf3c" d="M 25.042969 83.765625 C 23.953125 77.921875 26.011719 51.789062 16.277344 51.496094 C 12.265625 51.222656 11.632812 57.695312 9.480469 60.734375 C 6.558594 65.074219 3.011719 64.105469 5.152344 70.414062 C 7.023438 76.183594 17.71875 89.394531 21.886719 86.3125 L 25.042969 83.765625"/></g><g id="change2_2"><path fill="#e6cf3c" d="M 29.101562 88.242188 C 32.320312 83.195312 46.75 60.285156 35.480469 58.230469 C 32.015625 57.5625 28.152344 61.507812 25.261719 63.414062 C 21.101562 66.285156 22.882812 72.796875 23.164062 77.875 C 23.585938 83.601562 22.328125 87.011719 27.054688 88.722656 L 29.101562 88.242188"/></g><g id="change3_2"><path fill="#3a5a3c" d="M 50.605469 48.59375 C 43.476562 49.195312 36.34375 36.523438 35.15625 30.488281 C 44.070312 26.265625 51.199219 39.542969 52.386719 46.179688 L 50.605469 48.59375"/></g><g id="change3_3"><path fill="#3a5a3c" d="M 51.199219 48.601562 C 56.328125 49.011719 61.460938 40.363281 62.316406 36.246094 C 55.902344 33.363281 50.769531 42.425781 49.914062 46.953125 L 51.199219 48.601562"/></g><g id="change3_4"><path fill="#3a5a3c" d="M 22.878906 91.007812 C 17.707031 91.445312 12.535156 82.257812 11.671875 77.878906 C 18.140625 74.8125 23.308594 84.445312 24.171875 89.257812 L 22.878906 91.007812"/></g><g id="change3_5"><path fill="#3a5a3c" d="M 23.308594 91.015625 C 27.03125 91.3125 30.753906 85.039062 31.371094 82.054688 C 26.71875 79.964844 23 86.535156 22.378906 89.820312 L 23.308594 91.015625"/></g><g id="change3_54" clip-path="url(#a)"><path fill="#3a5a3c" d="M 48.71875 47.355469 C 58 77.070312 57.59375 108.496094 59.214844 139.273438 C 60.824219 169.796875 62.964844 201.734375 55.613281 231.691406 C 55.230469 233.257812 57.640625 233.921875 58.023438 232.355469 C 65.425781 202.195312 63.417969 170.007812 61.714844 139.273438 C 59.992188 108.261719 60.484375 76.648438 51.132812 46.691406 C 50.652344 45.15625 48.238281 45.8125 48.71875 47.355469"/></g><g id="change3_6"><path fill="#3a5a3c" d="M 20.480469 86.3125 C 19.972656 134.089844 18.058594 181.871094 19.496094 229.652344 C 19.546875 231.261719 22.046875 231.265625 21.996094 229.652344 C 20.558594 181.871094 22.472656 134.089844 22.980469 86.3125 C 23 84.695312 20.5 84.699219 20.480469 86.3125"/></g><g id="change3_7"><path fill="#3a5a3c" d="M 44.359375 111.390625 C 44.359375 111.390625 30.804688 99.804688 21.09375 146.398438 C 57.277344 118.945312 44.359375 111.390625 44.359375 111.390625"/></g><g id="change3_8"><path fill="#3a5a3c" d="M 82.695312 60.070312 C 82.695312 60.070312 69.136719 48.484375 59.425781 95.074219 C 95.609375 67.625 82.695312 60.070312 82.695312 60.070312"/></g><g id="change3_9"><path fill="#3a5a3c" d="M 85.058594 122.660156 C 85.058594 122.660156 71.5 111.074219 61.792969 157.667969 C 97.972656 130.214844 85.058594 122.660156 85.058594 122.660156"/></g><g id="change3_10"><path fill="#3a5a3c" d="M 85.058594 154.398438 C 85.058594 154.398438 71.5 142.8125 61.792969 189.40625 C 97.972656 161.957031 85.058594 154.398438 85.058594 154.398438"/></g><g id="change3_11"><path fill="#3a5a3c" d="M 3.375 146.351562 C 3.375 146.351562 19.011719 137.777344 19 185.371094 C -10.8125 151.109375 3.375 146.351562 3.375 146.351562"/></g><g id="change1_4"><path fill="#f9c1bf" d="M 253.683594 62.859375 C 251.4375 56.023438 232.929688 30.671875 244.644531 23.078125 C 249.378906 19.785156 254.113281 22.570312 258.597656 24.089844 C 264.828125 26.367188 268.566406 26.113281 269.8125 34.214844 C 271.058594 41.554688 266.074219 63.160156 259.097656 63.113281 L 253.683594 62.859375"/></g><g id="change1_5"><path fill="#f9c1bf" d="M 254.222656 67.394531 C 246.761719 66.324219 213.066406 61.273438 222.855469 48.078125 C 225.839844 43.992188 233.046875 43.464844 237.574219 42.171875 C 244.195312 40.414062 247.769531 47.820312 251.695312 52.46875 C 256.003906 57.8125 260.113281 59.46875 256.710938 65.730469 L 254.222656 67.394531"/></g><g id="change1_6"><path fill="#f9c1bf" d="M 254.222656 63.78125 C 258.363281 57.390625 277.253906 28.609375 284.820312 43.234375 C 287.183594 47.722656 284.574219 54.566406 283.789062 59.273438 C 282.523438 66.105469 274.402344 66.222656 268.589844 67.839844 C 261.988281 69.511719 258.757812 72.578125 254.640625 66.773438 L 254.222656 63.78125"/></g><g id="change1_7"><path fill="#f9c1bf" d="M 406.707031 61.703125 C 408.949219 54.867188 427.457031 29.511719 415.742188 21.921875 C 411.007812 18.628906 406.273438 21.414062 401.789062 22.933594 C 395.558594 25.210938 391.820312 24.957031 390.574219 33.054688 C 389.328125 40.394531 394.3125 62.003906 401.289062 61.953125 L 406.707031 61.703125"/></g><g id="change1_8"><path fill="#f9c1bf" d="M 406.164062 66.238281 C 413.625 65.167969 447.316406 60.117188 437.53125 46.921875 C 434.550781 42.835938 427.339844 42.308594 422.8125 41.011719 C 416.191406 39.257812 412.617188 46.664062 408.691406 51.3125 C 404.386719 56.65625 400.273438 58.3125 403.679688 64.574219 L 406.164062 66.238281"/></g><g id="change1_9"><path fill="#f9c1bf" d="M 406.164062 62.625 C 402.023438 56.234375 383.132812 27.453125 375.566406 42.078125 C 373.203125 46.566406 375.8125 53.410156 376.597656 58.117188 C 377.863281 64.945312 385.984375 65.066406 391.796875 66.683594 C 398.398438 68.355469 401.628906 71.421875 405.75 65.617188 L 406.164062 62.625"/></g><g id="change1_10"><path fill="#f9c1bf" d="M 107.164062 111.222656 C 106.171875 105.363281 95.226562 81.617188 104.246094 77.882812 C 107.910156 76.199219 110.734375 82.03125 113.796875 84.117188 C 118.03125 87.144531 121.019531 84.972656 121.191406 91.644531 C 121.429688 97.710938 115.964844 113.890625 111 112.484375 L 107.164062 111.222656"/></g><g id="change1_11"><path fill="#f9c1bf" d="M 104.910156 116.859375 C 100.15625 113.28125 78.734375 96.957031 88.578125 91.019531 C 91.59375 89.164062 96.574219 91.484375 99.941406 92.238281 C 104.828125 93.449219 105.40625 100.183594 106.894531 105.039062 C 108.472656 110.550781 110.832031 113.300781 106.992188 116.585938 L 104.910156 116.859375"/></g><g id="change4_1"><path fill="#f14a58" d="M 123.558594 63.566406 C 125.800781 56.734375 144.3125 31.378906 132.597656 23.785156 C 127.863281 20.496094 123.128906 26.683594 118.644531 28.199219 C 112.414062 30.480469 108.675781 26.824219 107.429688 34.921875 C 106.183594 42.261719 111.167969 63.871094 118.144531 63.820312 L 123.558594 63.566406"/></g><g id="change4_2"><path fill="#f14a58" d="M 125.773438 71.214844 C 132.796875 68.433594 164.449219 55.667969 151.941406 45.105469 C 148.113281 41.824219 140.980469 42.988281 136.28125 42.78125 C 129.441406 42.617188 127.632812 50.660156 124.863281 56.097656 C 121.878906 62.304688 118.25 64.871094 122.980469 70.175781 L 125.773438 71.214844"/></g><g id="change4_3"><path fill="#f14a58" d="M 124.191406 61.242188 C 119.003906 55.695312 95.394531 30.769531 90.5 46.523438 C 88.953125 51.363281 92.714844 57.628906 94.304688 62.121094 C 96.742188 68.617188 104.757812 67.273438 110.761719 67.820312 C 117.546875 68.277344 121.261719 70.714844 124.304688 64.265625 L 124.191406 61.242188"/></g><g id="change4_4"><path fill="#f14a58" d="M 333.46875 80.699219 C 335.710938 73.867188 354.222656 48.511719 342.507812 40.917969 C 337.773438 37.628906 333.039062 43.8125 328.554688 45.332031 C 322.324219 47.609375 318.585938 43.953125 317.339844 52.054688 C 316.09375 59.394531 321.078125 81.003906 328.054688 80.953125 L 333.46875 80.699219"/></g><g id="change4_5"><path fill="#f14a58" d="M 335.6875 88.347656 C 342.703125 85.5625 374.359375 72.800781 361.851562 62.238281 C 358.023438 58.953125 350.890625 60.121094 346.191406 59.914062 C 339.351562 59.75 337.542969 67.789062 334.773438 73.230469 C 331.789062 79.433594 328.160156 82.003906 332.890625 87.308594 L 335.6875 88.347656"/></g><g id="change4_6"><path fill="#f14a58" d="M 334.105469 78.375 C 328.914062 72.828125 305.304688 47.898438 300.40625 63.652344 C 298.863281 68.492188 302.625 74.761719 304.21875 79.253906 C 306.65625 85.746094 314.667969 84.402344 320.671875 84.949219 C 327.457031 85.410156 331.171875 87.847656 334.214844 81.394531 L 334.105469 78.375"/></g><g id="change4_7"><path fill="#f14a58" d="M 422.9375 94.234375 C 428.117188 91.460938 446.964844 73.539062 453.253906 81.089844 C 455.964844 84.105469 451.375 88.640625 450.371094 92.242188 C 448.851562 97.269531 451.808594 99.480469 445.613281 101.714844 C 440.007812 103.824219 423.171875 103.558594 422.945312 98.328125 L 422.9375 94.234375"/></g><g id="change4_8"><path fill="#f14a58" d="M 416.964844 93.804688 C 418.84375 88.101562 427.492188 62.363281 436.101562 70.03125 C 438.769531 72.367188 438.144531 77.894531 438.476562 81.378906 C 438.859375 86.472656 432.730469 89.117188 428.648438 92.058594 C 423.976562 95.289062 422.132812 98.417969 417.867188 95.726562 L 416.964844 93.804688"/></g><g id="change2_3"><path fill="#e6cf3c" d="M 198.925781 49.351562 C 197.832031 43.507812 199.890625 17.375 190.15625 17.085938 C 186.144531 16.808594 185.511719 23.28125 183.363281 26.320312 C 180.4375 30.660156 176.894531 29.691406 179.035156 36.003906 C 180.902344 41.769531 191.601562 54.980469 195.769531 51.894531 L 198.925781 49.351562"/></g><g id="change2_4"><path fill="#e6cf3c" d="M 202.980469 53.828125 C 206.199219 48.78125 220.632812 25.871094 209.363281 23.816406 C 205.898438 23.148438 202.03125 27.09375 199.144531 29 C 194.980469 31.871094 196.765625 38.382812 197.042969 43.460938 C 197.464844 49.1875 196.207031 52.597656 200.933594 54.308594 L 202.980469 53.828125"/></g><g id="change2_5"><path fill="#e6cf3c" d="M 269.46875 94.234375 C 274.648438 91.460938 293.492188 73.539062 299.78125 81.089844 C 302.492188 84.105469 297.902344 88.640625 296.902344 92.242188 C 295.378906 97.269531 298.335938 99.480469 292.144531 101.714844 C 286.535156 103.824219 269.699219 103.558594 269.476562 98.328125 L 269.46875 94.234375"/></g><g id="change2_6"><path fill="#e6cf3c" d="M 263.492188 93.804688 C 265.371094 88.101562 274.019531 62.363281 282.628906 70.03125 C 285.300781 72.367188 284.671875 77.894531 285.003906 81.378906 C 285.386719 86.472656 279.261719 89.117188 275.175781 92.058594 C 270.503906 95.289062 268.660156 98.417969 264.394531 95.726562 L 263.492188 93.804688"/></g><g id="change2_7"><path fill="#e6cf3c" d="M 484.328125 33.269531 C 483.234375 27.429688 485.292969 1.292969 475.5625 1.003906 C 471.546875 0.730469 470.914062 7.199219 468.765625 10.238281 C 465.84375 14.582031 462.296875 13.609375 464.4375 19.921875 C 466.308594 25.691406 477.003906 38.898438 481.171875 35.816406 L 484.328125 33.269531"/></g><g id="change2_8"><path fill="#e6cf3c" d="M 488.386719 37.746094 C 491.601562 32.703125 506.035156 9.792969 494.765625 7.734375 C 491.300781 7.070312 487.4375 11.015625 484.546875 12.917969 C 480.382812 15.789062 482.167969 22.304688 482.445312 27.382812 C 482.867188 33.105469 481.609375 36.519531 486.339844 38.230469 L 488.386719 37.746094"/></g><g id="change3_12"><path fill="#3a5a3c" d="M 110.492188 116.167969 C 115.488281 114.738281 117.160156 104.289062 116.457031 99.882812 C 109.347656 99.3125 107.824219 110.171875 108.679688 114.988281 L 110.492188 116.167969"/></g><g id="change3_13"><path fill="#3a5a3c" d="M 110.09375 116.324219 C 106.710938 117.929688 101.058594 113.378906 99.449219 110.804688 C 103.085938 107.1875 108.839844 112.019531 110.550781 114.875 L 110.09375 116.324219"/></g><g id="change3_14"><path fill="#3a5a3c" d="M 265.871094 98.980469 C 268.757812 103.359375 279.058594 101.738281 282.964844 99.695312 C 281.296875 92.652344 270.65625 94.546875 266.410156 96.859375 L 265.871094 98.980469"/></g><g id="change3_15"><path fill="#3a5a3c" d="M 265.597656 98.640625 C 263.050781 95.867188 265.558594 89.007812 267.472656 86.652344 C 271.980469 89.046875 269.242188 96.097656 267.097656 98.636719 L 265.597656 98.640625"/></g><g id="change3_16"><path fill="#3a5a3c" d="M 330.613281 88.59375 C 323.480469 89.195312 316.351562 76.523438 315.164062 70.488281 C 324.074219 66.265625 331.207031 79.542969 332.394531 86.179688 L 330.613281 88.59375"/></g><g id="change3_17"><path fill="#3a5a3c" d="M 331.203125 88.601562 C 336.335938 89.011719 341.46875 80.363281 342.320312 76.246094 C 335.90625 73.363281 330.777344 82.425781 329.921875 86.953125 L 331.203125 88.601562"/></g><g id="change3_18"><path fill="#3a5a3c" d="M 328.730469 83.164062 C 337.699219 106.089844 337.613281 130.855469 339.15625 155.0625 C 340.71875 179.574219 342.933594 205.503906 335.621094 229.320312 C 335.144531 230.863281 337.558594 231.519531 338.03125 229.984375 C 345.21875 206.578125 343.511719 180.832031 341.769531 156.722656 C 339.960938 131.734375 340.414062 106.203125 331.140625 82.5 C 330.558594 81.015625 328.140625 81.660156 328.730469 83.164062"/></g><g id="change3_19"><path fill="#3a5a3c" d="M 109.296875 115.65625 C 119.214844 131.519531 127.402344 148.820312 134.300781 166.183594 C 137.285156 173.6875 140.078125 181.34375 140.667969 189.441406 C 141.664062 203.132812 142.707031 217.25 136.671875 230.019531 C 135.984375 231.472656 138.140625 232.738281 138.828125 231.28125 C 144.339844 219.621094 144.347656 206.996094 143.523438 194.375 C 142.90625 184.878906 140.976562 176.738281 137.609375 167.832031 C 130.652344 149.421875 121.894531 131.09375 111.453125 114.394531 C 110.601562 113.03125 108.4375 114.285156 109.296875 115.65625"/></g><g id="change3_20"><path fill="#3a5a3c" d="M 265.722656 95.394531 C 255.214844 114.941406 246.730469 135.996094 239.738281 157.035156 C 236.601562 166.484375 234.453125 175.570312 233.828125 185.496094 C 232.867188 200.804688 232.308594 216.519531 238.222656 230.984375 C 238.824219 232.457031 241.242188 231.8125 240.632812 230.320312 C 234.796875 216.039062 235.402344 200.601562 236.328125 185.496094 C 236.953125 175.359375 239.347656 166.140625 242.542969 156.515625 C 249.335938 136.074219 257.671875 115.644531 267.878906 96.65625 C 268.644531 95.234375 266.484375 93.972656 265.722656 95.394531"/></g><g id="change3_21"><path fill="#3a5a3c" d="M 419.34375 98.980469 C 422.226562 103.359375 432.527344 101.738281 436.4375 99.695312 C 434.769531 92.652344 424.128906 94.546875 419.886719 96.859375 L 419.34375 98.980469"/></g><g id="change3_22"><path fill="#3a5a3c" d="M 419.070312 98.640625 C 416.523438 95.867188 419.03125 89.007812 420.945312 86.652344 C 425.453125 89.046875 422.714844 96.097656 420.570312 98.636719 L 419.070312 98.640625"/></g><g id="change3_23"><path fill="#3a5a3c" d="M 419.191406 95.394531 C 408.6875 114.941406 400.203125 135.996094 393.210938 157.035156 C 390.074219 166.484375 387.925781 175.570312 387.300781 185.496094 C 386.339844 200.804688 385.78125 216.519531 391.695312 230.984375 C 392.296875 232.457031 394.714844 231.8125 394.105469 230.320312 C 388.269531 216.039062 388.871094 200.601562 389.800781 185.496094 C 390.425781 175.359375 392.820312 166.140625 396.015625 156.515625 C 402.808594 136.074219 411.144531 115.644531 421.351562 96.65625 C 422.113281 95.234375 419.957031 93.972656 419.191406 95.394531"/></g><g id="change3_24"><path fill="#3a5a3c" d="M 197.769531 58.59375 C 204.898438 59.195312 212.03125 46.523438 213.21875 40.488281 C 204.304688 36.265625 197.175781 49.542969 195.988281 56.179688 L 197.769531 58.59375"/></g><g id="change3_25"><path fill="#3a5a3c" d="M 197.179688 58.601562 C 192.046875 59.011719 186.914062 50.363281 186.058594 46.246094 C 192.472656 43.363281 197.605469 52.425781 198.460938 56.953125 L 197.179688 58.601562"/></g><g id="change3_52" clip-path="url(#b)"><path fill="#3a5a3c" d="M 197.242188 58.550781 C 187.972656 86.375 188.289062 115.996094 186.675781 144.953125 C 185.066406 173.832031 182.949219 204.082031 190.351562 232.355469 C 190.757812 233.914062 193.171875 233.253906 192.761719 231.691406 C 185.433594 203.699219 187.492188 173.550781 189.175781 144.953125 C 190.867188 116.191406 190.4375 86.867188 199.65625 59.214844 C 200.164062 57.683594 197.75 57.03125 197.242188 58.550781"/></g><g id="change3_26"><path fill="#3a5a3c" d="M 482.164062 40.515625 C 476.992188 40.953125 471.820312 31.761719 470.957031 27.386719 C 477.421875 24.320312 482.59375 33.949219 483.457031 38.765625 L 482.164062 40.515625"/></g><g id="change3_27"><path fill="#3a5a3c" d="M 482.59375 40.519531 C 486.3125 40.816406 490.035156 34.546875 490.65625 31.5625 C 486.003906 29.46875 482.28125 36.039062 481.660156 39.324219 L 482.59375 40.519531"/></g><g id="change3_51" clip-path="url(#c)"><path fill="#3a5a3c" d="M 479.765625 35.816406 C 479.265625 101.21875 477.332031 166.621094 478.78125 232.023438 C 478.816406 233.632812 481.316406 233.636719 481.28125 232.023438 C 479.832031 166.621094 481.765625 101.21875 482.265625 35.816406 C 482.277344 34.203125 479.777344 34.203125 479.765625 35.816406"/></g><g id="change3_28"><path fill="#3a5a3c" d="M 125.15625 71.007812 C 119.984375 71.445312 114.8125 62.257812 113.953125 57.878906 C 120.417969 54.8125 125.589844 64.445312 126.449219 69.257812 L 125.15625 71.007812"/></g><g id="change3_29"><path fill="#3a5a3c" d="M 125.585938 71.015625 C 129.308594 71.3125 133.03125 65.039062 133.652344 62.054688 C 128.996094 59.964844 125.277344 66.535156 124.65625 69.820312 L 125.585938 71.015625"/></g><g id="change3_1" clip-path="url(#d)"><path fill="#3a5a3c" d="M 122.757812 66.484375 C 122.253906 121.664062 120.332031 176.847656 121.773438 232.023438 C 121.816406 233.632812 124.316406 233.636719 124.273438 232.023438 C 122.832031 176.847656 124.753906 121.664062 125.257812 66.484375 C 125.273438 64.875 122.773438 64.875 122.757812 66.484375"/></g><g id="change3_30"><path fill="#3a5a3c" d="M 402.730469 71.007812 C 397.558594 71.445312 392.386719 62.257812 391.523438 57.878906 C 397.988281 54.8125 403.160156 64.445312 404.019531 69.257812 L 402.730469 71.007812"/></g><g id="change3_31"><path fill="#3a5a3c" d="M 403.15625 71.015625 C 406.882812 71.3125 410.601562 65.039062 411.222656 62.054688 C 406.570312 59.964844 402.847656 66.535156 402.226562 69.820312 L 403.15625 71.015625"/></g><g id="change3_55" clip-path="url(#e)"><path fill="#3a5a3c" d="M 400.332031 66.484375 C 399.824219 121.664062 397.902344 176.847656 399.347656 232.023438 C 399.390625 233.632812 401.890625 233.636719 401.847656 232.023438 C 400.402344 176.847656 402.324219 121.664062 402.832031 66.484375 C 402.847656 64.875 400.347656 64.875 400.332031 66.484375"/></g><g id="change3_32"><path fill="#3a5a3c" d="M 254.730469 71.007812 C 259.902344 71.445312 265.074219 62.257812 265.9375 57.878906 C 259.472656 54.8125 254.300781 64.445312 253.4375 69.257812 L 254.730469 71.007812"/></g><g id="change3_33"><path fill="#3a5a3c" d="M 254.300781 71.015625 C 250.578125 71.3125 246.855469 65.039062 246.234375 62.054688 C 250.890625 59.964844 254.609375 66.535156 255.230469 69.820312 L 254.300781 71.015625"/></g><g id="change3_34"><path fill="#3a5a3c" d="M 254.628906 67.394531 C 255.132812 121.476562 257.054688 175.566406 255.613281 229.652344 C 255.570312 231.265625 258.070312 231.261719 258.113281 229.652344 C 259.554688 175.566406 257.632812 121.476562 257.128906 67.394531 C 257.113281 65.78125 254.613281 65.78125 254.628906 67.394531"/></g><g id="change3_35"><path fill="#3a5a3c" d="M 146.964844 91.148438 C 146.964844 91.148438 133.40625 79.5625 123.699219 126.15625 C 159.882812 98.703125 146.964844 91.148438 146.964844 91.148438"/></g><g id="change3_36"><path fill="#3a5a3c" d="M 165.988281 160.730469 C 165.988281 160.730469 152.429688 149.148438 142.722656 195.738281 C 178.902344 168.289062 165.988281 160.730469 165.988281 160.730469"/></g><g id="change3_37"><path fill="#3a5a3c" d="M 209.4375 137.832031 C 209.4375 137.832031 195.878906 126.246094 186.171875 172.839844 C 222.355469 145.386719 209.4375 137.832031 209.4375 137.832031"/></g><g id="change3_38"><path fill="#3a5a3c" d="M 280.515625 142.589844 C 280.515625 142.589844 266.960938 131.003906 257.25 177.597656 C 293.433594 150.144531 280.515625 142.589844 280.515625 142.589844"/></g><g id="change3_39"><path fill="#3a5a3c" d="M 362.503906 106.304688 C 362.503906 106.304688 348.945312 94.71875 339.238281 141.3125 C 375.421875 113.859375 362.503906 106.304688 362.503906 106.304688"/></g><g id="change3_40"><path fill="#3a5a3c" d="M 423.324219 160.730469 C 423.324219 160.730469 409.765625 149.148438 400.058594 195.738281 C 436.238281 168.289062 423.324219 160.730469 423.324219 160.730469"/></g><g id="change3_53" clip-path="url(#f)"><path fill="#3a5a3c" d="M 502.167969 160.730469 C 502.167969 160.730469 488.609375 149.148438 478.902344 195.738281 C 515.085938 168.289062 502.167969 160.730469 502.167969 160.730469"/></g><g id="change3_41"><path fill="#3a5a3c" d="M 97.617188 169.761719 C 97.617188 169.761719 111.023438 158 121.335938 204.464844 C 84.800781 177.484375 97.617188 169.761719 97.617188 169.761719"/></g><g id="change3_42"><path fill="#3a5a3c" d="M 164.933594 79.339844 C 164.933594 79.339844 178.339844 67.578125 188.652344 114.039062 C 152.117188 87.0625 164.933594 79.339844 164.933594 79.339844"/></g><g id="change3_43"><path fill="#3a5a3c" d="M 223.6875 103.085938 C 223.6875 103.085938 237.09375 91.324219 247.402344 137.789062 C 210.867188 110.808594 223.6875 103.085938 223.6875 103.085938"/></g><g id="change3_44"><path fill="#3a5a3c" d="M 314.351562 101.851562 C 314.351562 101.851562 327.757812 90.09375 338.070312 136.554688 C 301.535156 109.574219 314.351562 101.851562 314.351562 101.851562"/></g><g id="change3_45"><path fill="#3a5a3c" d="M 377.15625 81.570312 C 377.15625 81.570312 390.5625 69.8125 400.875 116.273438 C 364.339844 89.296875 377.15625 81.570312 377.15625 81.570312"/></g><g id="change3_46"><path fill="#3a5a3c" d="M 363.828125 160.910156 C 363.828125 160.910156 377.234375 149.148438 387.550781 195.613281 C 351.015625 168.632812 363.828125 160.910156 363.828125 160.910156"/></g><g id="change3_47"><path fill="#3a5a3c" d="M 456.277344 61.410156 C 456.277344 61.410156 469.683594 49.652344 479.996094 96.113281 C 443.460938 69.132812 456.277344 61.410156 456.277344 61.410156"/></g><g id="change3_48"><path fill="#3a5a3c" d="M 456.277344 105.410156 C 456.277344 105.410156 469.683594 93.652344 479.996094 140.113281 C 443.460938 113.132812 456.277344 105.410156 456.277344 105.410156"/></g><g id="change3_49"><path fill="#3a5a3c" d="M 317.34375 154.183594 C 317.34375 154.183594 330.746094 142.425781 341.0625 188.886719 C 304.523438 161.90625 317.34375 154.183594 317.34375 154.183594"/></g><g id="change3_50"><path fill="#3a5a3c" d="M 212.351562 184.085938 C 212.351562 184.085938 225.757812 172.328125 236.070312 218.789062 C 199.535156 191.808594 212.351562 184.085938 212.351562 184.085938"/></g></g></svg>