<?xml version="1.0" encoding="UTF-8"?><svg xmlns="http://www.w3.org/2000/svg" xmlns:xlink="http://www.w3.org/1999/xlink" contentScriptType="text/ecmascript" fill="#000000" width="218.2" zoomAndPan="magnify" contentStyleType="text/css" viewBox="103.5 99.2 218.2 226.8" height="226.8" preserveAspectRatio="xMidYMid meet" version="1.1">
 <g id="surface1">
  <g id="change1_1"><path fill="#a41d2d" d="m172.72 292.62c4.87-22.28 38.03-82.93 38.03-82.93h3.7s33.17 60.65 38.03 82.93c3.93 18-17.86 33.36-39.88 33.36s-43.81-15.36-39.88-33.36"/></g>
  <g id="change1_2"><path fill="#a41d2d" d="m252.48 132.58c-4.86 22.28-38.03 82.93-38.03 82.93h-3.7s-33.16-60.65-38.03-82.93c-3.93-18 17.86-33.365 39.88-33.365s43.81 15.365 39.88 33.365"/></g>
  <g id="change1_3"><path fill="#a41d2d" d="m263.52 288.07c-17.52-14.61-56-72.02-56-72.02l1.7-3.28s69.11-1.43 91.12 4.54c17.78 4.82 21.35 31.25 11.19 50.78-10.17 19.54-33.86 31.78-48.01 19.98"/></g>
  <g id="change1_4"><path fill="#a41d2d" d="m161.68 288.07c17.52-14.61 56.01-72.02 56.01-72.02l-1.71-3.28s-69.1-1.43-91.12 4.54c-17.79 4.82-21.35 31.25-11.19 50.78 10.17 19.54 33.86 31.78 48.01 19.98"/></g>
  <g id="change1_5"><path fill="#a41d2d" d="m302.09 207.36c-21.65 7.16-90.73 9.53-90.73 9.53l-1.88-3.18s35.27-59.44 51.97-74.98c13.49-12.56 37.81-1.64 49.03 17.31 11.22 18.94 9.11 45.53-8.39 51.32"/></g>
  <g id="change1_6"><path fill="#a41d2d" d="m123.11 207.36c21.65 7.16 90.73 9.53 90.73 9.53l1.88-3.18s-35.27-59.44-51.97-74.98c-13.48-12.56-37.81-1.64-49.03 17.31-11.22 18.94-9.11 45.53 8.39 51.32"/></g>
  <g id="change2_1"><path fill="#f2bc5f" d="m235.23 215.51c0 12.5-10.13 22.63-22.63 22.63s-22.63-10.13-22.63-22.63 10.13-22.63 22.63-22.63 22.63 10.13 22.63 22.63"/></g>
 </g>
</svg>