<?xml version="1.0" encoding="UTF-8"?><svg xmlns="http://www.w3.org/2000/svg" xmlns:xlink="http://www.w3.org/1999/xlink" contentScriptType="text/ecmascript" fill="#000000" width="239.2" zoomAndPan="magnify" contentStyleType="text/css" viewBox="92.9 101.1 239.2 230.3" height="230.3" preserveAspectRatio="xMidYMid meet" version="1.1">
 <g id="surface1">
  <g id="change1_1"><path fill="#f04142" d="m257.52 159.64c0.73 32.6-43.44 60.03-43.44 60.03s-45.35-25.42-46.08-58.03c-0.73-32.6 18.71-59.48 43.43-60.03 24.73-0.56 45.36 25.43 46.09 58.03"/></g>
  <g id="change1_2"><path fill="#f04142" d="m282.38 246.19c-30.93 10.33-70.19-23.76-70.19-23.76s10.89-50.84 41.82-61.18c30.94-10.33 62.36 0.31 70.19 23.77 7.84 23.45-10.89 50.84-41.82 61.17"/></g>
  <g id="change1_3"><path fill="#f04142" d="m210.23 295.07c-19.02-26.5 1.96-74.08 1.96-74.08s51.79-4.61 70.8 21.89 18.13 59.66-1.97 74.07c-20.09 14.42-51.79 4.62-70.79-21.88"/></g>
  <g id="change1_4"><path fill="#f04142" d="m140.89 241.78c19.7-25.99 71.35-20.01 71.35-20.01s19.71 48.11 0.01 74.1-51.64 34.95-71.35 20.01c-19.71-14.93-19.71-48.11-0.01-74.1"/></g>
  <g id="change1_5"><path fill="#f04142" d="m172.09 161.79c30.65 11.14 40.2 62.26 40.2 62.26s-40.14 33.04-70.79 21.9-48.648-39.01-40.2-62.25c8.45-23.24 40.14-33.05 70.79-21.91"/></g>
  <g id="change2_1"><path fill="#f1ef24" d="m236.14 221.75c0 12.92-10.47 23.39-23.39 23.39s-23.39-10.47-23.39-23.39c0-12.91 10.47-23.39 23.39-23.39s23.39 10.48 23.39 23.39"/></g>
 </g>
</svg>