<?xml version="1.0" encoding="UTF-8"?><svg xmlns="http://www.w3.org/2000/svg" xmlns:xlink="http://www.w3.org/1999/xlink" contentScriptType="text/ecmascript" fill="#000000" width="423.9" zoomAndPan="magnify" contentStyleType="text/css" viewBox="0.0 -0.0 423.9 450.1" height="450.1" preserveAspectRatio="xMidYMid meet" version="1"><g id="change1_1"><path fill="#7c462e" d="M 423.304688 111.441406 C 422.933594 111.902344 422.429688 112.609375 421.667969 113.410156 C 420.214844 115.058594 417.957031 117.285156 414.832031 119.382812 C 411.714844 121.464844 407.777344 123.507812 403.257812 124.683594 C 401.015625 125.3125 398.636719 125.722656 396.207031 125.886719 C 394.996094 126.003906 393.769531 125.96875 392.542969 125.976562 C 391.316406 125.890625 390.089844 125.84375 388.867188 125.644531 C 383.964844 125.007812 379.191406 123.449219 374.671875 122.078125 C 370.148438 120.679688 365.832031 119.417969 361.949219 118.816406 C 359.605469 118.453125 357.441406 118.332031 355.574219 118.378906 C 355.867188 118.128906 356.164062 117.886719 356.449219 117.632812 C 362.757812 112.070312 367.855469 105.324219 371.824219 98.671875 C 375.773438 91.980469 378.699219 85.382812 381 79.671875 C 383.277344 73.953125 384.964844 69.117188 386.152344 65.738281 C 387.320312 62.351562 387.988281 60.417969 387.988281 60.417969 C 387.988281 60.417969 387.214844 62.3125 385.855469 65.625 C 384.484375 68.933594 382.527344 73.660156 379.945312 79.214844 C 377.347656 84.753906 374.082031 91.117188 369.859375 97.429688 C 365.613281 103.710938 360.355469 109.890625 354.074219 114.832031 C 347.8125 119.777344 340.816406 123.753906 333.832031 126.308594 C 326.871094 128.921875 320.050781 130.316406 314.1875 130.84375 C 308.316406 131.371094 303.417969 131.128906 300.035156 130.757812 C 299.761719 130.734375 299.519531 130.703125 299.265625 130.675781 C 300.945312 128.167969 302.4375 125.476562 303.519531 122.542969 C 304.75 119.261719 305.433594 115.546875 304.882812 111.800781 C 304.460938 108.808594 303.019531 106.046875 301.140625 103.835938 C 301.195312 103.292969 301.261719 102.585938 301.34375 101.710938 C 301.566406 99.601562 301.894531 96.59375 302.683594 93.113281 C 303.5 89.664062 304.777344 85.644531 307.445312 82.199219 C 308.765625 80.472656 310.429688 78.96875 312.386719 77.695312 C 314.335938 76.410156 316.515625 75.320312 318.699219 74.15625 C 320.878906 72.996094 323.074219 71.703125 325.011719 70.175781 C 326.960938 68.664062 328.738281 67.007812 330.300781 65.265625 C 333.40625 61.761719 335.671875 57.992188 337.125 54.578125 C 338.613281 51.171875 339.34375 48.148438 339.710938 46.03125 C 339.921875 44.972656 339.996094 44.128906 340.0625 43.554688 C 340.128906 42.984375 340.164062 42.679688 340.164062 42.679688 C 340.164062 42.679688 340.117188 42.980469 340.023438 43.550781 C 339.929688 44.121094 339.816406 44.957031 339.558594 46 C 339.09375 48.089844 338.226562 51.050781 336.605469 54.335938 C 335.015625 57.632812 332.621094 61.214844 329.453125 64.472656 C 327.859375 66.089844 326.066406 67.605469 324.128906 68.972656 C 322.191406 70.351562 320.078125 71.46875 317.871094 72.515625 C 315.667969 73.5625 313.390625 74.566406 311.230469 75.847656 C 309.070312 77.105469 307.066406 78.742188 305.496094 80.613281 C 302.304688 84.367188 300.722656 88.714844 299.679688 92.34375 C 298.730469 95.789062 298.25 98.722656 297.917969 100.847656 C 295.746094 99.214844 293.445312 98.007812 291.253906 96.859375 C 290.789062 96.621094 290.328125 96.386719 289.871094 96.152344 C 289.582031 95.910156 289.25 95.636719 288.828125 95.316406 C 287.59375 94.386719 285.703125 93.261719 283.285156 92.410156 C 281.019531 90.84375 279.152344 88.972656 277.976562 86.710938 C 276.769531 84.382812 276.238281 81.707031 275.996094 79.054688 C 275.75 76.394531 275.769531 73.71875 275.726562 71.117188 C 275.695312 68.519531 275.664062 66.011719 275.632812 63.605469 C 275.394531 44.335938 275.234375 31.492188 275.234375 31.492188 C 275.234375 31.492188 274.703125 44.324219 273.910156 63.578125 C 273.8125 65.984375 273.710938 68.492188 273.601562 71.085938 C 273.503906 73.675781 273.339844 76.371094 273.445312 79.222656 C 273.558594 82.054688 273.949219 85.089844 275.257812 88.007812 C 275.769531 89.148438 276.433594 90.226562 277.199219 91.226562 C 275.992188 91.175781 274.738281 91.226562 273.46875 91.417969 C 271.765625 91.652344 270.011719 92.199219 268.4375 92.816406 C 266.847656 93.414062 265.304688 94.015625 263.753906 94.1875 C 262.21875 94.363281 260.652344 94.023438 259.183594 93.367188 C 257.710938 92.714844 256.34375 91.796875 255.039062 90.871094 C 252.464844 88.933594 250.058594 87.125 247.996094 85.574219 C 243.871094 82.460938 241.121094 80.382812 241.121094 80.382812 C 241.121094 80.382812 243.726562 82.636719 247.636719 86.019531 C 249.597656 87.710938 251.882812 89.683594 254.335938 91.796875 C 255.597656 92.820312 256.949219 93.875 258.527344 94.710938 C 260.089844 95.546875 261.972656 96.113281 263.886719 96.019531 C 265.785156 95.933594 267.527344 95.363281 269.136719 94.878906 C 270.757812 94.371094 272.238281 94.023438 273.75 93.914062 C 276.269531 93.703125 278.644531 94.109375 280.644531 94.757812 C 280.890625 94.957031 281.136719 95.15625 281.390625 95.347656 C 283.929688 97.300781 286.699219 98.800781 289.339844 100.347656 C 291.96875 101.894531 294.546875 103.480469 296.503906 105.464844 C 298.414062 107.460938 299.691406 109.828125 299.929688 112.453125 C 300.164062 115.074219 299.5625 117.867188 298.390625 120.515625 C 297.246094 123.179688 295.628906 125.707031 293.773438 128.0625 C 291.882812 130.472656 289.839844 132.738281 287.675781 134.847656 C 283.351562 139.058594 278.558594 142.621094 273.589844 145.4375 C 268.609375 148.277344 263.554688 150.269531 258.410156 151.851562 C 255.644531 152.714844 252.890625 153.507812 250.1875 154.304688 C 250.925781 152.433594 251.5 150.460938 251.832031 148.457031 C 252.449219 144.996094 252.597656 141.476562 253.097656 138.007812 C 253.347656 136.273438 253.6875 134.550781 254.210938 132.859375 C 254.734375 131.160156 255.425781 129.460938 256.089844 127.796875 C 257.441406 124.476562 258.601562 121.230469 258.671875 118.523438 C 258.796875 115.824219 258.027344 113.742188 257.097656 112.539062 C 256.648438 111.925781 256.191406 111.511719 255.867188 111.242188 C 255.527344 110.984375 255.347656 110.847656 255.347656 110.847656 C 255.347656 110.847656 255.507812 111.003906 255.804688 111.289062 C 256.085938 111.585938 256.476562 112.035156 256.824219 112.679688 C 257.5625 113.945312 258.027344 116.035156 257.59375 118.640625 C 257.207031 121.25 255.769531 124.273438 254.046875 127.535156 C 253.195312 129.171875 252.285156 130.882812 251.515625 132.683594 C 250.742188 134.488281 250.160156 136.335938 249.679688 138.15625 C 248.726562 141.800781 248.140625 145.359375 247.179688 148.574219 C 246.335938 151.558594 245.03125 154.222656 243.539062 156.382812 C 243.507812 156.394531 243.46875 156.402344 243.433594 156.414062 C 238.6875 158.003906 234.234375 159.953125 230.527344 162.175781 C 229.1875 162.976562 227.964844 163.816406 226.804688 164.667969 C 226.195312 156.539062 225.476562 148.496094 224.554688 140.628906 C 223.769531 133.957031 222.855469 127.40625 221.804688 121.019531 C 220.765625 114.621094 219.527344 108.449219 218.335938 102.464844 C 215.902344 90.515625 213.515625 79.351562 211.824219 68.976562 C 210.109375 58.613281 209.101562 49.054688 208.925781 40.546875 C 208.925781 38.425781 208.832031 36.355469 208.917969 34.371094 C 209.011719 32.386719 209.101562 30.472656 209.1875 28.632812 C 209.328125 26.796875 209.574219 25.046875 209.746094 23.359375 C 209.84375 22.519531 209.9375 21.699219 210.03125 20.894531 C 210.179688 20.105469 210.324219 19.332031 210.464844 18.578125 C 210.742188 17.070312 211.011719 15.640625 211.261719 14.296875 C 211.554688 12.964844 211.933594 11.738281 212.230469 10.582031 C 212.542969 9.425781 212.828125 8.355469 213.09375 7.378906 C 213.363281 6.398438 213.734375 5.550781 213.996094 4.769531 C 215.128906 1.65625 215.730469 -0.00390625 215.730469 -0.00390625 C 215.730469 -0.00390625 214.984375 1.597656 213.585938 4.605469 C 213.25 5.367188 212.804688 6.1875 212.445312 7.144531 C 212.09375 8.105469 211.710938 9.152344 211.296875 10.285156 C 210.894531 11.425781 210.402344 12.632812 209.988281 13.953125 C 209.613281 15.292969 209.21875 16.710938 208.800781 18.214844 C 208.589844 18.964844 208.375 19.738281 208.15625 20.53125 C 207.988281 21.335938 207.820312 22.160156 207.648438 23.003906 C 207.320312 24.695312 206.910156 26.464844 206.609375 28.324219 C 206.355469 30.191406 206.089844 32.140625 205.816406 34.15625 C 205.550781 36.179688 205.460938 38.285156 205.269531 40.460938 C 204.6875 49.167969 204.859375 59.039062 205.675781 69.710938 C 206.46875 80.386719 207.890625 91.867188 209.257812 103.894531 C 209.914062 109.90625 210.597656 116.0625 211.058594 122.320312 C 211.507812 128.328125 211.820312 134.476562 212.015625 140.730469 C 208.867188 137.890625 204.96875 134.375 200.511719 130.355469 C 194.53125 124.953125 187.550781 118.648438 180.074219 111.894531 C 176.464844 108.539062 172.945312 104.992188 170.273438 100.917969 C 168.945312 98.886719 167.828125 96.730469 167.089844 94.453125 C 166.347656 92.179688 165.949219 89.773438 165.886719 87.285156 C 165.738281 82.300781 166.835938 77.113281 168.09375 71.992188 C 168.738281 69.394531 169.378906 66.816406 170.007812 64.269531 C 170.316406 62.976562 170.582031 61.679688 170.824219 60.382812 C 171.097656 59.089844 171.308594 57.800781 171.488281 56.515625 C 173.03125 46.257812 172.699219 36.539062 171.46875 28.433594 C 170.214844 20.316406 168.199219 13.78125 166.503906 9.347656 C 165.628906 7.140625 164.929688 5.414062 164.382812 4.265625 C 163.859375 3.109375 163.582031 2.492188 163.582031 2.492188 C 163.582031 2.492188 163.824219 3.128906 164.269531 4.3125 C 164.746094 5.488281 165.335938 7.257812 166.066406 9.503906 C 167.476562 14.007812 169.066406 20.609375 169.804688 28.640625 C 170.519531 36.660156 170.242188 46.140625 168.152344 55.902344 C 167.898438 57.121094 167.621094 58.347656 167.285156 59.566406 C 166.976562 60.789062 166.644531 62.019531 166.269531 63.253906 C 165.484375 65.738281 164.691406 68.257812 163.894531 70.792969 C 162.550781 75.132812 161.226562 79.707031 160.71875 84.582031 C 160.636719 84.519531 160.5625 84.460938 160.476562 84.394531 C 158.933594 83.207031 156.738281 81.511719 154.214844 79.375 C 151.703125 77.226562 148.867188 74.617188 146.226562 71.476562 C 143.566406 68.339844 141.261719 64.621094 139.515625 60.527344 C 137.726562 56.460938 136.277344 52.175781 134.570312 48.28125 C 132.902344 44.371094 130.84375 40.917969 128.65625 38.320312 C 126.484375 35.695312 124.179688 34 122.460938 33.066406 C 121.601562 32.59375 120.898438 32.273438 120.40625 32.097656 C 119.917969 31.910156 119.65625 31.8125 119.65625 31.8125 C 119.65625 31.8125 119.914062 31.925781 120.390625 32.136719 C 120.871094 32.335938 121.554688 32.6875 122.382812 33.199219 C 124.039062 34.210938 126.222656 36 128.222656 38.675781 C 130.238281 41.332031 132.078125 44.796875 133.523438 48.722656 C 135.015625 52.636719 136.242188 56.964844 137.863281 61.222656 C 139.433594 65.496094 141.699219 69.613281 144.320312 73.027344 C 146.925781 76.464844 149.738281 79.320312 152.210938 81.660156 C 154.695312 83.992188 156.839844 85.824219 158.335938 87.101562 C 159.445312 88.042969 160.199219 88.683594 160.515625 88.953125 C 160.554688 91.347656 160.847656 93.78125 161.460938 96.140625 C 162.210938 99.050781 163.425781 101.78125 164.847656 104.292969 C 167.722656 109.324219 171.402344 113.464844 174.941406 117.207031 C 182.015625 124.453125 188.621094 131.214844 194.277344 137.011719 C 203.328125 146.261719 209.949219 153.03125 212.238281 155.367188 C 212.28125 177.472656 211.082031 200.65625 210.078125 224.042969 C 209.910156 227.921875 209.738281 231.804688 209.570312 235.679688 C 203.144531 234.714844 195.125 233.410156 186.097656 231.363281 C 181.914062 230.410156 177.507812 229.269531 172.984375 227.882812 C 173.476562 226.953125 174.046875 225.769531 174.625 224.34375 C 176.191406 220.40625 177.5625 214.539062 177.121094 207.796875 C 176.90625 204.433594 176.3125 200.851562 175.1875 197.257812 C 174.097656 193.664062 172.542969 190.054688 170.667969 186.511719 C 166.933594 179.402344 161.878906 172.621094 157.042969 165.855469 C 152.195312 159.09375 147.664062 152.175781 144.835938 145.007812 C 142.03125 137.824219 140.386719 130.617188 138.050781 124.769531 C 135.800781 118.882812 136.128906 119.574219 133.625 116.867188 C 132.382812 115.5 131.273438 114.550781 130.507812 113.921875 C 129.710938 113.316406 129.289062 112.996094 129.289062 112.996094 C 129.289062 112.996094 129.691406 113.339844 130.449219 113.976562 C 131.179688 114.644531 132.226562 115.644531 133.378906 117.058594 C 135.703125 119.867188 135.082031 119.253906 136.976562 125.179688 C 138.96875 131.074219 140.195312 138.304688 142.667969 145.84375 C 145.175781 153.402344 149.457031 160.769531 153.941406 167.816406 C 158.429688 174.878906 163 181.800781 166.160156 188.730469 C 169.371094 195.632812 171.050781 202.488281 171.035156 208.441406 C 171.09375 214.410156 169.644531 219.265625 168.222656 222.398438 C 167.550781 223.832031 166.929688 224.925781 166.445312 225.699219 C 160.449219 223.550781 154.339844 220.921875 148.324219 217.589844 C 141.921875 214.035156 135.652344 209.726562 130.046875 204.53125 C 127.226562 201.949219 124.570312 199.148438 122.175781 196.125 C 119.765625 193.113281 117.558594 189.914062 115.648438 186.496094 C 114.632812 184.828125 113.804688 183.039062 112.894531 181.300781 C 112.082031 179.503906 111.21875 177.730469 110.496094 175.886719 C 108.964844 172.242188 107.675781 168.484375 106.480469 164.714844 C 104.109375 157.160156 102.25 149.5 100.425781 142.054688 C 98.601562 134.609375 96.8125 127.359375 94.652344 120.585938 C 92.507812 113.820312 89.988281 107.566406 87.21875 102.019531 C 81.703125 90.890625 74.882812 82.835938 69.253906 78.363281 C 68.554688 77.796875 67.894531 77.265625 67.269531 76.761719 C 66.628906 76.28125 65.996094 75.878906 65.421875 75.480469 C 64.847656 75.089844 64.316406 74.726562 63.828125 74.390625 C 63.339844 74.0625 62.851562 73.828125 62.441406 73.582031 C 60.773438 72.640625 59.882812 72.136719 59.882812 72.136719 C 59.882812 72.136719 60.742188 72.6875 62.355469 73.722656 C 62.75 73.988281 63.21875 74.25 63.6875 74.605469 C 64.152344 74.960938 64.660156 75.351562 65.210938 75.773438 C 65.753906 76.203125 66.359375 76.636719 66.96875 77.144531 C 67.554688 77.675781 68.179688 78.242188 68.839844 78.839844 C 74.144531 83.566406 80.363281 91.828125 85.136719 102.988281 C 87.535156 108.558594 89.648438 114.796875 91.378906 121.53125 C 93.113281 128.261719 94.476562 135.496094 95.878906 143.035156 C 96.820312 148.089844 97.792969 153.289062 98.925781 158.554688 C 98.742188 158.621094 98.5625 158.6875 98.355469 158.761719 C 97.753906 158.925781 97.0625 159.113281 96.285156 159.328125 C 93.179688 160.101562 88.566406 160.96875 82.957031 160.601562 C 80.15625 160.488281 77.132812 159.992188 74.003906 159.195312 C 70.878906 158.390625 67.640625 157.222656 64.515625 155.5625 C 61.390625 153.933594 58.320312 151.800781 55.605469 149.351562 C 52.992188 146.871094 50.695312 143.773438 50.039062 140.4375 C 49.679688 138.769531 49.859375 137.128906 50.457031 135.527344 C 51.078125 133.890625 52.214844 132.183594 52.941406 130.078125 C 53.648438 127.960938 53.777344 125.726562 53.484375 123.671875 C 53.222656 121.601562 52.59375 119.695312 51.898438 117.898438 C 50.441406 114.3125 48.695312 111.171875 47.191406 108.085938 C 45.652344 105.019531 44.199219 102.121094 42.855469 99.445312 C 37.488281 88.742188 33.910156 81.609375 33.910156 81.609375 C 33.910156 81.609375 37.074219 88.9375 41.816406 99.929688 C 43.003906 102.679688 44.285156 105.65625 45.644531 108.808594 C 46.96875 111.964844 48.550781 115.265625 49.714844 118.691406 C 50.855469 122.097656 51.449219 125.859375 50.136719 129.042969 C 49.503906 130.632812 48.332031 132.203125 47.390625 134.222656 C 46.453125 136.277344 46.050781 138.75 46.410156 141.019531 C 46.472656 141.46875 46.570312 141.90625 46.671875 142.34375 C 46.480469 142.460938 46.292969 142.574219 46.050781 142.699219 C 44.742188 143.363281 42.566406 144.019531 39.8125 143.777344 C 38.449219 143.667969 36.964844 143.355469 35.46875 142.804688 C 33.988281 142.230469 32.441406 141.410156 30.960938 140.378906 C 27.96875 138.328125 25.171875 135.472656 22.382812 132.566406 C 11.191406 120.941406 0 109.316406 0 109.316406 C 0 109.316406 10.511719 121.558594 21.023438 133.804688 C 23.644531 136.859375 26.347656 139.980469 29.476562 142.402344 C 31.03125 143.621094 32.679688 144.632812 34.390625 145.410156 C 36.105469 146.160156 37.832031 146.632812 39.472656 146.859375 C 42.761719 147.34375 45.660156 146.714844 47.523438 145.890625 C 47.640625 145.84375 47.742188 145.789062 47.847656 145.738281 C 48.101562 146.277344 48.371094 146.800781 48.660156 147.304688 C 49.738281 149.207031 51.074219 150.886719 52.515625 152.429688 C 55.460938 155.417969 58.660156 157.90625 62.054688 159.941406 C 65.433594 161.988281 68.964844 163.503906 72.417969 164.613281 C 75.871094 165.710938 79.25 166.460938 82.417969 166.777344 C 88.753906 167.558594 94.144531 166.890625 97.828125 166.191406 C 98.75 165.992188 99.574219 165.816406 100.289062 165.660156 C 100.382812 165.632812 100.460938 165.613281 100.550781 165.585938 C 100.613281 165.839844 100.664062 166.089844 100.726562 166.34375 C 101.738281 170.304688 102.867188 174.300781 104.269531 178.253906 C 104.921875 180.242188 105.734375 182.191406 106.5 184.160156 C 107.371094 186.09375 108.160156 188.066406 109.160156 189.953125 C 112.9375 197.609375 118.035156 204.738281 123.945312 210.761719 C 129.816406 216.851562 136.429688 221.960938 143.195312 226.226562 C 149.960938 230.5 156.90625 233.945312 163.660156 236.703125 C 168.109375 238.535156 172.445312 240.070312 176.628906 241.417969 C 173.878906 242.761719 170.820312 244.253906 167.484375 245.878906 C 160.445312 249.265625 152.367188 253.179688 143.316406 255.339844 C 142.78125 255.464844 142.238281 255.585938 141.695312 255.695312 C 141.257812 255.664062 140.632812 255.558594 139.835938 255.359375 C 138.21875 254.953125 135.871094 254.003906 133.359375 252.011719 C 130.835938 250.039062 128.214844 247.140625 125.910156 243.5 C 123.554688 239.867188 121.390625 235.582031 118.84375 231.386719 C 117.570312 229.296875 116.1875 227.230469 114.648438 225.324219 C 113.113281 223.425781 111.492188 221.722656 109.957031 220.082031 C 106.875 216.828125 104.164062 213.722656 102.617188 210.550781 C 101.027344 207.414062 100.503906 204.425781 100.605469 202.359375 C 100.636719 201.320312 100.792969 200.511719 100.914062 199.964844 C 101.058594 199.421875 101.136719 199.132812 101.136719 199.132812 C 101.136719 199.132812 101.03125 199.414062 100.835938 199.941406 C 100.660156 200.476562 100.421875 201.277344 100.289062 202.332031 C 99.984375 204.429688 100.21875 207.574219 101.566406 211.019531 C 102.867188 214.492188 105.421875 218.050781 108.1875 221.589844 C 109.5625 223.375 110.980469 225.1875 112.238281 227.09375 C 113.496094 228.992188 114.597656 231.039062 115.621094 233.152344 C 117.664062 237.375 119.410156 241.863281 121.5625 246.011719 C 123.671875 250.1875 126.367188 253.910156 129.257812 256.660156 C 124.476562 256.386719 119.679688 255.269531 115.414062 253.066406 C 111.144531 250.914062 107.480469 247.441406 103.941406 243.761719 C 100.40625 240.085938 96.886719 236.175781 92.78125 233.074219 C 88.699219 229.980469 84.414062 227.730469 80.460938 225.578125 C 76.492188 223.441406 72.804688 221.386719 69.699219 219.085938 C 63.464844 214.511719 59.839844 208.757812 58.730469 204.371094 C 58.140625 202.175781 58.085938 200.359375 58.128906 199.140625 C 58.222656 197.917969 58.316406 197.265625 58.316406 197.265625 C 58.316406 197.265625 58.179688 197.90625 58.003906 199.128906 C 57.882812 200.355469 57.8125 202.191406 58.269531 204.476562 C 59.113281 209.046875 62.445312 215.242188 68.628906 220.4375 C 71.699219 223.035156 75.34375 225.386719 79.167969 227.785156 C 82.984375 230.191406 87.003906 232.675781 90.582031 235.785156 C 94.160156 238.871094 97.246094 242.769531 100.609375 246.765625 C 103.964844 250.730469 107.742188 254.914062 112.710938 257.867188 C 117.605469 260.828125 123.164062 262.492188 128.652344 263.171875 C 134.152344 263.855469 139.640625 263.601562 144.785156 262.730469 C 155.078125 260.972656 163.925781 257.320312 171.265625 254.378906 C 180.730469 250.507812 188.128906 247.484375 192.171875 245.832031 C 198.621094 247.449219 204.289062 248.648438 208.957031 249.609375 C 204.398438 353.488281 200.160156 450.066406 200.160156 450.066406 L 239.785156 450.070312 C 239.785156 450.070312 235.4375 350.765625 230.820312 245.242188 C 234.3125 242.5 239.058594 239.175781 245.085938 236.070312 C 252.234375 232.339844 261.132812 229.039062 271.222656 227.265625 C 272.257812 227.078125 273.316406 226.914062 274.375 226.753906 C 274.894531 229.285156 275.839844 232.613281 277.742188 236.128906 C 279.828125 240.128906 283.109375 244.367188 287.554688 247.78125 C 289.792969 249.480469 292.265625 250.933594 295.023438 252.074219 C 297.789062 253.132812 300.949219 253.816406 304.152344 253.023438 C 305.722656 252.621094 307.253906 251.722656 308.332031 250.5625 C 309.402344 249.429688 310.152344 248.269531 311.058594 247.484375 C 312.875 245.839844 315.535156 245.324219 318.078125 245.207031 C 320.644531 245.105469 323.230469 245.300781 325.65625 245.359375 C 328.085938 245.445312 330.382812 245.527344 332.503906 245.605469 C 340.980469 245.910156 346.636719 246.113281 346.636719 246.113281 C 346.636719 246.113281 341.003906 245.585938 332.554688 244.792969 C 330.441406 244.597656 328.152344 244.382812 325.734375 244.15625 C 323.308594 243.957031 320.785156 243.613281 318.050781 243.558594 C 316.683594 243.550781 315.265625 243.625 313.832031 243.949219 C 312.398438 244.269531 310.949219 244.878906 309.707031 245.855469 C 308.457031 246.84375 307.601562 248.035156 306.671875 248.886719 C 305.773438 249.730469 304.730469 250.246094 303.554688 250.492188 C 301.1875 250.949219 298.546875 250.292969 296.222656 249.230469 C 293.898438 248.105469 291.683594 246.640625 289.789062 245.015625 C 285.992188 241.730469 283.300781 237.792969 281.679688 234.183594 C 280.230469 231.097656 279.585938 228.257812 279.257812 226.09375 C 287.171875 225.164062 295.585938 224.742188 304.078125 224.089844 C 310.910156 223.570312 317.820312 222.789062 324.488281 221.445312 L 324.480469 221.453125 C 342.019531 232.695312 365.066406 232.417969 381.546875 221.96875 L 381.550781 221.96875 L 381.480469 221.855469 C 371.996094 226.519531 361.273438 227.8125 351.191406 226.203125 C 353.996094 223.902344 358.585938 220.132812 363.175781 216.363281 C 366.863281 213.382812 370.585938 210.230469 372.6875 207.269531 C 373.761719 205.816406 374.460938 204.476562 374.867188 203.515625 C 375.082031 203.039062 375.210938 202.648438 375.300781 202.386719 C 375.394531 202.121094 375.445312 201.984375 375.445312 201.984375 C 375.445312 201.984375 375.382812 202.117188 375.269531 202.375 C 375.152344 202.628906 374.996094 203.003906 374.742188 203.457031 C 374.257812 204.371094 373.460938 205.628906 372.292969 206.953125 C 370 209.664062 366.148438 212.40625 362.207031 215.074219 C 355.703125 219.550781 349.21875 224.015625 347.1875 225.414062 C 342.042969 224.171875 337.15625 222.144531 332.769531 219.40625 C 334.375 218.933594 335.960938 218.433594 337.507812 217.867188 C 342.65625 215.980469 347.453125 213.609375 351.589844 210.730469 C 355.757812 207.871094 359.1875 204.53125 361.890625 201.109375 C 364.605469 197.691406 366.597656 194.195312 367.933594 190.941406 C 369.285156 187.683594 369.96875 184.679688 370.332031 182.199219 C 370.628906 179.703125 370.636719 177.730469 370.550781 176.398438 C 370.445312 175.070312 370.390625 174.359375 370.390625 174.359375 C 370.390625 174.359375 370.398438 175.070312 370.40625 176.402344 C 370.398438 177.730469 370.25 179.683594 369.785156 182.105469 C 369.253906 184.515625 368.378906 187.390625 366.851562 190.449219 C 365.335938 193.503906 363.179688 196.726562 360.359375 199.800781 C 357.550781 202.882812 354.0625 205.816406 349.976562 208.210938 C 348.082031 209.339844 346.050781 210.34375 343.925781 211.253906 C 344.125 210.816406 344.316406 210.371094 344.472656 209.886719 C 345.242188 207.617188 345.59375 204.90625 345.53125 202.066406 C 345.457031 199.230469 345.078125 196.351562 345.039062 193.480469 C 344.972656 190.625 345.363281 187.777344 346.554688 185.410156 C 347.765625 183.046875 349.472656 181.023438 350.308594 178.921875 C 351.171875 176.828125 351.117188 174.851562 350.679688 173.632812 C 350.464844 173.019531 350.183594 172.589844 349.976562 172.316406 C 349.75 172.058594 349.632812 171.917969 349.632812 171.917969 C 349.632812 171.917969 349.742188 172.0625 349.945312 172.335938 C 350.132812 172.621094 350.382812 173.0625 350.546875 173.675781 C 350.890625 174.882812 350.804688 176.789062 349.847656 178.714844 C 348.917969 180.664062 347.128906 182.496094 345.660156 184.921875 C 344.191406 187.386719 343.558594 190.472656 343.425781 193.445312 C 343.265625 196.429688 343.445312 199.390625 343.328125 202.039062 C 343.203125 204.679688 342.699219 207.089844 341.925781 208.929688 C 341.171875 210.796875 340.109375 211.992188 339.308594 212.671875 C 338.9375 212.957031 338.644531 213.164062 338.402344 213.300781 C 337.6875 213.53125 336.976562 213.773438 336.246094 213.984375 C 329.480469 215.929688 322.164062 216.882812 314.65625 217.320312 C 314.75 217.027344 314.84375 216.738281 314.941406 216.414062 C 315.226562 215.53125 315.523438 214.53125 315.785156 213.421875 C 316.253906 211.695312 316.632812 209.707031 316.949219 207.582031 C 317.382812 207.0625 317.875 206.503906 318.449219 205.910156 C 319.730469 204.585938 321.367188 203.136719 323.210938 201.636719 C 325.054688 200.136719 327.089844 198.570312 329.0625 196.90625 C 331.042969 195.226562 332.902344 193.390625 334.425781 191.484375 C 335.957031 189.589844 337.113281 187.601562 337.851562 185.804688 C 338.597656 184.003906 338.878906 182.390625 338.960938 181.273438 C 339.03125 180.71875 338.996094 180.273438 339.007812 179.976562 C 339.007812 179.675781 339.007812 179.515625 339.007812 179.515625 C 339.007812 179.515625 338.996094 179.675781 338.972656 179.972656 C 338.9375 180.269531 338.9375 180.710938 338.820312 181.257812 C 338.65625 182.355469 338.253906 183.910156 337.394531 185.597656 C 336.539062 187.28125 335.273438 189.105469 333.652344 190.816406 C 332.042969 192.539062 330.109375 194.164062 328.070312 195.636719 C 324.3125 198.296875 320.328125 200.785156 317.398438 203.234375 C 317.542969 201.210938 317.625 199.148438 317.578125 197.070312 C 317.460938 194.097656 317.148438 191.15625 316.671875 188.4375 C 316.144531 185.726562 315.550781 183.234375 314.847656 181.160156 C 314.53125 180.113281 314.1875 179.171875 313.863281 178.347656 C 313.554688 177.515625 313.277344 176.800781 313.007812 176.222656 C 312.496094 175.0625 312.203125 174.402344 312.203125 174.402344 C 312.203125 174.402344 312.398438 175.097656 312.742188 176.3125 C 312.929688 176.914062 313.105469 177.660156 313.292969 178.519531 C 313.496094 179.371094 313.703125 180.335938 313.867188 181.398438 C 314.269531 183.507812 314.503906 186.007812 314.644531 188.660156 C 314.734375 191.324219 314.636719 194.152344 314.355469 196.949219 C 314.027344 199.746094 313.515625 202.496094 312.863281 205.023438 C 312.164062 207.535156 311.425781 209.839844 310.609375 211.738281 C 310.238281 212.699219 309.84375 213.554688 309.480469 214.308594 C 309.128906 215.0625 308.816406 215.71875 308.519531 216.234375 C 308.175781 216.875 307.933594 217.324219 307.789062 217.59375 C 306.460938 217.621094 305.132812 217.640625 303.800781 217.648438 C 292.523438 217.722656 281.015625 217.34375 269.988281 218.535156 C 267.875 218.757812 265.796875 219.0625 263.738281 219.40625 C 263.523438 218.769531 263.359375 217.9375 263.371094 216.835938 C 263.410156 215.300781 263.878906 213.347656 264.921875 211.484375 C 265.972656 209.609375 267.636719 207.714844 269.5 205.953125 C 271.371094 204.179688 273.425781 202.476562 275.253906 200.71875 C 277.089844 198.960938 278.644531 197.132812 279.726562 195.40625 C 280.832031 193.6875 281.425781 192.082031 281.71875 190.953125 C 281.855469 190.386719 281.949219 189.9375 281.984375 189.628906 C 282.027344 189.320312 282.050781 189.15625 282.050781 189.15625 C 282.050781 189.15625 282.003906 189.3125 281.914062 189.609375 C 281.832031 189.910156 281.671875 190.335938 281.457031 190.867188 C 281.003906 191.914062 280.203125 193.351562 278.917969 194.804688 C 277.648438 196.269531 275.9375 197.753906 273.953125 199.148438 C 271.964844 200.546875 269.703125 201.902344 267.46875 203.449219 C 265.234375 205.003906 263.023438 206.789062 261.273438 209.007812 C 259.523438 211.246094 258.425781 213.773438 257.972656 216.160156 C 257.652344 217.75 257.691406 219.253906 257.878906 220.535156 C 256.617188 220.824219 255.378906 221.128906 254.160156 221.453125 C 249.1875 222.777344 244.59375 224.445312 240.453125 226.222656 C 236.621094 227.863281 233.214844 229.617188 230.210938 231.335938 C 230.105469 228.902344 229.996094 226.472656 229.890625 224.042969 C 229.207031 208.816406 228.609375 193.5 227.71875 178.414062 C 228.152344 177.78125 228.648438 177.105469 229.28125 176.375 C 230.792969 174.605469 232.957031 172.597656 235.859375 170.644531 C 238.773438 168.679688 242.351562 166.851562 246.648438 165.144531 C 250.925781 163.417969 255.855469 161.832031 261.171875 159.855469 C 266.476562 157.914062 272.191406 155.3125 277.5 151.878906 C 282.835938 148.464844 287.890625 144.261719 292.367188 139.402344 C 292.988281 138.726562 293.570312 138.015625 294.167969 137.316406 C 294.417969 137.339844 294.726562 137.371094 295.136719 137.410156 C 296.140625 137.484375 297.605469 137.710938 299.484375 137.773438 C 303.234375 137.96875 308.613281 137.929688 314.9375 137 C 321.253906 136.070312 328.492188 134.15625 335.738281 130.953125 C 340.558594 128.878906 345.320312 126.136719 349.816406 122.914062 L 349.828125 122.945312 C 349.828125 122.945312 350.105469 122.867188 350.628906 122.714844 C 351.160156 122.589844 351.90625 122.273438 352.929688 122.140625 C 354.925781 121.695312 357.910156 121.5 361.539062 121.890625 C 365.175781 122.28125 369.414062 123.304688 373.984375 124.496094 C 378.5625 125.65625 383.511719 127.035156 388.664062 127.46875 C 389.945312 127.621094 391.242188 127.613281 392.527344 127.644531 C 393.8125 127.578125 395.09375 127.554688 396.347656 127.371094 C 398.867188 127.085938 401.308594 126.550781 403.589844 125.800781 C 408.183594 124.371094 412.101562 122.101562 415.164062 119.851562 C 418.234375 117.578125 420.40625 115.230469 421.789062 113.511719 C 422.515625 112.675781 422.988281 111.941406 423.339844 111.46875 C 423.683594 110.984375 423.863281 110.730469 423.863281 110.730469 C 423.863281 110.730469 423.671875 110.976562 423.304688 111.441406"/></g></svg>