<?xml version="1.0" encoding="UTF-8"?><svg xmlns="http://www.w3.org/2000/svg" xmlns:xlink="http://www.w3.org/1999/xlink" contentScriptType="text/ecmascript" fill="#000000" width="379.8" zoomAndPan="magnify" contentStyleType="text/css" viewBox="31.5 19.0 379.8 376.4" height="376.4" preserveAspectRatio="xMidYMid meet" version="1"><g><g id="change1_1"><path fill="#fa9275" d="M215.27,195.02c0,0-33.14-176.06-103.7-110.89c-71.99,66.49,61.22,100.88,88.04,127.7 C207.33,212.18,215.27,195.02,215.27,195.02z"/></g><g id="change1_2"><path fill="#fa9275" d="M204.29,200.09c0,0-155.19-89.5-151.68,6.49c3.58,97.93,116.43,19.23,154.25,16.34 C212.14,217.3,204.29,200.09,204.29,200.09z"/></g><g id="change1_3"><path fill="#fa9275" d="M201.13,215.15c0,0-169.62,57.65-95.15,118.3c75.98,61.89,91.24-74.84,114.01-105.18 C219.24,220.59,201.13,215.15,201.13,215.15z"/></g><g id="change1_4"><path fill="#fa9275" d="M208.8,224c0,0-60.32,168.69,33.49,148.08c95.72-21.03-1.89-117.99-11.49-154.69 C224.33,213.2,208.8,224,208.8,224z"/></g><g id="change1_5"><path fill="#fa9275" d="M221.83,223.79c0,0,86.71,156.77,133.26,72.75c47.49-85.72-89.79-76.58-123.67-93.63 C223.98,205,221.83,223.79,221.83,223.79z"/></g><g id="change1_6"><path fill="#fa9275" d="M231.59,215.34c0,0,179.76,31.76,142.63-58.29c-37.88-91.89-118,21.72-153.11,37.47 C218.04,201.68,231.59,215.34,231.59,215.34z"/></g><g id="change1_7"><path fill="#fa9275" d="M223.23,208.98c0,0,130.28-127.86,35.41-149.96c-96.8-22.54-50.87,108.66-58.45,146.39 C204.23,212.08,223.23,208.98,223.23,208.98z"/></g><g id="change2_1"><ellipse rx="39.24" ry="32.17" fill="#fecc2f" cx="217.55" cy="209.37"/></g></g></svg>