<?xml version="1.0" encoding="UTF-8"?><svg xmlns="http://www.w3.org/2000/svg" xmlns:xlink="http://www.w3.org/1999/xlink" contentScriptType="text/ecmascript" fill="#000000" width="223.9" zoomAndPan="magnify" contentStyleType="text/css" viewBox="100.7 99.2 223.9 226.8" height="226.8" preserveAspectRatio="xMidYMid meet" version="1.1">
 <g id="surface1">
  <g id="change1_1"><path fill="#6accc2" d="m236.66 153.4c0 31.81-10.48 57.6-23.39 57.6-12.93 0-23.4-25.79-23.4-57.6 0-23.86 14.29-53.07 14.29-53.07s5.88 13.65 9.11 13.65c2.79 0 7.95-14.765 7.95-14.765s15.44 29.245 15.44 54.185"/></g>
  <g id="change1_2"><path fill="#6accc2" d="m267.62 179.2c-19.01 25.5-42.83 39.91-53.18 32.19-10.36-7.73-3.34-34.66 15.67-60.16 14.27-19.13 43.18-34 43.18-34s-3.45 14.45-0.86 16.38c2.24 1.67 15.21-7.08 15.21-7.08s-5.11 32.68-20.02 52.67"/></g>
  <g id="change1_3"><path fill="#6accc2" d="m161.5 179.2c19.02 25.5 42.83 39.91 53.19 32.19 10.36-7.73 3.34-34.66-15.68-60.16-14.26-19.13-43.18-34-43.18-34s3.45 14.45 0.86 16.38c-2.24 1.67-15.2-7.08-15.2-7.08s5.11 32.68 20.01 52.67"/></g>
  <g id="change1_4"><path fill="#6accc2" d="m277.02 218.39c-30.49 9.07-58.19 6.39-61.88-5.99-3.68-12.39 18.05-29.78 48.54-38.86 22.86-6.8 54.93-1.44 54.93-1.44s-11.41 9.52-10.48 12.62c0.8 2.68 16.42 3.41 16.42 3.41s-23.62 23.15-47.53 30.26"/></g>
  <g id="change1_5"><path fill="#6accc2" d="m261.13 255.43c-29.87-10.95-50.47-29.67-46.02-41.8 4.44-12.13 32.26-13.08 62.12-2.13 22.41 8.21 44.91 31.68 44.91 31.68s-14.84 0.82-15.95 3.85c-0.96 2.62 11.12 12.55 11.12 12.55s-32.77 4.43-56.18-4.15"/></g>
  <g id="change1_6"><path fill="#6accc2" d="m226.25 275.62c-17.4-26.64-22.73-53.96-11.91-61.02s33.68 8.79 51.08 35.43c13.05 19.97 17.06 52.24 17.06 52.24s-12.39-8.21-15.09-6.45c-2.34 1.53 1.41 16.72 1.41 16.72s-28.92-16.05-42.55-36.92"/></g>
  <g id="change1_7"><path fill="#6accc2" d="m186.21 270.95c1.98-31.75 14.04-56.84 26.93-56.04 12.9 0.81 21.75 27.2 19.77 58.95-1.48 23.8-17.55 52.07-17.55 52.07s-5.02-13.98-8.25-14.19c-2.78-0.17-8.85 14.24-8.85 14.24s-13.6-30.14-12.05-55.03"/></g>
  <g id="change1_8"><path fill="#6accc2" d="m156.91 243.27c20.57-24.27 45.23-37.16 55.08-28.82 9.87 8.36 1.19 34.8-19.38 59.07-15.42 18.21-45.21 31.26-45.21 31.26s4.35-14.22 1.88-16.31c-2.13-1.8-15.61 6.13-15.61 6.13s7.12-32.3 23.24-51.33"/></g>
  <g id="change1_9"><path fill="#6accc2" d="m149.97 203.57c30.99-7.16 58.47-2.76 61.38 9.83 2.92 12.59-19.85 28.6-50.85 35.76-23.24 5.38-54.92-1.97-54.92-1.97s11.98-8.8 11.25-11.94c-0.63-2.72-16.18-4.43-16.18-4.43s25.02-21.63 49.32-27.25"/></g>
  <g id="change1_10"><path fill="#6accc2" d="m168.13 167.6c29.13 12.78 48.53 32.74 43.34 44.57-5.2 11.83-33.02 11.06-62.15-1.73-21.84-9.59-42.85-34.41-42.85-34.41s14.87 0.11 16.17-2.85c1.12-2.56-10.33-13.22-10.33-13.22s32.99-2.39 55.82 7.64"/></g>
  <g id="change2_1"><path fill="#edc692" d="m229.52 212.96c0 8.98-7.28 16.26-16.25 16.26-8.98 0-16.27-7.28-16.27-16.26s7.29-16.26 16.27-16.26c8.97 0 16.25 7.28 16.25 16.26"/></g>
 </g>
</svg>