<?xml version="1.0" encoding="UTF-8"?><svg xmlns="http://www.w3.org/2000/svg" xmlns:xlink="http://www.w3.org/1999/xlink" contentScriptType="text/ecmascript" fill="#000000" width="229.9" zoomAndPan="magnify" contentStyleType="text/css" viewBox="97.0 12.7 229.9 382.0" height="382" preserveAspectRatio="xMidYMid meet" version="1"><g><g id="change1_1"><path fill="#6e9236" d="M 283.75 272.90625 C 278.769531 270.015625 266.515625 286.496094 253.859375 311.929688 C 261.433594 268.285156 261.710938 232.9375 254.101562 230.910156 C 247.570312 229.167969 237.203125 252.484375 228.507812 286.417969 C 225.933594 251.1875 219.878906 225.941406 213.1875 226.074219 C 206.261719 226.21875 200.820312 253.539062 199.519531 290.820312 C 187.824219 256.128906 175.011719 232.433594 168.429688 234.96875 C 160.4375 238.046875 164.671875 278.675781 177.894531 325.714844 C 186.15625 355.125 195.976562 380.070312 204.128906 393.890625 L 241.835938 393.890625 C 249.363281 383.046875 258.417969 366.03125 266.855469 346.113281 C 282.4375 309.3125 290.003906 276.535156 283.75 272.90625"/></g><g id="change2_1"><path fill="#4a742f" d="M 244.480469 388.09375 C 245.117188 390.679688 243.59375 393.3125 241.042969 393.96875 C 238.496094 394.628906 235.878906 393.019531 235.226562 390.371094 C 215.378906 309.859375 215.378906 225.726562 235.226562 145.214844 C 235.878906 142.566406 238.496094 140.957031 241.042969 141.617188 C 243.59375 142.273438 245.117188 144.902344 244.480469 147.492188 C 225 226.511719 225 309.074219 244.480469 388.09375"/></g><g id="change2_2"><path fill="#4a742f" d="M 212.421875 389.523438 C 212.582031 392.183594 214.820312 394.242188 217.449219 394.113281 C 220.078125 393.980469 222.097656 391.667969 221.933594 388.945312 C 216.90625 306.171875 191.855469 225.855469 148.9375 154.90625 C 147.523438 152.570312 144.546875 151.816406 142.3125 153.203125 C 140.074219 154.59375 139.402344 157.554688 140.78125 159.839844 C 182.90625 229.46875 207.488281 308.289062 212.421875 389.523438"/></g><g id="change2_3"><path fill="#4a742f" d="M 242.710938 390.710938 C 242.582031 392.824219 240.804688 394.460938 238.714844 394.355469 C 236.625 394.253906 235.019531 392.414062 235.148438 390.25 C 239.144531 324.464844 259.054688 260.632812 293.167969 204.238281 C 294.289062 202.386719 296.65625 201.785156 298.433594 202.886719 C 300.210938 203.992188 300.742188 206.347656 299.648438 208.160156 C 266.167969 263.503906 246.628906 326.148438 242.710938 390.710938"/></g><g id="change3_1"><path fill="#ed415f" d="M 285.835938 43.480469 C 285.835938 12.675781 273.511719 47.867188 262.640625 47.867188 C 260.253906 47.867188 258.140625 47.574219 256.289062 47.445312 C 252.378906 37.28125 246.582031 30.839844 240.113281 30.839844 C 230.039062 30.839844 221.597656 46.453125 219.367188 67.441406 C 208.351562 67.050781 195.953125 31.816406 195.953125 62.984375 C 195.953125 89.558594 200.546875 134.550781 210.257812 146.449219 C 215.335938 157.894531 226.789062 165.878906 240.113281 165.878906 C 255.882812 165.878906 269.039062 154.699219 272.09375 139.835938 C 281.152344 113.96875 285.835938 65.886719 285.835938 43.480469"/></g><g id="change4_1"><path fill="#d3d2d2" d="M 285.835938 43.480469 C 285.835938 34.101562 284.691406 30.839844 282.796875 30.839844 C 280.015625 30.839844 275.605469 37.871094 270.804688 42.898438 C 270.804688 42.894531 270.804688 42.894531 270.804688 42.894531 C 275.605469 37.871094 280.015625 30.839844 282.796875 30.839844 C 284.691406 30.839844 285.835938 34.101562 285.835938 43.480469"/></g><g id="change5_1"><path fill="#c4354d" d="M 240.113281 165.878906 C 226.789062 165.878906 215.335938 157.894531 210.257812 146.449219 C 242.71875 146.449219 257.015625 74.070312 270.804688 42.894531 C 275.605469 37.871094 280.015625 30.839844 282.796875 30.839844 C 284.691406 30.839844 285.835938 34.101562 285.835938 43.480469 C 285.835938 65.886719 281.152344 113.96875 272.09375 139.835938 C 269.039062 154.699219 255.882812 165.878906 240.113281 165.878906"/></g><g id="change3_2"><path fill="#ed415f" d="M 322.671875 204.96875 C 326.898438 192.457031 322.117188 196.03125 316.324219 199.605469 C 313.074219 201.613281 309.503906 203.617188 307.023438 202.78125 C 305.511719 202.269531 304.230469 201.632812 303.085938 201.152344 C 302.785156 193.871094 300.488281 188.546875 296.386719 187.160156 C 289.996094 185.003906 281.300781 193.09375 275.390625 205.925781 C 268.492188 203.320312 268.175781 178.320312 261.5 198.082031 C 255.808594 214.933594 249.082031 244.445312 252.691406 254.074219 C 253.460938 262.417969 259.011719 269.933594 267.460938 272.789062 C 277.457031 276.164062 288.195312 271.898438 293.316406 263.125 C 304.601562 248.664062 317.871094 219.179688 322.671875 204.96875"/></g><g id="change4_2"><path fill="#d3d2d2" d="M 281.886719 272.636719 C 286.597656 270.929688 290.695312 267.617188 293.316406 263.125 C 304.601562 248.664062 317.871094 219.179688 322.671875 204.96875 C 323.433594 202.71875 323.898438 200.988281 324.125 199.6875 C 323.898438 200.988281 323.433594 202.71875 322.671875 204.96875 C 317.871094 219.179688 304.601562 248.664062 293.316406 263.125 C 290.695312 267.617188 286.597656 270.929688 281.886719 272.636719"/></g><g id="change4_3"><path fill="#d3d2d2" d="M 313.265625 201.378906 C 317.070312 199.386719 321.03125 196.238281 323.003906 196.238281 C 323.453125 196.238281 323.796875 196.398438 324.015625 196.773438 C 323.796875 196.398438 323.453125 196.238281 323.003906 196.238281 C 321.5625 196.238281 319.054688 197.921875 316.324219 199.605469 C 315.320312 200.226562 314.289062 200.84375 313.265625 201.378906"/></g><g id="change5_2"><path fill="#c4354d" d="M 274.457031 273.945312 C 272.332031 273.941406 270.171875 273.632812 268.042969 272.976562 C 267.847656 272.917969 267.652344 272.855469 267.460938 272.789062 C 265.164062 272.015625 263.089844 270.894531 261.257812 269.511719 C 260.554688 268.980469 259.890625 268.40625 259.261719 267.800781 C 255.515625 264.167969 253.171875 259.28125 252.691406 254.074219 C 254.214844 254.589844 255.757812 254.832031 257.320312 254.832031 C 276.859375 254.828125 298.984375 216.949219 313.265625 201.378906 C 314.289062 200.84375 315.320312 200.226562 316.324219 199.605469 C 319.054688 197.921875 321.5625 196.238281 323.003906 196.238281 C 323.453125 196.238281 323.796875 196.398438 324.015625 196.773438 C 324.320312 197.289062 324.378906 198.21875 324.125 199.6875 C 323.898438 200.988281 323.433594 202.71875 322.671875 204.96875 C 317.871094 219.179688 304.601562 248.664062 293.316406 263.125 C 290.695312 267.617188 286.597656 270.929688 281.886719 272.636719 C 281.480469 272.78125 281.070312 272.917969 280.65625 273.039062 C 278.664062 273.632812 276.574219 273.945312 274.457031 273.945312"/></g><g id="change3_3"><path fill="#ed415f" d="M 182.433594 99.519531 C 172.699219 70.296875 172.128906 107.578125 161.8125 111.011719 C 159.550781 111.765625 157.449219 112.160156 155.652344 112.621094 C 148.730469 104.210938 141.195312 99.933594 135.058594 101.980469 C 125.5 105.164062 122.425781 122.644531 126.945312 143.261719 C 123.183594 144.367188 117.863281 141.347656 113.011719 138.324219 C 104.222656 132.851562 96.976562 127.382812 103.320312 146.429688 C 111.71875 171.640625 130.296875 212.878906 143.273438 221.101562 C 151.707031 230.351562 165.09375 234.308594 177.734375 230.097656 C 192.695312 225.113281 201.644531 210.351562 199.847656 195.28125 C 200.269531 167.875 189.515625 120.78125 182.433594 99.519531"/></g><g id="change4_4"><path fill="#d3d2d2" d="M 167.988281 103.71875 C 169.105469 101.351562 170.082031 98.730469 171.003906 96.339844 C 170.082031 98.730469 169.105469 101.351562 167.988281 103.71875 M 182.433594 99.519531 C 179.726562 91.394531 177.730469 88.410156 176.03125 88.410156 C 177.730469 88.410156 179.726562 91.394531 182.433594 99.519531 M 171.007812 96.328125 C 171.007812 96.324219 171.011719 96.316406 171.015625 96.3125 C 171.011719 96.316406 171.007812 96.324219 171.007812 96.328125 M 176.015625 88.410156 L 176.015625 88.410156 M 176.023438 88.410156 L 176.023438 88.410156"/></g><g id="change5_3"><path fill="#c4354d" d="M 167.421875 231.777344 C 158.210938 231.777344 149.421875 227.847656 143.273438 221.101562 C 174.066406 210.839844 164.757812 137.652344 167.988281 103.71875 C 169.105469 101.351562 170.082031 98.730469 171.003906 96.339844 C 171.003906 96.335938 171.003906 96.332031 171.007812 96.328125 C 171.007812 96.324219 171.011719 96.316406 171.015625 96.3125 C 172.675781 92 174.164062 88.433594 176.015625 88.410156 C 176.019531 88.410156 176.019531 88.410156 176.023438 88.410156 C 176.027344 88.410156 176.027344 88.410156 176.03125 88.410156 C 177.730469 88.410156 179.726562 91.394531 182.433594 99.519531 C 189.382812 120.375 199.859375 166.089844 199.859375 193.695312 C 199.859375 194.230469 199.855469 194.761719 199.847656 195.28125 C 200 196.5625 200.078125 197.839844 200.078125 199.109375 C 200.082031 210.183594 194.40625 220.648438 184.980469 226.652344 C 182.765625 228.0625 180.34375 229.230469 177.734375 230.097656 C 177.25 230.257812 176.765625 230.40625 176.277344 230.546875 C 173.328125 231.378906 170.351562 231.777344 167.421875 231.777344"/></g><g id="change2_4"><path fill="#4a742f" d="M 251.863281 394.359375 C 249.027344 383.804688 285.835938 363.246094 285.835938 363.246094 C 258.777344 355.757812 248.046875 375.921875 248.046875 375.921875 C 243.246094 367.34375 237.929688 340.351562 252.691406 332.902344 C 210.628906 333.476562 213.261719 370.160156 213.261719 370.160156 C 214.097656 348.6875 158.453125 336.210938 153.914062 341.351562 C 190.945312 360.609375 196.394531 387.15625 197.195312 394.359375 L 251.863281 394.359375"/></g></g></svg>