<?xml version="1.0" encoding="UTF-8"?><svg xmlns="http://www.w3.org/2000/svg" xmlns:xlink="http://www.w3.org/1999/xlink" contentScriptType="text/ecmascript" fill="#000000" width="499.3" zoomAndPan="magnify" contentStyleType="text/css" viewBox="0.0 0.0 499.3 324.6" height="324.6" preserveAspectRatio="xMidYMid meet" version="1"><g id="change1_1"><path fill="#091e3d" d="M481.8,25.3C474.8,10.4,459.6,0,442.1,0H43.9C19.7,0,0,19.7,0,43.9v214.8c0,13,5.7,24.7,14.8,32.8 c5,19,22.1,33.1,42.4,33.1h398.2c24.2,0,43.9-20.1,43.9-44.7V60.9C499.2,46.4,492.4,33.5,481.8,25.3z"/></g><g id="change2_1"><path fill="#9eedb1" d="M330.8,229.5v24.1c0,8.9-7.3,16.2-16.2,16.2H171.4c-8.9,0-16.2-7.3-16.2-16.2v-24.1 c0-8.9,7.3-16.2,16.2-16.2h143.1C323.5,213.2,330.8,220.5,330.8,229.5z"/></g><g id="change3_1"><path fill="#fffee9" d="M479.7,26.4c-6.6-14.1-21-24-37.6-24H43.9C21,2.4,2.4,21,2.4,43.9v214.8c0,13.8,6.7,26,17.1,33.5 c6.8,5,15.3,7.9,24.4,7.9h398.2c22.9,0,41.5-18.6,41.5-41.5V43.9C483.5,37.6,482.1,31.7,479.7,26.4z M333.2,253.5 c0,10.3-8.4,18.6-18.6,18.6H171.4c-10.3,0-18.6-8.4-18.6-18.6v-24.1c0-10.3,8.4-18.6,18.6-18.6h143.1c10.3,0,18.6,8.4,18.6,18.6 V253.5z"/></g><g id="change4_1"><path fill="#f1cbf7" d="M496.8,59.9v214.8c0,22.9-18.6,41.5-41.5,41.5H57.1c-14.8,0-27.8-7.8-35.2-19.5c6.4,3.8,14,5.9,21.9,5.9 h398.2c24.2,0,43.9-19.7,43.9-43.9V43.9c0-5-0.8-9.8-2.4-14.3C491.7,37.1,496.8,47.9,496.8,59.9z"/></g></svg>