<?xml version="1.0" encoding="UTF-8"?><svg xmlns="http://www.w3.org/2000/svg" xmlns:xlink="http://www.w3.org/1999/xlink" contentScriptType="text/ecmascript" fill="#fcc010" width="405.1" zoomAndPan="magnify" contentStyleType="text/css" viewBox="50.4 50.4 405.1 432.5" height="432.5" preserveAspectRatio="xMidYMid meet" version="1"><g id="change1_1" fill-rule="evenodd"><path fill="inherit" d="M31.026,16.626c0.193,0.207 0.657,0.143 0.72,0.48c2.271,0.191 1.428,-2.243 2.4,-1.68c-0.482,-2.195 0.48,-7.34 -1.68,-9.12c-0.32,0 -0.64,0 -0.96,0c-1.867,2.977 -0.095,5.359 -0.48,10.32Z" transform="scale(8)"/><path fill="inherit" d="M16.626,32.946c0.207,-0.194 0.143,-0.658 0.48,-0.72c0.054,-2.2 -1.783,-1.404 -1.92,-2.4c-1.967,0.355 -7.869,-0.185 -8.88,1.68c0,0.32 0,0.64 0,0.96c2.01,2.088 5.766,0.063 10.32,0.48Z" transform="scale(8)"/><path fill="inherit" d="M53.826,29.826c-2.133,0.621 -8.187,-1.05 -7.2,3.36c3.721,0.705 6.162,-0.113 10.32,-0.48c0,-0.48 0,-0.96 0,-1.44c-1.692,-0.791 -3.667,-0.686 -3.12,-1.44Z" transform="scale(8)"/><path fill="inherit" d="M46.866,45.426c-1.198,-1.188 -2.209,-3.22 -4.32,-3.359c-0.392,0.498 -1.364,1.661 -0.96,2.16c1.82,1.969 4.553,5.024 7.681,6.479c0.458,-0.341 0.858,-0.741 1.199,-1.2c-0.517,-1.908 -2.349,-2.839 -3.6,-4.08Z" transform="scale(8)"/><path fill="inherit" d="M17.106,43.506c-0.774,2.511 -5.084,3.935 -3.12,6.96c1.373,0.01 1.53,-0.105 2.4,-0.239c1.144,-3.097 4.451,-4.029 5.28,-7.44c-1.676,-1.548 -2.8,1.563 -4.56,0.719Z" transform="scale(8)"/><path fill="inherit" d="M31.266,46.866c-2.178,1.364 -2.007,13.497 2.16,10.08c-0.133,-2.305 -0.354,-5.642 -0.479,-9.601c-0.455,-0.265 -1.135,-0.305 -1.681,-0.479Z" transform="scale(8)"/><path fill="inherit" d="M21.426,21.906c3.345,-2.503 -3.49,-6.395 -6.72,-8.64c-0.067,0.493 -0.641,0.479 -0.96,0.72c-0.021,0.896 -0.269,0.684 0,1.44c2.705,2.016 4.119,5.321 7.68,6.48Z" transform="scale(8)"/><path fill="inherit" d="M46.146,20.946c1.286,-2.375 4.752,-3.643 4.319,-6.96c-0.537,-0.263 -1.202,-0.397 -1.68,-0.72c-2.278,2.522 -5.074,4.526 -6.479,7.92c2.025,1.258 3.134,-0.65 3.84,-0.24Z" transform="scale(8)"/><path fill="inherit" d="M26.564,21.631c0.079,-0.058 0.102,-0.171 -0.098,-0.205c-0.152,1.048 -1.508,0.892 -1.68,1.92c-0.33,-0.547 0.619,-0.902 0,-0.96c-0.64,0.494 -0.033,0.888 -1.2,0.48c0.274,1.058 -1.212,1.365 -0.72,2.4c-1.881,-0.099 -2.545,3.504 -2.16,5.04c-0.241,0.001 -0.286,-0.194 -0.48,-0.24c-0.084,3.4 -0.165,6.749 2.88,8.88c2.812,5.397 11.714,6.245 16.56,1.68c0.268,-1.013 0.749,-1.811 1.68,-2.16c6.309,-10.191 -4.663,-20.825 -14.782,-16.835Zm5.422,19.475c-1.229,-0.066 -3.287,-0.83 -3.84,-2.16c-0.691,0.695 -0.75,-0.468 -1.68,-0.24c1.313,-0.275 -0.191,-1.598 -1.2,-1.68c0.245,-1.109 -0.767,-2.866 -1.68,-3.601c0.046,-0.272 0.241,-0.133 0.24,0c-0.833,-8.488 8.524,-12.719 14.88,-7.439c5.112,5.703 0.225,15.493 -6.72,15.12Z" transform="scale(8)"/></g></svg>