<?xml version="1.0" encoding="UTF-8"?><svg xmlns="http://www.w3.org/2000/svg" xmlns:xlink="http://www.w3.org/1999/xlink" contentScriptType="text/ecmascript" fill="#000000" width="498.7" zoomAndPan="magnify" contentStyleType="text/css" viewBox="0.0 0.0 498.7 349.8" height="349.8" preserveAspectRatio="xMidYMid meet" version="1"><g id="change1_1"><path fill="#091e3d" d="M481.7,19.8C479.2,8.5,469.2,0,457.2,0H25.1C11.3,0,0,11.3,0,25.1v276.7c0,10.8,6.9,20,16.5,23.6 c0.6,13.5,11.6,24.4,25,24.4h432.1c13.8,0,25.1-11.4,25.1-25.4V43.9C498.7,32.7,491.6,23.2,481.7,19.8z"/></g><g id="change2_1"><path fill="#f7f5d0" d="M479.9,71.3v230.4c0,12.5-10.2,22.7-22.7,22.7H25.1c-2.2,0-4.4-0.3-6.4-0.9c-9.4-2.8-16.3-11.5-16.3-21.8 V71.3H479.9z"/></g><g id="change3_1"><path fill="#f1cbf7" d="M496,43.5v276.7c0,12.5-10.2,22.7-22.7,22.7H41.2c-10.5,0-19.3-7.1-21.9-16.8c1.9,0.5,3.8,0.7,5.8,0.7h432.1 c13.8,0,25.1-11.3,25.1-25.1V25.1c0-0.8,0-1.7-0.1-2.5C490.3,26.1,496,34.1,496,43.5z"/></g><g id="change4_1"><path fill="#f4a13d" d="M479.9,23.9c0-0.3,0-0.7-0.1-1c-0.1-0.7-0.2-1.5-0.3-2.2c-0.1-0.3-0.1-0.6-0.2-0.9c0-0.2-0.1-0.4-0.2-0.6 c-0.1-0.3-0.1-0.5-0.2-0.7c0-0.1,0-0.1,0-0.2c-0.1-0.3-0.2-0.5-0.2-0.8c0-0.1-0.1-0.2-0.1-0.4c-0.1-0.3-0.2-0.6-0.4-0.9 c-0.1-0.2-0.2-0.5-0.3-0.7c-0.1-0.2-0.2-0.4-0.3-0.6c-0.6-1.3-1.4-2.5-2.3-3.6c-0.2-0.2-0.4-0.5-0.5-0.7c-0.2-0.3-0.5-0.6-0.7-0.8 c-0.2-0.3-0.5-0.5-0.8-0.8c-0.3-0.3-0.5-0.5-0.8-0.8c-0.3-0.2-0.5-0.5-0.8-0.7c-0.2-0.2-0.4-0.3-0.6-0.5c-0.2-0.1-0.3-0.2-0.5-0.4 c-1.1-0.8-2.2-1.5-3.4-2.1c-0.3-0.1-0.6-0.3-0.8-0.4c-0.5-0.2-1-0.4-1.5-0.6c-0.3-0.1-0.6-0.2-0.9-0.3c-0.4-0.1-0.7-0.2-1.1-0.3 c-0.3-0.1-0.6-0.1-0.8-0.2c-0.2,0-0.4-0.1-0.7-0.1c-0.3-0.1-0.6-0.1-0.8-0.1c-0.3-0.1-0.7-0.1-1-0.1c-0.4,0-0.8-0.1-1.1-0.1 c-0.4,0-0.8,0-1.2,0H25.1C12.6,2.4,2.4,12.6,2.4,25.1V69h477.5V25.1C479.9,24.7,479.9,24.3,479.9,23.9z"/></g></svg>