<?xml version="1.0" encoding="UTF-8"?><svg xmlns="http://www.w3.org/2000/svg" xmlns:xlink="http://www.w3.org/1999/xlink" contentScriptType="text/ecmascript" fill="#000000" width="499" zoomAndPan="magnify" contentStyleType="text/css" viewBox="0.0 0.0 499.0 446.0" height="446" preserveAspectRatio="xMidYMid meet" version="1"><g id="change1_1"><path fill="#091e3d" d="M465,0H34C15.2,0,0,15.4,0,34.3v377.4C0,430.6,15.2,446,34,446h431c18.7,0,34-15.4,34-34.3V34.3 C499,15.4,483.7,0,465,0z"/></g><g id="change2_1"><path fill="#f7f5d0" d="M465,2.7H34C16.7,2.7,2.7,16.7,2.7,34v373.7C2.7,425,16.7,439,34,439h431c17.3,0,31.3-14,31.3-31.3V34 C496.3,16.7,482.3,2.7,465,2.7z M474.9,37.8l-1.8,1.8l-8-8l-8,8l-1.8-1.8l8-8l-8-8L457,20l8,8l8-8l1.8,1.8l-8,8L474.9,37.8z"/></g></svg>