<?xml version="1.0" encoding="UTF-8"?><svg xmlns="http://www.w3.org/2000/svg" xmlns:xlink="http://www.w3.org/1999/xlink" contentScriptType="text/ecmascript" fill="#000000" width="497" zoomAndPan="magnify" contentStyleType="text/css" viewBox="0.0 0.0 497.0 498.6" height="498.6" preserveAspectRatio="xMidYMid meet" version="1"><g id="change1_1"><path fill="#091e3d" d="M495.1,21.8C490.4,8.8,478,0,464.2,0H32.7c-0.9,0-1.7,0-2.6,0.1C17.4,1.1,6.2,9.6,1.9,21.8c0,0,0,0,0,0.1 c0,0,0,0,0,0c0,0,0,0,0,0C0.6,25.4,0,29.1,0,32.8V35v13.5v417.3c0,18.1,14.7,32.8,32.7,32.8h431.5c18.1,0,32.7-14.7,32.7-32.8V48.5 V35v-2.1C497,29,496.3,25.3,495.1,21.8z"/></g><g fill="#efabbb" id="change2_1"><path d="M492.9,22.4c-0.4-1.1-0.9-2.2-1.4-3.3c-0.3-0.7-0.7-1.4-1.1-2c-0.4-0.7-0.8-1.3-1.3-1.9c0,0,0,0,0,0 c-0.4-0.6-0.9-1.2-1.4-1.8c0,0,0,0,0,0c-2.2-2.7-4.9-4.9-7.8-6.7c-0.3-0.2-0.7-0.4-1-0.6c-1-0.6-2.1-1.1-3.1-1.5 c-3.6-1.5-7.5-2.3-11.5-2.3H32.7c-12.8,0-24.3,8.1-28.6,20.2c-1.2,3.9-1.8,8.1-1.8,12.4V46h492.3V34.9 C494.6,30.6,494,26.5,492.9,22.4C492.9,22.5,492.9,22.5,492.9,22.4z M395,25.7h-27.2V23H395V25.7z M434.2,34.8h-20.8V14h20.8V34.8z M473.6,33l-1.9,1.9l-8.6-8.6l-8.6,8.6l-1.9-1.9l8.6-8.6l-8.6-8.6l1.9-1.9l8.6,8.6l8.6-8.6l1.9,1.9l-8.6,8.6L473.6,33z"/><path d="M416.1 16.7H431.5V32.1H416.1z"/></g><g id="change3_1"><path fill="#fffee9" d="M2.3,48.3h492.3v415.9c0,16.8-13.6,30.4-30.4,30.4H32.7C16,494.6,2.3,481,2.3,464.2V48.3z"/></g></svg>