<?xml version="1.0" encoding="UTF-8"?><svg xmlns="http://www.w3.org/2000/svg" xmlns:xlink="http://www.w3.org/1999/xlink" contentScriptType="text/ecmascript" fill="#000000" width="495.8" zoomAndPan="magnify" contentStyleType="text/css" viewBox="0.0 0.0 495.8 372.1" height="372.1" preserveAspectRatio="xMidYMid meet" version="1"><g id="change1_1"><path fill="#091e3d" d="M473.5,69.4c-5.1-11.4-16.5-19.3-29.7-19.3h-313c1-3.1,1.6-6.4,1.6-9.8c0-22.2-23.8-40.3-53-40.3 s-53,18.1-53,40.3c0,3.5,0.6,6.9,1.7,10.1C12.2,52.7,0,66.3,0,82.7V318c0,13.8,8.6,25.6,20.7,30.3c3.9,13.7,16.5,23.8,31.3,23.8 h411.2c18,0,32.6-14.8,32.6-33V100.7C495.7,86.2,486.4,73.8,473.5,69.4z"/></g><g id="change2_1"><path fill="#efabbb" d="M493.4,99.2v235.3c0,16.7-13.6,30.2-30.2,30.2H52c-11.1,0-20.7-6-26-14.8c2.1,0.4,4.3,0.7,6.6,0.7h411.2 c18,0,32.6-14.6,32.6-32.6V82.7c0-4.1-0.8-8-2.1-11.6C485.4,75.5,493.4,86.5,493.4,99.2z"/></g><g fill="#f7f5d0" id="change3_1"><path d="M400.2 69H413.09999999999997V81.9H400.2z"/><path d="M32.6,52.5c-0.4,0-0.9,0-1.3,0c3.2,7.2,9.3,13.5,17.7,18.2c0.4,0.2,0.6,0.6,0.6,1.1c0,0.3-0.5,6.9-5.4,11.1 c5.7,0.4,17.7,0.5,25.8-5c0.2-0.2,0.5-0.2,0.8-0.2c2.8,0.4,5.7,0.5,8.5,0.5c22.3,0,41.2-10.8,48-25.8H32.6z M471.2,70.1 c-4.8-10.4-15.3-17.6-27.5-17.6H129.8C123,68.8,103,80.6,79.3,80.6c-2.8,0-5.6-0.2-8.4-0.5c-6.8,4.4-15.7,5.4-22.1,5.4 c-4.6,0-7.9-0.5-8.2-0.5c-0.5-0.1-0.9-0.5-1-1c-0.1-0.5,0.2-1,0.6-1.2c5.3-2.6,6.6-8.4,6.8-10.4c-8.6-5-15-11.9-18.2-19.7 c-14.9,1.8-26.5,14.6-26.5,30V318c0,13.9,9.4,25.6,22.2,29.1c2.6,0.7,5.3,1.1,8,1.1h411.2c16.7,0,30.2-13.6,30.2-30.2V82.7 C474,78.2,473,74,471.2,70.1z M382.5,76.6h-22.8v-2.3h22.8V76.6z M415.4,84.2h-17.5V66.8h17.5V84.2z M448.3,82.7l-1.6,1.6l-7.2-7.2 l-7.2,7.2l-1.6-1.6l7.2-7.2l-7.2-7.2l1.6-1.6l7.2,7.2l7.2-7.2l1.6,1.6l-7.2,7.2L448.3,82.7z M48.9,70.7c0.4,0.2,0.6,0.6,0.6,1.1 c0,0.3-0.5,6.9-5.4,11.1c5.7,0.4,17.7,0.5,25.8-5c0.2-0.2,0.5-0.2,0.8-0.2c2.8,0.4,5.7,0.5,8.5,0.5c22.3,0,41.2-10.8,48-25.8H32.6 c-0.4,0-0.9,0-1.3,0C34.5,59.7,40.5,66,48.9,70.7z"/></g><g id="change4_1"><path fill="#f4a13d" d="M130,40.3c0,4.3-0.9,8.3-2.7,12.2c-6.8,15-25.7,25.8-48,25.8c-2.9,0-5.7-0.2-8.5-0.5c-0.3,0-0.6,0-0.8,0.2 c-8.1,5.5-20.1,5.4-25.8,5c4.9-4.3,5.4-10.8,5.4-11.1c0-0.4-0.2-0.9-0.6-1.1c-8.4-4.7-14.5-11-17.7-18.2c-1.7-3.9-2.7-8-2.7-12.2 c0-20.9,22.7-38,50.7-38S130,19.4,130,40.3z"/></g></svg>