<?xml version="1.0" encoding="UTF-8"?><svg xmlns="http://www.w3.org/2000/svg" xmlns:xlink="http://www.w3.org/1999/xlink" contentScriptType="text/ecmascript" fill="#000000" width="1020.8" zoomAndPan="magnify" contentStyleType="text/css" viewBox="0.0 0.0 1020.8 499.9" height="499.9" preserveAspectRatio="xMidYMid meet" version="1"><defs><clipPath id="a"><path d="M 8 0 L 1020.78125 0 L 1020.78125 406 L 8 406 Z M 8 0"/></clipPath><clipPath id="b"><path d="M 0 2 L 990 2 L 990 499.949219 L 0 499.949219 Z M 0 2"/></clipPath></defs><g><g id="change1_1" clip-path="url(#a)"><path fill="#f4a13d" d="M 393.777344 32.316406 C 427.078125 21.816406 459.976562 11.816406 492.679688 2.214844 C 504.976562 -1.386719 518.179688 -0.585938 529.976562 4.515625 C 611.277344 39.214844 697.976562 73.414062 789.976562 106.214844 C 867.578125 133.914062 942.777344 158.316406 1015.179688 180.015625 C 1022.179688 182.113281 1022.78125 191.816406 1016.078125 194.816406 C 973.777344 213.214844 926.976562 231.515625 875.777344 248.316406 C 811.976562 269.316406 752.277344 284.515625 698.179688 295.714844 L 698.179688 361.914062 L 698.277344 361.914062 C 698.277344 368.316406 694.078125 374.015625 687.976562 375.914062 C 641.378906 390.214844 575.976562 404.714844 496.976562 405.214844 C 413.679688 405.816406 344.878906 390.613281 296.976562 375.816406 C 291.078125 374.015625 287.476562 368.214844 288.378906 362.113281 L 304.476562 257.113281 C 233.878906 248.214844 154.878906 232.714844 70.578125 206.816406 C 51.976562 201.113281 33.976562 195.113281 16.578125 188.914062 C 5.378906 184.914062 5.179688 169.214844 16.277344 164.816406 C 54.476562 150.015625 93.277344 135.316406 132.777344 120.914062 C 210.378906 92.613281 286.679688 66.515625 361.578125 42.515625 M 361.578125 42.515625 C 372.378906 39.113281 383.078125 35.613281 393.777344 32.316406"/></g><g id="change2_1" clip-path="url(#b)"><path fill="#091e3d" d="M 641.277344 270.816406 C 641.277344 257.914062 642.378906 242.414062 638.277344 230.015625 C 637.378906 227.316406 633.578125 227.316406 632.679688 230.015625 C 628.578125 242.414062 629.777344 257.914062 629.679688 270.816406 C 629.679688 278.316406 641.277344 278.316406 641.277344 270.816406 Z M 661.777344 303.015625 C 664.578125 287.214844 662.976562 270.214844 662.878906 254.214844 C 662.777344 238.414062 663.777344 221.316406 659.378906 206.113281 C 658.777344 203.914062 655.476562 203.914062 654.878906 206.113281 C 650.476562 221.414062 651.476562 238.515625 651.277344 254.214844 C 651.078125 270.214844 649.476562 287.214844 652.277344 303.015625 C 653.078125 307.714844 660.878906 307.714844 661.777344 303.015625 Z M 987.476562 179.613281 C 946.078125 168.816406 904.578125 158.816406 863.378906 147.613281 C 863.378906 147.316406 863.378906 147.015625 863.378906 146.714844 C 863.578125 139.214844 866.078125 128.914062 862.679688 121.816406 C 857.578125 111.015625 845.078125 116.015625 839.078125 122.613281 C 837.476562 124.316406 838.976562 127.714844 841.578125 126.816406 C 855.878906 121.714844 853.578125 134.714844 852.878906 143.816406 C 852.878906 144.113281 852.878906 144.414062 852.777344 144.613281 C 817.878906 134.914062 783.277344 124.113281 749.277344 111.113281 C 671.277344 81.316406 595.476562 45.515625 519.179688 11.515625 C 512.476562 8.515625 506.578125 18.414062 513.378906 21.414062 C 588.878906 55.113281 663.878906 90.414062 740.976562 120.015625 C 777.476562 134.015625 814.476562 145.816406 851.878906 155.816406 C 851.578125 160.414062 851.179688 165.015625 850.878906 169.613281 C 849.679688 187.816406 848.777344 206.015625 847.777344 224.316406 C 845.777344 259.816406 843.777344 295.316406 841.878906 330.816406 C 841.878906 331.515625 841.976562 332.214844 842.078125 332.816406 C 834.277344 339.113281 830.378906 351.714844 836.976562 359.515625 C 837.679688 360.316406 838.476562 361.015625 839.179688 361.714844 C 824.578125 405.214844 811.378906 451.714844 809.976562 497.714844 C 809.878906 500.316406 813.878906 500.816406 814.476562 498.316406 C 822.976562 467.214844 829.878906 435.914062 838.277344 404.914062 C 838.679688 412.316406 839.179688 419.613281 839.378906 426.714844 C 839.878906 449.515625 840.976562 472.214844 842.878906 495.015625 C 843.078125 497.914062 847.277344 497.914062 847.378906 495.015625 C 848.777344 472.214844 849.378906 449.613281 849.476562 426.714844 C 849.476562 419.714844 849.878906 412.515625 850.179688 405.214844 C 851.878906 413.515625 853.476562 421.816406 855.078125 430.113281 C 858.777344 450.613281 859.476562 474.816406 867.878906 493.914062 C 868.378906 495.015625 870.277344 494.714844 870.476562 493.613281 C 874.679688 473.613281 869.078125 450.015625 866.078125 430.015625 C 864.378906 418.914062 862.378906 407.914062 860.277344 396.914062 C 870.078125 427.113281 876.476562 457.714844 882.976562 489.714844 C 883.476562 492.015625 886.777344 491.316406 886.976562 489.214844 C 889.277344 445.613281 876.378906 399.414062 858.277344 359.714844 C 862.179688 356.113281 864.976562 351.015625 865.078125 345.816406 C 865.277344 339.316406 861.578125 332.816406 854.976562 331.015625 C 854.476562 330.914062 854.078125 330.816406 853.578125 330.816406 C 856.277344 281.914062 858.878906 233.015625 861.578125 184.113281 C 862.078125 175.714844 862.378906 167.214844 862.777344 158.816406 C 903.277344 169.214844 944.378906 177.613281 985.976562 184.414062 C 989.277344 184.914062 990.679688 180.515625 987.476562 179.613281 Z M 690.179688 370.214844 C 690.378906 370.113281 690.679688 370.113281 690.878906 370.015625 C 689.179688 369.613281 687.476562 369.316406 685.777344 368.914062 C 687.277344 369.414062 688.777344 369.816406 690.179688 370.214844 Z M 294.378906 361.113281 C 308.378906 357.714844 323.777344 354.414062 340.578125 351.515625 C 350.277344 349.414062 360.277344 347.816406 369.476562 346.113281 C 404.378906 339.414062 439.878906 335.414062 475.378906 334.316406 C 547.277344 332.015625 625.078125 339.816406 692.378906 366.714844 C 691.179688 365.816406 690.378906 364.414062 690.179688 362.613281 C 687.578125 333.613281 686.578125 304.316406 684.976562 275.113281 C 683.476562 246.613281 681.179688 217.914062 682.578125 189.414062 C 631.679688 146.515625 569.078125 139.316406 504.679688 138.714844 C 475.179688 138.414062 445.476562 138.214844 415.976562 140.316406 C 387.277344 142.316406 358.078125 148.113281 335.476562 167.015625 C 333.078125 169.015625 330.277344 168.714844 328.179688 167.414062 C 328.179688 167.714844 328.179688 167.914062 328.179688 168.214844 C 320.777344 201.113281 314.179688 234.214844 308.078125 267.414062 C 305.078125 284.015625 302.378906 300.613281 299.976562 317.316406 C 297.976562 331.414062 297.476562 346.914062 294.378906 361.113281 Z M 695.976562 272.113281 C 697.976562 302.214844 700.578125 332.414062 701.476562 362.515625 C 701.578125 366.816406 697.878906 368.515625 694.777344 367.714844 C 695.078125 368.113281 695.277344 368.515625 695.277344 368.914062 C 695.378906 368.914062 695.378906 368.914062 695.476562 368.816406 C 697.578125 368.214844 699.179688 371.015625 697.878906 372.414062 C 697.976562 372.414062 698.179688 372.515625 698.277344 372.515625 C 697.976562 372.613281 697.679688 372.613281 697.476562 372.714844 C 697.378906 372.816406 697.378906 372.816406 697.277344 372.914062 C 638.578125 400.214844 571.476562 402.316406 507.777344 402.914062 C 451.378906 403.414062 392.777344 405.414062 337.179688 393.414062 C 319.976562 392.613281 300.878906 388.816406 290.179688 375.414062 C 288.777344 373.613281 287.679688 371.816406 286.777344 370.113281 C 284.976562 369.515625 283.476562 367.914062 283.378906 365.613281 C 282.476562 349.714844 286.476562 332.515625 288.878906 316.714844 C 291.378906 300.015625 294.277344 283.414062 297.378906 266.914062 C 303.878906 232.816406 312.476562 199.414062 322.679688 166.214844 C 323.179688 164.613281 324.578125 164.015625 325.878906 164.214844 C 324.976562 162.316406 325.179688 160.015625 327.378906 158.214844 C 374.679688 118.714844 447.378906 125.914062 504.878906 126.515625 C 567.277344 127.113281 643.777344 131.613281 685.976562 184.613281 C 686.976562 184.613281 687.976562 185.214844 688.179688 186.515625 C 692.878906 214.914062 694.179688 243.613281 695.976562 272.113281 Z M 506.476562 6.816406 C 509.277344 5.914062 508.179688 1.914062 505.277344 2.414062 C 420.078125 17.613281 338.277344 51.214844 257.578125 81.515625 C 172.976562 113.316406 88.476562 145.316406 3.976562 177.214844 C -3.023438 179.914062 -0.0234375 191.316406 7.078125 188.613281 C 91.578125 156.714844 176.179688 124.914062 260.679688 92.914062 C 341.976562 62.113281 424.179688 34.816406 506.476562 6.816406 Z M 279.878906 106.214844 C 240.179688 117.613281 199.976562 130.613281 162.277344 147.714844 C 156.476562 150.316406 160.578125 160.113281 166.578125 158.015625 C 205.578125 144.316406 243.878906 127.316406 281.777344 110.816406 C 284.476562 109.714844 282.578125 105.515625 279.878906 106.214844 Z M 267.878906 141.113281 C 257.277344 147.316406 246.078125 152.414062 234.777344 157.214844 C 227.078125 160.515625 222.777344 149.816406 230.378906 146.714844 C 241.777344 142.015625 253.179688 137.714844 265.078125 134.515625 C 269.078125 133.515625 271.476562 139.113281 267.878906 141.113281"/></g></g></svg>