<?xml version="1.0" encoding="UTF-8"?><svg xmlns="http://www.w3.org/2000/svg" xmlns:xlink="http://www.w3.org/1999/xlink" contentScriptType="text/ecmascript" fill="#000000" width="500.1" zoomAndPan="magnify" contentStyleType="text/css" viewBox="0.0 0.0 500.1 385.7" height="385.7" preserveAspectRatio="xMidYMid meet" version="1"><g id="change1_1"><path fill="#091e3d" d="M474.2,0H227.8c-14.1,0-25.7,11.8-25.7,26.3v10.3v34.3H28.7C12.9,70.9,0,84,0,100.1v11v245.3 c0,3.1,0.5,6,1.4,8.9H1.3l0.6,1.6c4.2,11.2,15,18.8,26.8,18.8h410.5c1.5,0,2.9-0.1,4.4-0.3c10-1.6,18.8-8.6,22.5-18.4c0,0,0,0,0,0 c0,0,0,0,0,0l0.6-1.6h-0.1c0.9-2.8,1.4-5.8,1.4-8.9V149.1h6.3c14.2,0,25.8-11.9,25.8-26.5V36.7V26.3C499.9,11.8,488.4,0,474.2,0z"/></g><g id="change2_1"><path fill="#9eedb1" d="M463.3,362.9c-0.2,0.5-0.4,0.9-0.7,1.3c-0.1,0.2-0.2,0.5-0.4,0.7c-0.7,1.3-1.6,2.5-2.5,3.6 c-0.2,0.2-0.4,0.5-0.6,0.7c-2.2,2.5-4.8,4.5-7.6,6c-0.2,0.1-0.5,0.3-0.7,0.4c0,0,0,0,0,0c-0.3,0.1-0.6,0.3-0.9,0.4 c-0.3,0.1-0.5,0.2-0.8,0.3c-0.7,0.3-1.3,0.5-2,0.7c-0.3,0.1-0.6,0.2-0.9,0.3c-1.3,0.4-2.6,0.6-4,0.8c-0.3,0-0.7,0.1-1,0.1 c-0.7,0.1-1.4,0.1-2,0.1H28.7c-0.7,0-1.4,0-2-0.1c-0.3,0-0.7-0.1-1-0.1c-0.6-0.1-1.2-0.2-1.7-0.3c-0.2-0.1-0.5-0.1-0.7-0.2 c-0.5-0.1-1.1-0.2-1.6-0.4c-0.2-0.1-0.5-0.1-0.7-0.2c-1.3-0.4-2.5-0.9-3.7-1.5c-0.2-0.1-0.5-0.2-0.7-0.4c-2.9-1.5-5.5-3.6-7.6-6 c-0.2-0.2-0.4-0.5-0.6-0.7c-0.8-1-1.5-2-2.2-3.1c-0.2-0.3-0.3-0.5-0.5-0.8c-0.3-0.6-0.6-1.1-0.9-1.7H463.3z"/></g><g id="change3_1"><path fill="#f7f5d0" d="M227.8,149.1c-14.2,0-25.7-11.9-25.7-26.5v-12.2H2.3v241.5c0,3,0.5,5.9,1.5,8.7h460.4c1-2.8,1.5-5.7,1.5-8.7 V149.1H227.8z"/></g><g id="change4_1"><path fill="#fffee9" d="M204.3,35.7h293.5v83.6c0,13-10.5,23.5-23.5,23.5H227.8c-13,0-23.5-10.5-23.5-23.5V35.7z"/></g><g fill="#f4a13d" id="change5_1"><path d="M474.2,2.3H227.8c-12.9,0-23.4,10.5-23.5,23.4v7.8h293.5v-7.8C497.7,12.7,487.1,2.3,474.2,2.3z M242.5,24.7 l-1.5,1.5l-6.9-6.9l-6.9,6.9l-1.5-1.5l6.9-6.9l-6.9-6.9l1.5-1.5l6.9,6.9l6.9-6.9l1.5,1.5l-6.9,6.9L242.5,24.7z"/><path d="M28.7,73.2c-14.6,0-26.5,11.9-26.5,26.5v8.5H202v-35H28.7z M40.8,98.2l-1.5,1.5l-6.9-6.9l-6.9,6.9l-1.5-1.5 l6.9-6.9l-6.9-6.9l1.5-1.5l6.9,6.9l6.9-6.9l1.5,1.5l-6.9,6.9L40.8,98.2z"/></g></svg>