<?xml version="1.0" encoding="UTF-8"?><svg xmlns="http://www.w3.org/2000/svg" xmlns:xlink="http://www.w3.org/1999/xlink" contentScriptType="text/ecmascript" fill="#000000" width="500.2" zoomAndPan="magnify" contentStyleType="text/css" viewBox="-0.2 0.0 500.2 464.1" height="464.1" preserveAspectRatio="xMidYMid meet" version="1"><g id="change1_1"><path fill="#091e3d" d="M415.8,0h-297C72.4,0,34.6,37.8,34.6,84.2v278.7c0,18.6,6,36.2,17.3,51L52,414l-0.1,0.1 c-7.4,10-17,19.5-28.7,28.4c-6.5,5-13.9,9.9-22,14.7c-0.9,0.5-1.4,1.6-1.2,2.7c0.2,1.1,1.1,1.9,2.1,2c7.4,1,19,2.2,33,2.2 c23.7,0,54.1-3.5,81.5-17.1l0.1,0l0.1,0c0.3,0,0.5,0,0.7,0c0.4,0,0.7,0.1,1.1,0.1h297c46.4,0,84.2-37.8,84.2-84.2V84.2 C500,37.8,462.2,0,415.8,0z"/></g><g id="change2_1"><path fill="#9eedb1" d="M494.9,84.2c0-43.6-35.5-79.1-79.1-79.1h-297c-43.6,0-79.1,35.5-79.1,79.1v278.7c0,17.4,5.6,34,16.3,47.9 l1.3,1.7c0.7,0.9,0.7,2.1,0,3l-1.2,1.7c-7.7,10.4-17.7,20.3-29.7,29.4c-4.9,3.8-10.4,7.5-16.2,11.2c22.8,2.4,66.6,3.5,104.4-15.3 l0.6-0.3c0.4-0.2,0.8-0.3,1.2-0.3l0.7,0c0.3,0,0.7,0,1.1,0.1c0.3,0,0.4,0,0.6,0h297c43.6,0,79.1-35.5,79.1-79.1V84.2z"/></g></svg>