<?xml version="1.0" encoding="UTF-8"?><svg xmlns="http://www.w3.org/2000/svg" xmlns:xlink="http://www.w3.org/1999/xlink" contentScriptType="text/ecmascript" fill="#000000" width="500" zoomAndPan="magnify" contentStyleType="text/css" viewBox="0.0 0.0 500.0 146.3" height="146.3" preserveAspectRatio="xMidYMid meet" version="1"><g id="change1_1"><path fill="#091e3d" d="M476.3,0H23.7C10.6,0,0,10.9,0,24.3V122c0,13.4,10.6,24.3,23.7,24.3h452.6c13.1,0,23.7-10.9,23.7-24.3V24.3 C500,10.9,489.4,0,476.3,0z"/></g><g id="change2_1"><path fill="#9eedb1" d="M476.3,2.2H23.7c-11.9,0-21.6,9.7-21.6,21.6v95.4c0,11.9,9.7,21.6,21.6,21.6h452.6 c11.9,0,21.6-9.7,21.6-21.6V23.7C497.8,11.8,488.2,2.2,476.3,2.2z M482.5,29.7l-6.2-6.2l-6.2,6.2l-1.8-1.8l6.2-6.2l-6.2-6.2l1.8-1.8 l6.2,6.2l6.2-6.2l1.8,1.8l-6.2,6.2l6.2,6.2L482.5,29.7z"/></g></svg>