<?xml version="1.0" encoding="UTF-8"?><svg xmlns="http://www.w3.org/2000/svg" xmlns:xlink="http://www.w3.org/1999/xlink" contentScriptType="text/ecmascript" fill="#000000" width="500" zoomAndPan="magnify" contentStyleType="text/css" viewBox="0.0 0.0 500.0 296.9" height="296.9" preserveAspectRatio="xMidYMid meet" version="1"><g id="change1_1"><path fill="#091e3d" d="M476.5,0h-453C10.5,0,0,10.7,0,23.8v19.1v230.2c0,13.1,10.5,23.8,23.5,23.8h453c13,0,23.5-10.7,23.5-23.8 V42.9V23.8C500,10.7,489.5,0,476.5,0z"/></g><g fill="#9eedb1" id="change2_1"><path d="M433.4 16.3H445.59999999999997V28.5H433.4z"/><path d="M476.5,2.3h-453c-11.7,0-21.2,9.5-21.2,21.2v16.6h495.4V23.5C497.7,11.8,488.2,2.3,476.5,2.3z M416.7,23.4 h-21.5v-2.1h21.5V23.4z M447.8,30.6h-16.5V14.1h16.5V30.6z M478.9,29.2l-1.5,1.5l-6.8-6.8l-6.8,6.8l-1.5-1.5l6.8-6.8l-6.8-6.8 l1.5-1.5l6.8,6.8l6.8-6.8l1.5,1.5l-6.8,6.8L478.9,29.2z"/></g><g id="change3_1"><path fill="#f7f5d0" d="M2.3,42.4h495.4v227.6c0,11.7-9.5,21.2-21.2,21.2h-453c-11.7,0-21.2-9.5-21.2-21.2V42.4z"/></g></svg>