<?xml version="1.0" encoding="UTF-8"?><svg xmlns="http://www.w3.org/2000/svg" xmlns:xlink="http://www.w3.org/1999/xlink" contentScriptType="text/ecmascript" fill="#000000" width="500" zoomAndPan="magnify" contentStyleType="text/css" viewBox="0.0 0.0 500.0 210.1" height="210.1" preserveAspectRatio="xMidYMid meet" version="1"><g id="change1_1"><path fill="#091e3d" d="M461.1,0H59.1C37.7,0,20.2,17.5,20.2,38.9v124.6c0,8.3,2.6,16.1,7.5,22.9c-5.6,7.3-13.9,13.9-24.7,19.8 L0,207.8l3.3,0.7c0.2,0,7.8,1.6,18.5,1.6c10.7,0,24.4-1.5,36.8-7.6c0,0,0,0,0,0c0.2,0,0.4,0,0.5,0h401.9c21.5,0,38.9-17.5,38.9-38.9 V38.9C500,17.5,482.5,0,461.1,0z"/></g><g id="change2_1"><path fill="#f7f5d0" d="M57.7,200.1l0.3-0.1l0.3,0c0.1,0,0.3,0,0.4,0c0.1,0,0.2,0,0.4,0h401.9c20.1,0,36.5-16.4,36.5-36.5V38.9 c0-20.1-16.4-36.5-36.5-36.5H59.1C39,2.5,22.6,18.8,22.6,38.9v124.6c0,8,2.6,15.7,7.5,22.1l0.6,0.7l-0.5,0.7 c-5.3,7.1-13,13.7-23,19.5C15.7,207.8,38.4,209.7,57.7,200.1z"/></g></svg>