<?xml version="1.0" encoding="UTF-8"?><svg xmlns="http://www.w3.org/2000/svg" xmlns:xlink="http://www.w3.org/1999/xlink" contentScriptType="text/ecmascript" fill="#000000" width="500" zoomAndPan="magnify" contentStyleType="text/css" viewBox="0.0 -0.0 500.0 269.4" height="269.4" preserveAspectRatio="xMidYMid meet" version="1"><defs><clipPath id="a"><path d="M 0 64 L 190 64 L 190 269.351562 L 0 269.351562 Z M 0 64"/></clipPath><clipPath id="b"><path d="M 310 64 L 500 64 L 500 269.351562 L 310 269.351562 Z M 310 64"/></clipPath></defs><g><g id="change1_1" clip-path="url(#a)"><path fill="#29abe2" d="M 130.652344 71.179688 C 121.628906 67.597656 111.910156 65.332031 101.753906 64.625 C 101.75 64.625 101.746094 64.625 101.742188 64.625 C 101.398438 64.601562 101.054688 64.578125 100.710938 64.558594 C 100.574219 64.550781 100.441406 64.542969 100.304688 64.535156 C 100.078125 64.523438 99.851562 64.511719 99.621094 64.5 C 99.367188 64.484375 99.117188 64.476562 98.863281 64.464844 C 98.738281 64.460938 98.617188 64.453125 98.496094 64.449219 C 98.136719 64.4375 97.78125 64.429688 97.421875 64.417969 C 97.390625 64.417969 97.359375 64.414062 97.332031 64.414062 C 96.523438 64.394531 95.714844 64.386719 94.90625 64.386719 L 94.894531 64.386719 C 42.484375 64.386719 0 105.800781 0 156.886719 C 0 207.972656 42.484375 249.386719 94.894531 249.386719 C 102.75 249.386719 110.382812 248.457031 117.679688 246.703125 L 150.164062 268.476562 C 151.027344 269.058594 152.035156 269.351562 153.046875 269.351562 C 153.859375 269.351562 154.671875 269.160156 155.414062 268.78125 C 157.085938 267.921875 158.132812 266.230469 158.128906 264.390625 L 158.097656 225.882812 C 164.40625 220.386719 169.957031 214.082031 174.578125 207.136719 C 184.199219 192.667969 189.789062 175.414062 189.789062 156.886719 C 189.789062 118.132812 165.339844 84.941406 130.652344 71.179688"/></g><g id="change2_1" clip-path="url(#b)"><path fill="#ffd300" d="M 499.992188 155.695312 L 499.992188 155.664062 C 499.988281 155.289062 499.980469 154.914062 499.96875 154.535156 C 499.96875 154.445312 499.964844 154.351562 499.960938 154.261719 C 499.953125 153.980469 499.945312 153.695312 499.933594 153.414062 C 499.925781 153.226562 499.917969 153.035156 499.910156 152.847656 C 499.902344 152.675781 499.894531 152.5 499.886719 152.328125 C 499.871094 152.03125 499.855469 151.734375 499.835938 151.433594 C 499.832031 151.386719 499.828125 151.335938 499.828125 151.285156 C 498.9375 136.785156 494.625 123.191406 487.664062 111.25 C 487.609375 111.15625 487.554688 111.058594 487.496094 110.960938 C 487.4375 110.859375 487.375 110.753906 487.3125 110.652344 C 484.746094 106.304688 481.8125 102.160156 478.519531 98.238281 C 472.691406 91.304688 465.9375 85.300781 458.351562 80.308594 C 446.824219 72.679688 433.488281 67.460938 419.105469 65.386719 C 419.09375 65.386719 419.082031 65.382812 419.070312 65.382812 C 418.703125 65.328125 418.339844 65.277344 417.96875 65.230469 C 417.921875 65.222656 417.875 65.21875 417.828125 65.210938 C 417.496094 65.167969 417.160156 65.125 416.828125 65.085938 C 416.75 65.074219 416.671875 65.066406 416.59375 65.058594 C 416.285156 65.019531 415.980469 64.988281 415.675781 64.953125 C 415.570312 64.941406 415.464844 64.933594 415.355469 64.921875 C 415.078125 64.890625 414.800781 64.863281 414.519531 64.835938 C 414.382812 64.824219 414.25 64.8125 414.113281 64.796875 C 413.863281 64.773438 413.609375 64.753906 413.355469 64.730469 C 413.304688 64.726562 413.253906 64.722656 413.199219 64.714844 C 413.078125 64.707031 412.960938 64.699219 412.84375 64.691406 C 412.636719 64.671875 412.429688 64.65625 412.222656 64.644531 C 412.007812 64.625 411.789062 64.613281 411.574219 64.597656 C 411.410156 64.585938 411.242188 64.578125 411.078125 64.566406 C 410.804688 64.550781 410.527344 64.535156 410.253906 64.519531 C 410.144531 64.515625 410.035156 64.507812 409.925781 64.503906 C 409.570312 64.484375 409.21875 64.46875 408.863281 64.457031 C 408.828125 64.453125 408.792969 64.453125 408.757812 64.453125 C 407.558594 64.40625 406.355469 64.386719 405.15625 64.386719 L 405.105469 64.386719 C 404.765625 64.386719 404.425781 64.386719 404.082031 64.390625 L 404.050781 64.390625 C 391.820312 64.523438 380.148438 66.90625 369.445312 71.140625 C 334.710938 84.878906 310.210938 118.09375 310.210938 156.886719 C 310.210938 175.4375 315.8125 192.710938 325.460938 207.191406 C 330.097656 214.15625 335.675781 220.476562 342.011719 225.980469 L 341.980469 264.390625 C 341.980469 266.230469 343.023438 267.921875 344.695312 268.78125 C 345.441406 269.160156 346.253906 269.351562 347.066406 269.351562 C 348.074219 269.351562 349.082031 269.058594 349.945312 268.476562 L 382.398438 246.722656 C 389.675781 248.464844 397.28125 249.386719 405.105469 249.386719 C 457.515625 249.386719 500 207.972656 500 156.886719 L 500 156.878906 C 500 156.484375 499.996094 156.089844 499.992188 155.695312"/></g><g id="change3_1"><path fill="#ffffff" d="M 80.644531 206.992188 L 102.902344 206.992188 L 102.902344 185.574219 L 80.644531 185.574219 L 80.644531 206.992188"/></g><g id="change3_2"><path fill="#ffffff" d="M 118.410156 113.132812 C 112.1875 107.863281 103.953125 105.222656 93.710938 105.222656 C 82.511719 105.222656 73.84375 108.257812 67.71875 114.324219 C 61.59375 120.390625 58.191406 128.789062 57.523438 139.519531 L 78.488281 139.519531 C 78.871094 128.039062 83.851562 122.300781 93.425781 122.300781 C 97.160156 122.300781 100.148438 123.328125 102.398438 125.382812 C 104.648438 127.433594 105.773438 130.140625 105.773438 133.5 C 105.773438 135.179688 105.535156 136.71875 105.058594 138.117188 C 104.578125 139.519531 103.765625 140.871094 102.617188 142.179688 C 101.46875 143.488281 100.507812 144.511719 99.742188 145.257812 C 98.976562 146.007812 97.683594 147.078125 95.867188 148.480469 C 94.046875 149.878906 92.851562 150.8125 92.277344 151.277344 C 87.871094 154.917969 85.117188 158.488281 84.019531 161.988281 C 82.917969 165.488281 82.367188 170.503906 82.367188 177.035156 L 101.46875 177.035156 C 101.46875 172.183594 102.089844 168.660156 103.332031 166.464844 C 104.578125 164.273438 107.304688 161.777344 111.519531 158.976562 C 116.6875 155.527344 120.683594 151.839844 123.511719 147.917969 C 126.332031 144 127.746094 139.335938 127.746094 133.921875 C 127.746094 125.335938 124.632812 118.40625 118.410156 113.132812"/></g><g id="change3_3"><path fill="#ffffff" d="M 395.484375 206.992188 L 417.742188 206.992188 L 417.742188 185.574219 L 395.484375 185.574219 L 395.484375 206.992188"/></g><g id="change3_4"><path fill="#ffffff" d="M 433.253906 113.132812 C 427.027344 107.863281 418.796875 105.222656 408.554688 105.222656 C 397.351562 105.222656 388.6875 108.257812 382.5625 114.324219 C 376.433594 120.390625 373.03125 128.789062 372.363281 139.519531 L 393.332031 139.519531 C 393.710938 128.039062 398.691406 122.300781 408.265625 122.300781 C 412 122.300781 414.988281 123.328125 417.242188 125.382812 C 419.488281 127.433594 420.613281 130.140625 420.613281 133.5 C 420.613281 135.179688 420.375 136.71875 419.898438 138.117188 C 419.417969 139.519531 418.605469 140.871094 417.457031 142.179688 C 416.308594 143.488281 415.351562 144.511719 414.585938 145.257812 C 413.816406 146.007812 412.523438 147.078125 410.707031 148.480469 C 408.886719 149.878906 407.691406 150.8125 407.117188 151.277344 C 402.714844 154.917969 399.960938 158.488281 398.859375 161.988281 C 397.757812 165.488281 397.207031 170.503906 397.207031 177.035156 L 416.308594 177.035156 C 416.308594 172.183594 416.929688 168.660156 418.175781 166.464844 C 419.417969 164.273438 422.144531 161.777344 426.359375 158.976562 C 431.527344 155.527344 435.523438 151.839844 438.351562 147.917969 C 441.175781 144 442.585938 139.335938 442.585938 133.921875 C 442.585938 125.335938 439.476562 118.40625 433.253906 113.132812"/></g><g id="change4_1"><path fill="#27a3d6" d="M 189.789062 156.886719 C 189.789062 175.414062 184.199219 192.667969 174.578125 207.136719 C 166.40625 201.140625 159.015625 194.203125 152.527344 186.417969 C 143.628906 175.738281 136.691406 163.796875 131.910156 150.910156 C 126.964844 137.578125 124.457031 123.566406 124.457031 109.265625 C 124.457031 96.191406 126.535156 83.421875 130.652344 71.179688 C 165.339844 84.941406 189.789062 118.132812 189.789062 156.886719"/></g><g id="change5_1"><path fill="#e6be00" d="M 375.652344 109.265625 C 375.652344 123.566406 373.144531 137.578125 368.199219 150.910156 C 363.421875 163.796875 356.484375 175.738281 347.585938 186.417969 C 341.074219 194.226562 333.660156 201.183594 325.460938 207.191406 C 315.8125 192.710938 310.210938 175.4375 310.210938 156.886719 C 310.210938 118.09375 334.710938 84.878906 369.445312 71.140625 C 373.570312 83.390625 375.652344 96.175781 375.652344 109.265625"/></g><g id="change6_1"><path fill="#ed1c24" d="M 355.292969 67.992188 C 349.539062 54.734375 341.304688 42.828125 330.816406 32.605469 C 320.328125 22.382812 308.117188 14.355469 294.515625 8.746094 C 280.433594 2.941406 265.472656 -0.00390625 250.054688 -0.00390625 C 234.636719 -0.00390625 219.679688 2.941406 205.597656 8.746094 C 191.992188 14.355469 179.78125 22.382812 169.292969 32.605469 C 158.804688 42.828125 150.570312 54.734375 144.816406 67.992188 C 138.859375 81.722656 135.839844 96.304688 135.839844 111.332031 C 135.839844 124.339844 138.121094 137.078125 142.617188 149.203125 C 146.964844 160.917969 153.273438 171.78125 161.367188 181.492188 C 169.390625 191.113281 178.921875 199.316406 189.699219 205.867188 C 200.011719 212.136719 211.183594 216.71875 222.941406 219.507812 L 245.554688 261.460938 C 246.433594 263.09375 248.167969 264.113281 250.054688 264.113281 C 251.945312 264.113281 253.679688 263.09375 254.558594 261.460938 L 277.171875 219.507812 C 288.929688 216.71875 300.101562 212.136719 310.410156 205.867188 C 321.191406 199.316406 330.722656 191.113281 338.746094 181.492188 C 346.839844 171.78125 353.144531 160.917969 357.492188 149.203125 C 361.992188 137.078125 364.269531 124.339844 364.269531 111.332031 C 364.269531 96.304688 361.25 81.722656 355.292969 67.992188"/></g><g id="change3_5"><path fill="#ffffff" d="M 234.933594 186.472656 L 263.101562 186.472656 L 263.101562 159.367188 L 234.933594 159.367188 L 234.933594 186.472656"/></g><g id="change3_6"><path fill="#ffffff" d="M 282.730469 67.691406 C 274.851562 61.019531 264.433594 57.679688 251.472656 57.679688 C 237.296875 57.679688 226.328125 61.519531 218.574219 69.195312 C 210.820312 76.875 206.519531 87.503906 205.671875 101.082031 L 232.207031 101.082031 C 232.6875 86.558594 238.988281 79.292969 251.105469 79.292969 C 255.832031 79.292969 259.617188 80.59375 262.464844 83.191406 C 265.3125 85.789062 266.734375 89.214844 266.734375 93.464844 C 266.734375 95.589844 266.433594 97.539062 265.828125 99.3125 C 265.21875 101.082031 264.191406 102.796875 262.738281 104.449219 C 261.285156 106.105469 260.070312 107.402344 259.105469 108.347656 C 258.132812 109.292969 256.496094 110.648438 254.195312 112.421875 C 251.894531 114.191406 250.378906 115.375 249.652344 115.964844 C 244.078125 120.570312 240.59375 125.089844 239.203125 129.515625 C 237.808594 133.945312 237.113281 140.296875 237.113281 148.5625 L 261.285156 148.5625 C 261.285156 142.421875 262.070312 137.960938 263.644531 135.183594 C 265.21875 132.410156 268.671875 129.25 274.007812 125.707031 C 280.546875 121.339844 285.605469 116.671875 289.179688 111.710938 C 292.753906 106.753906 294.542969 100.847656 294.542969 93.996094 C 294.542969 83.132812 290.605469 74.363281 282.730469 67.691406"/></g></g></svg>