<?xml version="1.0" encoding="UTF-8" standalone="no"?><svg xmlns="http://www.w3.org/2000/svg" xmlns:xlink="http://www.w3.org/1999/xlink" contentScriptType="text/ecmascript" fill="#ffffff" width="50" zoomAndPan="magnify" contentStyleType="text/css" viewBox="0.0 3.0 50.0 44.0" height="44" preserveAspectRatio="xMidYMid meet" version="1"><g id="change1_1"><path fill="inherit" d="M47,15H3c-2.996,0-3,3-3,3v26c0,1.654,1.346,3,3,3h44c1.654,0,3-1.346,3-3V18C50,18,49.957,15,47,15z"/><path fill="inherit" d="M47,7L18.044,7.006c-0.279-0.101-0.854-1.02-1.164-1.514C16.111,4.267,15.317,3,14,3H3C1.346,3,0,4.346,0,6v10 c0-1.654,1.346-3,3-3h44c1.654,0,3,1.346,3,3v-6C50,8.346,48.654,7,47,7z"/></g></svg>