<?xml version="1.0" encoding="UTF-8" standalone="no"?><svg xmlns="http://www.w3.org/2000/svg" xmlns:xlink="http://www.w3.org/1999/xlink" contentScriptType="text/ecmascript" fill="#000000" width="718" zoomAndPan="magnify" contentStyleType="text/css" viewBox="135.4 0.0 718.0 1001.1" height="1001.1" preserveAspectRatio="xMidYMid meet" version="1"><g><g id="change1_1"><path fill="#ffffff" d="M 829.503906 389.234375 L 829.503906 573.945312 C 829.503906 749.675781 817.28125 817.117188 799.363281 878.523438 C 781.867188 938.472656 763.253906 977.265625 735.15625 977.265625 L 470.679688 977.265625 C 435.945312 977.265625 412.757812 948.5 379.605469 891.851562 L 177.902344 574.308594 C 162.6875 547.953125 171.75 514.128906 198.105469 498.910156 L 203.042969 496.0625 C 211.4375 491.214844 220.957031 488.652344 230.566406 488.652344 C 250.265625 488.652344 268.609375 499.234375 278.441406 516.265625 L 322.121094 591.917969 C 326.53125 599.5625 334.753906 604.3125 343.574219 604.3125 C 357.246094 604.3125 368.367188 593.191406 368.367188 579.527344 L 368.367188 75.695312 C 368.367188 47.113281 391.621094 23.863281 420.199219 23.863281 C 448.777344 23.863281 472.03125 47.113281 472.03125 75.695312 L 472.03125 486.1875 C 472.03125 501.707031 496.515625 501.707031 496.515625 486.1875 L 496.515625 328.667969 C 496.515625 300.085938 519.769531 276.835938 548.347656 276.835938 C 576.925781 276.835938 600.179688 300.085938 600.179688 328.667969 L 600.179688 486.460938 C 600.179688 501.832031 624.113281 501.832031 624.113281 486.460938 L 624.113281 359.886719 C 624.113281 331.308594 647.363281 308.058594 675.945312 308.058594 C 704.523438 308.058594 727.773438 331.308594 727.773438 359.886719 L 727.773438 486.460938 C 727.773438 501.832031 751.710938 501.832031 751.710938 486.460938 L 751.710938 389.234375 C 751.710938 367.871094 768.5 350.488281 789.140625 350.488281 L 792.070312 350.488281 C 812.714844 350.488281 829.503906 367.871094 829.503906 389.234375"/></g><g id="change2_1"><path fill="#1e1e1e" d="M 829.503906 573.945312 C 829.503906 749.675781 817.28125 817.117188 799.363281 878.523438 C 781.867188 938.472656 763.253906 977.265625 735.15625 977.265625 L 470.679688 977.265625 C 435.945312 977.265625 412.757812 948.5 379.605469 891.851562 L 177.902344 574.308594 C 162.6875 547.953125 171.75 514.128906 198.105469 498.910156 L 203.042969 496.0625 C 211.4375 491.214844 220.957031 488.652344 230.566406 488.652344 C 250.265625 488.652344 268.609375 499.234375 278.441406 516.265625 L 322.121094 591.917969 C 326.53125 599.5625 334.753906 604.3125 343.574219 604.3125 C 357.246094 604.3125 368.367188 593.191406 368.367188 579.527344 L 368.367188 75.695312 C 368.367188 47.113281 391.621094 23.863281 420.199219 23.863281 C 448.777344 23.863281 472.03125 47.113281 472.03125 75.695312 L 472.03125 486.1875 C 472.03125 501.707031 496.515625 501.707031 496.515625 486.1875 L 496.515625 328.667969 C 496.515625 300.085938 519.769531 276.835938 548.347656 276.835938 C 576.925781 276.835938 600.179688 300.085938 600.179688 328.667969 L 600.179688 486.460938 C 600.179688 501.832031 624.113281 501.832031 624.113281 486.460938 L 624.113281 359.886719 C 624.113281 331.308594 647.363281 308.058594 675.945312 308.058594 C 704.523438 308.058594 727.773438 331.308594 727.773438 359.886719 L 727.773438 486.460938 C 727.773438 501.832031 751.710938 501.832031 751.710938 486.460938 L 751.710938 389.234375 C 751.710938 367.871094 768.5 350.488281 789.140625 350.488281 L 792.070312 350.488281 C 812.714844 350.488281 829.503906 367.871094 829.503906 389.234375 Z M 792.070312 326.621094 C 776.269531 326.621094 761.222656 332.738281 749.671875 342.773438 C 741.910156 309.214844 711.859375 284.195312 675.945312 284.195312 C 654.351562 284.195312 634.882812 293.25 621.09375 307.757812 C 612.015625 276.125 582.894531 252.972656 548.347656 252.972656 C 548.347656 252.972656 493.671875 252.609375 493.671875 294.414062 L 495.894531 75.695312 C 495.894531 33.890625 462.003906 0 420.199219 0 C 378.394531 0 344.507812 33.890625 344.507812 75.695312 L 344.507812 579.527344 C 344.507812 580.46875 343.257812 580.804688 342.785156 579.988281 L 299.105469 504.332031 C 277.277344 466.519531 228.925781 453.5625 191.113281 475.394531 L 186.175781 478.246094 C 148.363281 500.078125 135.40625 548.429688 157.238281 586.238281 L 359.011719 903.902344 C 389.945312 956.765625 419.925781 1001.128906 470.679688 1001.128906 L 735.15625 1001.128906 C 795.960938 1001.128906 853.367188 895.648438 853.367188 573.945312 L 853.367188 389.234375 C 853.367188 354.65625 825.925781 326.621094 792.070312 326.621094"/></g></g></svg>