<?xml version="1.0" encoding="UTF-8"?><svg xmlns="http://www.w3.org/2000/svg" xmlns:xlink="http://www.w3.org/1999/xlink" contentScriptType="text/ecmascript" fill="#000000" width="227" zoomAndPan="magnify" contentStyleType="text/css" viewBox="99.0 99.4 227.0 226.8" height="226.8" preserveAspectRatio="xMidYMid meet" version="1.1">
 <g id="surface1">
  <g id="change1_1"><path fill="#f36b6b" d="m225.39 99.922c-4.28-0.531-8.85 4.468-12.89 13.078-4.04-8.61-8.62-13.609-12.9-13.078-9.06 1.128-13.35 26.558-9.58 56.808 3.22 25.92 11.31 46.95 19.26 51.73 0.78 0.54 1.61 0.89 2.49 1 0.16 0.02 0.33 0.01 0.49 0.02h0.24 0.24c0.16-0.01 0.32 0 0.49-0.02 0.87-0.11 1.7-0.46 2.49-1 7.94-4.78 16.04-25.81 19.26-51.73 3.76-30.25-0.53-55.68-9.59-56.808"/></g>
  <g id="change1_2"><path fill="#f36b6b" d="m312.88 159.67c-1.98-3.83-8.69-4.8-18.08-3.28 4.84-8.19 6.39-14.79 3.54-18.03-6.04-6.84-29.46 3.95-52.33 24.11-19.59 17.27-32.4 35.81-31.87 45.07-0.01 0.96 0.18 1.84 0.58 2.62 0.08 0.14 0.17 0.28 0.26 0.41 0.04 0.07 0.08 0.14 0.13 0.21 0.05 0.06 0.09 0.13 0.14 0.19 0.1 0.13 0.18 0.27 0.29 0.39 0.58 0.66 1.34 1.16 2.23 1.5 8.43 3.87 30.36-1.3 53.59-13.25 27.1-13.94 45.69-31.82 41.52-39.94"/></g>
  <g id="change1_3"><path fill="#f36b6b" d="m312.84 265.61c2.05-3.8-0.94-9.88-7.48-16.78 9.49-0.62 15.81-3.06 16.88-7.24 2.25-8.85-19.87-22.11-49.41-29.63-25.31-6.45-47.84-6.58-55.19-0.92-0.79 0.53-1.42 1.18-1.84 1.96-0.07 0.14-0.13 0.29-0.19 0.44-0.04 0.08-0.07 0.15-0.1 0.22-0.03 0.08-0.05 0.15-0.08 0.23-0.05 0.15-0.12 0.3-0.16 0.46-0.22 0.86-0.2 1.76 0.02 2.69 1.56 9.14 18.19 24.34 41.15 36.79 26.8 14.53 52.04 19.8 56.4 11.78"/></g>
  <g id="change1_4"><path fill="#f36b6b" d="m276.47 306.3c3.59-2.4 3.79-9.18 1.23-18.33 8.68 3.88 15.41 4.68 18.3 1.48 6.12-6.77-7.23-28.83-29.84-49.28-19.37-17.52-39.23-28.15-48.37-26.59-0.95 0.1-1.81 0.38-2.54 0.87-0.14 0.1-0.26 0.21-0.39 0.31l-0.18 0.15c-0.06 0.05-0.12 0.11-0.18 0.16-0.12 0.11-0.25 0.22-0.36 0.34-0.59 0.65-0.99 1.45-1.23 2.38-2.89 8.81 4.71 30.02 19.2 51.75 16.91 25.36 36.77 41.82 44.36 36.76"/></g>
  <g id="change1_5"><path fill="#f36b6b" d="m171.2 318.19c4 1.62 9.71-2.04 15.84-9.32 1.68 9.36 4.82 15.37 9.09 15.95 9.04 1.25 19.73-22.22 23.88-52.42 3.55-25.88 1.14-48.28-5.31-54.95-0.61-0.72-1.33-1.27-2.15-1.6-0.15-0.06-0.31-0.1-0.46-0.15-0.08-0.02-0.16-0.04-0.23-0.06-0.08-0.03-0.16-0.04-0.24-0.06-0.16-0.04-0.31-0.08-0.48-0.1-0.87-0.12-1.76-0.01-2.66 0.32-8.91 2.58-22.14 20.81-31.92 45.03-11.42 28.26-13.82 53.94-5.36 57.36"/></g>
  <g id="change1_6"><path fill="#f36b6b" d="m102.04 237.95c0.92 4.21 7.16 6.87 16.62 7.82-6.78 6.66-9.97 12.64-8.05 16.5 4.07 8.17 29.49 3.77 56.77-9.82 23.37-11.66 40.51-26.27 42.39-35.36 0.25-0.92 0.3-1.82 0.11-2.68-0.04-0.16-0.09-0.31-0.14-0.47-0.02-0.07-0.05-0.15-0.08-0.23-0.02-0.07-0.05-0.15-0.08-0.22-0.06-0.15-0.11-0.31-0.18-0.45-0.4-0.79-0.99-1.47-1.77-2.02-7.15-5.91-29.67-6.56-55.19-0.98-29.78 6.49-52.34 18.99-50.4 27.91"/></g>
  <g id="change1_7"><path fill="#f36b6b" d="m129.34 135.59c-2.97 3.13-1.64 9.78 2.91 18.13-9.33-1.84-16.07-1.11-18.18 2.66-4.45 7.97 13.51 26.48 40.12 41.34 22.8 12.74 44.54 18.67 53.1 15.09 0.9-0.31 1.67-0.78 2.28-1.42 0.11-0.12 0.2-0.25 0.3-0.38 0.05-0.06 0.1-0.12 0.15-0.19s0.09-0.13 0.13-0.2c0.1-0.13 0.2-0.26 0.28-0.4 0.43-0.77 0.64-1.65 0.67-2.6 0.84-9.24-11.31-28.2-30.3-46.14-22.16-20.93-45.19-32.53-51.46-25.89"/></g>
  <g id="change1_8"><path fill="#f36b6b" d="m174.95 105.62c-4.09 1.39-6.02 7.89-5.9 17.4-7.39-5.99-13.69-8.49-17.32-6.14-7.65 4.96-0.42 29.72 16.17 55.3 14.21 21.91 30.66 37.3 39.9 38.13 0.95 0.15 1.84 0.1 2.68-0.19 0.16-0.05 0.3-0.12 0.45-0.19 0.07-0.03 0.14-0.06 0.21-0.1 0.08-0.04 0.15-0.07 0.22-0.11 0.14-0.08 0.29-0.14 0.43-0.23 0.74-0.48 1.34-1.15 1.8-1.99 5.07-7.77 3.18-30.22-5.23-54.95-9.82-28.85-24.77-49.87-33.41-46.93"/></g>
  <g id="change1_9"><path fill="#f36b6b" d="m276.54 118.95c-3.54-2.47-9.92-0.18-17.51 5.55 0.45-9.5-1.26-16.06-5.3-17.59-8.53-3.24-24.21 17.25-35 45.75-9.26 24.42-11.93 46.79-7.13 54.73 0.44 0.86 1.01 1.55 1.73 2.05 0.14 0.1 0.28 0.17 0.42 0.25l0.21 0.12c0.08 0.03 0.15 0.07 0.22 0.1 0.14 0.07 0.29 0.15 0.44 0.21 0.83 0.32 1.72 0.4 2.67 0.28 9.26-0.51 26.24-15.33 41.19-36.74 17.46-24.99 25.54-49.48 18.06-54.71"/></g>
  <g id="change1_10"><path fill="#f36b6b" d="m325.98 214.89c0.05-4.31-5.43-8.3-14.44-11.34 8.1-4.98 12.55-10.09 11.54-14.29-2.14-8.87-27.89-10.27-57.53-3.12-25.39 6.12-45.37 16.53-49.23 24.97-0.45 0.84-0.7 1.7-0.71 2.58 0 0.17 0.03 0.33 0.04 0.49 0 0.08 0.01 0.16 0.02 0.24l0.03 0.24c0.03 0.16 0.04 0.32 0.08 0.48 0.2 0.86 0.64 1.65 1.27 2.36 5.65 7.36 27.45 13.03 53.57 13.32 30.48 0.33 55.27-6.8 55.36-15.93"/></g>
  <g id="change1_11"><path fill="#f36b6b" d="m225.31 325.29c4.3-0.44 7.64-6.34 9.64-15.64 5.87 7.49 11.45 11.34 15.5 9.87 8.58-3.13 7.07-28.88-3.37-57.51-8.95-24.55-21.54-43.22-30.36-46.11-0.88-0.35-1.77-0.51-2.65-0.42-0.16 0.02-0.32 0.06-0.48 0.1-0.07 0.01-0.15 0.03-0.23 0.04l-0.24 0.06c-0.16 0.04-0.31 0.08-0.47 0.13-0.83 0.3-1.56 0.82-2.2 1.53-6.68 6.44-9.86 28.75-7.2 54.73 3.11 30.32 12.98 54.15 22.06 53.22"/></g>
  <g id="change1_12"><path fill="#f36b6b" d="m126.68 286.64c2.78 3.3 9.53 2.73 18.35-0.85-2.89 9.07-2.92 15.85 0.59 18.36 7.41 5.32 27.83-10.44 45.6-35.2 15.23-21.22 23.56-42.16 20.97-51.06-0.21-0.94-0.58-1.75-1.15-2.43-0.11-0.12-0.23-0.23-0.35-0.35-0.05-0.05-0.11-0.11-0.17-0.16-0.06-0.06-0.12-0.11-0.18-0.16-0.12-0.11-0.24-0.22-0.37-0.32-0.72-0.51-1.56-0.83-2.51-0.95-9.08-1.89-29.3 8.06-49.26 24.9-23.29 19.66-37.41 41.24-31.52 48.22"/></g>
  <g id="change1_13"><path fill="#f36b6b" d="m103 183.38c-1.15 4.16 3.12 9.42 11.05 14.68-9.11 2.73-14.73 6.53-14.835 10.84-0.215 9.12 24.315 17.1 54.785 17.82 26.11 0.62 48.1-4.3 54-11.46 0.65-0.7 1.11-1.47 1.35-2.32 0.04-0.16 0.06-0.32 0.09-0.48 0.02-0.08 0.03-0.16 0.04-0.24 0.02-0.08 0.02-0.15 0.03-0.24 0.02-0.16 0.05-0.32 0.05-0.48 0.03-0.88-0.19-1.75-0.62-2.61-3.56-8.57-23.17-19.66-48.34-26.65-29.37-8.16-55.15-7.65-57.6 1.14"/></g>
  <g id="change2_1"><path fill="#f2bc5f" d="m224.66 212.6c0 6.66-5.4 12.06-12.06 12.06s-12.06-5.4-12.06-12.06 5.4-12.06 12.06-12.06 12.06 5.4 12.06 12.06"/></g>
 </g>
</svg>