<?xml version="1.0" encoding="UTF-8" standalone="no"?><svg xmlns="http://www.w3.org/2000/svg" xmlns:xlink="http://www.w3.org/1999/xlink" contentScriptType="text/ecmascript" fill="#000000" width="367.4" zoomAndPan="magnify" contentStyleType="text/css" viewBox="28.2 48.0 367.4 269.3" height="269.3" preserveAspectRatio="xMidYMid meet" version="1"><defs><clipPath id="a"><path d="M 0 0 L 425.199219 0 L 425.199219 365.339844 L 0 365.339844 Z M 0 0"/></clipPath></defs><g><g clip-path="url(#a)"/><g id="change1_1"><path fill="#f9b317" d="M 88.46875 273.296875 C 92.800781 265.480469 91.261719 254.53125 89 246.238281 C 87.089844 246.769531 85.191406 247.324219 83.304688 247.914062 C 82.070312 248.292969 80.742188 248.476562 79.378906 248.476562 C 74.171875 248.476562 68.410156 245.808594 65.082031 241.265625 C 54.203125 226.175781 43.316406 211.085938 32.4375 195.996094 C 28.230469 190.261719 32.078125 184.871094 38.925781 180.023438 C 62.828125 163.109375 99.003906 141.199219 134.65625 123.488281 C 135.855469 127.863281 137.050781 132.238281 138.25 136.613281 C 140.175781 143.457031 146.777344 148.855469 152.992188 149.222656 C 154.964844 149.328125 156.9375 149.476562 158.910156 149.648438 C 158.128906 158.207031 155.730469 169.003906 148.941406 174.808594 C 148.941406 174.808594 175.597656 162.757812 188.089844 153.863281 C 188.785156 153.996094 189.480469 154.128906 190.171875 154.257812 C 192.601562 167.808594 195.027344 181.359375 197.457031 194.90625 C 180.113281 192.730469 162.769531 191.164062 146.679688 190.546875 C 146.519531 190.539062 146.367188 190.539062 146.210938 190.539062 C 138.109375 190.539062 133.113281 199.03125 135.007812 209.0625 C 136.664062 218.171875 138.328125 227.277344 139.988281 236.386719 C 132.585938 237.554688 125.171875 238.691406 117.808594 239.972656 C 109.21875 252.675781 88.46875 273.296875 88.46875 273.296875"/></g><g id="change2_1"><path fill="#ed1063" d="M 277.851562 317.300781 C 277.851562 317.300781 251.195312 305.25 238.699219 296.359375 C 213.960938 301 189.214844 307.390625 164.476562 308.34375 C 164.386719 308.347656 164.300781 308.347656 164.210938 308.347656 C 158.074219 308.347656 151.632812 299.898438 149.734375 289.8125 C 146.484375 272.003906 143.234375 254.195312 139.988281 236.386719 C 157.527344 233.617188 175 230.671875 191.53125 225.207031 C 197.4375 223.265625 200.628906 212.945312 198.851562 202.691406 C 198.386719 200.097656 197.921875 197.5 197.457031 194.90625 C 211.628906 196.683594 225.796875 198.871094 239.28125 201.277344 C 241.757812 210.429688 244.230469 219.582031 246.707031 228.730469 C 249.359375 238.316406 256.132812 246.015625 262.113281 246.015625 C 262.390625 246.015625 262.667969 246 262.945312 245.964844 C 275.296875 244.449219 287.53125 241.566406 299.726562 238.222656 C 296 251.851562 292.269531 265.480469 288.542969 279.109375 C 286.613281 285.949219 280.015625 291.347656 273.800781 291.714844 C 271.828125 291.820312 269.855469 291.96875 267.878906 292.140625 C 268.664062 300.699219 271.058594 311.496094 277.851562 317.300781"/></g><g id="change3_1"><path fill="#ed1e27" d="M 139.988281 236.386719 C 138.328125 227.277344 136.664062 218.171875 135.007812 209.0625 C 133.113281 199.03125 138.109375 190.539062 146.210938 190.539062 C 146.367188 190.539062 146.519531 190.539062 146.679688 190.546875 C 162.769531 191.164062 180.113281 192.730469 197.457031 194.90625 C 197.921875 197.5 198.386719 200.097656 198.851562 202.691406 C 200.628906 212.945312 197.4375 223.265625 191.53125 225.207031 C 175 230.671875 157.527344 233.617188 139.988281 236.386719"/></g><g id="change4_1"><path fill="#55bcea" d="M 228.628906 161.863281 C 215.808594 159.578125 202.992188 156.710938 190.171875 154.257812 C 188.238281 143.472656 186.304688 132.683594 184.371094 121.894531 C 182.917969 113.492188 177.339844 107.777344 171.117188 107.777344 C 169.746094 107.777344 168.347656 108.054688 166.953125 108.636719 C 156.484375 113.015625 145.59375 118.054688 134.65625 123.488281 C 130.945312 109.917969 127.234375 96.347656 123.523438 82.777344 C 121.59375 75.933594 127.082031 72.230469 135.195312 70.089844 C 172.1875 60.324219 231.808594 49.90625 280.113281 48.054688 C 280.269531 48.046875 280.425781 48.042969 280.578125 48.042969 C 288.683594 48.042969 293.679688 56.535156 291.785156 66.570312 C 287.933594 87.695312 284.078125 108.820312 280.226562 129.945312 C 272.902344 129.703125 265.609375 129.574219 258.445312 129.574219 C 250.554688 129.574219 242.816406 129.730469 235.367188 130.066406 C 226.992188 130.4375 222.507812 139.46875 225.285156 149.492188 C 226.398438 153.617188 227.511719 157.738281 228.628906 161.863281"/></g><g id="change5_1"><path fill="#5d8d3e" d="M 148.941406 174.808594 C 155.730469 169.003906 158.128906 158.207031 158.910156 149.648438 C 156.9375 149.476562 154.964844 149.328125 152.992188 149.222656 C 146.777344 148.855469 140.175781 143.457031 138.25 136.613281 C 137.050781 132.238281 135.855469 127.863281 134.65625 123.488281 C 145.59375 118.054688 156.484375 113.015625 166.953125 108.636719 C 168.347656 108.054688 169.746094 107.777344 171.117188 107.777344 C 177.339844 107.777344 182.917969 113.492188 184.371094 121.894531 C 186.304688 132.683594 188.238281 143.472656 190.171875 154.257812 C 189.480469 154.128906 188.785156 153.996094 188.089844 153.863281 C 175.597656 162.757812 148.941406 174.808594 148.941406 174.808594"/></g><g id="change6_1"><path fill="#97c22e" d="M 376.675781 245.421875 C 376.675781 245.421875 349.101562 235.636719 335.910156 227.820312 C 323.839844 231.148438 311.800781 234.910156 299.726562 238.222656 C 300.910156 233.902344 302.089844 229.589844 303.269531 225.269531 C 305.199219 218.425781 299.707031 214.726562 291.597656 212.585938 C 276.988281 208.726562 258.855469 204.769531 239.28125 201.277344 C 235.730469 188.140625 232.179688 175.003906 228.628906 161.863281 C 239.855469 163.863281 251.085938 165.417969 262.316406 165.847656 C 262.402344 165.851562 262.492188 165.855469 262.578125 165.855469 C 268.714844 165.855469 275.15625 157.40625 277.058594 147.320312 C 278.113281 141.527344 279.171875 135.734375 280.226562 129.945312 C 317.179688 131.160156 355.027344 135.230469 381.621094 139.921875 C 389.882812 141.378906 395.664062 144.605469 394.3125 151.589844 C 390.921875 169.882812 387.527344 188.175781 384.136719 206.46875 C 382.785156 213.445312 376.660156 219.378906 370.5 220.261719 C 368.542969 220.53125 366.589844 220.84375 364.636719 221.179688 C 366.132812 229.644531 369.417969 240.203125 376.675781 245.421875"/></g><g id="change7_1"><path fill="#a12930" d="M 262.113281 246.015625 C 256.132812 246.015625 249.359375 238.316406 246.707031 228.730469 C 244.230469 219.582031 241.757812 210.429688 239.28125 201.277344 C 258.855469 204.769531 276.988281 208.726562 291.597656 212.585938 C 299.707031 214.726562 305.199219 218.425781 303.269531 225.269531 C 302.089844 229.589844 300.910156 233.902344 299.726562 238.222656 C 287.53125 241.566406 275.296875 244.449219 262.945312 245.964844 C 262.667969 246 262.390625 246.015625 262.113281 246.015625"/></g><g id="change8_1"><path fill="#37a048" d="M 262.578125 165.855469 C 262.492188 165.855469 262.402344 165.851562 262.316406 165.847656 C 251.085938 165.417969 239.855469 163.863281 228.628906 161.863281 C 227.511719 157.738281 226.398438 153.617188 225.285156 149.492188 C 222.507812 139.46875 226.992188 130.4375 235.367188 130.066406 C 242.816406 129.730469 250.554688 129.574219 258.445312 129.574219 C 265.609375 129.574219 272.902344 129.703125 280.226562 129.945312 C 279.171875 135.734375 278.113281 141.527344 277.058594 147.320312 C 275.15625 157.40625 268.714844 165.855469 262.578125 165.855469"/></g><g id="change9_1"><path fill="#ffffff" d="M 203.609375 133.695312 C 204.214844 134.300781 204.519531 135.007812 204.519531 135.816406 C 204.519531 136.621094 204.214844 137.328125 203.609375 137.933594 C 203.003906 138.539062 202.296875 138.84375 201.492188 138.84375 C 200.683594 138.84375 199.976562 138.539062 199.371094 137.933594 C 198.765625 137.328125 198.464844 136.621094 198.464844 135.816406 C 198.464844 135.007812 198.765625 134.300781 199.371094 133.695312 C 199.976562 133.089844 200.683594 132.789062 201.492188 132.789062 C 202.296875 132.789062 203.003906 133.089844 203.609375 133.695312 Z M 195.234375 83.136719 C 196.644531 79.03125 199.203125 75.71875 202.902344 73.195312 C 206.601562 70.671875 210.574219 69.242188 214.8125 68.90625 C 219.253906 68.570312 223.238281 69.597656 226.769531 71.984375 C 230.304688 74.375 232.539062 78.089844 233.480469 83.136719 C 234.558594 89.527344 232.808594 94.710938 228.234375 98.679688 C 224.53125 101.90625 219.589844 103.824219 213.398438 104.429688 C 213.195312 104.429688 211.144531 104.464844 207.242188 104.53125 C 206.097656 104.597656 205.191406 104.667969 204.519531 104.734375 L 204.113281 104.734375 C 204.046875 105.070312 203.980469 105.507812 203.914062 106.046875 C 203.777344 107.59375 203.710938 109.679688 203.710938 112.300781 C 203.710938 114.253906 203.761719 116.558594 203.863281 119.214844 C 203.964844 121.871094 204.015625 123.269531 204.015625 123.402344 C 204.015625 124.210938 203.710938 124.917969 203.105469 125.523438 C 202.5 126.128906 201.792969 126.429688 200.984375 126.429688 C 200.179688 126.429688 199.472656 126.128906 198.867188 125.523438 C 198.261719 124.917969 197.957031 124.210938 197.957031 123.402344 C 197.957031 123.269531 197.90625 121.871094 197.808594 119.214844 C 197.707031 116.558594 197.65625 114.285156 197.65625 112.402344 C 197.65625 109.441406 197.757812 107.089844 197.957031 105.339844 C 198.09375 104.195312 198.261719 103.253906 198.464844 102.511719 C 198.933594 101.101562 199.675781 100.125 200.683594 99.585938 C 201.421875 99.117188 202.464844 98.8125 203.8125 98.679688 C 204.683594 98.609375 205.796875 98.542969 207.140625 98.476562 L 212.792969 98.375 C 217.703125 97.90625 221.539062 96.492188 224.296875 94.136719 C 227.125 91.648438 228.164062 88.316406 227.425781 84.144531 C 226.886719 80.851562 225.507812 78.429688 223.289062 76.878906 C 221.070312 75.332031 218.378906 74.695312 215.214844 74.960938 C 212.121094 75.164062 209.210938 76.207031 206.484375 78.089844 C 203.761719 79.976562 201.894531 82.328125 200.886719 85.15625 C 200.613281 85.960938 200.109375 86.535156 199.371094 86.871094 C 198.628906 87.207031 197.855469 87.242188 197.050781 86.972656 C 196.242188 86.703125 195.671875 86.199219 195.335938 85.457031 C 194.996094 84.71875 194.964844 83.945312 195.234375 83.136719"/></g><g id="change9_2"><path fill="#ffffff" d="M 115.863281 216.308594 C 116.511719 216.867188 116.867188 217.550781 116.925781 218.355469 C 116.984375 219.160156 116.734375 219.886719 116.175781 220.535156 C 115.613281 221.183594 114.929688 221.535156 114.125 221.597656 C 113.320312 221.65625 112.59375 221.40625 111.945312 220.84375 C 111.296875 220.285156 110.945312 219.605469 110.886719 218.796875 C 110.828125 217.992188 111.078125 217.265625 111.636719 216.617188 C 112.195312 215.96875 112.878906 215.617188 113.683594 215.558594 C 114.488281 215.496094 115.214844 215.75 115.863281 216.308594 Z M 103.816406 166.496094 C 104.925781 162.300781 107.234375 158.808594 110.738281 156.019531 C 114.246094 153.234375 118.101562 151.519531 122.304688 150.875 C 126.707031 150.214844 130.757812 150.945312 134.453125 153.070312 C 138.152344 155.195312 140.652344 158.738281 141.960938 163.699219 C 143.503906 169.996094 142.136719 175.292969 137.863281 179.585938 C 134.410156 183.074219 129.617188 185.347656 123.488281 186.40625 C 123.289062 186.421875 121.242188 186.605469 117.355469 186.953125 C 116.21875 187.105469 115.320312 187.238281 114.652344 187.355469 L 114.25 187.386719 C 114.207031 187.726562 114.171875 188.167969 114.144531 188.710938 C 114.125 190.261719 114.210938 192.347656 114.402344 194.964844 C 114.542969 196.910156 114.761719 199.203125 115.058594 201.847656 C 115.351562 204.492188 115.503906 205.878906 115.515625 206.011719 C 115.574219 206.816406 115.324219 207.546875 114.765625 208.191406 C 114.203125 208.839844 113.519531 209.195312 112.714844 209.253906 C 111.910156 209.3125 111.183594 209.0625 110.535156 208.503906 C 109.886719 207.941406 109.535156 207.261719 109.476562 206.453125 C 109.464844 206.320312 109.3125 204.933594 109.019531 202.289062 C 108.722656 199.648438 108.507812 197.386719 108.371094 195.507812 C 108.152344 192.554688 108.082031 190.199219 108.15625 188.4375 C 108.207031 187.289062 108.304688 186.335938 108.453125 185.585938 C 108.816406 184.140625 109.484375 183.113281 110.453125 182.503906 C 111.15625 181.980469 112.175781 181.601562 113.507812 181.367188 C 114.371094 181.238281 115.476562 181.089844 116.8125 180.921875 L 122.441406 180.410156 C 127.304688 179.582031 131.027344 177.894531 133.605469 175.34375 C 136.242188 172.652344 137.039062 169.257812 135.996094 165.148438 C 135.21875 161.902344 133.667969 159.585938 131.339844 158.203125 C 129.011719 156.824219 126.28125 156.382812 123.148438 156.882812 C 120.074219 157.308594 117.25 158.5625 114.671875 160.640625 C 112.089844 162.71875 110.398438 165.203125 109.601562 168.09375 C 109.390625 168.921875 108.929688 169.527344 108.214844 169.917969 C 107.5 170.308594 106.734375 170.398438 105.910156 170.1875 C 105.082031 169.980469 104.476562 169.515625 104.085938 168.804688 C 103.695312 168.089844 103.605469 167.320312 103.816406 166.496094"/></g><g id="change9_3"><path fill="#ffffff" d="M 213.269531 280.589844 C 213.875 281.195312 214.175781 281.902344 214.175781 282.710938 C 214.175781 283.515625 213.875 284.222656 213.269531 284.828125 C 212.664062 285.433594 211.957031 285.738281 211.148438 285.738281 C 210.34375 285.738281 209.636719 285.433594 209.03125 284.828125 C 208.425781 284.222656 208.121094 283.515625 208.121094 282.710938 C 208.121094 281.902344 208.425781 281.195312 209.03125 280.589844 C 209.636719 279.984375 210.34375 279.683594 211.148438 279.683594 C 211.957031 279.683594 212.664062 279.984375 213.269531 280.589844 Z M 204.890625 230.03125 C 206.304688 225.925781 208.859375 222.613281 212.5625 220.089844 C 216.261719 217.566406 220.230469 216.136719 224.46875 215.800781 C 228.910156 215.464844 232.898438 216.492188 236.429688 218.878906 C 239.960938 221.265625 242.195312 224.984375 243.140625 230.03125 C 244.214844 236.421875 242.46875 241.601562 237.894531 245.570312 C 234.191406 248.800781 229.246094 250.71875 223.058594 251.324219 C 222.855469 251.324219 220.804688 251.359375 216.902344 251.425781 C 215.757812 251.492188 214.847656 251.558594 214.175781 251.628906 L 213.773438 251.628906 C 213.703125 251.964844 213.636719 252.398438 213.570312 252.9375 C 213.4375 254.488281 213.371094 256.570312 213.371094 259.195312 C 213.371094 261.148438 213.421875 263.449219 213.519531 266.109375 C 213.621094 268.765625 213.671875 270.160156 213.671875 270.296875 C 213.671875 271.105469 213.371094 271.808594 212.765625 272.417969 C 212.15625 273.019531 211.453125 273.324219 210.644531 273.324219 C 209.835938 273.324219 209.132812 273.019531 208.523438 272.417969 C 207.921875 271.808594 207.617188 271.105469 207.617188 270.296875 C 207.617188 270.160156 207.566406 268.765625 207.464844 266.109375 C 207.363281 263.449219 207.3125 261.179688 207.3125 259.296875 C 207.3125 256.335938 207.414062 253.980469 207.617188 252.230469 C 207.75 251.089844 207.921875 250.148438 208.121094 249.40625 C 208.59375 247.992188 209.332031 247.019531 210.34375 246.480469 C 211.082031 246.011719 212.125 245.707031 213.46875 245.570312 C 214.34375 245.503906 215.453125 245.4375 216.800781 245.367188 L 222.453125 245.269531 C 227.363281 244.796875 231.195312 243.386719 233.957031 241.03125 C 236.78125 238.542969 237.824219 235.210938 237.085938 231.039062 C 236.546875 227.742188 235.167969 225.320312 232.949219 223.773438 C 230.726562 222.226562 228.035156 221.585938 224.875 221.855469 C 221.777344 222.058594 218.871094 223.101562 216.144531 224.984375 C 213.421875 226.867188 211.554688 229.222656 210.542969 232.046875 C 210.273438 232.855469 209.769531 233.429688 209.03125 233.765625 C 208.289062 234.101562 207.515625 234.132812 206.710938 233.863281 C 205.902344 233.597656 205.328125 233.09375 204.992188 232.351562 C 204.65625 231.609375 204.621094 230.835938 204.890625 230.03125"/></g><g id="change9_4"><path fill="#ffffff" d="M 305.699219 214.851562 C 306.304688 215.457031 306.605469 216.164062 306.605469 216.972656 C 306.605469 217.777344 306.304688 218.484375 305.699219 219.089844 C 305.09375 219.695312 304.386719 220 303.578125 220 C 302.769531 220 302.066406 219.695312 301.460938 219.089844 C 300.855469 218.484375 300.550781 217.777344 300.550781 216.972656 C 300.550781 216.164062 300.855469 215.457031 301.460938 214.851562 C 302.066406 214.246094 302.769531 213.945312 303.578125 213.945312 C 304.386719 213.945312 305.09375 214.246094 305.699219 214.851562 Z M 297.320312 164.292969 C 298.734375 160.191406 301.289062 156.875 304.992188 154.351562 C 308.691406 151.828125 312.660156 150.398438 316.898438 150.0625 C 321.339844 149.726562 325.328125 150.753906 328.859375 153.140625 C 332.390625 155.53125 334.628906 159.246094 335.570312 164.292969 C 336.644531 170.683594 334.894531 175.863281 330.320312 179.835938 C 326.621094 183.0625 321.675781 184.980469 315.488281 185.585938 C 315.285156 185.585938 313.230469 185.621094 309.332031 185.6875 C 308.1875 185.753906 307.277344 185.824219 306.605469 185.890625 L 306.203125 185.890625 C 306.136719 186.226562 306.066406 186.664062 306 187.199219 C 305.863281 188.75 305.800781 190.835938 305.800781 193.457031 C 305.800781 195.410156 305.851562 197.714844 305.949219 200.371094 C 306.050781 203.027344 306.101562 204.425781 306.101562 204.558594 C 306.101562 205.367188 305.800781 206.074219 305.191406 206.679688 C 304.589844 207.285156 303.882812 207.585938 303.074219 207.585938 C 302.265625 207.585938 301.5625 207.285156 300.953125 206.679688 C 300.351562 206.074219 300.046875 205.367188 300.046875 204.558594 C 300.046875 204.425781 299.996094 203.027344 299.894531 200.371094 C 299.792969 197.714844 299.742188 195.441406 299.742188 193.558594 C 299.742188 190.597656 299.84375 188.246094 300.046875 186.496094 C 300.179688 185.351562 300.351562 184.410156 300.550781 183.667969 C 301.019531 182.257812 301.761719 181.28125 302.769531 180.742188 C 303.511719 180.273438 304.554688 179.96875 305.898438 179.835938 C 306.773438 179.769531 307.882812 179.699219 309.230469 179.632812 L 314.882812 179.53125 C 319.792969 179.0625 323.628906 177.648438 326.386719 175.292969 C 329.210938 172.804688 330.253906 169.472656 329.515625 165.300781 C 328.976562 162.007812 327.597656 159.585938 325.378906 158.035156 C 323.15625 156.488281 320.464844 155.851562 317.304688 156.117188 C 314.207031 156.320312 311.300781 157.363281 308.574219 159.246094 C 305.851562 161.132812 303.980469 163.484375 302.972656 166.3125 C 302.703125 167.117188 302.199219 167.691406 301.460938 168.027344 C 300.71875 168.363281 299.945312 168.398438 299.140625 168.128906 C 298.332031 167.859375 297.757812 167.355469 297.421875 166.613281 C 297.085938 165.875 297.050781 165.101562 297.320312 164.292969"/></g></g></svg>