<?xml version="1.0" encoding="UTF-8" standalone="no"?><svg xmlns="http://www.w3.org/2000/svg" xmlns:xlink="http://www.w3.org/1999/xlink" contentScriptType="text/ecmascript" fill="#000000" width="435.7" zoomAndPan="magnify" contentStyleType="text/css" viewBox="0.0 0.0 435.7 527.4" height="527.4" preserveAspectRatio="xMidYMid meet" version="1"><defs><clipPath id="a"><path d="M 155 459 L 275 459 L 275 527.359375 L 155 527.359375 Z M 155 459"/></clipPath><clipPath id="b"><path d="M 230 505 L 263 505 L 263 527.359375 L 230 527.359375 Z M 230 505"/></clipPath><clipPath id="c"><path d="M 169 515 L 187 515 L 187 527.359375 L 169 527.359375 Z M 169 515"/></clipPath><clipPath id="d"><path d="M 160 525 L 163 525 L 163 527.359375 L 160 527.359375 Z M 160 525"/></clipPath><clipPath id="e"><path d="M 175 518 L 193 518 L 193 527.359375 L 175 527.359375 Z M 175 518"/></clipPath><clipPath id="f"><path d="M 115 496 L 139 496 L 139 527.359375 L 115 527.359375 Z M 115 496"/></clipPath><clipPath id="g"><path d="M 26 470 L 137 470 L 137 527.359375 L 26 527.359375 Z M 26 470"/></clipPath><clipPath id="h"><path d="M 114 496 L 137 496 L 137 527.359375 L 114 527.359375 Z M 114 496"/></clipPath><clipPath id="i"><path d="M 26 487 L 49 487 L 49 527.359375 L 26 527.359375 Z M 26 487"/></clipPath><clipPath id="j"><path d="M 297 437 L 380 437 L 380 527.359375 L 297 527.359375 Z M 297 437"/></clipPath><clipPath id="k"><path d="M 307 514 L 380 514 L 380 527.359375 L 307 527.359375 Z M 307 514"/></clipPath><clipPath id="l"><path d="M 366 483 L 380 483 L 380 527.359375 L 366 527.359375 Z M 366 483"/></clipPath><clipPath id="m"><path d="M 367 484 L 399 484 L 399 527.359375 L 367 527.359375 Z M 367 484"/></clipPath><clipPath id="n"><path d="M 379 513 L 393 513 L 393 527.359375 L 379 527.359375 Z M 379 513"/></clipPath><clipPath id="o"><path d="M 0 0 L 435.738281 0 L 435.738281 384 L 0 384 Z M 0 0"/></clipPath></defs><g><g><path fill="#e5c8cb" d="M 296.789062 441.316406 C 296.695312 440.996094 296.601562 440.675781 296.507812 440.359375 C 296.507812 441.011719 296.511719 441.234375 296.789062 441.316406"/></g><g><path fill="#654e2d" d="M 276.945312 421.148438 C 277.214844 420.867188 282.152344 435.878906 276.878906 454.132812 C 271.359375 473.054688 254.613281 479.203125 254.8125 477.847656 C 254.3125 477.53125 269.035156 470.847656 274.101562 453.25 C 279.117188 436.152344 275.675781 421.171875 276.945312 421.148438"/></g><g><path fill="#d7a87d" d="M 192.285156 475.515625 C 192.285156 475.515625 207.820312 513.960938 221.414062 515.902344 C 235.007812 517.84375 238.5 470.464844 238.5 470.464844 L 192.285156 475.515625"/></g><g clip-path="url(#a)"><path fill="#5a99d8" d="M 257.140625 508.136719 C 256.753906 503.472656 255.976562 496.097656 255.976562 496.097656 C 260.246094 495.707031 268.789062 485.613281 268.789062 485.613281 C 268.789062 485.613281 270.34375 486.777344 273.449219 484.449219 C 276.554688 482.117188 271.121094 459.980469 267.238281 459.59375 C 263.355469 459.203125 260.636719 464.253906 260.636719 464.253906 C 257.917969 462.699219 248.984375 466.195312 248.984375 466.195312 L 221.800781 506.582031 L 185.6875 491.824219 C 174.8125 493.378906 169.375 512.410156 165.492188 511.632812 C 161.609375 510.851562 160.832031 515.515625 160.832031 515.515625 C 160.832031 515.515625 153.066406 515.902344 155.78125 521.339844 C 156.894531 523.566406 160.027344 525.660156 163.339844 527.359375 L 262.074219 527.359375 C 260.519531 522.1875 257.429688 511.605469 257.140625 508.136719"/></g><g clip-path="url(#b)"><path fill="#4281c9" d="M 257.140625 508.136719 C 257.070312 507.308594 256.992188 506.394531 256.902344 505.453125 C 250.558594 515.027344 241.03125 522.21875 230.363281 527.359375 L 262.074219 527.359375 C 260.519531 522.1875 257.429688 511.605469 257.140625 508.136719"/></g><g clip-path="url(#c)"><path fill="#4281c9" d="M 183.25 515.207031 C 182.703125 518.308594 181.546875 521.207031 179.085938 523.667969 C 177.527344 525.222656 175.976562 522.113281 174.421875 522.113281 C 174.421875 523.667969 174.421875 525.222656 174.421875 525.222656 C 172.871094 526.777344 171.316406 523.667969 169.761719 523.667969 C 169.761719 524.898438 169.746094 526.128906 169.648438 527.359375 L 186.386719 527.359375 C 184.628906 523.609375 183.554688 519.414062 183.25 515.207031"/></g><g><path fill="#4281c9" d="M 165.125 520.011719 C 165.1875 517.675781 165.457031 515.550781 166.65625 514.347656 C 167.78125 513.222656 168.910156 514.546875 170.035156 515.359375 C 172.761719 509.941406 175.878906 504.011719 176.441406 497.871094 C 171.34375 503.910156 168.074219 512.144531 165.492188 511.632812 C 161.609375 510.851562 160.832031 515.515625 160.832031 515.515625 C 160.832031 515.515625 153.066406 515.902344 155.78125 521.339844 C 156.152344 522.082031 156.761719 522.808594 157.515625 523.511719 C 158.234375 521.960938 157.796875 520.101562 158.890625 519.007812 C 160.746094 519.007812 163.152344 519.019531 165.125 520.011719"/></g><g><path fill="#4281c9" d="M 230.34375 509.6875 C 248.496094 503.640625 258.160156 483.453125 254.199219 464.539062 C 251.460938 465.230469 248.984375 466.195312 248.984375 466.195312 L 221.800781 506.582031 L 185.6875 491.824219 C 182.445312 492.289062 179.6875 494.308594 177.3125 496.894531 C 178.667969 496.960938 179.953125 497.261719 180.636719 497.261719 C 196.171875 506.582031 213.257812 515.902344 230.34375 509.6875"/></g><g><path fill="#f2f3f5" d="M 218.695312 507.621094 C 218.695312 507.621094 215.332031 495.191406 209.890625 492.085938 C 204.453125 488.980469 190.476562 480.4375 185.042969 474.742188 C 179.601562 469.046875 177.269531 479.402344 181.414062 482.507812 C 181.414062 482.507812 177.011719 485.613281 178.828125 490.273438 C 180.636719 494.933594 188.402344 496.230469 198.242188 499.335938 C 208.082031 502.441406 218.695312 507.621094 218.695312 507.621094"/></g><g><path fill="#f2f3f5" d="M 228.792969 481.988281 C 228.792969 481.988281 221.28125 497.003906 224.90625 506.839844 C 224.90625 506.839844 230.085938 502.441406 236.300781 495.96875 C 242.515625 489.5 248.984375 483.542969 248.726562 473.445312 L 228.792969 481.988281"/></g><g><path fill="#e4e6e9" d="M 209.890625 492.085938 C 204.453125 488.980469 190.476562 480.4375 185.042969 474.742188 C 182.058594 471.617188 180.011719 473.324219 179.453125 476.015625 C 186.4375 487.425781 198.988281 492.929688 212.179688 494.046875 C 211.464844 493.238281 210.707031 492.550781 209.890625 492.085938"/></g><g><path fill="#e4e6e9" d="M 246.128906 474.558594 L 228.792969 481.988281 C 228.792969 481.988281 226.105469 487.390625 224.726562 493.832031 C 227.15625 493.550781 229.558594 493.144531 231.898438 492.601562 C 240.085938 490.785156 243.476562 483.105469 246.128906 474.558594"/></g><g><path fill="#b2b7be" d="M 206.980469 495.582031 C 206.980469 496.792969 205.992188 497.78125 204.777344 497.78125 C 203.5625 497.78125 202.578125 496.792969 202.578125 495.582031 C 202.578125 494.363281 203.5625 493.378906 204.777344 493.378906 C 205.992188 493.378906 206.980469 494.363281 206.980469 495.582031"/></g><g><path fill="#b2b7be" d="M 234.261719 494.707031 C 234.261719 495.921875 233.277344 496.90625 232.0625 496.90625 C 230.847656 496.90625 229.859375 495.921875 229.859375 494.707031 C 229.859375 493.492188 230.847656 492.503906 232.0625 492.503906 C 233.277344 492.503906 234.261719 493.492188 234.261719 494.707031"/></g><g clip-path="url(#d)"><path fill="#654e2d" d="M 162.773438 526.96875 C 162.140625 526.679688 161.09375 526.203125 160.636719 525.757812 C 160.527344 526.285156 160.394531 526.816406 160.304688 527.359375 L 162.730469 527.359375 C 162.746094 527.230469 162.757812 527.109375 162.773438 526.96875"/></g><g clip-path="url(#e)"><path fill="#654e2d" d="M 192.285156 518.492188 C 191.839844 517.789062 184.9375 522.574219 175.34375 527.359375 L 181.117188 527.359375 C 188.3125 522.976562 192.570312 518.875 192.285156 518.492188"/></g><g><path fill="#f4ca9d" d="M 257.261719 443.328125 C 260.1875 466.261719 243.980469 487.226562 221.03125 490.15625 C 198.113281 493.082031 177.15625 476.867188 174.21875 453.941406 C 171.292969 431.015625 187.507812 410.046875 210.429688 407.109375 C 233.363281 404.183594 254.332031 420.394531 257.261719 443.328125"/></g><g><path fill="#231f20" d="M 242.773438 440.402344 C 242.269531 440.902344 240.355469 438.472656 237.5 438.402344 C 234.609375 438.519531 232.472656 440.757812 232.097656 440.3125 C 231.703125 440.195312 233.195312 436.882812 237.453125 436.511719 C 241.839844 436.820312 243.097656 440.417969 242.773438 440.402344"/></g><g><path fill="#231f20" d="M 199.9375 440.257812 C 199.460938 440.757812 197.527344 438.324219 194.671875 438.257812 C 191.789062 438.386719 189.640625 440.621094 189.261719 440.171875 C 188.867188 440.058594 190.371094 436.746094 194.625 436.375 C 199.019531 436.683594 200.265625 440.277344 199.9375 440.257812"/></g><g><path fill="#cb9d72" d="M 218.035156 465.78125 C 218.125 465.890625 216.515625 466.40625 214.894531 465.347656 C 213.378906 464.300781 212.804688 462.886719 212.960938 462.832031 C 213.117188 462.734375 213.886719 463.914062 215.238281 464.824219 C 216.605469 465.746094 218.015625 465.558594 218.035156 465.78125"/></g><g><path fill="#f3a4a1" d="M 197.371094 462.546875 C 197.296875 464.398438 194.421875 465.785156 190.914062 465.664062 C 187.410156 465.53125 184.648438 463.929688 184.710938 462.085938 C 184.777344 460.234375 187.671875 458.847656 191.15625 458.96875 C 194.65625 459.101562 197.445312 460.707031 197.371094 462.546875"/></g><g><path fill="#f3a4a1" d="M 247.808594 462.253906 C 247.8125 464.109375 244.988281 465.613281 241.488281 465.617188 C 237.988281 465.628906 235.144531 464.144531 235.136719 462.292969 C 235.128906 460.449219 237.96875 458.9375 241.460938 458.925781 C 244.96875 458.917969 247.804688 460.40625 247.808594 462.253906"/></g><g><path fill="#ffffff" d="M 205.730469 471.5 L 229.285156 471.921875 C 229.285156 471.921875 227.027344 482.242188 215.433594 480.992188 C 207.402344 480.136719 205.730469 471.5 205.730469 471.5"/></g><g><path fill="#231f20" d="M 198.125 450.90625 C 198.25 452.902344 196.753906 454.617188 194.761719 454.75 C 192.78125 454.878906 191.054688 453.367188 190.925781 451.378906 C 190.796875 449.402344 192.296875 447.683594 194.289062 447.554688 C 196.269531 447.429688 197.984375 448.925781 198.125 450.90625"/></g><g><path fill="#231f20" d="M 241.148438 451.121094 C 241.28125 453.109375 239.785156 454.832031 237.796875 454.964844 C 235.8125 455.089844 234.097656 453.585938 233.96875 451.597656 C 233.832031 449.609375 235.332031 447.90625 237.320312 447.765625 C 239.316406 447.632812 241.023438 449.136719 241.148438 451.121094"/></g><g><path fill="#744333" d="M 191.683594 422.554688 C 191.683594 422.554688 195.703125 431.226562 219.453125 430.675781 C 250.757812 429.933594 254.664062 445.503906 254.664062 445.503906 C 254.664062 445.503906 259.152344 452.71875 253.71875 466.539062 C 253.71875 466.539062 267.753906 450.015625 264.535156 430.230469 C 261.328125 410.558594 247.625 404.730469 247.625 404.730469 L 254.21875 405.492188 C 254.21875 405.492188 220.882812 379.480469 195.230469 401.320312 C 195.230469 401.320312 192.636719 398.722656 198.144531 394.332031 C 198.144531 394.332031 189.035156 397.8125 188.800781 403.84375 C 188.800781 403.84375 179.648438 401.316406 178.121094 408.769531 C 178.121094 408.769531 184.941406 405.753906 184.4375 409.261719 C 184.4375 409.261719 151.058594 424.53125 178.148438 466.992188 C 178.148438 466.992188 165.207031 432.488281 191.683594 422.554688"/></g><g><path fill="#948269" d="M 224.363281 429.363281 C 224.46875 428.710938 215.75 429.898438 206.914062 424.878906 C 198.007812 419.972656 194.316406 412.050781 194.011719 412.347656 C 193.613281 412.304688 196.90625 420.875 206.257812 426.058594 C 215.601562 431.324219 224.582031 429.441406 224.363281 429.363281"/></g><g><path fill="#948269" d="M 191.605469 420.738281 C 192.015625 420.5625 190.984375 417.597656 191.519531 413.820312 C 192.007812 410.058594 193.296875 407.148438 192.953125 406.972656 C 192.660156 406.773438 190.710938 409.558594 190.171875 413.644531 C 189.582031 417.800781 191.355469 420.933594 191.605469 420.738281"/></g><g><path fill="#948269" d="M 172.871094 430.371094 C 173.386719 430.539062 174.554688 425.761719 177.992188 421.097656 C 181.382812 416.300781 185.980469 414.5 185.863281 414.214844 C 185.847656 413.746094 180.554688 415.128906 176.90625 420.277344 C 173.242188 425.289062 172.660156 430.390625 172.871094 430.371094"/></g><g><path fill="#948269" d="M 253.992188 442.550781 C 253.898438 442.671875 255.117188 438.222656 251.867188 432.21875 C 248.746094 426.066406 240.027344 421.253906 230.230469 419.378906 C 220.457031 417.105469 210.894531 418.832031 205.75 414.570312 C 200.5625 410.664062 200.671875 405.839844 200.398438 406.070312 C 200.320312 405.824219 199.753906 410.890625 205.183594 415.339844 C 210.730469 420.117188 220.554688 418.445312 229.960938 420.707031 C 239.582031 422.566406 247.902344 427.039062 251.046875 432.710938 C 254.335938 438.242188 253.542969 442.660156 253.992188 442.550781"/></g><g><path fill="#948269" d="M 245.753906 403.441406 C 245.992188 403.480469 236.667969 396.246094 222.792969 395.976562 C 208.972656 395.515625 199.070312 401.765625 199.417969 401.980469 C 199.480469 402.382812 209.382812 396.867188 222.757812 397.332031 C 236.164062 397.558594 245.539062 404.082031 245.753906 403.441406"/></g><g><path fill="#948269" d="M 257.90625 453.199219 C 257.910156 453.273438 260.773438 448.824219 261.203125 440.601562 C 261.9375 432.457031 257.414062 420.765625 247.496094 413.074219 C 227 396.632812 204.179688 404.421875 205.210938 404.261719 C 204.441406 405.089844 226.90625 398.175781 246.628906 414.105469 C 256.277344 421.632812 260.683594 432.65625 260.242188 440.585938 C 260.089844 448.550781 257.574219 453.117188 257.90625 453.199219"/></g><g><path fill="#e4e6e9" d="M 204.976562 523.933594 C 204.511719 523.785156 205.503906 517.566406 204.878906 509.722656 C 204.421875 501.898438 203.53125 495.558594 204.066406 495.449219 C 204.582031 495.335938 206.347656 501.609375 206.816406 509.613281 C 207.460938 517.652344 205.542969 524.136719 204.976562 523.933594"/></g><g><path fill="#e4e6e9" d="M 236.171875 522.113281 C 235.46875 522.410156 233.34375 516.195312 232.535156 508.425781 C 231.617188 500.664062 231.628906 494.324219 232.15625 494.285156 C 232.695312 494.246094 233.550781 500.5 234.46875 508.195312 C 235.28125 515.9375 236.460938 521.957031 236.171875 522.113281"/></g><g><path fill="#ccced4" d="M 201.15625 494.671875 C 201.113281 494.847656 195.953125 493.46875 190.320312 490.140625 C 184.621094 486.878906 181.140625 482.695312 181.414062 482.507812 C 181.570312 482.371094 185.234375 486.109375 190.816406 489.308594 C 196.335938 492.566406 201.277344 494.335938 201.15625 494.671875"/></g><g><path fill="#98c8ec" d="M 171.996094 525.804688 C 171.84375 526.007812 168.988281 524.09375 165.894531 521.21875 C 162.785156 518.367188 160.632812 515.691406 160.832031 515.515625 C 161.03125 515.332031 163.472656 517.683594 166.554688 520.507812 C 169.613281 523.351562 172.167969 525.578125 171.996094 525.804688"/></g><g><path fill="#98c8ec" d="M 175.296875 524.542969 C 175 524.640625 173.714844 521.222656 170.882812 517.742188 C 168.097656 514.242188 165.320312 511.847656 165.492188 511.632812 C 165.636719 511.414062 168.765625 513.527344 171.644531 517.140625 C 174.578125 520.746094 175.523438 524.519531 175.296875 524.542969"/></g><g><path fill="#98c8ec" d="M 262.675781 483.863281 C 262.609375 483.960938 259.78125 480.066406 258.894531 474.308594 C 257.894531 468.472656 260.363281 463.992188 260.636719 464.253906 C 260.8125 464.3125 258.902344 468.621094 259.855469 474.171875 C 260.691406 479.660156 263.058594 483.683594 262.675781 483.863281"/></g><g><path fill="#98c8ec" d="M 264.226562 472.3125 C 264.382812 472.128906 266.730469 474.601562 267.886719 478.488281 C 269.078125 482.328125 269.054688 485.609375 268.789062 485.613281 C 268.519531 485.632812 268.113281 482.476562 266.964844 478.78125 C 265.851562 475.054688 263.988281 472.511719 264.226562 472.3125"/></g><g><path fill="#f4ca9d" d="M 279.070312 411.703125 C 280.683594 415.839844 279.585938 420.128906 276.625 421.28125 C 273.660156 422.433594 269.953125 420.019531 268.34375 415.878906 C 266.734375 411.746094 267.828125 407.457031 270.796875 406.304688 C 273.757812 405.152344 277.464844 407.566406 279.070312 411.703125"/></g><g><path fill="#f4ca9d" d="M 201.707031 516.171875 C 198.820312 519.546875 194.523438 520.601562 192.105469 518.53125 C 189.691406 516.460938 190.074219 512.054688 192.960938 508.683594 C 195.847656 505.316406 200.148438 504.257812 202.5625 506.328125 C 204.976562 508.398438 204.59375 512.804688 201.707031 516.171875"/></g><g><path fill="#654e2d" d="M 19.457031 414.933594 C 20.800781 414.890625 16.828125 434.683594 22.96875 457.480469 C 26.152344 468.785156 32.890625 477.453125 39.304688 481.570312 C 45.664062 485.855469 50.621094 486.480469 50.523438 486.90625 C 50.570312 487.273438 45.269531 487.398438 38.203125 483.3125 C 31.082031 479.425781 23.480469 470.164062 20.175781 458.316406 C 13.800781 434.402344 19.25 414.679688 19.457031 414.933594"/></g><g clip-path="url(#f)"><path fill="#654e2d" d="M 136.539062 521.386719 C 127.1875 505.230469 115.5625 495.890625 115.246094 496.230469 C 114.355469 496.902344 125.132812 507.425781 133.929688 522.683594 C 135.230469 524.59375 135.761719 526.125 135.75 527.359375 L 138.472656 527.359375 C 138.289062 525.136719 137.453125 523.207031 136.539062 521.386719"/></g><g clip-path="url(#g)"><path fill="#f0aa35" d="M 119.648438 520.175781 C 119.648438 520.175781 125.472656 522.113281 130.132812 518.621094 C 134.792969 515.125 136.347656 510.074219 133.238281 508.136719 C 133.238281 508.136719 138.675781 501.921875 135.570312 499.203125 C 132.464844 496.484375 127.414062 496.875 124.308594 493.765625 C 121.203125 490.660156 113.4375 485.613281 112.65625 490.660156 L 90.910156 483.28125 L 64.503906 486.777344 C 64.503906 486.777344 42.367188 467.75 36.929688 471.246094 C 31.496094 474.738281 33.824219 478.621094 33.824219 478.621094 L 26.1875 492.605469 L 32.269531 496.875 C 32.269531 496.875 28.390625 508.914062 34.601562 510.46875 C 40.816406 512.019531 45.089844 511.246094 45.089844 511.246094 L 42.652344 527.359375 L 123.242188 527.359375 L 119.648438 520.175781"/></g><g><path fill="#e99734" d="M 119.953125 490.390625 C 120.371094 490.679688 120.800781 490.960938 121.246094 491.234375 C 120.824219 490.9375 120.390625 490.65625 119.953125 490.390625"/></g><g clip-path="url(#h)"><path fill="#e99734" d="M 119.648438 520.175781 C 119.648438 520.175781 125.472656 522.113281 130.132812 518.621094 C 134.792969 515.125 136.347656 510.074219 133.238281 508.136719 C 133.238281 508.136719 138.675781 501.921875 135.570312 499.203125 C 133.761719 497.621094 131.296875 497.085938 128.941406 496.308594 C 130.90625 498.503906 131.363281 501.507812 128.191406 506.582031 C 127.128906 507.644531 125.347656 507.230469 123.828125 505.886719 C 123.78125 510.300781 120.144531 512.773438 116.328125 514.152344 C 116.179688 518.574219 115.035156 523.0625 114.382812 527.359375 L 123.242188 527.359375 L 119.648438 520.175781"/></g><g clip-path="url(#i)"><path fill="#e99734" d="M 47.535156 507.890625 C 41.851562 508.855469 37.148438 506.871094 33.4375 501.921875 C 32.21875 499.492188 32.914062 496.105469 34.015625 492.515625 C 31.394531 492.109375 29.878906 490.097656 28.734375 487.9375 L 26.1875 492.605469 L 32.269531 496.875 C 32.269531 496.875 28.390625 508.914062 34.601562 510.46875 C 40.816406 512.019531 45.089844 511.246094 45.089844 511.246094 L 42.652344 527.359375 L 48.53125 527.359375 C 48.695312 521.054688 47.855469 514.605469 47.535156 507.890625"/></g><g><path fill="#ffffff" d="M 61.980469 487.941406 C 61.980469 487.941406 64.308594 508.71875 76.734375 501.535156 C 76.734375 501.535156 88.191406 509.6875 92.851562 487.75 L 61.980469 487.941406"/></g><g><path fill="#ae755e" d="M 65.863281 488.136719 C 65.863281 488.136719 68.195312 502.3125 78.09375 500.953125 C 87.996094 499.59375 88.777344 486.972656 88.191406 486.972656 C 87.609375 486.972656 65.863281 488.136719 65.863281 488.136719"/></g><g><path fill="#3d1a2a" d="M 121.652344 450.855469 C 121.652344 450.855469 124.808594 445.5 126.574219 446.347656 C 128.332031 447.195312 128.765625 449.230469 128.765625 449.230469 C 128.765625 449.230469 133.277344 446.644531 133.546875 450.996094 C 133.546875 450.996094 142.324219 453.148438 137.085938 458.523438 C 137.085938 458.523438 141.953125 464.855469 135.367188 465.585938 C 135.367188 465.585938 135.984375 467.386719 132.257812 467.597656 C 132.257812 467.597656 132.828125 472.746094 130.925781 472.539062 C 129.027344 472.324219 127.980469 470.363281 127.980469 470.363281 C 127.980469 470.363281 127.492188 473.539062 124.910156 472.785156 C 122.328125 472.023438 122.074219 469.765625 122.074219 469.765625 C 122.074219 469.765625 117.730469 470.03125 117.320312 466.332031 C 116.90625 462.621094 121.652344 450.855469 121.652344 450.855469"/></g><g><path fill="#3d1a2a" d="M 32.410156 457.214844 C 32.410156 457.214844 28.195312 451.664062 26.34375 452.839844 C 24.488281 454.011719 24.269531 456.339844 24.269531 456.339844 C 24.269531 456.339844 18.90625 454.054688 19.167969 458.929688 C 19.167969 458.929688 9.667969 462.480469 16.203125 467.777344 C 16.203125 467.777344 11.601562 475.484375 19.042969 475.433594 C 19.042969 475.433594 18.589844 477.527344 22.773438 477.269531 C 22.773438 477.269531 22.808594 483.078125 24.898438 482.601562 C 26.984375 482.125 27.90625 479.796875 27.90625 479.796875 C 27.90625 479.796875 28.859375 483.273438 31.632812 482.097656 C 34.414062 480.914062 34.40625 478.359375 34.40625 478.359375 C 34.40625 478.359375 39.28125 478.09375 39.253906 473.914062 C 39.230469 469.730469 32.410156 457.214844 32.410156 457.214844"/></g><g><path fill="#3d1a2a" d="M 127.445312 451.058594 C 127.746094 449.378906 127.183594 447.773438 126.105469 446.636719 C 127.929688 446.09375 129.394531 444.585938 129.734375 442.589844 C 130.164062 440.167969 128.824219 437.859375 126.648438 436.957031 C 127.558594 436.195312 128.230469 435.148438 128.4375 433.902344 C 128.886719 431.382812 127.421875 428.980469 125.085938 428.15625 C 126.171875 427.394531 126.96875 426.222656 127.21875 424.816406 C 127.707031 422.007812 125.832031 419.335938 123.023438 418.84375 C 122.535156 418.757812 122.0625 418.769531 121.597656 418.8125 C 121.804688 418.394531 121.972656 417.949219 122.058594 417.464844 C 122.550781 414.664062 120.679688 411.980469 117.863281 411.488281 C 117.265625 411.386719 116.6875 411.410156 116.121094 411.503906 C 116.265625 411.160156 116.375 410.8125 116.4375 410.429688 C 116.9375 407.625 115.0625 404.953125 112.246094 404.457031 C 111.488281 404.328125 110.742188 404.375 110.046875 404.554688 C 109.511719 402.753906 108.011719 401.292969 106.011719 400.941406 C 104.1875 400.621094 102.425781 401.308594 101.289062 402.597656 C 101.285156 402.574219 101.300781 402.554688 101.296875 402.535156 C 101.796875 399.726562 99.917969 397.050781 97.113281 396.558594 C 95.242188 396.226562 93.457031 396.964844 92.308594 398.308594 C 92.445312 395.734375 90.671875 393.414062 88.066406 392.957031 C 86.160156 392.621094 84.339844 393.390625 83.203125 394.785156 C 82.515625 393.296875 81.140625 392.144531 79.394531 391.839844 C 77.351562 391.480469 75.390625 392.386719 74.277344 393.980469 C 73.664062 392.3125 72.21875 390.984375 70.335938 390.652344 C 68.34375 390.300781 66.433594 391.15625 65.3125 392.675781 C 64.722656 392.261719 64.035156 391.964844 63.273438 391.828125 C 60.464844 391.332031 57.792969 393.214844 57.300781 396.019531 C 57.292969 396.054688 57.300781 396.070312 57.292969 396.101562 C 55.902344 396.074219 54.597656 396.597656 53.640625 397.519531 C 53.03125 397.082031 52.328125 396.761719 51.546875 396.621094 C 48.824219 396.148438 46.246094 397.902344 45.644531 400.566406 C 43.417969 400.695312 41.503906 402.242188 40.949219 404.449219 C 40.378906 404.082031 39.730469 403.8125 39.027344 403.695312 C 36.214844 403.203125 33.539062 405.082031 33.042969 407.886719 C 32.777344 409.425781 33.238281 410.90625 34.140625 412.019531 C 32.46875 412.632812 31.15625 414.082031 30.820312 415.960938 C 30.566406 417.398438 30.957031 418.804688 31.757812 419.902344 C 29.410156 420.035156 27.390625 421.742188 26.96875 424.144531 C 26.695312 425.699219 27.15625 427.183594 28.085938 428.308594 C 26.003906 428.675781 24.285156 430.285156 23.894531 432.476562 C 23.585938 434.246094 24.207031 435.957031 25.40625 437.101562 C 24.339844 437.863281 23.546875 439.039062 23.300781 440.4375 C 23.007812 442.109375 23.570312 443.726562 24.664062 444.867188 C 23.46875 445.625 22.578125 446.835938 22.324219 448.324219 C 21.890625 450.820312 23.308594 453.199219 25.609375 454.042969 C 25.082031 454.703125 24.695312 455.484375 24.53125 456.371094 C 24.039062 459.179688 25.917969 461.859375 28.726562 462.34375 C 28.371094 462.902344 28.113281 463.539062 27.996094 464.234375 C 27.5 467.042969 29.382812 469.71875 32.1875 470.207031 C 31.683594 473.019531 33.5625 475.6875 36.378906 476.183594 C 36.855469 476.273438 37.328125 476.261719 37.789062 476.210938 C 38.011719 478.460938 39.675781 480.386719 42.011719 480.796875 C 43.09375 480.988281 44.136719 480.832031 45.054688 480.402344 C 45.589844 482.238281 47.09375 483.707031 49.097656 484.050781 C 51.144531 484.417969 53.109375 483.507812 54.222656 481.90625 C 54.835938 483.585938 56.277344 484.910156 58.167969 485.238281 C 60.761719 485.699219 63.214844 484.113281 63.96875 481.65625 C 64.59375 483.304688 66.03125 484.605469 67.898438 484.933594 C 70.21875 485.34375 72.429688 484.113281 73.410156 482.09375 C 74.101562 483.542969 75.457031 484.648438 77.15625 484.949219 C 79.359375 485.339844 81.46875 484.257812 82.515625 482.417969 C 82.96875 482.640625 83.441406 482.828125 83.964844 482.921875 C 86.394531 483.347656 88.730469 481.996094 89.628906 479.785156 C 90.351562 480.484375 91.269531 480.980469 92.335938 481.160156 C 94.507812 481.546875 96.59375 480.492188 97.660156 478.691406 C 98.289062 479.160156 99.019531 479.519531 99.847656 479.664062 C 102.65625 480.160156 105.339844 478.285156 105.824219 475.472656 C 105.839844 475.398438 105.832031 475.324219 105.835938 475.246094 C 106.484375 475.746094 107.238281 476.125 108.101562 476.28125 C 110.910156 476.765625 113.582031 474.894531 114.078125 472.085938 C 114.089844 471.996094 114.085938 471.898438 114.105469 471.808594 C 114.570312 472.050781 115.085938 472.261719 115.644531 472.363281 C 118.453125 472.855469 121.132812 470.972656 121.621094 468.171875 C 121.882812 466.675781 121.460938 465.238281 120.605469 464.125 C 122.804688 463.867188 124.675781 462.214844 125.082031 459.910156 C 125.402344 458.101562 124.726562 456.355469 123.460938 455.207031 C 125.441406 454.769531 127.074219 453.179688 127.445312 451.058594"/></g><g><path fill="#be8f7f" d="M 117.117188 445.125 C 121.15625 466.964844 106.710938 487.941406 84.863281 491.972656 C 63.03125 495.992188 42.046875 481.554688 38.011719 459.710938 C 33.996094 437.871094 48.425781 416.898438 70.273438 412.871094 C 92.117188 408.847656 113.089844 423.277344 117.117188 445.125"/></g><g><path fill="#3d1a2a" d="M 122.121094 452.179688 C 123.050781 451.515625 123.730469 450.496094 123.933594 449.261719 C 124.195312 447.59375 123.496094 446.007812 122.273438 445.0625 C 122.417969 444.71875 122.550781 444.367188 122.605469 443.980469 C 122.898438 442.199219 122.097656 440.5 120.714844 439.589844 C 120.917969 439.191406 121.085938 438.742188 121.164062 438.273438 C 121.488281 436.289062 120.453125 434.425781 118.769531 433.613281 C 118.933594 433.253906 119.070312 432.878906 119.144531 432.460938 C 119.523438 430.089844 117.980469 427.867188 115.6875 427.449219 C 115.5625 425.453125 114.121094 423.746094 112.109375 423.414062 C 111.691406 423.351562 111.277344 423.367188 110.886719 423.417969 C 111.046875 421.175781 109.53125 419.144531 107.324219 418.789062 C 106.695312 418.683594 106.078125 418.738281 105.492188 418.914062 C 105.527344 418.78125 105.570312 418.644531 105.601562 418.511719 C 105.988281 416.113281 104.402344 413.855469 102.0625 413.476562 C 101.101562 413.324219 100.167969 413.515625 99.371094 413.960938 C 99.488281 411.746094 97.984375 409.773438 95.8125 409.417969 C 94.488281 409.207031 93.226562 409.65625 92.296875 410.492188 C 91.882812 408.863281 90.582031 407.554688 88.847656 407.28125 C 87.230469 407.015625 85.691406 407.734375 84.753906 408.988281 C 84.113281 408.179688 83.203125 407.585938 82.117188 407.40625 C 80.183594 407.09375 78.367188 408.160156 77.5625 409.882812 C 77.128906 408.28125 75.832031 407 74.128906 406.722656 C 72.242188 406.421875 70.449219 407.429688 69.621094 409.089844 C 69.214844 408.867188 68.773438 408.695312 68.289062 408.613281 C 66.199219 408.273438 64.21875 409.558594 63.542969 411.542969 C 62.964844 411.039062 62.269531 410.679688 61.464844 410.554688 C 59.117188 410.171875 56.910156 411.8125 56.511719 414.214844 C 56.511719 414.277344 56.515625 414.347656 56.503906 414.414062 C 56.015625 414.082031 55.445312 413.832031 54.820312 413.734375 C 52.476562 413.355469 50.269531 414.996094 49.875 417.398438 C 49.859375 417.527344 49.867188 417.664062 49.851562 417.804688 C 49.496094 417.621094 49.101562 417.472656 48.6875 417.410156 C 46.355469 417.03125 44.144531 418.664062 43.753906 421.066406 C 43.648438 421.722656 43.699219 422.351562 43.859375 422.949219 C 41.664062 422.796875 39.660156 424.363281 39.292969 426.636719 C 39.15625 427.488281 39.277344 428.332031 39.589844 429.070312 C 37.691406 429.265625 36.066406 430.730469 35.734375 432.75 C 35.53125 434 35.871094 435.199219 36.558594 436.125 C 34.707031 436.355469 33.152344 437.800781 32.816406 439.785156 C 32.585938 441.214844 33.070312 442.582031 33.980469 443.546875 C 32.703125 444.132812 31.71875 445.351562 31.484375 446.867188 C 31.203125 448.519531 31.890625 450.097656 33.101562 451.039062 C 32.1875 451.703125 31.511719 452.722656 31.328125 453.941406 C 31.046875 455.59375 31.730469 457.167969 32.9375 458.117188 C 32.027344 458.777344 31.359375 459.796875 31.167969 461.011719 C 30.777344 463.417969 32.359375 465.667969 34.695312 466.050781 C 37.035156 466.421875 39.25 464.789062 39.632812 462.386719 C 39.90625 460.730469 39.21875 459.15625 38.019531 458.207031 C 38.925781 457.546875 39.589844 456.523438 39.792969 455.316406 C 40.066406 453.65625 39.378906 452.085938 38.167969 451.140625 C 39.085938 450.472656 39.75 449.460938 39.945312 448.238281 C 40.183594 446.8125 39.699219 445.4375 38.792969 444.476562 C 40.074219 443.882812 41.042969 442.671875 41.289062 441.15625 C 41.488281 439.910156 41.15625 438.710938 40.472656 437.785156 C 42.316406 437.550781 43.890625 436.109375 44.203125 434.125 C 44.34375 433.261719 44.222656 432.429688 43.914062 431.679688 C 45.820312 431.488281 47.4375 430.03125 47.765625 428.007812 C 47.878906 427.355469 47.824219 426.722656 47.664062 426.125 C 49.859375 426.28125 51.859375 424.707031 52.226562 422.441406 C 52.242188 422.308594 52.242188 422.171875 52.257812 422.039062 C 52.613281 422.21875 52.988281 422.363281 53.40625 422.4375 C 55.753906 422.808594 57.960938 421.171875 58.347656 418.769531 C 58.359375 418.699219 58.359375 418.636719 58.359375 418.570312 C 58.855469 418.894531 59.425781 419.144531 60.046875 419.238281 C 62.140625 419.585938 64.125 418.308594 64.792969 416.3125 C 65.371094 416.816406 66.078125 417.183594 66.886719 417.3125 C 68.765625 417.613281 70.554688 416.601562 71.386719 414.929688 C 71.796875 415.164062 72.234375 415.335938 72.71875 415.421875 C 74.644531 415.726562 76.46875 414.664062 77.269531 412.941406 C 77.691406 414.546875 78.992188 415.828125 80.703125 416.101562 C 82.324219 416.367188 83.867188 415.648438 84.796875 414.386719 C 85.441406 415.210938 86.351562 415.804688 87.4375 415.976562 C 88.761719 416.1875 90.011719 415.75 90.953125 414.910156 C 91.367188 416.535156 92.675781 417.832031 94.398438 418.117188 C 95.363281 418.273438 96.300781 418.070312 97.101562 417.632812 C 96.980469 419.839844 98.484375 421.824219 100.65625 422.175781 C 101.296875 422.277344 101.914062 422.222656 102.492188 422.046875 C 102.464844 422.183594 102.40625 422.3125 102.390625 422.457031 C 102 424.855469 103.582031 427.109375 105.917969 427.484375 C 106.335938 427.554688 106.75 427.539062 107.148438 427.480469 C 106.980469 429.703125 108.460938 431.703125 110.621094 432.089844 C 110.722656 433.683594 111.667969 435.074219 113.058594 435.75 C 112.890625 436.109375 112.753906 436.484375 112.691406 436.894531 C 112.398438 438.679688 113.199219 440.378906 114.585938 441.285156 C 114.386719 441.695312 114.207031 442.136719 114.144531 442.609375 C 113.867188 444.277344 114.558594 445.859375 115.789062 446.8125 C 115.640625 447.148438 115.519531 447.507812 115.445312 447.890625 C 115.199219 449.488281 115.820312 451.011719 116.957031 451.976562 C 116.289062 452.550781 115.792969 453.363281 115.644531 454.308594 C 115.304688 456.4375 116.699219 458.4375 118.777344 458.773438 C 120.855469 459.109375 122.816406 457.652344 123.148438 455.523438 C 123.359375 454.25 122.9375 453.03125 122.121094 452.179688"/></g><g><path fill="#231f20" d="M 102.414062 434.996094 C 101.984375 435.476562 100.078125 433.316406 97.441406 433.390625 C 94.765625 433.644531 92.890625 435.828125 92.515625 435.425781 C 92.144531 435.339844 93.382812 432.199219 97.308594 431.648438 C 101.386719 431.714844 102.71875 434.988281 102.414062 434.996094"/></g><g><path fill="#231f20" d="M 61.074219 438.105469 C 60.679688 438.617188 58.648438 436.558594 56.019531 436.789062 C 53.363281 437.191406 51.613281 439.46875 51.222656 439.097656 C 50.84375 439.019531 51.90625 435.820312 55.796875 435.066406 C 59.867188 434.894531 61.382812 438.089844 61.074219 438.105469"/></g><g><path fill="#8f624f" d="M 82.050781 463.007812 C 82.183594 463.042969 81.308594 464.367188 79.535156 464.542969 C 77.824219 464.671875 76.59375 463.984375 76.664062 463.847656 C 76.726562 463.6875 77.964844 464.078125 79.480469 463.957031 C 81.003906 463.832031 81.90625 462.871094 82.050781 463.007812"/></g><g><path fill="#be6b81" d="M 58.503906 461.519531 C 58.695312 463.21875 56.238281 464.898438 53.015625 465.257812 C 49.789062 465.617188 47.015625 464.527344 46.835938 462.820312 C 46.644531 461.121094 49.09375 459.449219 52.328125 459.082031 C 55.550781 458.726562 58.3125 459.816406 58.503906 461.519531"/></g><g><path fill="#be6b81" d="M 109.675781 457.382812 C 109.765625 459.097656 107.207031 460.617188 103.960938 460.78125 C 100.722656 460.929688 98.035156 459.679688 97.941406 457.96875 C 97.855469 456.257812 100.421875 454.738281 103.660156 454.574219 C 106.894531 454.417969 109.589844 455.675781 109.675781 457.382812"/></g><g><path fill="#ffffff" d="M 68.015625 470.925781 C 68.015625 470.925781 73.980469 471.316406 80.152344 470.960938 C 85.808594 470.632812 91.710938 469.539062 91.710938 469.539062 C 91.710938 469.539062 90.835938 480.476562 79.09375 480.105469 C 70.960938 479.851562 68.015625 470.925781 68.015625 470.925781"/></g><g><path fill="#231f20" d="M 60.394531 452.550781 C 60.710938 454.367188 59.503906 456.097656 57.675781 456.417969 C 55.855469 456.746094 54.121094 455.527344 53.804688 453.703125 C 53.480469 451.886719 54.695312 450.15625 56.519531 449.832031 C 58.335938 449.507812 60.070312 450.730469 60.394531 452.550781"/></g><g><path fill="#231f20" d="M 102.085938 449.367188 C 102.425781 451.183594 101.199219 452.914062 99.386719 453.246094 C 97.558594 453.5625 95.828125 452.34375 95.515625 450.527344 C 95.195312 448.707031 96.402344 446.972656 98.226562 446.652344 C 100.039062 446.332031 101.777344 447.546875 102.085938 449.367188"/></g><g><path fill="#6c5c6a" d="M 121.734375 432.761719 C 121.339844 432.636719 122.085938 431.152344 121.566406 429.421875 C 121.230469 427.628906 120.179688 426.386719 120.402344 426.222656 C 120.488281 426.085938 121.921875 427.171875 122.339844 429.238281 C 122.921875 431.257812 121.710938 432.902344 121.734375 432.761719"/></g><g><path fill="#6c5c6a" d="M 114.078125 417.601562 C 113.789062 417.5625 114.207031 415.675781 112.628906 414.109375 C 111.144531 412.570312 109.449219 411.800781 109.542969 411.585938 C 109.589844 411.394531 111.523438 411.84375 113.21875 413.574219 C 115.058594 415.453125 114.222656 417.785156 114.078125 417.601562"/></g><g><path fill="#6c5c6a" d="M 33.355469 442.449219 C 33.402344 442.609375 31.191406 442.105469 30.410156 439.6875 C 29.8125 437.351562 30.722656 435.550781 30.894531 435.652344 C 31.117188 435.707031 30.640625 437.484375 31.171875 439.457031 C 31.773438 441.429688 33.5 442.183594 33.355469 442.449219"/></g><g><path fill="#6c5c6a" d="M 32.425781 460.898438 C 32.617188 461.105469 30.691406 460.632812 30.542969 458.902344 C 30.183594 457.351562 30.5 456.105469 30.710938 456.132812 C 30.933594 456.144531 30.992188 457.363281 31.3125 458.703125 C 31.480469 460.195312 32.53125 460.5 32.425781 460.898438"/></g><g><path fill="#6c5c6a" d="M 59.210938 409.425781 C 59.390625 409.511719 57.691406 410.597656 55.84375 409.4375 C 54.214844 408.242188 53.789062 406.65625 53.980469 406.601562 C 54.179688 406.496094 54.921875 407.796875 56.28125 408.773438 C 57.683594 409.695312 59.128906 409.148438 59.210938 409.425781"/></g><g><path fill="#6c5c6a" d="M 80.351562 405.171875 C 80.015625 405.214844 80.535156 403.027344 78.316406 402.34375 C 76.355469 401.585938 74.480469 401.617188 74.488281 401.371094 C 74.460938 401.191406 76.367188 400.753906 78.628906 401.617188 C 81.386719 402.558594 80.476562 405.519531 80.351562 405.171875"/></g><g><path fill="#6c5c6a" d="M 98.273438 410.039062 C 98.222656 409.917969 97.628906 407.464844 94.164062 408.035156 C 91.203125 408.214844 88.792969 408.898438 88.730469 408.667969 C 88.664062 408.484375 90.984375 407.441406 94.121094 407.242188 C 97.921875 406.488281 98.953125 410.203125 98.273438 410.039062"/></g><g><path fill="#6c5c6a" d="M 122.066406 447.960938 C 121.757812 447.875 122.480469 446.371094 121.980469 444.796875 C 121.433594 443.203125 119.789062 442.699219 119.925781 442.472656 C 119.855469 442.292969 121.898438 442.40625 122.726562 444.519531 C 123.339844 446.640625 122.121094 448.0625 122.066406 447.960938"/></g><g><path fill="#6c5c6a" d="M 38.015625 425.128906 C 37.867188 424.90625 41.402344 425.191406 40.417969 421.578125 C 39.882812 418.640625 38.683594 416.355469 38.921875 416.253906 C 39.066406 416.167969 40.613281 418.265625 41.199219 421.460938 C 42.277344 425.757812 37.433594 425.574219 38.015625 425.128906"/></g><g><path fill="#f3db74" d="M 48.714844 498.558594 C 48.964844 498.625 48.414062 501.539062 47.410156 505.046875 C 46.410156 508.554688 45.34375 511.324219 45.089844 511.246094 C 44.828125 511.164062 45.480469 508.28125 46.476562 504.78125 C 47.476562 501.28125 48.449219 498.488281 48.714844 498.558594"/></g><g><path fill="#f3db74" d="M 111.105469 503.996094 C 111.339844 503.867188 113.449219 507.390625 115.808594 511.859375 C 118.164062 516.328125 119.886719 520.046875 119.648438 520.175781 C 119.410156 520.300781 117.308594 516.777344 114.945312 512.308594 C 112.589844 507.84375 110.867188 504.121094 111.105469 503.996094"/></g><g><path fill="#f3db74" d="M 122.496094 514.351562 C 122.320312 514.160156 124.398438 512.183594 127.445312 510.5 C 130.46875 508.808594 133.136719 507.890625 133.238281 508.136719 C 133.347656 508.382812 130.894531 509.683594 127.921875 511.347656 C 124.9375 512.996094 122.679688 514.566406 122.496094 514.351562"/></g><g><path fill="#f3db74" d="M 38.203125 483.3125 C 38.445312 483.398438 37.496094 486.601562 35.84375 490.359375 C 34.207031 494.121094 32.507812 496.996094 32.269531 496.875 C 32.03125 496.753906 33.332031 493.707031 34.957031 489.96875 C 36.59375 486.238281 37.945312 483.214844 38.203125 483.3125"/></g><g><path fill="#ffffff" d="M 77.964844 516.164062 C 77.964844 516.164062 74.34375 512.277344 72.789062 514.351562 C 71.238281 516.417969 79.003906 522.894531 79.003906 522.894531 C 79.003906 522.894531 88.0625 510.984375 84.699219 510.984375 C 81.335938 510.984375 77.964844 516.164062 77.964844 516.164062"/></g><g><path fill="#be8f7f" d="M 25.207031 406.9375 C 25.402344 411.371094 22.980469 415.078125 19.804688 415.214844 C 16.628906 415.355469 13.898438 411.875 13.703125 407.4375 C 13.511719 403.007812 15.929688 399.300781 19.105469 399.160156 C 22.28125 399.023438 25.015625 402.503906 25.207031 406.9375"/></g><g><path fill="#654e2d" d="M 306.796875 393.058594 C 308.070312 393.253906 301.113281 413.410156 304.074219 438.664062 C 306.804688 464.070312 319.394531 481.394531 318.835938 481.601562 C 318.214844 482.515625 304.019531 465.253906 301.179688 439.003906 C 298.164062 412.902344 306.566406 392.722656 306.796875 393.058594"/></g><g clip-path="url(#j)"><path fill="#f171b0" d="M 375.917969 484.320312 L 328.027344 480.175781 C 328.027344 480.175781 319.222656 472.671875 315.601562 461.796875 C 311.972656 450.921875 311.066406 437.71875 311.066406 437.71875 L 297.476562 442.378906 C 296.699219 466.84375 312.617188 495.96875 312.617188 495.96875 C 307.734375 508.90625 307.105469 521.621094 307.105469 527.359375 L 379.414062 527.359375 C 376.820312 516.433594 375.917969 484.320312 375.917969 484.320312"/></g><g clip-path="url(#k)"><path fill="#e35ba4" d="M 308.066406 514.113281 C 307.269531 519.734375 307.105469 524.449219 307.105469 527.359375 L 379.414062 527.359375 C 378.886719 525.140625 378.433594 522.039062 378.039062 518.519531 C 356.375 528.066406 328.722656 525.445312 308.066406 514.113281"/></g><g clip-path="url(#l)"><path fill="#e35ba4" d="M 375.917969 484.320312 L 368.605469 483.6875 C 373.316406 485.304688 372.167969 491.464844 372.167969 494.15625 C 375.292969 505.609375 369.359375 516.367188 366.5 527.359375 L 379.414062 527.359375 C 376.820312 516.433594 375.917969 484.320312 375.917969 484.320312"/></g><g><path fill="#e35ba4" d="M 328.027344 480.175781 C 328.027344 480.175781 326.28125 478.6875 324.027344 476.082031 C 322.472656 477.449219 320.90625 478.617188 320.90625 480.175781 C 325.566406 491.046875 337.992188 492.601562 348.867188 494.15625 C 358.238281 496.710938 367.144531 492.726562 376.09375 489.375 C 375.976562 486.273438 375.917969 484.320312 375.917969 484.320312 L 328.027344 480.175781"/></g><g><path fill="#f171b0" d="M 320.257812 485.742188 C 314.953125 490.664062 312.691406 495.96875 312.617188 495.96875 C 312.617188 495.96875 296.699219 466.84375 297.476562 442.378906 L 311.066406 437.71875 C 311.066406 437.71875 311.972656 450.921875 315.601562 461.796875 C 319.222656 472.671875 328.027344 480.175781 328.027344 480.175781 C 328.027344 480.175781 326.234375 480.207031 320.257812 485.742188"/></g><g><path fill="#984a6f" d="M 298.171875 453.65625 C 298.59375 456.636719 299.171875 459.605469 299.863281 462.515625 C 303.917969 459.527344 308.953125 458.003906 314.511719 458.160156 C 313.730469 455.292969 313.117188 452.386719 312.632812 449.695312 C 307.34375 447.746094 302.460938 450.015625 298.171875 453.65625"/></g><g><path fill="#984a6f" d="M 318.136719 467.570312 C 312.546875 467.484375 307.109375 469.234375 302.660156 472.378906 C 304.167969 476.964844 305.808594 481.179688 307.320312 484.738281 C 311.582031 479.96875 317.988281 477.101562 324.761719 476.90625 C 322.78125 474.710938 320.242188 471.492188 318.136719 467.570312"/></g><g><path fill="#daaf87" d="M 332.035156 481.792969 C 332.035156 481.792969 329.515625 498.6875 338.640625 499.464844 C 347.769531 500.242188 359.414062 485.484375 359.414062 485.484375 L 332.035156 481.792969"/></g><g><path fill="#654e2d" d="M 358.058594 520.046875 C 357.882812 518.875 372.527344 519.765625 388.675781 515.832031 C 391.953125 515.320312 389.113281 510.496094 387.292969 507.792969 C 385.246094 504.785156 383.089844 502.207031 381.28125 500.054688 C 377.617188 495.769531 375.253906 493.160156 375.535156 492.863281 C 375.796875 492.570312 378.675781 494.65625 382.785156 498.652344 C 384.824219 500.667969 387.191406 503.140625 389.492188 506.253906 C 390.636719 507.816406 391.773438 509.539062 392.585938 511.703125 C 393.929688 513.492188 392.6875 518.125 389.695312 518.5625 C 372.085938 522.84375 358.058594 520.414062 358.058594 520.046875"/></g><g><path fill="#e4ac2e" d="M 312.679688 456.910156 C 312.679688 456.910156 301.59375 450.046875 293.039062 457.3125 C 284.484375 464.582031 286.941406 474.09375 295.734375 479.878906 C 304.53125 485.664062 290.378906 490.195312 290.53125 482.78125 C 290.53125 482.78125 287.039062 485.8125 292.957031 489.5625 C 298.882812 493.320312 305.105469 494.273438 310.199219 489.269531 C 314.441406 485.097656 311.328125 475.855469 308.515625 471.855469 C 304.390625 465.996094 309.875 459.914062 312.789062 459.886719 C 315.707031 459.867188 312.679688 456.910156 312.679688 456.910156"/></g><g><path fill="#edd167" d="M 294.984375 488.046875 C 294.671875 487.46875 298.855469 490.492188 302.113281 486.960938 C 304.433594 482.617188 296.527344 477.277344 293.960938 470.191406 C 292.566406 466.6875 291.339844 462.605469 293.460938 459.585938 C 295.769531 456.882812 299.164062 456.503906 301.636719 456.316406 C 306.789062 456.097656 309.9375 456.988281 309.917969 457.074219 C 309.910156 457.253906 306.734375 456.613281 301.738281 457.003906 C 299.328125 457.242188 296.140625 457.78125 294.230469 460.136719 C 292.453125 462.621094 293.511719 466.457031 294.890625 469.867188 C 297.175781 476.785156 305.363281 481.773438 302.707031 487.375 C 298.574219 491.273438 294.589844 487.589844 294.984375 488.046875"/></g><g><path fill="#edd167" d="M 301.238281 490.320312 C 301.089844 490.070312 304.210938 490.921875 306.859375 488.097656 C 310.003906 485.191406 306.855469 479.515625 304.1875 474.160156 C 302.792969 471.394531 301.617188 468.625 301.222656 465.882812 C 300.964844 462.914062 303.183594 461.007812 304.859375 460.070312 C 308.472656 458.1875 311.113281 458.136719 311.113281 458.210938 C 311.1875 458.390625 308.601562 458.707031 305.265625 460.664062 C 303.695312 461.640625 301.859375 463.386719 302.148438 465.875 C 302.550781 468.320312 303.699219 471.042969 305.09375 473.789062 C 307.675781 478.953125 311.085938 485.296875 307.40625 488.582031 C 304.273438 491.546875 301.023438 490.292969 301.238281 490.320312"/></g><g><path fill="#e4ac2e" d="M 397.105469 458.527344 C 397.105469 458.527344 408.183594 451.660156 416.746094 458.925781 C 425.304688 466.203125 422.839844 475.707031 414.046875 481.492188 C 405.253906 487.28125 419.410156 491.808594 419.253906 484.398438 C 419.253906 484.398438 422.746094 487.429688 416.828125 491.183594 C 410.898438 494.933594 404.675781 495.894531 399.585938 490.886719 C 395.339844 486.710938 398.457031 477.476562 401.273438 473.472656 C 405.394531 467.613281 399.910156 461.53125 396.992188 461.503906 C 394.078125 461.480469 397.105469 458.527344 397.105469 458.527344"/></g><g><path fill="#edd167" d="M 414.800781 489.667969 C 415.113281 489.085938 410.929688 492.109375 407.667969 488.574219 C 405.351562 484.234375 413.261719 478.894531 415.820312 471.808594 C 417.214844 468.308594 418.445312 464.214844 416.320312 461.203125 C 414.019531 458.496094 410.621094 458.121094 408.152344 457.933594 C 402.996094 457.714844 399.84375 458.609375 399.871094 458.6875 C 399.875 458.875 403.050781 458.226562 408.046875 458.621094 C 410.457031 458.859375 413.644531 459.398438 415.554688 461.753906 C 417.335938 464.238281 416.273438 468.070312 414.894531 471.484375 C 412.605469 478.402344 404.421875 483.390625 407.082031 488.992188 C 411.207031 492.886719 415.199219 489.203125 414.800781 489.667969"/></g><g><path fill="#edd167" d="M 408.539062 491.941406 C 408.695312 491.6875 405.574219 492.535156 402.921875 489.714844 C 399.785156 486.808594 402.929688 481.136719 405.597656 475.777344 C 406.996094 473.011719 408.164062 470.242188 408.570312 467.5 C 408.824219 464.53125 406.601562 462.625 404.925781 461.6875 C 401.3125 459.804688 398.667969 459.753906 398.671875 459.828125 C 398.601562 460.007812 401.183594 460.324219 404.523438 462.277344 C 406.09375 463.261719 407.925781 465 407.636719 467.492188 C 407.234375 469.9375 406.085938 472.664062 404.691406 475.410156 C 402.109375 480.566406 398.695312 486.914062 402.382812 490.199219 C 405.511719 493.160156 408.761719 491.910156 408.539062 491.941406"/></g><g><path fill="#f4ca9d" d="M 400.585938 424.25 C 409.613281 449.601562 396.367188 477.464844 371.019531 486.484375 C 345.675781 495.503906 317.800781 482.269531 308.777344 456.914062 C 299.757812 431.5625 312.992188 403.695312 338.355469 394.675781 C 363.699219 385.652344 391.566406 398.894531 400.585938 424.25"/></g><g><path fill="#e4ac2e" d="M 400.980469 421.574219 C 391.960938 396.222656 363.730469 383.074219 338.355469 392.019531 C 307.796875 402.789062 299.820312 431.4375 308.726562 456.746094 C 306.648438 445.105469 306.929688 435.140625 324.914062 423.910156 C 345.246094 411.207031 364.019531 432.523438 382.957031 416.335938 C 382.957031 416.335938 380.898438 424.53125 388.441406 434.519531 C 393.929688 441.8125 400.859375 448.3125 398.484375 461.910156 C 404.015625 450.550781 405.546875 434.40625 400.980469 421.574219"/></g><g><path fill="#edd167" d="M 400.324219 445.976562 C 399.558594 446.140625 400.507812 436.820312 394.476562 428.058594 C 386.558594 419.652344 389.214844 409.144531 389.410156 409.695312 C 390.160156 409.5 388.199219 419.117188 395.832031 427.140625 C 402.234375 436.5625 400.4375 446.238281 400.324219 445.976562"/></g><g><path fill="#edd167" d="M 329.230469 402.570312 C 328.804688 402.582031 339.929688 393.699219 356.328125 395.015625 C 372.4375 396.199219 383.398438 404.160156 383.046875 404.382812 C 382.886719 404.894531 371.78125 397.765625 356.222656 396.660156 C 340.472656 395.347656 329.414062 403.277344 329.230469 402.570312"/></g><g><path fill="#edd167" d="M 382.492188 407.199219 C 382.777344 407.148438 375.972656 414.191406 364.675781 414.738281 C 353.578125 415.347656 345.40625 410.886719 345.628906 410.703125 C 345.691406 410.347656 353.894531 414.222656 364.601562 413.609375 C 375.46875 413.113281 382.304688 406.730469 382.492188 407.199219"/></g><g><path fill="#231f20" d="M 325.839844 433.675781 C 326.40625 434.195312 328.464844 431.425781 331.628906 431.269531 C 334.855469 431.316406 337.300781 433.734375 337.699219 433.242188 C 338.136719 433.085938 336.363281 429.453125 331.617188 429.175781 C 326.757812 429.648438 325.480469 433.691406 325.839844 433.675781"/></g><g><path fill="#231f20" d="M 371.199219 433.175781 C 371.730469 433.730469 373.964844 431.113281 377.128906 431.15625 C 380.34375 431.425781 382.636719 433.988281 383.058594 433.511719 C 383.511719 433.398438 381.992188 429.65625 377.269531 429.074219 C 372.375 429.226562 370.820312 433.175781 371.199219 433.175781"/></g><g><path fill="#cb9d72" d="M 351.433594 462.097656 C 351.289062 462.160156 352.582031 463.664062 354.824219 463.566406 C 356.972656 463.449219 358.398438 462.378906 358.273438 462.226562 C 358.1875 462.042969 356.613281 462.40625 354.714844 462.511719 C 352.792969 462.609375 351.601562 461.898438 351.433594 462.097656"/></g><g><path fill="#f3a4a1" d="M 320.019531 460.515625 C 319.988281 462.570312 323.109375 464.28125 327.011719 464.34375 C 330.894531 464.410156 334.074219 462.792969 334.105469 460.730469 C 334.140625 458.675781 331.011719 456.957031 327.128906 456.910156 C 323.222656 456.835938 320.050781 458.457031 320.019531 460.515625"/></g><g><path fill="#f3a4a1" d="M 374.882812 460.421875 C 374.902344 462.480469 378.0625 464.113281 381.964844 464.078125 C 385.851562 464.046875 388.992188 462.351562 388.964844 460.292969 C 388.949219 458.238281 385.78125 456.601562 381.898438 456.644531 C 377.996094 456.667969 374.863281 458.367188 374.882812 460.421875"/></g><g><path fill="#ffffff" d="M 366.113281 469.484375 L 343.425781 469.40625 C 343.425781 469.40625 344.828125 479.753906 356.023438 478.789062 C 363.757812 478.125 366.113281 469.484375 366.113281 469.484375"/></g><g><path fill="#231f20" d="M 335.476562 450.863281 C 335.515625 452.789062 333.984375 454.378906 332.050781 454.417969 C 330.128906 454.449219 328.535156 452.921875 328.5 450.992188 C 328.460938 449.066406 329.992188 447.484375 331.917969 447.445312 C 333.847656 447.402344 335.4375 448.9375 335.476562 450.863281"/></g><g><path fill="#231f20" d="M 380.671875 450.824219 C 380.714844 452.753906 379.191406 454.34375 377.253906 454.382812 C 375.324219 454.421875 373.730469 452.886719 373.703125 450.960938 C 373.664062 449.035156 375.195312 447.445312 377.117188 447.40625 C 379.046875 447.367188 380.636719 448.898438 380.671875 450.824219"/></g><g clip-path="url(#m)"><path fill="#f171b0" d="M 393.007812 525.742188 C 399.222656 523.410156 401.550781 517.199219 395.339844 504.773438 C 389.125 492.34375 375.917969 484.320312 375.917969 484.320312 C 364.269531 491.566406 368.414062 498.039062 368.414062 498.039062 L 385.5 513.574219 L 372.300781 515.128906 L 378.785156 527.359375 L 386.277344 527.359375 C 388.445312 527.054688 390.820312 526.5625 393.007812 525.742188"/></g><g><path fill="#984a6f" d="M 375.917969 484.320312 C 364.269531 491.566406 368.414062 498.039062 368.414062 498.039062 L 371.648438 500.984375 C 374.273438 496.710938 380.945312 492.710938 386.386719 492.765625 C 381.03125 487.425781 375.917969 484.320312 375.917969 484.320312"/></g><g clip-path="url(#n)"><path fill="#984a6f" d="M 392.542969 525.902344 C 391.964844 520.898438 388.976562 516.121094 384.769531 513.65625 L 379.703125 514.257812 C 382.839844 518.0625 384.363281 522.730469 384.605469 527.359375 L 386.238281 527.359375 C 388.261719 527.078125 390.46875 526.628906 392.542969 525.902344"/></g><g><path fill="#984a6f" d="M 395.339844 504.773438 C 394.765625 503.617188 394.125 502.507812 393.441406 501.433594 C 387.898438 499.683594 381.488281 502.085938 377.871094 506.640625 L 383.277344 511.554688 C 388.109375 508.792969 394.054688 509.824219 398.492188 513.070312 C 397.9375 510.675781 396.914062 507.925781 395.339844 504.773438"/></g><g><path fill="#c1527a" d="M 322.976562 484.058594 C 323.136719 484.355469 320.003906 486.117188 317.214844 489.484375 C 314.371094 492.800781 312.882812 496.085938 312.617188 495.96875 C 312.375 495.90625 313.515625 492.316406 316.472656 488.859375 C 319.398438 485.335938 322.925781 483.859375 322.976562 484.058594"/></g><g><path fill="#f4ca9d" d="M 311.84375 386.996094 C 311.84375 390.988281 309.523438 394.222656 306.664062 394.222656 C 303.804688 394.222656 301.488281 390.988281 301.488281 386.996094 C 301.488281 383.007812 303.804688 379.773438 306.664062 379.773438 C 309.523438 379.773438 311.84375 383.007812 311.84375 386.996094"/></g><g><path fill="#f4ca9d" d="M 349.546875 523.425781 C 345.761719 522.148438 343.4375 518.921875 344.347656 516.210938 C 345.257812 513.503906 349.0625 512.335938 352.847656 513.609375 C 356.628906 514.878906 358.957031 518.109375 358.042969 520.816406 C 357.136719 523.527344 353.328125 524.699219 349.546875 523.425781"/></g><g><path fill="#ffffff" d="M 434.238281 170.792969 C 434.238281 77.296875 337.367188 1.5 217.867188 1.5 C 98.371094 1.5 1.5 77.296875 1.5 170.792969 C 1.5 234.785156 46.886719 290.480469 113.839844 319.261719 L 104.039062 368.527344 L 128.570312 325.039062 C 155.285156 334.523438 184.90625 339.871094 216.097656 340.070312 L 221.949219 382.402344 L 230 339.816406 C 257.390625 338.632812 283.425781 333.464844 307.167969 325.039062 L 331.699219 368.527344 L 321.898438 319.261719 C 388.851562 290.480469 434.238281 234.789062 434.238281 170.792969"/></g><g><path fill="#dadbe0" d="M 9.363281 216.160156 C 25.097656 260.515625 63.328125 297.550781 113.839844 319.261719 L 104.039062 368.527344 L 128.570312 325.039062 C 155.285156 334.523438 184.90625 339.871094 216.097656 340.070312 L 221.949219 382.402344 L 230 339.816406 C 257.390625 338.632812 283.425781 333.464844 307.167969 325.039062 L 331.699219 368.527344 L 321.898438 319.261719 C 369.132812 298.957031 405.628906 265.257812 423.03125 224.699219 C 306.722656 377.359375 62.722656 326.859375 9.363281 216.160156"/></g><g clip-path="url(#o)"><path fill="#6d7479" d="M 63.949219 49.90625 C 22.710938 82.171875 0 125.101562 0 170.792969 C 0 232.859375 42.941406 289.984375 112.136719 320.140625 C 111.6875 322.378906 102.566406 368.234375 102.566406 368.234375 C 102.546875 368.332031 102.539062 368.429688 102.539062 368.527344 C 102.539062 369.144531 102.917969 369.710938 103.515625 369.933594 C 104.207031 370.191406 104.984375 369.90625 105.34375 369.265625 C 105.34375 369.265625 128.117188 328.894531 129.269531 326.851562 C 156.246094 336.273438 185 341.210938 214.785156 341.535156 C 215.113281 343.90625 220.464844 382.609375 220.464844 382.609375 C 220.566406 383.335938 221.179688 383.882812 221.914062 383.902344 C 222.648438 383.921875 223.289062 383.402344 223.425781 382.679688 C 223.425781 382.679688 230.847656 343.414062 231.257812 341.242188 C 257.394531 340 282.683594 335.160156 306.46875 326.851562 C 307.625 328.902344 330.394531 369.265625 330.394531 369.265625 C 330.753906 369.90625 331.527344 370.191406 332.222656 369.933594 C 332.816406 369.710938 333.199219 369.144531 333.199219 368.527344 C 333.199219 368.429688 333.1875 368.332031 333.171875 368.234375 C 333.171875 368.234375 324.046875 322.378906 323.601562 320.144531 C 392.796875 289.984375 435.738281 232.859375 435.738281 170.792969 C 435.738281 125.101562 413.027344 82.171875 371.789062 49.90625 C 330.660156 17.722656 275.996094 0 217.867188 0 C 159.742188 0 105.078125 17.722656 63.949219 49.90625 Z M 115.3125 319.554688 C 115.328125 319.457031 115.339844 319.359375 115.339844 319.261719 C 115.339844 318.671875 114.988281 318.125 114.433594 317.882812 C 45.699219 288.335938 3 231.976562 3 170.792969 C 3 126.046875 25.300781 83.953125 65.796875 52.265625 C 106.402344 20.496094 160.40625 3 217.867188 3 C 275.328125 3 329.335938 20.496094 369.941406 52.265625 C 410.4375 83.953125 432.738281 126.046875 432.738281 170.792969 C 432.738281 231.976562 390.039062 288.335938 321.304688 317.882812 C 320.746094 318.125 320.398438 318.671875 320.398438 319.261719 C 320.398438 319.359375 320.40625 319.457031 320.429688 319.554688 C 320.429688 319.554688 325.976562 347.453125 328.398438 359.621094 C 322.320312 348.847656 308.476562 324.300781 308.476562 324.300781 C 308.117188 323.667969 307.355469 323.382812 306.664062 323.625 C 282.453125 332.21875 256.640625 337.164062 229.933594 338.316406 C 229.238281 338.347656 228.65625 338.851562 228.523438 339.539062 C 228.523438 339.539062 224.296875 361.910156 222.179688 373.113281 C 220.628906 361.902344 217.582031 339.863281 217.582031 339.863281 C 217.480469 339.125 216.851562 338.574219 216.105469 338.570312 C 185.753906 338.378906 156.46875 333.351562 129.070312 323.625 C 128.386719 323.382812 127.621094 323.667969 127.265625 324.300781 C 127.265625 324.300781 113.417969 348.847656 107.339844 359.621094 C 109.761719 347.453125 115.3125 319.554688 115.3125 319.554688"/></g></g></svg>