<?xml version="1.0" encoding="UTF-8"?><svg xmlns="http://www.w3.org/2000/svg" xmlns:xlink="http://www.w3.org/1999/xlink" contentScriptType="text/ecmascript" fill="#000000" width="173.9" zoomAndPan="magnify" contentStyleType="text/css" viewBox="118.7 81.5 173.9 261.4" height="261.4" preserveAspectRatio="xMidYMid meet" version="1"><g id="change1_1"><path fill="#ffbab3" d="M190.955,148.288c-3.59,0-6.5-2.91-6.5-6.5V109.35c0-11.792,9.593-21.385,21.385-21.385 s21.385,9.593,21.385,21.385v32.438c0,3.59-2.91,6.5-6.5,6.5H190.955z"/></g><g id="change2_1"><path fill="#000000" d="M205.84,94.465c8.221,0,14.885,6.664,14.885,14.885v32.439h-29.77v-32.439 C190.955,101.129,197.619,94.465,205.84,94.465 M205.84,81.465c-15.376,0-27.885,12.509-27.885,27.885v32.439 c0,7.18,5.82,13,13,13h29.77c7.18,0,13-5.82,13-13v-32.439C233.725,93.974,221.216,81.465,205.84,81.465L205.84,81.465z"/></g><g><g id="change1_4"><path fill="#ffbab3" d="M133.074,336.374c-1.42,0-2.832-0.463-3.997-1.371c-2.046-1.596-2.957-4.249-2.303-6.76 c0.046-0.176,0.098-0.346,0.155-0.519c0.013-0.039,12.93-36.728,12.93-36.728c1.515-4.306,5.601-7.199,10.167-7.199 c1.22,0,2.424,0.206,3.578,0.612c2.717,0.956,4.897,2.913,6.142,5.51c1.245,2.597,1.403,5.523,0.445,8.238l-10.07,28.602 c-0.046,0.134-0.095,0.264-0.146,0.392c-0.604,1.513-1.766,2.768-3.234,3.472l-0.096,0.046 c-1.299,0.628-2.19,1.058-2.867,1.352l-7.9,3.72C134.987,336.164,134.029,336.374,133.074,336.374z"/></g><g id="change2_4"><path fill="#000000" d="M150.026,290.297c0.472,0,0.952,0.079,1.421,0.244c2.229,0.784,3.399,3.228,2.614,5.456l-10.083,28.636 c-0.014,0.045-0.032,0.086-0.048,0.129l-0.096,0.046c-0.481,0.232-2.763,1.333-2.825,1.333c-0.001,0-0.002,0-0.001-0.001 l-7.923,3.732l-0.02,0.011c0-0.001,0-0.001,0-0.001l-0.001,0c0.013-0.044,0.026-0.087,0.042-0.131l12.884-36.595 C146.609,291.397,148.262,290.297,150.026,290.297 M150.026,277.297c-7.319,0-13.87,4.639-16.299,11.543l-12.884,36.593 c-0.093,0.261-0.186,0.553-0.271,0.848c-1.429,4.959,0.21,10.294,4.178,13.594c2.384,1.983,5.337,3.006,8.316,3.006 c1.912,0,3.834-0.421,5.624-1.281l7.857-3.701l-0.002-0.004c0.833-0.364,1.767-0.814,2.895-1.359l0.049-0.023 c2.998-1.418,5.34-3.928,6.548-7.017c0.052-0.131,0.136-0.348,0.231-0.626l10.055-28.557c1.533-4.348,1.28-9.04-0.715-13.204 c-1.995-4.164-5.491-7.3-9.846-8.833C153.914,277.627,151.983,277.297,150.026,277.297L150.026,277.297z"/></g><g id="change1_5"><path fill="#ffbab3" d="M132.602,311.201c-1.54,0-3.063-0.547-4.271-1.6c-1.944-1.695-2.703-4.379-1.934-6.841l6.204,1.94 l-6.183-2.008c0.056-0.179,0.112-0.357,0.175-0.536l39.415-111.942c2.754-7.826,10.178-13.084,18.473-13.084 c2.215,0,4.404,0.375,6.506,1.116c4.935,1.737,8.897,5.292,11.158,10.01s2.548,10.034,0.811,14.968l-30.839,87.584 c-0.049,0.143-0.121,0.333-0.195,0.521c-0.604,1.554-1.808,2.885-3.316,3.596l-33.234,15.655 C134.486,310.998,133.541,311.201,132.602,311.201z"/></g><g id="change2_5"><path fill="#000000" d="M184.481,183.631c1.442,0,2.909,0.24,4.346,0.746c6.817,2.4,10.396,9.872,7.997,16.688l-30.838,87.585 c-0.046,0.134-0.1,0.264-0.15,0.395l-33.235,15.655c0.042-0.134,0.082-0.268,0.129-0.402l39.409-111.926 C174.033,186.994,179.085,183.631,184.481,183.631 M184.481,170.631c-11.048,0-20.936,7.003-24.605,17.426l-39.409,111.925 c-0.08,0.225-0.167,0.493-0.251,0.763c-1.557,4.926-0.056,10.325,3.833,13.725c2.424,2.119,5.485,3.226,8.578,3.226 c1.87,0,3.751-0.404,5.512-1.234l33.235-15.655c3.022-1.424,5.381-3.957,6.586-7.074c0.111-0.284,0.205-0.532,0.292-0.78 l30.833-87.569c4.776-13.568-2.375-28.492-15.942-33.268C190.349,171.13,187.433,170.631,184.481,170.631L184.481,170.631z"/></g><g><g id="change1_2"><path fill="#ffbab3" d="M257.063 260.852L292.6 330.736"/></g><g id="change2_2"><path fill="#000000" d="M257.063,260.852c5.382,4.593,9.555,9.8,13.424,15.162c3.837,5.378,7.162,11.017,10.137,16.834 c2.96,5.824,5.56,11.832,7.647,18.1c2.057,6.283,3.801,12.726,4.329,19.788c-5.396-4.586-9.575-9.79-13.44-15.154 c-3.835-5.379-7.159-11.018-10.122-16.842c-2.947-5.831-5.546-11.839-7.631-18.108 C259.354,274.346,257.604,267.907,257.063,260.852z"/></g><g><g id="change1_7"><path fill="#ffbab3" d="M266.771,315.292c-2.352,0-4.54-1.275-5.69-3.362l5.692-3.138l-5.727,3.077 c-0.089-0.161-0.177-0.322-0.261-0.486l-53.795-105.786c-2.371-4.663-2.785-9.971-1.165-14.945 c1.621-4.975,5.082-9.02,9.745-11.391c2.74-1.394,5.807-2.13,8.867-2.13c7.415,0,14.108,4.104,17.468,10.711l42.091,82.768 c0.09,0.178,0.172,0.351,0.253,0.525c0.696,1.503,0.825,3.285,0.302,4.857l-11.611,34.855 c-0.816,2.45-3.005,4.184-5.575,4.419C267.166,315.283,266.969,315.292,266.771,315.292z"/></g><g id="change2_7"><path fill="#000000" d="M224.438,183.63c4.768,0,9.365,2.616,11.674,7.157l42.09,82.768c0.064,0.127,0.123,0.254,0.182,0.382 l-11.611,34.855c-0.068-0.124-0.137-0.245-0.201-0.371L212.785,202.65c-3.276-6.442-0.71-14.32,5.733-17.595 C220.418,184.088,222.443,183.63,224.438,183.63 M224.438,170.63c-4.08,0-8.165,0.981-11.814,2.837 c-6.209,3.157-10.819,8.545-12.978,15.17c-2.158,6.625-1.607,13.694,1.551,19.905l53.783,105.762 c0.118,0.232,0.241,0.46,0.366,0.688c2.295,4.194,6.697,6.78,11.419,6.78c0.385,0,0.771-0.017,1.159-0.052 c5.15-0.462,9.548-3.913,11.182-8.819l11.611-34.855c1.046-3.139,0.855-6.558-0.532-9.562 c-0.139-0.301-0.265-0.566-0.4-0.83l-42.085-82.759C243.226,176.096,234.313,170.63,224.438,170.63L224.438,170.63z"/></g></g></g><g><g id="change1_6"><path fill="#ffbab3" d="M205.839,205.512c-20.473,0-37.129-16.657-37.129-37.131c0-20.474,16.656-37.13,37.129-37.13 c20.474,0,37.131,16.656,37.131,37.13C242.97,188.855,226.313,205.512,205.839,205.512z"/></g><g id="change2_6"><path fill="#000000" d="M205.839,137.751c16.917,0,30.63,13.714,30.63,30.63c0,16.917-13.713,30.63-30.63,30.63 c-16.916,0-30.629-13.713-30.629-30.63C175.21,151.465,188.923,137.751,205.839,137.751 M205.839,124.751 c-24.057,0-43.629,19.572-43.629,43.63c0,24.058,19.572,43.63,43.629,43.63c24.058,0,43.63-19.573,43.63-43.63 C249.47,144.324,229.897,124.751,205.839,124.751L205.839,124.751z"/></g></g><g><g id="change1_3"><path fill="#ffbab3" d="M205.84,184.107c-8.671,0-15.726-7.055-15.726-15.726c0-8.671,7.055-15.726,15.726-15.726 s15.726,7.055,15.726,15.726C221.565,177.052,214.511,184.107,205.84,184.107z"/></g><g id="change2_3"><path fill="#000000" d="M205.84,159.156c5.096,0,9.225,4.13,9.225,9.226s-4.129,9.226-9.225,9.226 c-5.095,0-9.226-4.13-9.226-9.226S200.745,159.156,205.84,159.156 M205.84,146.156c-12.255,0-22.226,9.97-22.226,22.226 s9.971,22.226,22.226,22.226c12.255,0,22.225-9.97,22.225-22.226S218.095,146.156,205.84,146.156L205.84,146.156z"/></g></g></g></svg>