<?xml version="1.0" encoding="UTF-8"?><svg xmlns="http://www.w3.org/2000/svg" xmlns:xlink="http://www.w3.org/1999/xlink" contentScriptType="text/ecmascript" fill="#000000" width="206.6" zoomAndPan="magnify" contentStyleType="text/css" viewBox="109.3 69.4 206.6 272.4" height="272.4" preserveAspectRatio="xMidYMid meet" version="1"><g id="change1_2"><ellipse rx="82.842" ry="82.843" fill="#ffbab3" cx="212.6" transform="rotate(-73.154 212.603 172.718)" cy="172.721"/></g><g id="change2_2"><path fill="#000000" d="M212.6,96.378c42.163,0,76.342,34.18,76.342,76.342s-34.18,76.342-76.342,76.342 s-76.342-34.18-76.342-76.342S170.437,96.378,212.6,96.378 M212.6,83.378c-49.263,0-89.342,40.079-89.342,89.342 s40.079,89.342,89.342,89.342s89.342-40.079,89.342-89.342S261.863,83.378,212.6,83.378L212.6,83.378z"/></g><g><g id="change1_1"><path fill="#ffbab3" d="M212.601,255.562c-12.777,0-17.311-21.3-17.311-39.541c0-18.241,4.533-39.541,17.311-39.541 c12.776,0,17.31,21.3,17.31,39.541C229.91,234.262,225.377,255.562,212.601,255.562z"/></g><g id="change2_1"><path fill="#000000" d="M212.6,182.981c5.97,0,10.81,14.793,10.81,33.041c0,18.248-4.84,33.041-10.81,33.041 s-10.81-14.793-10.81-33.041C201.79,197.774,206.63,182.981,212.6,182.981 M212.6,169.981 c-5.192,0-14.695,2.421-19.999,18.635c-2.458,7.511-3.811,17.244-3.811,27.406c0,10.162,1.353,19.895,3.811,27.406 c5.305,16.214,14.807,18.635,19.999,18.635s14.695-2.421,19.999-18.635c2.458-7.511,3.811-17.244,3.811-27.406 c0-10.162-1.353-19.895-3.811-27.406C227.295,172.402,217.792,169.981,212.6,169.981L212.6,169.981z"/></g></g><g><g id="change1_4"><path fill="#ffbab3" d="M192.445,281.721c-7.183,0-13.026-5.844-13.026-13.026c0-7.183,5.844-13.027,13.026-13.027h40.31 c7.183,0,13.026,5.844,13.026,13.027c0,7.183-5.844,13.026-13.026,13.026H192.445z"/></g><g id="change2_4"><path fill="#000000" d="M232.755,262.167c3.605,0,6.527,2.922,6.527,6.527c0,3.604-2.922,6.526-6.527,6.526h-40.309 c-3.604,0-6.527-2.922-6.527-6.526c0-3.605,2.922-6.527,6.527-6.527H232.755 M232.755,249.167h-40.309 c-10.767,0-19.527,8.76-19.527,19.527c0,10.767,8.76,19.526,19.527,19.526h40.309c10.767,0,19.527-8.76,19.527-19.526 C252.281,257.927,243.522,249.167,232.755,249.167L232.755,249.167z"/></g><g id="change1_5"><path fill="#ffbab3" d="M192.445,308.341c-7.183,0-13.026-5.844-13.026-13.027s5.844-13.027,13.026-13.027h40.31 c7.183,0,13.026,5.844,13.026,13.027s-5.844,13.027-13.026,13.027H192.445z"/></g><g id="change2_5"><path fill="#000000" d="M232.755,288.788c3.605,0,6.527,2.922,6.527,6.527c0,3.604-2.922,6.527-6.527,6.527h-40.309 c-3.604,0-6.527-2.922-6.527-6.527c0-3.605,2.922-6.527,6.527-6.527H232.755 M232.755,275.788h-40.309 c-10.767,0-19.527,8.76-19.527,19.527c0,10.767,8.76,19.527,19.527,19.527h40.309c10.767,0,19.527-8.76,19.527-19.527 C252.281,284.547,243.522,275.788,232.755,275.788L232.755,275.788z"/></g><g><g id="change1_3"><path fill="#ffbab3" d="M200.184,335.322c-5.998,0-10.521-5.6-10.521-13.026c0-7.427,4.522-13.027,10.521-13.027h24.833 c5.998,0,10.521,5.6,10.521,13.027c0,7.426-4.523,13.026-10.521,13.026H200.184z"/></g><g id="change2_3"><path fill="#000000" d="M225.017,315.768c2.221,0,4.021,2.922,4.021,6.527c0,3.604-1.8,6.527-4.021,6.527h-24.833 c-2.22,0-4.021-2.922-4.021-6.527c0-3.605,1.8-6.527,4.021-6.527H225.017 M225.017,302.768h-24.833 c-9.544,0-17.021,8.577-17.021,19.527c0,10.949,7.476,19.527,17.021,19.527h24.833c9.544,0,17.021-8.577,17.021-19.527 C242.038,311.346,234.561,302.768,225.017,302.768L225.017,302.768z"/></g></g></g></svg>