<?xml version="1.0" encoding="UTF-8"?><svg xmlns="http://www.w3.org/2000/svg" xmlns:xlink="http://www.w3.org/1999/xlink" contentScriptType="text/ecmascript" fill="#000000" width="256.5" zoomAndPan="magnify" contentStyleType="text/css" viewBox="84.3 87.6 256.5 252.3" height="252.3" preserveAspectRatio="xMidYMid meet" version="1"><g id="change1_5"><path fill="#ffbab3" d="M143.825,209.04c-13.269,0-24.062-10.794-24.062-24.063v-77.11c0-8.497,9.22-13.774,24.062-13.774 s24.063,5.278,24.063,13.774v77.11C167.888,198.246,157.094,209.04,143.825,209.04z"/></g><g id="change2_7"><path fill="#000000" d="M143.825,100.593c8.781,0,17.563,2.425,17.563,7.274v77.11c0,9.7-7.863,17.563-17.563,17.563 s-17.562-7.862-17.562-17.563v-77.11C126.263,103.018,135.044,100.593,143.825,100.593 M143.825,87.593 c-4.312,0-10.686,0.454-16.566,2.619c-12.987,4.782-13.997,14.722-13.997,17.655v77.11c0,16.852,13.71,30.563,30.562,30.563 s30.563-13.71,30.563-30.563v-77.11c0-2.933-1.009-12.874-13.997-17.655C154.511,88.047,148.137,87.593,143.825,87.593 L143.825,87.593z"/></g><g id="change1_6"><path fill="#ffbab3" d="M281.375,209.04c-13.269,0-24.063-10.794-24.063-24.063v-77.11c0-8.497,9.22-13.774,24.063-13.774 s24.063,5.278,24.063,13.774v77.11C305.438,198.246,294.644,209.04,281.375,209.04z"/></g><g id="change2_8"><path fill="#000000" d="M281.375,100.593c8.781,0,17.563,2.425,17.563,7.274v77.11c0,9.7-7.863,17.563-17.563,17.563 s-17.563-7.862-17.563-17.563v-77.11C263.813,103.018,272.594,100.593,281.375,100.593 M281.375,87.593 c-4.312,0-10.686,0.454-16.566,2.619c-12.987,4.782-13.997,14.722-13.997,17.655v77.11c0,16.852,13.71,30.563,30.563,30.563 s30.563-13.71,30.563-30.563v-77.11c0-2.933-1.009-12.874-13.997-17.655C292.061,88.047,285.687,87.593,281.375,87.593 L281.375,87.593z"/></g><g id="change1_7"><path fill="#ffbab3" d="M270.485,303.939c-3.59,0-6.5-2.91-6.5-6.5v-38.738c0-20.788,15.788-37.7,35.194-37.7 s35.194,16.912,35.194,37.7v38.738c0,3.59-2.91,6.5-6.5,6.5H270.485z"/></g><g id="change2_9"><path fill="#000000" d="M299.18,227.501c15.847,0,28.694,13.968,28.694,31.2v38.738h-57.389V258.7 C270.485,241.469,283.332,227.501,299.18,227.501 M299.18,214.501c-22.991,0-41.695,19.828-41.695,44.2v38.738 c0,7.18,5.82,13,13,13h57.389c7.18,0,13-5.82,13-13V258.7C340.874,234.329,322.17,214.501,299.18,214.501L299.18,214.501z"/></g><g id="change1_8"><path fill="#ffbab3" d="M97.326,303.939c-3.59,0-6.5-2.91-6.5-6.5v-38.738c0-20.788,15.788-37.7,35.194-37.7 s35.194,16.912,35.194,37.7v38.738c0,3.59-2.91,6.5-6.5,6.5H97.326z"/></g><g id="change2_10"><path fill="#000000" d="M126.021,227.501c15.848,0,28.695,13.968,28.695,31.2v38.738H97.326V258.7 C97.326,241.469,110.173,227.501,126.021,227.501 M126.021,214.501c-22.99,0-41.694,19.828-41.694,44.2v38.738 c0,7.18,5.82,13,13,13h57.389c7.18,0,13-5.82,13-13V258.7C167.715,234.329,149.011,214.501,126.021,214.501L126.021,214.501z"/></g><g id="change1_9"><path fill="#ffbab3" d="M123.952,333.359c-3.59,0-6.5-2.91-6.5-6.5V216.791c0-52.465,42.683-95.148,95.147-95.148 s95.148,42.683,95.148,95.148v110.068c0,3.59-2.91,6.5-6.5,6.5H123.952z"/></g><g id="change2_11"><path fill="#000000" d="M212.6,128.143c48.959,0,88.648,39.689,88.648,88.648v110.067H123.952V216.791 C123.952,167.832,163.641,128.143,212.6,128.143 M212.6,115.143c-56.049,0-101.648,45.599-101.648,101.648v110.067 c0,7.18,5.82,13,13,13h177.297c7.18,0,13-5.82,13-13V216.791C314.249,160.742,268.649,115.143,212.6,115.143L212.6,115.143z"/></g><g><g id="change1_3"><path fill="#ffbab3" d="M123.952,333.359c-3.59,0-6.5-2.91-6.5-6.5V216.791c0-52.465,42.683-95.148,95.147-95.148 s95.148,42.683,95.148,95.148v110.068c0,3.59-2.91,6.5-6.5,6.5H123.952z"/></g><g id="change2_5"><path fill="#000000" d="M212.6,128.143c48.959,0,88.648,39.689,88.648,88.648v110.067H123.952V216.791 C123.952,167.832,163.641,128.143,212.6,128.143 M212.6,115.143c-56.049,0-101.648,45.599-101.648,101.648v110.067 c0,7.18,5.82,13,13,13h177.297c7.18,0,13-5.82,13-13V216.791C314.249,160.742,268.649,115.143,212.6,115.143L212.6,115.143z"/></g></g><g><g id="change1_2"><path fill="#ffbab3" d="M182.398,219.067c-3.59,0-6.5-2.91-6.5-6.5v-3.805c0-20.237,16.464-36.701,36.701-36.701 s36.701,16.464,36.701,36.701v3.805c0,3.59-2.91,6.5-6.5,6.5H182.398z"/></g><g id="change2_2"><path fill="#000000" d="M212.6,178.561c16.679,0,30.201,13.521,30.201,30.201v3.805h-60.402v-3.805 C182.399,192.082,195.921,178.561,212.6,178.561 M212.6,165.561c-23.821,0-43.201,19.38-43.201,43.201v3.805 c0,7.18,5.82,13,13,13h60.402c7.18,0,13-5.82,13-13v-3.805C255.801,184.941,236.421,165.561,212.6,165.561L212.6,165.561z"/></g></g><g><g id="change1_1"><path fill="#ffbab3" d="M234.602,123.115v-2.772c0-12.151-9.851-22.001-22.001-22.001s-22.001,9.85-22.001,22.001v2.772"/></g><g id="change2_1"><path fill="#000000" d="M234.602,129.615c-3.59,0-6.5-2.91-6.5-6.5v-2.772c0-8.548-6.954-15.502-15.502-15.502 c-8.547,0-15.501,6.954-15.501,15.502v2.772c0,3.59-2.91,6.5-6.5,6.5s-6.5-2.91-6.5-6.5v-2.772 c0-15.716,12.785-28.502,28.501-28.502s28.502,12.786,28.502,28.502v2.772C241.102,126.705,238.191,129.615,234.602,129.615z"/></g></g><g id="change2_4"><path fill="#000000" d="M274.182,219.447c-3.59,0-6.5-2.91-6.5-6.5c0-6.632-1.164-13.114-3.461-19.264 c-1.255-3.363,0.453-7.107,3.816-8.363c3.363-1.256,7.107,0.453,8.363,3.816c2.841,7.609,4.281,15.62,4.281,23.811 C280.682,216.537,277.771,219.447,274.182,219.447z M151.019,219.447c-3.59,0-6.5-2.91-6.5-6.5c0-6.5,0.916-12.932,2.723-19.118 c1.008-3.446,4.621-5.422,8.062-4.417c3.446,1.006,5.424,4.616,4.417,8.062c-1.461,5.001-2.201,10.207-2.201,15.473 C157.519,216.537,154.608,219.447,151.019,219.447z M163.261,182.585c-1.355,0-2.722-0.422-3.89-1.297 c-2.874-2.151-3.46-6.225-1.31-9.099c4.887-6.529,10.835-12.078,17.68-16.493c3.018-1.945,7.039-1.078,8.985,1.939 s1.078,7.04-1.938,8.986c-5.543,3.575-10.36,8.069-14.318,13.358C167.192,181.685,165.239,182.585,163.261,182.585z M259.131,179.104c-1.818,0-3.627-0.759-4.912-2.24c-4.332-4.992-9.46-9.126-15.241-12.286c-3.15-1.722-4.309-5.671-2.587-8.821 c1.721-3.15,5.673-4.308,8.821-2.586c7.143,3.904,13.477,9.009,18.825,15.172c2.353,2.711,2.063,6.817-0.649,9.169 C262.158,178.581,260.641,179.104,259.131,179.104z M199.464,159.269c-2.993,0-5.686-2.079-6.347-5.123 c-0.761-3.508,1.466-6.97,4.974-7.731c4.739-1.029,9.621-1.55,14.509-1.55c0.004,0,0.008,0,0.012,0 c3.223,0,6.465,0.229,9.637,0.679c3.554,0.505,6.026,3.795,5.521,7.35c-0.505,3.553-3.803,6.025-7.35,5.521 c-2.568-0.365-5.196-0.55-7.811-0.55c-0.003,0-0.006,0-0.009,0c-3.964,0-7.917,0.422-11.752,1.254 C200.384,159.221,199.92,159.269,199.464,159.269z"/></g><g><g id="change1_4"><path fill="#ffbab3" d="M164.573,311.678c-3.59,0-6.5-2.91-6.5-6.5v-62.085c0-3.59,2.91-6.5,6.5-6.5h96.054c3.59,0,6.5,2.91,6.5,6.5 v62.085c0,3.59-2.91,6.5-6.5,6.5H164.573z"/></g><g id="change2_6"><path fill="#000000" d="M260.627,243.093v62.085h-96.054v-62.085H260.627 M260.627,230.093h-96.054c-7.18,0-13,5.82-13,13v62.085 c0,7.18,5.82,13,13,13h96.054c7.18,0,13-5.82,13-13v-62.085C273.627,235.913,267.807,230.093,260.627,230.093L260.627,230.093z"/></g></g><g fill="#000000" id="change2_3"><path fill="inherit" d="M189.6,266.53h-11c-3.59,0-6.5-2.91-6.5-6.5s2.91-6.5,6.5-6.5h11c3.59,0,6.5,2.91,6.5,6.5 S193.189,266.53,189.6,266.53z"/><path fill="inherit" d="M220.268,266.53h-15.334c-3.59,0-6.5-2.91-6.5-6.5s2.91-6.5,6.5-6.5h15.334c3.59,0,6.5,2.91,6.5,6.5 S223.857,266.53,220.268,266.53z"/><path fill="inherit" d="M246.601,266.53h-11c-3.59,0-6.5-2.91-6.5-6.5s2.91-6.5,6.5-6.5h11c3.59,0,6.5,2.91,6.5,6.5 S250.19,266.53,246.601,266.53z"/></g></svg>